<?xml version="1.0" encoding="UTF-8"?>
<svg xmlns="http://www.w3.org/2000/svg" width="278" height="120" viewBox="0 0 278 120" fill="none">
  <path d="M121.15 67.3603C121.03 67.3603 120.927 67.3221 120.839 67.2458C120.763 67.1695 120.725 67.0713 120.725 66.9514V65.7901C120.725 65.7138 120.747 65.5993 120.79 65.4466C120.834 65.2831 120.949 65.1304 121.134 64.9887L122.835 63.3204C123.707 62.6552 124.421 62.0937 124.978 61.6357C125.545 61.1668 125.964 60.7525 126.237 60.3926C126.51 60.0328 126.646 59.6948 126.646 59.3786C126.646 59.0078 126.548 58.7025 126.351 58.4626C126.166 58.2119 125.839 58.0865 125.37 58.0865C125.054 58.0865 124.787 58.1573 124.569 58.2991C124.361 58.4299 124.203 58.6044 124.094 58.8225C123.985 59.0406 123.909 59.2641 123.865 59.4931C123.822 59.6348 123.745 59.733 123.636 59.7875C123.538 59.842 123.429 59.8693 123.309 59.8693H121.265C121.167 59.8693 121.085 59.8365 121.019 59.7711C120.954 59.7057 120.921 59.6239 120.921 59.5258C120.932 59.0024 121.041 58.5117 121.248 58.0537C121.466 57.5958 121.766 57.1923 122.148 56.8434C122.541 56.4836 123.004 56.2055 123.538 56.0093C124.083 55.813 124.694 55.7148 125.37 55.7148C126.297 55.7148 127.082 55.862 127.725 56.1565C128.38 56.4509 128.876 56.8652 129.214 57.3995C129.552 57.9229 129.721 58.539 129.721 59.2477C129.721 59.782 129.601 60.2836 129.361 60.7525C129.132 61.2104 128.799 61.6521 128.363 62.0773C127.938 62.4917 127.431 62.9224 126.842 63.3694L125.337 64.8905H129.541C129.661 64.8905 129.759 64.9287 129.835 65.005C129.922 65.0814 129.966 65.1795 129.966 65.2994V66.9514C129.966 67.0713 129.922 67.1695 129.835 67.2458C129.759 67.3221 129.661 67.3603 129.541 67.3603H121.15Z" fill="#BF1E2D"></path>
  <path d="M136.008 67.5238C135.157 67.5238 134.432 67.4257 133.833 67.2294C133.233 67.0223 132.742 66.7606 132.36 66.4444C131.979 66.1172 131.695 65.7738 131.51 65.4139C131.325 65.0432 131.226 64.6888 131.216 64.3508C131.216 64.2527 131.248 64.1709 131.314 64.1055C131.39 64.04 131.477 64.0073 131.575 64.0073H133.702C133.833 64.0073 133.936 64.0346 134.012 64.0891C134.089 64.1327 134.16 64.209 134.225 64.3181C134.312 64.5253 134.438 64.6943 134.601 64.8251C134.776 64.956 134.983 65.0486 135.223 65.1032C135.463 65.1468 135.724 65.1686 136.008 65.1686C136.564 65.1686 136.995 65.0432 137.3 64.7924C137.616 64.5307 137.774 64.1763 137.774 63.7293C137.774 63.2604 137.627 62.9278 137.333 62.7316C137.038 62.5244 136.618 62.4208 136.073 62.4208H134.258C134.138 62.4208 134.04 62.3826 133.963 62.3063C133.887 62.23 133.849 62.1318 133.849 62.0119V61.096C133.849 60.9651 133.876 60.8506 133.931 60.7525C133.985 60.6543 134.045 60.5835 134.111 60.5399L136.793 58.2664H132.246C132.137 58.2664 132.039 58.2282 131.952 58.1519C131.875 58.0756 131.837 57.9774 131.837 57.8575V56.32C131.837 56.2001 131.875 56.1019 131.952 56.0256C132.039 55.9493 132.137 55.9111 132.246 55.9111H139.77C139.89 55.9111 139.988 55.9493 140.064 56.0256C140.151 56.1019 140.195 56.2001 140.195 56.32V57.7103C140.195 57.8302 140.168 57.9393 140.113 58.0374C140.059 58.1246 139.999 58.1955 139.933 58.25L137.447 60.5562L137.562 60.5889C138.183 60.6652 138.739 60.8343 139.23 61.096C139.721 61.3467 140.108 61.7011 140.391 62.1591C140.675 62.6171 140.817 63.2004 140.817 63.9092C140.817 64.6506 140.604 65.294 140.179 65.8392C139.764 66.3735 139.197 66.7878 138.478 67.0822C137.758 67.3766 136.935 67.5238 136.008 67.5238Z" fill="#BF1E2D"></path>
  <path d="M116.455 67.3603C116.346 67.3603 116.248 67.3221 116.161 67.2458C116.084 67.1695 116.046 67.0713 116.046 66.9514V59.553L113.355 60.469V58.0919L118.99 55.9111V66.9514C118.99 67.0713 118.946 67.1695 118.859 67.2458C118.783 67.3221 118.69 67.3603 118.581 67.3603H116.455Z" fill="#BF1E2D"></path>
  <path d="M146.317 67.5348C145.306 67.5348 144.457 67.3836 143.77 67.0812C143.084 66.7672 142.555 66.3659 142.183 65.8774C141.822 65.3773 141.63 64.8481 141.607 64.2898C141.607 64.1968 141.642 64.1153 141.712 64.0455C141.793 63.9641 141.886 63.9234 141.991 63.9234H142.881C143.02 63.9234 143.125 63.9583 143.195 64.0281C143.264 64.0979 143.311 64.1793 143.334 64.2724C143.392 64.5515 143.532 64.8306 143.753 65.1098C143.985 65.3773 144.305 65.6041 144.712 65.7902C145.131 65.9646 145.666 66.0519 146.317 66.0519C147.318 66.0519 148.05 65.8774 148.516 65.5285C148.993 65.1679 149.231 64.6911 149.231 64.0979C149.231 63.6908 149.103 63.3651 148.847 63.1209C148.603 62.865 148.225 62.6382 147.713 62.4405C147.201 62.2428 146.538 62.0276 145.724 61.795C144.875 61.5507 144.172 61.2832 143.613 60.9924C143.055 60.7017 142.636 60.3411 142.357 59.9108C142.09 59.4804 141.956 58.9338 141.956 58.2708C141.956 57.6427 142.125 57.0845 142.462 56.596C142.799 56.0958 143.282 55.7004 143.91 55.4096C144.55 55.1188 145.323 54.9734 146.23 54.9734C146.951 54.9734 147.579 55.0723 148.114 55.27C148.661 55.4561 149.115 55.712 149.475 56.0377C149.836 56.3517 150.109 56.6948 150.295 57.067C150.481 57.4276 150.58 57.7823 150.592 58.1312C150.592 58.2126 150.563 58.2941 150.505 58.3755C150.446 58.4453 150.353 58.4802 150.225 58.4802H149.301C149.219 58.4802 149.132 58.4569 149.039 58.4104C148.958 58.3639 148.894 58.2766 148.847 58.1487C148.777 57.6718 148.51 57.2705 148.045 56.9449C147.579 56.6192 146.975 56.4564 146.23 56.4564C145.474 56.4564 144.858 56.6018 144.381 56.8925C143.916 57.1833 143.683 57.6369 143.683 58.2534C143.683 58.6488 143.794 58.9803 144.015 59.2478C144.236 59.5037 144.584 59.7305 145.061 59.9282C145.538 60.1259 146.16 60.3353 146.928 60.5563C147.859 60.8122 148.62 61.0855 149.214 61.3763C149.807 61.6554 150.243 62.0101 150.522 62.4405C150.813 62.8592 150.958 63.4 150.958 64.063C150.958 64.7957 150.766 65.4238 150.382 65.9472C149.999 66.459 149.458 66.8544 148.76 67.1336C148.074 67.4011 147.26 67.5348 146.317 67.5348Z" fill="white"></path>
  <path d="M156.189 67.5348C155.305 67.5348 154.566 67.3662 153.973 67.0289C153.38 66.6916 152.926 66.2263 152.612 65.6332C152.298 65.0284 152.124 64.3421 152.089 63.5745C152.077 63.3768 152.072 63.1267 152.072 62.8243C152.072 62.5103 152.077 62.2602 152.089 62.0741C152.124 61.2948 152.298 60.6086 152.612 60.0154C152.938 59.4223 153.398 58.957 153.991 58.6197C154.584 58.2824 155.317 58.1138 156.189 58.1138C157.061 58.1138 157.794 58.2824 158.387 58.6197C158.98 58.957 159.434 59.4223 159.748 60.0154C160.074 60.6086 160.254 61.2948 160.289 62.0741C160.3 62.2602 160.306 62.5103 160.306 62.8243C160.306 63.1267 160.3 63.3768 160.289 63.5745C160.254 64.3421 160.079 65.0284 159.765 65.6332C159.451 66.2263 158.998 66.6916 158.405 67.0289C157.811 67.3662 157.073 67.5348 156.189 67.5348ZM156.189 66.1915C156.91 66.1915 157.486 65.9646 157.916 65.511C158.346 65.0458 158.579 64.3712 158.614 63.4873C158.626 63.3128 158.631 63.0918 158.631 62.8243C158.631 62.5568 158.626 62.3358 158.614 62.1613C158.579 61.2774 158.346 60.6086 157.916 60.155C157.486 59.6898 156.91 59.4572 156.189 59.4572C155.468 59.4572 154.886 59.6898 154.444 60.155C154.014 60.6086 153.787 61.2774 153.764 62.1613C153.752 62.3358 153.746 62.5568 153.746 62.8243C153.746 63.0918 153.752 63.3128 153.764 63.4873C153.787 64.3712 154.014 65.0458 154.444 65.511C154.886 65.9646 155.468 66.1915 156.189 66.1915Z" fill="white"></path>
  <path d="M165.33 67.5348C164.586 67.5348 163.952 67.372 163.429 67.0463C162.917 66.709 162.527 66.2438 162.26 65.6506C161.992 65.0574 161.858 64.377 161.858 63.6094V58.6895C161.858 58.5732 161.893 58.4802 161.963 58.4104C162.045 58.329 162.143 58.2883 162.26 58.2883H163.132C163.248 58.2883 163.341 58.329 163.411 58.4104C163.493 58.4802 163.533 58.5732 163.533 58.6895V63.5222C163.533 65.2552 164.289 66.1217 165.801 66.1217C166.522 66.1217 167.098 65.8949 167.529 65.4413C167.971 64.976 168.192 64.3363 168.192 63.5222V58.6895C168.192 58.5732 168.226 58.4802 168.296 58.4104C168.378 58.329 168.476 58.2883 168.593 58.2883H169.448C169.576 58.2883 169.674 58.329 169.744 58.4104C169.814 58.4802 169.849 58.5732 169.849 58.6895V66.9591C169.849 67.0754 169.814 67.1743 169.744 67.2557C169.674 67.3255 169.576 67.3604 169.448 67.3604H168.645C168.529 67.3604 168.43 67.3255 168.349 67.2557C168.279 67.1743 168.244 67.0754 168.244 66.9591V66.1915C167.93 66.5985 167.546 66.9242 167.092 67.1684C166.65 67.4127 166.063 67.5348 165.33 67.5348Z" fill="white"></path>
  <path d="M172.297 67.3604C172.181 67.3604 172.082 67.3255 172 67.2557C171.93 67.1743 171.896 67.0754 171.896 66.9591V58.707C171.896 58.5907 171.93 58.4918 172 58.4104C172.082 58.329 172.181 58.2883 172.297 58.2883H173.099C173.216 58.2883 173.315 58.329 173.396 58.4104C173.477 58.4918 173.518 58.5907 173.518 58.707V59.4746C173.751 59.0792 174.071 58.7826 174.478 58.5848C174.885 58.3871 175.373 58.2883 175.943 58.2883H176.641C176.757 58.2883 176.85 58.329 176.92 58.4104C176.99 58.4802 177.025 58.5732 177.025 58.6895V59.4048C177.025 59.5211 176.99 59.6142 176.92 59.684C176.85 59.7537 176.757 59.7886 176.641 59.7886H175.594C174.966 59.7886 174.472 59.9747 174.111 60.3469C173.751 60.7075 173.57 61.2018 173.57 61.8299V66.9591C173.57 67.0754 173.53 67.1743 173.448 67.2557C173.367 67.3255 173.268 67.3604 173.152 67.3604H172.297Z" fill="white"></path>
  <path d="M181.471 67.5348C180.646 67.5348 179.93 67.3778 179.325 67.0638C178.732 66.7381 178.273 66.2787 177.947 65.6855C177.621 65.0807 177.447 64.3596 177.424 63.5222C177.412 63.3477 177.406 63.1151 177.406 62.8243C177.406 62.5335 177.412 62.3009 177.424 62.1264C177.447 61.289 177.621 60.5737 177.947 59.9805C178.273 59.3757 178.732 58.9163 179.325 58.6023C179.93 58.2766 180.646 58.1138 181.471 58.1138C182.146 58.1138 182.722 58.2068 183.199 58.3929C183.687 58.579 184.088 58.8175 184.402 59.1082C184.716 59.399 184.949 59.713 185.1 60.0503C185.263 60.3876 185.35 60.7075 185.362 61.0099C185.373 61.1262 185.339 61.2192 185.257 61.289C185.176 61.3588 185.077 61.3937 184.961 61.3937H184.123C184.007 61.3937 183.92 61.3704 183.861 61.3239C183.803 61.2658 183.745 61.1727 183.687 61.0448C183.478 60.4749 183.193 60.0736 182.832 59.841C182.472 59.6084 182.024 59.492 181.489 59.492C180.791 59.492 180.221 59.7072 179.779 60.1376C179.349 60.5679 179.116 61.2599 179.081 62.2137C179.07 62.6324 179.07 63.0395 179.081 63.4349C179.116 64.4003 179.349 65.0981 179.779 65.5285C180.221 65.9472 180.791 66.1566 181.489 66.1566C182.024 66.1566 182.472 66.0402 182.832 65.8076C183.193 65.575 183.478 65.1737 183.687 64.6038C183.745 64.4759 183.803 64.3887 183.861 64.3421C183.92 64.284 184.007 64.2549 184.123 64.2549H184.961C185.077 64.2549 185.176 64.2898 185.257 64.3596C185.339 64.4294 185.373 64.5224 185.362 64.6387C185.35 64.883 185.298 65.133 185.205 65.3889C185.112 65.6448 184.961 65.9065 184.751 66.174C184.554 66.4299 184.303 66.6625 184.001 66.8719C183.699 67.0696 183.332 67.2324 182.902 67.3604C182.483 67.4767 182.006 67.5348 181.471 67.5348Z" fill="white"></path>
  <path d="M187.29 67.3604C187.174 67.3604 187.075 67.3255 186.993 67.2557C186.923 67.1743 186.889 67.0754 186.889 66.9591V58.6895C186.889 58.5732 186.923 58.4802 186.993 58.4104C187.075 58.329 187.174 58.2883 187.29 58.2883H188.127C188.244 58.2883 188.337 58.329 188.406 58.4104C188.476 58.4802 188.511 58.5732 188.511 58.6895V66.9591C188.511 67.0754 188.476 67.1743 188.406 67.2557C188.337 67.3255 188.244 67.3604 188.127 67.3604H187.29ZM187.15 56.596C187.034 56.596 186.935 56.5611 186.854 56.4913C186.784 56.4099 186.749 56.311 186.749 56.1947V55.2526C186.749 55.1363 186.784 55.0432 186.854 54.9734C186.935 54.892 187.034 54.8513 187.15 54.8513H188.249C188.366 54.8513 188.459 54.892 188.529 54.9734C188.61 55.0432 188.651 55.1363 188.651 55.2526V56.1947C188.651 56.311 188.61 56.4099 188.529 56.4913C188.459 56.5611 188.366 56.596 188.249 56.596H187.15Z" fill="white"></path>
  <path d="M191.14 67.3604C191.024 67.3604 190.925 67.3255 190.844 67.2557C190.774 67.1743 190.739 67.0754 190.739 66.9591V58.6895C190.739 58.5732 190.774 58.4802 190.844 58.4104C190.925 58.329 191.024 58.2883 191.14 58.2883H191.96C192.077 58.2883 192.17 58.329 192.239 58.4104C192.321 58.4802 192.362 58.5732 192.362 58.6895V59.4572C192.664 59.0617 193.042 58.7419 193.496 58.4976C193.961 58.2417 194.554 58.1138 195.275 58.1138C196.031 58.1138 196.671 58.2824 197.194 58.6197C197.729 58.9454 198.13 59.4048 198.398 59.998C198.665 60.5795 198.799 61.2599 198.799 62.0392V66.9591C198.799 67.0754 198.764 67.1743 198.695 67.2557C198.625 67.3255 198.532 67.3604 198.415 67.3604H197.543C197.427 67.3604 197.328 67.3255 197.247 67.2557C197.177 67.1743 197.142 67.0754 197.142 66.9591V62.1264C197.142 61.3123 196.944 60.6784 196.549 60.2248C196.153 59.7596 195.572 59.5269 194.804 59.5269C194.083 59.5269 193.501 59.7596 193.059 60.2248C192.629 60.6784 192.414 61.3123 192.414 62.1264V66.9591C192.414 67.0754 192.373 67.1743 192.292 67.2557C192.222 67.3255 192.129 67.3604 192.013 67.3604H191.14Z" fill="white"></path>
  <path d="M204.49 71.1986C203.699 71.1986 203.048 71.0939 202.536 70.8845C202.036 70.6752 201.641 70.4193 201.35 70.1169C201.071 69.8261 200.867 69.5295 200.739 69.2271C200.623 68.9363 200.559 68.7037 200.547 68.5293C200.536 68.413 200.571 68.3141 200.652 68.2327C200.745 68.1513 200.844 68.1105 200.949 68.1105H201.786C201.891 68.1105 201.978 68.1338 202.048 68.1803C202.117 68.2269 202.176 68.3257 202.222 68.4769C202.292 68.6514 202.397 68.8433 202.536 69.0527C202.676 69.2736 202.891 69.4597 203.182 69.6109C203.472 69.7738 203.88 69.8552 204.403 69.8552C204.95 69.8552 205.409 69.7796 205.781 69.6284C206.153 69.4888 206.433 69.2329 206.619 68.8607C206.816 68.5002 206.915 68.0001 206.915 67.3604V66.174C206.636 66.5346 206.27 66.837 205.816 67.0812C205.362 67.3138 204.793 67.4301 204.106 67.4301C203.455 67.4301 202.897 67.3196 202.431 67.0987C201.966 66.866 201.582 66.5578 201.28 66.174C200.989 65.7786 200.768 65.3308 200.617 64.8306C200.477 64.3305 200.396 63.8071 200.373 63.2605C200.361 62.9348 200.361 62.6149 200.373 62.3009C200.396 61.7543 200.477 61.2309 200.617 60.7307C200.768 60.2306 200.989 59.7828 201.28 59.3874C201.582 58.9919 201.966 58.6837 202.431 58.4627C202.897 58.2301 203.455 58.1138 204.106 58.1138C204.804 58.1138 205.38 58.2475 205.834 58.5151C206.299 58.7709 206.677 59.085 206.968 59.4572V58.707C206.968 58.5907 207.002 58.4918 207.072 58.4104C207.154 58.329 207.252 58.2883 207.369 58.2883H208.171C208.288 58.2883 208.387 58.329 208.468 58.4104C208.549 58.4918 208.59 58.5907 208.59 58.707V67.1684C208.59 67.9477 208.456 68.6398 208.189 69.2446C207.933 69.8494 207.503 70.3262 206.898 70.6752C206.305 71.0241 205.502 71.1986 204.49 71.1986ZM204.455 66.0344C205.037 66.0344 205.502 65.9007 205.851 65.6332C206.212 65.3657 206.473 65.0284 206.636 64.6213C206.811 64.2142 206.904 63.8013 206.915 63.3826C206.927 63.2198 206.933 63.022 206.933 62.7894C206.933 62.5452 206.927 62.3416 206.915 62.1788C206.904 61.7601 206.811 61.3472 206.636 60.9401C206.473 60.533 206.212 60.1957 205.851 59.9282C205.502 59.6607 205.037 59.5269 204.455 59.5269C203.874 59.5269 203.408 59.6607 203.06 59.9282C202.711 60.1841 202.461 60.5272 202.309 60.9575C202.158 61.3763 202.071 61.8299 202.048 62.3184C202.036 62.6208 202.036 62.929 202.048 63.243C202.071 63.7315 202.158 64.1909 202.309 64.6213C202.461 65.04 202.711 65.3831 203.06 65.6506C203.408 65.9065 203.874 66.0344 204.455 66.0344Z" fill="white"></path>
  <path d="M116.563 73.968C116.254 73.968 115.986 73.9091 115.759 73.7913C115.536 73.6692 115.364 73.4969 115.242 73.2745C115.12 73.0477 115.054 72.7773 115.046 72.4632C115.041 72.3978 115.039 72.3106 115.039 72.2015C115.039 72.0925 115.041 72.0053 115.046 71.9398C115.054 71.6258 115.12 71.3576 115.242 71.1351C115.364 70.9083 115.536 70.736 115.759 70.6183C115.986 70.4962 116.254 70.4351 116.563 70.4351C116.816 70.4351 117.032 70.47 117.211 70.5398C117.394 70.6096 117.545 70.699 117.663 70.808C117.78 70.9171 117.868 71.0348 117.924 71.1613C117.985 71.2878 118.018 71.4077 118.022 71.5211C118.027 71.5647 118.014 71.5996 117.983 71.6258C117.953 71.652 117.916 71.6651 117.872 71.6651H117.558C117.514 71.6651 117.482 71.6563 117.46 71.6389C117.438 71.6171 117.416 71.5822 117.394 71.5342C117.316 71.3205 117.209 71.17 117.074 71.0828C116.939 70.9956 116.771 70.9519 116.57 70.9519C116.308 70.9519 116.095 71.0326 115.929 71.194C115.767 71.3554 115.68 71.6149 115.667 71.9726C115.663 72.1296 115.663 72.2822 115.667 72.4305C115.68 72.7925 115.767 73.0542 115.929 73.2156C116.095 73.3726 116.308 73.4511 116.57 73.4511C116.771 73.4511 116.939 73.4075 117.074 73.3203C117.209 73.2331 117.316 73.0826 117.394 72.8689C117.416 72.8209 117.438 72.7882 117.46 72.7707C117.482 72.7489 117.514 72.738 117.558 72.738H117.872C117.916 72.738 117.953 72.7511 117.983 72.7773C118.014 72.8034 118.027 72.8383 118.022 72.8819C118.018 72.9735 117.998 73.0673 117.964 73.1633C117.929 73.2592 117.872 73.3574 117.793 73.4577C117.719 73.5536 117.625 73.6409 117.512 73.7194C117.399 73.7935 117.261 73.8546 117.1 73.9026C116.943 73.9462 116.764 73.968 116.563 73.968Z" fill="white"></path>
  <path d="M119.866 73.968C119.534 73.968 119.257 73.9047 119.035 73.7783C118.812 73.6518 118.642 73.4773 118.525 73.2549C118.407 73.0281 118.341 72.7707 118.328 72.4829C118.324 72.4087 118.322 72.3149 118.322 72.2015C118.322 72.0838 118.324 71.99 118.328 71.9202C118.341 71.628 118.407 71.3707 118.525 71.1482C118.647 70.9258 118.819 70.7513 119.041 70.6248C119.264 70.4983 119.539 70.4351 119.866 70.4351C120.193 70.4351 120.468 70.4983 120.69 70.6248C120.913 70.7513 121.083 70.9258 121.2 71.1482C121.323 71.3707 121.39 71.628 121.403 71.9202C121.408 71.99 121.41 72.0838 121.41 72.2015C121.41 72.3149 121.408 72.4087 121.403 72.4829C121.39 72.7707 121.325 73.0281 121.207 73.2549C121.089 73.4773 120.919 73.6518 120.697 73.7783C120.474 73.9047 120.197 73.968 119.866 73.968ZM119.866 73.4642C120.136 73.4642 120.352 73.3792 120.513 73.2091C120.675 73.0346 120.762 72.7816 120.775 72.4501C120.78 72.3847 120.782 72.3019 120.782 72.2015C120.782 72.1012 120.78 72.0184 120.775 71.9529C120.762 71.6214 120.675 71.3707 120.513 71.2006C120.352 71.0261 120.136 70.9389 119.866 70.9389C119.595 70.9389 119.377 71.0261 119.212 71.2006C119.05 71.3707 118.965 71.6214 118.956 71.9529C118.952 72.0184 118.95 72.1012 118.95 72.2015C118.95 72.3019 118.952 72.3847 118.956 72.4501C118.965 72.7816 119.05 73.0346 119.212 73.2091C119.377 73.3792 119.595 73.4642 119.866 73.4642Z" fill="white"></path>
  <path d="M122.052 73.9026C122.009 73.9026 121.972 73.8895 121.941 73.8633C121.915 73.8328 121.902 73.7957 121.902 73.7521V70.651C121.902 70.6074 121.915 70.5725 121.941 70.5463C121.972 70.5158 122.009 70.5005 122.052 70.5005H122.36C122.403 70.5005 122.438 70.5158 122.465 70.5463C122.495 70.5725 122.51 70.6074 122.51 70.651V70.9389C122.624 70.7906 122.765 70.6706 122.936 70.579C123.11 70.4831 123.332 70.4351 123.603 70.4351C123.886 70.4351 124.126 70.4983 124.323 70.6248C124.523 70.7469 124.674 70.9192 124.774 71.1417C124.874 71.3598 124.924 71.6149 124.924 71.9071V73.7521C124.924 73.7957 124.911 73.8328 124.885 73.8633C124.859 73.8895 124.824 73.9026 124.781 73.9026H124.453C124.41 73.9026 124.373 73.8895 124.342 73.8633C124.316 73.8328 124.303 73.7957 124.303 73.7521V71.9398C124.303 71.6345 124.229 71.3968 124.08 71.2267C123.932 71.0523 123.714 70.965 123.426 70.965C123.156 70.965 122.938 71.0523 122.772 71.2267C122.611 71.3968 122.53 71.6345 122.53 71.9398V73.7521C122.53 73.7957 122.515 73.8328 122.484 73.8633C122.458 73.8895 122.423 73.9026 122.379 73.9026H122.052Z" fill="white"></path>
  <path d="M126.826 73.9026C126.581 73.9026 126.383 73.8568 126.23 73.7652C126.078 73.6692 125.966 73.5362 125.897 73.3661C125.827 73.1916 125.792 72.9866 125.792 72.7511V71.0239H125.282C125.238 71.0239 125.201 71.0108 125.171 70.9847C125.144 70.9541 125.131 70.9171 125.131 70.8734V70.651C125.131 70.6074 125.144 70.5725 125.171 70.5463C125.201 70.5158 125.238 70.5005 125.282 70.5005H125.792V69.4079C125.792 69.3643 125.805 69.3294 125.831 69.3033C125.862 69.2727 125.899 69.2575 125.943 69.2575H126.25C126.294 69.2575 126.329 69.2727 126.355 69.3033C126.385 69.3294 126.4 69.3643 126.4 69.4079V70.5005H127.212C127.255 70.5005 127.29 70.5158 127.316 70.5463C127.347 70.5725 127.362 70.6074 127.362 70.651V70.8734C127.362 70.9171 127.347 70.9541 127.316 70.9847C127.29 71.0108 127.255 71.0239 127.212 71.0239H126.4V72.7053C126.4 72.9103 126.435 73.0717 126.505 73.1894C126.575 73.3072 126.699 73.3661 126.878 73.3661H127.277C127.321 73.3661 127.356 73.3813 127.382 73.4119C127.412 73.438 127.428 73.4729 127.428 73.5166V73.7521C127.428 73.7957 127.412 73.8328 127.382 73.8633C127.356 73.8895 127.321 73.9026 127.277 73.9026H126.826Z" fill="white"></path>
  <path d="M127.877 73.9026C127.833 73.9026 127.796 73.8895 127.765 73.8633C127.739 73.8328 127.726 73.7957 127.726 73.7521V70.6575C127.726 70.6139 127.739 70.5768 127.765 70.5463C127.796 70.5158 127.833 70.5005 127.877 70.5005H128.178C128.221 70.5005 128.258 70.5158 128.289 70.5463C128.319 70.5768 128.335 70.6139 128.335 70.6575V70.9454C128.422 70.7971 128.542 70.6859 128.694 70.6117C128.847 70.5376 129.03 70.5005 129.244 70.5005H129.506C129.549 70.5005 129.584 70.5158 129.61 70.5463C129.637 70.5725 129.65 70.6074 129.65 70.651V70.9192C129.65 70.9628 129.637 70.9977 129.61 71.0239C129.584 71.0501 129.549 71.0632 129.506 71.0632H129.113C128.878 71.0632 128.692 71.1329 128.557 71.2725C128.422 71.4077 128.354 71.5931 128.354 71.8286V73.7521C128.354 73.7957 128.339 73.8328 128.308 73.8633C128.278 73.8895 128.241 73.9026 128.197 73.9026H127.877Z" fill="white"></path>
  <path d="M131.214 73.968C130.883 73.968 130.606 73.9047 130.383 73.7783C130.161 73.6518 129.991 73.4773 129.873 73.2549C129.755 73.0281 129.69 72.7707 129.677 72.4829C129.672 72.4087 129.67 72.3149 129.67 72.2015C129.67 72.0838 129.672 71.99 129.677 71.9202C129.69 71.628 129.755 71.3707 129.873 71.1482C129.995 70.9258 130.167 70.7513 130.39 70.6248C130.612 70.4983 130.887 70.4351 131.214 70.4351C131.541 70.4351 131.816 70.4983 132.038 70.6248C132.261 70.7513 132.431 70.9258 132.549 71.1482C132.671 71.3707 132.738 71.628 132.751 71.9202C132.756 71.99 132.758 72.0838 132.758 72.2015C132.758 72.3149 132.756 72.4087 132.751 72.4829C132.738 72.7707 132.673 73.0281 132.555 73.2549C132.437 73.4773 132.267 73.6518 132.045 73.7783C131.822 73.9047 131.545 73.968 131.214 73.968ZM131.214 73.4642C131.484 73.4642 131.7 73.3792 131.862 73.2091C132.023 73.0346 132.11 72.7816 132.123 72.4501C132.128 72.3847 132.13 72.3019 132.13 72.2015C132.13 72.1012 132.128 72.0184 132.123 71.9529C132.11 71.6214 132.023 71.3707 131.862 71.2006C131.7 71.0261 131.484 70.9389 131.214 70.9389C130.944 70.9389 130.725 71.0261 130.56 71.2006C130.398 71.3707 130.313 71.6214 130.305 71.9529C130.3 72.0184 130.298 72.1012 130.298 72.2015C130.298 72.3019 130.3 72.3847 130.305 72.4501C130.313 72.7816 130.398 73.0346 130.56 73.2091C130.725 73.3792 130.944 73.4642 131.214 73.4642Z" fill="white"></path>
  <path d="M133.407 73.9026C133.363 73.9026 133.326 73.8895 133.296 73.8633C133.27 73.8328 133.257 73.7957 133.257 73.7521V69.4079C133.257 69.3643 133.27 69.3294 133.296 69.3033C133.326 69.2727 133.363 69.2575 133.407 69.2575H133.715C133.763 69.2575 133.8 69.2727 133.826 69.3033C133.852 69.3294 133.865 69.3643 133.865 69.4079V73.7521C133.865 73.7957 133.852 73.8328 133.826 73.8633C133.8 73.8895 133.763 73.9026 133.715 73.9026H133.407Z" fill="white"></path>
  <path d="M135.947 73.9026C135.904 73.9026 135.867 73.8895 135.836 73.8633C135.81 73.8328 135.797 73.7957 135.797 73.7521V69.4079C135.797 69.3643 135.81 69.3294 135.836 69.3033C135.867 69.2727 135.904 69.2575 135.947 69.2575H136.255C136.303 69.2575 136.34 69.2727 136.366 69.3033C136.392 69.3294 136.405 69.3643 136.405 69.4079V73.7521C136.405 73.7957 136.392 73.8328 136.366 73.8633C136.34 73.8895 136.303 73.9026 136.255 73.9026H135.947Z" fill="white"></path>
  <path d="M138.448 73.968C138.116 73.968 137.839 73.9047 137.617 73.7783C137.394 73.6518 137.224 73.4773 137.106 73.2549C136.989 73.0281 136.923 72.7707 136.91 72.4829C136.906 72.4087 136.904 72.3149 136.904 72.2015C136.904 72.0838 136.906 71.99 136.91 71.9202C136.923 71.628 136.989 71.3707 137.106 71.1482C137.229 70.9258 137.401 70.7513 137.623 70.6248C137.846 70.4983 138.121 70.4351 138.448 70.4351C138.775 70.4351 139.05 70.4983 139.272 70.6248C139.494 70.7513 139.665 70.9258 139.782 71.1482C139.904 71.3707 139.972 71.628 139.985 71.9202C139.989 71.99 139.992 72.0838 139.992 72.2015C139.992 72.3149 139.989 72.4087 139.985 72.4829C139.972 72.7707 139.907 73.0281 139.789 73.2549C139.671 73.4773 139.501 73.6518 139.279 73.7783C139.056 73.9047 138.779 73.968 138.448 73.968ZM138.448 73.4642C138.718 73.4642 138.934 73.3792 139.095 73.2091C139.257 73.0346 139.344 72.7816 139.357 72.4501C139.361 72.3847 139.364 72.3019 139.364 72.2015C139.364 72.1012 139.361 72.0184 139.357 71.9529C139.344 71.6214 139.257 71.3707 139.095 71.2006C138.934 71.0261 138.718 70.9389 138.448 70.9389C138.177 70.9389 137.959 71.0261 137.793 71.2006C137.632 71.3707 137.547 71.6214 137.538 71.9529C137.534 72.0184 137.532 72.1012 137.532 72.2015C137.532 72.3019 137.534 72.3847 137.538 72.4501C137.547 72.7816 137.632 73.0346 137.793 73.2091C137.959 73.3792 138.177 73.4642 138.448 73.4642Z" fill="white"></path>
  <path d="M141.877 75.3419C141.581 75.3419 141.336 75.3026 141.145 75.2241C140.957 75.1456 140.809 75.0497 140.7 74.9363C140.595 74.8272 140.519 74.716 140.471 74.6026C140.427 74.4936 140.403 74.4063 140.399 74.3409C140.394 74.2973 140.407 74.2602 140.438 74.2297C140.473 74.1991 140.51 74.1839 140.549 74.1839H140.863C140.902 74.1839 140.935 74.1926 140.961 74.2101C140.988 74.2275 141.009 74.2646 141.027 74.3213C141.053 74.3867 141.092 74.4587 141.145 74.5372C141.197 74.62 141.278 74.6898 141.387 74.7465C141.496 74.8076 141.648 74.8381 141.845 74.8381C142.05 74.8381 142.222 74.8098 142.361 74.7531C142.501 74.7007 142.606 74.6048 142.675 74.4652C142.75 74.33 142.787 74.1424 142.787 73.9026V73.4577C142.682 73.5929 142.545 73.7063 142.375 73.7979C142.204 73.8851 141.991 73.9287 141.733 73.9287C141.489 73.9287 141.28 73.8873 141.105 73.8044C140.931 73.7172 140.787 73.6016 140.674 73.4577C140.564 73.3094 140.482 73.1415 140.425 72.9539C140.373 72.7664 140.342 72.5701 140.333 72.3651C140.329 72.243 140.329 72.123 140.333 72.0053C140.342 71.8003 140.373 71.604 140.425 71.4165C140.482 71.2289 140.564 71.061 140.674 70.9127C140.787 70.7644 140.931 70.6488 141.105 70.5659C141.28 70.4787 141.489 70.4351 141.733 70.4351C141.995 70.4351 142.211 70.4853 142.381 70.5856C142.556 70.6815 142.697 70.7993 142.806 70.9389V70.6575C142.806 70.6139 142.819 70.5768 142.846 70.5463C142.876 70.5158 142.913 70.5005 142.957 70.5005H143.258C143.301 70.5005 143.338 70.5158 143.369 70.5463C143.399 70.5768 143.415 70.6139 143.415 70.6575V73.8306C143.415 74.1228 143.365 74.3823 143.264 74.6091C143.168 74.8359 143.007 75.0148 142.78 75.1456C142.558 75.2765 142.257 75.3419 141.877 75.3419ZM141.864 73.4053C142.082 73.4053 142.257 73.3552 142.388 73.2549C142.523 73.1545 142.621 73.0281 142.682 72.8754C142.747 72.7227 142.782 72.5679 142.787 72.4109C142.791 72.3498 142.793 72.2757 142.793 72.1885C142.793 72.0969 142.791 72.0205 142.787 71.9595C142.782 71.8025 142.747 71.6476 142.682 71.495C142.621 71.3423 142.523 71.2158 142.388 71.1155C142.257 71.0152 142.082 70.965 141.864 70.965C141.646 70.965 141.472 71.0152 141.341 71.1155C141.21 71.2115 141.116 71.3401 141.06 71.5015C141.003 71.6585 140.97 71.8286 140.961 72.0118C140.957 72.1252 140.957 72.2408 140.961 72.3586C140.97 72.5417 141.003 72.714 141.06 72.8754C141.116 73.0324 141.21 73.1611 141.341 73.2614C141.472 73.3574 141.646 73.4053 141.864 73.4053Z" fill="white"></path>
  <path d="M144.211 73.9026C144.167 73.9026 144.13 73.8895 144.1 73.8633C144.073 73.8328 144.06 73.7957 144.06 73.7521V70.651C144.06 70.6074 144.073 70.5725 144.1 70.5463C144.13 70.5158 144.167 70.5005 144.211 70.5005H144.525C144.568 70.5005 144.603 70.5158 144.63 70.5463C144.656 70.5725 144.669 70.6074 144.669 70.651V73.7521C144.669 73.7957 144.656 73.8328 144.63 73.8633C144.603 73.8895 144.568 73.9026 144.525 73.9026H144.211ZM144.158 69.8659C144.115 69.8659 144.078 69.8528 144.047 69.8267C144.021 69.7961 144.008 69.759 144.008 69.7154V69.3621C144.008 69.3185 144.021 69.2836 144.047 69.2575C144.078 69.2269 144.115 69.2117 144.158 69.2117H144.571C144.614 69.2117 144.649 69.2269 144.675 69.2575C144.706 69.2836 144.721 69.3185 144.721 69.3621V69.7154C144.721 69.759 144.706 69.7961 144.675 69.8267C144.649 69.8528 144.614 69.8659 144.571 69.8659H144.158Z" fill="white"></path>
  <path d="M146.534 73.968C146.289 73.968 146.08 73.9375 145.906 73.8764C145.731 73.8153 145.589 73.7412 145.48 73.6539C145.371 73.5667 145.288 73.4795 145.232 73.3923C145.179 73.305 145.151 73.2352 145.147 73.1829C145.142 73.1349 145.158 73.0978 145.192 73.0717C145.227 73.0455 145.262 73.0324 145.297 73.0324H145.585C145.611 73.0324 145.631 73.0368 145.644 73.0455C145.661 73.0499 145.683 73.0673 145.709 73.0978C145.766 73.1589 145.829 73.22 145.899 73.281C145.969 73.3421 146.054 73.3923 146.154 73.4315C146.259 73.4708 146.388 73.4904 146.54 73.4904C146.763 73.4904 146.946 73.449 147.09 73.3661C147.234 73.2789 147.306 73.1524 147.306 72.9866C147.306 72.8776 147.275 72.7904 147.214 72.7249C147.157 72.6595 147.053 72.6006 146.9 72.5483C146.752 72.4959 146.547 72.4414 146.285 72.3847C146.023 72.3237 145.816 72.2495 145.664 72.1623C145.511 72.0707 145.402 71.9638 145.336 71.8417C145.271 71.7152 145.238 71.5735 145.238 71.4165C145.238 71.2551 145.286 71.1002 145.382 70.9519C145.478 70.7993 145.618 70.675 145.801 70.579C145.988 70.4831 146.222 70.4351 146.501 70.4351C146.728 70.4351 146.922 70.4634 147.083 70.5201C147.245 70.5768 147.378 70.6488 147.482 70.736C147.587 70.8189 147.666 70.9018 147.718 70.9847C147.77 71.0675 147.799 71.1373 147.803 71.194C147.807 71.2376 147.794 71.2747 147.764 71.3052C147.733 71.3314 147.698 71.3445 147.659 71.3445H147.384C147.354 71.3445 147.327 71.3379 147.306 71.3249C147.288 71.3118 147.271 71.2965 147.253 71.2791C147.21 71.2224 147.157 71.1657 147.096 71.109C147.04 71.0523 146.963 71.0065 146.867 70.9716C146.776 70.9323 146.654 70.9127 146.501 70.9127C146.283 70.9127 146.119 70.9585 146.01 71.0501C145.901 71.1417 145.847 71.2573 145.847 71.3968C145.847 71.4797 145.871 71.5538 145.919 71.6193C145.967 71.6847 146.058 71.7436 146.193 71.7959C146.329 71.8483 146.529 71.905 146.795 71.966C147.083 72.0227 147.31 72.099 147.476 72.195C147.642 72.291 147.759 72.4022 147.829 72.5287C147.899 72.6551 147.934 72.8013 147.934 72.967C147.934 73.1502 147.879 73.3181 147.77 73.4708C147.666 73.6234 147.509 73.7455 147.299 73.8371C147.094 73.9244 146.839 73.968 146.534 73.968Z" fill="white"></path>
  <path d="M149.686 73.9026C149.441 73.9026 149.243 73.8568 149.09 73.7652C148.938 73.6692 148.827 73.5362 148.757 73.3661C148.687 73.1916 148.652 72.9866 148.652 72.7511V71.0239H148.142C148.098 71.0239 148.061 71.0108 148.031 70.9847C148.004 70.9541 147.991 70.9171 147.991 70.8734V70.651C147.991 70.6074 148.004 70.5725 148.031 70.5463C148.061 70.5158 148.098 70.5005 148.142 70.5005H148.652V69.4079C148.652 69.3643 148.665 69.3294 148.691 69.3033C148.722 69.2727 148.759 69.2575 148.803 69.2575H149.11C149.154 69.2575 149.189 69.2727 149.215 69.3033C149.245 69.3294 149.26 69.3643 149.26 69.4079V70.5005H150.072C150.115 70.5005 150.15 70.5158 150.176 70.5463C150.207 70.5725 150.222 70.6074 150.222 70.651V70.8734C150.222 70.9171 150.207 70.9541 150.176 70.9847C150.15 71.0108 150.115 71.0239 150.072 71.0239H149.26V72.7053C149.26 72.9103 149.295 73.0717 149.365 73.1894C149.435 73.3072 149.559 73.3661 149.738 73.3661H150.137C150.181 73.3661 150.216 73.3813 150.242 73.4119C150.272 73.438 150.288 73.4729 150.288 73.5166V73.7521C150.288 73.7957 150.272 73.8328 150.242 73.8633C150.216 73.8895 150.181 73.9026 150.137 73.9026H149.686Z" fill="white"></path>
  <path d="M150.737 73.9026C150.693 73.9026 150.656 73.8895 150.625 73.8633C150.599 73.8328 150.586 73.7957 150.586 73.7521V70.651C150.586 70.6074 150.599 70.5725 150.625 70.5463C150.656 70.5158 150.693 70.5005 150.737 70.5005H151.051C151.094 70.5005 151.129 70.5158 151.155 70.5463C151.181 70.5725 151.195 70.6074 151.195 70.651V73.7521C151.195 73.7957 151.181 73.8328 151.155 73.8633C151.129 73.8895 151.094 73.9026 151.051 73.9026H150.737ZM150.684 69.8659C150.641 69.8659 150.604 69.8528 150.573 69.8267C150.547 69.7961 150.534 69.759 150.534 69.7154V69.3621C150.534 69.3185 150.547 69.2836 150.573 69.2575C150.604 69.2269 150.641 69.2117 150.684 69.2117H151.096C151.14 69.2117 151.175 69.2269 151.201 69.2575C151.232 69.2836 151.247 69.3185 151.247 69.3621V69.7154C151.247 69.759 151.232 69.7961 151.201 69.8267C151.175 69.8528 151.14 69.8659 151.096 69.8659H150.684Z" fill="white"></path>
  <path d="M153.23 73.968C152.921 73.968 152.652 73.9091 152.425 73.7913C152.203 73.6692 152.031 73.4969 151.909 73.2745C151.786 73.0477 151.721 72.7773 151.712 72.4632C151.708 72.3978 151.706 72.3106 151.706 72.2015C151.706 72.0925 151.708 72.0053 151.712 71.9398C151.721 71.6258 151.786 71.3576 151.909 71.1351C152.031 70.9083 152.203 70.736 152.425 70.6183C152.652 70.4962 152.921 70.4351 153.23 70.4351C153.483 70.4351 153.699 70.47 153.878 70.5398C154.061 70.6096 154.212 70.699 154.329 70.808C154.447 70.9171 154.534 71.0348 154.591 71.1613C154.652 71.2878 154.685 71.4077 154.689 71.5211C154.693 71.5647 154.68 71.5996 154.65 71.6258C154.619 71.652 154.582 71.6651 154.539 71.6651H154.225C154.181 71.6651 154.148 71.6563 154.126 71.6389C154.105 71.6171 154.083 71.5822 154.061 71.5342C153.983 71.3205 153.876 71.17 153.74 71.0828C153.605 70.9956 153.437 70.9519 153.237 70.9519C152.975 70.9519 152.761 71.0326 152.596 71.194C152.434 71.3554 152.347 71.6149 152.334 71.9726C152.33 72.1296 152.33 72.2822 152.334 72.4305C152.347 72.7925 152.434 73.0542 152.596 73.2156C152.761 73.3726 152.975 73.4511 153.237 73.4511C153.437 73.4511 153.605 73.4075 153.74 73.3203C153.876 73.2331 153.983 73.0826 154.061 72.8689C154.083 72.8209 154.105 72.7882 154.126 72.7707C154.148 72.7489 154.181 72.738 154.225 72.738H154.539C154.582 72.738 154.619 72.7511 154.65 72.7773C154.68 72.8034 154.693 72.8383 154.689 72.8819C154.685 72.9735 154.665 73.0673 154.63 73.1633C154.595 73.2592 154.539 73.3574 154.46 73.4577C154.386 73.5536 154.292 73.6409 154.179 73.7194C154.065 73.7935 153.928 73.8546 153.767 73.9026C153.61 73.9462 153.431 73.968 153.23 73.968Z" fill="white"></path>
  <path d="M156.532 73.968C156.201 73.968 155.924 73.9047 155.702 73.7783C155.479 73.6518 155.309 73.4773 155.191 73.2549C155.074 73.0281 155.008 72.7707 154.995 72.4829C154.991 72.4087 154.988 72.3149 154.988 72.2015C154.988 72.0838 154.991 71.99 154.995 71.9202C155.008 71.628 155.074 71.3707 155.191 71.1482C155.313 70.9258 155.486 70.7513 155.708 70.6248C155.931 70.4983 156.205 70.4351 156.532 70.4351C156.86 70.4351 157.134 70.4983 157.357 70.6248C157.579 70.7513 157.749 70.9258 157.867 71.1482C157.989 71.3707 158.057 71.628 158.07 71.9202C158.074 71.99 158.076 72.0838 158.076 72.2015C158.076 72.3149 158.074 72.4087 158.07 72.4829C158.057 72.7707 157.991 73.0281 157.874 73.2549C157.756 73.4773 157.586 73.6518 157.363 73.7783C157.141 73.9047 156.864 73.968 156.532 73.968ZM156.532 73.4642C156.803 73.4642 157.019 73.3792 157.18 73.2091C157.342 73.0346 157.429 72.7816 157.442 72.4501C157.446 72.3847 157.448 72.3019 157.448 72.2015C157.448 72.1012 157.446 72.0184 157.442 71.9529C157.429 71.6214 157.342 71.3707 157.18 71.2006C157.019 71.0261 156.803 70.9389 156.532 70.9389C156.262 70.9389 156.044 71.0261 155.878 71.2006C155.717 71.3707 155.632 71.6214 155.623 71.9529C155.619 72.0184 155.617 72.1012 155.617 72.2015C155.617 72.3019 155.619 72.3847 155.623 72.4501C155.632 72.7816 155.717 73.0346 155.878 73.2091C156.044 73.3792 156.262 73.4642 156.532 73.4642Z" fill="white"></path>
  <path d="M109.801 47.1877L90.7188 55.9109V64.6341L100.532 60.1479V57.0013L105.984 61.9081L100.532 71.4725V68.3259L90.7188 72.8121V82.0805L109.801 72.2669V47.1877Z" fill="#BF1E2D"></path>
  <path fill-rule="evenodd" clip-rule="evenodd" d="M70.0001 47.1877L89.082 55.9109V82.0805L70.0001 72.2669V47.1877ZM73.2713 50.8639V53.5899L86.6968 60.2725V57.5465L73.2713 50.8639ZM73.2713 59.1821V56.4561L86.6968 63.1387V65.8647L73.2713 59.1821ZM73.2713 62.4533V65.1793L86.6968 71.8619V69.1359L73.2713 62.4533ZM73.2713 70.7715V68.0455L86.6968 74.7281V77.4541L73.2713 70.7715Z" fill="white"></path>
  <path d="M70.5459 45.5522L89.6278 54.2754L108.71 45.5522L102.862 43.2129L94.9034 46.827L96.7154 47.733H85.2663L86.9019 42.8262L89.6278 44.1892L97.2606 40.9725L89.6278 37.9194L70.5459 45.5522Z" fill="#BF1E2D"></path>
  <path d="M186.854 56.4913C186.935 56.5611 187.034 56.596 187.15 56.596H188.249C188.366 56.596 188.459 56.5611 188.529 56.4913C188.61 56.4099 188.651 56.311 188.651 56.1947V55.2526C188.651 55.1363 188.61 55.0432 188.529 54.9734C188.459 54.892 188.366 54.8513 188.249 54.8513H187.15C187.034 54.8513 186.935 54.892 186.854 54.9734C186.784 55.0432 186.749 55.1363 186.749 55.2526V56.1947C186.749 56.311 186.784 56.4099 186.854 56.4913Z" fill="#BF1E2D"></path>
</svg>
