<?xml version="1.0" encoding="UTF-8"?>
<svg xmlns="http://www.w3.org/2000/svg" width="60" height="60" viewBox="0 0 60 60" fill="none">
  <g clip-path="url(#clip0_4869_424)">
    <path fill-rule="evenodd" clip-rule="evenodd" d="M46.6406 0H13.3594C5.9812 0 0 5.9812 0 13.3594V46.6406C0 54.0188 5.9812 60 13.3594 60H46.6406C54.0188 60 60 54.0188 60 46.6406V13.3594C60 5.9812 54.0188 0 46.6406 0ZM52.8804 30.9787C52.8543 30.5579 52.7611 30.1489 52.6039 29.7623C52.152 28.6494 51.3025 27.8013 50.2109 27.3743C49.1343 26.9536 47.9197 26.9927 46.8795 27.4828L42.0398 29.7571L49.2199 22.2245C50.7899 20.5553 50.7507 17.9783 49.1305 16.3573C48.381 15.607 47.4096 15.1744 46.3703 15.1226C46.881 13.6155 46.4952 11.9473 45.3502 10.8024C43.7306 9.182 41.152 9.14564 39.4787 10.72L37.897 12.2152C38.0756 10.8384 37.5557 9.43186 36.4842 8.49704C34.7584 6.98946 32.1882 7.12247 30.638 8.79508L18.1452 21.9584L17.3012 16.1074L17.2853 16.0198C16.8107 13.7784 14.6729 12.3408 12.4185 12.7457C10.2213 13.1416 8.74804 15.1017 8.9745 17.3148C8.71419 20.6507 7.47137 36.7884 7.63134 38.9287C7.70838 42.7059 9.21989 46.256 11.8873 48.9244C14.3263 51.3646 17.5602 52.8616 20.993 53.141C21.3834 53.1727 21.7832 53.1892 22.1805 53.1892C22.4299 53.1892 22.6787 53.1823 22.9269 53.1698L23.422 53.1314L23.4209 53.1233C23.8405 53.0838 24.2468 53.0173 24.6348 52.925C26.6399 52.4489 28.0402 50.6554 28.0402 48.5632C28.0402 46.3104 26.2087 44.478 23.957 44.478H22.977C22.1628 44.478 21.5005 45.1403 21.5005 45.9548C21.5005 46.7694 22.1628 47.432 22.977 47.432H23.6013C24.2543 47.432 24.7854 47.9637 24.7854 48.6166C24.7854 49.1848 24.4344 49.6845 23.912 49.8601C23.4656 50.0105 22.9856 50.0866 22.4862 50.0866C19.8993 50.0866 18.0923 48.217 18.0923 45.5396C18.0923 42.8079 19.7822 40.9731 22.2976 40.9731C23.2193 40.9731 24.0601 41.2628 24.7963 41.833C25.3968 42.2992 26.2699 42.2047 26.7837 41.6191L26.9229 41.4607C27.1915 41.1546 27.3239 40.7466 27.285 40.34C27.2468 39.9348 27.0502 39.5752 26.7312 39.3268C25.4865 38.3576 24.0362 37.8864 22.2976 37.8864C17.942 37.8864 14.7804 41.1048 14.7804 45.5396C14.7804 46.2056 14.8553 46.8511 15.0035 47.4702C14.6981 47.2226 14.4059 46.9593 14.1287 46.6821C12.0395 44.5921 10.8575 41.8106 10.7997 38.8368L10.7932 38.71C10.6817 37.5328 11.4076 26.8535 12.1469 17.4036L12.1612 17.224L12.1447 17.1158C12.0596 16.54 12.4554 15.9558 12.9921 15.8646C13.5344 15.7739 14.0414 16.1033 14.175 16.6372L15.1426 23.3448C15.2914 24.3812 16.0012 25.2309 16.9949 25.5609C17.9889 25.8926 19.0649 25.6375 19.8142 24.8869L32.9515 10.9631C33.337 10.5482 33.9729 10.5134 34.3999 10.8869C34.8271 11.2595 34.8809 11.8936 34.5233 12.3299L25.4064 23.393C24.7997 24.1291 24.8519 25.1958 25.5287 25.8751L25.5716 25.9178C26.2748 26.6242 27.4329 26.6375 28.1529 25.9481L41.6593 13.0226C42.0709 12.6335 42.7079 12.6431 43.1091 13.045C43.5097 13.4456 43.5221 14.0802 43.1401 14.4867L30.2571 27.9605C29.543 28.7073 29.5477 29.9228 30.2667 30.6149C30.9803 31.3014 32.1007 31.3032 32.8173 30.6195L45.439 18.5777C45.8512 18.1896 46.4883 18.1986 46.8893 18.5999C47.2901 19.0008 47.3021 19.6357 46.9186 20.0434L34.8752 32.679C34.1903 33.3979 34.1968 34.5471 34.8861 35.2364L34.9131 35.2644C35.462 35.8136 36.3019 35.9605 37.0021 35.6296L48.2276 30.3523C48.6241 30.1651 49.1 30.2484 49.4116 30.5598C49.6723 30.8209 49.7735 31.1789 49.6896 31.5418C49.6235 31.8281 49.4154 32.0857 49.119 32.248L46.3057 33.7857C45.9224 33.9957 45.6397 34.3588 45.5306 34.7824C45.4216 35.2063 45.4934 35.6603 45.7278 36.0299C46.1742 36.7331 47.0968 36.9711 47.8277 36.57L50.6936 35.0012C52.1486 34.2055 52.9863 32.6641 52.8804 30.9787ZM36.2285 50.0868C38.7046 50.0868 40.4338 48.2168 40.4338 45.5395C40.4338 42.8512 38.7046 40.9732 36.2285 40.9732C33.7522 40.9732 32.0234 42.8512 32.0234 45.5395C32.0234 48.2168 33.7522 50.0868 36.2285 50.0868ZM28.7114 45.5395C28.7114 41.1765 31.9432 37.8862 36.2285 37.8862C40.514 37.8862 43.7457 41.1765 43.7457 45.5395C43.7457 49.8916 40.514 53.1731 36.2285 53.1731C31.8727 53.1731 28.7114 49.9628 28.7114 45.5395ZM46.5942 48.2151C47.4706 48.2151 48.1838 47.5016 48.1838 46.6242V39.4769C48.1838 38.5999 47.4706 37.8864 46.5942 37.8864C45.7173 37.8864 45.0041 38.5999 45.0041 39.4769V46.6242C45.0041 47.5016 45.7173 48.2151 46.5942 48.2151ZM44.7587 51.3188C44.7587 50.2609 45.5477 49.4637 46.594 49.4637C47.6616 49.4637 48.4668 50.2609 48.4668 51.3188C48.4668 52.376 47.6616 53.1735 46.594 53.1735C45.5477 53.1735 44.7587 52.376 44.7587 51.3188Z" fill="#8D8E91"></path>
  </g>
  <defs>
    <clipPath id="clip0_4869_424">
      <rect width="60" height="60" fill="white"></rect>
    </clipPath>
  </defs>
</svg>
