<svg width="181" height="181" viewBox="0 0 181 181" fill="none" xmlns="http://www.w3.org/2000/svg">
<path d="M102.253 102.2L104.051 139.024C104.207 142.155 104.743 145.182 105.66 148.035C107.856 154.816 112.162 160.592 118.111 164.726C123.835 168.722 130.804 170.918 137.738 170.918C143.895 170.918 152.939 169.206 161.101 161.059C169.575 152.567 171.114 143.123 170.924 136.689V136.672V136.654V136.585C170.906 136.309 170.906 136.014 170.872 135.651C170.854 135.323 170.82 134.977 170.803 134.648C170.785 134.441 170.768 134.25 170.751 134.043C170.491 131.621 169.972 129.234 169.194 126.917L169.177 126.865V126.847V126.83C166.324 118.303 160.479 111.437 152.731 107.51C152.005 107.147 151.227 106.784 150.431 106.455C149.74 106.178 149.048 105.919 148.373 105.694L148.304 105.677L148.235 105.642C147.785 105.487 147.301 105.348 146.817 105.21C146.419 105.106 145.987 104.985 145.52 104.881C143.445 104.38 141.266 104.086 139.07 103.982L136.839 103.878L102.253 102.2ZM92.4477 92.3933L137.289 94.5726L139.519 94.6764C142.355 94.8148 145.07 95.2126 147.664 95.818C148.235 95.9563 148.788 96.0947 149.342 96.2504C149.982 96.4233 150.604 96.6136 151.227 96.8212C151.244 96.8212 151.244 96.8212 151.261 96.8385C152.195 97.1498 153.094 97.4784 153.994 97.8589C155.014 98.274 156 98.7237 156.968 99.208C167.206 104.397 174.555 113.477 178.048 123.89C178.048 123.907 178.066 123.924 178.066 123.942C179.051 126.882 179.708 129.926 180.054 133.022C180.089 133.282 180.106 133.524 180.123 133.783C180.158 134.216 180.193 134.648 180.227 135.08C180.245 135.496 180.279 135.911 180.279 136.326C180.279 136.36 180.279 136.378 180.279 136.412C180.608 147.361 176.734 158.603 167.707 167.632C159.026 176.315 148.287 180.224 137.755 180.224C119.944 180.224 102.702 169.05 96.8228 150.889C95.6815 147.344 94.9552 143.521 94.7649 139.474L92.4477 92.3933Z" fill="#1A976A"/>
<path d="M77.3829 68.0323L88.1489 74.6592C76.2671 84.1221 63.2343 88.1183 49.9719 88.1183C35.789 88.1183 23.3555 84.8376 13.4179 75.2313C5.98725 67.6135 0.300293 56.0988 0.300293 45.1333C0.300293 32.784 4.56424 21.0892 13.4975 12.5502C24.4686 2.06331 37.5523 -0.817137 49.2279 0.640497C64.396 3.12771 76.46 9.98605 83.96 27.3194L74.0033 28.0876C69.6534 21.7199 69.6534 21.7199 69.6534 21.7199C62.5984 14.0959 54.8426 10.4187 45.4114 9.78026C34.9102 9.78026 27.5 12.8927 19.4953 20.2345C13.3928 27.5764 9.09708 36.5157 9.74707 45.1333C10.2226 51.4378 13.1207 61.8921 20.0501 68.5159C27.539 75.0193 36.0756 78.4452 46.6129 78.4452C56.3191 78.4452 68.4297 74.9742 77.3829 68.0323Z" fill="#1A976A"/>
<path d="M101.628 9.26535V43.0062V78.3811C119.341 76.702 143.502 77.2623 152.76 71.7158C165.793 66.0266 170.957 51.0557 170.957 41.6647C170.957 32.3108 165.101 20.446 154.509 13.8018C145.108 7.93704 116.325 9.26535 101.628 9.26535ZM106.048 0.333301C129.254 0.407539 147.872 -2.45489 161.088 7.3577C177.821 19.7827 180.296 32.3296 180.296 44.8757C179.606 56.9289 173.378 70.0823 159.156 78.9908C146.185 87.1198 122.725 86.5173 106.884 87.4552C91.0425 88.393 92.4813 88.0544 92.4813 88.0544V0.333301H106.048Z" fill="#1A976A"/>
<path fill-rule="evenodd" clip-rule="evenodd" d="M43.3081 94.5726L88.149 92.3933L85.8317 139.474C85.6415 143.521 84.9152 147.344 83.7739 150.889C77.8942 169.05 60.653 180.224 42.8412 180.224C32.3097 180.224 21.5707 176.315 12.8896 167.632C3.86263 158.603 -0.0110169 147.361 0.317551 136.412V136.326C0.317551 136.049 0.332923 135.772 0.348295 135.496C0.35598 135.357 0.363666 135.219 0.36943 135.08L0.473189 133.783C0.490482 133.524 0.507775 133.282 0.542361 133.022C0.888222 129.926 1.54536 126.882 2.53106 123.942C2.53106 123.933 2.53539 123.924 2.53971 123.916C2.54403 123.907 2.54836 123.898 2.54836 123.89C6.04155 113.477 13.3911 104.397 23.6286 99.208C24.597 98.7237 25.5827 98.274 26.603 97.8589C27.5022 97.4784 28.4015 97.1498 29.3353 96.8385C29.3526 96.8212 29.3526 96.8212 29.3699 96.8212C29.9924 96.6136 30.615 96.4233 31.2548 96.2504C31.8082 96.0947 32.3616 95.9563 32.9323 95.818C35.5262 95.2126 38.2412 94.8148 41.0773 94.6764L43.3081 94.5726ZM15.0805 159.385C12.6364 156.362 11.8398 154.924 10.0272 151.459C10.2683 151.539 10.5244 151.627 10.7948 151.72C15.8638 153.465 25.9647 156.942 36.4831 143.137C21.7695 146.601 10.2301 147.484 18.1909 131.77C8.48417 116.794 25.5607 109.719 35.4841 122.23C31.5914 100.161 38.0839 99.7286 48.6033 106.786C64.4818 94.9659 67.6438 110.246 59.8534 121.498C81.79 111.409 80.625 123.227 74.8641 133.047C86.5466 150.788 63.8086 150.555 59.4816 146.228C69.8661 160.94 62.8008 170.888 54.5795 162.667C45.4911 170.89 40.8083 167.938 37.7798 160.582C36.1533 154.052 38.1322 150.989 39.8873 148.271L39.8874 148.271L39.8874 148.271C40.6111 147.151 41.2968 146.089 41.6759 144.868C38.2133 152.081 29.2747 158.345 15.0805 159.385ZM48.0358 131.747C48.3252 128.643 48.727 121.781 48.0189 119.165C46.725 125.457 47.491 130.175 48.0358 131.747ZM46.4616 133.268C43.3498 133.457 36.4784 133.636 33.8865 132.844C40.2172 131.755 44.9077 132.673 46.4616 133.268ZM49.2833 133.036C52.395 132.847 59.2665 132.668 61.8583 133.46C55.5276 134.55 50.8372 133.631 49.2833 133.036ZM47.7108 134.557C47.4214 137.661 47.0196 144.523 47.7277 147.139C49.0216 140.847 48.2556 136.13 47.7108 134.557Z" fill="#1A976A"/>
</svg>
