<svg width="3176" height="3189" viewBox="0 0 3176 3189" fill="none" xmlns="http://www.w3.org/2000/svg">
<path d="M1605.9 356.102L1005.98 1048.26C955.019 1107.15 912.138 1171.19 878.518 1239.13C798.956 1400.89 771.501 1583.51 799.363 1766.95C825.866 1943.78 903.758 2111.32 1018.64 2238.91C1120.63 2352.18 1299.75 2487.95 1574.29 2492.32C1859.9 2496.24 2046.89 2355.53 2153.77 2236.87L2154.07 2236.56L2154.36 2236.25L2155.55 2235.02C2159.99 2229.74 2165.02 2224.48 2170.66 2217.35C2175.99 2211.15 2181.34 2204.32 2186.67 2198.12C2189.93 2194.08 2192.9 2190.36 2196.16 2186.33C2233.27 2138.22 2265.5 2085.95 2292.24 2030.15L2292.84 2028.9L2293.14 2028.59L2293.43 2028.29C2391.98 1823.17 2412.57 1592.73 2351.37 1379.91C2345.55 1360.05 2338.87 1339.23 2331.31 1318.71C2324.58 1301.03 2317.56 1283.66 2310.23 1267.22L2309.38 1265.64L2308.82 1263.75C2304.04 1252.69 2298.38 1241.31 2292.73 1229.92C2287.91 1220.75 2282.82 1210.62 2276.86 1200.18C2251.06 1153.02 2219.99 1107.66 2185.38 1065.4L2150.2 1022.49L1605.9 356.102ZM1611.17 0.16994L2316.78 864.221L2351.96 907.123C2396.58 961.782 2434.75 1018.86 2467.37 1077.42C2474.46 1090.39 2481.26 1103.05 2487.77 1116.02C2495.41 1130.89 2502.47 1145.75 2509.24 1160.92C2509.52 1161.24 2509.52 1161.24 2509.51 1161.86C2519.66 1184.62 2528.94 1207.05 2537.33 1230.4C2547.13 1256.6 2555.77 1282.79 2563.53 1309.27C2644.4 1590.51 2610.88 1888.26 2490.69 2138.89C2490.39 2139.2 2490.38 2139.82 2490.09 2140.13C2456.13 2210.9 2414.96 2277.47 2367.75 2339.25C2363.88 2344.53 2360.03 2349.18 2355.88 2354.14C2349.06 2362.51 2342.24 2370.89 2335.41 2379.27C2328.6 2387.01 2322.08 2395.08 2314.98 2402.51C2314.39 2403.13 2314.09 2403.44 2313.5 2404.06C2131.71 2606.06 1875.28 2736 1571.33 2731.5C1279.03 2727.18 1034.27 2599.55 859.797 2405.77C564.71 2078.05 470.153 1560.84 683.317 1127.62C725.044 1043.16 778.379 961.379 844.441 885.441L1611.17 0.16994Z" fill="#289D73"/>
</svg>
