<svg width="545" height="181" viewBox="0 0 545 181" fill="none" xmlns="http://www.w3.org/2000/svg">
<path d="M102.253 102.2L104.051 139.024C104.207 142.155 104.743 145.182 105.66 148.035C107.856 154.816 112.162 160.592 118.111 164.726C123.835 168.722 130.804 170.918 137.738 170.918C143.895 170.918 152.939 169.206 161.101 161.059C169.575 152.567 171.114 143.123 170.924 136.689V136.672V136.654V136.585C170.906 136.309 170.906 136.014 170.872 135.651C170.854 135.323 170.82 134.977 170.803 134.648C170.785 134.441 170.768 134.25 170.751 134.043C170.491 131.621 169.972 129.234 169.194 126.917L169.177 126.865V126.847V126.83C166.324 118.303 160.479 111.437 152.731 107.51C152.005 107.147 151.227 106.784 150.431 106.455C149.74 106.178 149.048 105.919 148.373 105.694L148.304 105.677L148.235 105.642C147.785 105.487 147.301 105.348 146.817 105.21C146.419 105.106 145.987 104.985 145.52 104.881C143.445 104.38 141.266 104.086 139.07 103.982L136.839 103.878L102.253 102.2ZM92.4477 92.3933L137.289 94.5726L139.519 94.6764C142.355 94.8148 145.07 95.2126 147.664 95.818C148.235 95.9563 148.788 96.0947 149.342 96.2504C149.982 96.4233 150.604 96.6136 151.227 96.8212C151.244 96.8212 151.244 96.8212 151.261 96.8385C152.195 97.1498 153.094 97.4784 153.994 97.8589C155.014 98.274 156 98.7237 156.968 99.208C167.206 104.397 174.555 113.477 178.048 123.89C178.048 123.907 178.066 123.924 178.066 123.942C179.051 126.882 179.708 129.926 180.054 133.022C180.089 133.282 180.106 133.524 180.123 133.783C180.158 134.216 180.193 134.648 180.227 135.08C180.245 135.496 180.279 135.911 180.279 136.326C180.279 136.36 180.279 136.378 180.279 136.412C180.608 147.361 176.734 158.603 167.707 167.632C159.026 176.315 148.287 180.224 137.755 180.224C119.944 180.224 102.702 169.05 96.8228 150.889C95.6815 147.344 94.9552 143.521 94.7649 139.474L92.4477 92.3933Z" fill="#1A976A"/>
<path d="M77.3829 68.0323L88.1489 74.6592C76.2671 84.1221 63.2343 88.1183 49.9719 88.1183C35.789 88.1183 23.3555 84.8376 13.4179 75.2313C5.98725 67.6135 0.300293 56.0988 0.300293 45.1333C0.300293 32.784 4.56424 21.0892 13.4975 12.5502C24.4686 2.06331 37.5523 -0.817137 49.2279 0.640497C64.396 3.12771 76.46 9.98605 83.96 27.3194L74.0033 28.0876C69.6534 21.7199 69.6534 21.7199 69.6534 21.7199C62.5984 14.0959 54.8426 10.4187 45.4114 9.78026C34.9102 9.78026 27.5 12.8927 19.4953 20.2345C13.3928 27.5764 9.09708 36.5157 9.74707 45.1333C10.2226 51.4378 13.1207 61.8921 20.0501 68.5159C27.539 75.0193 36.0756 78.4452 46.6129 78.4452C56.3191 78.4452 68.4297 74.9742 77.3829 68.0323Z" fill="#1A976A"/>
<path d="M101.628 9.26535V43.0062V78.3811C119.341 76.702 143.502 77.2623 152.76 71.7158C165.793 66.0266 170.957 51.0557 170.957 41.6647C170.957 32.3108 165.101 20.446 154.509 13.8018C145.108 7.93704 116.325 9.26535 101.628 9.26535ZM106.048 0.333301C129.254 0.407539 147.872 -2.45489 161.088 7.3577C177.821 19.7827 180.296 32.3296 180.296 44.8757C179.606 56.9289 173.378 70.0823 159.156 78.9908C146.185 87.1198 122.725 86.5173 106.884 87.4552C91.0425 88.393 92.4813 88.0544 92.4813 88.0544V0.333301H106.048Z" fill="#1A976A"/>
<path fill-rule="evenodd" clip-rule="evenodd" d="M43.3081 94.5726L88.149 92.3933L85.8317 139.474C85.6415 143.521 84.9152 147.344 83.7739 150.889C77.8942 169.05 60.653 180.224 42.8412 180.224C32.3097 180.224 21.5707 176.315 12.8896 167.632C3.86263 158.603 -0.0110169 147.361 0.317551 136.412V136.326C0.317551 136.049 0.332923 135.772 0.348295 135.496C0.35598 135.357 0.363666 135.219 0.36943 135.08L0.473189 133.783C0.490482 133.524 0.507775 133.282 0.542361 133.022C0.888222 129.926 1.54536 126.882 2.53106 123.942C2.53106 123.933 2.53539 123.924 2.53971 123.916C2.54403 123.907 2.54836 123.898 2.54836 123.89C6.04155 113.477 13.3911 104.397 23.6286 99.208C24.597 98.7237 25.5827 98.274 26.603 97.8589C27.5022 97.4784 28.4015 97.1498 29.3353 96.8385C29.3526 96.8212 29.3526 96.8212 29.3699 96.8212C29.9924 96.6136 30.615 96.4233 31.2548 96.2504C31.8082 96.0947 32.3616 95.9563 32.9323 95.818C35.5262 95.2126 38.2412 94.8148 41.0773 94.6764L43.3081 94.5726ZM15.0805 159.385C12.6364 156.362 11.8398 154.924 10.0272 151.459C10.2683 151.539 10.5244 151.627 10.7948 151.72C15.8638 153.465 25.9647 156.942 36.4831 143.137C21.7695 146.601 10.2301 147.484 18.1909 131.77C8.48417 116.794 25.5607 109.719 35.4841 122.23C31.5914 100.161 38.0839 99.7286 48.6033 106.786C64.4818 94.9659 67.6438 110.246 59.8534 121.498C81.79 111.409 80.625 123.227 74.8641 133.047C86.5466 150.788 63.8086 150.555 59.4816 146.228C69.8661 160.94 62.8008 170.888 54.5795 162.667C45.4911 170.89 40.8083 167.938 37.7798 160.582C36.1533 154.052 38.1322 150.989 39.8873 148.271L39.8874 148.271L39.8874 148.271C40.6111 147.151 41.2968 146.089 41.6759 144.868C38.2133 152.081 29.2747 158.345 15.0805 159.385ZM48.0358 131.747C48.3252 128.643 48.727 121.781 48.0189 119.165C46.725 125.457 47.491 130.175 48.0358 131.747ZM46.4616 133.268C43.3498 133.457 36.4784 133.636 33.8865 132.844C40.2172 131.755 44.9077 132.673 46.4616 133.268ZM49.2833 133.036C52.395 132.847 59.2665 132.668 61.8583 133.46C55.5276 134.55 50.8372 133.631 49.2833 133.036ZM47.7108 134.557C47.4214 137.661 47.0196 144.523 47.7277 147.139C49.0216 140.847 48.2556 136.13 47.7108 134.557Z" fill="#1A976A"/>
<path d="M220.435 124.018C217.627 123.176 215.506 122.089 214.072 120.757C212.639 119.426 211.632 118.065 211.051 116.674C210.489 115.264 210.208 113.776 210.208 112.209C210.208 110.29 210.566 108.557 211.283 107.01C212 105.444 213.056 104.053 214.45 102.839H214.421C216.649 100.881 219.264 99.9019 222.266 99.9019C223.234 99.9019 224.203 100.029 225.171 100.284C226.14 100.519 227.07 100.891 227.961 101.4C228.871 101.889 229.714 102.506 230.488 103.25C231.282 103.995 231.989 104.866 232.609 105.865C232.9 106.374 233.045 106.932 233.045 107.539C233.045 107.989 232.968 108.401 232.813 108.773C232.658 109.145 232.435 109.478 232.144 109.771C231.873 110.046 231.544 110.261 231.157 110.418C230.789 110.574 230.391 110.653 229.965 110.653C229.578 110.653 229.229 110.594 228.919 110.476C228.629 110.359 228.358 110.192 228.106 109.977C227.873 109.762 227.641 109.517 227.409 109.243C227.195 108.949 226.963 108.616 226.711 108.244C226.246 107.559 225.607 107.049 224.794 106.717C223.999 106.364 223.137 106.188 222.208 106.188C221.472 106.188 220.755 106.345 220.058 106.658C219.36 106.952 218.741 107.363 218.198 107.892C217.656 108.42 217.21 109.047 216.862 109.771C216.532 110.496 216.368 111.279 216.368 112.121C216.368 113.629 216.775 114.824 217.588 115.705C218.421 116.567 219.845 117.291 221.859 117.879C225.268 118.858 227.941 120.209 229.878 121.932C231.815 123.655 233.132 125.349 233.83 127.014C234.527 128.678 234.876 130.431 234.876 132.272C234.876 136.854 233.2 140.575 229.849 143.434H229.878C227.186 145.745 224.125 146.9 220.697 146.9C219.554 146.9 218.411 146.763 217.268 146.489C216.126 146.195 215.022 145.774 213.956 145.226C212.91 144.677 211.922 143.992 210.993 143.17C210.082 142.347 209.288 141.417 208.61 140.379C208.203 139.85 208 139.224 208 138.499C208 138.068 208.077 137.667 208.232 137.295C208.387 136.903 208.6 136.57 208.872 136.296C209.162 136.002 209.491 135.777 209.859 135.62C210.228 135.464 210.634 135.385 211.08 135.385C212.223 135.385 213.085 135.865 213.666 136.825C214.479 138.098 215.496 139.057 216.716 139.703C217.937 140.35 219.254 140.673 220.668 140.673C221.772 140.673 222.808 140.457 223.777 140.027C224.765 139.576 225.617 138.979 226.333 138.235C227.07 137.491 227.651 136.619 228.077 135.62C228.503 134.602 228.716 133.525 228.716 132.389C228.716 131.312 228.513 130.304 228.106 129.364C227.718 128.404 226.953 127.464 225.81 126.544C224.687 125.604 222.895 124.762 220.435 124.018Z" fill="white"/>
<path d="M264.953 106.129C262.551 106.129 260.353 106.55 258.358 107.392C256.382 108.234 254.552 109.507 252.866 111.211C251.181 112.914 249.922 114.765 249.089 116.762C248.276 118.76 247.869 120.973 247.869 123.401C247.869 128.179 249.535 132.252 252.866 135.62C256.198 138.989 260.227 140.673 264.953 140.673C269.679 140.673 273.708 138.989 277.04 135.62C280.371 132.252 282.037 128.179 282.037 123.401C282.037 118.642 280.371 114.579 277.04 111.211C273.689 107.823 269.66 106.129 264.953 106.129ZM288.197 123.401C288.197 129.883 285.921 135.425 281.369 140.027C276.836 144.609 271.365 146.9 264.953 146.9C258.522 146.9 253.041 144.609 248.508 140.027C243.976 135.444 241.709 129.902 241.709 123.401C241.709 116.919 243.976 111.387 248.508 106.805C253.06 102.203 258.542 99.9019 264.953 99.9019C271.345 99.9019 276.817 102.203 281.369 106.805C283.655 109.115 285.359 111.642 286.483 114.383C287.625 117.125 288.197 120.131 288.197 123.401Z" fill="white"/>
<path d="M295.467 143.786V103.015C295.467 102.585 295.544 102.183 295.699 101.811C295.854 101.42 296.067 101.087 296.338 100.812C296.629 100.519 296.958 100.294 297.326 100.137C297.694 99.9802 298.101 99.9019 298.546 99.9019H325.422C326.274 99.9019 327.001 100.205 327.601 100.812C328.201 101.42 328.502 102.154 328.502 103.015C328.502 103.877 328.201 104.611 327.601 105.219C327.001 105.826 326.274 106.129 325.422 106.129H301.626V120.287H318.71C319.563 120.287 320.289 120.591 320.889 121.198C321.49 121.805 321.79 122.539 321.79 123.401C321.79 124.263 321.49 124.997 320.889 125.604C320.289 126.211 319.563 126.515 318.71 126.515H301.626V143.786C301.626 144.648 301.326 145.382 300.725 145.989C300.125 146.596 299.399 146.9 298.546 146.9C297.694 146.9 296.968 146.596 296.367 145.989C295.767 145.382 295.467 144.648 295.467 143.786Z" fill="white"/>
<path d="M367.615 106.129H356.139V143.786C356.139 144.648 355.838 145.382 355.238 145.989C354.638 146.596 353.911 146.9 353.059 146.9C352.207 146.9 351.48 146.596 350.88 145.989C350.279 145.382 349.979 144.648 349.979 143.786V106.129H338.503C337.65 106.129 336.924 105.826 336.323 105.219C335.723 104.611 335.423 103.877 335.423 103.015C335.423 102.154 335.723 101.42 336.323 100.812C336.924 100.205 337.65 99.9019 338.503 99.9019H367.615C368.468 99.9019 369.194 100.205 369.794 100.812C370.395 101.42 370.695 102.154 370.695 103.015C370.695 103.877 370.395 104.611 369.794 105.219C369.194 105.826 368.468 106.129 367.615 106.129Z" fill="white"/>
<path d="M383.805 101.987L392.085 132.154L400.337 102.017C400.492 101.41 400.84 100.91 401.383 100.519C401.945 100.107 402.584 99.9019 403.3 99.9019C403.92 99.9019 404.501 100.088 405.044 100.46C405.605 100.812 405.993 101.322 406.206 101.987L414.486 132.154L422.796 101.987C422.932 101.557 423.174 101.165 423.522 100.812C424.123 100.205 424.849 99.9019 425.702 99.9019C426.554 99.9019 427.27 100.205 427.852 100.812C428.452 101.42 428.752 102.154 428.752 103.015C428.733 103.407 428.665 103.818 428.549 104.249L417.595 144.374C417.324 145.138 416.917 145.754 416.375 146.224C415.833 146.675 415.203 146.9 414.486 146.9C413.615 146.9 412.898 146.587 412.336 145.96C411.93 145.529 411.62 145.02 411.407 144.433L403.3 114.736L395.194 144.374C394.923 145.138 394.516 145.754 393.974 146.224C393.432 146.675 392.802 146.9 392.085 146.9C391.214 146.9 390.487 146.587 389.906 145.96C389.519 145.568 389.219 145.059 389.006 144.433L377.994 104.22C377.878 103.769 377.819 103.368 377.819 103.015C377.819 102.154 378.12 101.42 378.72 100.812C379.321 100.205 380.047 99.9019 380.899 99.9019C381.752 99.9019 382.478 100.205 383.078 100.812C383.408 101.165 383.65 101.557 383.805 101.987Z" fill="white"/>
<path d="M453.222 124.811L448.167 111.622L443.111 124.811H453.222ZM429.717 142.376L445.232 102.017C445.852 100.607 446.83 99.9019 448.167 99.9019C449.542 99.9019 450.52 100.607 451.101 102.017L466.675 142.523C466.83 142.915 466.907 143.336 466.907 143.786C466.907 144.648 466.607 145.382 466.006 145.989C465.406 146.596 464.68 146.9 463.827 146.9C462.975 146.9 462.258 146.596 461.677 145.989C461.367 145.676 461.135 145.343 460.98 144.991L455.605 131.038H440.729L435.325 144.991C435.17 145.343 434.937 145.676 434.627 145.989C434.027 146.596 433.301 146.9 432.448 146.9C431.596 146.9 430.87 146.596 430.269 145.989C429.688 145.382 429.398 144.648 429.398 143.786C429.398 143.316 429.504 142.846 429.717 142.376Z" fill="white"/>
<path d="M480.075 106.129V122.549H488.21C489.334 122.549 490.389 122.334 491.377 121.903C492.365 121.472 493.217 120.885 493.934 120.14C494.67 119.377 495.251 118.505 495.677 117.526C496.103 116.527 496.316 115.47 496.316 114.354C496.316 113.218 496.103 112.151 495.677 111.152C495.251 110.153 494.67 109.282 493.934 108.538C493.198 107.794 492.336 107.206 491.348 106.775C490.36 106.345 489.314 106.129 488.21 106.129H480.075ZM473.915 143.786V103.015C473.915 102.585 473.993 102.183 474.148 101.811C474.303 101.42 474.516 101.087 474.787 100.812C475.077 100.519 475.407 100.294 475.775 100.137C476.143 99.9802 476.55 99.9019 476.995 99.9019H488.21C490.167 99.9019 492.007 100.284 493.731 101.047C495.474 101.811 496.985 102.849 498.263 104.161C499.561 105.473 500.587 107.01 501.343 108.773C502.098 110.516 502.476 112.376 502.476 114.354C502.476 115.646 502.311 116.909 501.982 118.143C501.672 119.357 501.198 120.512 500.558 121.609C499.939 122.686 499.154 123.695 498.205 124.635C497.275 125.555 496.19 126.368 494.951 127.073L504.219 142.083C504.549 142.631 504.713 143.199 504.713 143.786C504.713 144.237 504.636 144.648 504.481 145.02C504.326 145.392 504.103 145.725 503.812 146.019C503.541 146.293 503.212 146.508 502.825 146.665C502.457 146.822 502.06 146.9 501.633 146.9C500.549 146.9 499.667 146.391 498.989 145.373L488.733 128.776H480.075V143.786C480.075 144.648 479.775 145.382 479.174 145.989C478.574 146.596 477.847 146.9 476.995 146.9C476.143 146.9 475.416 146.596 474.816 145.989C474.216 145.382 473.915 144.648 473.915 143.786Z" fill="white"/>
<path d="M541.502 140.673C542.355 140.673 543.081 140.976 543.682 141.583C544.282 142.19 544.582 142.925 544.582 143.786C544.582 144.648 544.282 145.382 543.682 145.989C543.081 146.596 542.355 146.9 541.502 146.9H514.627C514.181 146.9 513.775 146.822 513.407 146.665C513.039 146.508 512.709 146.293 512.419 146.019C512.148 145.725 511.934 145.392 511.78 145.02C511.625 144.648 511.547 144.237 511.547 143.786V103.015C511.547 102.585 511.625 102.183 511.78 101.811C511.934 101.42 512.148 101.087 512.419 100.812C512.709 100.519 513.039 100.294 513.407 100.137C513.775 99.9802 514.181 99.9019 514.627 99.9019H541.502C542.355 99.9019 543.081 100.205 543.682 100.812C544.282 101.42 544.582 102.154 544.582 103.015C544.582 103.877 544.282 104.611 543.682 105.219C543.081 105.826 542.355 106.129 541.502 106.129H517.707V120.287H534.791C535.643 120.287 536.369 120.591 536.97 121.198C537.57 121.805 537.871 122.539 537.871 123.401C537.871 124.263 537.57 124.997 536.97 125.604C536.369 126.211 535.643 126.515 534.791 126.515H517.707V140.673H541.502Z" fill="white"/>
<path d="M243.783 69.5293C244.209 69.5293 244.606 69.6175 244.974 69.7937C245.342 69.9504 245.662 70.1659 245.933 70.4401C246.223 70.7143 246.446 71.0472 246.601 71.4389C246.776 71.8111 246.863 72.2126 246.863 72.6434C246.863 73.466 246.543 74.2103 245.904 74.8762C241.584 78.3624 236.712 80.1056 231.288 80.1056C224.856 80.1056 219.374 77.814 214.841 73.231C210.308 68.648 208.041 63.1053 208.041 56.6028C208.041 50.12 210.308 44.5871 214.841 40.004C219.393 35.4014 224.875 33.1001 231.288 33.1001C236.789 33.1001 241.758 34.9314 246.194 38.5939C246.737 39.1227 247.008 39.8375 247.008 40.7385C247.008 41.189 246.931 41.6003 246.776 41.9724C246.621 42.3445 246.398 42.6775 246.107 42.9712C245.836 43.2454 245.507 43.4609 245.119 43.6176C244.751 43.7743 244.354 43.8526 243.928 43.8526C243.172 43.8526 242.465 43.5588 241.807 42.9712C240.334 41.7961 238.707 40.8952 236.925 40.2684C235.162 39.6417 233.283 39.3283 231.288 39.3283C226.561 39.3283 222.522 41.0225 219.17 44.4108C215.858 47.7599 214.201 51.8239 214.201 56.6028C214.201 61.4013 215.858 65.4751 219.17 68.8242C222.502 72.193 226.541 73.8773 231.288 73.8773C235.336 73.8773 238.901 72.6141 241.981 70.0875C242.485 69.735 243.085 69.5489 243.783 69.5293Z" fill="white"/>
<path d="M250.127 36.2142C250.127 35.3524 250.427 34.618 251.028 34.0108C251.628 33.4037 252.355 33.1001 253.207 33.1001C254.059 33.1001 254.786 33.4037 255.386 34.0108C255.987 34.618 256.287 35.3524 256.287 36.2142V73.8773H277.848C278.701 73.8773 279.427 74.1809 280.028 74.7881C280.628 75.3952 280.929 76.1297 280.929 76.9914C280.929 77.8532 280.628 78.5877 280.028 79.1948C279.427 79.802 278.701 80.1056 277.848 80.1056H253.207C252.761 80.1056 252.355 80.0272 251.987 79.8705C251.618 79.7138 251.289 79.4984 250.999 79.2242C250.727 78.9304 250.514 78.5975 250.359 78.2253C250.204 77.8532 250.127 77.4419 250.127 76.9914V36.2142Z" fill="white"/>
<path d="M314.152 73.8773C315.004 73.8773 315.73 74.1809 316.331 74.7881C316.931 75.3952 317.232 76.1297 317.232 76.9914C317.232 77.8532 316.931 78.5877 316.331 79.1948C315.73 79.802 315.004 80.1056 314.152 80.1056H287.273C286.827 80.1056 286.42 80.0272 286.052 79.8705C285.684 79.7138 285.355 79.4984 285.064 79.2242C284.793 78.9304 284.58 78.5975 284.425 78.2253C284.27 77.8532 284.193 77.4419 284.193 76.9914V36.2142C284.193 35.7833 284.27 35.3818 284.425 35.0097C284.58 34.618 284.793 34.285 285.064 34.0108C285.355 33.717 285.684 33.4918 286.052 33.3351C286.42 33.1784 286.827 33.1001 287.273 33.1001H314.152C315.004 33.1001 315.73 33.4037 316.331 34.0108C316.931 34.618 317.232 35.3524 317.232 36.2142C317.232 37.076 316.931 37.8104 316.331 38.4176C315.73 39.0247 315.004 39.3283 314.152 39.3283H290.353V53.4887H307.439C308.291 53.4887 309.018 53.7923 309.618 54.3994C310.219 55.0066 310.519 55.7411 310.519 56.6028C310.519 57.4646 310.219 58.1991 309.618 58.8062C309.018 59.4134 308.291 59.7169 307.439 59.7169H290.353V73.8773H314.152Z" fill="white"/>
<path d="M339.355 80.1056C337.999 80.1056 337.059 79.4494 336.536 78.1372L320.932 37.8006C320.699 37.1935 320.583 36.6647 320.583 36.2142C320.583 35.7833 320.66 35.3818 320.815 35.0097C320.97 34.618 321.183 34.285 321.455 34.0108C321.745 33.717 322.075 33.4918 322.443 33.3351C322.811 33.1784 323.218 33.1001 323.663 33.1001C325.019 33.1001 325.968 33.717 326.511 34.9509L339.355 68.3542L352.198 34.9509C352.663 33.717 353.612 33.1001 355.046 33.1001C355.472 33.1001 355.869 33.1784 356.237 33.3351C356.625 33.4918 356.954 33.717 357.225 34.0108C357.516 34.285 357.739 34.618 357.894 35.0097C358.049 35.3818 358.126 35.7833 358.126 36.2142C358.126 36.7234 358.01 37.2522 357.777 37.8006L342.173 78.1372C341.65 79.4494 340.711 80.1056 339.355 80.1056Z" fill="white"/>
<path d="M391.524 73.8773C392.376 73.8773 393.102 74.1809 393.703 74.7881C394.303 75.3952 394.604 76.1297 394.604 76.9914C394.604 77.8532 394.303 78.5877 393.703 79.1948C393.102 79.802 392.376 80.1056 391.524 80.1056H364.645C364.199 80.1056 363.792 80.0272 363.424 79.8705C363.056 79.7138 362.727 79.4984 362.436 79.2242C362.165 78.9304 361.952 78.5975 361.797 78.2253C361.642 77.8532 361.565 77.4419 361.565 76.9914V36.2142C361.565 35.7833 361.642 35.3818 361.797 35.0097C361.952 34.618 362.165 34.285 362.436 34.0108C362.727 33.717 363.056 33.4918 363.424 33.3351C363.792 33.1784 364.199 33.1001 364.645 33.1001H391.524C392.376 33.1001 393.102 33.4037 393.703 34.0108C394.303 34.618 394.604 35.3524 394.604 36.2142C394.604 37.076 394.303 37.8104 393.703 38.4176C393.102 39.0247 392.376 39.3283 391.524 39.3283H367.725V53.4887H384.811C385.663 53.4887 386.39 53.7923 386.99 54.3994C387.591 55.0066 387.891 55.7411 387.891 56.6028C387.891 57.4646 387.591 58.1991 386.99 58.8062C386.39 59.4134 385.663 59.7169 384.811 59.7169H367.725V73.8773H391.524Z" fill="white"/>
<path d="M404.057 39.3283V55.7509H412.193C413.317 55.7509 414.373 55.5354 415.361 55.1045C416.349 54.6736 417.201 54.0861 417.918 53.3418C418.654 52.578 419.235 51.7064 419.661 50.7271C420.088 49.7283 420.301 48.6707 420.301 47.5543C420.301 46.4183 420.088 45.3509 419.661 44.352C419.235 43.3532 418.654 42.4816 417.918 41.7374C417.182 40.9931 416.32 40.4055 415.332 39.9746C414.344 39.5438 413.298 39.3283 412.193 39.3283H404.057ZM397.897 76.9914V36.2142C397.897 35.7833 397.974 35.3818 398.129 35.0097C398.284 34.618 398.497 34.285 398.769 34.0108C399.059 33.717 399.388 33.4918 399.757 33.3351C400.125 33.1784 400.531 33.1001 400.977 33.1001H412.193C414.15 33.1001 415.99 33.482 417.715 34.2459C419.458 35.0097 420.969 36.0477 422.248 37.36C423.546 38.6722 424.572 40.2097 425.328 41.9724C426.083 43.7155 426.461 45.5761 426.461 47.5543C426.461 48.8469 426.296 50.1102 425.967 51.3441C425.657 52.5584 425.182 53.714 424.543 54.8107C423.923 55.888 423.139 56.8966 422.189 57.8367C421.26 58.7572 420.175 59.57 418.935 60.2751L428.205 75.2875C428.534 75.8359 428.699 76.4039 428.699 76.9914C428.699 77.4419 428.621 77.8532 428.466 78.2253C428.311 78.5975 428.088 78.9304 427.798 79.2242C427.527 79.4984 427.197 79.7138 426.81 79.8705C426.442 80.0272 426.045 80.1056 425.618 80.1056C424.534 80.1056 423.652 79.5963 422.974 78.5779L412.717 61.9791H404.057V76.9914C404.057 77.8532 403.757 78.5877 403.156 79.1948C402.556 79.802 401.829 80.1056 400.977 80.1056C400.125 80.1056 399.398 79.802 398.798 79.1948C398.197 78.5877 397.897 77.8532 397.897 76.9914Z" fill="white"/>
<path d="M444.022 73.8773C448.729 73.8773 452.749 72.193 456.081 68.8242C457.766 67.1203 459.025 65.2695 459.858 63.2717C460.691 61.2544 461.108 59.0314 461.108 56.6028C461.108 51.8631 459.432 47.7991 456.081 44.4108C452.73 41.0225 448.71 39.3283 444.022 39.3283H438.152V73.8773H444.022ZM444.022 33.1001C450.415 33.1001 455.887 35.4014 460.44 40.004C462.726 42.3151 464.43 44.8417 465.554 47.5837C466.697 50.3061 467.268 53.3124 467.268 56.6028C467.268 63.0857 464.992 68.6284 460.44 73.231C455.907 77.814 450.434 80.1056 444.022 80.1056H435.072C434.646 80.1056 434.239 80.0272 433.851 79.8705C433.483 79.6943 433.154 79.469 432.863 79.1948C432.592 78.9206 432.369 78.5975 432.195 78.2253C432.04 77.8336 431.963 77.4223 431.963 76.9914V36.2142C431.963 35.7833 432.04 35.3818 432.195 35.0097C432.369 34.618 432.592 34.285 432.863 34.0108C433.154 33.7366 433.483 33.5212 433.851 33.3645C434.239 33.1882 434.646 33.1001 435.072 33.1001H444.022Z" fill="white"/>
<path d="M500.608 73.8773C501.46 73.8773 502.186 74.1809 502.787 74.7881C503.387 75.3952 503.688 76.1297 503.688 76.9914C503.688 77.8532 503.387 78.5877 502.787 79.1948C502.186 79.802 501.46 80.1056 500.608 80.1056H473.729C473.283 80.1056 472.876 80.0272 472.508 79.8705C472.14 79.7138 471.811 79.4984 471.52 79.2242C471.249 78.9304 471.036 78.5975 470.881 78.2253C470.726 77.8532 470.649 77.4419 470.649 76.9914V36.2142C470.649 35.7833 470.726 35.3818 470.881 35.0097C471.036 34.618 471.249 34.285 471.52 34.0108C471.811 33.717 472.14 33.4918 472.508 33.3351C472.876 33.1784 473.283 33.1001 473.729 33.1001H500.608C501.46 33.1001 502.186 33.4037 502.787 34.0108C503.387 34.618 503.688 35.3524 503.688 36.2142C503.688 37.076 503.387 37.8104 502.787 38.4176C502.186 39.0247 501.46 39.3283 500.608 39.3283H476.809V53.4887H493.895C494.748 53.4887 495.474 53.7923 496.074 54.3994C496.675 55.0066 496.975 55.7411 496.975 56.6028C496.975 57.4646 496.675 58.1991 496.074 58.8062C495.474 59.4134 494.748 59.7169 493.895 59.7169H476.809V73.8773H500.608Z" fill="white"/>
<path d="M525.811 80.1056C524.454 80.1056 523.515 79.4494 522.992 78.1372L507.388 37.8006C507.155 37.1935 507.039 36.6647 507.039 36.2142C507.039 35.7833 507.116 35.3818 507.271 35.0097C507.426 34.618 507.639 34.285 507.911 34.0108C508.201 33.717 508.531 33.4918 508.899 33.3351C509.267 33.1784 509.674 33.1001 510.119 33.1001C511.475 33.1001 512.424 33.717 512.967 34.9509L525.811 68.3542L538.654 34.9509C539.119 33.717 540.068 33.1001 541.502 33.1001C541.928 33.1001 542.325 33.1784 542.693 33.3351C543.081 33.4918 543.41 33.717 543.681 34.0108C543.972 34.285 544.195 34.618 544.35 35.0097C544.505 35.3818 544.582 35.7833 544.582 36.2142C544.582 36.7234 544.466 37.2522 544.233 37.8006L528.629 78.1372C528.106 79.4494 527.167 80.1056 525.811 80.1056Z" fill="white"/>
</svg>
