<svg width="100" height="101" viewBox="0 0 100 101" fill="none" xmlns="http://www.w3.org/2000/svg">
<path d="M50 100.297C77.6142 100.297 100 77.9114 100 50.2971C100 22.6829 77.6142 0.297119 50 0.297119C22.3858 0.297119 0 22.6829 0 50.2971C0 77.9114 22.3858 100.297 50 100.297Z" fill="white"/>
<path fill-rule="evenodd" clip-rule="evenodd" d="M45.2137 15.1663C45.2137 14.3659 45.8626 13.717 46.6629 13.717H51.8802C52.6806 13.717 53.3294 14.3659 53.3294 15.1663V18.1523C55.0291 18.4974 56.6457 19.0713 58.1457 19.8405L60.2199 17.3371C60.7305 16.7208 61.6441 16.6352 62.2604 17.1459L66.2778 20.4746C66.8941 20.9852 66.9798 21.8988 66.4691 22.5151L64.4025 25.0092C65.4091 26.2945 66.2523 27.7139 66.9009 29.2361L69.5041 28.76C70.2914 28.6159 71.0464 29.1375 71.1904 29.9248L72.1291 35.0569C72.2731 35.8442 71.7516 36.5992 70.9643 36.7432L68.3916 37.2138C68.3347 39.037 68.0188 40.7949 67.4794 42.4519L69.9231 43.8375C70.6194 44.2322 70.8638 45.1167 70.469 45.813L67.8957 50.3514C67.501 51.0477 66.6165 51.2921 65.9203 50.8973L63.3581 49.4446C62.1736 50.7178 60.815 51.8269 59.3201 52.734L60.4168 55.5C60.7118 56.2441 60.3477 57.0864 59.6037 57.3814L54.7537 59.3042C54.0097 59.5992 53.1674 59.2352 52.8724 58.4911L51.6245 55.3437C50.9468 55.4175 50.2583 55.4554 49.5609 55.4554C48.6726 55.4554 47.7987 55.3939 46.9431 55.275L45.8009 58.2439C45.5135 58.991 44.6749 59.3636 43.9279 59.0762L39.0586 57.2028C38.3116 56.9154 37.939 56.0769 38.2264 55.3299L39.3372 52.4427C37.9767 51.5621 36.7369 50.5108 35.6482 49.3192L32.8399 50.902C32.1426 51.295 31.2588 51.0483 30.8658 50.3511L28.3042 45.806C27.9112 45.1087 28.1578 44.2249 28.8551 43.8319L31.5906 42.2902C31.1103 40.7677 30.8181 39.1617 30.7413 37.4995L27.5179 37.0289C26.7259 36.9133 26.1776 36.1775 26.2932 35.3855L27.0469 30.223C27.1626 29.431 27.8983 28.8827 28.6903 28.9983L32.1117 29.4979C32.7539 27.9252 33.6025 26.4587 34.6238 25.1322L32.5501 22.7835C32.0204 22.1835 32.0773 21.2677 32.6773 20.738L36.5883 17.2849C37.1883 16.7551 38.1041 16.8121 38.6339 17.4121L40.8401 19.9109C42.2078 19.1954 43.6743 18.643 45.2137 18.2794V15.1663ZM49.5609 48.385C43.0607 48.385 37.7913 43.1156 37.7913 36.6154C37.7913 30.1152 43.0607 24.8457 49.5609 24.8457C56.0611 24.8457 61.3306 30.1152 61.3306 36.6154C61.3306 43.1156 56.0611 48.385 49.5609 48.385Z" fill="#1A976A"/>
<path d="M23.8358 57.5978C25.8893 58.0469 28.4876 61.8487 29.53 63.6935C27.6051 64.5277 24.6106 62.0626 23.3539 60.7258L18.3009 52.6249C18.5683 49.4434 18.4455 42.9681 15.8147 42.5189C12.5262 42.7595 13.2481 48.7751 13.8898 54.4698C14.5314 57.6781 16.617 61.4478 20.0659 66.9821C21.5097 68.4258 25.8408 72.757 32.6584 76.0455C36.3159 76.8155 36.4816 83.5849 36.1073 86.8734C36.3747 86.8467 38.8183 86.8092 46.454 86.8734C49.0207 73.7997 46.8551 66.6612 39.2354 61.929C34.9042 61.2072 27.6855 52.5448 26.0012 52.0636C24.3168 51.5824 21.7502 53.5875 23.8358 57.5978Z" fill="#FBAE3B"/>
<path d="M76.1613 57.5978C74.1077 58.0469 71.5095 61.8487 70.4671 63.6935C72.3919 64.5277 75.3865 62.0626 76.6431 60.7258L81.6962 52.6249C81.4288 49.4434 81.5516 42.9681 84.1824 42.5189C87.4709 42.7595 86.749 48.7751 86.1073 54.4698C85.4657 57.6781 83.38 61.4478 79.9311 66.9821C78.4874 68.4258 74.1562 72.757 67.3386 76.0455C63.6812 76.8155 63.5154 83.5849 63.8897 86.8734C63.6224 86.8467 61.1787 86.8092 53.543 86.8734C50.9764 73.7997 53.142 66.6612 60.7617 61.929C65.0928 61.2072 72.3116 52.5448 73.9959 52.0636C75.6803 51.5824 78.2469 53.5875 76.1613 57.5978Z" fill="#FBAE3B"/>
</svg>
