<svg width="100" height="101" viewBox="0 0 100 101" fill="none" xmlns="http://www.w3.org/2000/svg">
<path d="M50 100.297C77.6142 100.297 100 77.9114 100 50.2971C100 22.6829 77.6142 0.297119 50 0.297119C22.3858 0.297119 0 22.6829 0 50.2971C0 77.9114 22.3858 100.297 50 100.297Z" fill="white"/>
<path fill-rule="evenodd" clip-rule="evenodd" d="M43.9044 27.727C43.9044 26.7241 44.7174 25.9111 45.7202 25.9111H54.2816C55.2844 25.9111 56.0974 26.7241 56.0974 27.727V32.4825C56.7697 32.7226 57.4242 33.0001 58.0584 33.3127L61.4964 29.8747C62.2055 29.1655 63.3553 29.1655 64.0644 29.8747L70.1182 35.9284C70.8274 36.6376 70.8274 37.7873 70.1182 38.4965L66.6393 41.9754C66.9709 42.6646 67.2613 43.3773 67.5074 44.1103H72.5712C73.5741 44.1103 74.3871 44.9233 74.3871 45.9262V54.4875C74.3871 55.4904 73.5741 56.3034 72.5712 56.3034H67.399C67.0968 57.1526 66.7348 57.9735 66.3181 58.7609L69.8821 62.3249C70.5913 63.034 70.5913 64.1838 69.8821 64.8929L63.8284 70.9467C63.1192 71.6558 61.9695 71.6558 61.2603 70.9467L57.4067 67.0931C56.9785 67.2838 56.5419 67.4589 56.0974 67.6176V72.8676C56.0974 73.8704 55.2844 74.6834 54.2816 74.6834H45.7202C44.7174 74.6834 43.9044 73.8704 43.9044 72.8676V67.7397C43.3113 67.5413 42.7316 67.314 42.1667 67.0593L38.5063 70.7197C37.7972 71.4289 36.6474 71.4289 35.9383 70.7197L29.8845 64.666C29.1754 63.9568 29.1754 62.807 29.8845 62.0979L33.293 58.6894C32.9216 57.9801 32.5944 57.244 32.3153 56.4846H27.4306C26.4277 56.4846 25.6147 55.6716 25.6147 54.6687V46.1074C25.6147 45.1045 26.4277 44.2915 27.4306 44.2915H32.0815C32.4034 43.2989 32.8063 42.3428 33.2824 41.4309L30.1218 38.2702C29.4126 37.5611 29.4126 36.4113 30.1218 35.7022L36.1755 29.6484C36.8847 28.9393 38.0344 28.9393 38.7436 29.6484L42.1455 33.0504C42.717 32.7918 43.3039 32.5613 43.9044 32.3604V27.727ZM40.5516 42.516L42.2903 40.7773C44.3007 39.1418 46.8532 38.1471 49.6366 38.1042H50.0122C56.5239 38.2046 61.7717 43.5145 61.7717 50.0501C61.7717 56.6484 56.4227 61.9974 49.8244 61.9974C43.2261 61.9974 37.8771 56.6484 37.8771 50.0501C37.8771 47.1937 38.8794 44.5715 40.5516 42.516Z" fill="#1A976A"/>
<path d="M13.4394 47.879C14.6845 28.7478 30.5962 13.6159 50.0421 13.6159C65.4326 13.6159 78.6093 23.0944 84.0531 36.5323L87.2783 36.0141C81.5345 21.0491 67.0289 10.4263 50.0421 10.4263C28.6591 10.4263 11.2076 27.2592 10.2158 48.3969L13.4394 47.879Z" fill="#FBAE3B"/>
<path d="M77.6727 35.7119C76.8923 35.3035 76.5907 34.3398 76.999 33.5594C77.4074 32.779 78.3711 32.4774 79.1515 32.8858L86.9234 36.9524C87.7038 37.3608 88.0054 38.3245 87.5971 39.1049C87.1887 39.8853 86.225 40.1869 85.4446 39.7786L77.6727 35.7119Z" fill="#FBAE3B"/>
<path d="M88.8376 29.8542C89.246 29.0738 90.2097 28.7722 90.9901 29.1805C91.7705 29.5889 92.0721 30.5526 91.6637 31.333L87.5971 39.1049C87.1887 39.8853 86.225 40.1869 85.4446 39.7786C84.6642 39.3702 84.3626 38.4065 84.7709 37.6261L88.8376 29.8542Z" fill="#FBAE3B"/>
<path d="M87.6327 52.7165C86.3871 71.8471 70.4756 86.9783 51.0301 86.9783C35.64 86.9783 22.4637 77.5004 17.0196 64.063L13.7944 64.5813C19.5385 79.5457 34.0438 90.1679 51.0301 90.1679C72.4127 90.1679 89.864 73.3356 90.8564 52.1985L87.6327 52.7165Z" fill="#1A976A"/>
<path d="M23.3172 64.7558C24.0976 65.1641 24.3992 66.1278 23.9909 66.9082C23.5825 67.6887 22.6188 67.9903 21.8384 67.5819L14.0665 63.5152C13.2861 63.1069 12.9845 62.1432 13.3928 61.3628C13.8012 60.5823 14.7649 60.2807 15.5453 60.6891L23.3172 64.7558Z" fill="#1A976A"/>
<path d="M12.1523 70.6135C11.7439 71.3939 10.7802 71.6955 9.9998 71.2871C9.21938 70.8788 8.91777 69.9151 9.32613 69.1347L13.3928 61.3628C13.8012 60.5823 14.7649 60.2807 15.5453 60.6891C16.3257 61.0974 16.6273 62.0611 16.219 62.8416L12.1523 70.6135Z" fill="#1A976A"/>
</svg>
