<svg width="65" height="64" viewBox="0 0 65 64" fill="none" xmlns="http://www.w3.org/2000/svg">
<circle cx="32.8695" cy="32" r="32" fill="white"/>
<path fill-rule="evenodd" clip-rule="evenodd" d="M28.0213 13.6137C28.0213 12.8061 28.676 12.1514 29.4836 12.1514H36.3782C37.1858 12.1514 37.8405 12.8061 37.8405 13.6137V17.4434C38.3819 17.6367 38.909 17.8602 39.4197 18.112L42.1884 15.3433C42.7595 14.7722 43.6854 14.7722 44.2565 15.3433L49.1316 20.2184C49.7027 20.7895 49.7027 21.7154 49.1316 22.2865L46.33 25.0881C46.597 25.6431 46.8309 26.2171 47.0291 26.8074H51.107C51.9147 26.8074 52.5694 27.4622 52.5694 28.2698V35.1643C52.5694 35.972 51.9147 36.6267 51.107 36.6267H46.9418C46.6985 37.3106 46.4069 37.9716 46.0714 38.6057L48.9415 41.4759C49.5126 42.047 49.5126 42.9729 48.9415 43.544L44.0663 48.4192C43.4952 48.9902 42.5693 48.9902 41.9982 48.4192L38.8949 45.3158C38.5501 45.4694 38.1984 45.6104 37.8405 45.7382V49.966C37.8405 50.7737 37.1858 51.4284 36.3782 51.4284H29.4836C28.676 51.4284 28.0213 50.7737 28.0213 49.966V45.8365C27.5437 45.6768 27.0768 45.4937 26.6219 45.2886L23.6741 48.2364C23.1031 48.8074 22.1771 48.8074 21.6061 48.2364L16.7309 43.3612C16.1598 42.7901 16.1598 41.8642 16.7309 41.2931L19.4758 38.5482C19.1767 37.977 18.9132 37.3841 18.6884 36.7726H14.7547C13.9471 36.7726 13.2924 36.1179 13.2924 35.3103V28.4157C13.2924 27.6081 13.9471 26.9534 14.7547 26.9534H18.5001C18.7594 26.154 19.0839 25.384 19.4673 24.6497L16.9219 22.1043C16.3508 21.5332 16.3508 20.6073 16.9219 20.0362L21.7971 15.1611C22.3682 14.59 23.2941 14.59 23.8652 15.1611L26.6048 17.9007C27.0651 17.6925 27.5377 17.5068 28.0213 17.345V13.6137ZM25.3212 25.5235L26.7214 24.1233C28.3404 22.8062 30.396 22.0052 32.6375 21.9706H32.94C38.1839 22.0514 42.41 26.3276 42.41 31.5908C42.41 36.9045 38.1024 41.2121 32.7887 41.2121C27.475 41.2121 23.1674 36.9045 23.1674 31.5908C23.1674 29.2905 23.9746 27.1788 25.3212 25.5235Z" fill="#1A976A"/>
<circle cx="32.8695" cy="32" r="12.94" fill="white"/>
<path fill-rule="evenodd" clip-rule="evenodd" d="M40.8937 32.1882L41.0601 26.033L34.9782 26.9946L37.2788 29.0145L32.2976 34.8362L30.3008 29.6141L29.8504 28.4361L29.0304 29.3944L22.9892 36.4549L24.129 37.4301L29.3502 31.3279L31.347 36.55L31.7975 37.728L32.6174 36.7697L38.4061 30.0043L40.8937 32.1882Z" fill="#FBAE3B"/>
</svg>
