<svg width="80" height="80" viewBox="0 0 80 80" fill="none" xmlns="http://www.w3.org/2000/svg">
<g opacity="0.96">
<circle cx="40" cy="40" r="40" fill="white"/>
<path d="M61.4349 26.1153H48.9123C48.724 26.1153 48.5713 26.268 48.5713 26.4563V34.4015C48.5713 34.5898 48.724 34.7425 48.9123 34.7425H56.8141C57.0817 34.7425 57.3386 34.8474 57.5298 35.0346L59.0709 36.544C59.2867 36.7554 59.6505 36.6025 59.6505 36.3004V35.7654C59.6505 35.2005 60.1084 34.7425 60.6734 34.7425H61.4349C61.6232 34.7425 61.7758 34.5898 61.7758 34.4015V26.4563C61.7758 26.268 61.6232 26.1153 61.4349 26.1153Z" fill="white" stroke="#1A976A" stroke-width="0.681932"/>
<line x1="0.340966" y1="-0.340966" x2="8.29307" y2="-0.340966" transform="matrix(-1 0 0 1 59.6024 31.1442)" stroke="#1A976A" stroke-width="0.681932" stroke-linecap="round"/>
<line x1="0.340966" y1="-0.340966" x2="6.8879" y2="-0.340966" transform="matrix(-1 0 0 1 59.6024 33.066)" stroke="#1A976A" stroke-width="0.681932" stroke-linecap="round"/>
<path d="M17.21 57.4135C13.753 58.1049 12.8248 61.6067 12.7928 63.2711H42.5571V59.5726C41.8406 58.7744 39.9369 56.8373 38.3358 56.8373C36.5113 56.8373 32.1901 55.589 32.5742 52.5161C33.8225 50.9797 37.8557 47.2347 35.359 43.0095C36.4153 39.3606 33.5345 34.2711 28.157 34.8473C25.4683 35.2314 21.5312 36.6718 21.6272 43.0095C20.3789 45.8903 20.763 47.7148 24.508 52.5161C24.604 55.781 21.7232 56.4532 17.21 57.4135Z" fill="#1A976A"/>
<path d="M42.049 54.8207C42.8172 54.5327 45.2947 54.1294 49.0589 54.8207C49.6342 56.793 44.1646 58.9401 42.5538 59.5693L42.4802 63.2711H64.8073C64.3271 59.9102 61.4463 59.9101 57.5093 58.7578C54.3596 57.836 54.2764 55.749 54.6285 54.8207H61.4463C60.9342 54.5327 59.6602 52.977 58.6616 49.0592C58.9497 43.2976 55.8768 39.5526 51.6516 39.3605C47.5225 39.1684 44.4497 43.9698 44.4497 48.483C44.5265 49.8658 42.8812 53.2843 42.049 54.8207Z" fill="#FBAE3B"/>
<path d="M30.3344 12.5912H53.8908C54.245 12.5912 54.5322 12.8783 54.5322 13.2326V28.1785C54.5322 28.5328 54.245 28.8199 53.8908 28.8199H39.0266C38.5232 28.8199 38.0399 29.0172 37.6803 29.3694L34.7812 32.2088C34.3752 32.6063 33.691 32.3187 33.691 31.7505V30.7441C33.691 29.6814 32.8295 28.8199 31.7668 28.8199H30.3344C29.9801 28.8199 29.693 28.5328 29.693 28.1785V13.2326C29.693 12.8783 29.9801 12.5912 30.3344 12.5912Z" fill="white" stroke="#FBAE3B" stroke-width="1.2828"/>
<line x1="34.4228" y1="17.4323" x2="49.3817" y2="17.4323" stroke="#FBAE3B" stroke-width="1.2828" stroke-linecap="round"/>
<line x1="34.4228" y1="22.0127" x2="46.7384" y2="22.0127" stroke="#FBAE3B" stroke-width="1.2828" stroke-linecap="round"/>
</g>
</svg>
