<svg width="80" height="80" viewBox="0 0 80 80" fill="none" xmlns="http://www.w3.org/2000/svg">
<path d="M40 80C62.0914 80 80 62.0914 80 40C80 17.9086 62.0914 0 40 0C17.9086 0 0 17.9086 0 40C0 62.0914 17.9086 80 40 80Z" fill="white"/>
<path d="M18.8692 56.1744C16.4029 56.6676 15.7407 59.1659 15.7178 60.3533H36.9524V57.7147C36.4412 57.1453 35.083 55.7633 33.9408 55.7633C32.6391 55.7633 29.5563 54.8727 29.8303 52.6805C30.7209 51.5844 33.5982 48.9126 31.8171 45.8983C32.5706 43.295 30.5154 39.6641 26.679 40.0751C24.7608 40.3492 21.952 41.3768 22.0205 45.8983C21.1299 47.9535 21.4039 49.2551 24.0757 52.6805C24.1442 55.0097 22.089 55.4893 18.8692 56.1744Z" fill="#FBAE3B"/>
<path fill-rule="evenodd" clip-rule="evenodd" d="M23.1353 27.7935C22.3099 27.7935 21.6408 28.4626 21.6408 29.288V33.1014C21.1465 33.2668 20.6635 33.4565 20.1932 33.6693L17.3933 30.8694C16.8096 30.2858 15.8633 30.2858 15.2797 30.8694L10.2973 35.8518C9.71363 36.4355 9.71363 37.3818 10.2973 37.9654L12.8986 40.5667C12.5068 41.3172 12.1752 42.1042 11.9102 42.9211H8.08241C7.25701 42.9211 6.58789 43.5902 6.58789 44.4156V51.4618C6.58789 52.2872 7.25701 52.9563 8.08241 52.9563H12.1026C12.3324 53.5813 12.6016 54.1872 12.9073 54.7709L10.102 57.5762C9.51839 58.1599 9.51839 59.1062 10.102 59.6898L15.0844 64.6722C15.6681 65.2559 16.6144 65.2559 17.198 64.6722L20.2106 61.6596C20.6755 61.8692 21.1527 62.0563 21.6408 62.2196V66.44C21.6408 67.2654 22.3099 67.9345 23.1353 67.9345H30.1815C31.0069 67.9345 31.676 67.2654 31.676 66.44V62.1191C32.0418 61.9885 32.4012 61.8444 32.7535 61.6874L35.9252 64.859C36.5088 65.4427 37.4551 65.4427 38.0387 64.859L43.0212 59.8766C43.6048 59.293 43.6048 58.3467 43.0212 57.763L40.0879 54.8298C40.4308 54.1817 40.7288 53.5061 40.9775 52.8072H45.2343C46.0597 52.8072 46.7289 52.1381 46.7289 51.3127V44.2665C46.7289 43.4411 46.0597 42.772 45.2343 42.772H41.0667C40.8642 42.1686 40.6251 41.5821 40.3522 41.0148L43.2155 38.1516C43.7991 37.568 43.7991 36.6217 43.2155 36.038L38.2331 31.0556C37.6494 30.472 36.7031 30.472 36.1195 31.0556L33.2899 33.8852C32.768 33.628 32.2293 33.3995 31.676 33.2019V29.288C31.676 28.4626 31.0069 27.7935 30.1815 27.7935H23.1353ZM26.6583 59.8724C33.2904 59.8724 38.6668 54.4961 38.6668 47.864C38.6668 41.2319 33.2904 35.8555 26.6583 35.8555C20.0262 35.8555 14.6499 41.2319 14.6499 47.864C14.6499 54.4961 20.0262 59.8724 26.6583 59.8724Z" fill="#1A976A"/>
<path d="M36.8236 20.7488C35.3644 21.0406 34.9725 22.5188 34.959 23.2214H47.5232V21.6602C47.2207 21.3232 46.4171 20.5055 45.7413 20.5055C44.9711 20.5055 43.147 19.9786 43.3092 18.6815C43.8361 18.0329 45.5386 16.4521 44.4847 14.6685C44.9306 13.1282 43.7145 10.9799 41.4446 11.2231C40.3096 11.3852 38.6477 11.9932 38.6882 14.6685C38.1613 15.8846 38.3234 16.6547 39.9043 18.6815C39.9448 20.0597 38.7288 20.3434 36.8236 20.7488Z" fill="#1A976A"/>
<path fill-rule="evenodd" clip-rule="evenodd" d="M39.6171 4.61853C39.1472 4.61853 38.7663 4.99944 38.7663 5.46931V7.64015C38.485 7.73426 38.21 7.8423 37.9422 7.96344L36.3483 6.36954C36.0161 6.03729 35.4774 6.03729 35.1452 6.36954L32.3088 9.20586C31.9766 9.53811 31.9766 10.0768 32.3088 10.4091L33.7897 11.8899C33.5666 12.3171 33.3779 12.7651 33.227 13.2302H31.048C30.5781 13.2302 30.1972 13.6111 30.1972 14.0809V18.0921C30.1972 18.562 30.5781 18.9429 31.048 18.9429H33.3366C33.4674 19.2987 33.6206 19.6436 33.7946 19.9759L32.1977 21.5728C31.8654 21.9051 31.8654 22.4438 32.1977 22.776L35.034 25.6124C35.3663 25.9446 35.905 25.9446 36.2372 25.6124L37.9522 23.8974C38.2168 24.0167 38.4884 24.1232 38.7663 24.2162V26.6187C38.7663 27.0885 39.1472 27.4695 39.6171 27.4695H43.6283C44.0981 27.4695 44.479 27.0885 44.479 26.6187V24.159C44.6873 24.0846 44.8918 24.0026 45.0924 23.9132L46.898 25.7187C47.2302 26.051 47.7689 26.051 48.1011 25.7187L50.9375 22.8824C51.2697 22.5501 51.2697 22.0114 50.9375 21.6792L49.2676 20.0094C49.4629 19.6405 49.6325 19.2559 49.7741 18.858H52.1974C52.6672 18.858 53.0481 18.4771 53.0481 18.0072V13.996C53.0481 13.5262 52.6672 13.1453 52.1974 13.1453H49.8249C49.7096 12.8018 49.5735 12.4679 49.4181 12.145L51.0481 10.515C51.3803 10.1828 51.3803 9.64411 51.0481 9.31186L48.2118 6.47554C47.8795 6.14329 47.3408 6.14329 47.0086 6.47554L45.3978 8.08633C45.1007 7.93989 44.794 7.80984 44.479 7.69735V5.46931C44.479 4.99944 44.0981 4.61853 43.6283 4.61853H39.6171ZM41.6227 22.88C45.3981 22.88 48.4587 19.8194 48.4587 16.044C48.4587 12.2686 45.3981 9.20798 41.6227 9.20798C37.8472 9.20798 34.7867 12.2686 34.7867 16.044C34.7867 19.8194 37.8472 22.88 41.6227 22.88Z" fill="#FBAE3B"/>
<path d="M56.8527 45.0513C57.244 44.9046 58.5062 44.6991 60.424 45.0513C60.7171 46.0562 57.9305 47.15 57.1098 47.4706L57.0723 49.3565H68.4473C68.2027 47.6443 66.735 47.6442 64.7292 47.0572C63.1245 46.5875 63.0821 45.5243 63.2615 45.0513H66.735C66.4741 44.9046 65.825 44.112 65.3162 42.116C65.463 39.1807 63.8975 37.2727 61.7449 37.1748C59.6412 37.077 58.0757 39.5231 58.0757 41.8225C58.1149 42.5269 57.2767 44.2686 56.8527 45.0513Z" fill="#FBAE3B"/>
<path fill-rule="evenodd" clip-rule="evenodd" d="M59.4012 25.8694C58.809 25.8694 58.3289 26.3495 58.3289 26.9417V29.6778C57.9744 29.7964 57.6278 29.9325 57.2903 30.0852L55.2815 28.0763C54.8627 27.6576 54.1838 27.6576 53.765 28.0763L50.1903 31.6511C49.7715 32.0698 49.7715 32.7488 50.1903 33.1675L52.0567 35.0339C51.7755 35.5724 51.5376 36.137 51.3475 36.7231H48.6012C48.0089 36.7231 47.5289 37.2032 47.5289 37.7954V42.8509C47.5289 43.4431 48.0089 43.9232 48.6012 43.9232H51.4856C51.6504 44.3716 51.8436 44.8063 52.0629 45.2251L50.0502 47.2378C49.6314 47.6566 49.6314 48.3355 50.0502 48.7543L53.6249 52.329C54.0437 52.7478 54.7226 52.7478 55.1414 52.329L57.3029 50.1676C57.6364 50.3179 57.9787 50.4522 58.3289 50.5694V53.5974C58.3289 54.1896 58.809 54.6696 59.4012 54.6696H64.4567C65.0489 54.6696 65.529 54.1896 65.529 53.5974V50.4973C65.7914 50.4035 66.0493 50.3001 66.3021 50.1875L68.5777 52.4631C68.9964 52.8818 69.6754 52.8818 70.0941 52.4631L73.6689 48.8883C74.0876 48.4696 74.0876 47.7906 73.6689 47.3719L71.5643 45.2673C71.8104 44.8023 72.0241 44.3176 72.2026 43.8162H75.2568C75.849 43.8162 76.3291 43.3361 76.3291 42.7439V37.6884C76.3291 37.0962 75.849 36.6161 75.2568 36.6161H72.2666C72.1213 36.1833 71.9498 35.7624 71.754 35.3554L73.8083 33.3011C74.227 32.8824 74.227 32.2034 73.8083 31.7847L70.2335 28.2099C69.8148 27.7912 69.1358 27.7912 68.7171 28.2099L66.6869 30.2401C66.3125 30.0555 65.926 29.8916 65.529 29.7498V26.9417C65.529 26.3495 65.0489 25.8694 64.4567 25.8694H59.4012ZM61.929 48.8853C66.6873 48.8853 70.5448 45.0279 70.5448 40.2696C70.5448 35.5112 66.6873 31.6538 61.929 31.6538C57.1706 31.6538 53.3132 35.5112 53.3132 40.2696C53.3132 45.0279 57.1706 48.8853 61.929 48.8853Z" fill="#1A976A"/>
</svg>
