<svg width="100" height="100" viewBox="0 0 100 100" fill="none" xmlns="http://www.w3.org/2000/svg">
<path d="M50 100C77.6142 100 100 77.6142 100 50C100 22.3858 77.6142 0 50 0C22.3858 0 0 22.3858 0 50C0 77.6142 22.3858 100 50 100Z" fill="white"/>
<path d="M22.5762 48.1779C23.5143 33.7639 35.5026 22.3631 50.1538 22.3631C61.7494 22.3631 71.6771 29.5045 75.7787 39.629L78.2086 39.2386C73.8811 27.9635 62.9521 19.96 50.1538 19.96C34.0432 19.96 20.8947 32.6424 20.1475 48.5682L22.5762 48.1779Z" fill="#FBAE3B"/>
<path d="M70.9715 39.0109C70.3835 38.7032 70.1562 37.9772 70.4639 37.3892C70.7716 36.8012 71.4976 36.5739 72.0856 36.8816L77.9412 39.9456C78.5292 40.2532 78.7565 40.9793 78.4488 41.5673C78.1411 42.1553 77.4151 42.3825 76.8271 42.0749L70.9715 39.0109Z" fill="#FBAE3B"/>
<path d="M79.3835 34.5975C79.6911 34.0096 80.4172 33.7823 81.0052 34.09C81.5932 34.3976 81.8204 35.1237 81.5128 35.7117L78.4488 41.5673C78.1411 42.1553 77.4151 42.3825 76.8271 42.0749C76.2391 41.7672 76.0118 41.0411 76.3195 40.4531L79.3835 34.5975Z" fill="#FBAE3B"/>
<path d="M78.4756 51.8228C77.5371 66.2363 65.5489 77.6366 50.898 77.6366C39.3027 77.6366 29.3753 70.4957 25.2735 60.3716L22.8435 60.7621C27.1713 72.0367 38.1001 80.0398 50.898 80.0398C67.0084 80.0398 80.1567 67.3578 80.9043 51.4325L78.4756 51.8228Z" fill="#1A976A"/>
<path d="M30.0183 60.8935C30.6063 61.2012 30.8336 61.9273 30.5259 62.5153C30.2182 63.1033 29.4921 63.3305 28.9041 63.0228L23.0486 59.9589C22.4606 59.6512 22.2333 58.9251 22.541 58.3371C22.8487 57.7491 23.5747 57.5219 24.1627 57.8296L30.0183 60.8935Z" fill="#1A976A"/>
<path d="M21.6063 65.3069C21.2987 65.8949 20.5726 66.1221 19.9846 65.8145C19.3966 65.5068 19.1694 64.7807 19.477 64.1927L22.541 58.3371C22.8487 57.7491 23.5747 57.5219 24.1627 57.8296C24.7507 58.1372 24.978 58.8633 24.6703 59.4513L21.6063 65.3069Z" fill="#1A976A"/>
<circle cx="50.1218" cy="50" r="12.2673" fill="#1A976A"/>
<path d="M43.8281 48.9852L48.6999 53.857L56.4136 46.1433" stroke="white" stroke-width="1.84364" stroke-linecap="round" stroke-linejoin="round"/>
</svg>
