<svg width="100" height="100" viewBox="0 0 100 100" fill="none" xmlns="http://www.w3.org/2000/svg">
<circle cx="50" cy="50" r="50" fill="white"/>
<path fill-rule="evenodd" clip-rule="evenodd" d="M35.5139 22.5974C35.5139 21.3355 36.5369 20.3125 37.7988 20.3125H48.5716C49.8335 20.3125 50.8565 21.3355 50.8565 22.5974V28.5812C51.7024 28.8833 52.526 29.2326 53.3239 29.6259L57.65 25.2998C58.5423 24.4075 59.9891 24.4075 60.8814 25.2998L68.4989 32.9173C69.3912 33.8096 69.3912 35.2564 68.4989 36.1487L64.1214 40.5262C64.5386 41.3934 64.904 42.2902 65.2137 43.2126H71.5855C72.8474 43.2126 73.8704 44.2356 73.8704 45.4976V56.2703C73.8704 57.5322 72.8474 58.5552 71.5855 58.5552H65.0773C64.697 59.6238 64.2415 60.6566 63.7172 61.6475L68.2018 66.1321C69.0941 67.0244 69.0941 68.4711 68.2018 69.3635L60.5843 76.9809C59.692 77.8732 58.2453 77.8732 57.3529 76.9809L52.5039 72.1319C51.9652 72.3719 51.4157 72.5922 50.8565 72.792V79.3979C50.8565 80.6599 49.8335 81.6829 48.5716 81.6829H37.7988C36.5369 81.6829 35.5139 80.6599 35.5139 79.3979V72.9456C34.7677 72.6959 34.0381 72.4098 33.3274 72.0894L28.7215 76.6953C27.8292 77.5876 26.3825 77.5876 25.4901 76.6953L17.8727 69.0778C16.9804 68.1855 16.9804 66.7388 17.8727 65.8464L22.1616 61.5575C21.6942 60.665 21.2826 59.7387 20.9313 58.7832H14.7849C13.523 58.7832 12.5 57.7602 12.5 56.4983V45.7256C12.5 44.4636 13.523 43.4406 14.7849 43.4406H20.6372C21.0422 42.1916 21.5492 40.9885 22.1483 39.8411L18.1712 35.864C17.2789 34.9717 17.2789 33.5249 18.1712 32.6326L25.7887 25.0152C26.681 24.1228 28.1277 24.1228 29.02 25.0152L33.3007 29.2959C34.0199 28.9705 34.7583 28.6804 35.5139 28.4276V22.5974ZM31.2951 41.2064L33.4829 39.0186C36.0126 36.9607 39.2244 35.7091 42.7268 35.6551H43.1994C51.3931 35.7814 57.9964 42.4628 57.9964 50.6866C57.9964 58.9893 51.2657 65.7199 42.9631 65.7199C34.6604 65.7199 27.9297 58.9893 27.9297 50.6866C27.9297 47.0925 29.191 43.7929 31.2951 41.2064Z" fill="#1A976A"/>
<rect x="42.1875" y="12.5" width="32.8125" height="75" fill="white"/>
<path d="M41.2529 55.3305H62.8244L76.1479 64.8471M59.2714 44.6715H64.2202L76.1479 35.2815" stroke="#1A976A" stroke-width="1.25"/>
<circle r="4.0625" transform="matrix(-1 0 0 1 58.2227 28.4966)" stroke="#FBAE3B" stroke-width="1.25"/>
<circle r="4.0625" transform="matrix(-1 0 0 1 66.4355 18.3518)" stroke="#FBAE3B" stroke-width="1.25"/>
<circle r="4.0625" transform="matrix(-1 0 0 1 79.3223 33.1841)" stroke="#FBAE3B" stroke-width="1.25"/>
<circle r="4.0625" transform="matrix(-1 0 0 1 69.9473 50.158)" stroke="#FBAE3B" stroke-width="1.25"/>
<circle r="4.0625" transform="matrix(-1 0 0 1 79.3223 67.1311)" stroke="#FBAE3B" stroke-width="1.25"/>
<circle r="4.0625" transform="matrix(-1 0 0 1 58.2227 71.8186)" stroke="#FBAE3B" stroke-width="1.25"/>
<circle r="4.0625" transform="matrix(-1 0 0 1 66.6074 81.6483)" stroke="#FBAE3B" stroke-width="1.25"/>
<rect x="34.3066" y="43.8584" width="1.95312" height="1.95312" fill="#1A976A"/>
<rect x="38.4336" y="43.8584" width="16.1214" height="1.95312" fill="#1A976A"/>
<rect x="36.8838" y="54.4365" width="1.95312" height="1.95312" fill="#1A976A"/>
<rect x="47.6992" y="49.1814" width="18.282" height="1.95312" fill="#1A976A"/>
<rect x="33.1777" y="49.1814" width="11.6169" height="1.95312" fill="#1A976A"/>
<path d="M41.2139 39.5775H46.3928L48.8397 37.1306V31.1199L50.8947 29.0649H53.8998" stroke="#1A976A" stroke-width="1.25"/>
<path d="M41.2139 60.7377H46.3928L48.8397 63.1846V69.1952L50.8947 71.2502H53.8998" stroke="#1A976A" stroke-width="1.25"/>
<path d="M52.293 39.7234H61.556L66.378 34.9013V22.4656" stroke="#1A976A" stroke-width="1.25"/>
<path d="M52.293 60.7376H61.556L66.378 65.5596V77.9954" stroke="#1A976A" stroke-width="1.25"/>
</svg>
