<svg width="100" height="100" viewBox="0 0 100 100" fill="none" xmlns="http://www.w3.org/2000/svg">
<path d="M50 100C77.6142 100 100 77.6142 100 50C100 22.3858 77.6142 0 50 0C22.3858 0 0 22.3858 0 50C0 77.6142 22.3858 100 50 100Z" fill="white"/>
<path d="M40.0244 65.0361H42.2172M66.0244 65.0361H63.5184M63.5184 65.0361V52.5059M63.5184 65.0361H58.5063M58.5063 65.0361V58.1445M58.5063 65.0361H52.8678M52.8678 65.0361V51.2529M52.8678 65.0361H47.8557M47.8557 65.0361V55.6385M47.8557 65.0361H42.2172M42.2172 65.0361V59.7108" stroke="#FBAE3B"/>
<path d="M70.4096 24H30V72.241C30 73.494 31.1904 76 35.9518 76C40.7133 76 40.8594 71.4056 40.3373 69.1084H70.4096V24Z" stroke="#1A976A" stroke-width="2"/>
<path d="M70.9556 69.1084H77.5189C77.9356 71.4056 77.2064 76 70.9556 76C64.7048 76 44.8065 76 35.6387 76" stroke="#1A976A" stroke-width="2"/>
<path d="M46.6025 39.0362H53.1809M56.6266 37.7831L63.2049 31.2048" stroke="#1A976A"/>
<path d="M36.5781 47.1806L43.1564 40.6023" stroke="#1A976A"/>
<circle r="2.19277" transform="matrix(-1 0 0 1 35.3258 48.747)" fill="#FBAE3B"/>
<circle r="2.19277" transform="matrix(-1 0 0 1 44.7232 39.3495)" fill="#FBAE3B"/>
<circle r="2.19277" transform="matrix(-1 0 0 1 55.3736 39.3495)" fill="#FBAE3B"/>
<circle r="2.19277" transform="matrix(-1 0 0 1 64.7711 29.9518)" fill="#FBAE3B"/>
</svg>
