<svg width="100" height="100" viewBox="0 0 100 100" fill="none" xmlns="http://www.w3.org/2000/svg">
<path d="M50 100C77.6142 100 100 77.6142 100 50C100 22.3858 77.6142 0 50 0C22.3858 0 0 22.3858 0 50C0 77.6142 22.3858 100 50 100Z" fill="white"/>
<path d="M47.9346 22.4168C47.9346 22.0334 48.2454 21.7227 48.6287 21.7227V21.7227C49.0121 21.7227 49.3229 22.0334 49.3229 22.4168V23.1129H47.9346V22.4168Z" fill="#FBAE3B"/>
<circle cx="55.3748" cy="48.8451" r="21.2898" stroke="#1A976A" stroke-width="1.54112"/>
<path d="M57.069 31.0365V36.4197H54.2964V31.0365H57.069ZM56.7269 60.4372V65.2623H53.9723V60.4372H56.7269ZM59.4455 54.6219C59.4455 53.9257 59.3015 53.3196 59.0134 52.8035C58.7374 52.2753 58.2813 51.8012 57.6451 51.3811C57.009 50.949 56.1568 50.547 55.0885 50.1749C53.5522 49.6347 52.2079 49.0286 51.0556 48.3565C49.9154 47.6723 49.0272 46.8321 48.391 45.8359C47.7669 44.8277 47.4548 43.5734 47.4548 42.073C47.4548 40.5967 47.7909 39.3184 48.463 38.2382C49.1472 37.1579 50.0954 36.3237 51.3077 35.7356C52.5199 35.1474 53.9363 34.8534 55.5566 34.8534C56.8049 34.8534 57.9272 35.0394 58.9234 35.4115C59.9316 35.7836 60.7898 36.3297 61.498 37.0499C62.2062 37.77 62.7463 38.6582 63.1184 39.7145C63.5024 40.7587 63.6945 41.959 63.6945 43.3153H59.3735C59.3735 42.5471 59.2835 41.863 59.1034 41.2628C58.9354 40.6507 58.6834 40.1346 58.3473 39.7145C58.0112 39.2824 57.6031 38.9523 57.123 38.7243C56.6549 38.4962 56.1208 38.3822 55.5206 38.3822C54.6684 38.3822 53.9663 38.5442 53.4142 38.8683C52.862 39.1804 52.4539 39.6125 52.1899 40.1646C51.9378 40.7167 51.8118 41.3469 51.8118 42.055C51.8118 42.7392 51.9438 43.3393 52.2079 43.8554C52.4719 44.3715 52.922 44.8397 53.5582 45.2597C54.2063 45.6678 55.0945 46.0819 56.2228 46.502C57.7711 47.0542 59.1094 47.6723 60.2377 48.3565C61.378 49.0286 62.2542 49.8628 62.8663 50.859C63.4904 51.8432 63.8025 53.0855 63.8025 54.5859C63.8025 56.1342 63.4424 57.4485 62.7223 58.5288C62.0141 59.609 61.0179 60.4312 59.7336 60.9953C58.4613 61.5475 56.979 61.8235 55.2866 61.8235C54.2183 61.8235 53.1561 61.6855 52.0999 61.4094C51.0556 61.1214 50.1074 60.6533 49.2552 60.0051C48.403 59.357 47.7249 58.4988 47.2207 57.4305C46.7166 56.3503 46.4646 55.03 46.4646 53.4696H50.8216C50.8216 54.4058 50.9476 55.186 51.1996 55.8102C51.4517 56.4343 51.7938 56.9264 52.2259 57.2865C52.658 57.6466 53.1381 57.9046 53.6662 58.0607C54.2063 58.2167 54.7465 58.2947 55.2866 58.2947C56.1868 58.2947 56.943 58.1447 57.5551 57.8446C58.1792 57.5325 58.6473 57.1004 58.9594 56.5483C59.2835 55.9842 59.4455 55.342 59.4455 54.6219Z" fill="#FBAE3B"/>
<path d="M38.4186 23.1129L29.6071 28.6197C28.8724 32.2908 29.606 40.7345 38.4186 45.14C46.5704 41.6156 48.2383 32.6579 48.0532 28.6197L38.4186 23.1129Z" fill="#FBAE3B"/>
<path d="M35.9355 33.5758L38.4164 36.3292L42.5442 31.0978" stroke="#1A976A" stroke-width="1.54112"/>
<path d="M36.2119 55.6028L29.6045 60.2836V69.3698C34.6519 73.2245 48.8766 79.8326 65.397 75.4272C85.2213 61.3299 78.9803 57.9891 73.3818 58.0809L63.4696 67.167C55.3012 67.4424 40.1209 66.8917 44.7466 62.4863C63.029 64.2485 60.9915 58.6315 57.6875 55.6028H36.2119Z" fill="white" stroke="#1A976A" stroke-width="1.54112"/>
<rect x="21.0654" y="53.4" width="10.7389" height="23.4037" rx="3.08223" fill="#1A976A"/>
</svg>
