<svg width="65" height="64" viewBox="0 0 65 64" fill="none" xmlns="http://www.w3.org/2000/svg">
<circle cx="32.75" cy="32" r="32" fill="white"/>
<path fill-rule="evenodd" clip-rule="evenodd" d="M23.2609 24.9887C23.2609 24.6972 23.4972 24.4609 23.7887 24.4609H26.2769C26.5684 24.4609 26.8047 24.6972 26.8047 24.9887V26.3708C27.0001 26.4406 27.1903 26.5213 27.3746 26.6121L28.3738 25.6129C28.5799 25.4068 28.9141 25.4068 29.1202 25.6129L30.8796 27.3723C31.0857 27.5784 31.0857 27.9126 30.8796 28.1187L29.8685 29.1298C29.9649 29.3301 30.0493 29.5372 30.1208 29.7503H31.5926C31.884 29.7503 32.1203 29.9866 32.1203 30.278V32.7663C32.1203 33.0577 31.884 33.294 31.5926 33.294H30.0893C30.0015 33.5408 29.8963 33.7794 29.7752 34.0083L30.811 35.0441C31.0171 35.2502 31.0171 35.5844 30.811 35.7905L29.0516 37.5499C28.8455 37.756 28.5113 37.756 28.3052 37.5499L27.1852 36.4299C27.0608 36.4853 26.9339 36.5362 26.8047 36.5824V38.1082C26.8047 38.3996 26.5684 38.6359 26.2769 38.6359H23.7887C23.4972 38.6359 23.2609 38.3996 23.2609 38.1082V36.6178C23.0886 36.5602 22.9201 36.4941 22.7559 36.4201L21.6921 37.4839C21.486 37.69 21.1518 37.69 20.9457 37.4839L19.1863 35.7245C18.9802 35.5184 18.9802 35.1842 19.1863 34.9781L20.1769 33.9875C20.0689 33.7813 19.9739 33.5674 19.8927 33.3467H18.4731C18.1816 33.3467 17.9453 33.1104 17.9453 32.8189V30.3307C17.9453 30.0392 18.1816 29.8029 18.4731 29.8029H19.8248C19.9184 29.5145 20.0355 29.2366 20.1738 28.9716L19.2552 28.0529C19.0491 27.8468 19.0491 27.5127 19.2552 27.3066L21.0147 25.5471C21.2208 25.341 21.5549 25.341 21.761 25.5471L22.7498 26.5359C22.9159 26.4607 23.0864 26.3937 23.2609 26.3353V24.9887ZM22.2865 29.2869L22.7918 28.7816C23.3761 28.3063 24.118 28.0172 24.9269 28.0047H25.0361C26.9286 28.0338 28.4538 29.5771 28.4538 31.4766C28.4538 33.3943 26.8992 34.9489 24.9815 34.9489C23.0638 34.9489 21.5092 33.3943 21.5092 31.4766C21.5092 30.6464 21.8005 29.8843 22.2865 29.2869Z" fill="#FBAE3B"/>
<path d="M36.3055 29.8513C35.0148 30.1094 34.6682 31.4169 34.6562 32.0384H45.7697V30.6574C45.5022 30.3594 44.7913 29.6361 44.1935 29.6361C43.5123 29.6361 41.8988 29.17 42.0423 28.0227C42.5084 27.449 44.0143 26.0507 43.082 24.4731C43.4764 23.1106 42.4008 21.2103 40.393 21.4255C39.389 21.5689 37.919 22.1067 37.9549 24.4731C37.4887 25.5487 37.6322 26.23 39.0305 28.0227C39.0663 29.2417 37.9907 29.4927 36.3055 29.8513Z" fill="#1A976A"/>
<path d="M44.8071 17.0765H50.2083V16.0765H44.8071V17.0765ZM44.8071 15.1087H51.3439V14.1087H44.8071V15.1087ZM43.0547 12.6982H53.277V19.2214H46.7951C46.549 19.2214 46.3126 19.3179 46.1368 19.4901L44.7723 20.8265V20.1623C44.7723 19.6427 44.351 19.2214 43.8314 19.2214H43.0547V12.6982ZM44.6718 20.9249C44.6718 20.9248 44.6718 20.9248 44.6719 20.9248L44.6718 20.9249Z" stroke="#1A976A"/>
<path d="M33.6884 18.4062H15.6484C14.5439 18.4062 13.6484 19.3017 13.6484 20.4062V42.6885C13.6484 43.7931 14.5439 44.6885 15.6484 44.6885H32.1248M50.6011 35.0603V42.6885C50.6011 43.7931 49.7057 44.6885 48.6011 44.6885H32.1248M32.1248 44.6885V51.7145M32.1248 51.7145H41.3633M32.1248 51.7145H23.0177" stroke="#1A976A" stroke-width="3" stroke-linecap="round"/>
</svg>
