<svg width="100" height="100" viewBox="0 0 100 100" fill="none" xmlns="http://www.w3.org/2000/svg">
<path d="M50 100C77.6142 100 100 77.6142 100 50C100 22.3858 77.6142 0 50 0C22.3858 0 0 22.3858 0 50C0 77.6142 22.3858 100 50 100Z" fill="white"/>
<path d="M33.5265 54.071C33.7435 54.1434 33.9675 54.1802 34.1923 54.1802H34.1925C34.6779 54.1802 35.1505 54.0052 35.523 53.6891C36.3326 53.0017 36.7154 51.8378 36.124 48.1613C35.6005 44.9015 34.7897 43.1943 33.4133 42.4538C33.112 42.2914 32.7928 42.1831 32.4622 42.1309C32.4727 36.055 34.5547 30.4402 38.1882 26.7058C41.2919 23.5146 45.3772 21.8286 50.0033 21.8286C54.6293 21.8286 58.715 23.5146 61.8187 26.7058C65.4522 30.4402 67.5342 36.054 67.5447 42.1309C67.2141 42.1831 66.8949 42.2914 66.5936 42.4538C65.2172 43.1943 64.4066 44.9015 63.8829 48.1613C63.6591 49.5534 63.5673 50.6303 63.6027 51.4473C62.5319 52.0206 60.6161 52.731 57.4306 53.0066C56.9287 52.1703 56.0337 51.6561 55.0651 51.6561H53.2273C51.6992 51.6561 50.456 52.8993 50.456 54.4277C50.456 55.9561 51.6992 57.1993 53.2273 57.1993H55.0651C56.1461 57.1993 57.1177 56.5777 57.5733 55.6051C60.4705 55.3644 62.8619 54.7689 64.6844 53.8321C65.025 54.0602 65.4133 54.1802 65.8145 54.1802C66.041 54.1802 66.2653 54.1434 66.4808 54.071C67.9466 53.5827 71.0379 50.2417 71.2373 43.0279C71.4417 35.6411 68.9768 28.7512 64.4743 24.1226C60.6574 20.1986 55.6534 18.124 50.0034 18.124C44.3536 18.124 39.3496 20.1986 35.5324 24.1226C31.0302 28.7513 28.5651 35.6411 28.7696 43.0279C28.9691 50.2417 32.0604 53.5827 33.5265 54.071Z" fill="#FBAE3B"/>
<path d="M74.4955 75.0316C74.0276 72.4611 72.331 70.2754 69.9492 69.18L59.982 65.1071C58.3929 64.3772 57.366 62.7754 57.366 61.0265V60.2231L57.1033 60.314C56.434 60.5461 55.7472 60.663 55.0615 60.663H53.2238C49.7856 60.663 46.9884 57.8663 46.9884 54.4277C46.9884 50.99 49.7856 48.1932 53.2238 48.1932H55.0615C56.3446 48.1932 57.5772 48.5828 58.6261 49.3204L58.6924 49.3668L58.7721 49.3533C60.9665 48.9917 61.9777 48.4174 62.3606 48.1381L63.0161 47.1801C63.6577 45.118 63.9831 43.1816 63.9831 41.4251C63.9831 32.1242 58.1022 25.3735 49.9997 25.3735C41.8973 25.3735 36.0167 32.1243 36.0167 41.4251C36.0167 49.1212 42.2674 57.5511 42.3016 57.5811C42.5218 58.2202 42.6335 58.8862 42.6335 59.5591V61.0266C42.6335 62.7754 41.6065 64.3763 40.0252 65.1034L30.0428 69.1839C27.6675 70.2754 25.9706 72.4621 25.5016 75.0519L24.9727 81.8761H75.0273L74.4955 75.0316Z" fill="#1A976A"/>
</svg>
