<svg width="80" height="81" viewBox="0 0 80 81" fill="none" xmlns="http://www.w3.org/2000/svg">
<path d="M40 80.1357C62.0914 80.1357 80 62.2271 80 40.1357C80 18.0443 62.0914 0.135742 40 0.135742C17.9086 0.135742 0 18.0443 0 40.1357C0 62.2271 17.9086 80.1357 40 80.1357Z" fill="white"/>
<circle cx="24.2628" cy="26.3637" r="8.39171" fill="#FBAE3B"/>
<path d="M21.3606 29.8632V22.8642H21.809V29.8632H21.3606ZM22.5499 25.1744C22.528 24.9539 22.4342 24.7826 22.2683 24.6604C22.1025 24.5383 21.8774 24.4773 21.593 24.4773C21.3998 24.4773 21.2367 24.5046 21.1036 24.5593C20.9706 24.6121 20.8685 24.686 20.7974 24.7807C20.7282 24.8755 20.6936 24.983 20.6936 25.1033C20.6899 25.2036 20.7109 25.2911 20.7564 25.3658C20.8038 25.4405 20.8685 25.5052 20.9505 25.5599C21.0326 25.6128 21.1273 25.6592 21.2349 25.6993C21.3424 25.7376 21.4572 25.7704 21.5794 25.7978L22.0824 25.9181C22.3266 25.9727 22.5508 26.0456 22.755 26.1368C22.9591 26.2279 23.1359 26.34 23.2854 26.4731C23.4348 26.6061 23.5506 26.7629 23.6326 26.9433C23.7164 27.1237 23.7592 27.3306 23.7611 27.5639C23.7592 27.9066 23.6718 28.2037 23.4986 28.4552C23.3273 28.7049 23.0794 28.899 22.755 29.0375C22.4324 29.1742 22.0432 29.2426 21.5876 29.2426C21.1355 29.2426 20.7419 29.1733 20.4065 29.0348C20.0729 28.8963 19.8123 28.6912 19.6246 28.4196C19.4387 28.1463 19.3411 27.8081 19.332 27.4053H20.4776C20.4903 27.5931 20.5441 27.7498 20.6389 27.8756C20.7355 27.9995 20.864 28.0934 21.0244 28.1572C21.1866 28.2192 21.3698 28.2501 21.5739 28.2501C21.7744 28.2501 21.9484 28.221 22.0961 28.1627C22.2455 28.1043 22.3613 28.0232 22.4433 27.9193C22.5253 27.8154 22.5663 27.6961 22.5663 27.5612C22.5663 27.4354 22.529 27.3297 22.4542 27.244C22.3813 27.1584 22.2738 27.0855 22.1316 27.0253C21.9913 26.9652 21.819 26.9105 21.6149 26.8613L21.0052 26.7082C20.5332 26.5934 20.1604 26.4138 19.887 26.1696C19.6136 25.9254 19.4778 25.5964 19.4797 25.1826C19.4778 24.8436 19.5681 24.5474 19.7503 24.2941C19.9344 24.0407 20.1869 23.843 20.5076 23.7008C20.8284 23.5586 21.193 23.4876 21.6012 23.4876C22.0168 23.4876 22.3795 23.5586 22.6894 23.7008C23.001 23.843 23.2434 24.0407 23.4166 24.2941C23.5897 24.5474 23.679 24.8409 23.6845 25.1744H22.5499Z" fill="white"/>
<path d="M26.7981 29.8632V22.8642H27.2465V29.8632H26.7981ZM27.9874 25.1744C27.9655 24.9539 27.8717 24.7826 27.7058 24.6604C27.54 24.5383 27.3149 24.4773 27.0305 24.4773C26.8373 24.4773 26.6742 24.5046 26.5411 24.5593C26.4081 24.6121 26.306 24.686 26.2349 24.7807C26.1657 24.8755 26.1311 24.983 26.1311 25.1033C26.1274 25.2036 26.1484 25.2911 26.1939 25.3658C26.2413 25.4405 26.306 25.5052 26.388 25.5599C26.4701 25.6128 26.5648 25.6592 26.6724 25.6993C26.7799 25.7376 26.8947 25.7704 27.0169 25.7978L27.5199 25.9181C27.7641 25.9727 27.9883 26.0456 28.1925 26.1368C28.3966 26.2279 28.5734 26.34 28.7229 26.4731C28.8723 26.6061 28.9881 26.7629 29.0701 26.9433C29.1539 27.1237 29.1967 27.3306 29.1986 27.5639C29.1967 27.9066 29.1093 28.2037 28.9361 28.4552C28.7648 28.7049 28.5169 28.899 28.1925 29.0375C27.8699 29.1742 27.4807 29.2426 27.0251 29.2426C26.573 29.2426 26.1794 29.1733 25.844 29.0348C25.5104 28.8963 25.2498 28.6912 25.0621 28.4196C24.8762 28.1463 24.7786 27.8081 24.7695 27.4053H25.9151C25.9278 27.5931 25.9816 27.7498 26.0764 27.8756C26.173 27.9995 26.3015 28.0934 26.4619 28.1572C26.6241 28.2192 26.8073 28.2501 27.0114 28.2501C27.2119 28.2501 27.3859 28.221 27.5336 28.1627C27.683 28.1043 27.7988 28.0232 27.8808 27.9193C27.9628 27.8154 28.0038 27.6961 28.0038 27.5612C28.0038 27.4354 27.9665 27.3297 27.8917 27.244C27.8188 27.1584 27.7113 27.0855 27.5691 27.0253C27.4288 26.9652 27.2565 26.9105 27.0524 26.8613L26.4427 26.7082C25.9707 26.5934 25.5979 26.4138 25.3245 26.1696C25.0511 25.9254 24.9153 25.5964 24.9172 25.1826C24.9153 24.8436 25.0056 24.5474 25.1878 24.2941C25.3719 24.0407 25.6244 23.843 25.9451 23.7008C26.2659 23.5586 26.6305 23.4876 27.0387 23.4876C27.4543 23.4876 27.817 23.5586 28.1269 23.7008C28.4385 23.843 28.6809 24.0407 28.8541 24.2941C29.0272 24.5474 29.1165 24.8409 29.122 25.1744H27.9874Z" fill="white"/>
<rect x="26.457" y="31.1341" width="37.6724" height="29.5076" rx="4" fill="#FBAE3B"/>
<path d="M26.457 33.8208C26.457 32.337 27.6599 31.1341 29.1437 31.1341H61.4428C62.9266 31.1341 64.1295 32.337 64.1295 33.8208V38.5942H26.457V33.8208Z" fill="#1A976A"/>
<path d="M49.5082 34.8642C49.5082 35.7197 48.8147 36.4132 47.9592 36.4132C47.1037 36.4132 46.4102 35.7197 46.4102 34.8642C46.4102 34.0087 47.1037 33.3151 47.9592 33.3151C48.8147 33.3151 49.5082 34.0087 49.5082 34.8642Z" fill="white"/>
<path d="M54.5339 34.8642C54.5339 35.7197 53.8404 36.4132 52.9848 36.4132C52.1293 36.4132 51.4358 35.7197 51.4358 34.8642C51.4358 34.0087 52.1293 33.3151 52.9848 33.3151C53.8404 33.3151 54.5339 34.0087 54.5339 34.8642Z" fill="white"/>
<path d="M59.5582 34.8642C59.5582 35.7197 58.8646 36.4132 58.0091 36.4132C57.1536 36.4132 56.4601 35.7197 56.4601 34.8642C56.4601 34.0087 57.1536 33.3151 58.0091 33.3151C58.8646 33.3151 59.5582 34.0087 59.5582 34.8642Z" fill="white"/>
<path fill-rule="evenodd" clip-rule="evenodd" d="M43.4916 42.7021C43.4916 42.4057 43.7319 42.1654 44.0283 42.1654H46.5587C46.8551 42.1654 47.0954 42.4057 47.0954 42.7021V44.1076C47.2941 44.1786 47.4876 44.2606 47.675 44.353L48.6912 43.3369C48.9007 43.1273 49.2406 43.1273 49.4502 43.3369L51.2394 45.1261C51.449 45.3357 51.449 45.6756 51.2394 45.8852L50.2112 46.9134C50.3092 47.1171 50.395 47.3277 50.4678 47.5444H51.9644C52.2608 47.5444 52.5011 47.7847 52.5011 48.0811V50.6115C52.5011 50.9079 52.2608 51.1482 51.9644 51.1482H50.4357C50.3464 51.3992 50.2394 51.6418 50.1163 51.8745L51.1696 52.9279C51.3792 53.1375 51.3792 53.4773 51.1696 53.6869L49.3804 55.4762C49.1708 55.6858 48.831 55.6858 48.6214 55.4762L47.4824 54.3372C47.3558 54.3936 47.2268 54.4453 47.0954 54.4922V56.0439C47.0954 56.3403 46.8551 56.5806 46.5587 56.5806H44.0283C43.7319 56.5806 43.4916 56.3403 43.4916 56.0439V54.5283C43.3164 54.4697 43.145 54.4025 42.9781 54.3272L41.8962 55.4091C41.6866 55.6187 41.3468 55.6187 41.1372 55.4091L39.3479 53.6198C39.1383 53.4102 39.1383 53.0704 39.3479 52.8608L40.3553 51.8534C40.2456 51.6438 40.1489 51.4262 40.0664 51.2017H38.6226C38.3262 51.2017 38.0859 50.9615 38.0859 50.665V48.1347C38.0859 47.8382 38.3262 47.5979 38.6226 47.5979H39.9973C40.0924 47.3046 40.2115 47.022 40.3522 46.7525L39.418 45.8183C39.2084 45.6087 39.2084 45.2689 39.418 45.0593L41.2073 43.27C41.4169 43.0604 41.7567 43.0604 41.9663 43.27L42.9718 44.2755C43.1407 44.1991 43.3142 44.1309 43.4916 44.0716V42.7021ZM42.5007 47.0732L43.0146 46.5593C43.6088 46.0759 44.3632 45.7819 45.1859 45.7692H45.2969C47.2215 45.7989 48.7725 47.3683 48.7725 49.2999C48.7725 51.2501 47.1916 52.8311 45.2414 52.8311C43.2912 52.8311 41.7102 51.2501 41.7102 49.2999C41.7102 48.4557 42.0065 47.6807 42.5007 47.0732Z" fill="white"/>
</svg>
