<svg width="100" height="100" viewBox="0 0 100 100" fill="none" xmlns="http://www.w3.org/2000/svg">
<path d="M50 100C77.6142 100 100 77.6142 100 50C100 22.3858 77.6142 0 50 0C22.3858 0 0 22.3858 0 50C0 77.6142 22.3858 100 50 100Z" fill="white"/>
<mask id="mask0_7978_76122" style="mask-type:alpha" maskUnits="userSpaceOnUse" x="0" y="42" width="103" height="43">
<rect width="102.477" height="42.3613" transform="matrix(1 0 0 -1 0.265625 84.3721)" fill="#D9D9D9"/>
</mask>
<g mask="url(#mask0_7978_76122)">
<ellipse cx="50.6007" cy="48.8849" rx="6.87418" ry="6.87418" fill="#1A976A"/>
<circle cx="67.4065" cy="50.4924" r="6.37522" fill="#1A976A"/>
<circle cx="33.0862" cy="50.4924" r="6.37522" fill="#1A976A"/>
<path fill-rule="evenodd" clip-rule="evenodd" d="M39.4688 65.8241C39.4688 61.0251 43.3591 57.1348 48.1581 57.1348H52.344C57.143 57.1348 61.0333 61.0251 61.0333 65.8241V71.8168C61.0333 74.8724 59.4561 77.5596 57.0714 79.1088V99.6618H43.0703V78.8617C40.8884 77.2831 39.4688 74.7157 39.4688 71.8168V65.8241ZM52.0381 99.6615L50.2925 87.787L48.5469 99.6615H52.0381ZM53.0476 62.1339H47.7692V66.2384H43.665V71.5167H47.7692V75.6209H53.0476V71.5167H57.152V66.2384H53.0476V62.1339Z" fill="#1A976A"/>
<path fill-rule="evenodd" clip-rule="evenodd" d="M39.5772 59.686C38.0082 61.258 37.0381 63.4279 37.0381 65.8243V71.817C37.0381 74.1096 37.9259 76.1947 39.3764 77.7475C39.3284 77.7832 39.28 77.8185 39.2312 77.8533V97.2012H34.5689L32.9525 86.2053L31.336 97.2012H26.2656V77.6525H26.2961C24.2389 76.0634 22.9141 73.5723 22.9141 70.7718V66.5077C22.9141 61.7087 26.8044 57.8184 31.6034 57.8184H34.1944C36.2272 57.8184 38.0971 58.5165 39.5772 59.686Z" fill="#1A976A"/>
<path fill-rule="evenodd" clip-rule="evenodd" d="M60.9387 59.6858C62.5075 61.2577 63.4775 63.4275 63.4775 65.8239V71.8166C63.4775 74.1092 62.5896 76.1945 61.1389 77.7473C61.1871 77.7831 61.2356 77.8184 61.2844 77.8533V97.2009H65.9467L67.5632 86.205L69.1796 97.2009H74.25V77.6522H74.2199C76.2769 76.0631 77.6016 73.5722 77.6016 70.7718V66.5077C77.6016 61.7087 73.7112 57.8184 68.9122 57.8184H66.3213C64.2885 57.8184 62.4188 58.5164 60.9387 59.6858Z" fill="#1A976A"/>
</g>
<path fill-rule="evenodd" clip-rule="evenodd" d="M36.8875 26.8231C37.1237 19.3952 42.5278 12.9859 49.7205 12.9859H50.816C58.0086 12.9859 63.4127 19.3952 63.6489 26.8231H59.1298C58.9015 21.3539 54.9971 17.5025 50.816 17.5025H49.7205C45.5393 17.5025 41.6349 21.3539 41.4066 26.8231H36.8875ZM35.7891 27.5672V27.3301V26.8231H35.7967C36.0342 18.9334 41.7919 11.8955 49.7205 11.8955H50.816C58.7445 11.8955 64.5022 18.9334 64.7397 26.8231H64.7474V27.3301V27.5672V32.3256V33.416H63.657H59.1404H58.05V32.3256V27.5672V27.3301C58.05 22.073 54.4072 18.5929 50.816 18.5929H49.7205C46.1292 18.5929 42.4864 22.073 42.4864 27.3301V27.5672V32.3256V33.416H41.396H36.8795H35.7891V32.3256V27.5672ZM41.396 27.5672V32.3256H36.8795V27.5672H41.396ZM59.1404 27.5672V32.3256H63.657V27.5672H59.1404Z" fill="#FBAE3B"/>
<path d="M39.5568 35.9941L37.8125 38.1892H39.5568L37.8125 40.4404" stroke="#FBAE3B" stroke-width="1.25" stroke-linecap="round"/>
<path d="M61.674 35.9941L59.9297 38.1892H61.674L59.9297 40.4404" stroke="#FBAE3B" stroke-width="1.25" stroke-linecap="round"/>
<path d="M47.7683 62.1357H53.0466V75.6227H47.7683V62.1357Z" fill="#1A976A"/>
<path d="M57.1511 66.2402V71.5185L43.6641 71.5185L43.6641 66.2402L57.1511 66.2402Z" fill="#1A976A"/>
</svg>
