<svg width="80" height="81" viewBox="0 0 80 81" fill="none" xmlns="http://www.w3.org/2000/svg">
<path d="M40 80.1357C62.0914 80.1357 80 62.2271 80 40.1357C80 18.0443 62.0914 0.135742 40 0.135742C17.9086 0.135742 0 18.0443 0 40.1357C0 62.2271 17.9086 80.1357 40 80.1357Z" fill="white"/>
<circle cx="24.2628" cy="26.3637" r="8.39171" fill="#1A976A"/>
<path d="M24.014 31.0443V21.6831H24.6137V31.0443H24.014ZM25.6047 24.773C25.5754 24.4781 25.4499 24.2489 25.2281 24.0856C25.0062 23.9222 24.7052 23.8406 24.3249 23.8406C24.0665 23.8406 23.8483 23.8771 23.6703 23.9503C23.4924 24.021 23.3558 24.1197 23.2608 24.2465C23.1681 24.3732 23.1218 24.5171 23.1218 24.678C23.1169 24.812 23.145 24.9291 23.2059 25.029C23.2693 25.129 23.3558 25.2155 23.4655 25.2886C23.5752 25.3593 23.702 25.4215 23.8458 25.4751C23.9897 25.5263 24.1432 25.5702 24.3066 25.6068L24.9794 25.7677C25.3061 25.8408 25.6059 25.9383 25.879 26.0602C26.152 26.1821 26.3885 26.332 26.5884 26.51C26.7883 26.6879 26.9431 26.8976 27.0528 27.1389C27.1649 27.3803 27.2222 27.6569 27.2246 27.969C27.2222 28.4273 27.1052 28.8246 26.8736 29.1611C26.6444 29.495 26.3129 29.7547 25.879 29.9399C25.4475 30.1228 24.927 30.2142 24.3175 30.2142C23.713 30.2142 23.1864 30.1216 22.7379 29.9363C22.2917 29.751 21.9431 29.4768 21.692 29.1135C21.4434 28.7479 21.313 28.2956 21.3008 27.7569H22.8329C22.85 28.008 22.9219 28.2176 23.0487 28.3858C23.1779 28.5516 23.3497 28.6772 23.5643 28.7625C23.7812 28.8454 24.0262 28.8868 24.2993 28.8868C24.5674 28.8868 24.8002 28.8478 24.9977 28.7698C25.1976 28.6918 25.3524 28.5833 25.4621 28.4443C25.5718 28.3054 25.6266 28.1457 25.6266 27.9653C25.6266 27.7971 25.5767 27.6557 25.4767 27.5411C25.3792 27.4266 25.2354 27.3291 25.0452 27.2486C24.8575 27.1682 24.6271 27.095 24.3541 27.0292L23.5387 26.8244C22.9073 26.6709 22.4088 26.4307 22.0431 26.1041C21.6774 25.7774 21.4958 25.3374 21.4982 24.784C21.4958 24.3306 21.6165 23.9344 21.8603 23.5956C22.1065 23.2567 22.4441 22.9922 22.8732 22.8021C23.3022 22.6119 23.7898 22.5169 24.3358 22.5169C24.8916 22.5169 25.3768 22.6119 25.7912 22.8021C26.2081 22.9922 26.5323 23.2567 26.7639 23.5956C26.9955 23.9344 27.1149 24.3269 27.1222 24.773H25.6047Z" fill="white"/>
<rect x="26.457" y="31.1341" width="37.6724" height="29.5076" rx="4" fill="#1A976A"/>
<path d="M26.457 33.8208C26.457 32.337 27.6599 31.1341 29.1437 31.1341H61.4428C62.9266 31.1341 64.1295 32.337 64.1295 33.8208V38.5942H26.457V33.8208Z" fill="#FBAE3B"/>
<path d="M49.5082 34.8642C49.5082 35.7197 48.8147 36.4132 47.9592 36.4132C47.1037 36.4132 46.4102 35.7197 46.4102 34.8642C46.4102 34.0087 47.1037 33.3151 47.9592 33.3151C48.8147 33.3151 49.5082 34.0087 49.5082 34.8642Z" fill="white"/>
<path d="M54.5339 34.8642C54.5339 35.7197 53.8404 36.4132 52.9848 36.4132C52.1293 36.4132 51.4358 35.7197 51.4358 34.8642C51.4358 34.0087 52.1293 33.3151 52.9848 33.3151C53.8404 33.3151 54.5339 34.0087 54.5339 34.8642Z" fill="white"/>
<path d="M59.5582 34.8642C59.5582 35.7197 58.8646 36.4132 58.0091 36.4132C57.1536 36.4132 56.4601 35.7197 56.4601 34.8642C56.4601 34.0087 57.1536 33.3151 58.0091 33.3151C58.8646 33.3151 59.5582 34.0087 59.5582 34.8642Z" fill="white"/>
</svg>
