<?xml version="1.0" encoding="UTF-8"?>
<svg xmlns="http://www.w3.org/2000/svg" width="143" height="45" viewBox="0 0 143 45" fill="none">
  <path d="M21.4471 1.1962C21.4471 1.73681 21.8058 2.19351 22.2983 2.34167V17.1166L22.6549 17.7608L22.9884 17.1166V2.34167C23.4807 2.19351 23.8397 1.73681 23.8397 1.1962C23.8397 0.535567 23.3039 2.94158e-07 22.6435 2.94158e-07C21.9826 2.94158e-07 21.4471 0.535567 21.4471 1.1962ZM24.9924 3.95023C24.9924 4.38384 25.2805 4.75026 25.6756 4.86895V15.0001L26.2281 14.1719V4.86895C26.623 4.75026 26.9113 4.38384 26.9113 3.95023C26.9113 3.42051 26.4817 2.99062 25.9517 2.99062C25.422 2.99062 24.9924 3.42051 24.9924 3.95023ZM18.5494 6.43741C18.5494 6.76931 18.7581 7.05237 19.051 7.16362V14.7242L19.6032 15.276V7.16362C19.8961 7.05237 20.1048 6.76931 20.1048 6.43741C20.1048 6.00779 19.7567 5.65969 19.3271 5.65969C18.8975 5.65969 18.5494 6.00779 18.5494 6.43741ZM29.8162 10.8757C29.8162 11.0716 29.8645 11.2564 29.9479 11.4197L22.9303 18.4376L23.4504 18.958L30.4686 11.9402C30.6319 12.0238 30.8164 12.0719 31.0126 12.0719C31.6732 12.0719 32.2088 11.5363 32.2088 10.8757C32.2088 10.2148 31.6732 9.67948 31.0126 9.67948C30.3517 9.67948 29.8162 10.2148 29.8162 10.8757ZM12.6074 10.8757C12.6074 11.5363 13.143 12.0719 13.8039 12.0719C14.0139 12.0719 14.2109 12.0174 14.3825 11.9224L21.7126 19.3359L24.4958 22.0883L25.0136 21.565L22.233 18.8152L14.8856 11.3839C14.9584 11.2296 15.0001 11.0578 15.0001 10.8757C15.0001 10.2148 14.4645 9.67948 13.8039 9.67948C13.143 9.67948 12.6074 10.2148 12.6074 10.8757ZM33.1291 13.6363C33.1291 13.8567 33.1897 14.0622 33.2938 14.2396L22.9303 24.6034L23.4504 25.1238L33.8434 14.7308C33.9908 14.7959 34.1538 14.8328 34.3253 14.8328C34.9862 14.8328 35.5215 14.297 35.5215 13.6363C35.5215 12.9757 34.9862 12.4399 34.3253 12.4399C33.6647 12.4399 33.1291 12.9757 33.1291 13.6363ZM9.57061 13.8206C9.57061 14.481 10.1062 15.0168 10.7668 15.0168C10.9569 15.0168 11.1359 14.9714 11.2952 14.8926L18.2355 21.9016L18.7586 21.3836L11.8241 14.3801C11.9128 14.2128 11.9633 14.0227 11.9633 13.8206C11.9633 13.1597 11.4277 12.6242 10.7668 12.6242C10.1062 12.6242 9.57061 13.1597 9.57061 13.8206ZM37.6526 19.0509H30.0923L29.54 19.603H37.6526C37.7639 19.8961 38.0467 20.1048 38.3788 20.1048C38.8085 20.1048 39.1568 19.7567 39.1568 19.3268C39.1568 18.8975 38.8085 18.5494 38.3788 18.5494C38.0467 18.5494 37.7639 18.7581 37.6526 19.0509ZM5.65968 19.3268C5.65968 19.7567 6.00779 20.1048 6.43741 20.1048C6.76958 20.1048 7.05237 19.8961 7.16389 19.603H15.2762L14.7242 19.0509H7.16389C7.05237 18.7581 6.76958 18.5494 6.43741 18.5494C6.00779 18.5494 5.65968 18.8975 5.65968 19.3268ZM11.4954 29.8722C10.9102 29.5732 10.1927 29.8016 9.88924 30.3857C9.58468 30.972 9.81357 31.6942 10.3998 31.9988C10.9861 32.3031 11.7084 32.0747 12.0127 31.4884C12.198 31.1321 12.185 30.7259 12.0156 30.3934L21.7022 20.7065L21.1815 20.1861L11.4954 29.8722ZM42.4746 22.2981H27.6997L27.0552 22.6549L27.6997 22.9884H42.4746C42.6227 23.4807 43.0792 23.8397 43.6198 23.8397C44.2804 23.8397 44.8163 23.3039 44.8163 22.6435C44.8163 21.9826 44.2804 21.4471 43.6198 21.4471C43.0792 21.4471 42.6227 21.8058 42.4746 22.2981ZM0 22.6435C0 23.3039 0.535828 23.8397 1.19619 23.8397C1.73707 23.8397 2.19351 23.4807 2.34167 22.9884H17.1166L17.761 22.6549L17.1166 22.2981H2.34167C2.19351 21.8058 1.73707 21.4471 1.19619 21.4471C0.535828 21.4471 0 21.9826 0 22.6435ZM26.0587 23.6515L33.0768 30.669C32.9932 30.8326 32.9449 31.0171 32.9449 31.2134C32.9449 31.8737 33.4807 32.4096 34.1413 32.4096C34.8019 32.4096 35.3378 31.8737 35.3378 31.2134C35.3378 30.5525 34.8019 30.0169 34.1413 30.0169C33.9451 30.0169 33.7608 30.065 33.5973 30.1486L26.5797 23.1308L26.0587 23.6515ZM19.9853 23.6515L30.1319 33.798C30.0482 33.9613 30.0002 34.1458 30.0002 34.3421C30.0002 35.0027 30.5357 35.5383 31.1966 35.5383C31.8573 35.5383 32.3928 35.0027 32.3928 34.3421C32.3928 33.6814 31.8573 33.1456 31.1966 33.1456C31.0004 33.1456 30.8159 33.1939 30.6523 33.2776L20.5058 23.1308L19.9853 23.6515ZM39.9473 25.6758H29.8162L30.6443 26.2279H39.9473C40.0657 26.623 40.4324 26.911 40.866 26.911C41.396 26.911 41.8256 26.4817 41.8256 25.9517C41.8256 25.4217 41.396 24.9924 40.866 24.9924C40.4324 24.9924 40.0657 25.2805 39.9473 25.6758ZM2.99088 25.9517C2.99088 26.4817 3.4205 26.911 3.95023 26.911C4.3841 26.911 4.75026 26.623 4.86895 26.2279H14.1719L15.0001 25.6758H4.86895C4.75026 25.2805 4.3841 24.9924 3.95023 24.9924C3.4205 24.9924 2.99088 25.4217 2.99088 25.9517ZM14.4353 33.0057C13.8525 32.716 13.1425 32.9449 12.8414 33.5248C12.5371 34.1113 12.7654 34.8335 13.352 35.1378C13.9382 35.4424 14.6605 35.2138 14.9648 34.6275C15.1522 34.2669 15.1371 33.8551 14.9619 33.5205L21.9781 26.504L21.4577 25.9836L14.4353 33.0057ZM22.2983 27.8837V42.6586C21.8058 42.8068 21.4471 43.2629 21.4471 43.8038C21.4471 44.4647 21.9826 45 22.6435 45C23.3039 45 23.8397 44.4647 23.8397 43.8038C23.8397 43.2629 23.4807 42.8068 22.9884 42.6586V27.8837L22.6549 27.2392L22.2983 27.8837ZM19.051 30.2763V37.8364C18.7581 37.9479 18.5494 38.2304 18.5494 38.5629C18.5494 38.9922 18.8975 39.3406 19.3271 39.3406C19.7567 39.3406 20.1048 38.9922 20.1048 38.5629C20.1048 38.2304 19.8961 37.9479 19.6032 37.8364V29.724L19.051 30.2763ZM25.6756 40.1313C25.2805 40.25 24.9924 40.6162 24.9924 41.0498C24.9924 41.5798 25.422 42.0094 25.9517 42.0094C26.4817 42.0094 26.9113 41.5798 26.9113 41.0498C26.9113 40.6162 26.623 40.25 26.2281 40.1313V30.8284L25.6756 30.0002V40.1313Z" fill="white"></path>
  <circle cx="22" cy="22" r="6" fill="white"></circle>
</svg>
