<?xml version="1.0" encoding="UTF-8"?>
<svg xmlns="http://www.w3.org/2000/svg" width="278" height="120" viewBox="0 0 278 120" fill="none">
  <path d="M138.701 30L111.087 76.6614H116.061L118.516 72.4877L121.785 66.9318L138.701 38.3473L146.758 51.96L149.548 56.6739L158.906 72.4861H154.051L143.592 54.7573L141.031 59.001L149.108 72.4877H128.703L137.035 58.4629L138.884 55.4181L141.468 51.1632L138.951 46.8921L136.378 51.2315L135.972 51.9186V51.9234L134.562 54.2968L123.759 72.4877L121.28 76.6614H166.315L154.488 56.6755L151.698 51.9616L138.701 30Z" fill="#BD0204"></path>
  <path d="M178.649 88.7923L178.606 88.7439L178.979 88.0062L179.069 88.0966C179.687 88.6326 180.479 88.9227 181.297 88.9121C182.424 88.9121 183.073 88.4976 183.073 87.7761C183.073 86.969 182.225 86.7597 181.243 86.5203C180.097 86.2415 178.796 85.9249 178.796 84.471C178.796 83.5025 179.492 82.4712 181.447 82.4712C182.229 82.4611 182.997 82.6818 183.654 83.1059L183.715 83.148L183.395 83.9046L183.304 83.8437C182.749 83.4861 182.105 83.2919 181.445 83.2835C180.355 83.2835 179.704 83.7209 179.704 84.4521C179.704 85.2646 180.556 85.4716 181.546 85.7142C182.689 85.9929 183.981 86.306 183.981 87.7372C183.981 88.6954 183.275 89.7244 181.297 89.7244C180.329 89.7539 179.385 89.4217 178.649 88.7923ZM150.306 86.102C150.283 85.3575 150.483 84.6234 150.879 83.9929C151.276 83.3624 151.853 82.864 152.534 82.5626C153.215 82.2613 153.97 82.1703 154.704 82.301C155.437 82.4316 156.115 82.7781 156.651 83.2962C157.186 83.8142 157.555 84.4801 157.709 85.2088C157.864 85.9374 157.797 86.6956 157.518 87.3862C157.239 88.0768 156.76 88.6686 156.143 89.0855C155.525 89.5023 154.797 89.7256 154.052 89.7265C153.565 89.7454 153.08 89.6651 152.624 89.4911C152.169 89.3171 151.754 89.0524 151.404 88.7134C151.054 88.3745 150.776 87.9689 150.587 87.5196C150.398 87.0704 150.303 86.5871 150.306 86.0999V86.102ZM151.216 86.102C151.208 86.6619 151.368 87.211 151.673 87.6804C151.978 88.1498 152.416 88.5187 152.931 88.7387C153.446 88.9587 154.016 89.0201 154.566 88.9163C155.116 88.8124 155.624 88.548 156.023 88.1554C156.423 87.7629 156.696 87.2599 156.809 86.7115C156.923 86.1631 156.87 85.594 156.659 85.0753C156.448 84.5566 156.088 84.1119 155.624 83.7985C155.159 83.4851 154.612 83.3171 154.052 83.3151C153.679 83.2987 153.308 83.3592 152.96 83.4927C152.612 83.6262 152.294 83.8294 152.028 84.0906C151.762 84.3518 151.553 84.6656 151.413 85.0112C151.274 85.3568 151.206 85.7272 151.216 86.0999V86.102ZM117.215 86.102C117.191 85.3575 117.391 84.6234 117.788 83.9929C118.184 83.3624 118.76 82.864 119.441 82.5626C120.123 82.2613 120.878 82.1703 121.612 82.301C122.345 82.4316 123.023 82.7781 123.559 83.2962C124.094 83.8142 124.463 84.4801 124.617 85.2088C124.772 85.9374 124.705 86.6956 124.426 87.3862C124.147 88.0768 123.667 88.6686 123.05 89.0855C122.433 89.5023 121.705 89.7256 120.96 89.7265C120.473 89.7453 119.988 89.6652 119.533 89.4911C119.077 89.317 118.662 89.0524 118.312 88.7134C117.962 88.3745 117.684 87.9678 117.495 87.5186C117.307 87.0694 117.211 86.5871 117.215 86.0999V86.102ZM118.124 86.102C118.116 86.6621 118.275 87.2119 118.58 87.6815C118.886 88.151 119.324 88.5186 119.84 88.7387C120.355 88.9588 120.924 89.0212 121.474 88.9173C122.025 88.8135 122.533 88.5491 122.932 88.1565C123.332 87.7638 123.605 87.2611 123.719 86.7126C123.832 86.164 123.78 85.5941 123.568 85.0753C123.357 84.5565 122.996 84.1119 122.532 83.7985C122.067 83.4851 121.52 83.317 120.96 83.3151C120.588 83.2989 120.216 83.3591 119.868 83.4927C119.52 83.6263 119.204 83.8305 118.938 84.0917C118.672 84.3529 118.462 84.6657 118.323 85.0112C118.183 85.3567 118.115 85.7273 118.125 86.0999L118.124 86.102ZM175.439 89.6676L172.64 86.4446L171.316 87.7897V89.6697H170.397V82.5374H171.316V86.5991L175.266 82.5374H176.367L173.265 85.7804L176.558 89.6697L175.439 89.6676ZM166.024 89.6676L164.438 87.4377C164.268 87.4552 164.098 87.464 163.927 87.4639H162.156V89.6697H161.233V86.6537H163.907C165.218 86.6537 165.94 86.0717 165.94 85.0101C165.94 83.9287 165.241 83.3561 163.907 83.3561H161.233V82.5374H163.928C165.737 82.5374 166.861 83.4863 166.861 85.0133C166.886 85.502 166.749 85.9847 166.471 86.3878C166.194 86.791 165.792 87.0917 165.326 87.2433L167.056 89.6729L166.024 89.6676ZM144.569 89.6676L142.598 83.9361L140.619 89.6676H139.723L137.316 82.5353H138.269L140.206 88.3152L142.213 82.5353H143.03L145.008 88.3414L146.977 82.5353H147.88L145.47 89.6676H144.569ZM113.459 89.6676L111.872 87.4377C111.702 87.4553 111.531 87.464 111.36 87.4639H109.587V89.6697H108.667V86.6537H111.342C112.654 86.6537 113.374 86.0717 113.374 85.0101C113.374 83.9287 112.67 83.3561 111.342 83.3561H108.667V82.5374H111.358C113.168 82.5374 114.292 83.4863 114.292 85.0133C114.316 85.5019 114.18 85.9848 113.902 86.3878C113.625 86.7909 113.223 87.0913 112.757 87.2433L114.486 89.6729L113.459 89.6676ZM103.536 89.6676V82.6415H104.443V89.6676H103.536ZM99.7137 89.6676L98.8926 87.8381L98.5447 87.0678L97.0425 83.7091L95.5403 87.0678L95.1944 87.8381L94.3713 89.6676H93.4199L96.6314 82.6415H97.464L100.679 89.6676H99.7137ZM133.389 89.6645L133.363 89.6298L129.06 84.202V89.6645H128.14V82.5353H128.885L128.911 82.57L133.223 87.9978V82.5353H134.133V89.6645H133.389Z" fill="white"></path>
</svg>
