<?xml version="1.0" encoding="UTF-8"?>
<svg xmlns="http://www.w3.org/2000/svg" width="140" height="94" viewBox="0 0 140 94" fill="none">
  <mask id="mask0_4547_8789" style="mask-type:luminance" maskUnits="userSpaceOnUse" x="9" y="6" width="120" height="79">
    <path d="M129 6.49438H9.87695V84.8197H129V6.49438Z" fill="white"></path>
  </mask>
  <g mask="url(#mask0_4547_8789)">
    <path d="M69.5361 14.1106L40.5297 63.1238H45.7548L48.3334 58.7398L51.7668 52.9038L69.5361 22.8786L77.9989 37.1774L80.9293 42.1289L90.7586 58.7381H85.6596L74.6729 40.1157L71.9836 44.5733L80.4667 58.7398H59.034L67.7852 44.0081L69.7282 40.8097L72.4421 36.3404L69.7984 31.8541L67.0959 36.4122L66.6685 37.1338V37.139L65.1879 39.632L53.8405 58.7398L51.2365 63.1238H98.5418L86.1181 42.1306L83.1878 37.1791L69.5361 14.1106Z" fill="#9FA0A3"></path>
    <path d="M111.496 75.8663L111.451 75.8154L111.843 75.0406L111.938 75.1356C112.586 75.6985 113.419 76.0032 114.278 75.9922C115.462 75.9922 116.144 75.5568 116.144 74.7989C116.144 73.9511 115.253 73.7312 114.222 73.4797C113.018 73.1871 111.651 72.8543 111.651 71.3272C111.651 70.31 112.382 69.2266 114.436 69.2266C115.257 69.216 116.063 69.4477 116.754 69.8933L116.818 69.9375L116.482 70.7323L116.386 70.6683C115.803 70.2926 115.127 70.0887 114.434 70.0799C113.289 70.0799 112.605 70.5393 112.605 71.3074C112.605 72.1608 113.499 72.3782 114.54 72.6331C115.74 72.9259 117.097 73.2547 117.097 74.758C117.097 75.7646 116.356 76.8454 114.278 76.8454C113.261 76.8764 112.269 76.5274 111.496 75.8663ZM81.7256 73.0404C81.701 72.2585 81.9107 71.4873 82.3273 70.825C82.7441 70.1628 83.3496 69.6392 84.0653 69.3227C84.7811 69.0062 85.574 68.9105 86.3445 69.0478C87.115 69.185 87.8272 69.549 88.3895 70.0932C88.9518 70.6372 89.3392 71.3369 89.5014 72.1022C89.6637 72.8675 89.5936 73.6639 89.3004 74.3893C89.0073 75.1147 88.5047 75.7363 87.8562 76.1742C87.2075 76.6121 86.4425 76.8467 85.6598 76.8475C85.1482 76.8674 84.6385 76.7831 84.1603 76.6004C83.6822 76.4175 83.2461 76.1395 82.8784 75.7835C82.5106 75.4274 82.2185 75.0014 82.0203 74.5295C81.8222 74.0575 81.7221 73.55 81.7256 73.0382V73.0404ZM82.6806 73.0404C82.6728 73.6286 82.8401 74.2054 83.161 74.6984C83.4819 75.1914 83.9417 75.5789 84.4828 75.81C85.0239 76.0411 85.6216 76.1056 86.1998 75.9965C86.778 75.8874 87.3106 75.6097 87.7303 75.1973C88.1498 74.785 88.4372 74.2567 88.5562 73.6807C88.6753 73.1046 88.6201 72.5067 88.3983 71.962C88.1764 71.4171 87.7982 70.9499 87.3106 70.6208C86.8231 70.2916 86.2483 70.1152 85.6598 70.1131C85.2685 70.0958 84.8782 70.1594 84.5126 70.2996C84.1468 70.4398 83.8137 70.6533 83.5343 70.9277C83.2548 71.202 83.0351 71.5317 82.8883 71.8946C82.7414 72.2576 82.6705 72.6468 82.6806 73.0382V73.0404ZM46.9658 73.0404C46.9413 72.2585 47.1509 71.4873 47.5677 70.825C47.9843 70.1628 48.5888 69.6392 49.3046 69.3227C50.0203 69.0062 50.8143 68.9105 51.5848 69.0478C52.3553 69.185 53.0674 69.549 53.6298 70.0932C54.1921 70.6372 54.5794 71.3369 54.7417 72.1022C54.904 72.8675 54.834 73.6639 54.5408 74.3893C54.2477 75.1147 53.7439 75.7363 53.0954 76.1742C52.4468 76.6121 51.6829 76.8467 50.9002 76.8475C50.3886 76.8674 49.8787 76.7831 49.4006 76.6004C48.9225 76.4175 48.4863 76.1395 48.1186 75.7835C47.751 75.4274 47.4587 75.0003 47.2607 74.5283C47.0625 74.0566 46.9624 73.5499 46.9658 73.0382V73.0404ZM47.921 73.0404C47.9129 73.6287 48.0794 74.2063 48.4002 74.6995C48.721 75.1927 49.1819 75.5788 49.723 75.81C50.2643 76.0412 50.8618 76.1067 51.4402 75.9976C52.0185 75.8885 52.5519 75.6108 52.9716 75.1984C53.3915 74.786 53.6785 74.2579 53.7976 73.6818C53.9168 73.1055 53.8617 72.5069 53.6398 71.962C53.4178 71.4171 53.0387 70.9501 52.551 70.6208C52.0632 70.2916 51.4888 70.1152 50.9002 70.1131C50.5089 70.0961 50.1185 70.1593 49.7528 70.2996C49.3873 70.4399 49.055 70.6545 48.7756 70.9288C48.4963 71.2031 48.2765 71.5317 48.1296 71.8946C47.9829 72.2575 47.912 72.6469 47.9221 73.0382L47.921 73.0404ZM108.125 76.7858L105.185 73.4003L103.794 74.8132V76.788H102.828V69.2962H103.794V73.5625L107.943 69.2962H109.099L105.842 72.7027L109.3 76.788L108.125 76.7858ZM98.2357 76.7858L96.5695 74.4433C96.3913 74.4618 96.212 74.4711 96.0329 74.4711H94.1722V76.788H93.2027V73.6199H96.0119C97.3891 73.6199 98.1475 73.0086 98.1475 71.8935C98.1475 70.7575 97.4123 70.156 96.0119 70.156H93.2027V69.2962H96.034C97.9341 69.2962 99.1148 70.2929 99.1148 71.8969C99.1408 72.4101 98.9966 72.9172 98.7051 73.3407C98.4136 73.7642 97.9915 74.0801 97.5026 74.2392L99.3191 76.7912L98.2357 76.7858ZM75.6987 76.7858L73.6284 70.7654L71.5502 76.7858H70.6083L68.0807 69.294H69.0812L71.1162 75.3651L73.2242 69.294H74.0821L76.1603 75.3927L78.2285 69.294H79.177L76.6451 76.7858H75.6987ZM43.0205 76.7858L41.3541 74.4433C41.1756 74.4618 40.9961 74.4711 40.8164 74.4711H38.9536V76.788H37.9875V73.6199H40.7976C42.1749 73.6199 42.9321 73.0086 42.9321 71.8935C42.9321 70.7575 42.1918 70.156 40.7976 70.156H37.9875V69.2962H40.8143C42.7156 69.2962 43.8961 70.2929 43.8961 71.8969C43.9216 72.4101 43.7778 72.9173 43.4865 73.3407C43.1951 73.764 42.7726 74.0797 42.284 74.2392L44.0993 76.7912L43.0205 76.7858ZM32.5977 76.7858V69.4054H33.5507V76.7858H32.5977ZM28.5828 76.7858L27.7204 74.864L27.3549 74.0549L25.777 70.527L24.1991 74.0549L23.8358 74.864L22.9712 76.7858H21.9719L25.3453 69.4054H26.2198L29.5965 76.7858H28.5828ZM63.9553 76.7824L63.9277 76.746L59.4081 71.0447V76.7824H58.442V69.294H59.2249L59.2514 69.3304L63.7808 75.0318V69.294H64.7371V76.7824H63.9553Z" fill="#9FA0A3"></path>
  </g>
</svg>
