<?xml version="1.0" encoding="UTF-8"?>
<svg xmlns="http://www.w3.org/2000/svg" width="162" height="45" viewBox="0 0 162 45" fill="none">
  <mask id="mask0_913_61" style="mask-type:luminance" maskUnits="userSpaceOnUse" x="0" y="4" width="161" height="37">
    <path d="M160.736 4.89111H0V40.1085H160.736V4.89111Z" fill="white"></path>
  </mask>
  <g mask="url(#mask0_913_61)">
    <mask id="mask1_913_61" style="mask-type:luminance" maskUnits="userSpaceOnUse" x="0" y="4" width="161" height="37">
      <path d="M160.736 4.89111H0V40.1085H160.736V4.89111Z" fill="white"></path>
    </mask>
    <g mask="url(#mask1_913_61)">
      <path d="M12.2956 15.759L9.20456 24.7009H15.4553L12.2956 15.759ZM1.57988 35.7063L10.5783 10.669H14.1502L23.1487 35.7063H19.3021L16.6918 28.2776H7.9681L5.49524 35.2248L5.35786 35.7063H1.57988ZM0 40.1085H24.3164V4.89111H0V40.1085ZM25.0034 40.1085H27.6136V4.89111H25.0034V40.1085ZM44.7863 29.9972C46.2974 28.484 47.053 26.2829 47.053 23.2564C47.053 21.812 46.7783 20.4363 46.2974 19.1982C45.7479 17.9601 45.0609 16.9971 44.0993 16.1717C43.4124 15.5526 42.6569 15.14 41.7638 14.8648C40.8709 14.6585 39.497 14.5209 37.7798 14.5209H34.1392V32.3359H38.3293C41.2143 32.3359 43.275 31.5793 44.7863 29.9972ZM50.7623 23.3939C50.7623 25.5264 50.3501 27.5898 49.4572 29.3783C48.6329 31.1666 47.3964 32.6798 45.7479 33.7804C44.7175 34.537 43.5497 35.0873 42.3133 35.3624C41.077 35.7063 39.2222 35.8439 36.818 35.8439H30.4987V11.6319V11.0129H37.8485C39.7031 11.0129 41.3517 11.2192 42.6569 11.5631C43.962 11.9759 45.1984 12.5949 46.2287 13.4203C47.6712 14.5896 48.7702 16.1029 49.5258 17.8225C50.3501 19.5421 50.7623 21.3993 50.7623 23.3939ZM52.6169 4.89111H28.3005V40.1085H52.6169V4.89111Z" fill="white"></path>
      <path d="M73.4284 15.4149L72.6728 12.7323C72.4666 11.9758 72.1919 11.0815 72.0545 10.3249H71.9858C71.7797 11.0815 71.6424 12.0445 71.4363 12.7323L70.6807 15.4149H73.4284ZM70.2686 17.5472L69.3755 20.7801H66.4219L70.2686 8.19263H73.9779L77.8933 20.7801H74.8708L73.9091 17.5472H70.2686Z" fill="white"></path>
      <path d="M79.4084 14.5209C79.4084 13.3514 79.3398 12.3885 79.3398 11.6319H81.744L81.8814 12.87H81.95C82.3622 12.3197 83.1178 11.4255 84.6977 11.4255C85.8654 11.4255 86.8271 12.0446 87.1705 13.0076H87.2392C87.5827 12.5261 87.9948 12.1821 88.407 11.907C88.8878 11.6319 89.506 11.4255 90.1242 11.4255C91.9103 11.4255 93.2151 12.6636 93.2151 15.415V20.7802H90.4673V15.8277C90.4673 14.5209 90.0555 13.7642 89.0939 13.7642C88.407 13.7642 87.9948 14.2457 87.7888 14.7272C87.72 14.9335 87.6514 15.2087 87.6514 15.4839V20.8489H84.9037V15.6902C84.9037 14.5209 84.4916 13.7642 83.5986 13.7642C82.8431 13.7642 82.431 14.3144 82.2935 14.7959C82.2248 15.0024 82.1562 15.2774 82.1562 15.4839V20.8489H79.4084V14.5209Z" fill="white"></path>
      <path d="M100.356 16.4467C98.8454 16.4467 97.6775 16.7905 97.6775 17.8912C97.6775 18.6478 98.1577 18.9916 98.7769 18.9916C99.4627 18.9916 100.081 18.5101 100.287 17.96C100.356 17.8223 100.356 17.616 100.356 17.4785V16.4467ZM103.104 18.5101C103.104 19.4045 103.172 20.2298 103.241 20.7112H100.7L100.562 19.8171H100.493C99.8755 20.5738 98.9823 20.9176 97.8837 20.9176C96.0287 20.9176 94.9297 19.542 94.9297 18.0975C94.9297 15.6901 97.059 14.5895 100.287 14.5895V14.5208C100.287 14.0393 100.012 13.3514 98.639 13.3514C97.6775 13.3514 96.7159 13.6953 96.0973 14.0393L95.5482 12.182C96.1659 11.8382 97.4021 11.3567 99.1193 11.3567C102.142 11.3567 103.172 13.145 103.172 15.2774V18.5101H103.104Z" fill="white"></path>
      <path d="M104.615 19.1293L107.501 15.4838C108.051 14.8647 108.463 14.3832 108.944 13.8329H104.891V11.6318H112.378V13.3514L109.63 16.7906C109.15 17.4097 108.668 17.96 108.119 18.4415V18.5102H112.515V20.7801H104.547V19.1293H104.615Z" fill="white"></path>
      <path d="M114.095 11.632H116.911V20.7803H114.095V11.632ZM117.048 9.08703C117.048 9.84367 116.43 10.5315 115.537 10.5315C114.644 10.5315 114.026 9.91244 114.095 9.08703C114.095 8.26163 114.644 7.64258 115.606 7.64258C116.43 7.64258 117.048 8.26163 117.048 9.08703Z" fill="white"></path>
      <path d="M119.248 14.5209C119.248 13.3514 119.18 12.3885 119.18 11.6319H121.652L121.789 12.87H121.858C122.202 12.3197 123.162 11.4255 124.675 11.4255C126.529 11.4255 127.971 12.6636 127.971 15.3462V20.7802H125.155V15.6902C125.155 14.5209 124.743 13.6954 123.713 13.6954C122.957 13.6954 122.476 14.2457 122.27 14.7959C122.202 15.0024 122.132 15.2774 122.132 15.4839V20.7802H119.317V14.5209H119.248Z" fill="white"></path>
      <path d="M136.006 15.3461C136.006 15.1398 136.006 15.0023 135.938 14.7959C135.732 14.0393 135.182 13.5578 134.427 13.5578C133.397 13.5578 132.572 14.5208 132.572 16.1716C132.572 17.5472 133.259 18.579 134.427 18.579C135.182 18.579 135.732 18.0975 135.938 17.4097C136.006 17.2034 136.006 16.9282 136.006 16.653V15.3461ZM138.822 19.4045C138.822 21.1927 138.48 22.6372 137.449 23.5314C136.419 24.4256 135.045 24.632 133.739 24.632C132.572 24.632 131.267 24.3568 130.443 23.9442L130.992 21.8119C131.542 22.1557 132.572 22.4997 133.671 22.4997C135.045 22.4997 136.076 21.7431 136.076 20.0923V19.4731H136.006C135.457 20.2298 134.564 20.6425 133.534 20.6425C131.267 20.6425 129.688 18.7853 129.688 16.1716C129.688 13.2138 131.611 11.3567 133.808 11.3567C135.045 11.3567 135.869 11.907 136.282 12.6635H136.35L136.419 11.563H138.891C138.822 12.1133 138.822 12.9387 138.822 14.2456V19.4045Z" fill="white"></path>
      <path d="M68.8953 38.1138H71.0933C72.5359 38.1138 73.635 37.7012 74.4592 36.8757C75.2835 36.0504 75.6957 34.9498 75.6957 33.5053C75.6957 32.0609 75.2835 30.8916 74.3905 30.0662C73.4975 29.2407 72.3299 28.8281 70.75 28.8281H68.8266V38.1138H68.8953ZM70.6812 39.8335H67.1094V27.1084H71.2308C73.1541 27.1084 74.6653 27.7275 75.833 28.8969C77.0008 30.0662 77.6189 31.6482 77.6189 33.5053C77.6189 34.6059 77.4129 35.5689 76.932 36.4631C76.52 37.3572 75.833 38.1138 75.0087 38.6642C74.4592 39.0768 73.8411 39.352 73.2227 39.5583C72.6046 39.7646 71.7116 39.8335 70.6812 39.8335Z" fill="white"></path>
      <path d="M79.1328 30.2725H80.8501V39.9023H79.1328V30.2725ZM80.8501 29.1032H79.1328V27.1084H80.8501V29.1032Z" fill="white"></path>
      <path d="M82.2227 36.738H83.8712C83.8712 37.2195 84.0086 37.6322 84.2834 37.9761C84.5581 38.32 84.9016 38.4576 85.3138 38.4576C85.7258 38.4576 86.0693 38.32 86.2753 38.1137C86.5501 37.8385 86.6875 37.5634 86.6875 37.1507C86.6875 36.8067 86.6189 36.5317 86.4127 36.3252C86.2067 36.1189 85.9319 35.9126 85.5198 35.7063C85.3824 35.6374 85.1764 35.5687 84.9016 35.4999C84.2147 35.2248 83.8026 35.0185 83.5964 34.8808C83.253 34.6056 82.9783 34.3306 82.8408 33.9178C82.7035 33.574 82.5661 33.1612 82.5661 32.7485C82.5661 31.9919 82.8408 31.3041 83.3904 30.7537C83.9399 30.2035 84.6268 29.9285 85.3824 29.9285C86.2067 29.9285 86.8249 30.1348 87.3058 30.6163C87.7865 31.0977 88.0613 31.7855 88.13 32.611H86.5501C86.5501 32.267 86.4127 31.9919 86.2067 31.7855C86.0006 31.5792 85.7259 31.5104 85.3824 31.5104C85.1076 31.5104 84.8329 31.6481 84.6268 31.8544C84.4207 32.0607 84.2834 32.3359 84.2834 32.611C84.2834 33.1612 84.7642 33.574 85.6571 33.9178C85.9319 33.9867 86.1379 34.1241 86.2753 34.1241C87.031 34.3993 87.5118 34.812 87.8553 35.2248C88.1988 35.6374 88.3361 36.2565 88.3361 37.0131C88.3361 37.8385 88.0613 38.5952 87.4431 39.1454C86.8937 39.6957 86.138 39.9709 85.245 39.9709C84.352 39.9709 83.6651 39.6957 83.1156 39.0767C82.6348 38.5952 82.2913 37.7698 82.2227 36.738Z" fill="white"></path>
      <path d="M98.9834 36.6006C98.5715 37.7699 97.9533 38.6641 97.1983 39.2144C96.3739 39.8334 95.4807 40.1085 94.3132 40.1085C93.6259 40.1085 92.9388 39.971 92.3897 39.7646C91.8398 39.4896 91.2907 39.1456 90.8094 38.6641C90.3291 38.1826 89.9855 37.6323 89.7793 37.0133C89.5046 36.3942 89.3672 35.7752 89.3672 35.0874C89.3672 34.3995 89.5046 33.7804 89.7108 33.2302C89.9168 32.6111 90.2601 32.1296 90.7409 31.6481C91.2222 31.0979 91.7712 30.6852 92.3897 30.41C93.0074 30.1349 93.6946 29.9973 94.3818 29.9973C95.4807 29.9973 96.4425 30.2724 97.2669 30.8915C98.0912 31.5106 98.64 32.3359 99.0519 33.4365H97.1297C96.8542 32.8174 96.4425 32.4047 95.9612 32.1296C95.4807 31.8545 94.9309 31.7169 94.2445 31.7169C93.4201 31.7169 92.6643 32.0609 92.0466 32.6798C91.4281 33.2989 91.1535 34.1243 91.1535 35.0874C91.1535 36.0503 91.4281 36.8757 92.0466 37.4948C92.6643 38.1138 93.4201 38.4578 94.3132 38.4578C94.9309 38.4578 95.4807 38.3202 95.9612 37.9763C96.4425 37.6323 96.8542 37.2196 97.1297 36.6006H98.9834Z" fill="white"></path>
      <path d="M101.935 35.0185C101.935 35.9815 102.209 36.807 102.827 37.4259C103.446 38.045 104.2 38.3889 105.094 38.3889C105.987 38.3889 106.743 38.045 107.36 37.4259C107.979 36.807 108.253 35.9815 108.253 35.0185C108.253 34.0556 107.979 33.2302 107.36 32.6111C106.743 31.992 105.987 31.6481 105.094 31.6481C104.2 31.6481 103.446 31.992 102.827 32.6111C102.209 33.2989 101.935 34.0556 101.935 35.0185ZM100.148 35.0874C100.148 34.3995 100.285 33.7804 100.492 33.1613C100.698 32.5424 101.042 32.0609 101.523 31.5794C102.003 31.0291 102.553 30.6852 103.17 30.41C103.79 30.1349 104.407 29.9973 105.025 29.9973C105.713 29.9973 106.399 30.1349 106.948 30.3413C107.568 30.6164 108.116 30.9602 108.598 31.4417C109.078 31.9232 109.421 32.4735 109.696 33.0926C109.971 33.7117 110.108 34.3307 110.108 34.9498C110.108 35.6376 109.971 36.2567 109.765 36.8757C109.559 37.4948 109.215 38.045 108.803 38.5265C108.322 39.0767 107.773 39.4896 107.155 39.7646C106.536 40.0397 105.918 40.1774 105.231 40.1774C104.545 40.1774 103.858 40.0397 103.308 39.7646C102.69 39.4896 102.209 39.1456 101.728 38.6641C101.316 38.1826 100.904 37.6323 100.698 37.0133C100.217 36.3254 100.148 35.7063 100.148 35.0874Z" fill="white"></path>
      <path d="M115.469 39.8335H114.164L110.523 30.2725H112.377L114.85 37.2197L117.46 30.2725H119.315L115.469 39.8335Z" fill="white"></path>
      <path d="M127.765 34.1243C127.559 33.3677 127.147 32.7487 126.666 32.2672C126.116 31.8545 125.498 31.6481 124.743 31.6481C123.987 31.6481 123.301 31.8545 122.751 32.3359C122.2 32.7487 121.789 33.3677 121.583 34.1243H127.765ZM121.583 35.7063C121.72 36.5318 122.064 37.1508 122.682 37.6323C123.233 38.1138 123.918 38.3889 124.743 38.3889C125.293 38.3889 125.842 38.2514 126.323 37.9763C126.803 37.7011 127.147 37.2885 127.422 36.807H129.346C128.933 37.8387 128.316 38.6641 127.491 39.2831C126.666 39.8334 125.773 40.1085 124.743 40.1085C124.055 40.1085 123.369 39.971 122.82 39.7646C122.2 39.4896 121.72 39.1456 121.24 38.6641C120.827 38.1826 120.415 37.6323 120.21 37.0133C119.934 36.3942 119.797 35.7752 119.797 35.0874C119.797 34.3995 119.934 33.7804 120.14 33.1613C120.347 32.5424 120.69 32.0609 121.17 31.5794C121.652 31.0291 122.2 30.6852 122.751 30.41C123.369 30.1349 123.987 29.9973 124.743 29.9973C125.568 29.9973 126.391 30.2037 127.078 30.6164C127.834 31.0291 128.384 31.5794 128.864 32.2672C129.138 32.6798 129.346 33.1613 129.483 33.7117C129.62 34.2619 129.689 34.8122 129.689 35.5V35.7752H121.583V35.7063Z" fill="white"></path>
      <path d="M132.916 39.8334H131.199V30.2036H132.848V31.3042C133.122 30.8915 133.466 30.5476 133.809 30.3413C134.153 30.1349 134.633 29.9973 135.114 29.9973V31.7857C134.359 31.8545 133.809 32.0609 133.466 32.4735C133.122 32.8863 132.986 33.5053 132.986 34.3995V39.8334H132.916Z" fill="white"></path>
      <path d="M136.352 30.2725H138.069V39.9023H136.352V30.2725ZM138.069 29.1032H136.352V27.1084H138.069V29.1032Z" fill="white"></path>
      <path d="M147.546 34.1243C147.341 33.3677 146.929 32.7487 146.447 32.2672C145.899 31.8545 145.279 31.6481 144.524 31.6481C143.768 31.6481 143.081 31.8545 142.531 32.3359C141.983 32.7487 141.57 33.3677 141.364 34.1243H147.546ZM141.364 35.7063C141.501 36.5318 141.846 37.1508 142.463 37.6323C143.013 38.1138 143.7 38.3889 144.524 38.3889C145.074 38.3889 145.623 38.2514 146.104 37.9763C146.584 37.7011 146.929 37.2885 147.203 36.807H149.127C148.714 37.8387 148.096 38.6641 147.272 39.2831C146.447 39.8334 145.554 40.1085 144.524 40.1085C143.837 40.1085 143.151 39.971 142.6 39.7646C141.983 39.4896 141.501 39.1456 141.021 38.6641C140.608 38.1826 140.196 37.6323 139.991 37.0133C139.715 36.3942 139.578 35.7752 139.578 35.0874C139.578 34.3995 139.715 33.7804 139.922 33.1613C140.128 32.5424 140.471 32.0609 140.953 31.5794C141.433 31.0291 141.983 30.6852 142.531 30.41C143.151 30.1349 143.768 29.9973 144.524 29.9973C145.348 29.9973 146.173 30.2037 146.86 30.6164C147.615 31.0291 148.164 31.5794 148.646 32.2672C148.921 32.6798 149.127 33.1613 149.264 33.7117C149.401 34.2619 149.469 34.8122 149.469 35.5V35.7752H141.364V35.7063Z" fill="white"></path>
      <path d="M150.297 36.738H151.945C151.945 37.2195 152.082 37.6322 152.358 37.9761C152.632 38.32 152.975 38.4576 153.388 38.4576C153.8 38.4576 154.142 38.32 154.35 38.1137C154.624 37.8385 154.762 37.5634 154.762 37.1507C154.762 36.8067 154.693 36.5317 154.487 36.3252C154.28 36.1189 154.005 35.9126 153.594 35.7063C153.457 35.6374 153.25 35.5687 152.975 35.4999C152.288 35.2248 151.877 35.0185 151.67 34.8808C151.327 34.6056 151.052 34.3306 150.914 33.9178C150.777 33.574 150.64 33.1612 150.64 32.7485C150.64 31.9919 150.914 31.3041 151.465 30.7537C152.014 30.2035 152.7 29.9285 153.457 29.9285C154.28 29.9285 154.899 30.1348 155.38 30.6163C155.86 31.0977 156.135 31.7855 156.204 32.611H154.555C154.555 32.267 154.418 31.9919 154.212 31.7855C154.005 31.5792 153.732 31.5104 153.388 31.5104C153.112 31.5104 152.838 31.6481 152.632 31.8544C152.427 32.0607 152.288 32.3359 152.288 32.611C152.288 33.1612 152.769 33.574 153.662 33.9178C153.937 33.9867 154.142 34.1241 154.28 34.1241C155.036 34.3993 155.517 34.812 155.86 35.2248C156.204 35.6374 156.342 36.2565 156.342 37.0131C156.342 37.8385 156.067 38.5952 155.448 39.1454C154.899 39.6957 154.142 39.9709 153.25 39.9709C152.358 39.9709 151.67 39.6957 151.121 39.0767C150.64 38.5952 150.365 37.7698 150.297 36.738Z" fill="white"></path>
      <path d="M159.226 30.6851H158.952V31.2353H159.226C159.364 31.2353 159.501 31.2353 159.57 31.1666C159.638 31.0978 159.638 31.0289 159.638 30.9602C159.638 30.8914 159.57 30.7538 159.57 30.7538C159.501 30.6851 159.364 30.6851 159.226 30.6851ZM159.296 30.4787C159.501 30.4787 159.707 30.5474 159.845 30.6163C159.982 30.6851 160.051 30.8226 160.051 30.9602C160.051 31.0978 159.982 31.1666 159.982 31.2353C159.914 31.3041 159.845 31.3729 159.707 31.3729L160.119 32.1296H159.776L159.433 31.3729H159.089V32.1296H158.676V30.41H159.296V30.4787ZM160.531 31.3729C160.531 31.1666 160.531 31.0289 160.463 30.8914C160.394 30.7538 160.326 30.6163 160.188 30.4787C160.051 30.3411 159.914 30.2723 159.776 30.2035C159.638 30.1348 159.433 30.1348 159.296 30.1348C159.089 30.1348 158.952 30.1348 158.814 30.2035C158.676 30.2723 158.54 30.3411 158.403 30.4787C158.265 30.6163 158.196 30.7538 158.128 30.8914C158.059 31.0289 158.059 31.2353 158.059 31.3729C158.059 31.5104 158.059 31.7168 158.128 31.8544C158.196 31.9919 158.265 32.1296 158.403 32.2671C158.54 32.4046 158.676 32.4734 158.814 32.5422C158.952 32.6111 159.158 32.6111 159.296 32.6111C159.501 32.6111 159.638 32.6111 159.776 32.5422C159.914 32.4734 160.051 32.4046 160.188 32.2671C160.326 32.1296 160.394 31.9919 160.463 31.8544C160.531 31.7168 160.531 31.5793 160.531 31.3729ZM159.226 29.8596C159.433 29.8596 159.638 29.9285 159.776 29.9972C159.982 30.066 160.119 30.2036 160.257 30.3411C160.394 30.4787 160.531 30.6163 160.6 30.8226C160.669 31.0289 160.738 31.1666 160.738 31.3729C160.738 31.5793 160.669 31.7856 160.6 31.9232C160.531 32.1296 160.394 32.2671 160.257 32.4046C160.119 32.5422 159.914 32.6798 159.776 32.7485C159.57 32.8174 159.433 32.8862 159.226 32.8862C159.021 32.8862 158.814 32.8174 158.676 32.7485C158.471 32.6798 158.333 32.5422 158.196 32.4046C158.059 32.2671 157.922 32.1296 157.852 31.9232C157.783 31.7168 157.715 31.5793 157.715 31.3729C157.715 31.1666 157.783 30.9602 157.852 30.8226C157.922 30.6163 158.059 30.4787 158.196 30.3411C158.333 30.2036 158.471 30.066 158.676 29.9972C158.883 29.9285 159.021 29.8596 159.226 29.8596Z" fill="white"></path>
    </g>
  </g>
</svg>
