<?xml version="1.0" encoding="UTF-8"?>
<svg xmlns="http://www.w3.org/2000/svg" width="165" height="46" viewBox="0 0 165 46" fill="none">
  <g clip-path="url(#clip0_4685_708)">
    <mask id="mask0_4685_708" style="mask-type:luminance" maskUnits="userSpaceOnUse" x="0" y="5" width="165" height="36">
      <path d="M164.308 5H0V41H164.308V5Z" fill="white"></path>
    </mask>
    <g mask="url(#mask0_4685_708)">
      <path d="M12.5688 16.1094L9.40911 25.25H15.7988L12.5688 16.1094ZM1.61499 36.5L10.8134 10.9063H14.4647L23.6631 36.5H19.731L17.0627 28.9062H8.14517L5.61736 36.0078L5.47692 36.5H1.61499ZM0 41H24.8568V5H0V41ZM25.559 41H28.2272V5H25.559V41ZM45.7815 30.664C47.3262 29.1172 48.0986 26.8672 48.0986 23.7734C48.0986 22.2969 47.8178 20.8906 47.3262 19.625C46.7645 18.3594 46.0623 17.375 45.0793 16.5313C44.3771 15.8984 43.6048 15.4766 42.6919 15.1953C41.7791 14.9844 40.3747 14.8438 38.6193 14.8438H34.8978V33.0547H39.1811C42.1302 33.0547 44.2367 32.2813 45.7815 30.664ZM51.8903 23.914C51.8903 26.0938 51.469 28.2031 50.5562 30.0313C49.7136 31.8594 48.4497 33.4062 46.7645 34.5313C45.7112 35.3047 44.5175 35.8672 43.2536 36.1484C41.9898 36.5 40.0938 36.6406 37.6362 36.6406H31.1764V11.8906V11.2578H38.6896C40.5854 11.2578 42.2706 11.4687 43.6048 11.8203C44.9389 12.2422 46.2028 12.875 47.256 13.7187C48.7306 14.914 49.854 16.4609 50.6264 18.2187C51.469 19.9766 51.8903 21.875 51.8903 23.914ZM53.7862 5H28.9294V41H53.7862V5Z" fill="#8D8E91"></path>
      <path d="M75.0624 15.7578L74.29 13.0156C74.0793 12.2422 73.7984 11.3281 73.658 10.5547H73.5878C73.3771 11.3281 73.2367 12.3125 73.0261 13.0156L72.2537 15.7578H75.0624ZM71.8324 17.9375L70.9195 21.2422H67.9002L71.8324 8.375H75.6241L79.6265 21.2422H76.5369L75.5538 17.9375H71.8324Z" fill="#8D8E91"></path>
      <path d="M81.1711 14.8438C81.1711 13.6484 81.101 12.6641 81.101 11.8906H83.5586L83.699 13.1563H83.7692C84.1905 12.5937 84.9629 11.6797 86.5779 11.6797C87.7716 11.6797 88.7546 12.3125 89.1057 13.2969H89.1759C89.527 12.8047 89.9483 12.4531 90.3696 12.1719C90.8611 11.8906 91.4931 11.6797 92.125 11.6797C93.9508 11.6797 95.2846 12.9453 95.2846 15.7578V21.2422H92.4757V16.1797C92.4757 14.8438 92.0548 14.0703 91.0718 14.0703C90.3696 14.0703 89.9483 14.5625 89.7377 15.0547C89.6674 15.2656 89.5973 15.5469 89.5973 15.8282V21.3125H86.7885V16.0391C86.7885 14.8438 86.3672 14.0703 85.4544 14.0703C84.6821 14.0703 84.2608 14.6328 84.1203 15.125C84.0501 15.336 83.9799 15.6172 83.9799 15.8282V21.3125H81.1711V14.8438Z" fill="#8D8E91"></path>
      <path d="M102.587 16.8125C101.043 16.8125 99.8492 17.164 99.8492 18.2891C99.8492 19.0625 100.34 19.414 100.973 19.414C101.674 19.414 102.306 18.9218 102.517 18.3594C102.587 18.2187 102.587 18.0078 102.587 17.8672V16.8125ZM105.396 18.9218C105.396 19.836 105.466 20.6797 105.536 21.1718H102.939L102.798 20.2578H102.727C102.096 21.0313 101.183 21.3828 100.06 21.3828C98.1637 21.3828 97.0403 19.9766 97.0403 18.5C97.0403 16.0391 99.2169 14.914 102.517 14.914V14.8438C102.517 14.3516 102.236 13.6484 100.832 13.6484C99.8492 13.6484 98.8662 14 98.2339 14.3516L97.6726 12.4531C98.304 12.1016 99.5677 11.6094 101.323 11.6094C104.413 11.6094 105.466 13.4375 105.466 15.6172V18.9218H105.396Z" fill="#8D8E91"></path>
      <path d="M106.94 19.5547L109.89 15.8282C110.452 15.1953 110.873 14.7031 111.365 14.1406H107.222V11.8906H114.875V13.6484L112.066 17.164C111.575 17.7969 111.083 18.3594 110.522 18.8516V18.9218H115.015V21.2422H106.87V19.5547H106.94Z" fill="#8D8E91"></path>
      <path d="M116.631 11.8906H119.509V21.2422H116.631V11.8906ZM119.649 9.28905C119.649 10.0625 119.018 10.7656 118.105 10.7656C117.192 10.7656 116.56 10.1328 116.631 9.28905C116.631 8.44531 117.192 7.8125 118.175 7.8125C119.018 7.8125 119.649 8.44531 119.649 9.28905Z" fill="#8D8E91"></path>
      <path d="M121.897 14.8438C121.897 13.6484 121.827 12.6641 121.827 11.8906H124.354L124.494 13.1563H124.565C124.916 12.5937 125.898 11.6797 127.444 11.6797C129.34 11.6797 130.814 12.9453 130.814 15.6875V21.2422H127.935V16.0391C127.935 14.8438 127.514 14 126.461 14C125.688 14 125.197 14.5625 124.986 15.125C124.916 15.336 124.845 15.6172 124.845 15.8282V21.2422H121.967V14.8438H121.897Z" fill="#8D8E91"></path>
      <path d="M139.029 15.6875C139.029 15.4766 139.029 15.336 138.959 15.125C138.749 14.3516 138.187 13.8594 137.415 13.8594C136.362 13.8594 135.519 14.8438 135.519 16.5313C135.519 17.9375 136.221 18.9922 137.415 18.9922C138.187 18.9922 138.749 18.5 138.959 17.7969C139.029 17.586 139.029 17.3047 139.029 17.0234V15.6875ZM141.908 19.836C141.908 21.664 141.558 23.1406 140.504 24.0547C139.451 24.9687 138.047 25.1797 136.712 25.1797C135.519 25.1797 134.185 24.8984 133.342 24.4766L133.903 22.2969C134.466 22.6484 135.519 23 136.642 23C138.047 23 139.1 22.2266 139.1 20.5391V19.9062H139.029C138.468 20.6797 137.555 21.1016 136.502 21.1016C134.185 21.1016 132.57 19.2031 132.57 16.5313C132.57 13.5078 134.536 11.6094 136.782 11.6094C138.047 11.6094 138.889 12.1719 139.311 12.9453H139.381L139.451 11.8203H141.978C141.908 12.3828 141.908 13.2266 141.908 14.5625V19.836Z" fill="#8D8E91"></path>
      <path d="M70.4272 38.9609H72.6741C74.1487 38.9609 75.2722 38.5391 76.1148 37.6953C76.9574 36.8516 77.3787 35.7266 77.3787 34.25C77.3787 32.7735 76.9574 31.5782 76.0445 30.7344C75.1317 29.8906 73.9381 29.4688 72.3231 29.4688H70.357V38.9609H70.4272ZM72.2528 40.7188H68.6016V27.7109H72.8146C74.7807 27.7109 76.3254 28.3438 77.5191 29.5391C78.7128 30.7344 79.3447 32.3516 79.3447 34.25C79.3447 35.375 79.1341 36.3594 78.6425 37.2735C78.2213 38.1875 77.5191 38.9609 76.6765 39.5235C76.1148 39.9453 75.4829 40.2266 74.8508 40.4375C74.2189 40.6484 73.3061 40.7188 72.2528 40.7188Z" fill="#8D8E91"></path>
      <path d="M80.8901 30.9453H82.6455V40.7891H80.8901V30.9453ZM82.6455 29.75H80.8901V27.7109H82.6455V29.75Z" fill="#8D8E91"></path>
      <path d="M84.0496 37.5547H85.7348C85.7348 38.0469 85.8752 38.4687 86.1561 38.8203C86.4369 39.1718 86.7881 39.3125 87.2094 39.3125C87.6306 39.3125 87.9817 39.1718 88.1923 38.9609C88.4732 38.6796 88.6137 38.3984 88.6137 37.9765C88.6137 37.6249 88.5435 37.3438 88.3328 37.1327C88.1222 36.9218 87.8413 36.7109 87.42 36.5C87.2796 36.4296 87.069 36.3594 86.7881 36.289C86.0859 36.0078 85.6646 35.7969 85.4539 35.6562C85.1028 35.3749 84.822 35.0938 84.6815 34.6718C84.5411 34.3203 84.4007 33.8984 84.4007 33.4765C84.4007 32.7031 84.6815 32 85.2433 31.4374C85.805 30.8749 86.5072 30.5938 87.2796 30.5938C88.1222 30.5938 88.7541 30.8047 89.2457 31.2969C89.7371 31.789 90.018 32.4921 90.0882 33.3359H88.4732C88.4732 32.9843 88.3328 32.7031 88.1222 32.4921C87.9115 32.2812 87.6307 32.2109 87.2796 32.2109C86.9987 32.2109 86.7178 32.3516 86.5072 32.5625C86.2965 32.7734 86.1561 33.0547 86.1561 33.3359C86.1561 33.8984 86.6476 34.3203 87.5604 34.6718C87.8413 34.7422 88.0519 34.8827 88.1923 34.8827C88.9648 35.164 89.4563 35.5859 89.8074 36.0078C90.1585 36.4296 90.2989 37.0625 90.2989 37.8359C90.2989 38.6796 90.018 39.4531 89.3861 40.0156C88.8244 40.5781 88.0519 40.8594 87.1391 40.8594C86.2263 40.8594 85.5241 40.5781 84.9624 39.9453C84.4709 39.4531 84.1198 38.6094 84.0496 37.5547Z" fill="#8D8E91"></path>
      <path d="M101.182 37.4141C100.761 38.6094 100.129 39.5235 99.3572 40.086C98.5145 40.7188 97.6015 41 96.408 41C95.7055 41 95.0031 40.8594 94.4418 40.6484C93.8797 40.3673 93.3184 40.0157 92.8264 39.5235C92.3354 39.0313 91.9841 38.4688 91.7734 37.836C91.4926 37.2031 91.3521 36.5704 91.3521 35.8673C91.3521 35.1641 91.4926 34.5313 91.7033 33.9688C91.9139 33.336 92.2649 32.8438 92.7563 32.3516C93.2483 31.7891 93.8095 31.3673 94.4418 31.086C95.0732 30.8047 95.7757 30.6641 96.4781 30.6641C97.6015 30.6641 98.5846 30.9453 99.4274 31.5782C100.27 32.211 100.831 33.0547 101.252 34.1797H99.2871C99.0055 33.5469 98.5846 33.125 98.0926 32.8438C97.6015 32.5626 97.0394 32.4219 96.3378 32.4219C95.4951 32.4219 94.7225 32.7735 94.0911 33.4062C93.4588 34.0391 93.1781 34.8828 93.1781 35.8673C93.1781 36.8516 93.4588 37.6953 94.0911 38.3282C94.7225 38.961 95.4951 39.3126 96.408 39.3126C97.0394 39.3126 97.6015 39.1719 98.0926 38.8204C98.5846 38.4688 99.0055 38.0469 99.2871 37.4141H101.182Z" fill="#8D8E91"></path>
      <path d="M104.202 35.7969C104.202 36.7813 104.482 37.6251 105.114 38.2578C105.747 38.8906 106.518 39.2422 107.431 39.2422C108.344 39.2422 109.117 38.8906 109.748 38.2578C110.381 37.6251 110.661 36.7813 110.661 35.7969C110.661 34.8126 110.381 33.9688 109.748 33.336C109.117 32.7031 108.344 32.3516 107.431 32.3516C106.518 32.3516 105.747 32.7031 105.114 33.336C104.482 34.0391 104.202 34.8126 104.202 35.7969ZM102.376 35.8673C102.376 35.1641 102.516 34.5313 102.727 33.8984C102.938 33.2657 103.289 32.7735 103.781 32.2813C104.272 31.7188 104.834 31.3673 105.465 31.086C106.098 30.8047 106.729 30.6641 107.361 30.6641C108.064 30.6641 108.765 30.8047 109.327 31.0157C109.96 31.2969 110.521 31.6484 111.013 32.1406C111.504 32.6328 111.855 33.1953 112.136 33.8282C112.417 34.461 112.557 35.0938 112.557 35.7266C112.557 36.4297 112.417 37.0626 112.206 37.6953C111.996 38.3282 111.644 38.8906 111.223 39.3828C110.731 39.9453 110.17 40.3673 109.538 40.6484C108.906 40.9297 108.274 41.0704 107.572 41.0704C106.87 41.0704 106.168 40.9297 105.606 40.6484C104.974 40.3673 104.482 40.0157 103.991 39.5235C103.569 39.0313 103.148 38.4688 102.938 37.836C102.446 37.1328 102.376 36.5 102.376 35.8673Z" fill="#8D8E91"></path>
      <path d="M118.034 40.7188H116.7L112.979 30.9453H114.874L117.402 38.0469L120.07 30.9453H121.966L118.034 40.7188Z" fill="#8D8E91"></path>
      <path d="M130.603 34.8828C130.393 34.1094 129.971 33.4766 129.48 32.9844C128.918 32.5626 128.286 32.3516 127.514 32.3516C126.741 32.3516 126.04 32.5626 125.478 33.0547C124.915 33.4766 124.494 34.1094 124.284 34.8828H130.603ZM124.284 36.5C124.424 37.3438 124.775 37.9766 125.407 38.4688C125.97 38.961 126.671 39.2422 127.514 39.2422C128.076 39.2422 128.637 39.1016 129.129 38.8204C129.62 38.5391 129.971 38.1173 130.253 37.6251H132.219C131.797 38.6797 131.166 39.5235 130.323 40.1562C129.48 40.7188 128.567 41 127.514 41C126.811 41 126.11 40.8594 125.548 40.6484C124.915 40.3673 124.424 40.0157 123.933 39.5235C123.511 39.0313 123.09 38.4688 122.88 37.836C122.598 37.2031 122.458 36.5704 122.458 35.8673C122.458 35.1641 122.598 34.5313 122.809 33.8984C123.02 33.2657 123.371 32.7735 123.862 32.2813C124.354 31.7188 124.915 31.3673 125.478 31.086C126.11 30.8047 126.741 30.6641 127.514 30.6641C128.357 30.6641 129.199 30.8751 129.901 31.2969C130.674 31.7188 131.236 32.2813 131.727 32.9844C132.007 33.4062 132.219 33.8984 132.359 34.461C132.499 35.0235 132.57 35.586 132.57 36.2891V36.5704H124.284V36.5Z" fill="#8D8E91"></path>
      <path d="M135.87 40.7188H134.115V30.875H135.8V32C136.081 31.5782 136.432 31.2266 136.783 31.0157C137.134 30.8047 137.625 30.6641 138.117 30.6641V32.4922C137.345 32.5626 136.783 32.7735 136.432 33.1953C136.081 33.6173 135.941 34.25 135.941 35.1641V40.7188H135.87Z" fill="#8D8E91"></path>
      <path d="M139.381 30.9453H141.137V40.7891H139.381V30.9453ZM141.137 29.75H139.381V27.7109H141.137V29.75Z" fill="#8D8E91"></path>
      <path d="M150.826 34.8828C150.616 34.1094 150.195 33.4766 149.703 32.9844C149.142 32.5626 148.509 32.3516 147.737 32.3516C146.964 32.3516 146.262 32.5626 145.7 33.0547C145.139 33.4766 144.717 34.1094 144.507 34.8828H150.826ZM144.507 36.5C144.647 37.3438 144.999 37.9766 145.63 38.4688C146.192 38.961 146.894 39.2422 147.737 39.2422C148.299 39.2422 148.86 39.1016 149.352 38.8204C149.843 38.5391 150.195 38.1173 150.475 37.6251H152.442C152.02 38.6797 151.388 39.5235 150.546 40.1562C149.703 40.7188 148.79 41 147.737 41C147.035 41 146.333 40.8594 145.77 40.6484C145.139 40.3673 144.647 40.0157 144.156 39.5235C143.734 39.0313 143.313 38.4688 143.103 37.836C142.821 37.2031 142.681 36.5704 142.681 35.8673C142.681 35.1641 142.821 34.5313 143.033 33.8984C143.243 33.2657 143.594 32.7735 144.086 32.2813C144.577 31.7188 145.139 31.3673 145.7 31.086C146.333 30.8047 146.964 30.6641 147.737 30.6641C148.579 30.6641 149.422 30.8751 150.125 31.2969C150.896 31.7188 151.458 32.2813 151.95 32.9844C152.231 33.4062 152.442 33.8984 152.582 34.461C152.722 35.0235 152.792 35.586 152.792 36.2891V36.5704H144.507V36.5Z" fill="#8D8E91"></path>
      <path d="M153.635 37.5547H155.32C155.32 38.0469 155.46 38.4687 155.742 38.8203C156.022 39.1718 156.373 39.3125 156.795 39.3125C157.216 39.3125 157.566 39.1718 157.778 38.9609C158.058 38.6796 158.199 38.3984 158.199 37.9765C158.199 37.6249 158.129 37.3438 157.918 37.1327C157.707 36.9218 157.426 36.7109 157.005 36.5C156.865 36.4296 156.654 36.3594 156.373 36.289C155.67 36.0078 155.25 35.7969 155.039 35.6562C154.688 35.3749 154.407 35.0938 154.266 34.6718C154.126 34.3203 153.986 33.8984 153.986 33.4765C153.986 32.7031 154.266 32 154.829 31.4374C155.39 30.8749 156.092 30.5938 156.865 30.5938C157.707 30.5938 158.339 30.8047 158.831 31.2969C159.322 31.789 159.603 32.4921 159.673 33.3359H157.988C157.988 32.9843 157.848 32.7031 157.637 32.4921C157.426 32.2812 157.146 32.2109 156.795 32.2109C156.513 32.2109 156.233 32.3516 156.022 32.5625C155.812 32.7734 155.67 33.0547 155.67 33.3359C155.67 33.8984 156.162 34.3203 157.075 34.6718C157.356 34.7422 157.566 34.8827 157.707 34.8827C158.479 35.164 158.971 35.5859 159.322 36.0078C159.673 36.4296 159.814 37.0625 159.814 37.8359C159.814 38.6796 159.533 39.4531 158.901 40.0156C158.339 40.5781 157.566 40.8594 156.654 40.8594C155.742 40.8594 155.039 40.5781 154.477 39.9453C153.986 39.4531 153.705 38.6094 153.635 37.5547Z" fill="#8D8E91"></path>
      <path d="M162.763 31.3672H162.483V31.9297H162.763C162.904 31.9297 163.044 31.9297 163.114 31.8594C163.184 31.7891 163.184 31.7187 163.184 31.6484C163.184 31.5781 163.114 31.4375 163.114 31.4375C163.044 31.3672 162.904 31.3672 162.763 31.3672ZM162.834 31.1562C163.044 31.1562 163.254 31.2265 163.395 31.2969C163.536 31.3672 163.606 31.5078 163.606 31.6484C163.606 31.7891 163.536 31.8594 163.536 31.9297C163.466 32 163.395 32.0703 163.254 32.0703L163.676 32.8438H163.325L162.974 32.0703H162.623V32.8438H162.201V31.086H162.834V31.1562ZM164.097 32.0703C164.097 31.8594 164.097 31.7187 164.027 31.5781C163.957 31.4375 163.887 31.2969 163.746 31.1562C163.606 31.0156 163.466 30.9453 163.325 30.8749C163.184 30.8047 162.974 30.8047 162.834 30.8047C162.623 30.8047 162.483 30.8047 162.342 30.8749C162.201 30.9453 162.061 31.0156 161.921 31.1562C161.78 31.2969 161.71 31.4375 161.64 31.5781C161.57 31.7187 161.57 31.9297 161.57 32.0703C161.57 32.2109 161.57 32.4218 161.64 32.5625C161.71 32.7031 161.78 32.8438 161.921 32.9844C162.061 33.1249 162.201 33.1953 162.342 33.2656C162.483 33.336 162.693 33.336 162.834 33.336C163.044 33.336 163.184 33.336 163.325 33.2656C163.466 33.1953 163.606 33.1249 163.746 32.9844C163.887 32.8438 163.957 32.7031 164.027 32.5625C164.097 32.4218 164.097 32.2813 164.097 32.0703ZM162.763 30.5234C162.974 30.5234 163.184 30.5938 163.325 30.664C163.536 30.7344 163.676 30.875 163.817 31.0156C163.957 31.1562 164.097 31.2969 164.167 31.5078C164.238 31.7187 164.308 31.8594 164.308 32.0703C164.308 32.2813 164.238 32.4922 164.167 32.6328C164.097 32.8438 163.957 32.9844 163.817 33.1249C163.676 33.2656 163.466 33.4062 163.325 33.4765C163.114 33.5469 162.974 33.6172 162.763 33.6172C162.553 33.6172 162.342 33.5469 162.201 33.4765C161.991 33.4062 161.85 33.2656 161.71 33.1249C161.57 32.9844 161.43 32.8438 161.358 32.6328C161.288 32.4218 161.218 32.2813 161.218 32.0703C161.218 31.8594 161.288 31.6484 161.358 31.5078C161.43 31.2969 161.57 31.1562 161.71 31.0156C161.85 30.875 161.991 30.7344 162.201 30.664C162.412 30.5938 162.553 30.5234 162.763 30.5234Z" fill="#8D8E91"></path>
    </g>
  </g>
  <defs>
    <clipPath id="clip0_4685_708">
      <rect width="164.308" height="36" fill="white" transform="translate(0 5)"></rect>
    </clipPath>
  </defs>
</svg>
