<svg width="14" height="8" viewBox="0 0 14 8" fill="none" xmlns="http://www.w3.org/2000/svg">
<path d="M3.19137 7.99959C3.11617 7.99391 3.04553 7.95275 2.99426 7.88321L0 3.99865L2.99426 0.114084C3.06604 0.0189919 3.17314 -0.0207481 3.27455 0.0104761C3.37595 0.0417004 3.45685 0.138211 3.48533 0.263107C3.51495 0.389423 3.48761 0.524255 3.41355 0.616508L1.0881 3.63531L13.7043 3.63531C13.8092 3.63389 13.9071 3.70202 13.9607 3.81556C14.0131 3.9291 14.0131 4.06819 13.9607 4.18173C13.9071 4.29527 13.8092 4.3634 13.7043 4.36198L1.0881 4.36198L3.41355 7.38078C3.499 7.48723 3.52293 7.64761 3.4728 7.78386C3.4238 7.92153 3.31215 8.00668 3.19137 7.99959Z" fill="#77787C"/>
</svg>
