<svg xmlns="http://www.w3.org/2000/svg" width="25" height="24" viewBox="0 0 25 24" fill="none">
  <path d="M15.8496 15.9996C15.9248 15.9939 15.9955 15.9528 16.0468 15.8832L19.041 11.9986L16.0468 8.11408C15.975 8.01899 15.8679 7.97925 15.7665 8.01048C15.6651 8.0417 15.5842 8.13821 15.5557 8.26311C15.5261 8.38942 15.5534 8.52425 15.6275 8.61651L17.9529 11.6353L5.33668 11.6353C5.23186 11.6339 5.13387 11.702 5.08032 11.8156C5.02791 11.9291 5.02791 12.0682 5.08032 12.1817C5.13387 12.2953 5.23186 12.3634 5.33668 12.362L17.9529 12.362L15.6275 15.3808C15.542 15.4872 15.5181 15.6476 15.5682 15.7839C15.6172 15.9215 15.7289 16.0067 15.8496 15.9996Z" fill="#D1D2D3"/>
</svg>