<?xml version="1.0" encoding="UTF-8"?>
<svg xmlns="http://www.w3.org/2000/svg" width="140" height="140" viewBox="0 0 140 140" fill="none">
  <mask id="mask0_4628_1714" style="mask-type:luminance" maskUnits="userSpaceOnUse" x="11" y="11" width="118" height="118">
    <path d="M129 11H11V129H129V11Z" fill="white"></path>
  </mask>
  <g mask="url(#mask0_4628_1714)">
    <path d="M91.2429 11H11V91.6369L48.3631 129H129V48.7571L91.2429 11Z" fill="#5B5B5B"></path>
    <path d="M90.2757 13.4718L126.564 49.7602V126.564H49.3661L13.4718 90.6339V13.4718H90.2757ZM91.2429 11H11V91.6369L48.3631 129H129V48.7571L91.2429 11Z" fill="#403F3F"></path>
    <path d="M30.1652 77.4511V81.7857H27.7292V70H32.2429C33.3176 69.9283 34.3564 70.2866 35.1804 70.9672C35.7535 71.5045 36.1476 72.221 36.2909 72.9733C36.4342 73.7255 36.3625 74.5495 36.0401 75.2659C35.7177 75.9824 35.1804 76.5914 34.4997 76.9854C33.8191 77.3795 33.031 77.5586 32.2429 77.4511H30.1652ZM30.1652 75.5883H31.9921C32.2429 75.6242 32.4937 75.5883 32.7086 75.5167C32.9235 75.445 33.1385 75.3017 33.3176 75.1226C33.6042 74.7286 33.7475 74.2271 33.7475 73.7614C33.7475 73.2599 33.6042 72.7942 33.3176 72.4001C32.9594 72.0777 32.4937 71.8986 31.9921 71.8986H30.201L30.1652 75.5883ZM46.6078 81.7857L45.8197 79.1706H41.8076L41.0195 81.7857H38.4044L42.524 70H45.3898L49.402 81.7857H46.6078ZM42.2733 77.272H45.2107L43.742 72.3643L42.2733 77.272ZM52.9126 81.7857V70H57.4263C58.501 69.9283 59.5398 70.2866 60.3637 70.9672C61.0444 71.6478 61.4384 72.615 61.4384 73.5823C61.4384 74.2629 61.2235 74.9077 60.8294 75.445C60.4354 76.0182 59.898 76.4481 59.2532 76.7705L62.1907 81.8573H59.5756L56.9606 77.2362H55.2769V81.7498H52.9126V81.7857ZM55.3486 75.3734H57.1397C57.3546 75.4092 57.5337 75.4092 57.7487 75.3376C57.9636 75.3017 58.1427 75.1943 58.286 75.0868C58.4651 74.9793 58.5726 74.8002 58.6801 74.6211C58.7875 74.442 58.8592 74.2629 58.895 74.048V73.5464C58.9666 73.1524 58.8592 72.7225 58.6084 72.4001C58.3577 72.0777 57.9994 71.8628 57.5696 71.7911H55.4202V75.4092L55.3486 75.3734ZM68.2447 81.7857V72.0419H64.5908V70H74.3346V72.0419H70.6807V81.7857H68.2447ZM80.5319 73.6181V81.7857H78.2751V70H81.0334L85.8337 78.275V70H88.0905V81.7857H85.3322L80.5319 73.6181ZM92.64 81.7857V70H100.414V71.9702H95.1834V74.7286H99.4105V76.6988H95.1834V79.8512H100.414V81.8215H92.64V81.7857ZM104.891 81.7857V70H109.405C110.48 69.9283 111.519 70.2866 112.342 70.9672C113.023 71.6478 113.417 72.615 113.417 73.5823C113.417 74.2629 113.202 74.9077 112.844 75.445C112.45 76.0182 111.913 76.4481 111.268 76.7705L114.205 81.8573H111.59L108.975 77.2362H107.327V81.7498H104.891V81.7857ZM107.363 75.3734H109.118C109.512 75.445 109.942 75.3376 110.265 75.0868C110.587 74.8361 110.802 74.4778 110.874 74.048V73.5464C110.945 73.1524 110.838 72.7225 110.587 72.4001C110.336 72.0777 109.978 71.8628 109.584 71.7911H107.327L107.363 75.3734Z" fill="#EBEBEB"></path>
    <path d="M37.2224 38.0103C37.1866 38.4044 37.2582 38.8342 37.4374 39.1925C37.5448 39.4791 37.7239 39.8731 37.8314 40.1597C37.8672 40.1955 37.903 40.2672 37.903 40.303C37.903 40.3388 37.9389 40.4104 37.903 40.4463C37.903 40.6254 37.7956 40.7329 37.6165 40.8403L36.7209 41.4135H36.4343C36.3627 41.4135 36.291 41.4135 36.2194 41.3777C36.1477 41.3418 36.0761 41.306 36.0403 41.2344C35.8612 41.0553 35.682 40.8761 35.5387 40.6612C35.3955 40.4104 35.2522 40.1597 35.1447 39.8731C34.679 40.4463 34.07 40.9478 33.3894 41.2702C32.7088 41.5926 31.9565 41.7717 31.2042 41.7717C30.7385 41.8075 30.237 41.7359 29.7713 41.5568C29.3056 41.3777 28.9115 41.1269 28.5533 40.7687C28.2309 40.4105 27.9443 40.0164 27.801 39.5507C27.6219 39.085 27.5503 38.6193 27.5861 38.1536C27.5861 37.6521 27.6578 37.1148 27.8727 36.6491C28.0876 36.1834 28.3742 35.7535 28.7683 35.3953C29.6996 34.6788 30.846 34.3206 32.0281 34.3206C32.458 34.3206 32.9237 34.3564 33.3536 34.4281L34.8223 34.7146V33.7474C34.8581 33.3534 34.8581 32.9593 34.7506 32.6011C34.6432 32.2429 34.4641 31.8846 34.2133 31.5981C33.9267 31.3473 33.5685 31.1682 33.1744 31.0965C32.8162 30.9891 32.4222 30.9533 32.0281 31.0249C31.5266 31.0607 31.0251 31.0965 30.5594 31.204C30.0579 31.3115 29.5564 31.4906 29.0907 31.7055C28.9115 31.813 28.8041 31.813 28.5891 31.9205H28.41C28.2309 31.9205 28.1234 31.813 28.1234 31.5264V30.81C28.1234 30.6309 28.1593 30.4517 28.2309 30.3084C28.3384 30.201 28.4817 30.0935 28.625 30.0219C29.1265 29.7353 29.6996 29.5203 30.2728 29.4487C30.9534 29.2696 31.6341 29.1621 32.3505 29.1621C33.6043 29.0547 34.8223 29.4487 35.7895 30.2368C36.1836 30.6667 36.4701 31.204 36.6493 31.7414C36.8284 32.3145 36.9 32.8877 36.8642 33.4608L37.2224 38.0103ZM31.849 39.9806C32.2789 39.9448 32.7446 39.9089 33.1744 39.8015C33.676 39.5865 34.1058 39.2999 34.4999 38.9059C34.7506 38.6551 34.8939 38.3327 35.0014 38.0103C35.073 37.6163 35.1089 37.2222 35.1089 36.8282V36.2192C34.285 36.0401 33.461 35.9326 32.6371 35.9326C31.9565 35.861 31.24 36.0401 30.6669 36.4341C30.2728 36.8282 30.0579 37.3297 30.022 37.867C29.9862 38.4044 30.1653 38.9417 30.4877 39.3716C30.631 39.5865 30.846 39.7656 31.0967 39.8731C31.3475 39.9806 31.5982 40.0164 31.8848 39.9448H31.849V39.9806ZM42.56 41.4851C42.3809 41.4851 42.166 41.4851 42.0585 41.3777C41.951 41.2344 41.8435 41.0553 41.7719 40.8761L38.6195 30.5592C38.5479 30.4159 38.512 30.2368 38.512 30.0577C38.512 29.8786 38.6195 29.7711 38.6911 29.7711H40.0166C40.1957 29.7711 40.4106 29.7711 40.5181 29.8786C40.6614 30.0219 40.733 30.201 40.8047 30.3801L43.0615 39.1208L45.1392 30.3801C45.1392 30.2726 45.1751 30.201 45.2109 30.0935C45.2467 30.0219 45.3183 29.9502 45.4258 29.8786C45.5691 29.8069 45.7482 29.7711 45.9273 29.7711H47.002C47.1811 29.7353 47.3602 29.7711 47.5035 29.8786C47.611 30.0219 47.7185 30.201 47.7901 30.3801L49.8678 39.3358L52.1247 30.3801C52.1247 30.2726 52.1605 30.1652 52.1963 30.0935C52.2321 30.0219 52.3038 29.9502 52.4112 29.8786C52.5545 29.8069 52.7336 29.7711 52.9128 29.7711H54.2382C54.4173 29.7711 54.5248 29.8786 54.5248 29.986V30.2726C54.5248 30.3801 54.4173 30.4517 54.4173 30.5592L51.2649 40.7687C51.2649 40.8761 51.2291 40.9836 51.1933 41.0553C51.1575 41.1269 51.05 41.1985 50.9783 41.2702C50.8709 41.4493 50.6918 41.4493 50.4768 41.4493H49.2947C49.1156 41.4493 48.9006 41.4493 48.7931 41.3418C48.6857 41.2344 48.614 41.0553 48.5066 40.8403L46.4289 32.2787L44.387 40.8403C44.387 40.9478 44.3511 41.0553 44.3153 41.1269C44.2795 41.1986 44.172 41.2702 44.1004 41.3418C43.9929 41.4135 43.8496 41.4493 43.7063 41.4493H42.56V41.4851ZM59.5758 41.8792C58.8952 41.8792 58.2145 41.8075 57.5339 41.7001C56.9965 41.5926 56.4592 41.4135 55.9577 41.1985C55.8144 41.1269 55.6711 41.0194 55.5995 40.912C55.5278 40.7687 55.4562 40.5896 55.492 40.4463V39.7656C55.492 39.4791 55.5995 39.3716 55.7786 39.3716H55.9577C56.0652 39.3716 56.1368 39.4791 56.2443 39.4791C56.71 39.694 57.2115 39.8373 57.713 39.9806C58.2145 40.088 58.7519 40.1597 59.2892 40.1597C59.9698 40.1955 60.6505 40.0164 61.2595 39.6582C61.4744 39.5149 61.6535 39.2999 61.761 39.085C61.8684 38.8701 61.9401 38.6193 61.9401 38.3327C61.9759 38.1536 61.9401 37.9745 61.8684 37.8312C61.7968 37.6879 61.6893 37.5446 61.546 37.4372C61.152 37.1148 60.7221 36.864 60.2206 36.7565L58.2503 36.1834C57.4264 35.9684 56.6741 35.5027 56.101 34.8579C55.6711 34.2848 55.4204 33.6041 55.4204 32.8877C55.4204 32.3503 55.5636 31.8488 55.8144 31.4189C56.3517 30.5592 57.2115 29.9502 58.1787 29.6636C58.716 29.4845 59.2892 29.4129 59.8266 29.4487C60.1131 29.4487 60.4355 29.4845 60.7221 29.5562C61.0087 29.592 61.3311 29.6278 61.6177 29.7353C61.9043 29.8428 62.1192 29.8428 62.4058 29.9144C62.6924 30.0219 62.7998 30.0219 62.9789 30.0935C63.1222 30.1652 63.2655 30.2726 63.373 30.3801C63.4446 30.5234 63.4805 30.7025 63.4805 30.8816V31.4548C63.4805 31.7414 63.373 31.8488 63.1939 31.8488C63.0148 31.8488 62.8357 31.7772 62.6924 31.6697C61.8684 31.3115 60.9729 31.1324 60.0773 31.1682C59.4683 31.1682 58.8593 31.2757 58.322 31.5622C58.1071 31.6697 57.9279 31.8488 57.8205 32.0638C57.713 32.2787 57.6772 32.5295 57.713 32.7444C57.713 32.9235 57.713 33.1026 57.7847 33.2817C57.8563 33.4608 57.9638 33.6041 58.1071 33.7116C58.5011 34.1057 59.0384 34.3206 59.5758 34.3922L61.4386 34.9654C62.2267 35.2162 62.9431 35.646 63.4805 36.2908C63.8745 36.8282 64.0895 37.5088 64.0536 38.1536C64.0536 38.691 63.9462 39.2641 63.6596 39.7298C63.4446 40.1955 63.0864 40.6254 62.6924 40.912C62.2267 41.2344 61.7252 41.4851 61.2236 41.7001C60.6863 41.8434 60.1131 41.8792 59.54 41.8792H59.5758Z" fill="#EBEBEB"></path>
    <path d="M62.1549 48.2556C57.3546 51.4797 51.6946 53.1992 45.9272 53.1633C38.6194 53.1633 31.5981 50.4766 26.1531 45.5689C25.759 45.1749 26.1531 44.6734 26.6546 44.9958C32.637 48.5064 39.4791 50.3333 46.4287 50.2975C51.623 50.2617 56.7815 49.2587 61.5817 47.2526C62.2265 46.966 62.8713 47.7541 62.1549 48.2556ZM62.8355 51.2289C62.6564 51.623 63.0504 51.8021 63.4445 51.5155C65.8088 49.5452 66.382 45.4256 65.8804 44.8166C65.3789 44.2435 61.2593 43.742 58.7875 45.4973C58.3935 45.7839 58.501 46.1779 58.895 46.0704C60.2205 45.8913 63.4445 45.4973 64.0177 46.2854C64.5908 47.1093 63.337 49.9393 62.8355 51.2289Z" fill="#EBEBEB"></path>
  </g>
</svg>
