<svg width="1136" height="160" viewBox="0 0 1136 160" fill="none" xmlns="http://www.w3.org/2000/svg">
<mask id="mask0_2495_114118" style="mask-type:alpha" maskUnits="userSpaceOnUse" x="0" y="-18" width="1136" height="196">
<rect y="-18" width="1136" height="196" fill="url(#paint0_linear_2495_114118)"/>
</mask>
<g mask="url(#mask0_2495_114118)">
<g opacity="0.1">
<path opacity="0.1" d="M767.242 118.124C765.698 116.088 738.039 84.5681 738.039 84.5681L796.446 93.7644L767.242 118.124Z" fill="#FFE0CC"/>
</g>
<g opacity="0.05">
<path opacity="0.05" d="M850.711 121.213L881.74 70.5286L901.466 107.243L850.711 121.213Z" fill="#FFE0CC"/>
</g>
<g opacity="0.05">
<path opacity="0.05" d="M929.757 39.0791L993.78 80.006L979.459 43.7825L929.757 39.0791Z" fill="#FFE0CC"/>
</g>
<g opacity="0.2">
<path opacity="0.2" d="M1067.56 60.4194L1112.35 86.4638L1083.92 42.6587L1067.56 60.4194Z" fill="#FFE0CC"/>
</g>
<g opacity="0.1">
<path opacity="0.1" d="M1032.81 177.234L1074.09 212.896L1122.18 154.77L1032.81 177.234Z" fill="#FFE0CC"/>
</g>
<g opacity="0.2">
<path opacity="0.2" d="M650.429 147.047L671.91 119.95L703.36 145.854L650.429 147.047Z" fill="#FFE0CC"/>
</g>
<g opacity="0.2">
<path opacity="0.2" d="M787.039 175.478L802.764 158.279L827.264 187.412L787.039 175.478Z" fill="#FFE0CC"/>
</g>
<g opacity="0.1">
<path opacity="0.1" d="M924.141 143.818L958.89 137.359L901.466 107.243L924.141 143.818Z" fill="#FFE0CC"/>
</g>
<g opacity="0.1">
<path opacity="0.1" d="M1013.22 41.6758L1000.59 10.928L1051.84 -6.83276L1013.22 41.6758Z" fill="#FFE0CC"/>
</g>
<path d="M772.857 117.071C772.295 113.982 769.347 111.947 766.258 112.508C763.169 113.07 761.134 116.018 761.695 119.107C762.257 122.196 765.205 124.232 768.294 123.67C771.383 123.108 773.419 120.16 772.857 117.071Z" fill="#FFE0CC"/>
<path d="M1002.35 16.3252C1005.34 15.3428 1006.96 12.1285 1005.98 9.14571C1004.99 6.16294 1001.78 4.54124 998.796 5.52357C995.813 6.50589 994.191 9.72027 995.174 12.703C996.156 15.6858 999.37 17.3075 1002.35 16.3252Z" fill="#FFE0CC"/>
<path d="M853.519 120.651C853.238 119.107 851.764 118.124 850.219 118.405C848.675 118.686 847.692 120.16 847.973 121.704C848.254 123.249 849.728 124.232 851.272 123.951C852.747 123.67 853.8 122.196 853.519 120.651Z" fill="#FFE0CC"/>
<path d="M996.587 79.4449C996.306 77.9005 994.832 76.9176 993.287 77.1984C991.743 77.4792 990.76 78.9535 991.041 80.4979C991.322 82.0423 992.796 83.0251 994.34 82.7443C995.885 82.4635 996.868 80.9893 996.587 79.4449Z" fill="#FFE0CC"/>
<path d="M1126.67 153.927C1126.18 151.47 1123.86 149.855 1121.33 150.276C1118.88 150.768 1117.26 153.084 1117.68 155.611C1118.17 158.068 1120.49 159.683 1123.02 159.262C1125.47 158.77 1127.09 156.384 1126.67 153.927Z" fill="#FFE0CC"/>
<path d="M881.739 72.2134C882.669 72.2134 883.423 71.4591 883.423 70.5286C883.423 69.5981 882.669 68.8438 881.739 68.8438C880.808 68.8438 880.054 69.5981 880.054 70.5286C880.054 71.4591 880.808 72.2134 881.739 72.2134Z" fill="#FFE0CC"/>
<path d="M1016.03 41.1856C1015.75 39.6412 1014.28 38.6584 1012.73 38.9392C1011.19 39.22 1010.21 40.6942 1010.49 42.2386C1010.77 43.783 1012.24 44.7658 1013.79 44.485C1015.26 44.2042 1016.31 42.73 1016.03 41.1856Z" fill="#FFE0CC"/>
<path d="M901.324 104.436C899.779 104.506 898.516 105.84 898.586 107.384C898.656 108.929 899.99 110.192 901.534 110.122C903.079 110.052 904.342 108.718 904.272 107.174C904.202 105.559 902.868 104.366 901.324 104.436Z" fill="#FFE0CC"/>
<path d="M874.087 149.224C871.911 149.294 870.156 151.19 870.296 153.366C870.367 155.542 872.262 157.297 874.438 157.157C876.615 157.086 878.37 155.191 878.229 153.015C878.089 150.839 876.334 149.154 874.087 149.224Z" fill="#FFE0CC"/>
<path d="M737.969 81.6904C736.424 81.7606 735.161 83.0944 735.231 84.6389C735.301 86.1833 736.635 87.4469 738.179 87.3767C739.724 87.3065 740.987 85.9727 740.917 84.4283C740.847 82.8839 739.513 81.6904 737.969 81.6904Z" fill="#FFE0CC"/>
<path d="M1000.73 134.13C1001.66 134.13 1002.41 133.376 1002.41 132.446C1002.41 131.515 1001.66 130.761 1000.73 130.761C999.798 130.761 999.044 131.515 999.044 132.446C999.044 133.376 999.798 134.13 1000.73 134.13Z" fill="#FFE0CC"/>
<path d="M1070.37 59.8582C1070.09 58.3138 1068.61 57.331 1067.07 57.6118C1065.52 57.8926 1064.54 59.3668 1064.82 60.9112C1065.1 62.4556 1066.58 63.4384 1068.12 63.1576C1069.6 62.8768 1070.65 61.4026 1070.37 59.8582Z" fill="#FFE0CC"/>
<path d="M674.717 119.387C674.436 117.843 672.962 116.86 671.418 117.141C669.873 117.422 668.891 118.896 669.171 120.44C669.452 121.985 670.926 122.967 672.471 122.687C674.015 122.476 674.998 120.932 674.717 119.387Z" fill="#FFE0CC"/>
<path d="M598.339 125.003C598.058 123.459 596.584 122.476 595.039 122.757C593.495 123.038 592.512 124.512 592.793 126.056C593.074 127.601 594.548 128.584 596.092 128.303C597.637 128.092 598.62 126.548 598.339 125.003Z" fill="#FFE0CC"/>
<path d="M653.237 146.555C652.956 145.011 651.482 144.028 649.938 144.309C648.393 144.59 647.411 146.064 647.691 147.608C647.972 149.153 649.446 150.135 650.991 149.855C652.465 149.574 653.518 148.1 653.237 146.555Z" fill="#FFE0CC"/>
<path d="M706.168 145.293C705.887 143.749 704.413 142.766 702.868 143.047C701.324 143.327 700.341 144.802 700.622 146.346C700.903 147.89 702.377 148.873 703.921 148.592C705.396 148.382 706.449 146.837 706.168 145.293Z" fill="#FFE0CC"/>
<path d="M799.253 93.2732C798.973 91.7288 797.498 90.746 795.954 91.0268C794.41 91.3076 793.427 92.7818 793.707 94.3262C793.988 95.8706 795.463 96.8535 797.007 96.5727C798.551 96.2919 799.534 94.8176 799.253 93.2732Z" fill="#FFE0CC"/>
<path d="M805.571 157.788C805.29 156.244 803.816 155.261 802.272 155.542C800.727 155.823 799.745 157.297 800.025 158.841C800.306 160.386 801.78 161.369 803.325 161.088C804.799 160.807 805.852 159.333 805.571 157.788Z" fill="#FFE0CC"/>
<path d="M802.693 53.3999C803.623 53.3999 804.377 52.6456 804.377 51.7151C804.377 50.7846 803.623 50.0303 802.693 50.0303C801.762 50.0303 801.008 50.7846 801.008 51.7151C801.008 52.6456 801.762 53.3999 802.693 53.3999Z" fill="#FFE0CC"/>
<path d="M684.967 92.9233C684.827 92.0107 683.915 91.3789 683.002 91.5895C682.089 91.7299 681.457 92.6425 681.668 93.5551C681.809 94.4677 682.721 95.0995 683.634 94.8889C684.546 94.7485 685.178 93.9061 684.967 92.9233Z" fill="#FFE0CC"/>
<path d="M590.477 88.5708C590.336 87.6581 589.424 87.0263 588.511 87.2369C587.599 87.3773 586.967 88.2899 587.177 89.2026C587.318 90.1152 588.23 90.747 589.143 90.5364C590.056 90.396 590.687 89.4834 590.477 88.5708Z" fill="#FFE0CC"/>
<path d="M1095.99 7.41745C1095.85 6.78564 1095.29 6.36444 1094.66 6.50484C1094.02 6.64524 1093.6 7.20685 1093.74 7.83865C1093.88 8.47046 1094.45 8.89165 1095.08 8.75125C1095.71 8.61085 1096.13 7.97905 1095.99 7.41745Z" fill="#FFE0CC"/>
<path d="M1066.65 153.715C1066.51 153.083 1065.94 152.662 1065.31 152.803C1064.68 152.943 1064.26 153.505 1064.4 154.136C1064.54 154.768 1065.1 155.189 1065.73 155.049C1066.37 154.909 1066.79 154.277 1066.65 153.715Z" fill="#FFE0CC"/>
<path d="M877.106 138.061C876.966 137.429 876.404 137.008 875.772 137.148C875.14 137.289 874.719 137.85 874.86 138.482C875 139.114 875.562 139.535 876.193 139.395C876.825 139.324 877.246 138.693 877.106 138.061Z" fill="#FFE0CC"/>
<path d="M396.792 52.8378C396.722 52.5572 396.442 52.3468 396.161 52.4169C395.88 52.4871 395.67 52.7676 395.74 53.0482C395.81 53.3288 396.091 53.5393 396.371 53.4691C396.652 53.399 396.862 53.1184 396.792 52.8378Z" fill="#FFE0CC"/>
<path d="M944.708 2.15323C944.638 1.87264 944.358 1.6622 944.077 1.73235C943.797 1.80249 943.586 2.08308 943.656 2.36367C943.726 2.64425 944.007 2.85468 944.288 2.78454C944.568 2.71439 944.779 2.43381 944.708 2.15323Z" fill="#FFE0CC"/>
<path d="M860.537 31.8476C860.467 31.567 860.187 31.3565 859.906 31.4267C859.626 31.4968 859.415 31.7774 859.485 32.058C859.555 32.3386 859.836 32.549 860.117 32.4789C860.397 32.4087 860.608 32.1281 860.537 31.8476Z" fill="#FFE0CC"/>
<path d="M720.628 84.9203C720.558 84.6397 720.278 84.4293 719.997 84.4994C719.716 84.5696 719.506 84.8502 719.576 85.1308C719.646 85.4114 719.927 85.6218 720.207 85.5516C720.418 85.5516 720.628 85.271 720.628 84.9203Z" fill="#FFE0CC"/>
<path d="M746.392 54.5221C746.322 54.2415 746.041 54.0311 745.761 54.1012C745.48 54.1714 745.27 54.452 745.34 54.7326C745.41 55.0131 745.691 55.2236 745.971 55.1534C746.252 55.1534 746.462 54.8729 746.392 54.5221Z" fill="#FFE0CC"/>
<path d="M636.668 112.367C636.949 112.227 637.019 111.876 636.879 111.596C636.739 111.315 636.388 111.245 636.107 111.385C635.827 111.526 635.757 111.876 635.897 112.157C636.037 112.438 636.388 112.508 636.668 112.367Z" fill="#FFE0CC"/>
<path d="M648.533 91.3068C648.813 91.1665 648.883 90.8158 648.743 90.5352C648.603 90.2546 648.252 90.1845 647.972 90.3248C647.691 90.4651 647.621 90.8158 647.761 91.0964C647.901 91.377 648.252 91.4471 648.533 91.3068Z" fill="#FFE0CC"/>
<path d="M554.533 149.783C554.814 149.643 554.884 149.292 554.744 149.012C554.603 148.731 554.253 148.661 553.972 148.801C553.691 148.942 553.621 149.292 553.762 149.573C553.902 149.854 554.253 149.994 554.533 149.783Z" fill="#FFE0CC"/>
<path d="M832.107 60.4197C831.195 60.4899 830.423 61.2621 830.493 62.1747C830.563 63.0873 831.335 63.8596 832.248 63.7894C833.16 63.7192 833.933 62.9469 833.862 62.0343C833.792 61.1217 833.02 60.3495 832.107 60.4197Z" fill="#FFE0CC"/>
<path d="M979.389 42.0972C978.476 42.1674 977.704 42.9396 977.774 43.8522C977.844 44.7648 978.616 45.537 979.529 45.4668C980.442 45.3966 981.214 44.6244 981.144 43.7118C981.144 42.7992 980.371 42.0972 979.389 42.0972Z" fill="#FFE0CC"/>
<path d="M1115.16 85.9019C1114.88 84.3575 1113.4 83.3747 1111.86 83.6555C1110.31 83.9363 1109.33 85.4105 1109.61 86.9549C1109.89 88.4993 1111.37 89.4821 1112.91 89.2013C1114.38 88.9205 1115.44 87.4463 1115.16 85.9019Z" fill="#FFE0CC"/>
<path d="M932.563 38.587C932.283 37.0425 930.808 36.0597 929.264 36.3405C927.72 36.6213 926.737 38.0955 927.018 39.64C927.298 41.1844 928.773 42.1672 930.317 41.8864C931.791 41.6056 932.844 40.1314 932.563 38.587Z" fill="#FFE0CC"/>
<path d="M961.698 136.798C961.417 135.253 959.943 134.27 958.398 134.551C956.854 134.832 955.871 136.306 956.152 137.851C956.433 139.395 957.907 140.378 959.451 140.097C960.925 139.886 961.978 138.342 961.698 136.798Z" fill="#FFE0CC"/>
<path d="M890.304 24.5459C890.023 23.0015 888.549 22.0187 887.004 22.2995C885.46 22.5803 884.477 24.0545 884.758 25.5989C885.039 27.1434 886.513 28.1262 888.057 27.8454C889.531 27.5646 890.584 26.0903 890.304 24.5459Z" fill="#FFE0CC"/>
<path d="M1075.77 104.365C1075.49 102.821 1074.02 101.838 1072.47 102.119C1070.93 102.4 1069.95 103.874 1070.23 105.418C1070.51 106.963 1071.98 107.945 1073.53 107.665C1075.07 107.384 1076.05 105.91 1075.77 104.365Z" fill="#FFE0CC"/>
<g opacity="0.3">
<path opacity="0.3" d="M951.94 189.378L996.588 158.069L958.82 137.711L916.349 145.643L910.171 193.309L899.711 148.732L874.369 153.506L827.053 187.904L814.487 149.645L802.694 158.771L767.313 118.476L740.496 140.799L741.619 170.213L713.539 163.193L681.949 189.519L624.525 163.825L560.502 198.785L595.181 125.425L595.251 125.285L672.542 119.599L650.92 146.907L713.399 162.491L739.935 140.448L737.758 83.6561L767.453 117.493L796.657 93.2034L814.839 148.521L850.5 120.933L881.95 69.6862L900.273 147.96L915.787 145.082L922.175 95.4498L900.834 108.016L930.389 36.8324L922.947 94.3266L1013.16 41.3954L1068.12 60.3495L1016.17 116.51L1028.04 136.166L1072.83 104.786L1073.18 104.506L1097.82 183.902L1121.9 154.769L1112.07 86.6747L1050.78 -7.81519L1217.72 103.523L1218 103.733L1151.59 187.693L1116.63 246.872L1097.54 185.236L1074.09 213.597L1027.83 137.079L997.781 158.139L1033.16 177.233L1019.54 248.136L951.94 189.378ZM997.22 158.42L952.993 189.448L1019.19 246.802L1032.53 177.444L997.22 158.42ZM1052.96 -5.70917L1112.63 86.3237L1112.7 86.3939L1122.6 154.769V154.91L1098.1 184.534L1116.91 245.188L1151.17 187.202L1217.16 103.733L1052.96 -5.70917ZM1072.83 105.418L1028.39 136.587L1074.16 212.334L1097.33 184.394L1072.83 105.418ZM681.949 188.746L712.907 162.983L649.937 147.258L671.278 120.301L595.813 125.847L561.976 197.311L624.455 163.193L624.595 163.123L681.949 188.746ZM900.343 148.592L909.96 189.729L915.647 145.713L900.343 148.592ZM881.599 71.371L850.922 121.354V121.424L814.979 149.223L827.404 186.921L874.088 152.944L899.571 148.17L881.599 71.371ZM714.241 162.702L741.058 169.371L740.005 141.291L714.241 162.702ZM796.306 94.3266L767.804 118.054L802.764 157.928L814.277 149.013L796.306 94.3266ZM1015.75 116.861L1000.52 133.288L993.288 78.5315L1015.82 115.808L1067 60.4899L1013.23 41.957L922.807 94.9584L916.349 144.871L958.75 136.938H958.89L997.079 157.577L1027.41 136.307L1015.75 116.861ZM738.39 85.4111L740.496 139.957L766.892 117.914L738.39 85.4111ZM994.341 81.4097L1001.01 131.884L1015.4 116.299L994.341 81.4097ZM929.125 41.3954L902.098 106.541L922.245 94.6776L929.125 41.3954Z" fill="#FFE0CC"/>
</g>
<path d="M594.619 124.863L651.131 147.047L624.525 163.895L594.619 124.863ZM596.515 126.267L624.665 163.052L649.727 147.187L596.515 126.267Z" fill="#FFE0CC"/>
<path d="M703.321 145.511L650.405 146.741L650.42 147.372L703.335 146.142L703.321 145.511Z" fill="#FFE0CC"/>
<g opacity="0.8">
<path opacity="0.8" d="M629.227 223.635L629.368 223.495L682.088 189.448L742.11 169.862L703.78 145.713L738.319 84.7085L737.828 84.4277L702.938 145.923L703.219 146.134L740.636 169.721L681.878 188.816L681.808 188.886L629.157 222.933L561.414 197.731L561.203 198.293L629.227 223.635Z" fill="#FFE0CC"/>
</g>
<g opacity="0.6">
<path opacity="0.6" d="M650.147 147.258L650.639 146.907L681.878 188.536L702.938 145.924L671.348 119.88L737.968 84.2178L796.445 93.4141H796.516L826.983 108.858L881.669 70.1777L994.341 79.6548L959.17 137.43L952.642 190.291L901.325 107.595L851.272 121.354L874.508 152.944L910.872 191.905L827.474 187.693L827.334 187.974L827.053 187.623L786.968 175.759L741.268 170.073L739.864 170.354L826.281 109.279L796.235 94.1161L737.968 84.9198L672.331 120.02L703.57 145.784L681.878 189.729L650.147 147.258ZM827.685 187.062L909.328 191.133L874.017 153.295L850.781 121.775L827.685 187.062ZM743.374 169.722L787.109 175.198L826.281 186.781L802.553 158.63L743.374 169.722ZM827.053 109.56L742.672 169.231L802.693 157.999H802.904L827.193 186.781L850.359 121.354L827.053 109.56ZM881.879 70.8797L827.685 109.209L850.781 120.863L901.395 106.963L901.606 106.893L952.22 188.466L958.539 137.289V137.219L993.218 80.2164L881.879 70.8797Z" fill="#FFE0CC"/>
</g>
<path d="M802.552 158.045L786.845 175.267L787.312 175.692L803.018 158.471L802.552 158.045Z" fill="#FFE0CC"/>
<path d="M831.967 61.8944L832.107 61.8242L883.284 70.5291L795.322 94.4675L831.967 61.8944ZM832.248 62.456L797.639 93.1337L880.265 70.5993L832.248 62.456Z" fill="#FFE0CC"/>
<path d="M993.498 80.0758L994.06 79.8652L979.95 44.1331L1013.65 41.9569L1000.87 10.7878L1000.31 10.9984L1012.73 41.3953L979.037 43.5013L993.498 80.0758Z" fill="#FFE0CC"/>
<path d="M1067.28 60.4894L1067.91 60.349C1067.42 57.6112 1052.82 -4.30566 1052.19 -6.90308L1051.55 -6.76268C1051.7 -6.13087 1066.72 57.6814 1067.28 60.4894Z" fill="#FFE0CC"/>
<g opacity="0.8">
<path opacity="0.8" d="M1032.53 177.444L1033.02 177.093L1000.87 132.235L1000.73 132.305L958.958 137.009L901.675 107.033L882.089 70.4586L887.775 25.5303L929.755 39.43L979.668 44.1334L1000.8 11.1392L1050.92 -6.20036L1012.94 41.536L993.216 80.4973L1067.28 60.771L1072.68 104.997L1121.96 154.98L1122.39 154.559L1073.32 104.717L1067.84 59.9987L994.41 79.5145L1013.5 41.8168L1052.75 -7.53418L1000.38 10.6478L979.317 43.5016L929.825 38.7982L887.214 24.6879L881.457 70.599L901.183 107.454L901.324 107.525L958.818 137.711L1000.59 132.937L1032.53 177.444Z" fill="#FFE0CC"/>
</g>
<path d="M901.536 107.524L994.551 80.0754L929.756 38.7273L881.599 70.2473L881.95 70.8089L929.756 39.4293L993.077 79.8648L901.325 106.962L901.536 107.524Z" fill="#FFE0CC"/>
<g opacity="0.3">
<path opacity="0.3" d="M738.109 84.8486L832.318 62.3845L887.636 25.3888L998.202 11.5593L929.616 38.7971L929.897 39.3587L1002.98 10.2957L887.355 24.757L887.285 24.8272L832.037 61.8229L737.968 84.2168L738.109 84.8486Z" fill="#FFE0CC"/>
</g>
<path d="M1116.63 246.24L1162.54 236.623L1195.47 173.723L1194.9 173.442L1162.12 236.061L1116.77 245.609L1074.79 212.965L1151.87 187.553L1122.32 154.418L1122.11 154.488L1033.44 176.812L1073.25 105.137L1112.98 86.464L1068.05 60.3493L1143.38 -21.2939L1142.88 -21.7151L1067.07 60.4898L1111.65 86.3938L1072.75 104.646L1072.68 104.716L1032.18 177.725L1032.88 177.584L1122.11 155.12L1150.75 187.202L1073.46 212.755L1116.63 246.24Z" fill="#FFE0CC"/>
<path d="M993.498 80.0764L1073.95 104.787L1000.45 133.008L993.498 80.0764ZM994.27 80.989L1001.01 132.165L1072.05 104.927L994.27 80.989Z" fill="#FFE0CC"/>
<path d="M1122.39 155.05L1182.83 114.263L1112.7 86.2534L1140.22 5.0314L1139.59 4.8208L1111.93 86.6044L1181.5 114.404L1122.04 154.488L1122.39 155.05Z" fill="#FFE0CC"/>
<g opacity="0.05">
<path opacity="0.05" d="M303.988 141.642L261.236 182.92L251.408 142.414L303.988 141.642Z" fill="#FFE0CC"/>
</g>
<g opacity="0.05">
<path opacity="0.05" d="M206.902 201.383L155.164 145.714L160.008 184.324L206.902 201.383Z" fill="#FFE0CC"/>
</g>
<g opacity="0.2">
<path opacity="0.2" d="M78.8553 146.275L42 109.841L58.5673 159.332L78.8553 146.275Z" fill="#FFE0CC"/>
</g>
<g opacity="0.1">
<path opacity="0.1" d="M141.684 41.8162L110.585 -3.04199L49.5107 41.2546L141.684 41.8162Z" fill="#FFE0CC"/>
</g>
<g opacity="0.2">
<path opacity="0.2" d="M504.411 166.635L476.752 187.484L452.813 154.56L504.411 166.635Z" fill="#FFE0CC"/>
</g>
<g opacity="0.2">
<path opacity="0.2" d="M379.173 104.927L359.728 117.633L343.23 83.3755L379.173 104.927Z" fill="#FFE0CC"/>
</g>
<g opacity="0.1">
<path opacity="0.1" d="M238.561 101.346L203.32 98.8887L251.408 142.413L238.561 101.346Z" fill="#FFE0CC"/>
</g>
<path d="M340.422 83.1642C340.282 84.7086 341.475 86.1126 343.09 86.1828C344.634 86.3232 346.038 85.1298 346.109 83.5152C346.249 81.9708 345.056 80.5668 343.441 80.4966C341.897 80.4264 340.493 81.6198 340.422 83.1642Z" fill="#FFE0CC"/>
<path d="M378.33 165.087C378.12 168.246 380.507 170.914 383.595 171.125C386.754 171.335 389.422 168.948 389.633 165.86C389.843 162.701 387.456 160.033 384.368 159.822C381.279 159.612 378.541 161.928 378.33 165.087Z" fill="#FFE0CC"/>
<path d="M301.18 141.43C301.04 142.975 302.233 144.379 303.848 144.449C305.392 144.589 306.796 143.396 306.866 141.781C307.007 140.237 305.813 138.833 304.199 138.763C302.654 138.693 301.25 139.886 301.18 141.43Z" fill="#FFE0CC"/>
<path d="M138.876 41.6059C138.736 43.1503 139.929 44.5543 141.544 44.6245C143.089 44.7649 144.493 43.5715 144.563 41.9569C144.703 40.4125 143.51 39.0084 141.895 38.9382C140.351 38.868 139.017 40.0615 138.876 41.6059Z" fill="#FFE0CC"/>
<path d="M152.285 145.573C152.144 147.118 153.338 148.522 154.952 148.592C156.497 148.732 157.901 147.539 157.971 145.924C158.111 144.38 156.918 142.976 155.303 142.906C153.759 142.836 152.425 143.959 152.285 145.573Z" fill="#FFE0CC"/>
<path d="M45.019 40.9037C44.8786 43.4309 46.7741 45.6071 49.2311 45.7475C51.6881 45.8879 53.9345 43.9925 54.0749 41.5355C54.2153 39.0785 52.3199 36.8321 49.8629 36.6916C47.3357 36.5512 45.1594 38.4467 45.019 40.9037Z" fill="#FFE0CC"/>
<path d="M250.777 145.222C252.321 145.573 253.795 144.59 254.146 143.046C254.497 141.501 253.514 140.027 251.97 139.676C250.426 139.325 248.951 140.308 248.6 141.852C248.249 143.327 249.232 144.871 250.777 145.222Z" fill="#FFE0CC"/>
<path d="M288.333 108.647C290.509 109.139 292.616 107.735 293.037 105.629C293.528 103.452 292.124 101.346 290.018 100.925C287.842 100.434 285.736 101.838 285.315 103.944C284.823 106.05 286.157 108.156 288.333 108.647Z" fill="#FFE0CC"/>
<path d="M421.644 123.529C422.557 123.74 423.47 123.178 423.68 122.195C423.891 121.283 423.329 120.37 422.346 120.159C421.434 119.949 420.521 120.51 420.31 121.493C420.17 122.476 420.732 123.389 421.644 123.529Z" fill="#FFE0CC"/>
<path d="M594.97 128.304C596.514 128.655 597.989 127.672 598.34 126.127C598.691 124.583 597.708 123.109 596.163 122.758C594.619 122.407 593.145 123.389 592.794 124.934C592.443 126.478 593.426 128.023 594.97 128.304Z" fill="#FFE0CC"/>
<path d="M219.749 49.9605C219.608 51.5049 220.802 52.9089 222.416 52.9791C223.961 53.1195 225.365 51.9261 225.435 50.3115C225.575 48.7671 224.382 47.3631 222.767 47.2929C221.153 47.2227 219.819 48.3459 219.749 49.9605Z" fill="#FFE0CC"/>
<path d="M159.867 93.1317C159.797 94.0443 160.499 94.8867 161.482 94.9569C162.394 95.0271 163.237 94.3251 163.307 93.3423C163.377 92.4297 162.675 91.5872 161.692 91.517C160.71 91.4468 159.937 92.1489 159.867 93.1317Z" fill="#FFE0CC"/>
<path d="M75.977 146.064C75.8366 147.609 77.0301 149.013 78.6447 149.083C80.1891 149.223 81.5931 148.03 81.6633 146.415C81.8037 144.871 80.6103 143.467 78.9957 143.396C77.4513 143.326 76.1174 144.52 75.977 146.064Z" fill="#FFE0CC"/>
<path d="M534.903 158.17C535.428 157.401 535.231 156.353 534.462 155.828C533.694 155.303 532.646 155.5 532.121 156.268C531.596 157.036 531.793 158.085 532.561 158.61C533.329 159.135 534.378 158.938 534.903 158.17Z" fill="#FFE0CC"/>
<path d="M480.402 117.703C480.262 119.879 481.876 121.775 484.123 121.915C486.299 122.055 488.194 120.441 488.335 118.194C488.475 116.018 486.861 114.123 484.614 113.982C482.368 113.842 480.542 115.527 480.402 117.703Z" fill="#FFE0CC"/>
<path d="M450.005 154.348C449.865 155.892 451.058 157.296 452.673 157.366C454.217 157.507 455.621 156.313 455.692 154.699C455.832 153.154 454.639 151.75 453.024 151.68C451.48 151.61 450.076 152.803 450.005 154.348Z" fill="#FFE0CC"/>
<path d="M356.849 117.492C356.709 119.036 357.902 120.44 359.517 120.511C361.061 120.651 362.465 119.458 362.535 117.843C362.676 116.299 361.482 114.895 359.868 114.824C358.323 114.754 356.99 115.877 356.849 117.492Z" fill="#FFE0CC"/>
<path d="M261.236 58.4538C261.095 59.9982 262.289 61.4022 263.903 61.4724C265.448 61.6128 266.852 60.4194 266.922 58.8048C267.062 57.2604 265.869 55.8563 264.254 55.7861C262.71 55.7159 261.376 56.9094 261.236 58.4538Z" fill="#FFE0CC"/>
<path d="M309.535 48.2745C309.465 49.1871 310.167 50.0295 311.15 50.0997C312.062 50.1699 312.905 49.4679 312.975 48.4851C313.045 47.5725 312.343 46.7301 311.36 46.6599C310.448 46.6599 309.605 47.3619 309.535 48.2745Z" fill="#FFE0CC"/>
<path d="M402.339 97.8367C402.269 98.7493 402.971 99.5917 403.953 99.6619C404.866 99.7321 405.708 99.0301 405.779 98.0473C405.849 97.1347 405.147 96.2923 404.164 96.2221C403.251 96.1519 402.409 96.8539 402.339 97.8367Z" fill="#FFE0CC"/>
<path d="M244.177 30.795C244.107 31.7076 244.809 32.55 245.791 32.6202C246.704 32.6904 247.546 31.9884 247.617 31.0056C247.687 30.093 246.985 29.2506 246.002 29.1804C245.019 29.1804 244.177 29.8824 244.177 30.795Z" fill="#FFE0CC"/>
<path d="M103.004 56.1377C102.934 56.7695 103.425 57.3311 104.057 57.3311C104.689 57.4013 105.25 56.9099 105.25 56.2781C105.32 55.6463 104.829 55.0847 104.197 55.0847C103.565 55.0847 103.074 55.5059 103.004 56.1377Z" fill="#FFE0CC"/>
<path d="M461.307 112.299C461.237 112.931 461.729 113.492 462.36 113.492C462.992 113.563 463.554 113.071 463.554 112.439C463.624 111.808 463.133 111.246 462.501 111.246C461.939 111.176 461.378 111.667 461.307 112.299Z" fill="#FFE0CC"/>
<path d="M282.647 118.615C282.577 119.247 283.069 119.809 283.7 119.809C284.332 119.879 284.894 119.387 284.894 118.756C284.964 118.124 284.473 117.562 283.841 117.562C283.209 117.562 282.718 118.054 282.647 118.615Z" fill="#FFE0CC"/>
<path d="M225.293 19.7025C225.293 19.9831 225.503 20.2637 225.854 20.3338C226.135 20.3338 226.415 20.1234 226.485 19.7727C226.485 19.4921 226.275 19.2115 225.924 19.1414C225.574 19.2115 225.293 19.4219 225.293 19.7025Z" fill="#FFE0CC"/>
<path d="M365.905 53.3295C365.905 53.6101 366.116 53.8906 366.466 53.9608C366.747 53.9608 367.028 53.7504 367.098 53.3996C367.098 53.119 366.887 52.8385 366.537 52.7683C366.186 52.7683 365.905 53.0489 365.905 53.3295Z" fill="#FFE0CC"/>
<path d="M527.367 81.8307C527.367 82.1113 527.578 82.3919 527.928 82.462C528.209 82.462 528.49 82.2516 528.56 81.9008C528.56 81.6203 528.349 81.3397 527.998 81.2695C527.648 81.2695 527.367 81.5501 527.367 81.8307Z" fill="#FFE0CC"/>
<path d="M536.634 38.4462C536.634 38.7268 536.844 39.0074 537.195 39.0775C537.476 39.0775 537.756 38.8671 537.826 38.5163C537.826 38.2357 537.616 37.9552 537.265 37.885C536.914 37.885 536.634 38.1656 536.634 38.4462Z" fill="#FFE0CC"/>
<path d="M580.719 89.6227C580.719 89.9033 580.929 90.1839 581.28 90.254C581.56 90.254 581.841 90.0436 581.911 89.6929C581.911 89.4123 581.701 89.1317 581.35 89.0615C580.999 89.1317 580.719 89.3421 580.719 89.6227Z" fill="#FFE0CC"/>
<path d="M501.603 68.0714C501.603 68.352 501.813 68.6326 502.164 68.7027C502.444 68.7027 502.725 68.4923 502.795 68.1416C502.795 67.861 502.585 67.5804 502.234 67.5103C501.883 67.5103 501.603 67.7908 501.603 68.0714Z" fill="#FFE0CC"/>
<path d="M296.547 20.0541C296.547 20.3347 296.757 20.6153 297.108 20.6854C297.389 20.6854 297.669 20.475 297.739 20.1242C297.739 19.8437 297.529 19.5631 297.178 19.4929C296.827 19.4929 296.547 19.7735 296.547 20.0541Z" fill="#FFE0CC"/>
<path d="M445.022 68.7028C445.022 68.9834 445.233 69.2639 445.584 69.3341C445.864 69.3341 446.145 69.1236 446.215 68.7729C446.215 68.4923 446.004 68.2117 445.654 68.1416C445.303 68.1416 445.022 68.4222 445.022 68.7028Z" fill="#FFE0CC"/>
<path d="M694.514 50.3108C694.233 50.3809 694.023 50.7317 694.093 51.0123C694.163 51.2928 694.514 51.5033 694.794 51.4331C695.075 51.363 695.285 51.0122 695.215 50.7317C695.145 50.3809 694.794 50.1705 694.514 50.3108Z" fill="#FFE0CC"/>
<path d="M551.234 131.183C550.954 131.253 550.743 131.603 550.813 131.884C550.884 132.165 551.234 132.375 551.515 132.305C551.795 132.235 552.006 131.884 551.936 131.603C551.866 131.253 551.585 131.112 551.234 131.183Z" fill="#FFE0CC"/>
<path d="M340.493 51.7154C340.423 52.3472 340.914 52.9088 341.546 52.9088C342.178 52.979 342.739 52.4876 342.739 51.8558C342.81 51.224 342.318 50.6624 341.686 50.6624C341.055 50.6624 340.563 51.0836 340.493 51.7154Z" fill="#FFE0CC"/>
<path d="M176.435 24.4066C176.364 25.3192 177.066 26.1616 178.049 26.2318C178.962 26.302 179.804 25.6 179.874 24.6172C179.945 23.7046 179.243 22.8621 178.26 22.7919C177.277 22.7217 176.505 23.4237 176.435 24.4066Z" fill="#FFE0CC"/>
<path d="M496.407 100.434C496.337 101.346 497.039 102.189 498.022 102.259C498.934 102.329 499.777 101.627 499.847 100.644C499.917 99.7319 499.215 98.8895 498.232 98.8193C497.32 98.7491 496.477 99.4511 496.407 100.434Z" fill="#FFE0CC"/>
<path d="M377.488 104.787C377.418 105.7 378.12 106.542 379.103 106.612C380.015 106.682 380.858 105.98 380.928 104.998C380.998 104.085 380.296 103.243 379.313 103.172C378.401 103.172 377.558 103.874 377.488 104.787Z" fill="#FFE0CC"/>
<path d="M542.318 98.047C542.248 98.9597 542.95 99.8021 543.933 99.8723C544.846 99.9425 545.688 99.2404 545.758 98.2576C545.828 97.345 545.126 96.5026 544.144 96.4324C543.161 96.3622 542.318 97.1344 542.318 98.047Z" fill="#FFE0CC"/>
<path d="M26.6265 2.15397C26.4861 3.69838 27.6795 5.10239 29.2941 5.17259C30.9087 5.24279 32.2425 4.11958 32.3127 2.50497C32.4531 0.960557 31.2597 -0.443456 29.6451 -0.513657C28.1007 -0.583857 26.7669 0.609554 26.6265 2.15397Z" fill="#FFE0CC"/>
<path d="M39.1919 109.63C39.0515 111.175 40.2449 112.579 41.8595 112.649C43.4039 112.789 44.8079 111.596 44.8781 109.981C45.0185 108.437 43.8251 107.033 42.2105 106.963C40.5959 106.892 39.2621 108.086 39.1919 109.63Z" fill="#FFE0CC"/>
<path d="M200.443 98.7486C200.302 100.293 201.496 101.697 203.11 101.767C204.655 101.908 206.059 100.714 206.129 99.0996C206.27 97.5552 205.076 96.1512 203.461 96.081C201.917 96.0108 200.583 97.134 200.443 98.7486Z" fill="#FFE0CC"/>
<path d="M81.8735 101.627C81.7331 103.172 82.9265 104.576 84.5411 104.646C86.0856 104.786 87.4896 103.593 87.5598 101.978C87.7002 100.434 86.5068 99.0297 84.8921 98.9595C83.3477 98.8893 81.9437 100.083 81.8735 101.627Z" fill="#FFE0CC"/>
<g opacity="0.3">
<path opacity="0.3" d="M-55.7894 67.0878L-56 66.807L29.2937 2.15226L77.9427 -46.4265L81.0315 18.0176L110.797 -3.53399L136.42 82.1107L170.818 69.1938L141.334 41.8858L172.011 -22.8391L172.222 -23.3305L223.047 50.3098L172.011 69.4746L203.461 98.678L246.635 101.626L264.536 56.9789L263.483 102.75L289.176 104.505L343.16 83.1637L343.582 83.0233L346.179 123.248L359.868 117.351L384.017 165.228L415.537 150.275L421.785 121.493L447.198 135.323L484.193 117.843L484.404 117.773L533.544 156.944L595.461 125.354L595.742 125.916L533.685 157.576L533.474 157.646L484.334 118.475L447.9 135.603L504.551 166.351L504.973 166.562L477.594 187.271L561.344 197.661L561.273 198.293L475.98 187.692L503.779 166.632L447.198 135.954L416.099 150.697L404.024 206.225L383.736 166L349.408 182.217L345.617 124.091L304.199 141.922L261.517 183.199L260.955 183.761L262.781 103.381L246.986 102.328L228.382 148.801L252.18 141.992L205.708 203.558L227.259 149.784L126.662 178.496L78.2234 146.414L142.527 105.066L135.928 83.0935L84.3309 102.469L80.3295 19.4216L49.8624 41.3944L42.351 109.77L78.0831 216.615L-55.7894 67.0878ZM77.381 -44.9523L29.7149 2.64366L-55.0874 66.9474L76.4684 213.947L41.7192 109.91V109.84L49.3008 41.0434L80.4699 18.4388L77.381 -44.9523ZM384.298 165.72L403.814 204.33L415.397 150.977L384.298 165.72ZM228.102 149.433L208.094 199.275L250.566 142.975L228.102 149.433ZM342.95 83.7955L289.316 104.996H289.246L263.413 103.241L261.587 182.076L303.778 141.29L345.477 123.318L342.95 83.7955ZM246.354 102.188L203.18 99.2396L171.309 69.6852L136.56 82.6723L143.089 104.505L161.903 92.4302L155.233 147.257L142.738 105.487L79.3467 146.204L126.732 177.583L227.61 148.871L246.354 102.188ZM359.587 118.053L346.249 123.81L349.97 181.234L383.455 165.369L359.587 118.053ZM422.276 122.406L416.309 149.924L446.496 135.533L422.276 122.406ZM143.299 105.136L155.023 144.168L161.201 93.6236L143.299 105.136ZM110.445 -2.48098L81.0315 18.7898L84.9627 101.346L135.788 82.2511L110.445 -2.48098ZM247.196 101.556L262.711 102.609L263.693 60.3485L247.196 101.556ZM172.362 -22.0669L142.106 41.7454L171.45 68.9832L222.064 50.029L172.362 -22.0669Z" fill="#FFE0CC"/>
</g>
<path d="M503.568 166.564L533.614 156.876L562.326 198.996L503.568 166.564ZM505.183 166.704L560.29 197.101L533.333 157.578L505.183 166.704Z" fill="#FFE0CC"/>
<path d="M452.914 154.241L452.77 154.856L504.309 166.919L504.453 166.304L452.914 154.241Z" fill="#FFE0CC"/>
<g opacity="0.8">
<path opacity="0.8" d="M404.094 205.454L453.234 154.558L453.094 154.348L422.697 122.196L484.403 118.335L543.934 98.4682L595.391 125.846L595.742 125.285L544.004 97.8364H543.863L484.263 117.703L421.363 121.634L452.392 154.558L403.673 205.033L404.094 205.454Z" fill="#FFE0CC"/>
</g>
<path d="M543.685 98.1484L533.188 157.17L533.81 157.281L544.307 98.259L543.685 98.1484Z" fill="#FFE0CC"/>
<g opacity="0.6">
<path opacity="0.6" d="M349.549 182.007L323.856 159.473L261.237 183.271L154.532 145.924L202.971 98.8198L222.557 49.188L251.62 142.134L303.568 141.361L288.966 104.927L263.483 58.1035L343.161 83.0247L343.372 82.7438L343.582 83.165L379.385 104.646L422.207 121.565L423.611 121.635L324.628 159.192L349.9 181.446L404.025 204.893L476.332 187.272L452.674 154.699L452.534 154.489L484.545 117.353L504.763 166.423L504.201 166.633L484.334 118.476L453.306 154.489L477.385 187.623L404.025 205.454H403.955L349.549 182.007ZM303.849 141.923L251.128 142.765L222.486 51.0834L203.602 99.0304V99.1006L155.796 145.644L261.237 182.569L323.294 158.982L303.849 141.923ZM359.658 117.985H359.448L343.161 84.0075L304.34 141.572L323.926 158.771L420.522 122.126L359.658 117.985ZM264.747 59.1565L289.458 104.576L304.059 140.87L342.74 83.4458L264.747 59.1565ZM359.939 117.353L420.101 121.424L379.104 105.208L344.003 84.2181L359.939 117.353Z" fill="#FFE0CC"/>
</g>
<g opacity="0.6">
<path opacity="0.6" d="M343.019 83.5855L343.511 83.1643L311.359 48.0641L264.114 58.3134L222.625 49.8191L141.895 41.4652L111.077 -2.83132L172.362 -22.4173L172.151 -23.0491L110.094 -3.18232L141.544 42.097H141.684L222.485 50.4509L264.114 58.9452H264.184L311.148 48.7661L343.019 83.5855Z" fill="#FFE0CC"/>
</g>
<path d="M379.056 104.645L359.544 117.392L359.889 117.921L379.402 105.174L379.056 104.645Z" fill="#FFE0CC"/>
<path d="M29.7851 2.36418C30.2063 -14.4138 31.0487 -46.4954 31.3295 -47.759L30.6977 -47.8994C30.3467 -46.2146 29.2235 0.39856 29.1533 2.36418H29.7851Z" fill="#FFE0CC"/>
<path d="M131.013 211L131.645 210.86L127.152 178.357L160.357 184.745L155.443 145.714L154.811 145.784L159.585 183.973L126.38 177.585L131.013 211Z" fill="#FFE0CC"/>
<path d="M76.8887 215.282H77.5205C77.5205 214.65 78.9245 149.013 79.1351 146.275L78.5033 146.205C78.2927 149.013 76.9589 212.614 76.8887 215.282Z" fill="#FFE0CC"/>
<g opacity="0.8">
<path opacity="0.8" d="M244.528 225.952L244.669 225.601L261.587 182.919V182.849L251.689 142.273L251.619 142.203L203.461 98.6086L161.762 92.782L142.036 41.676L141.404 41.8866L161.341 93.3436L203.18 99.2404L251.127 142.624L260.955 182.849L244.177 224.97L207.041 201.031L159.867 183.973L131.154 210.649L78.2935 214.931L127.013 178.216V178.146L155.865 145.432L79.2061 145.924L85.0327 101.768L84.9625 101.697L49.7921 41.0442L49.2305 41.3952L84.3307 101.908L78.5041 146.556L154.461 146.064L126.521 177.725L76.1875 215.703L131.435 211.21L160.077 184.675L206.76 201.663L244.528 225.952Z" fill="#FFE0CC"/>
</g>
<path d="M206.831 201.733L207.041 201.663L261.376 183.2L261.166 182.639L207.041 200.961L155.865 146.064L251.408 142.765L251.338 142.133L154.461 145.432L206.831 201.733Z" fill="#FFE0CC"/>
<path d="M-14.6527 206.928L79.3459 146.275L79.0651 145.994L42.631 110.052L84.8215 102.119L84.8917 102.049L142.456 41.4658L49.7212 40.9042L29.9949 2.64488L111.217 -2.76056L77.8015 -46.0041H77.6611L30.9075 -48.1101L30.7671 -48.0399L-16.6885 4.54029L-16.2673 4.9615L31.1883 -47.4783L77.4505 -45.3723L109.953 -3.25196L29.0121 2.08327L49.3702 41.536H49.5106L140.982 42.0976L84.5407 101.557L41.3674 109.631L78.2929 146.205L-15.0037 206.437L-14.6527 206.928Z" fill="#FFE0CC"/>
<path d="M83.7695 101.627L161.903 92.7114L155.514 145.221L155.444 145.713L83.7695 101.627ZM85.6649 102.048L155.023 144.66L161.271 93.4134L85.6649 102.048Z" fill="#FFE0CC"/>
<path d="M-4.82396 182.076L42.421 109.77L42.2104 109.559L-18.0217 65.473L49.6517 41.5346L49.4411 40.9028L-19.3555 65.2624L41.5786 109.91L-5.31536 181.725L-4.82396 182.076Z" fill="#FFE0CC"/>
</g>
<defs>
<linearGradient id="paint0_linear_2495_114118" x1="1136" y1="67.2556" x2="61" y2="67.2556" gradientUnits="userSpaceOnUse">
<stop stop-color="#FF6300"/>
<stop offset="1" stop-color="#FF6300" stop-opacity="0"/>
</linearGradient>
</defs>
</svg>
