<svg width="24" height="24" viewBox="0 0 24 24" fill="none" xmlns="http://www.w3.org/2000/svg">
<path d="M15.8086 15.9996C15.8838 15.9939 15.9545 15.9528 16.0057 15.8832L19 11.9986L16.0057 8.11408C15.934 8.01899 15.8269 7.97925 15.7255 8.01048C15.624 8.0417 15.5432 8.13821 15.5147 8.26311C15.485 8.38942 15.5124 8.52425 15.5864 8.61651L17.9119 11.6353L5.29567 11.6353C5.19084 11.6339 5.09286 11.702 5.03931 11.8156C4.9869 11.9291 4.9869 12.0682 5.03931 12.1817C5.09286 12.2953 5.19084 12.3634 5.29567 12.362L17.9119 12.362L15.5864 15.3808C15.501 15.4872 15.4771 15.6476 15.5272 15.7839C15.5762 15.9215 15.6879 16.0067 15.8086 15.9996Z" fill="#D1D2D3"/>
</svg>
