<svg width="1200" height="301" viewBox="0 0 1200 301" fill="none" xmlns="http://www.w3.org/2000/svg">
<path opacity="0.19" d="M1326.98 -70.2588C1242.83 -303.616 1009.94 -263.962 877.778 -59.1714C753.246 133.749 656.373 367.889 457.343 198.969C312.522 76.0947 48.7145 111.64 -26.1094 169.033" stroke="url(#paint0_linear_3371_597187)" stroke-miterlimit="10"/>
<path opacity="0.2212" d="M1328.94 -60.2149C1277.08 -220.852 1148.5 -257.309 1040.28 -197.568C984.828 -166.98 931.205 -114.674 886.846 -46.9753C865.971 -15.3436 845.03 16.4837 824.351 47.3979C720.367 202.687 627.996 326.213 462.496 186.251C426.878 156.185 384.215 135.706 338.42 124.227C193.861 88.0952 28.2961 113.335 -26.1094 155.076" stroke="url(#paint1_linear_3371_597187)" stroke-width="1.0192" stroke-miterlimit="10"/>
<path opacity="0.2523" d="M1330.9 -50.1713C1283.14 -216.221 1147.65 -254.505 1045.37 -189.742C991.938 -155.893 940.534 -101.369 895.913 -34.7794C874.712 -3.14777 852.467 27.7012 830.614 57.5067C722.259 205.425 632.236 312.256 467.584 173.533C431.575 143.271 388.52 122.922 341.812 113.074C192.295 81.5729 26.1434 101.074 -26.1094 141.184" stroke="url(#paint2_linear_3371_597187)" stroke-width="1.0385" stroke-miterlimit="10"/>
<path opacity="0.2835" d="M1332.85 -40.1927C1289.21 -211.656 1146.67 -251.44 1050.45 -181.981C998.918 -144.805 949.797 -88.2598 904.981 -22.6486C883.388 8.9831 859.904 38.7886 836.876 67.5506C724.282 208.23 636.541 298.233 472.738 160.75C436.337 130.357 392.891 110.074 345.335 101.791C190.73 75.0509 23.9254 88.7471 -26.1094 127.162" stroke="url(#paint3_linear_3371_597187)" stroke-width="1.0577" stroke-miterlimit="10"/>
<path opacity="0.3146" d="M1334.81 -30.1489C1295.28 -207.025 1145.76 -247.983 1055.54 -174.22C1005.83 -133.522 958.995 -75.0854 913.983 -10.4525C891.999 21.1791 867.34 49.9411 843.073 77.7248C726.499 211.099 640.781 284.341 477.761 148.097C440.968 117.509 397.131 97.356 348.662 90.7035C188.968 68.6592 21.707 76.5508 -26.2402 113.27" stroke="url(#paint4_linear_3371_597187)" stroke-width="1.0769" stroke-miterlimit="10"/>
<path opacity="0.3458" d="M1336.77 -20.1047C1301.34 -202.394 1144.78 -244.265 1060.63 -166.393C1012.75 -122.043 968.192 -61.9107 923.05 1.74394C900.674 33.3756 874.842 61.0941 849.335 87.8342C728.912 213.904 645.086 270.385 482.913 135.38C445.73 104.661 401.436 84.6385 352.184 79.4861C187.336 62.268 19.5535 64.2246 -26.1758 99.313" stroke="url(#paint5_linear_3371_597187)" stroke-width="1.0962" stroke-miterlimit="10"/>
<path opacity="0.3769" d="M1338.72 -10.0609C1307.41 -197.764 1143.93 -240.222 1065.78 -158.567C1019.66 -110.434 977.455 -48.7363 932.182 14.0053C909.35 45.5717 882.474 72.3119 855.663 98.0085C731.587 216.839 649.391 256.493 488.067 122.662C450.492 91.7474 405.806 71.9205 355.641 68.3334C185.64 56.0721 17.4008 51.9632 -26.1758 85.3558" stroke="url(#paint6_linear_3371_597187)" stroke-width="1.1154" stroke-miterlimit="10"/>
<path opacity="0.4081" d="M1340.68 -0.0825025C1313.48 -193.199 1143.22 -235.983 1070.87 -150.871C1026.64 -98.8254 986.654 -35.6273 941.251 26.0707C918.028 57.6371 890.107 83.3338 861.926 107.987C734.393 219.709 653.959 242.014 493.222 109.813C455.32 78.6379 410.113 59.1372 359.165 56.9849C184.011 49.6803 15.2492 39.5712 -26.1094 71.2681" stroke="url(#paint7_linear_3371_597187)" stroke-width="1.1346" stroke-miterlimit="10"/>
<path opacity="0.4392" d="M1342.64 9.96165C1319.55 -188.568 1142.69 -231.352 1075.96 -143.044C1033.62 -86.9552 995.787 -22.4527 950.319 38.2671C926.704 69.8335 897.74 94.4866 868.189 118.161C737.394 222.774 658.264 228.122 498.375 97.1607C460.082 65.8551 414.418 46.4848 362.622 45.8978C182.249 43.6803 13.0965 27.3754 -26.1094 57.4417" stroke="url(#paint8_linear_3371_597187)" stroke-width="1.1538" stroke-miterlimit="10"/>
<path opacity="0.4704" d="M1344.6 20.0052C1325.61 -183.937 1142.3 -226.591 1081.05 -135.218C1040.67 -74.955 1004.98 -9.27851 959.386 50.5281C935.315 82.0294 905.437 105.769 874.451 128.335C740.525 226.035 662.57 214.165 503.463 84.5077C464.844 53.0065 418.659 33.9623 366.08 34.7449C180.488 37.5494 10.8785 15.0485 -26.1094 43.4192" stroke="url(#paint9_linear_3371_597187)" stroke-width="1.1731" stroke-miterlimit="10"/>
<path opacity="0.5015" d="M1346.55 30.0491C1331.68 -179.307 1142.04 -221.634 1086.2 -127.457C1047.91 -62.8892 1014.18 3.83073 968.454 62.6591C943.991 94.1603 913.135 116.857 880.714 138.379C743.787 229.231 666.875 200.143 508.617 71.7247C469.607 40.0278 422.964 21.2445 369.537 23.4619C178.727 31.484 8.72578 2.72197 -26.1094 29.4621" stroke="url(#paint10_linear_3371_597187)" stroke-width="1.1923" stroke-miterlimit="10"/>
<path opacity="0.5327" d="M1348.51 40.0279C1337.75 -174.806 1142.04 -216.678 1091.29 -119.696C1055.22 -50.7581 1023.32 16.9401 977.521 74.7901C952.667 106.226 920.833 128.075 886.976 148.423C747.179 232.557 671.181 186.121 513.705 58.8765C474.303 27.0492 427.269 8.52672 372.994 12.179C176.965 25.4187 6.50781 -9.60441 -26.1094 15.44" stroke="url(#paint11_linear_3371_597187)" stroke-width="1.2115" stroke-miterlimit="10"/>
<path opacity="0.5638" d="M1350.47 50.0719C1343.81 -170.176 1142.17 -211.525 1096.38 -111.869C1062.65 -38.4967 1032.45 30.0494 986.589 87.0516C961.278 118.488 928.596 139.423 893.239 158.663C750.636 236.275 675.486 172.229 518.859 46.2892C479.066 14.2662 431.575 -3.99541 376.452 1.09174C175.204 19.6142 4.35508 -21.8004 -26.1094 1.54829" stroke="url(#paint12_linear_3371_597187)" stroke-width="1.2308" stroke-miterlimit="10"/>
<path opacity="0.595" d="M1352.42 60.1156C1349.88 -165.545 1142.5 -206.373 1101.47 -104.108C1070.22 -26.3007 1041.58 43.1584 995.655 99.1823C969.888 130.553 936.357 150.641 899.5 168.707C754.223 239.927 679.725 158.272 523.946 33.5059C483.761 1.35247 435.814 -16.583 379.908 -10.1262C173.507 13.7443 2.13594 -34.1271 -26.1758 -12.4089" stroke="url(#paint13_linear_3371_597187)" stroke-width="1.25" stroke-miterlimit="10"/>
<path opacity="0.6262" d="M1354.38 70.1596C1355.94 -160.915 1143.02 -201.155 1106.55 -96.2816C1077.98 -13.9741 1050.71 56.333 1004.72 111.379C978.564 142.749 944.12 161.989 905.763 178.816C757.811 243.71 684.031 144.249 529.099 20.7881C488.523 -11.561 440.12 -29.1703 383.366 -21.3439C171.745 7.93981 -0.0167979 -46.3884 -26.1758 -26.3659" stroke="url(#paint14_linear_3371_597187)" stroke-width="1.2692" stroke-miterlimit="10"/>
<path opacity="0.6573" d="M1356.34 80.2035C1362.01 -156.284 1143.67 -196.003 1111.71 -88.4551C1085.87 -1.64743 1059.91 69.4422 1013.86 123.64C987.241 154.946 952.014 173.468 912.091 189.056C761.53 247.819 688.337 130.423 534.318 8.13553C493.351 -24.344 444.556 -41.6925 386.954 -32.4313C170.18 2.33095 -2.10391 -58.5844 -26.0449 -40.2577" stroke="url(#paint15_linear_3371_597187)" stroke-width="1.2885" stroke-miterlimit="10"/>
<path opacity="0.6885" d="M1358.29 90.1823C1368.08 -151.718 1144.46 -190.916 1116.8 -80.7591C1093.9 10.4835 1068.98 82.4863 1022.86 135.706C995.786 166.946 959.711 184.751 918.287 199.034C765.182 251.797 692.576 116.335 539.341 -4.71272C497.982 -37.3879 448.73 -54.3451 390.28 -43.7795C168.418 -3.53878 -4.3875 -71.0414 -26.1758 -54.3451" stroke="url(#paint16_linear_3371_597187)" stroke-width="1.3077" stroke-miterlimit="10"/>
<path opacity="0.7196" d="M1360.25 100.226C1374.15 -147.088 1145.3 -185.829 1121.89 -72.9329C1102.05 22.7447 1078.11 95.5954 1031.93 147.902C1004.4 179.077 967.541 196.23 924.551 209.143C768.771 256.102 696.818 102.443 544.496 -17.3655C502.746 -50.1711 453.102 -66.8022 393.804 -54.867C166.789 -9.1478 -6.53906 -83.2376 -26.1094 -68.1718" stroke="url(#paint17_linear_3371_597187)" stroke-width="1.3269" stroke-miterlimit="10"/>
<path opacity="0.7508" d="M1362.21 110.27C1380.21 -142.458 1146.28 -180.807 1126.97 -65.1067C1110.27 35.0058 1087.18 108.704 1040.99 160.163C1013.01 191.273 975.302 207.773 930.812 219.317C772.423 260.471 701.057 88.5514 549.583 -30.0836C507.441 -63.0849 457.341 -79.3899 397.195 -66.085C165.091 -14.8222 -8.7582 -95.4992 -26.1758 -82.1943" stroke="url(#paint18_linear_3371_597187)" stroke-width="1.3462" stroke-miterlimit="10"/>
<path opacity="0.7819" d="M1364.17 120.313C1386.28 -137.827 1147.33 -175.85 1132.06 -57.3456C1118.62 47.1367 1096.31 121.748 1050.06 172.294C1021.62 203.338 983.132 219.252 937.076 229.426C776.013 264.906 705.364 74.5942 554.738 -42.8016C512.205 -75.9333 461.713 -91.9122 400.719 -77.3029C163.527 -20.4311 -10.8445 -107.826 -26.1094 -96.1515" stroke="url(#paint19_linear_3371_597187)" stroke-width="1.3654" stroke-miterlimit="10"/>
<path opacity="0.8131" d="M1366.12 130.292C1392.35 -133.261 1148.5 -171.024 1137.22 -49.5843C1127.1 59.2025 1105.45 134.792 1059.19 184.49C1030.3 215.469 990.96 230.861 943.404 239.536C779.666 269.471 709.473 60.9634 559.891 -55.5845C516.902 -88.8467 466.084 -104.499 404.177 -88.5206C161.896 -26.0399 -13.0625 -120.087 -26.1094 -110.108" stroke="url(#paint20_linear_3371_597187)" stroke-width="1.3846" stroke-miterlimit="10"/>
<path opacity="0.8442" d="M1368.08 140.336C1398.41 -128.696 1149.67 -166.263 1142.3 -41.7579C1135.58 71.3334 1114.51 147.902 1068.2 196.686C1038.84 227.6 998.657 242.47 949.601 249.645C783.058 274.102 713.648 47.0064 564.979 -68.3024C521.598 -101.695 470.389 -117.022 407.634 -99.7384C160.33 -31.6488 -15.2152 -132.479 -26.1094 -124.065" stroke="url(#paint21_linear_3371_597187)" stroke-width="1.4038" stroke-miterlimit="10"/>
<path opacity="0.8754" d="M1370.04 150.38C1404.48 -124.065 1150.91 -161.502 1147.39 -33.9967C1144.2 83.3339 1123.58 160.946 1077.26 208.817C1047.45 239.666 1006.42 254.014 955.798 259.754C786.385 278.798 717.889 33.0494 570.068 -81.0202C526.295 -114.608 474.695 -129.479 411.091 -110.891C158.765 -37.1272 -17.4332 -144.675 -26.1094 -138.022" stroke="url(#paint22_linear_3371_597187)" stroke-width="1.4231" stroke-miterlimit="10"/>
<path opacity="0.9065" d="M1371.99 160.424C1410.55 -119.435 1152.15 -156.871 1152.48 -26.1701C1152.81 95.2693 1132.65 173.99 1086.33 221.079C1056.06 251.862 1014.12 265.754 962.061 269.928C789.777 283.69 722.129 19.1577 575.156 -93.6727C530.992 -127.391 479 -141.935 414.483 -122.043C157.134 -42.5403 -19.6516 -156.936 -26.2402 -151.914" stroke="url(#paint23_linear_3371_597187)" stroke-width="1.4423" stroke-miterlimit="10"/>
<path opacity="0.9377" d="M1373.95 170.403C1416.61 -114.869 1153.46 -152.371 1157.63 -18.4091C1161.55 107.204 1141.78 187.034 1095.46 233.209C1064.67 263.863 1021.95 277.363 968.388 279.972C793.104 288.451 726.499 5.13528 580.374 -106.456C535.819 -140.37 483.436 -154.523 418.071 -133.261C155.764 -48.0841 -21.7387 -169.263 -26.1094 -165.871" stroke="url(#paint24_linear_3371_597187)" stroke-width="1.4615" stroke-miterlimit="10"/>
<path opacity="0.9688" d="M1375.91 180.446C1422.68 -110.239 1154.76 -147.871 1162.72 -10.648C1170.22 119.009 1150.78 199.947 1104.53 245.34C1073.22 275.863 1029.64 289.038 974.65 290.016C796.299 293.277 730.804 -8.88703 585.462 -119.304C540.515 -153.349 487.741 -167.045 421.462 -144.61C154.328 -53.2366 -23.9578 -181.655 -26.1758 -180.024" stroke="url(#paint25_linear_3371_597187)" stroke-width="1.4808" stroke-miterlimit="10"/>
<path d="M1377.86 190.49C1428.75 -105.608 1156.07 -143.436 1167.81 -2.82161C1186.6 222.448 1119.54 301.69 980.912 300.19C742.546 297.647 706.21 -255.614 424.92 -155.697C152.697 -59.0412 -26.1758 -193.851 -26.1758 -193.851" stroke="url(#paint26_linear_3371_597187)" stroke-width="1.5" stroke-miterlimit="10"/>
<defs>
<linearGradient id="paint0_linear_3371_597187" x1="-26.3398" y1="13.75" x2="1327.29" y2="13.75" gradientUnits="userSpaceOnUse">
<stop stop-color="#FFA978"/>
<stop offset="1" stop-color="#FF7A00"/>
</linearGradient>
<linearGradient id="paint1_linear_3371_597187" x1="-26.3271" y1="11.3438" x2="1329.27" y2="11.3438" gradientUnits="userSpaceOnUse">
<stop stop-color="#FFA978"/>
<stop offset="1" stop-color="#FF7A00"/>
</linearGradient>
<linearGradient id="paint2_linear_3371_597187" x1="-26.3163" y1="9.18363" x2="1331.24" y2="9.18363" gradientUnits="userSpaceOnUse">
<stop stop-color="#FFA978"/>
<stop offset="1" stop-color="#FF7A00"/>
</linearGradient>
<linearGradient id="paint3_linear_3371_597187" x1="-26.3004" y1="7.37976" x2="1333.06" y2="7.37976" gradientUnits="userSpaceOnUse">
<stop stop-color="#FFA978"/>
<stop offset="1" stop-color="#FF7A00"/>
</linearGradient>
<linearGradient id="paint4_linear_3371_597187" x1="-26.2884" y1="5.86782" x2="1335.03" y2="5.86782" gradientUnits="userSpaceOnUse">
<stop stop-color="#FFA978"/>
<stop offset="1" stop-color="#FF7A00"/>
</linearGradient>
<linearGradient id="paint5_linear_3371_597187" x1="-26.2803" y1="4.76957" x2="1337.01" y2="4.76957" gradientUnits="userSpaceOnUse">
<stop stop-color="#FFA978"/>
<stop offset="1" stop-color="#FF7A00"/>
</linearGradient>
<linearGradient id="paint6_linear_3371_597187" x1="-26.2767" y1="4.15343" x2="1339" y2="4.15343" gradientUnits="userSpaceOnUse">
<stop stop-color="#FF7A00"/>
<stop offset="1" stop-color="#FFA978"/>
</linearGradient>
<linearGradient id="paint7_linear_3371_597187" x1="-26.2236" y1="4.09413" x2="1340.76" y2="4.09413" gradientUnits="userSpaceOnUse">
<stop stop-color="#FF7A00"/>
<stop offset="1" stop-color="#FFA978"/>
</linearGradient>
<linearGradient id="paint8_linear_3371_597187" x1="-26.217" y1="4.67793" x2="1342.74" y2="4.67793" gradientUnits="userSpaceOnUse">
<stop stop-color="#FF7A00"/>
<stop offset="1" stop-color="#FFA978"/>
</linearGradient>
<linearGradient id="paint9_linear_3371_597187" x1="-26.2219" y1="5.97601" x2="1344.74" y2="5.97601" gradientUnits="userSpaceOnUse">
<stop stop-color="#FF7A00"/>
<stop offset="1" stop-color="#FFA978"/>
</linearGradient>
<linearGradient id="paint10_linear_3371_597187" x1="-26.2504" y1="8.04421" x2="1346.77" y2="8.04421" gradientUnits="userSpaceOnUse">
<stop stop-color="#FF7A00"/>
<stop offset="1" stop-color="#FFA978"/>
</linearGradient>
<linearGradient id="paint11_linear_3371_597187" x1="-26.0408" y1="11.0016" x2="1348.3" y2="11.0016" gradientUnits="userSpaceOnUse">
<stop stop-color="#FF7A00"/>
<stop offset="1" stop-color="#FFA978"/>
</linearGradient>
<linearGradient id="paint12_linear_3371_597187" x1="-26.1601" y1="14.625" x2="1350.5" y2="14.625" gradientUnits="userSpaceOnUse">
<stop stop-color="#FF7A00"/>
<stop offset="1" stop-color="#FFA978"/>
</linearGradient>
<linearGradient id="paint13_linear_3371_597187" x1="531.433" y1="86.4217" x2="531.433" y2="86.4217" gradientUnits="userSpaceOnUse">
<stop stop-color="#FF7A00"/>
<stop offset="1" stop-color="#FFA978"/>
</linearGradient>
<linearGradient id="paint14_linear_3371_597187" x1="1354.42" y1="24.0803" x2="-26.162" y2="24.0803" gradientUnits="userSpaceOnUse">
<stop stop-color="#FF7A00"/>
<stop offset="1" stop-color="#FFA978"/>
</linearGradient>
<linearGradient id="paint15_linear_3371_597187" x1="1356.29" y1="29.6919" x2="-25.9843" y2="29.6919" gradientUnits="userSpaceOnUse">
<stop stop-color="#FF7A00"/>
<stop offset="1" stop-color="#FFA978"/>
</linearGradient>
<linearGradient id="paint16_linear_3371_597187" x1="1358.79" y1="35.796" x2="-26.2966" y2="35.796" gradientUnits="userSpaceOnUse">
<stop stop-color="#FF7A00"/>
<stop offset="1" stop-color="#FFA978"/>
</linearGradient>
<linearGradient id="paint17_linear_3371_597187" x1="1361.01" y1="42.2672" x2="-26.2412" y2="42.2672" gradientUnits="userSpaceOnUse">
<stop stop-color="#FF7A00"/>
<stop offset="1" stop-color="#FFA978"/>
</linearGradient>
<linearGradient id="paint18_linear_3371_597187" x1="1363.34" y1="49.0497" x2="-26.213" y2="49.0497" gradientUnits="userSpaceOnUse">
<stop stop-color="#FF7A00"/>
<stop offset="1" stop-color="#FFA978"/>
</linearGradient>
<linearGradient id="paint19_linear_3371_597187" x1="1365.77" y1="56.0842" x2="-26.1952" y2="56.0842" gradientUnits="userSpaceOnUse">
<stop stop-color="#FF7A00"/>
<stop offset="1" stop-color="#FFA978"/>
</linearGradient>
<linearGradient id="paint20_linear_3371_597187" x1="1368.37" y1="63.3682" x2="-26.3539" y2="63.3682" gradientUnits="userSpaceOnUse">
<stop stop-color="#FF7A00"/>
<stop offset="1" stop-color="#FFA978"/>
</linearGradient>
<linearGradient id="paint21_linear_3371_597187" x1="1370.94" y1="63.4742" x2="-26.3367" y2="63.4742" gradientUnits="userSpaceOnUse">
<stop stop-color="#FF7A00"/>
<stop offset="1" stop-color="#FFA978"/>
</linearGradient>
<linearGradient id="paint22_linear_3371_597187" x1="1373.57" y1="61.2503" x2="-26.3257" y2="61.2503" gradientUnits="userSpaceOnUse">
<stop stop-color="#FF7A00"/>
<stop offset="1" stop-color="#FFA978"/>
</linearGradient>
<linearGradient id="paint23_linear_3371_597187" x1="1376.26" y1="59.1215" x2="-26.3197" y2="59.1215" gradientUnits="userSpaceOnUse">
<stop stop-color="#FF7A00"/>
<stop offset="1" stop-color="#FFA978"/>
</linearGradient>
<linearGradient id="paint24_linear_3371_597187" x1="1379.05" y1="57.117" x2="-26.4471" y2="57.117" gradientUnits="userSpaceOnUse">
<stop stop-color="#FF7A00"/>
<stop offset="1" stop-color="#FFA978"/>
</linearGradient>
<linearGradient id="paint25_linear_3371_597187" x1="1381.84" y1="55.1305" x2="-26.4426" y2="55.1305" gradientUnits="userSpaceOnUse">
<stop stop-color="#FF7A00"/>
<stop offset="1" stop-color="#FFA978"/>
</linearGradient>
<linearGradient id="paint26_linear_3371_597187" x1="1384.69" y1="53.2525" x2="-26.4369" y2="53.2525" gradientUnits="userSpaceOnUse">
<stop stop-color="#FF7A00"/>
<stop offset="1" stop-color="#FFA978"/>
</linearGradient>
</defs>
</svg>
