<svg width="363" height="438" viewBox="0 0 363 438" fill="none" xmlns="http://www.w3.org/2000/svg">
<g opacity="0.2">
<path opacity="0.19" d="M767.147 67.362C882.135 266.975 714.355 408.316 489.893 379.209C278.424 351.809 54.3175 280.078 54.7248 522.499C54.9953 698.869 -128.416 864.598 -213.982 883.231" stroke="url(#paint0_linear_3371_594308)" stroke-miterlimit="10"/>
<path opacity="0.2212" d="M761.199 59.9525C843.993 193.059 792.733 306.088 685.472 346.993C630.531 367.964 561.286 374.615 486.683 365.467C451.737 361.298 416.612 357.058 382.292 353.181C209.828 333.779 66.8485 325.193 66.8328 526.473C66.7901 569.758 55.7246 612.289 36.3997 651.642C-24.6759 775.807 -141.863 878.06 -204.086 891.602" stroke="url(#paint1_linear_3371_594308)" stroke-width="1.0192" stroke-miterlimit="10"/>
<path opacity="0.2523" d="M755.252 52.5416C844.348 185.981 790.237 305.007 682.975 338.692C626.934 356.273 557.447 360.022 483.475 351.724C448.332 347.787 413.119 345.058 378.88 342.678C209.021 330.795 79.2878 330.557 78.9021 530.493C78.7634 574.173 67.3706 616.903 46.342 655.926C-20.9901 780.829 -134.46 886.94 -194.236 899.934" stroke="url(#paint2_linear_3371_594308)" stroke-width="1.0385" stroke-miterlimit="10"/>
<path opacity="0.2835" d="M749.35 45.1693C844.749 178.941 787.476 303.862 680.523 330.429C623.258 344.675 553.707 345.592 480.311 338.02C444.934 334.359 409.717 333.136 375.514 332.214C208.245 327.679 91.8114 335.913 91.0557 534.504C90.7747 578.54 79.101 621.509 56.454 660.194C-17.3053 785.85 -127.051 895.904 -184.294 908.342" stroke="url(#paint3_linear_3371_594308)" stroke-width="1.0577" stroke-miterlimit="10"/>
<path opacity="0.3146" d="M743.403 37.7591C845.104 171.863 784.477 302.437 678.072 322.168C619.406 333.006 549.883 331.17 477.062 324.323C441.451 320.941 406.27 321.175 372.017 321.719C207.541 324.387 104.204 341.239 103.039 538.532C102.662 582.962 90.6614 626.13 66.3106 664.485C-13.8296 790.932 -119.733 904.792 -174.522 916.767" stroke="url(#paint4_linear_3371_594308)" stroke-width="1.0769" stroke-miterlimit="10"/>
<path opacity="0.3458" d="M737.454 30.3478C845.458 164.784 781.254 300.902 675.573 313.867C615.412 321.219 546.057 316.747 473.852 310.58C438.005 307.475 402.86 309.168 368.604 311.216C206.998 320.993 116.681 346.556 115.146 542.505C114.627 587.291 102.259 630.704 76.3755 668.715C-10.2773 795.922 -112.286 913.71 -164.589 925.091" stroke="url(#paint5_linear_3371_594308)" stroke-width="1.0962" stroke-miterlimit="10"/>
<path opacity="0.3769" d="M731.506 22.9371C845.814 157.706 777.878 299.078 673.115 305.519C611.329 309.354 542.272 302.279 470.636 296.752C434.562 294.009 399.484 297.029 365.185 300.628C206.522 317.337 129.113 351.835 127.254 546.478C126.639 591.659 113.898 635.233 86.357 672.952C-6.9009 800.84 -104.883 922.59 -154.692 933.461" stroke="url(#paint6_linear_3371_594308)" stroke-width="1.1154" stroke-miterlimit="10"/>
<path opacity="0.4081" d="M725.605 15.5651C846.216 150.666 774.443 297.044 670.71 297.296C607.284 297.443 538.493 287.895 467.519 283.086C431.21 280.622 396.247 285.007 361.866 290.204C206.17 313.627 142.118 357.28 139.455 550.529C138.829 596.098 125.544 639.846 96.5163 677.26C-3.34667 805.829 -97.3873 931.548 -144.664 941.863" stroke="url(#paint7_linear_3371_594308)" stroke-width="1.1346" stroke-miterlimit="10"/>
<path opacity="0.4392" d="M719.658 8.15396C846.571 143.588 770.847 294.637 668.213 288.995C603.054 285.375 534.63 273.519 464.31 269.343C427.767 267.156 392.917 272.907 358.409 279.662C205.797 309.661 154.55 362.558 151.517 554.463C150.749 600.388 137.098 644.381 106.451 681.458C-0.148128 810.677 -90.0304 940.388 -134.86 950.155" stroke="url(#paint8_linear_3371_594308)" stroke-width="1.1538" stroke-miterlimit="10"/>
<path opacity="0.4704" d="M713.711 0.742895C846.926 136.509 767.237 292.06 665.716 280.693C598.771 273.183 530.805 259.097 461.055 255.56C424.284 253.736 389.534 260.683 354.951 269.12C205.362 305.485 167.028 367.876 163.54 558.443C162.715 604.716 148.52 648.884 116.432 685.695C3.14248 815.602 -82.6206 949.353 -124.918 958.564" stroke="url(#paint9_linear_3371_594308)" stroke-width="1.1731" stroke-miterlimit="10"/>
<path opacity="0.5015" d="M707.763 -6.66991C847.282 129.429 763.566 289.27 663.303 272.383C594.559 260.811 527.027 244.711 457.892 241.855C420.886 240.308 386.289 248.574 351.585 258.654C205.053 301.254 179.552 373.231 175.694 562.453C174.773 609.122 160.119 653.457 126.506 690.008C6.38669 820.487 -75.1718 958.27 -115.022 966.933" stroke="url(#paint10_linear_3371_594308)" stroke-width="1.1923" stroke-miterlimit="10"/>
<path opacity="0.5327" d="M701.861 -14.041C847.728 122.429 760.05 286.298 660.851 264.122C590.338 248.357 523.208 230.375 454.727 228.151C417.533 226.921 382.95 236.389 348.219 248.191C204.728 296.855 192.075 378.588 187.854 566.552C186.791 613.576 171.717 658.032 136.578 694.324C9.63007 825.374 -67.763 967.236 -105.081 975.343" stroke="url(#paint11_linear_3371_594308)" stroke-width="1.2115" stroke-miterlimit="10"/>
<path opacity="0.5638" d="M695.914 -21.4524C848.084 115.351 756.476 283.116 658.354 255.82C586.105 235.731 519.391 216.038 451.472 214.368C414.004 213.462 379.56 224.079 344.715 237.61C204.166 292.174 204.508 383.866 199.871 570.446C198.711 617.865 183.179 662.489 146.514 698.522C12.69 830.103 -60.4061 976.076 -95.2308 983.674" stroke="url(#paint12_linear_3371_594308)" stroke-width="1.2308" stroke-miterlimit="10"/>
<path opacity="0.595" d="M689.964 -28.8628C848.438 108.273 753.017 279.795 655.901 247.558C581.995 223.052 515.572 201.701 448.308 200.665C410.612 200.121 376.261 211.848 341.348 227.147C203.727 287.44 216.945 389.23 211.984 574.505C210.683 622.28 194.645 667.032 156.539 702.798C15.8332 834.827 -52.9978 985.042 -85.3754 992.091" stroke="url(#paint13_linear_3371_594308)" stroke-width="1.25" stroke-miterlimit="10"/>
<path opacity="0.6262" d="M684.017 -36.2733C848.793 101.195 749.631 276.296 653.404 239.258C577.91 210.156 511.708 187.325 445.099 186.922C407.168 186.656 372.87 199.539 337.936 216.645C203.196 282.628 229.469 394.588 224.092 578.479C222.695 626.649 206.152 671.529 166.567 707.075C18.8925 839.557 -45.5953 993.922 -75.4796 1000.46" stroke="url(#paint14_linear_3371_594308)" stroke-width="1.2692" stroke-miterlimit="10"/>
<path opacity="0.6573" d="M678.07 -43.6838C849.149 94.1165 746.37 272.744 650.946 230.911C573.905 197.167 507.93 172.943 441.883 173.094C403.725 173.191 369.466 187.059 334.472 206.018C202.514 277.528 241.856 399.827 236.194 582.367C234.654 630.892 217.691 675.894 176.58 711.181C21.9313 844.031 -38.1989 1002.72 -65.5507 1008.7" stroke="url(#paint15_linear_3371_594308)" stroke-width="1.2885" stroke-miterlimit="10"/>
<path opacity="0.6885" d="M672.168 -51.056C849.55 87.0767 743.232 269.138 648.541 222.687C570.116 184.203 504.12 158.69 438.727 159.475C400.341 159.934 366.082 174.834 331.113 195.639C201.884 272.552 254.387 405.269 248.316 586.511C246.68 635.431 229.166 680.521 186.622 715.627C25.0368 848.8 -30.7359 1011.81 -55.6406 1017.24" stroke="url(#paint16_linear_3371_594308)" stroke-width="1.3077" stroke-miterlimit="10"/>
<path opacity="0.7196" d="M666.221 -58.4685C849.905 79.9967 740.134 265.485 646.044 214.385C566.313 171.066 500.302 144.352 435.517 145.73C396.904 146.553 362.638 162.399 327.701 185.135C200.984 267.425 266.78 410.592 260.378 590.443C258.6 639.719 240.62 684.891 196.596 719.777C28.0357 853.319 -23.3795 1020.64 -45.7981 1025.49" stroke="url(#paint17_linear_3371_594308)" stroke-width="1.3269" stroke-miterlimit="10"/>
<path opacity="0.7508" d="M660.273 -65.8776C850.26 72.9201 737.16 261.781 643.546 206.085C562.548 157.887 496.445 130.063 432.262 131.949C393.421 133.135 359.109 149.973 324.243 174.595C200.076 262.216 279.172 415.919 272.446 594.465C270.572 644.135 252.087 689.436 206.584 724.102C31.0414 857.926 -16.0163 1029.57 -35.8953 1033.94" stroke="url(#paint18_linear_3371_594308)" stroke-width="1.3462" stroke-miterlimit="10"/>
<path opacity="0.7819" d="M654.326 -73.2899C850.617 65.8403 734.273 258.067 641.096 197.822C558.956 144.691 492.675 115.764 429.1 118.244C390.031 119.792 355.666 137.538 320.832 164.091C199.084 257.011 291.651 421.235 284.555 598.436C282.539 648.463 263.588 693.845 216.651 728.33C34.0806 862.398 -8.52712 1038.44 -25.959 1042.27" stroke="url(#paint19_linear_3371_594308)" stroke-width="1.3654" stroke-miterlimit="10"/>
<path opacity="0.8131" d="M648.425 -80.6616C851.018 58.801 731.555 254.34 638.683 189.513C555.487 131.442 488.903 101.466 425.929 104.455C386.633 106.366 352.129 125.026 317.459 153.542C198.038 251.683 303.78 426.496 296.709 602.449C294.511 652.877 275.134 698.295 226.678 732.606C37.079 866.919 -1.16404 1047.37 -16.0635 1050.64" stroke="url(#paint20_linear_3371_594308)" stroke-width="1.3846" stroke-miterlimit="10"/>
<path opacity="0.8442" d="M642.476 -88.0717C851.418 51.7625 728.882 250.653 636.185 181.213C551.971 118.155 485.046 87.1757 422.68 90.7585C383.156 93.0326 348.514 112.607 314.007 143.086C196.788 246.502 316.179 431.907 308.777 606.469C306.437 657.253 286.594 702.753 236.704 736.883C40.1163 871.393 6.33039 1056.33 -6.16824 1059.01" stroke="url(#paint21_linear_3371_594308)" stroke-width="1.4038" stroke-miterlimit="10"/>
<path opacity="0.8754" d="M636.529 -95.4838C851.774 44.6829 726.25 246.918 633.734 172.95C548.627 104.852 481.236 72.9229 419.517 77.0533C379.766 79.6903 344.985 100.178 310.557 132.629C195.455 241.326 328.618 437.27 320.847 610.487C318.411 661.666 298.009 707.17 246.686 741.119C43.0622 875.788 13.648 1065.21 3.72811 1067.38" stroke="url(#paint22_linear_3371_594308)" stroke-width="1.4231" stroke-miterlimit="10"/>
<path opacity="0.9065" d="M630.581 -102.895C852.129 37.6044 723.71 243.263 631.236 164.649C545.328 91.5886 477.425 58.6711 416.261 63.2709C376.282 66.2708 341.277 87.6802 307.098 122.087C194.021 235.987 341.011 442.594 332.869 614.468C330.291 666.002 309.423 711.588 256.627 745.402C45.922 880.191 21.0112 1074.14 13.4993 1075.8" stroke="url(#paint23_linear_3371_594308)" stroke-width="1.4423" stroke-miterlimit="10"/>
<path opacity="0.9377" d="M624.68 -110.265C852.531 30.5663 721.303 239.64 628.824 156.341C542.109 78.2343 473.654 44.3744 413.138 49.5217C372.938 52.9698 337.741 75.1689 303.773 111.578C192.641 230.774 353.575 447.906 345.063 618.435C342.389 670.364 321.009 715.993 266.733 749.587C49.032 884.488 28.5001 1083.01 23.4743 1084.08" stroke="url(#paint24_linear_3371_594308)" stroke-width="1.4615" stroke-miterlimit="10"/>
<path opacity="0.9688" d="M618.731 -117.677C852.884 23.4872 718.893 236.016 626.371 148.079C538.94 65.0027 469.895 30.2466 409.973 35.8171C369.553 39.7134 334.079 62.7094 300.405 101.114C191.134 225.613 366.097 453.262 357.222 622.532C354.406 674.817 332.467 720.449 276.812 753.987C51.8227 888.595 35.9542 1092.02 33.468 1092.61" stroke="url(#paint25_linear_3371_594308)" stroke-width="1.4808" stroke-miterlimit="10"/>
<path d="M612.783 -125.087C853.239 16.4099 716.531 232.432 623.874 139.779C475.419 -8.63895 379.017 -8.61361 296.947 90.5731C155.8 261.106 526.284 618.666 286.747 758.186C54.9603 893.233 43.2715 1100.91 43.2715 1100.91" stroke="url(#paint26_linear_3371_594308)" stroke-width="1.5" stroke-miterlimit="10"/>
</g>
<defs>
<linearGradient id="paint0_linear_3371_594308" x1="-104.02" y1="976.519" x2="707.767" y2="16.7634" gradientUnits="userSpaceOnUse">
<stop stop-color="#FFA978"/>
<stop offset="1" stop-color="#FF7A00"/>
</linearGradient>
<linearGradient id="paint1_linear_3371_594308" x1="-102.307" y1="977.955" x2="710.658" y2="16.8061" gradientUnits="userSpaceOnUse">
<stop stop-color="#FFA978"/>
<stop offset="1" stop-color="#FF7A00"/>
</linearGradient>
<linearGradient id="paint2_linear_3371_594308" x1="-100.768" y1="979.242" x2="713.377" y2="16.6984" gradientUnits="userSpaceOnUse">
<stop stop-color="#FFA978"/>
<stop offset="1" stop-color="#FF7A00"/>
</linearGradient>
<linearGradient id="paint3_linear_3371_594308" x1="-99.4803" y1="980.312" x2="715.743" y2="16.494" gradientUnits="userSpaceOnUse">
<stop stop-color="#FFA978"/>
<stop offset="1" stop-color="#FF7A00"/>
</linearGradient>
<linearGradient id="paint4_linear_3371_594308" x1="-98.4008" y1="981.211" x2="718" y2="16.0011" gradientUnits="userSpaceOnUse">
<stop stop-color="#FFA978"/>
<stop offset="1" stop-color="#FF7A00"/>
</linearGradient>
<linearGradient id="paint5_linear_3371_594308" x1="-97.6179" y1="981.864" x2="719.965" y2="15.2559" gradientUnits="userSpaceOnUse">
<stop stop-color="#FFA978"/>
<stop offset="1" stop-color="#FF7A00"/>
</linearGradient>
<linearGradient id="paint6_linear_3371_594308" x1="-97.1784" y1="982.231" x2="721.593" y2="14.2171" gradientUnits="userSpaceOnUse">
<stop stop-color="#FF7A00"/>
<stop offset="1" stop-color="#FFA978"/>
</linearGradient>
<linearGradient id="paint7_linear_3371_594308" x1="-97.1049" y1="982.229" x2="722.69" y2="13.0058" gradientUnits="userSpaceOnUse">
<stop stop-color="#FF7A00"/>
<stop offset="1" stop-color="#FFA978"/>
</linearGradient>
<linearGradient id="paint8_linear_3371_594308" x1="-97.5141" y1="981.874" x2="723.465" y2="11.2507" gradientUnits="userSpaceOnUse">
<stop stop-color="#FF7A00"/>
<stop offset="1" stop-color="#FFA978"/>
</linearGradient>
<linearGradient id="paint9_linear_3371_594308" x1="-98.4375" y1="981.099" x2="723.743" y2="9.05539" gradientUnits="userSpaceOnUse">
<stop stop-color="#FF7A00"/>
<stop offset="1" stop-color="#FFA978"/>
</linearGradient>
<linearGradient id="paint10_linear_3371_594308" x1="-99.921" y1="979.877" x2="723.496" y2="6.3721" gradientUnits="userSpaceOnUse">
<stop stop-color="#FF7A00"/>
<stop offset="1" stop-color="#FFA978"/>
</linearGradient>
<linearGradient id="paint11_linear_3371_594308" x1="-101.893" y1="977.956" x2="722.312" y2="3.51839" gradientUnits="userSpaceOnUse">
<stop stop-color="#FF7A00"/>
<stop offset="1" stop-color="#FFA978"/>
</linearGradient>
<linearGradient id="paint12_linear_3371_594308" x1="-104.533" y1="975.867" x2="721.065" y2="-0.216272" gradientUnits="userSpaceOnUse">
<stop stop-color="#FF7A00"/>
<stop offset="1" stop-color="#FFA978"/>
</linearGradient>
<linearGradient id="paint13_linear_3371_594308" x1="178.956" y1="537.463" x2="178.956" y2="537.463" gradientUnits="userSpaceOnUse">
<stop stop-color="#FF7A00"/>
<stop offset="1" stop-color="#FFA978"/>
</linearGradient>
<linearGradient id="paint14_linear_3371_594308" x1="716.712" y1="-8.66761" x2="-111.239" y2="970.199" gradientUnits="userSpaceOnUse">
<stop stop-color="#FF7A00"/>
<stop offset="1" stop-color="#FFA978"/>
</linearGradient>
<linearGradient id="paint15_linear_3371_594308" x1="713.858" y1="-13.3601" x2="-115.11" y2="966.708" gradientUnits="userSpaceOnUse">
<stop stop-color="#FF7A00"/>
<stop offset="1" stop-color="#FFA978"/>
</linearGradient>
<linearGradient id="paint16_linear_3371_594308" x1="711.03" y1="-18.7951" x2="-119.625" y2="963.268" gradientUnits="userSpaceOnUse">
<stop stop-color="#FF7A00"/>
<stop offset="1" stop-color="#FFA978"/>
</linearGradient>
<linearGradient id="paint17_linear_3371_594308" x1="707.769" y1="-24.2467" x2="-124.181" y2="959.347" gradientUnits="userSpaceOnUse">
<stop stop-color="#FF7A00"/>
<stop offset="1" stop-color="#FFA978"/>
</linearGradient>
<linearGradient id="paint18_linear_3371_594308" x1="704.359" y1="-29.967" x2="-128.973" y2="955.261" gradientUnits="userSpaceOnUse">
<stop stop-color="#FF7A00"/>
<stop offset="1" stop-color="#FFA978"/>
</linearGradient>
<linearGradient id="paint19_linear_3371_594308" x1="700.829" y1="-35.9092" x2="-133.949" y2="951.029" gradientUnits="userSpaceOnUse">
<stop stop-color="#FF7A00"/>
<stop offset="1" stop-color="#FFA978"/>
</linearGradient>
<linearGradient id="paint20_linear_3371_594308" x1="697.225" y1="-42.1218" x2="-139.209" y2="946.773" gradientUnits="userSpaceOnUse">
<stop stop-color="#FF7A00"/>
<stop offset="1" stop-color="#FFA978"/>
</linearGradient>
<linearGradient id="paint21_linear_3371_594308" x1="698.686" y1="-44.0021" x2="-139.275" y2="946.699" gradientUnits="userSpaceOnUse">
<stop stop-color="#FF7A00"/>
<stop offset="1" stop-color="#FFA978"/>
</linearGradient>
<linearGradient id="paint22_linear_3371_594308" x1="701.843" y1="-44.5362" x2="-137.691" y2="948.023" gradientUnits="userSpaceOnUse">
<stop stop-color="#FF7A00"/>
<stop offset="1" stop-color="#FFA978"/>
</linearGradient>
<linearGradient id="paint23_linear_3371_594308" x1="704.968" y1="-45.1701" x2="-136.178" y2="949.296" gradientUnits="userSpaceOnUse">
<stop stop-color="#FF7A00"/>
<stop offset="1" stop-color="#FFA978"/>
</linearGradient>
<linearGradient id="paint24_linear_3371_594308" x1="708.061" y1="-45.9427" x2="-134.832" y2="950.589" gradientUnits="userSpaceOnUse">
<stop stop-color="#FF7A00"/>
<stop offset="1" stop-color="#FFA978"/>
</linearGradient>
<linearGradient id="paint25_linear_3371_594308" x1="711.144" y1="-46.7336" x2="-133.422" y2="951.776" gradientUnits="userSpaceOnUse">
<stop stop-color="#FF7A00"/>
<stop offset="1" stop-color="#FFA978"/>
</linearGradient>
<linearGradient id="paint26_linear_3371_594308" x1="714.181" y1="-47.6225" x2="-132.087" y2="952.9" gradientUnits="userSpaceOnUse">
<stop stop-color="#FF7A00"/>
<stop offset="1" stop-color="#FFA978"/>
</linearGradient>
</defs>
</svg>
