<?xml version="1.0" encoding="UTF-8"?>
<svg xmlns="http://www.w3.org/2000/svg" width="173" height="46" viewBox="0 0 173 46" fill="none">
  <g clip-path="url(#clip0_4869_432)">
    <g clip-path="url(#clip1_4869_432)">
      <path d="M160.071 35.87C167.214 35.87 173.006 30.0788 173.006 22.935C173.006 15.7912 167.214 10 160.071 10C152.927 10 147.136 15.7912 147.136 22.935C147.136 30.0788 152.927 35.87 160.071 35.87Z" fill="url(#paint0_linear_4869_432)"></path>
      <path fill-rule="evenodd" clip-rule="evenodd" d="M7.69633 32.266C11.6205 32.266 15.0337 30.2934 15.0337 25.9133C15.0337 23.6933 13.9261 21.4717 11.5898 20.7635V20.7021C13.2066 19.8063 14.1654 18.0504 14.1654 16.0132C14.1654 12.4059 11.4394 10.3703 7.57668 10.3703H0V32.2644L7.69633 32.266ZM7.6074 19.3148H3.86271V13.7916H7.54757C9.3132 13.7916 10.2429 14.9331 10.2429 16.5063C10.2429 18.0779 9.2841 19.3116 7.6074 19.3116V19.3148ZM7.99545 28.8431H3.86433V22.5211H7.99706C9.94378 22.5211 11.0821 23.8469 11.0821 25.6659C11.0821 27.5172 9.97288 28.8431 7.99545 28.8431ZM23.1197 32.4196C23.629 32.4196 24.0478 32.3581 24.3178 32.3274V28.9045C24.1076 28.9368 23.8974 28.9368 23.7487 28.9368C22.7607 28.9368 22.1916 28.5035 22.1916 26.7767V10.3703H18.4178V27.3636C18.4178 31.865 21.0242 32.4196 23.1197 32.4196ZM32.2227 32.6362C34.8291 32.6362 36.8065 30.9401 37.526 29.3378H37.5843C37.5843 29.3378 37.4953 29.8294 37.4953 30.4163V32.266H41.1495V16.5386H37.3757V23.7548C37.3757 26.5616 35.8477 29.0581 33.0926 29.0581C31.2057 29.0581 30.7271 27.7646 30.7271 25.8518V16.5386H26.921V26.6538C26.921 30.9401 28.9275 32.6362 32.2227 32.6362ZM52.5581 32.6362C54.7458 32.6362 57.1404 31.8036 58.699 30.3856L57.2002 27.5787C55.973 28.5973 54.3868 29.3055 52.8282 29.3055C50.5225 29.3055 48.4852 27.8875 48.2459 25.142H58.7589C58.8187 24.6489 58.8785 24.1234 58.8785 23.6319C58.8785 19.4684 56.4823 16.1684 52.1103 16.1684C47.528 16.1684 44.3234 19.5606 44.3234 24.4015C44.3234 28.8738 47.4973 32.6362 52.5581 32.6362ZM55.074 22.4596H48.3365C48.6954 20.4547 50.073 19.1289 52.0197 19.1289C53.7271 19.1289 55.0417 20.3626 55.074 22.4596ZM72.326 32.6362C78.7628 32.6362 83.3159 27.6094 83.3159 21.1645C83.3159 14.904 78.7628 10 72.3228 10C65.8828 10 61.3313 14.904 61.3313 21.1645C61.3313 27.6094 65.8844 32.6362 72.3228 32.6362H72.326ZM72.326 28.9983C68.2515 28.9983 65.3169 25.6045 65.3169 21.1645C65.3169 16.9073 68.2515 13.6396 72.3244 13.6396C76.399 13.6396 79.332 16.9073 79.332 21.1645C79.332 25.6045 76.3973 28.9967 72.3244 28.9967L72.326 28.9983ZM94.0374 32.6362C96.4935 32.6362 98.8881 31.65 100.327 30.0767L98.859 27.3006C97.7207 28.4421 95.9842 29.3055 94.3657 29.3055C91.431 29.3055 89.604 27.0241 89.604 24.3708C89.604 21.6868 91.431 19.4991 94.246 19.4991C95.7433 19.4991 97.2421 20.2073 98.1993 21.1952L99.9067 18.5112C98.4386 16.8782 96.1038 16.1668 94.0374 16.1668C88.9766 16.1668 85.7429 19.9308 85.7429 24.4015C85.7429 28.9659 88.9766 32.6362 94.0374 32.6362ZM110.389 32.6362C112.575 32.6362 114.971 31.8036 116.528 30.3856L115.031 27.5787C113.802 28.5973 112.216 29.3055 110.659 29.3055C108.352 29.3055 106.316 27.8875 106.077 25.142H116.588C116.648 24.6489 116.708 24.1234 116.708 23.6319C116.708 19.4684 114.311 16.1684 109.939 16.1684C105.357 16.1684 102.153 19.5606 102.153 24.4015C102.153 28.8738 105.328 32.6362 110.389 32.6362ZM112.905 22.4596H106.164C106.523 20.4547 107.902 19.1289 109.847 19.1289C111.555 19.1289 112.874 20.3626 112.905 22.4596ZM123.746 32.6362C125.812 32.6362 127.639 31.464 128.567 29.7986H128.627C128.627 29.7986 128.537 30.2918 128.537 30.9401V32.266H132.071V22.4289C132.071 18.4514 129.706 16.1684 125.722 16.1684C123.447 16.1684 120.991 17.0625 119.733 18.1102L121.139 20.9171C122.368 20.0537 123.895 19.4054 125.392 19.4054C126.98 19.4054 128.268 20.1168 128.268 22.1815V22.3982H127.609C124.224 22.3982 118.714 23.1985 118.714 27.9182C118.714 30.7865 120.991 32.6362 123.746 32.6362ZM124.794 29.645C123.266 29.645 122.488 28.6264 122.488 27.5787C122.488 25.3587 125.722 25.0806 127.639 25.0806H128.297V25.5123C128.297 27.4251 126.92 29.645 124.794 29.645ZM139.768 32.266V24.8963C139.768 22.0587 141.475 19.7449 144.17 19.7449C146.086 19.7449 146.566 21.04 146.566 22.9528V32.266H150.369V22.1508C150.369 17.9874 148.423 16.1684 145.039 16.1684C141.954 16.1684 140.246 18.1733 139.619 19.4991H139.557C139.557 19.4991 139.619 19.0044 139.619 18.3883V16.5386H135.965V32.266H139.768Z" fill="#3482FE"></path>
    </g>
  </g>
  <defs>
    <linearGradient id="paint0_linear_4869_432" x1="173.724" y1="22.2164" x2="158.454" y2="36.5886" gradientUnits="userSpaceOnUse">
      <stop offset="0.206483" stop-color="#2960FF"></stop>
      <stop offset="0.730097" stop-color="#55EAFA"></stop>
      <stop offset="1" stop-color="#42F49F"></stop>
    </linearGradient>
    <clipPath id="clip0_4869_432">
      <rect width="173" height="46" fill="white"></rect>
    </clipPath>
    <clipPath id="clip1_4869_432">
      <rect width="173.006" height="25.87" fill="white" transform="translate(0 10)"></rect>
    </clipPath>
  </defs>
</svg>
