<?xml version="1.0" encoding="UTF-8"?>
<svg xmlns="http://www.w3.org/2000/svg" width="173" height="46" viewBox="0 0 173 46" fill="none">
  <g clip-path="url(#clip0_4869_417)">
    <path d="M160.065 35.8692C167.209 35.8692 173 30.0782 173 22.9346C173 15.791 167.209 10 160.065 10C152.922 10 147.131 15.791 147.131 22.9346C147.131 30.0782 152.922 35.8692 160.065 35.8692Z" fill="#8D8E91"></path>
    <path fill-rule="evenodd" clip-rule="evenodd" d="M7.69608 32.2653C11.6201 32.2653 15.0332 30.2927 15.0332 25.9128C15.0332 23.6929 13.9257 21.4714 11.5894 20.7632V20.7017C13.2062 19.806 14.165 18.0502 14.165 16.013C14.165 12.4058 11.439 10.3703 7.57643 10.3703H0V32.2636L7.69608 32.2653ZM7.60715 19.3145H3.86259V13.7914H7.54733C9.3129 13.7914 10.2426 14.9329 10.2426 16.5061C10.2426 18.0776 9.28379 19.3113 7.60715 19.3113V19.3145ZM7.99519 28.8424H3.86421V22.5207H7.9968C9.94346 22.5207 11.0817 23.8465 11.0817 25.6654C11.0817 27.5167 9.97256 28.8424 7.99519 28.8424ZM23.1189 32.4189C23.6282 32.4189 24.047 32.3574 24.317 32.3267V28.9039C24.1068 28.9362 23.8966 28.9362 23.7479 28.9362C22.76 28.9362 22.1909 28.5029 22.1909 26.7761V10.3703H18.4172V27.3631C18.4172 31.8643 21.0235 32.4189 23.1189 32.4189ZM32.2217 32.6355C34.828 32.6355 36.8053 30.9395 37.5248 29.3372H37.583C37.583 29.3372 37.4941 29.8287 37.4941 30.4156V32.2653H41.1481V16.5384H37.3745V23.7543C37.3745 26.5611 35.8466 29.0575 33.0915 29.0575C31.2047 29.0575 30.7261 27.764 30.7261 25.8513V16.5384H26.9201V26.6533C26.9201 30.9395 28.9266 32.6355 32.2217 32.6355ZM52.5564 32.6355C54.744 32.6355 57.1385 31.8028 58.6971 30.3849L57.1983 27.5781C55.9712 28.5967 54.3851 29.3049 52.8264 29.3049C50.5209 29.3049 48.4837 27.8869 48.2444 25.1415H58.7569C58.8168 24.6484 58.8766 24.1229 58.8766 23.6314C58.8766 19.4681 56.4805 16.1682 52.1086 16.1682C47.5265 16.1682 44.322 19.5603 44.322 24.401C44.322 28.8732 47.4958 32.6355 52.5564 32.6355ZM55.0722 22.4592H48.3349C48.6938 20.4544 50.0714 19.1286 52.018 19.1286C53.7254 19.1286 55.0399 20.3622 55.0722 22.4592ZM72.3237 32.6355C78.7603 32.6355 83.3132 27.6088 83.3132 21.1642C83.3132 14.9038 78.7603 10 72.3205 10C65.8807 10 61.3293 14.9038 61.3293 21.1642C61.3293 27.6088 65.8823 32.6355 72.3205 32.6355H72.3237ZM72.3237 28.9977C68.2493 28.9977 65.3148 25.604 65.3148 21.1642C65.3148 16.9071 68.2493 13.6395 72.3221 13.6395C76.3965 13.6395 79.3294 16.9071 79.3294 21.1642C79.3294 25.604 76.3949 28.996 72.3221 28.996L72.3237 28.9977ZM94.0344 32.6355C96.4903 32.6355 98.8849 31.6493 100.324 30.0761L98.8558 27.3C97.7175 28.4415 95.981 29.3049 94.3626 29.3049C91.4281 29.3049 89.6011 27.0235 89.6011 24.3703C89.6011 21.6864 91.4281 19.4988 94.243 19.4988C95.7401 19.4988 97.2389 20.207 98.1961 21.1949L99.9035 18.511C98.4354 16.878 96.1007 16.1666 94.0344 16.1666C88.9737 16.1666 85.7401 19.9305 85.7401 24.401C85.7401 28.9653 88.9737 32.6355 94.0344 32.6355ZM110.385 32.6355C112.571 32.6355 114.967 31.8028 116.524 30.3849L115.027 27.5781C113.798 28.5967 112.212 29.3049 110.655 29.3049C108.348 29.3049 106.313 27.8869 106.073 25.1415H116.584C116.644 24.6484 116.704 24.1229 116.704 23.6314C116.704 19.4681 114.308 16.1682 109.936 16.1682C105.354 16.1682 102.149 19.5603 102.149 24.401C102.149 28.8732 105.325 32.6355 110.385 32.6355ZM112.901 22.4592H106.161C106.52 20.4544 107.899 19.1286 109.844 19.1286C111.551 19.1286 112.87 20.3622 112.901 22.4592ZM123.742 32.6355C125.808 32.6355 127.635 31.4633 128.563 29.798H128.623C128.623 29.798 128.533 30.2911 128.533 30.9395V32.2653H132.067V22.4285C132.067 18.4511 129.701 16.1682 125.718 16.1682C123.443 16.1682 120.987 17.0623 119.729 18.11L121.136 20.9168C122.364 20.0534 123.891 19.4051 125.388 19.4051C126.976 19.4051 128.264 20.1165 128.264 22.1811V22.3978H127.604C124.22 22.3978 118.71 23.1981 118.71 27.9176C118.71 30.7859 120.987 32.6355 123.742 32.6355ZM124.79 29.6444C123.262 29.6444 122.484 28.6258 122.484 27.5781C122.484 25.3582 125.718 25.0801 127.635 25.0801H128.293V25.5118C128.293 27.4245 126.916 29.6444 124.79 29.6444ZM139.763 32.2653V24.8958C139.763 22.0583 141.47 19.7446 144.166 19.7446C146.082 19.7446 146.562 21.0397 146.562 22.9524V32.2653H150.364V22.1504C150.364 17.9871 148.418 16.1682 145.034 16.1682C141.949 16.1682 140.242 18.173 139.614 19.4988H139.553C139.553 19.4988 139.614 19.0041 139.614 18.3881V16.5384H135.96V32.2653H139.763Z" fill="#8D8E91"></path>
  </g>
  <defs>
    <clipPath id="clip0_4869_417">
      <rect width="173" height="25.8692" fill="white" transform="translate(0 10)"></rect>
    </clipPath>
  </defs>
</svg>
