<svg width="16" height="7" viewBox="0 0 16 7" fill="none" xmlns="http://www.w3.org/2000/svg">
<path d="M12.0807 6.99964C12.1612 6.99467 12.2369 6.95866 12.2919 6.89781L15.5 3.49882L12.2919 0.0998236C12.215 0.0166184 12.1002 -0.0181541 11.9916 0.00916686C11.8829 0.0364881 11.7962 0.120935 11.7657 0.230219C11.734 0.340746 11.7633 0.458723 11.8426 0.539445L14.3342 3.1809H0.816786C0.704476 3.17966 0.599491 3.23926 0.542116 3.33861C0.485961 3.43796 0.485961 3.55967 0.542116 3.65902C0.599491 3.75837 0.704476 3.81798 0.816786 3.81673H14.3342L11.8426 6.45819C11.7511 6.55133 11.7254 6.69166 11.7791 6.81088C11.8316 6.93134 11.9513 7.00585 12.0807 6.99964Z" fill="#D2D2D3"/>
</svg>
