<svg width="364" height="182" viewBox="0 0 364 182" fill="none" xmlns="http://www.w3.org/2000/svg">
<g opacity="0.2">
<path opacity="0.19" d="M809.658 -191.686C857.373 -7.29042 692.458 68.4097 519.896 -4.20627C357.317 -72.6011 194.428 -179.107 141.352 14.1758C102.716 154.791 -80.0335 246.485 -152.364 242.495" stroke="url(#paint0_linear_1259_194344)" stroke-miterlimit="10"/>
<path opacity="0.2212" d="M806.549 -198.901C843.243 -74.5949 777.473 4.19565 682.938 13.1793C634.511 17.7953 577.834 7.85031 520.365 -15.8648C493.419 -26.8813 466.346 -37.9936 439.835 -48.64C306.596 -102.073 194.482 -140.395 150.131 20.0084C140.562 54.4945 122.371 85.9525 98.2931 113.06C22.2433 198.564 -93.7199 254.252 -146.316 251.345" stroke="url(#paint1_linear_1259_194344)" stroke-width="1.0192" stroke-miterlimit="10"/>
<path opacity="0.2523" d="M803.438 -206.116C845.085 -80.1578 775.72 2.78477 682.774 6.01386C634.218 7.68664 577.987 -4.62472 520.833 -27.5239C493.679 -38.3992 466.203 -48.3263 439.427 -57.7613C306.608 -104.629 203.218 -133.382 158.868 25.8687C149.136 60.6483 130.639 92.1931 105.276 118.662C24.0749 203.377 -89.7743 262.958 -140.299 260.153" stroke="url(#paint2_linear_1259_194344)" stroke-width="1.0385" stroke-miterlimit="10"/>
<path opacity="0.2835" d="M800.359 -213.291C846.958 -85.6796 773.773 1.26477 682.642 -1.11044C633.844 -2.36577 578.186 -16.9477 521.331 -39.1418C493.93 -49.8476 466.12 -58.5764 439.051 -66.8413C306.678 -107.283 212.026 -126.356 167.678 31.742C157.753 66.7737 138.98 98.4466 112.401 124.29C25.9095 208.19 -85.8388 271.734 -134.221 269.043" stroke="url(#paint3_linear_1259_194344)" stroke-width="1.0577" stroke-miterlimit="10"/>
<path opacity="0.3146" d="M797.245 -220.506C848.796 -91.2423 771.692 -0.531252 682.504 -8.2344C633.339 -12.5136 578.309 -29.2834 521.754 -50.7725C494.105 -61.3088 466.002 -68.8675 438.571 -75.9755C306.838 -110.062 220.731 -119.384 176.342 37.5894C166.254 72.9147 147.176 104.674 119.311 129.88C27.5573 213.005 -81.9659 280.427 -128.29 277.908" stroke="url(#paint4_linear_1259_194344)" stroke-width="1.0769" stroke-miterlimit="10"/>
<path opacity="0.3458" d="M794.135 -227.722C850.638 -96.8054 769.46 -2.46469 682.34 -15.4C632.752 -22.7858 578.436 -41.6194 522.222 -62.4317C494.324 -72.7986 465.928 -79.1872 438.163 -85.0968C307.154 -112.886 229.508 -112.399 185.12 43.4214C174.841 78.9989 155.416 110.874 126.405 135.467C29.2911 217.764 -77.992 289.175 -122.202 286.729" stroke="url(#paint5_linear_1259_194344)" stroke-width="1.0962" stroke-miterlimit="10"/>
<path opacity="0.3769" d="M791.025 -234.938C852.481 -102.369 767.171 -4.66209 682.219 -22.5945C632.109 -33.1414 578.605 -53.9844 522.704 -74.1613C494.545 -84.2891 465.911 -89.6055 437.77 -94.2885C307.579 -115.906 238.258 -105.456 193.9 49.2526C183.457 85.1236 163.699 117.044 133.43 141.04C30.9 222.426 -74.045 297.88 -116.155 295.577" stroke="url(#paint6_linear_1259_194344)" stroke-width="1.1154" stroke-miterlimit="10"/>
<path opacity="0.4081" d="M787.947 -242.112C854.355 -107.891 764.883 -7.03914 682.117 -29.6772C631.512 -43.5244 578.765 -66.2788 523.233 -85.7376C494.825 -95.6959 465.981 -99.8987 437.423 -103.327C308.119 -118.94 247.431 -98.2532 202.739 55.1675C192.202 91.3451 171.972 123.285 140.585 146.71C32.6381 227.185 -70.0385 306.669 -110.007 304.481" stroke="url(#paint7_linear_1259_194344)" stroke-width="1.1346" stroke-miterlimit="10"/>
<path opacity="0.4392" d="M784.835 -249.328C856.196 -113.453 762.544 -9.74895 681.952 -36.8425C630.795 -54.0726 578.848 -78.5862 523.699 -97.3965C495.043 -107.185 465.989 -110.275 436.986 -112.489C308.693 -122.182 256.179 -91.3095 211.488 60.9583C200.759 97.3881 180.183 129.443 147.58 152.243C34.1182 231.752 -66.1223 315.334 -104.019 313.248" stroke="url(#paint8_linear_1259_194344)" stroke-width="1.1538" stroke-miterlimit="10"/>
<path opacity="0.4704" d="M781.726 -256.543C858.038 -119.016 760.233 -12.5979 681.789 -44.0077C630.065 -64.7318 578.976 -90.9219 524.139 -109.097C495.222 -118.646 465.984 -120.761 436.551 -121.652C309.266 -125.605 264.957 -84.3242 220.197 66.7776C209.346 103.473 188.298 135.546 154.605 157.817C35.6571 236.402 -62.1889 324.111 -97.9438 322.139" stroke="url(#paint9_linear_1259_194344)" stroke-width="1.1731" stroke-miterlimit="10"/>
<path opacity="0.5015" d="M778.617 -263.758C859.882 -124.578 757.921 -15.6269 681.697 -51.1593C629.433 -75.5165 579.133 -103.216 524.638 -120.714C495.472 -130.094 466.065 -131.124 436.174 -130.731C309.953 -129.043 273.765 -77.2971 229.006 72.6517C217.992 109.64 196.541 141.746 161.688 163.475C37.1691 241.011 -58.2127 332.859 -91.8956 330.989" stroke="url(#paint10_linear_1259_194344)" stroke-width="1.1923" stroke-miterlimit="10"/>
<path opacity="0.5327" d="M775.533 -270.932C861.779 -130.059 755.771 -18.7702 681.56 -58.284C628.81 -86.3722 579.245 -115.483 525.132 -132.332C495.746 -141.501 466.086 -141.57 435.793 -139.811C310.661 -132.622 282.568 -70.2714 237.798 78.5942C226.591 115.835 204.779 147.945 168.767 169.131C38.677 245.619 -54.2819 341.634 -85.8231 339.879" stroke="url(#paint11_linear_1259_194344)" stroke-width="1.2115" stroke-miterlimit="10"/>
<path opacity="0.5638" d="M772.424 -278.147C863.622 -135.621 753.623 -22.0927 681.398 -65.4487C628.216 -97.3657 579.36 -127.748 525.573 -144.032C495.897 -153.003 466.095 -152.126 435.33 -149.014C311.244 -136.475 291.319 -63.327 246.521 84.3444C235.151 121.879 212.936 154.021 175.764 174.664C40.075 250.063 -50.3632 350.3 -79.8042 348.687" stroke="url(#paint12_linear_1259_194344)" stroke-width="1.2308" stroke-miterlimit="10"/>
<path opacity="0.595" d="M769.313 -285.363C865.463 -141.184 751.596 -25.5008 681.262 -72.573C627.732 -108.375 579.473 -140.014 526.068 -155.65C496.131 -164.382 466.158 -162.6 434.95 -158.094C311.937 -140.344 300.054 -56.3139 255.286 90.246C243.724 128.033 221.078 160.166 182.816 180.28C41.5409 254.519 -46.431 359.076 -73.8 357.565" stroke="url(#paint13_linear_1259_194344)" stroke-width="1.25" stroke-miterlimit="10"/>
<path opacity="0.6262" d="M766.205 -292.578C867.308 -146.747 749.669 -29.0347 681.102 -79.7382C627.318 -119.552 579.561 -152.322 526.539 -167.308C496.353 -175.872 466.168 -173.156 434.546 -167.215C312.576 -144.296 308.862 -49.2872 264.067 96.0783C252.341 134.158 229.265 166.283 189.871 185.895C42.9404 258.962 -42.4826 367.782 -67.7513 366.414" stroke="url(#paint14_linear_1259_194344)" stroke-width="1.2692" stroke-miterlimit="10"/>
<path opacity="0.6573" d="M763.094 -299.795C869.148 -152.311 747.849 -32.5847 680.979 -86.9327C626.983 -130.786 579.715 -164.617 527.018 -179.038C496.572 -187.362 466.201 -183.852 434.122 -176.448C313.153 -148.512 317.582 -42.3858 272.857 101.84C260.94 140.172 237.502 172.301 196.949 191.371C44.3755 263.195 -38.5248 376.418 -61.6519 375.165" stroke="url(#paint15_linear_1259_194344)" stroke-width="1.2885" stroke-miterlimit="10"/>
<path opacity="0.6885" d="M760.011 -306.969C871.018 -157.833 746.141 -36.1494 680.871 -94.0157C626.817 -141.952 579.815 -176.814 527.501 -190.586C496.793 -198.671 466.195 -194.34 433.729 -185.459C313.746 -152.617 326.374 -35.2901 281.609 107.811C269.529 146.437 245.631 178.515 203.975 197.125C45.8004 267.679 -34.5771 385.305 -55.6322 384.153" stroke="url(#paint16_linear_1259_194344)" stroke-width="1.3077" stroke-miterlimit="10"/>
<path opacity="0.7196" d="M756.902 -314.184C872.861 -163.395 744.475 -39.7415 680.709 -101.181C626.678 -153.257 579.929 -189.08 527.97 -202.245C497 -210.091 466.188 -205.007 433.323 -194.58C314.158 -156.899 335.083 -28.3178 290.36 113.602C278.088 152.48 253.801 184.521 211.014 202.63C47.1961 271.942 -30.6587 393.97 -49.6004 392.892" stroke="url(#paint17_linear_1259_194344)" stroke-width="1.3269" stroke-miterlimit="10"/>
<path opacity="0.7508" d="M753.794 -321.399C874.706 -168.957 742.923 -43.3481 680.548 -108.345C626.582 -164.589 580.004 -201.317 528.412 -213.944C497.181 -221.551 466.114 -215.686 432.89 -203.741C314.584 -161.25 343.793 -21.3447 299.1 119.464C286.664 158.635 261.946 190.667 218.028 208.275C48.5807 276.275 -26.7513 402.706 -43.5645 401.812" stroke="url(#paint18_linear_1259_194344)" stroke-width="1.3462" stroke-miterlimit="10"/>
<path opacity="0.7819" d="M750.685 -328.616C876.549 -174.521 741.438 -46.9443 680.415 -115.471C626.625 -175.897 580.148 -213.543 528.91 -225.563C497.418 -232.931 466.108 -226.355 432.484 -212.864C314.94 -165.617 352.572 -14.3612 307.88 125.294C295.253 164.718 270.145 196.712 225.123 213.861C50.0185 280.508 -22.7343 411.424 -37.4755 410.632" stroke="url(#paint19_linear_1259_194344)" stroke-width="1.3654" stroke-miterlimit="10"/>
<path opacity="0.8131" d="M747.601 -335.79C878.417 -180.043 740.09 -50.5129 680.319 -122.623C626.775 -187.219 580.288 -225.768 529.417 -237.251C497.663 -244.38 466.041 -237.106 432.116 -222.013C315.277 -170.094 361.082 -7.49842 316.685 131.168C303.824 170.872 278.368 202.801 232.174 219.476C51.4112 284.77 -18.832 420.158 -31.4315 419.481" stroke="url(#paint20_linear_1259_194344)" stroke-width="1.3846" stroke-miterlimit="10"/>
<path opacity="0.8442" d="M744.493 -343.005C880.29 -185.564 738.774 -54.0395 680.158 -129.788C626.901 -198.582 580.362 -238.006 529.846 -248.881C497.831 -255.771 465.897 -247.799 431.669 -231.106C315.424 -174.498 369.779 -0.456449 325.424 137.028C312.372 176.985 286.527 208.876 239.229 225.092C52.85 289.005 -14.827 428.948 -25.3828 428.331" stroke="url(#paint21_linear_1259_194344)" stroke-width="1.4038" stroke-miterlimit="10"/>
<path opacity="0.8754" d="M741.382 -350.221C882.13 -191.128 737.496 -57.5954 680.022 -136.913C627.162 -209.92 580.462 -250.203 530.341 -260.5C498.064 -267.15 465.819 -258.48 431.219 -240.199C315.499 -178.917 378.514 6.55617 334.16 142.888C320.944 183.138 294.653 214.91 246.252 230.665C54.2285 293.156 -10.952 437.64 -19.3379 437.179" stroke="url(#paint22_linear_1259_194344)" stroke-width="1.4231" stroke-miterlimit="10"/>
<path opacity="0.9065" d="M738.271 -357.436C883.972 -196.69 736.275 -61.0675 679.858 -144.078C627.454 -221.216 580.562 -262.399 530.78 -272.2C498.242 -278.611 465.615 -269.256 430.784 -249.361C315.531 -183.486 387.222 13.5286 342.869 148.708C329.461 189.21 302.78 220.944 253.235 236.268C55.5387 297.295 -7.04749 446.375 -13.4028 446.044" stroke="url(#paint23_linear_1259_194344)" stroke-width="1.4423" stroke-miterlimit="10"/>
<path opacity="0.9377" d="M735.19 -364.611C885.843 -202.212 735.153 -64.4867 679.765 -151.231C627.828 -232.569 580.705 -274.625 531.319 -283.846C498.506 -289.949 465.552 -280.007 430.447 -258.47C315.579 -187.946 396.069 20.5257 351.718 154.552C338.147 195.348 311.048 227.003 260.372 241.826C57.0716 301.402 -3.03119 455.094 -7.27309 454.836" stroke="url(#paint24_linear_1259_194344)" stroke-width="1.4615" stroke-miterlimit="10"/>
<path opacity="0.9688" d="M732.079 -371.826C887.685 -207.774 734.031 -67.9037 679.63 -158.354C628.217 -243.81 580.82 -286.709 531.815 -295.463C498.727 -301.257 465.376 -290.741 430.067 -267.549C315.515 -192.389 404.875 27.5533 360.511 160.496C346.748 201.544 319.203 233.08 267.439 247.554C58.3926 305.292 0.929507 463.912 -1.18388 463.839" stroke="url(#paint25_linear_1259_194344)" stroke-width="1.4808" stroke-miterlimit="10"/>
<path d="M728.969 -379.041C889.526 -213.337 732.936 -71.2805 679.466 -165.519C593.79 -316.483 516.919 -337.688 429.631 -276.712C279.522 -171.884 496.163 194.636 274.435 253.086C59.872 309.678 4.80556 472.605 4.80556 472.605" stroke="url(#paint26_linear_1259_194344)" stroke-width="1.5" stroke-miterlimit="10"/>
</g>
<defs>
<linearGradient id="paint0_linear_1259_194344" x1="-85.2363" y1="341.05" x2="773.174" y2="-245.497" gradientUnits="userSpaceOnUse">
<stop stop-color="#FFA978"/>
<stop offset="1" stop-color="#FF7A00"/>
</linearGradient>
<linearGradient id="paint1_linear_1259_194344" x1="-84.1848" y1="342.57" x2="775.471" y2="-244.828" gradientUnits="userSpaceOnUse">
<stop stop-color="#FFA978"/>
<stop offset="1" stop-color="#FF7A00"/>
</linearGradient>
<linearGradient id="paint2_linear_1259_194344" x1="-83.243" y1="343.935" x2="777.661" y2="-244.316" gradientUnits="userSpaceOnUse">
<stop stop-color="#FFA978"/>
<stop offset="1" stop-color="#FF7A00"/>
</linearGradient>
<linearGradient id="paint3_linear_1259_194344" x1="-82.4492" y1="345.072" x2="779.595" y2="-243.958" gradientUnits="userSpaceOnUse">
<stop stop-color="#FFA978"/>
<stop offset="1" stop-color="#FF7A00"/>
</linearGradient>
<linearGradient id="paint4_linear_1259_194344" x1="-81.7903" y1="346.025" x2="781.498" y2="-243.855" gradientUnits="userSpaceOnUse">
<stop stop-color="#FFA978"/>
<stop offset="1" stop-color="#FF7A00"/>
</linearGradient>
<linearGradient id="paint5_linear_1259_194344" x1="-81.3094" y1="346.718" x2="783.229" y2="-244.017" gradientUnits="userSpaceOnUse">
<stop stop-color="#FFA978"/>
<stop offset="1" stop-color="#FF7A00"/>
</linearGradient>
<linearGradient id="paint6_linear_1259_194344" x1="-81.0396" y1="347.106" x2="784.757" y2="-244.488" gradientUnits="userSpaceOnUse">
<stop stop-color="#FF7A00"/>
<stop offset="1" stop-color="#FFA978"/>
</linearGradient>
<linearGradient id="paint7_linear_1259_194344" x1="-80.9775" y1="347.121" x2="785.901" y2="-245.212" gradientUnits="userSpaceOnUse">
<stop stop-color="#FF7A00"/>
<stop offset="1" stop-color="#FFA978"/>
</linearGradient>
<linearGradient id="paint8_linear_1259_194344" x1="-81.2281" y1="346.748" x2="786.902" y2="-246.441" gradientUnits="userSpaceOnUse">
<stop stop-color="#FF7A00"/>
<stop offset="1" stop-color="#FFA978"/>
</linearGradient>
<linearGradient id="paint9_linear_1259_194344" x1="-81.7936" y1="345.928" x2="787.607" y2="-248.129" gradientUnits="userSpaceOnUse">
<stop stop-color="#FF7A00"/>
<stop offset="1" stop-color="#FFA978"/>
</linearGradient>
<linearGradient id="paint10_linear_1259_194344" x1="-82.706" y1="344.629" x2="788.002" y2="-250.321" gradientUnits="userSpaceOnUse">
<stop stop-color="#FF7A00"/>
<stop offset="1" stop-color="#FFA978"/>
</linearGradient>
<linearGradient id="paint11_linear_1259_194344" x1="-83.8568" y1="342.663" x2="787.685" y2="-252.857" gradientUnits="userSpaceOnUse">
<stop stop-color="#FF7A00"/>
<stop offset="1" stop-color="#FFA978"/>
</linearGradient>
<linearGradient id="paint12_linear_1259_194344" x1="-85.5016" y1="340.418" x2="787.512" y2="-256.108" gradientUnits="userSpaceOnUse">
<stop stop-color="#FF7A00"/>
<stop offset="1" stop-color="#FFA978"/>
</linearGradient>
<linearGradient id="paint13_linear_1259_194344" x1="237.11" y1="53.4534" x2="237.11" y2="53.4534" gradientUnits="userSpaceOnUse">
<stop stop-color="#FF7A00"/>
<stop offset="1" stop-color="#FFA978"/>
</linearGradient>
<linearGradient id="paint14_linear_1259_194344" x1="786.194" y1="-263.38" x2="-89.3087" y2="334.846" gradientUnits="userSpaceOnUse">
<stop stop-color="#FF7A00"/>
<stop offset="1" stop-color="#FFA978"/>
</linearGradient>
<linearGradient id="paint15_linear_1259_194344" x1="784.949" y1="-267.749" x2="-91.6286" y2="331.212" gradientUnits="userSpaceOnUse">
<stop stop-color="#FF7A00"/>
<stop offset="1" stop-color="#FFA978"/>
</linearGradient>
<linearGradient id="paint16_linear_1259_194344" x1="783.891" y1="-272.703" x2="-94.4712" y2="327.477" gradientUnits="userSpaceOnUse">
<stop stop-color="#FF7A00"/>
<stop offset="1" stop-color="#FFA978"/>
</linearGradient>
<linearGradient id="paint17_linear_1259_194344" x1="782.492" y1="-277.764" x2="-97.2396" y2="323.352" gradientUnits="userSpaceOnUse">
<stop stop-color="#FF7A00"/>
<stop offset="1" stop-color="#FFA978"/>
</linearGradient>
<linearGradient id="paint18_linear_1259_194344" x1="781.036" y1="-283.074" x2="-100.157" y2="319.04" gradientUnits="userSpaceOnUse">
<stop stop-color="#FF7A00"/>
<stop offset="1" stop-color="#FFA978"/>
</linearGradient>
<linearGradient id="paint19_linear_1259_194344" x1="779.53" y1="-288.587" x2="-103.192" y2="314.572" gradientUnits="userSpaceOnUse">
<stop stop-color="#FF7A00"/>
<stop offset="1" stop-color="#FFA978"/>
</linearGradient>
<linearGradient id="paint20_linear_1259_194344" x1="778.022" y1="-294.332" x2="-106.451" y2="310.023" gradientUnits="userSpaceOnUse">
<stop stop-color="#FF7A00"/>
<stop offset="1" stop-color="#FFA978"/>
</linearGradient>
<linearGradient id="paint21_linear_1259_194344" x1="779.604" y1="-295.509" x2="-106.483" y2="309.95" gradientUnits="userSpaceOnUse">
<stop stop-color="#FF7A00"/>
<stop offset="1" stop-color="#FFA978"/>
</linearGradient>
<linearGradient id="paint22_linear_1259_194344" x1="782.236" y1="-295.239" x2="-105.514" y2="311.356" gradientUnits="userSpaceOnUse">
<stop stop-color="#FF7A00"/>
<stop offset="1" stop-color="#FFA978"/>
</linearGradient>
<linearGradient id="paint23_linear_1259_194344" x1="784.868" y1="-295.056" x2="-104.587" y2="312.704" gradientUnits="userSpaceOnUse">
<stop stop-color="#FF7A00"/>
<stop offset="1" stop-color="#FFA978"/>
</linearGradient>
<linearGradient id="paint24_linear_1259_194344" x1="787.504" y1="-294.993" x2="-103.799" y2="314.03" gradientUnits="userSpaceOnUse">
<stop stop-color="#FF7A00"/>
<stop offset="1" stop-color="#FFA978"/>
</linearGradient>
<linearGradient id="paint25_linear_1259_194344" x1="790.137" y1="-294.942" x2="-102.935" y2="315.289" gradientUnits="userSpaceOnUse">
<stop stop-color="#FF7A00"/>
<stop offset="1" stop-color="#FFA978"/>
</linearGradient>
<linearGradient id="paint26_linear_1259_194344" x1="792.754" y1="-294.983" x2="-102.118" y2="316.478" gradientUnits="userSpaceOnUse">
<stop stop-color="#FF7A00"/>
<stop offset="1" stop-color="#FFA978"/>
</linearGradient>
</defs>
</svg>
