<svg width="25" height="24" viewBox="0 0 25 24" fill="none" xmlns="http://www.w3.org/2000/svg">
<rect width="24" height="24" transform="translate(0.5)" fill="white" fill-opacity="0.01"/>
<path fill-rule="evenodd" clip-rule="evenodd" d="M5.495 5H19.505C20.607 5 21.5 5.895 21.5 6.994V19.006C21.5 19.2679 21.4484 19.5273 21.3481 19.7693C21.2478 20.0113 21.1009 20.2312 20.9156 20.4163C20.7304 20.6015 20.5104 20.7484 20.2684 20.8485C20.0263 20.9487 19.7669 21.0001 19.505 21H5.495C4.96607 21 4.45878 20.7899 4.08468 20.416C3.71057 20.0421 3.50027 19.5349 3.5 19.006V6.994C3.5 5.893 4.392 5 5.495 5ZM5.5 9V18C5.5 18.2652 5.60536 18.5196 5.79289 18.7071C5.98043 18.8946 6.23478 19 6.5 19H18.5C18.7652 19 19.0196 18.8946 19.2071 18.7071C19.3946 18.5196 19.5 18.2652 19.5 18V9H5.5ZM6.5 4C6.5 3.73478 6.60536 3.48043 6.79289 3.29289C6.98043 3.10536 7.23478 3 7.5 3C7.76522 3 8.01957 3.10536 8.20711 3.29289C8.39464 3.48043 8.5 3.73478 8.5 4V5H6.5V4ZM16.5 4C16.5 3.73478 16.6054 3.48043 16.7929 3.29289C16.9804 3.10536 17.2348 3 17.5 3C17.7652 3 18.0196 3.10536 18.2071 3.29289C18.3946 3.48043 18.5 3.73478 18.5 4V5H16.5V4ZM7.5 13V10.999H9.5V13H7.5ZM15.5 13V10.999H17.5V13H15.5ZM11.5 13V10.999H13.501V13H11.5ZM7.5 17V15H9.5V17H7.5ZM11.5 17V15H13.501V17H11.5ZM15.5 17V15H17.5V17H15.5Z" fill="white"/>
</svg>
