<svg width="23" height="23" viewBox="0 0 23 23" fill="none" xmlns="http://www.w3.org/2000/svg">
<path d="M2.64832 1.94104L3.14332 1.4461L2.64838 0.951091L2.15337 1.44603L2.64832 1.94104ZM20.841 20.1362L20.346 20.6311L21.541 21.8263V20.1362H20.841ZM1.94116 2.6481L1.44622 2.15309L0.951213 2.64803L1.44615 3.14304L1.94116 2.6481ZM20.1326 20.842V21.542H21.8224L20.6276 20.3471L20.1326 20.842ZM5.7317 20.842V20.142H5.0317V20.842H5.7317ZM5.7317 22.042H5.0317V22.742H5.7317V22.042ZM22.041 22.042V22.742H22.741V22.042H22.041ZM22.041 5.73058H22.741V5.03058H22.041V5.73058ZM20.841 5.73058V5.03058H20.141V5.73058H20.841ZM2.15331 2.43598L20.346 20.6311L21.336 19.6412L3.14332 1.4461L2.15331 2.43598ZM2.4361 3.14311L3.14326 2.43605L2.15337 1.44603L1.44622 2.15309L2.4361 3.14311ZM20.6276 20.3471L2.43617 2.15316L1.44615 3.14304L19.6376 21.337L20.6276 20.3471ZM5.7317 21.542L20.1326 21.542V20.142L5.7317 20.142L5.7317 21.542ZM6.4317 22.042V20.842H5.0317L5.0317 22.042H6.4317ZM21.441 21.342L5.7317 21.342L5.7317 22.742L21.441 22.742V21.342ZM22.041 21.342H21.441V22.742H22.041V21.342ZM21.341 21.442V22.042H22.741V21.442H21.341ZM21.341 5.73058L21.341 21.442H22.741L22.741 5.73058L21.341 5.73058ZM20.841 6.43058H22.041V5.03058L20.841 5.03058V6.43058ZM21.541 20.1362L21.541 5.73058L20.141 5.73058L20.141 20.1362H21.541Z" fill="#FF6300"/>
</svg>
