<svg width="23" height="23" viewBox="0 0 23 23" fill="none" xmlns="http://www.w3.org/2000/svg">
<path d="M1.94108 20.3512L1.44614 19.8562L0.951129 20.3511L1.44607 20.8461L1.94108 20.3512ZM20.1362 2.15848L20.6312 2.65348L21.8263 1.45848H20.1362V2.15848ZM2.64814 21.0583L2.15313 21.5533L2.64807 22.0483L3.14308 21.5534L2.64814 21.0583ZM20.842 2.86687H21.542V1.17708L20.3471 2.37186L20.842 2.86687ZM20.842 17.2678H20.142V17.9678H20.842V17.2678ZM22.042 17.2678V17.9678H22.742V17.2678H22.042ZM22.042 0.958475H22.742V0.258474H22.042V0.958475ZM5.73062 0.958475V0.258474H5.03062V0.958475H5.73062ZM5.73062 2.15848H5.03062V2.85848H5.73062V2.15848ZM2.43602 20.8462L20.6312 2.65348L19.6413 1.66347L1.44614 19.8562L2.43602 20.8462ZM3.14315 20.5634L2.43609 19.8563L1.44607 20.8461L2.15313 21.5533L3.14315 20.5634ZM20.3471 2.37186L2.1532 20.5633L3.14308 21.5534L21.337 3.36188L20.3471 2.37186ZM21.542 17.2678L21.542 2.86687H20.142L20.142 17.2678H21.542ZM22.042 16.5678H20.842V17.9678H22.042V16.5678ZM21.342 1.55848L21.342 17.2678H22.742L22.742 1.55848H21.342ZM21.342 0.958475V1.55848H22.742V0.958475H21.342ZM21.442 1.65848H22.042V0.258474H21.442V1.65848ZM5.73062 1.65848L21.442 1.65848V0.258474L5.73062 0.258474L5.73062 1.65848ZM6.43062 2.15848L6.43062 0.958475H5.03062L5.03062 2.15848H6.43062ZM20.1362 1.45848L5.73062 1.45848V2.85848L20.1362 2.85848V1.45848Z" fill="white"/>
</svg>
