<svg xmlns="http://www.w3.org/2000/svg" width="1200" height="748" viewBox="0 0 1200 748" fill="none">
  <path d="M334.575 746.854C328.252 744.487 326.484 742.169 327.985 738.217C328.681 736.386 330.018 734.888 330.955 734.888C331.893 734.888 335.997 737.046 340.076 739.684C344.155 742.322 349.143 745.079 351.16 745.812L354.828 747.144L350.316 747.242C347.834 747.296 344.194 747.574 342.225 747.859C340.257 748.145 336.814 747.693 334.575 746.854ZM320.224 734.703C319.034 734.037 317.049 733.812 315.814 734.205C314.258 734.698 313.057 733.963 311.906 731.811C310.992 730.102 309.353 728.397 308.265 728.023C305.768 727.163 300.533 718.679 297.62 710.768C296.148 706.773 294.169 704.011 291.82 702.674C287.651 700.302 287.353 699.226 290.579 698.201C294.271 697.029 294.958 690.519 291.85 686.153C290.367 684.07 289.587 681.623 290.034 680.458C290.561 679.084 289.106 676.672 285.582 673.08C281.135 668.546 280.312 666.898 280.113 662.121C279.985 659.028 279.232 655.718 278.441 654.764C277.444 653.563 277.241 649.251 277.779 640.726C278.362 631.487 278.023 625.785 276.416 617.838C274.029 606.035 272.811 584.044 273.431 563.982C273.563 559.701 273.008 553.824 272.198 550.922C270.226 543.855 261.15 534.934 249.933 529.037C241.91 524.819 240.781 523.738 237.645 517.259C235.746 513.336 232.116 507.472 229.579 504.229C227.042 500.985 224.283 496.222 223.449 493.644C220.801 485.462 216.132 477.24 212.95 475.154C211.257 474.044 209.325 471.157 208.658 468.739C207.578 464.827 207.863 463.735 211.243 458.82C214.908 453.491 214.951 453.273 212.474 452.625C206.389 451.033 208.948 442.896 219.871 429.105C227.132 419.939 229.258 412.957 227.247 404.89C226.481 401.816 225.795 398.6 225.722 397.744C225.65 396.888 225.104 396.188 224.51 396.188C223.915 396.188 224.029 395.065 224.764 393.692C225.895 391.577 225.609 390.973 222.89 389.734C218.928 387.927 212.944 389.713 212.921 392.709C212.893 396.302 211.314 396.567 206.106 393.851C203.318 392.397 200.421 391.207 199.669 391.207C198.917 391.207 195.994 389.218 193.173 386.786C190.352 384.355 187.343 381.811 186.488 381.134C185.632 380.456 184.932 378.61 184.932 377.031C184.932 375.452 183.833 373.165 182.489 371.948C181.146 370.732 179.405 367.792 178.621 365.415C177.59 362.29 176.819 361.469 175.836 362.452C173.785 364.504 170.749 364.114 163.381 360.854C159.528 359.149 155.515 356.239 153.912 353.986C152.382 351.836 149.458 349.212 147.415 348.155C144.043 346.411 143.2 346.424 138.289 348.301L132.878 350.368L116.275 342.32C106.063 337.369 98.1368 332.646 95.6819 330.048C91.8755 326.021 91.7524 325.584 93.0189 320.592C94.1792 316.019 93.9822 314.604 91.4586 309.388C89.87 306.105 86.3992 301.062 83.7455 298.182C81.0919 295.302 79.2222 292.457 79.5906 291.861C79.959 291.264 78.0897 287.245 75.4367 282.929C72.4228 278.026 70.2958 272.774 69.7674 268.93C69.09 264.003 68.3008 262.495 65.8022 261.356C63.1537 260.149 62.4131 260.303 60.8966 262.376C58.7607 265.295 59.3679 268.377 64.0905 278.587C66.0096 282.736 67.9929 288.886 68.4978 292.255C69.0027 295.623 70.494 300.494 71.8119 303.078C74.9333 309.2 72.9178 309.092 67.9955 302.874C65.0923 299.206 64.3082 297.195 64.8851 294.895C65.5012 292.44 64.8946 291.257 61.8772 289.025C57.3008 285.64 56.3323 283.456 58.0133 280.314C58.9936 278.481 58.5441 276.472 56.0546 271.557C53.5264 266.565 52.9976 264.147 53.6235 260.441C54.6468 254.381 51.9295 248.897 46.864 246.798C43.9393 245.586 42.9311 244.23 42.3352 240.708C41.9136 238.216 41.1061 234.36 40.5408 232.14C39.9528 229.83 39.9956 227.804 40.6408 227.405C41.2611 227.021 40.8553 225.313 39.7389 223.609C38.0948 221.098 37.9822 219.91 39.1462 217.354C39.9366 215.619 40.2349 213.635 39.8092 212.946C39.3834 212.256 40.4444 210.197 42.1669 208.369C43.8894 206.542 46.1826 202.896 47.263 200.269C48.3433 197.641 51.6725 192.77 54.6613 189.445C57.65 186.119 61.439 180.293 63.0812 176.499C65.3607 171.232 66.6969 169.595 68.7293 169.579C70.1935 169.567 71.3137 170.258 71.2186 171.114C70.8224 174.681 73.642 173.582 76.8089 168.935C78.6757 166.195 79.6829 163.767 79.0472 163.539C78.4115 163.31 77.8914 162.28 77.8914 161.248C77.8914 160.217 75.3147 156.868 72.1654 153.806C66.942 148.727 66.6066 148.054 68.3435 146.133C69.7506 144.578 69.9161 143.436 68.9777 141.759C67.3285 138.81 69.9308 132.208 72.7525 132.182C73.918 132.17 74.2506 131.774 73.535 131.248C71.9297 130.068 71.2024 127.388 71.4279 123.484C71.7881 117.249 70.4243 114.641 65.7907 112.704C63.2915 111.659 59.4779 109.455 57.3161 107.805C55.1543 106.155 52.4116 104.806 51.2211 104.806C50.0307 104.806 44.6194 103.672 39.1961 102.287C30.4769 100.06 28.9402 99.9717 25.9198 101.527C19.6605 104.75 13.029 106.063 10.3255 104.616C8.2976 103.53 6.08458 104.201 -1.63229 108.239C-6.84044 110.965 -13.062 113.618 -15.458 114.134C-17.8539 114.651 -22.4392 116.398 -25.6476 118.015C-34.7479 122.603 -47.7841 127.227 -51.39 127.147C-53.7172 127.095 -52.1439 126.074 -45.9521 123.617C-35.4291 119.443 -24.6162 114.006 -23.616 112.387C-22.3842 110.393 -25.0581 109.677 -28.2702 111.141C-30.6351 112.219 -32.0926 112.119 -34.8215 110.688L-38.3313 108.848L-34.5134 106.873C-30.1975 104.64 -28.8399 102.114 -29.8315 98.1613C-30.7918 94.3331 -25.4967 91.5204 -14.0896 89.7992C-7.96039 88.8744 -3.30091 87.335 -0.163853 85.1985C5.36799 81.4311 4.41762 78.5836 -1.54674 81.0553C-4.37027 82.2254 -6.42685 82.2382 -10.6083 81.1117C-15.6899 79.7427 -15.871 79.5473 -13.598 77.8846C-9.79478 75.1023 -1.92889 73.4288 3.23922 74.3024C6.50948 74.8551 9.18824 74.4681 11.9375 73.0458L15.9101 70.9905L13.295 68.2056C11.8567 66.6739 10.6799 65.0913 10.6799 64.6888C10.6799 63.5335 18.1727 61.2229 21.9193 61.2229C23.7893 61.2229 28.9158 59.8685 33.3115 58.2133C37.7072 56.558 47.8487 54.2981 55.8481 53.1914C68.8224 51.3964 71.5699 51.3745 81.2987 52.9883C87.2971 53.9834 95.5655 55.1702 99.6729 55.6256C103.78 56.0811 111.05 57.5268 115.828 58.8383C126.926 61.8843 134.154 61.8472 146.551 58.6804C152.026 57.2819 157.559 56.4725 158.847 56.8815C160.135 57.2905 162.326 57.0168 163.714 56.2732C165.628 55.2486 167.112 55.3725 169.842 56.785C172.309 58.0612 175.354 58.4255 179.5 57.9403C183.873 57.4284 187.703 57.9585 193.294 59.8499C197.551 61.2899 202.279 62.4681 203.8 62.4681C206.496 62.4681 206.505 62.5139 204.151 64.247C201.843 65.9466 201.836 66.0651 204.003 66.9054C205.251 67.3891 209.582 67.4387 213.628 67.0156C220.936 66.2515 220.999 66.273 223.036 70.215L225.088 74.1837L227.751 70.8428C229.281 68.9229 232.917 66.7479 236.3 65.7294C241.412 64.1901 242.964 64.1953 248.098 65.7684C251.723 66.8789 256.061 67.2835 259.31 66.814C263.447 66.2162 265.368 66.5886 268.067 68.5115C271.475 70.9391 271.57 70.9404 274.592 68.5969C276.279 67.2891 279.75 65.6362 282.305 64.9239C288.423 63.2186 290.498 59.5848 286.824 57.0103C284.226 55.1896 284.339 55.0507 291.169 51.6997C296.262 49.2005 298.556 48.633 299.549 49.6262C300.542 50.6195 300.531 51.712 299.512 53.6179C297.774 56.8663 299.937 61.7765 302.647 60.736C303.622 60.3619 305.238 60.3703 306.239 60.7546C307.812 61.3583 307.786 61.8702 306.054 64.5152C301.269 71.8222 311.997 69.7518 319.261 61.9667C322.214 58.8016 326.789 57.8419 331.077 59.4883C333.847 60.5515 333.587 61.422 329.001 66.4531C323.535 72.4488 320.738 73.6751 312.529 73.6751C308.562 73.6751 303.878 74.535 301.695 75.6642C298.674 77.2272 297.201 77.3571 294.818 76.271C290.376 74.246 288.829 75.9315 292.016 79.325L294.736 82.2218L289.309 83.7627C286.324 84.6102 281.362 85.3856 278.281 85.4857C273.814 85.6309 272.678 86.1161 272.672 87.8829C272.665 89.3947 270.492 90.9857 265.826 92.894C250.706 99.0774 237.88 110.226 242.524 113.149C243.394 113.697 244.775 115.67 245.593 117.535C246.535 119.682 248.351 121.179 250.545 121.619C252.451 122.001 257.371 123.969 261.478 125.992C265.586 128.016 270.627 130.038 272.68 130.486C278.334 131.718 278.384 131.848 275.75 138.532C273.498 144.25 273.452 145.066 275.198 148.444C276.244 150.468 277.786 152.104 278.624 152.08C282.703 151.962 286.527 148.196 288.903 141.959C291.168 136.014 292.2 134.905 298.7 131.431C308.293 126.305 312.282 121.256 311.219 115.587C310.527 111.894 310.887 111.027 314.046 108.777C316.037 107.358 318.673 103.964 319.904 101.233C322.655 95.1291 327.076 93.0133 334.531 94.2326C341.142 95.3139 348.96 99.5131 349.904 102.49C350.292 103.712 349.97 105.906 349.189 107.367C348.006 109.578 348.229 110.512 350.527 112.959L353.286 115.897L357.791 113.561C360.268 112.276 364.239 109.77 366.615 107.991L370.935 104.757L371.95 107.502C372.508 109.011 372.667 111.024 372.302 111.975C371.938 112.925 372.221 114.79 372.932 116.119C373.732 117.615 373.794 119.306 373.095 120.556C372.307 121.964 372.834 124.104 374.837 127.633C377.707 132.687 377.707 132.691 375.187 134.457C371.871 136.781 373.999 139.246 377.638 137.297C381.253 135.361 385.391 135.613 387.943 137.924C391.715 141.339 388.578 145.425 378.565 150.138C367.674 155.265 362.82 156.28 348.604 156.406C338.107 156.499 336.717 156.834 326.512 161.728C320.522 164.601 315.621 167.444 315.621 168.047C315.621 170.616 317.508 170.393 324.75 166.965C329.016 164.946 334.516 163.333 337.135 163.332C341.609 163.331 341.772 163.47 340.375 166.081C339.566 167.594 337.82 169.709 336.496 170.782C334.415 172.468 334.293 173.18 335.596 176.042C337.55 180.333 342.654 182.397 348.758 181.367L353.583 180.552L349.873 183.113C347.833 184.521 344.472 186.039 342.405 186.485C340.338 186.932 336.09 188.586 332.965 190.161C329.793 191.76 326.605 192.606 325.749 192.077C323.779 190.859 325.859 189.032 332.258 186.357C337.95 183.977 337.04 181.45 330.906 182.601C328.517 183.05 320.769 185.969 313.69 189.089C302.639 193.959 300.711 195.245 300.068 198.175C299.277 201.777 296.579 203.481 287.093 206.368C284.067 207.289 280.147 209.515 278.38 211.315C276.614 213.114 273.233 215.808 270.866 217.302C268.499 218.795 266.233 221.411 265.83 223.116C265.166 225.925 265.012 225.991 264.181 223.828C262.623 219.773 260.277 223.737 260.141 230.651C260.003 237.734 256.414 242.566 248.543 246.266C240.472 250.06 228.989 259.024 226.662 263.346C224.608 267.162 224.522 268.649 225.787 278.458C226.968 287.608 226.898 289.904 225.344 292.91C224.184 295.155 222.83 296.228 221.703 295.796C219.033 294.771 215.766 283.776 216.682 278.893C217.318 275.502 216.896 274.217 214.37 271.843C212.335 269.93 210.455 269.202 208.858 269.71C207.524 270.133 203.755 269.33 200.476 267.924C195.453 265.77 193.85 265.589 190.264 266.773C187.833 267.576 185.417 269.48 184.626 271.217C183.449 273.801 182.67 274.133 179.42 273.433C177.317 272.981 174.085 271.838 172.236 270.893C167.683 268.566 165.133 268.728 160.019 271.67C157.634 273.042 152.767 275.668 149.203 277.506C145.107 279.618 142.294 282.022 141.556 284.039C140.914 285.795 138.619 292.638 136.456 299.246L132.523 311.261L134.532 319.017C138.223 333.266 143.357 337.532 154.057 335.236C162.122 333.506 166.966 329.999 168.747 324.602C169.877 321.174 171.097 320.041 174.748 319.026C180.244 317.499 182.539 317.443 184.649 318.783C186.391 319.889 185.778 321.708 177.98 338.6C172.629 350.19 173.015 351.227 182.182 349.904C190.534 348.698 198.168 349.623 199.06 351.948C199.408 352.855 198.842 358.971 197.804 365.54C195.945 377.292 195.959 377.554 198.634 381.885C200.129 384.306 202.933 387.104 204.864 388.103C207.948 389.698 208.915 389.695 212.795 388.073C218.959 385.496 222.307 385.769 226.589 389.196C230.012 391.936 230.496 392.014 233.187 390.25C234.784 389.203 236.962 386.609 238.028 384.485C240.431 379.695 244.48 376.328 247.881 376.292C249.302 376.277 251.78 374.863 253.388 373.151C256.653 369.674 262.403 368.541 259.592 371.929C257.234 374.772 255.886 383.915 257.406 386.757C258.671 389.122 258.773 389.109 261.076 386.263C262.716 384.238 263.046 382.938 262.15 382.042C260.012 379.903 260.656 378.126 264.634 375.183C268.764 372.129 271.959 372.442 275.523 376.252C278.136 379.045 292.088 382.821 296.087 381.817C302.176 380.288 318.629 390.297 324.811 399.29C327.755 403.573 337.159 407.882 341.294 406.844C349.799 404.708 361.461 413.234 364.188 423.583C365 426.665 366.225 429.535 366.909 429.962C368.725 431.094 366.005 435.566 360.059 441.225C356.26 444.841 355.352 446.397 356.421 447.467C357.49 448.536 359.247 447.599 363.465 443.708C369.601 438.05 371.648 437.476 374.722 440.551C376.592 442.422 376.534 442.803 373.972 445.532C372.445 447.157 370.314 448.523 369.235 448.566C368.099 448.612 368.558 449.158 370.328 449.865C372.76 450.836 374.028 450.563 376.552 448.523C383.123 443.211 384.668 442.956 390.506 446.219C394.301 448.34 395.821 449.955 395.629 451.663C395.097 456.411 396.216 457.463 399.507 455.305C402.122 453.591 403.917 453.51 412.667 454.708C421.975 455.983 423.194 456.492 427.66 460.959C430.975 464.276 434.704 466.457 439.389 467.82C445.679 469.649 446.362 470.207 447.503 474.446C449.157 480.591 447.219 487.41 441.978 493.888C439.739 496.655 436.995 500.717 435.88 502.915C434.765 505.113 432.393 508.371 430.61 510.155C427.591 513.175 427.423 513.93 428.175 521.101C429.646 535.111 422.796 561.248 416.189 566.837C414.038 568.657 412.198 569.085 408.787 568.556C405.983 568.122 403.908 568.402 403.36 569.289C402.872 570.079 400.154 571.745 397.32 572.992C394.486 574.238 390.267 576.882 387.944 578.867C383.924 582.303 383.789 582.683 385.142 586.785C386.702 591.513 385.651 597.112 382.308 601.887C381.227 603.431 380.343 606.058 380.343 607.724C380.343 609.39 379.044 612.488 377.457 614.607C375.87 616.726 372.808 621.577 370.653 625.387C365.352 634.761 362.164 636.385 354.477 633.628C347.805 631.236 344.248 630.95 344.248 632.807C344.248 633.506 345.578 634.685 347.203 635.426C348.829 636.167 351.361 639.183 352.832 642.128C355.021 646.515 355.253 648.038 354.112 650.544C352.344 654.425 345.584 657.685 339.301 657.685C333.735 657.685 332.355 659.046 334.277 662.64C335.464 664.858 334.665 668.427 332.371 671.163C332.185 671.384 330.236 670.636 328.04 669.5C322.798 666.788 320.942 668.516 323.592 673.641C324.669 675.726 326.718 677.802 328.145 678.255C330.597 679.034 330.623 679.206 328.63 681.41C327.469 682.694 326.866 684.642 327.289 685.745C327.744 686.931 326.73 689.49 324.806 692.014C321.678 696.117 321.633 696.402 323.638 699.463C324.785 701.214 326.574 702.973 327.613 703.372C331.361 704.811 331.983 709.728 329.125 715.333C326.261 720.948 325.822 726.578 328.038 729.25C330.053 731.678 323.273 736.41 320.224 734.703ZM228.495 195.385C231.82 188.433 238.009 183.255 242.992 183.255C246.58 183.255 246.622 183.837 243.337 188.014L240.755 191.299L243.405 193.446C245.54 195.175 246.641 195.325 249.075 194.215C250.736 193.458 252.439 191.755 252.859 190.432C253.431 188.63 254.36 188.21 256.551 188.76C258.58 189.269 259.85 188.833 260.685 187.341C263.214 182.82 256.778 177.038 252.04 179.575C248.65 181.39 244.221 177.778 245.166 173.97C245.516 172.558 244.796 170.102 243.547 168.454C240.975 165.057 237.061 164.699 228.495 167.078C225.414 167.933 221.902 168.595 220.689 168.548C219.476 168.501 218.809 168.989 219.206 169.633C219.604 170.276 219.476 170.815 218.922 170.83C218.368 170.845 216.522 171.929 214.818 173.239L211.721 175.619L215.199 176.942C217.918 177.977 219.521 177.829 222.541 176.266C226.091 174.43 226.748 174.431 230.622 176.279C232.955 177.393 236.141 177.964 237.754 177.559C239.358 177.156 241.013 177.383 241.433 178.063C241.862 178.757 240.109 179.651 237.429 180.104C230.145 181.335 226.36 184.37 221.077 193.217C216.664 200.606 216.411 201.497 218.17 203.45C219.896 205.367 220.372 205.397 222.74 203.74C224.194 202.723 226.783 198.963 228.495 195.385ZM251.108 203.071C255.539 200.81 255.965 200.242 254.404 198.68C252.842 197.118 251.856 197.22 246.776 199.468C240.811 202.107 238.919 205.669 243.48 205.669C244.877 205.669 248.309 204.5 251.108 203.071ZM273.177 193.662C275.77 191.845 275.866 191.489 274.038 190.465C271.346 188.958 263.345 191.555 263.345 193.936C263.345 196.389 269.532 196.216 273.177 193.662ZM366.652 731.402C366.652 730.854 367.324 729.733 368.145 728.911C368.967 728.09 369.169 727.417 368.594 727.417C368.019 727.417 366.877 728.336 366.056 729.459C364.878 731.072 364.063 731.211 362.185 730.12C360.842 729.34 360.516 728.722 361.435 728.7C362.332 728.679 362.719 728.102 362.296 727.417C361.483 726.102 363.619 725.743 369.763 726.163C375.248 726.538 375.799 727.339 372.409 730.007C369.252 732.492 366.652 733.122 366.652 731.402ZM1406.1 700.15C1402.54 697.893 1409.96 692.909 1428.34 685.203C1433.48 683.051 1441.3 678.55 1445.73 675.201C1453.26 669.507 1453.88 669.26 1455.38 671.391C1457.64 674.627 1456.31 676.969 1450.77 679.464C1448.13 680.657 1444.81 682.969 1443.39 684.601C1441.97 686.234 1439.69 687.57 1438.31 687.57C1436.94 687.57 1433.72 689.457 1431.15 691.764C1422.35 699.659 1411.22 703.389 1406.1 700.15ZM1319 683.974C1317.7 683.154 1317.63 682.31 1318.69 680.339C1319.44 678.927 1320.06 676.016 1320.06 673.87C1320.06 670.363 1320.34 670.068 1322.86 670.955C1324.4 671.497 1327.62 672.013 1330.02 672.103C1332.41 672.193 1334.81 672.347 1335.34 672.447C1337.4 672.834 1331.88 679.113 1326.93 682.018C1321.03 685.477 1321.27 685.417 1319 683.974ZM1462.82 673.085C1462.39 672.651 1463.41 671.211 1465.1 669.884C1467.64 667.885 1467.94 667.04 1466.83 664.964C1465.22 661.961 1467.61 658.737 1473.13 656.447C1477.42 654.672 1478.49 651.071 1477.35 642.381C1476.56 636.402 1476.65 636.029 1478.58 637.622C1480.09 638.873 1480.46 640.449 1479.92 643.324C1479.33 646.475 1479.86 648.112 1482.49 651.235C1485.33 654.609 1486.17 654.975 1488.38 653.793C1490.58 652.616 1490.84 652.723 1490.14 654.529C1489.7 655.692 1489.33 656.863 1489.33 657.132C1489.33 657.401 1487.51 658.553 1485.29 659.693C1483.06 660.833 1478.72 663.847 1475.64 666.391C1470.63 670.529 1465.48 673.872 1464.11 673.872C1463.83 673.872 1463.26 673.518 1462.82 673.085ZM1331.2 657.002C1328.58 654.211 1328.1 654.103 1325.58 655.754C1322.37 657.858 1316.34 656.628 1311.51 652.885C1308.93 650.889 1308.75 650.245 1310.08 647.76C1311.22 645.639 1311.25 644.152 1310.23 641.903C1309.48 640.245 1308.86 637.795 1308.86 636.457C1308.86 633.44 1306.9 633.296 1305.28 636.194C1304.61 637.387 1303.71 638.006 1303.27 637.57C1302.84 637.134 1304.28 634.729 1306.48 632.224C1311.88 626.062 1309.77 624.389 1302.63 629.175C1299.55 631.238 1296.83 633.491 1296.59 634.183C1296.35 634.874 1294.87 632.74 1293.3 629.44C1291.61 625.862 1288.68 622.267 1286.04 620.532C1282.09 617.925 1280.75 617.71 1273.15 618.467C1262.01 619.576 1251.26 622.325 1244.22 625.863C1241.03 627.472 1234.78 629.118 1229.97 629.624C1225.26 630.118 1217.77 631.892 1213.33 633.566C1206.53 636.125 1204.6 636.394 1201.15 635.257C1196.53 633.732 1194.61 630.588 1197.6 629.44C1198.68 629.025 1200.65 626.167 1201.97 623.09C1204.08 618.165 1204.19 616.631 1202.94 610.267C1201.91 605.002 1201.88 600.016 1202.84 591.91C1203.56 585.789 1203.84 579.576 1203.45 578.103C1203.07 576.631 1203.67 573.025 1204.79 570.091C1206.76 564.917 1207.24 564.579 1220.59 558.921C1228.17 555.712 1235.92 553.086 1237.82 553.086C1242.97 553.086 1249.34 548.189 1252.85 541.535C1255.02 537.422 1256.52 535.857 1257.83 536.361C1261.46 537.766 1262.18 537.49 1261.9 534.794C1261.72 533.059 1262.46 531.798 1263.95 531.327C1265.23 530.921 1267.6 528.653 1269.21 526.289C1270.86 523.868 1274.25 521.141 1276.98 520.047C1281.52 518.222 1281.97 518.249 1284.45 520.497C1289.01 524.644 1292.24 525.854 1293.78 523.994C1294.53 523.089 1294.79 521.993 1294.35 521.557C1292.93 520.132 1299.45 511.949 1302.63 511.163C1304.35 510.74 1307.86 509.336 1310.44 508.041C1314.47 506.022 1315.89 505.888 1320.4 507.1C1330.13 509.714 1330.45 510.142 1326.83 515.613C1322.18 522.65 1323.41 525.402 1334.83 533.442C1340.1 537.154 1345.08 539.969 1345.89 539.699C1346.7 539.428 1349.26 536.586 1351.59 533.383C1354.75 529.018 1355.98 525.843 1356.49 520.71C1357.21 513.418 1360.69 503.277 1362.48 503.277C1363.07 503.277 1364.42 506.276 1365.49 509.941C1366.55 513.607 1368.79 517.884 1370.45 519.447C1374.34 523.099 1376.59 533.312 1374.85 539.346C1373.69 543.344 1373.91 543.986 1377.88 548.063C1380.23 550.483 1383.95 556.386 1386.14 561.18C1388.34 565.974 1392.3 572.757 1394.94 576.254L1399.74 582.611L1398.38 592.433C1397.39 599.559 1395.85 604.309 1392.79 609.735C1388.1 618.047 1381.09 625.979 1377.39 627.153C1376.06 627.575 1372.98 630.695 1370.54 634.086C1368.11 637.477 1365.57 640.252 1364.9 640.252C1364.23 640.252 1361.38 643.162 1358.57 646.718C1353.88 652.65 1353.02 653.193 1348.14 653.285C1344.39 653.356 1341.52 654.372 1338.44 656.721L1334.07 660.056L1331.2 657.002ZM724.286 630.821C721.65 628.184 721.21 626.835 721.799 623.203C722.353 619.785 721.825 617.775 719.458 614.289C717.776 611.813 716.401 609.179 716.401 608.434C716.401 607.69 714.2 604.129 711.509 600.522C707.352 594.947 706.497 592.719 705.812 585.665C704.602 573.219 700.63 559.748 695.291 549.984C692.666 545.184 690.145 538.951 689.688 536.134C688.715 530.139 691.148 521.216 696.704 510.406L700.399 503.214L698.323 496.96C697.161 493.461 696.594 489.32 697.035 487.562C697.551 485.504 696.996 483.053 695.428 480.462C694.11 478.285 692.154 473.423 691.08 469.656C689.646 464.625 687.646 461.353 683.545 457.328C675.657 449.585 674.631 446.537 677.08 438.111C682.064 420.96 676.679 410.956 663.526 412.93C658.405 413.698 658.209 413.602 657.485 409.983C656.93 407.205 655.426 405.572 651.648 403.644C646.739 401.138 644.638 401.129 638.609 403.585C637.24 404.143 631.639 406.076 626.163 407.881C617.928 410.596 615.456 410.946 611.871 409.906C608.475 408.92 605.615 409.175 598.666 411.083C591.486 413.053 588.883 413.265 585.003 412.193C576.908 409.957 562.999 397.415 561.021 390.567C559.49 385.268 549.969 372.918 546.728 372.028C544.669 371.463 544.416 371.025 545.677 370.211C546.945 369.392 546.724 368.978 544.743 368.46C541.598 367.637 541.285 365.065 544.327 365.038C546.188 365.022 546.233 364.844 544.638 363.812C543.462 363.052 543.331 362.598 544.285 362.586C545.273 362.574 544.897 361.038 543.201 358.162C540.813 354.114 540.764 353.579 542.587 351.563C548.156 345.407 549.376 332.152 545.143 323.802C543.122 319.815 544.422 314.308 548.734 308.583C550.358 306.428 553.528 301.183 555.779 296.928C559.716 289.485 568.492 279.137 570.868 279.137C573.497 279.137 581.978 270.015 581.978 267.188C581.978 260.805 585.792 254.44 592.011 250.448C595.353 248.302 599.269 244.634 600.714 242.296C603.668 237.513 604.086 237.357 607.527 239.756C608.878 240.698 612.233 241.846 614.983 242.307C619.178 243.012 621.184 242.505 627.43 239.163C638.177 233.413 644.818 231.977 657.115 232.744C665.226 233.25 668.877 232.927 672.808 231.353C678.597 229.035 683.602 230.407 682.247 233.94C681.84 235.001 682.089 236.571 682.8 237.428C683.695 238.507 683.688 240.053 682.777 242.448C681.634 245.458 681.887 246.354 684.721 249.314C686.514 251.186 689.724 253.066 691.854 253.492C701.857 255.494 704.702 256.79 706.767 260.289C708.28 262.851 710.264 264.167 713.544 264.783C716.095 265.261 719.798 266.489 721.774 267.512C725.13 269.248 725.565 269.185 728.363 266.554C730.245 264.786 731.098 262.914 730.657 261.523C730.27 260.304 730.565 258.166 731.311 256.77C733.237 253.17 738.704 253.523 747.241 257.799C756.542 262.458 774.18 265.781 780.433 264.054C783.44 263.223 786.332 263.212 788.965 264.022C797.565 266.666 801.969 264.596 803.143 257.358C803.533 254.954 804.199 252.987 804.623 252.987C805.427 252.987 805.848 249.372 805.965 241.469C806.003 238.901 806.609 236.799 807.313 236.799C808.151 236.799 808.11 235.897 807.194 234.184C805.663 231.322 802.559 231.388 795.13 234.438C791.607 235.884 790.626 235.823 787.47 233.957C783.377 231.539 779.177 231.176 777.966 233.137C777.065 234.594 770.701 233.572 767.25 231.416C764.77 229.867 762.453 225.255 762.453 221.869C762.453 220.57 761.193 218.619 759.652 217.534C757.269 215.854 757.13 215.378 758.719 214.338C759.746 213.665 761.858 213.415 763.413 213.781C765.396 214.247 767.219 213.466 769.521 211.163C771.687 208.996 774.322 207.799 777.274 207.643C779.733 207.512 783.295 206.383 785.19 205.134C789.303 202.423 798.64 203.176 805.885 206.804C815.655 211.696 824.331 211.409 827.824 206.077C829.64 203.303 829.65 202.72 827.926 200.087C826.876 198.483 821.83 194.788 816.713 191.875L807.409 186.579L809.152 183.207C810.111 181.352 810.581 179.521 810.198 179.137C809.814 178.754 809.961 177.702 810.524 176.8C811.086 175.899 811.656 174.437 811.79 173.553C812.076 171.667 810.069 172.187 800.171 176.567C794.424 179.109 793.571 179.888 794.845 181.425C795.68 182.431 797.555 183.28 799.011 183.31C801.054 183.352 800.571 183.94 796.895 185.88C792.432 188.235 791.934 188.266 789.033 186.364C786.552 184.738 786.227 183.981 787.403 182.564C788.57 181.157 788.396 180.615 786.553 179.922C785.278 179.443 783.634 178.25 782.899 177.271C779.334 172.517 768.024 185.023 764.734 197.356C763.19 203.145 763.241 203.446 766.148 205.64L769.165 207.916L763.631 209.058C760.587 209.686 756.485 209.759 754.515 209.221C750.879 208.227 746.272 209.725 746.272 211.9C746.272 212.539 745.425 212.737 744.389 212.339C743.354 211.942 741.71 212.278 740.736 213.086C739.226 214.34 739.397 215.368 741.9 220.078C744.611 225.179 744.695 225.877 743.004 229.269C740.884 233.519 738.914 233.203 735.92 228.133C733.833 224.598 733.847 224.517 736.608 224.125C740.093 223.63 740.317 221.411 736.937 220.87C729.226 219.636 725.113 215.571 725.113 209.181C725.113 204.196 720.493 198.699 714.891 197.02C711.98 196.147 708.815 194.315 707.858 192.948C706.901 191.581 704.1 189.619 701.633 188.588C699.167 187.557 696.407 185.653 695.499 184.357C694.197 182.497 693.341 182.273 691.434 183.294C690.105 184.006 689.018 185.389 689.018 186.369C689.018 189.602 704.883 204.228 712.637 208.144C720.859 212.297 722.143 213.779 716.431 212.524C711.338 211.405 709.951 212.525 711.693 216.35C712.916 219.037 712.716 219.855 710.254 222.221L707.395 224.97L708.046 221.26C709.078 215.372 701.319 206.914 694.883 206.914C692.524 206.914 683.462 198.119 681.087 193.525C678.551 188.617 675.728 187.669 671.729 190.382C665.704 194.469 661.188 195.85 656.463 195.052C650.185 193.991 646.236 196.18 647.236 200.168C647.759 202.249 647.468 203.178 646.295 203.178C645.361 203.178 642.97 204.578 640.981 206.29C638.992 208.001 636.936 209.402 636.413 209.403C634.873 209.405 630.529 217.272 630.524 220.067C630.518 222.74 625.651 228.007 620.955 230.421C619.46 231.19 615.979 231.818 613.22 231.818C609.423 231.818 607.868 232.444 606.827 234.391C605.463 236.94 605.422 236.934 602.232 233.743C599.239 230.749 597.516 230 591.477 229.065C588.304 228.574 587.768 221.388 590.141 211.15C591.156 206.774 591.654 201.869 591.248 200.251C590.068 195.55 593.76 192.778 599.937 193.727C614.198 195.919 622.541 196.04 624.496 194.084C627.183 191.396 628.395 182.53 626.755 177.56C625.686 174.318 624.215 172.992 619.826 171.316C613.371 168.849 613.235 166.464 619.546 166.4C621.95 166.376 625.418 165.372 627.253 164.169C629.088 162.967 631.117 162.309 631.762 162.708C633.522 163.796 640.184 159.954 642.397 156.575C643.466 154.942 645.572 153.293 647.076 152.909C648.581 152.525 652.612 149.602 656.035 146.412C660.887 141.89 663.433 140.472 667.594 139.975C672.749 139.359 677.933 135.118 675.499 133.507C673.987 132.506 672.723 126.477 673.565 124.28C673.965 123.24 675.727 121.447 677.481 120.297L680.671 118.206L679.852 123.33C679.141 127.777 679.323 128.405 681.225 128.087C682.431 127.885 684.686 127.023 686.236 126.171C688.597 124.874 689.176 124.937 689.798 126.559C690.865 129.34 687.899 132.61 685.852 130.91C684.721 129.971 684.004 130.005 683.372 131.028C682.721 132.083 682.211 132.025 681.462 130.813C680.9 129.904 680.155 129.445 679.806 129.795C679.457 130.144 680.452 132.037 682.017 134.001C684.656 137.312 685.159 137.469 688.919 136.157C692.14 135.034 693.687 135.111 696.429 136.529C699.524 138.131 700.57 138.055 706.519 135.793C711.732 133.811 713.787 133.557 716.094 134.609C718.217 135.576 719.789 135.556 721.761 134.537C727.36 131.643 728.911 129.46 728.216 125.455C727.185 119.517 729.072 117.572 734.042 119.449C737.423 120.726 738.411 120.675 739.94 119.146C741.558 117.527 741.419 116.929 738.767 114.105C736.215 111.388 736.037 110.712 737.592 109.663C738.601 108.982 742.382 108.737 745.994 109.12C752.605 109.821 760.843 107.237 759.408 104.914C758.151 102.879 750.563 102.291 744.135 103.73C738.433 105.006 736.937 104.903 732.568 102.932C725.781 99.8702 724.982 96.2881 729.636 89.7977C735.628 81.4434 736.724 78.7811 735.017 76.7237C732.49 73.6773 730.007 74.6705 724.234 81.0375C721.183 84.4019 717.026 87.8429 714.996 88.6842C712.966 89.5256 710.454 91.8587 709.415 93.869C707.723 97.1431 707.726 97.8291 709.441 100.448C710.494 102.056 712.491 103.732 713.878 104.173C717.696 105.385 716.941 107.661 711.479 111.399C709.8 112.549 707.559 115.802 706.501 118.628C705.174 122.169 703.158 124.585 700.012 126.402C695.578 128.963 695.376 128.973 692.926 126.755C691.539 125.499 690.067 122.937 689.655 121.062C689.244 119.188 687.375 115.817 685.501 113.572L682.096 109.491L677.778 112.125C675.403 113.573 672.34 114.748 670.97 114.735C667.021 114.699 662.448 110.43 662.142 106.494C661.99 104.538 661.482 101.979 661.013 100.806C659.898 98.017 665.472 92.7862 671.264 91.1862C677.077 89.5805 688.867 81.3137 690.876 77.4349C691.77 75.7095 694.798 72.2375 697.605 69.7193C700.412 67.2012 702.709 64.5859 702.709 63.9075C702.709 63.2292 705.37 61.7257 708.621 60.5665C711.873 59.4072 717.334 57.3038 720.757 55.8923C724.959 54.1594 730.214 53.2432 736.937 53.0711C748.685 52.7705 756.368 54.3284 762.708 58.2967C765.889 60.2878 768.399 60.9671 770.801 60.4865C775.098 59.6266 798.006 66.7301 798.96 69.2186C799.92 71.7197 793.35 74.0806 787.697 73.2661C785.108 72.8931 779.754 71.8954 775.798 71.0492C770.474 69.91 768.244 69.8741 767.208 70.9107C766.171 71.9473 766.689 72.7124 769.202 73.858C771.069 74.709 773.406 76.9717 774.396 78.8863C776.916 83.7612 784.986 87.7352 789.15 86.1514C793.15 84.6297 793.123 84.1497 788.902 81.8588C784.998 79.7398 786.8 79.2818 791.703 81.1467C795.617 82.6358 800.053 80.7833 799.02 78.0905C798.536 76.8293 799.896 75.9187 803.734 74.935C811.945 72.8298 812.546 72.5289 811.865 70.863C809.289 64.5614 809.253 64.7425 813.001 65.1707C815.002 65.3992 816.463 66.255 816.297 67.1006C816.132 67.9362 817.175 69.25 818.613 70.0201C820.773 71.1769 822.478 70.7649 828.419 67.6494C837.13 63.0811 843.912 61.5917 846.441 63.6915C847.851 64.8624 850.189 64.8707 856.957 63.7285C861.744 62.9208 866.204 62.5961 866.868 63.007C867.533 63.4179 868.444 63.16 868.892 62.434C869.873 60.8462 867.161 57.2436 865.676 58.1617C863.883 59.2701 857.996 57.2845 859.277 56.0034C860.566 54.7134 895.204 62.7884 897.277 64.8623C898.675 66.2604 903.099 64.3954 903.099 62.4082C903.099 61.7385 900.629 59.9899 897.61 58.5224C888.248 53.9722 887.647 46.6848 896.451 44.4742C901.56 43.1912 903.77 44.6712 910.837 54.1103C920.012 66.365 919.778 65.7415 916.781 69.9532C914.561 73.0719 914.427 73.8018 915.967 74.3931C918.885 75.5133 925.131 71.5933 926.01 68.0896C927.039 63.9844 925.116 60.4857 920.524 58.1099C916.914 56.2422 914.301 52.8198 914.301 49.9593C914.301 48.9842 915.655 48.741 918.346 49.2328C922.381 49.9701 925.718 48.5062 934.855 41.9912C936.945 40.5013 940.478 39.5195 944.039 39.4387C951.264 39.2747 953.603 38.0613 951.524 35.555C950.708 34.5721 950.3 33.5086 950.617 33.1918C952.207 31.6014 972.698 28.7358 977.417 29.4438C981.958 30.1251 983.363 29.7565 987.099 26.9057C989.503 25.0715 991.47 23.0769 991.47 22.4733C991.47 20.9512 980.593 21.0871 979.646 22.6211C978.342 24.7317 976.652 23.9973 977.127 21.5267C977.529 19.4408 976.475 19.1013 967.41 18.3951C942.654 16.4668 940.641 16.0143 943.611 13.0431C946.222 10.4308 952.627 10.4814 957.987 13.1567C960.183 14.2529 963.822 15.1498 966.072 15.1498C968.322 15.1498 970.51 15.7101 970.933 16.395C971.356 17.0798 973.536 17.6402 975.777 17.6402C981.985 17.6402 993.987 20.3228 993.234 21.5419C992.867 22.1354 994.029 22.6211 995.814 22.6211C997.6 22.6211 1000.85 23.5861 1003.04 24.7655C1005.99 26.3516 1010.11 26.9222 1018.85 26.9573C1028.25 26.9949 1031.38 27.478 1034.1 29.3144C1035.98 30.5847 1037.51 31.9799 1037.5 32.4148C1037.49 32.8496 1034.62 34.7865 1031.12 36.7188C1022.67 41.3856 1024.45 43.4194 1034.68 40.7682C1041.3 39.051 1042.83 39.04 1048.31 40.6694C1052.81 42.0063 1055.62 42.1779 1058.67 41.3023C1061.72 40.4282 1064.84 40.6159 1070.15 41.9913C1075.69 43.4265 1078.56 43.5725 1082.06 42.5976C1090.07 40.3727 1099.92 41.0011 1105.64 44.1012C1108.48 45.6422 1113.72 48.4934 1117.28 50.4373C1123.59 53.883 1123.87 53.9211 1128.25 51.9569C1131.91 50.3127 1133.96 50.1752 1139.36 51.2093C1144.74 52.2371 1146.69 52.1119 1149.72 50.5461C1152.68 49.0143 1153.16 48.2613 1152.03 46.899C1149.84 44.2646 1157.6 43.2853 1167.12 44.9924C1171.49 45.7743 1177.02 46.5548 1179.41 46.7269C1181.81 46.8989 1186.49 48.2649 1189.82 49.7624C1194.89 52.0462 1198.71 52.5635 1213.55 52.9713C1227.63 53.3582 1232.11 53.9219 1235.51 55.7329C1238.96 57.5712 1242.89 58.0387 1255.96 58.1662C1267.98 58.2835 1273.37 58.854 1276.94 60.3879C1282.7 62.8638 1285 61.9558 1281.87 58.4455C1279.61 55.9205 1279.63 55.917 1288.32 56.7811C1302.89 58.2291 1320.37 61.4187 1326.28 63.7094C1329.36 64.9021 1335.23 66.2881 1339.33 66.7894C1343.43 67.2906 1349.4 69.0316 1352.61 70.6582C1357.48 73.1271 1359.06 73.3998 1362.19 72.3092C1366.47 70.8178 1369.24 71.8917 1375.77 77.5666L1379.83 81.0928L1376.77 81.8607C1373.7 82.6313 1365.55 80.6129 1362.74 78.3867C1361.92 77.7321 1360.76 77.4947 1360.17 77.8591C1359.58 78.2236 1356.67 77.6845 1353.7 76.6613C1346.75 74.2648 1343.66 75.165 1346.83 78.6655C1348.99 81.0563 1348.94 81.1065 1344.82 80.8187C1337.1 80.2801 1339.22 82.5603 1350.55 86.9819C1356.71 89.386 1362.02 91.6086 1362.34 91.921C1363.51 93.0523 1359.66 94.4547 1356.86 93.9188C1353.78 93.3303 1346.2 96.6341 1346.2 98.5632C1346.2 99.2038 1345 100.845 1343.53 102.209C1341.09 104.489 1340.58 104.541 1337.31 102.849C1334.25 101.265 1333.27 101.248 1330.33 102.731C1328.45 103.68 1325.23 104.86 1323.18 105.354C1321.13 105.847 1318.75 106.83 1317.9 107.538C1315.4 109.618 1319.81 115.672 1326.03 118.684C1329.42 120.325 1331.87 122.523 1332.6 124.573C1333.24 126.371 1334.6 129.325 1335.62 131.136C1337.28 134.089 1337.26 134.509 1335.48 135.194C1334.17 135.695 1333.79 136.701 1334.36 138.126C1334.84 139.319 1335.37 141.696 1335.56 143.408C1335.74 145.12 1336.29 147.451 1336.78 148.587C1337.41 150.067 1336.89 150.901 1334.92 151.524C1332.74 152.218 1331.27 151.382 1327.68 147.41C1325.2 144.669 1321.06 140.895 1318.49 139.024C1315.92 137.152 1311.3 132.286 1308.24 128.209C1302.84 121.018 1302.73 120.69 1304.52 117.222C1305.54 115.255 1306.39 112.357 1306.41 110.782C1306.44 109.208 1307.23 106.527 1308.17 104.826C1309.96 101.578 1309.27 98.9837 1305.43 94.5728C1302.91 91.6767 1298.42 93.8477 1299.55 97.4165C1300.59 100.704 1297.39 101.77 1293.71 99.3599C1292.12 98.3152 1288.44 97.0823 1285.55 96.6202C1280.58 95.8268 1280.21 95.9793 1278.92 99.359C1278.17 101.327 1277.86 104.439 1278.22 106.274C1278.79 109.133 1278.4 109.718 1275.46 110.364C1273.46 110.804 1270.03 110.284 1267.24 109.116C1264.17 107.835 1261.28 107.447 1259.21 108.038C1257.42 108.546 1251.38 109.007 1245.79 109.063C1236.93 109.151 1235.23 109.538 1232.53 112.068C1230.83 113.666 1228.79 117.588 1228 120.785C1227.2 123.982 1225.74 127.845 1224.75 129.369C1223.05 132.004 1223.21 132.27 1228.09 134.76C1233.38 137.462 1239.16 138.174 1243.53 136.664C1246.91 135.5 1257.2 143.531 1260.42 149.836C1261.74 152.419 1263.91 155.12 1265.26 155.84C1270.34 158.562 1271.37 176.421 1267.12 188.098C1264.18 196.182 1260.88 198.826 1256.05 196.985C1254.2 196.282 1252.5 195.707 1252.27 195.707C1252.04 195.707 1250.66 198.006 1249.19 200.816C1247.27 204.505 1246.9 206.364 1247.84 207.507C1249.66 209.693 1248.32 212.537 1244.69 214.19C1243.02 214.953 1241.65 216.12 1241.65 216.783C1241.65 217.446 1245.54 220.67 1250.3 223.947C1256.35 228.116 1259.59 231.318 1261.07 234.61C1262.24 237.198 1262.97 239.521 1262.69 239.772C1262.41 240.023 1259.87 241.397 1257.04 242.825L1251.89 245.421L1248.79 238.309C1245.32 230.348 1242.35 227.147 1237.11 225.736C1234.47 225.026 1233.56 224.019 1233.56 221.839C1233.56 219.84 1232.26 218.141 1229.52 216.534C1225.53 214.191 1225.45 214.194 1221.19 216.824C1216.94 219.455 1216.89 219.457 1215.58 217.014C1214.86 215.658 1214.26 213.692 1214.26 212.643C1214.26 211.595 1213.22 210.177 1211.94 209.493C1210.04 208.474 1208.84 209.09 1205.34 212.873C1202.99 215.417 1199.98 218.117 1198.65 218.874C1196.59 220.048 1196.48 220.544 1197.9 222.259C1198.82 223.364 1201.98 225.618 1204.93 227.269C1209.63 229.894 1210.53 230.043 1212.11 228.459C1213.61 226.954 1214.84 226.899 1219.38 228.132L1224.84 229.615L1221.8 231.651C1216.15 235.426 1214.37 237.408 1213.57 240.815C1212.91 243.611 1213.3 244.453 1215.81 245.596C1217.48 246.36 1220.03 249.405 1221.47 252.364C1222.9 255.323 1225.77 258.745 1227.84 259.969C1232.4 262.661 1233.72 265.522 1231.09 266.995C1228.64 268.368 1229.81 270.421 1233.05 270.421C1236.92 270.421 1236.94 272.734 1233.2 286.086C1228.66 302.256 1224.56 307.652 1213.85 311.574C1209.63 313.119 1204.49 314.476 1202.44 314.589C1197.67 314.854 1193.96 316.876 1190.73 320.984L1188.17 324.244L1186.97 321.098C1185.41 316.994 1181.84 315.962 1176.7 318.135C1172 320.126 1168.9 323.302 1167.65 327.408C1166.53 331.083 1170.49 337.546 1177.05 342.747C1182.44 347.016 1188.49 357.73 1189.91 365.526C1191.14 372.307 1188.95 376.757 1183.09 379.405C1180.41 380.611 1177.91 382.59 1177.53 383.801C1176.6 386.71 1171.08 390.332 1170.06 388.692C1169.64 388.008 1169.62 386.412 1170.03 385.145C1170.43 383.878 1170.41 381.932 1169.98 380.821C1169.37 379.222 1168.69 379.078 1166.72 380.13C1164.68 381.226 1163.89 380.948 1162.23 378.551C1158.17 372.659 1146.4 363.19 1143.13 363.19C1141.99 363.19 1141.54 364.573 1141.74 367.548C1141.9 369.945 1141.41 374.618 1140.65 377.933C1139.42 383.334 1139.55 384.324 1141.87 387.459C1143.29 389.383 1144.81 392.366 1145.24 394.087C1145.68 395.836 1149.28 399.828 1153.39 403.131C1160.25 408.636 1160.98 409.723 1163.86 418.869C1165.57 424.272 1166.97 429.224 1166.97 429.873C1166.97 431.985 1164.37 431.129 1158.94 427.231C1153.33 423.201 1149.75 416.824 1146.76 405.555C1145.46 400.661 1144.04 398.563 1140 395.593C1135.05 391.95 1134.9 391.631 1135.3 385.604C1135.53 382.179 1136.09 377.325 1136.55 374.817C1137.2 371.287 1136.66 368.757 1134.18 363.61C1132.42 359.955 1130.34 354.34 1129.55 351.133C1127.8 343.97 1125.33 342.77 1120.95 346.963C1119.15 348.696 1117.32 350.115 1116.89 350.115C1114.91 350.115 1112.19 345.896 1112.84 343.838C1114.03 340.1 1106.73 327.071 1102.47 325.302C1100.13 324.335 1098 321.988 1096.57 318.819C1094.09 313.313 1091.3 311.206 1088.52 312.729C1087.51 313.281 1083.47 314.393 1079.54 315.199C1072.34 316.677 1069.76 318.858 1070.74 322.63C1071.11 324.019 1069.85 325.36 1066.82 326.802C1064.37 327.971 1061.74 330.321 1060.96 332.026C1060.18 333.73 1058.47 335.465 1057.16 335.882C1055.85 336.299 1053.82 338.204 1052.66 340.117C1051.5 342.029 1048.04 345.524 1044.97 347.884C1040.77 351.113 1039.46 352.92 1039.67 355.191C1040.89 368.47 1039.01 379.58 1034.44 386.178C1029.99 392.613 1029.67 392.793 1025.9 391.073C1023.83 390.127 1022.55 388.279 1022.02 385.457C1021.58 383.144 1019.08 376.628 1016.45 370.975C1000.53 336.778 998.18 330.253 999.535 324.077C1000.45 319.904 998.254 313.608 996.13 314.321C995.278 314.606 994.567 315.633 994.549 316.601C994.442 322.285 988.06 323.157 983.075 318.17L979.771 314.865L982.613 313.813C985.811 312.629 985.517 309.438 982.265 310.023C981.109 310.231 978.464 308.97 976.386 307.221C974.309 305.472 972.13 304.042 971.544 304.042C970.958 304.042 970.121 302.915 969.684 301.537C968.537 297.921 961.934 294.775 958.625 296.268C955.647 297.611 928.63 297.331 924.108 295.91C922.479 295.398 919.466 293.055 917.413 290.703C913.702 286.454 913.644 286.437 908.078 287.938C902.803 289.361 902.037 289.227 894.932 285.639C888.793 282.538 886.953 280.866 885.058 276.661C882.64 271.296 877.27 267.412 874.005 268.665C872.976 269.06 871.775 271.022 871.336 273.024C870.704 275.9 871.348 277.769 874.4 281.921C876.524 284.811 878.84 289.319 879.544 291.937C881.058 297.562 884.047 299.235 886.525 295.845C888.021 293.798 888.424 293.727 889.437 295.331C890.083 296.355 890.432 297.753 890.212 298.438C889.519 300.591 896.702 304.133 900.053 303.291C901.747 302.866 905.365 299.98 908.094 296.878C912.394 291.991 913.896 291.661 913.161 295.765C912.666 298.527 914.839 301.765 918.434 303.625C923.989 306.497 931.726 312.897 931.726 314.617C931.726 315.411 930.271 317.418 928.493 319.078C926.715 320.739 924.156 324.252 922.807 326.885C919.528 333.284 910.023 342.643 906.804 342.643C903.084 342.643 897.551 345.786 895.348 349.149C894.304 350.743 891.56 352.991 889.251 354.144C877.421 360.053 863.177 366.043 859.169 366.795C854.883 367.6 854.536 367.405 852.265 362.925C850.951 360.331 849.459 355.127 848.95 351.36C848.289 346.461 847.007 343.347 844.446 340.421C842.477 338.171 840.866 335.79 840.866 335.13C840.866 334.47 838.62 331.614 835.875 328.784C832.456 325.26 830.247 321.435 828.862 316.642C827.75 312.794 825.487 307.964 823.833 305.909C812.41 291.718 809.028 286.714 807.325 281.488C805.068 274.562 803.16 273.444 802.279 278.531L801.654 282.142L797.443 276.823C790.955 268.628 790.138 272.353 796.228 282.358C799.111 287.093 803.705 295.449 806.439 300.928C809.172 306.407 812.716 312.624 814.313 314.743C815.958 316.926 817.218 320.336 817.218 322.608C817.218 327.3 818.617 330.229 824.114 337.04C826.324 339.779 828.508 343.779 828.967 345.928C829.555 348.684 831.958 351.566 837.123 355.711C844.972 362.009 850.058 368.583 851.32 374.063C851.795 376.121 853.591 378.234 855.869 379.412C859.34 381.208 860.562 381.159 871.531 378.781C878.075 377.363 885.007 375.386 886.935 374.388L890.441 372.574L891.274 377.503C892.03 381.982 891.216 384.139 882.356 401.141C872.828 419.422 872.383 420.026 862.91 427.508C857.578 431.72 851.998 436.876 850.51 438.966C849.022 441.056 844.262 446.702 839.932 451.512C827.296 465.548 825.578 477.893 833.959 494.439C836.088 498.642 836.92 501.824 836.415 503.835C835.995 505.508 836.264 509.732 837.013 513.224C838.191 518.72 838.058 520.19 836.018 524.188C833.075 529.957 830.734 532.03 822.508 536.155C818.914 537.956 815.973 539.963 815.973 540.613C815.973 541.264 813.453 544.635 810.372 548.105C807.292 551.575 804.771 554.978 804.771 555.668C804.771 556.357 805.926 559.185 807.337 561.953C811.568 570.251 808.725 576.263 798.583 580.466C794.307 582.238 792.904 585.856 793.961 592.376C794.515 595.793 794.163 596.93 792.228 597.966C790.892 598.681 788.477 601.344 786.861 603.882C781.759 611.899 767.092 626.083 760.43 629.446C754.87 632.251 753.448 632.499 749.363 631.37C745.761 630.375 742.855 630.533 736.817 632.051C727.036 634.508 728.074 634.61 724.286 630.821ZM888.225 233.654C891.438 231.992 891.897 231.077 891.897 226.335C891.897 222.936 891.171 220.313 889.948 219.298C888.876 218.408 887.139 216.016 886.088 213.983C884.35 210.62 884.357 210.356 886.17 211.052C888.564 211.971 891.897 210.865 891.897 209.152C891.897 208.475 890.739 206.294 889.324 204.306C887.192 201.311 886.338 200.911 884.345 201.978C882.734 202.841 881.94 202.849 881.94 202.002C881.94 201.307 879.718 199.605 877.003 198.219C870.994 195.152 868.856 191.754 870.73 188.25C872.148 185.599 877.216 183.741 879.38 185.079C882.297 186.883 883.157 184.223 880.75 180.841C874.912 172.639 866.784 173.179 856.704 182.438C850.198 188.413 849.634 190.001 853.313 191.971C854.682 192.704 855.802 194.137 855.802 195.156C855.802 196.174 858.016 199.411 860.722 202.348C866.954 209.112 868.097 212.202 867.326 220.208L866.705 226.652L875.256 231.042C879.959 233.456 883.975 235.459 884.18 235.493C884.385 235.527 886.205 234.699 888.225 233.654ZM853.935 581.483C850.421 579.49 849.921 578.437 849.004 571.087C848.27 565.213 848.576 563.937 852.088 558.227C855.657 552.423 855.914 551.305 855.127 545.001C853.99 535.899 855.925 531.116 861.213 529.955C866.195 528.862 876.974 519.341 879.557 513.753L881.531 509.483L882.903 512.495C886.355 520.074 886.003 523.403 879.998 540.027C876.785 548.922 873.338 559.561 872.338 563.67C869.137 576.821 867.319 579.992 862.076 581.564C856.495 583.237 857.035 583.242 853.935 581.483ZM1467.05 559.834C1463.08 555.487 1460.71 551.757 1460.71 549.872C1460.71 545.694 1461.38 546.059 1464.97 552.191C1466.69 555.122 1469.79 559.15 1471.87 561.14C1473.94 563.13 1475.64 565.214 1475.64 565.771C1475.64 568.166 1472.99 566.335 1467.05 559.834ZM911.812 558.067C911.812 557.382 912.372 556.822 913.056 556.822C913.741 556.822 914.301 557.382 914.301 558.067C914.301 558.752 913.741 559.312 913.056 559.312C912.372 559.312 911.812 558.752 911.812 558.067ZM1567.26 555.795C1566.82 555.085 1567.07 554.128 1567.81 553.67C1569.66 552.526 1570.31 553.436 1569.08 555.434C1568.42 556.505 1567.78 556.632 1567.26 555.795ZM920.524 553.782C920.524 553.48 921.084 552.887 921.769 552.463C922.454 552.04 923.014 552.287 923.014 553.012C923.014 553.738 922.454 554.331 921.769 554.331C921.084 554.331 920.524 554.084 920.524 553.782ZM1534.89 541.144C1533.68 537.983 1535.22 536.875 1538.65 538.439C1541.61 539.789 1541.67 539.996 1539.61 541.505C1536.72 543.617 1535.81 543.547 1534.89 541.144ZM1542.78 535.606C1540.35 534.102 1542.03 532.901 1545.9 533.38C1548.93 533.755 1549 533.892 1546.84 535.227C1545.45 536.081 1543.8 536.235 1542.78 535.606ZM1484.67 531.037C1482.11 525.53 1483 523.415 1485.65 528.715C1488.4 534.231 1488.45 534.411 1487.15 534.398C1486.64 534.393 1485.52 532.88 1484.67 531.037ZM1489.43 530.153C1489.38 528.84 1489.67 528.105 1490.08 528.519C1490.5 528.932 1490.54 530.006 1490.18 530.905C1489.79 531.899 1489.49 531.604 1489.43 530.153ZM1590.76 518.197C1589.62 516.354 1590.7 515.412 1593.36 515.93C1595.3 516.31 1595.32 516.512 1593.57 517.969C1592.17 519.129 1591.37 519.194 1590.76 518.197ZM855.18 511.994C854.757 511.309 855.004 510.748 855.729 510.748C856.454 510.748 857.047 511.309 857.047 511.994C857.047 512.678 856.8 513.239 856.498 513.239C856.196 513.239 855.603 512.678 855.18 511.994ZM1401.58 500.295C1393.71 497.81 1390.14 495.501 1387.04 490.892C1383.5 485.626 1377.01 481.64 1373.7 482.691C1372.37 483.116 1370.11 485.426 1368.7 487.825C1366.29 491.908 1365.83 492.133 1361.45 491.354C1358.88 490.897 1355.29 489.136 1353.47 487.44C1351.16 485.284 1349.39 484.603 1347.58 485.176C1346.16 485.627 1344.11 485.494 1343.01 484.882C1341.3 483.924 1341.47 483.475 1344.21 481.681C1347.38 479.603 1347.38 479.575 1345.25 475.113C1343.55 471.53 1341.19 469.662 1333.48 465.786C1328.18 463.12 1322.19 460.939 1320.17 460.939C1315.54 460.939 1313.63 456.671 1317.12 454.12C1319.19 452.603 1318.89 452.226 1313.48 449.596C1307.73 446.804 1307.65 446.686 1310.39 445.161C1311.94 444.299 1314.44 443.575 1315.94 443.55C1318.86 443.503 1322.55 447.712 1322.55 451.087C1322.55 452.212 1323.76 454.672 1325.24 456.553C1327.89 459.925 1327.96 459.938 1329.91 457.504C1330.99 456.145 1334.47 453.554 1337.62 451.744L1343.36 448.455L1351.31 452.045C1355.69 454.019 1361.9 456.583 1365.11 457.742C1368.33 458.901 1374.76 462.347 1379.4 465.399C1388.27 471.228 1392.13 476.142 1389.92 478.806C1388.12 480.978 1395.19 490.871 1402.52 496.421C1410.57 502.522 1410.43 503.086 1401.58 500.295ZM1455.75 500.194C1454.77 499.011 1454.68 498.296 1455.5 498.296C1457.01 498.296 1458.76 500.659 1457.9 501.522C1457.58 501.836 1456.62 501.238 1455.75 500.194ZM1246.62 495.125C1244.82 494.127 1244.3 493.393 1245.38 493.378C1247.6 493.348 1251.16 495.421 1250.32 496.259C1250 496.582 1248.33 496.072 1246.62 495.125ZM1267.67 493.48C1271.2 488.521 1276.72 486.398 1281.83 488.039C1285.55 489.234 1285.61 489.334 1282.65 489.452C1280.9 489.522 1276.82 491.261 1273.59 493.315C1266.2 498.004 1264.41 498.053 1267.67 493.48ZM1448.26 495.183C1446.58 493.156 1446.98 492.902 1450.02 494.071C1451.11 494.487 1451.99 495.327 1451.99 495.939C1451.99 497.661 1449.98 497.253 1448.26 495.183ZM1454.09 494.084C1453.62 492.864 1453.27 490.932 1453.32 489.789C1453.37 488.413 1453.8 488.727 1454.6 490.718C1455.26 492.372 1455.6 494.305 1455.37 495.013C1455.13 495.722 1454.56 495.304 1454.09 494.084ZM1550.32 495.257C1550.32 494.955 1550.88 494.361 1551.57 493.938C1552.25 493.515 1552.81 493.762 1552.81 494.487C1552.81 495.212 1552.25 495.806 1551.57 495.806C1550.88 495.806 1550.32 495.559 1550.32 495.257ZM1231.99 490.027C1231.13 489.664 1230.75 488.854 1231.13 488.228C1232.08 486.689 1240.06 486.775 1241.02 488.334C1241.45 489.019 1241.06 489.587 1240.16 489.597C1239.27 489.606 1237.41 489.855 1236.04 490.15C1234.68 490.445 1232.85 490.39 1231.99 490.027ZM1250.47 489.092C1248.21 486.365 1250.82 485.536 1256.68 487.115C1262.59 488.707 1262.57 488.955 1256.44 490.061C1253.26 490.635 1251.52 490.352 1250.47 489.092ZM1437.35 488.334C1436.48 486.955 1436.33 485.844 1437 485.844C1437.67 485.844 1438.81 486.965 1439.55 488.334C1440.28 489.704 1440.43 490.825 1439.89 490.825C1439.35 490.825 1438.2 489.704 1437.35 488.334ZM1445.14 487.081C1441.81 483.403 1443.59 482.824 1447.02 486.471C1448.62 488.181 1449.37 489.58 1448.67 489.58C1447.97 489.58 1446.38 488.455 1445.14 487.081ZM1211.77 486.866C1207.32 486.248 1201.05 484.879 1197.83 483.823C1194.61 482.766 1190.82 482.27 1189.41 482.719C1186.56 483.624 1174.43 480.059 1174.43 478.316C1174.43 474.336 1185.59 474.034 1191.52 477.853C1193.74 479.279 1195.48 479.375 1200.16 478.325C1205.35 477.163 1206.43 477.306 1209.47 479.559C1211.37 480.961 1213.48 482.108 1214.17 482.108C1216.63 482.108 1224.1 486.274 1223.47 487.294C1223.12 487.866 1222.16 488.256 1221.35 488.161C1220.53 488.066 1216.22 487.483 1211.77 486.866ZM1435.19 480.863C1433.95 479.493 1433.5 478.373 1434.18 478.373C1434.87 478.373 1436.44 479.493 1437.68 480.863C1438.92 482.233 1439.37 483.353 1438.69 483.353C1438 483.353 1436.43 482.233 1435.19 480.863ZM1427.34 479.286C1426.63 478.433 1425.69 476.058 1425.25 474.007C1424.54 470.704 1424.62 470.563 1425.95 472.769C1426.77 474.139 1428.25 476.184 1429.22 477.315C1430.26 478.513 1430.5 479.676 1429.81 480.103C1429.16 480.506 1428.05 480.138 1427.34 479.286ZM1400.98 475.327L1397.89 473.614L1402.68 472.714C1405.32 472.22 1409.37 470.15 1411.69 468.116C1414.22 465.895 1415.89 465.091 1415.88 466.103C1415.85 468.635 1414.32 470.586 1409.67 474.02C1404.81 477.607 1405.04 477.572 1400.98 475.327ZM1167.5 470.478C1162.93 467.872 1154.68 457.788 1152 451.521C1150.55 448.14 1147.23 442.572 1144.62 439.148C1142.01 435.724 1139.02 431.241 1137.97 429.186C1136.92 427.132 1133.72 423.209 1130.87 420.47C1124.86 414.694 1121.16 408.624 1123.68 408.667C1126.95 408.724 1135.36 413.4 1138.96 417.166C1148.91 427.556 1150.95 429.405 1155.64 432.299C1160.18 435.093 1162.32 438 1162.54 441.638C1162.58 442.323 1163.87 444.285 1165.4 445.997C1166.94 447.709 1169.83 450.929 1171.84 453.153C1173.84 455.376 1175.84 458.846 1176.28 460.862C1177.73 467.463 1172.42 473.281 1167.5 470.478ZM916.79 469.656C916.79 468.971 917.35 468.411 918.035 468.411C918.72 468.411 919.28 468.971 919.28 469.656C919.28 470.341 918.72 470.901 918.035 470.901C917.35 470.901 916.79 470.341 916.79 469.656ZM1246 469.645C1245.57 468.954 1245.57 467.298 1245.98 465.966C1246.41 464.632 1245.89 462.231 1244.84 460.622C1243.11 457.976 1243.12 457.421 1245.01 454.718C1246.16 453.077 1247.52 448.671 1248.03 444.927C1248.65 440.307 1249.89 437.178 1251.88 435.191C1254.59 432.474 1255.28 432.353 1261.38 433.511C1266.62 434.506 1268.69 434.383 1271.54 432.907C1276.32 430.434 1276.67 430.545 1275.08 434.03C1273.07 438.46 1269.03 439.876 1264.78 437.647C1257.19 433.669 1247.12 439.582 1252.44 444.897C1254.39 446.851 1255.47 447.029 1259.09 445.991C1265.29 444.212 1267.73 444.538 1263.88 446.632C1259.52 449.001 1258.7 451.63 1260.94 455.976C1261.96 457.953 1262.8 461.019 1262.8 462.789C1262.8 465.623 1262.5 465.848 1260.31 464.674C1258.94 463.94 1256.96 461.291 1255.92 458.787C1254.03 454.268 1254 454.252 1251.58 456.668C1249.46 458.787 1249.32 459.729 1250.48 463.929C1251.53 467.725 1251.46 468.98 1250.15 469.809C1247.95 471.204 1246.93 471.163 1245.99 469.645H1246ZM1416.76 463.003C1415.59 461.212 1412.9 458.853 1410.79 457.76C1408.68 456.668 1407.23 455.495 1407.58 455.152C1409.51 453.216 1420.31 462.01 1419.39 464.773C1419.11 465.622 1417.98 464.862 1416.76 463.003ZM1221.31 458.859C1219.43 457.875 1216.9 457.385 1215.68 457.77C1212.59 458.753 1200.29 456.249 1199.07 454.387C1198.1 452.906 1195.25 443.783 1193.72 437.28C1193.3 435.492 1193.72 433.172 1194.7 431.83C1196.13 429.883 1196.86 429.735 1199.12 430.943C1201.5 432.218 1202.01 432 1203.31 429.133C1204.13 427.34 1206.85 424.827 1209.35 423.548C1212.01 422.194 1214.55 419.659 1215.46 417.476C1216.5 414.96 1218.4 413.269 1221.25 412.329C1223.58 411.558 1226.95 409.013 1228.74 406.671C1230.52 404.33 1232.65 402.414 1233.46 402.414C1234.27 402.414 1236.73 404.264 1238.92 406.525L1242.9 410.635L1239.71 414.93C1236.08 419.809 1236.27 424.005 1240.38 429.778L1242.87 433.273L1239.77 435.306C1238.06 436.423 1236.67 438.025 1236.67 438.865C1236.68 441.718 1228.71 458.157 1226.71 459.406C1225.32 460.276 1223.7 460.112 1221.31 458.859ZM1293.61 458.836C1291.03 458.162 1290.68 455.959 1293.14 455.959C1294.08 455.959 1296.72 456.332 1299 456.787C1302.51 457.489 1302.77 457.762 1300.71 458.568C1298.01 459.626 1296.8 459.671 1293.61 458.836ZM1491.82 442.957C1491.82 442.655 1492.38 442.062 1493.07 441.639C1493.75 441.215 1494.31 441.462 1494.31 442.188C1494.31 442.913 1493.75 443.506 1493.07 443.506C1492.38 443.506 1491.82 443.259 1491.82 442.957ZM1289.25 439.58C1288.26 438.584 1288.2 437.431 1289.06 435.819C1289.74 434.54 1289.97 432.956 1289.57 432.299C1288.44 430.482 1291.25 426.073 1293.54 426.073C1295.37 426.073 1295.36 426.287 1293.46 428.39C1291.81 430.208 1291.63 431.41 1292.61 433.982C1294.58 439.181 1292.43 442.765 1289.25 439.58ZM664.125 435.486C664.125 435.184 664.685 434.59 665.37 434.167C666.054 433.744 666.614 433.991 666.614 434.716C666.614 435.442 666.054 436.035 665.37 436.035C664.685 436.035 664.125 435.788 664.125 435.486ZM1527.29 432.299C1526.87 431.615 1527.12 431.054 1527.84 431.054C1528.57 431.054 1529.16 431.615 1529.16 432.299C1529.16 432.984 1528.91 433.545 1528.61 433.545C1528.31 433.545 1527.72 432.984 1527.29 432.299ZM671.593 420.543C671.593 420.241 672.153 419.648 672.838 419.224C673.522 418.801 674.082 419.048 674.082 419.774C674.082 420.499 673.522 421.092 672.838 421.092C672.153 421.092 671.593 420.845 671.593 420.543ZM1270.29 401.821C1267.91 396.281 1267.6 396.031 1263.94 396.834C1260.3 397.634 1260.17 397.537 1261.54 394.986C1262.67 392.873 1263.71 392.454 1266.39 393.043C1268.97 393.61 1270.62 393.036 1273.15 390.691C1274.99 388.986 1276.51 386.583 1276.52 385.352C1276.56 382.209 1281.18 392.749 1282.24 398.384C1283.04 402.663 1282.94 402.896 1281 401.284C1278.11 398.891 1275.33 401.373 1277.7 404.229C1278.64 405.368 1278.76 406.15 1278 406.15C1277.28 406.15 1275.82 406.488 1274.74 406.901C1273.3 407.456 1272.13 406.125 1270.29 401.821ZM1043.35 404.021C1041.96 401.76 1041.17 391.613 1042.17 388.92C1043.24 386.065 1043.32 386.099 1046.49 390.788C1050.29 396.407 1051.51 400.011 1050.25 401.935C1049.05 403.777 1044.12 405.268 1043.35 404.021ZM1321.3 397.58C1321.3 396.895 1321.86 395.989 1322.55 395.565C1323.23 395.142 1323.79 395.356 1323.79 396.041C1323.79 396.726 1323.23 397.632 1322.55 398.056C1321.86 398.479 1321.3 398.265 1321.3 397.58ZM1516.72 397.433C1516.72 396.748 1516.96 396.188 1517.26 396.188C1517.57 396.188 1518.16 396.748 1518.58 397.433C1519.01 398.118 1518.76 398.678 1518.03 398.678C1517.31 398.678 1516.72 398.118 1516.72 397.433ZM1234.18 390.239C1234.18 389.706 1236.67 386.484 1239.72 383.079C1244.19 378.089 1245.28 377.383 1245.32 379.445C1245.36 380.852 1243.48 384.074 1241.17 386.605C1237.24 390.897 1234.18 392.488 1234.18 390.239ZM1261.14 386.916C1260.68 385.734 1260.77 383.939 1261.34 382.927C1262.22 381.36 1262.58 381.344 1263.81 382.825C1264.91 384.151 1264.86 385.095 1263.61 386.814C1262.06 388.925 1261.91 388.931 1261.14 386.916ZM307.99 382.064C308.752 381.145 309.007 380.025 308.557 379.574C308.107 379.123 308.899 378.755 310.318 378.755C312.286 378.755 312.744 379.346 312.248 381.245C311.87 382.691 310.55 383.736 309.1 383.736C307.153 383.736 306.908 383.368 307.99 382.064ZM1269.49 381.735C1269.02 380.438 1268.42 378.957 1268.14 378.443C1267.86 377.93 1268.16 377.509 1268.81 377.509C1270.05 377.509 1271.8 382.623 1270.88 383.548C1270.58 383.847 1269.95 383.031 1269.49 381.735ZM1256.88 378.486C1255.13 376.378 1256.83 373.379 1259.44 373.963C1261.08 374.329 1261.14 374.847 1259.83 377.282C1258.56 379.633 1258.01 379.856 1256.88 378.486ZM1271.59 374.206C1270.16 372.39 1269.2 370.695 1269.46 370.441C1270.47 369.429 1273.97 371.659 1275.83 374.501C1278.69 378.871 1275.06 378.619 1271.59 374.206ZM1251.13 369.386C1250.02 368.277 1249.11 366.725 1249.11 365.937C1249.11 365.149 1250.34 365.734 1251.85 367.236C1253.35 368.739 1254.25 370.291 1253.86 370.685C1253.47 371.08 1252.24 370.495 1251.13 369.386ZM274.132 369.208C273.676 368.751 273.302 367.799 273.302 367.091C273.302 366.311 273.882 366.384 274.775 367.278C275.585 368.088 275.959 369.041 275.605 369.395C275.251 369.749 274.589 369.665 274.132 369.208ZM267.079 367.548C267.079 366.863 267.326 366.303 267.628 366.303C267.93 366.303 268.523 366.863 268.946 367.548C269.369 368.233 269.122 368.793 268.397 368.793C267.672 368.793 267.079 368.233 267.079 367.548ZM325.578 365.057C325.578 364.372 325.825 363.812 326.127 363.812C326.429 363.812 327.022 364.372 327.445 365.057C327.868 365.742 327.621 366.303 326.896 366.303C326.171 366.303 325.578 365.742 325.578 365.057ZM1263.65 364.867C1262.4 364.163 1260.04 363.925 1258.39 364.338C1255.98 364.943 1254.32 363.973 1249.81 359.329C1243.44 352.769 1242.2 350.003 1244.07 346.508C1244.79 345.157 1245.38 342.367 1245.38 340.308C1245.38 333.549 1249.91 333.822 1253.22 340.782C1255.06 344.637 1255.07 345.465 1253.34 349.601C1251.48 354.053 1251.52 354.251 1254.84 357.715C1257.23 360.217 1259.03 361.066 1260.93 360.591C1262.53 360.189 1264.25 360.687 1265.19 361.822C1267.43 364.524 1266.46 366.452 1263.65 364.867ZM318.11 357.037C318.11 356.735 318.67 356.141 319.355 355.718C320.039 355.295 320.599 355.542 320.599 356.267C320.599 356.992 320.039 357.586 319.355 357.586C318.67 357.586 318.11 357.339 318.11 357.037ZM513.521 352.605C513.521 351.92 514.081 351.36 514.766 351.36C515.451 351.36 516.011 351.92 516.011 352.605C516.011 353.29 515.451 353.85 514.766 353.85C514.081 353.85 513.521 353.29 513.521 352.605ZM314.376 347.771C314.376 347.086 314.936 346.18 315.621 345.756C316.305 345.333 316.866 345.547 316.866 346.232C316.866 346.917 316.305 347.823 315.621 348.247C314.936 348.67 314.376 348.456 314.376 347.771ZM303.805 342.658C303.369 341.952 303.869 341.743 304.977 342.168C307.133 342.996 307.527 343.888 305.737 343.888C305.093 343.888 304.224 343.335 303.805 342.658ZM501.697 342.643C501.274 341.958 501.521 341.398 502.246 341.398C502.971 341.398 503.564 341.958 503.564 342.643C503.564 343.328 503.317 343.888 503.015 343.888C502.713 343.888 502.12 343.328 501.697 342.643ZM308.775 340.153C308.352 339.468 308.599 338.908 309.324 338.908C310.049 338.908 310.642 339.468 310.642 340.153C310.642 340.838 310.395 341.398 310.093 341.398C309.792 341.398 309.198 340.838 308.775 340.153ZM314.376 340.153C314.376 339.468 314.623 338.908 314.925 338.908C315.227 338.908 315.82 339.468 316.243 340.153C316.666 340.838 316.419 341.398 315.694 341.398C314.969 341.398 314.376 340.838 314.376 340.153ZM228.806 336.838C227.95 336.492 227.25 335.696 227.25 335.068C227.25 333.273 232.744 333.735 235.414 335.755C237.709 337.492 237.643 337.58 234.096 337.524C232.042 337.492 229.662 337.183 228.806 336.838ZM260.301 336.131C259.185 335.506 256.719 335.336 254.821 335.753C252.923 336.17 250.004 335.965 248.334 335.296C245.649 334.222 245.887 334.095 250.389 334.2C257.006 334.355 258.773 333.277 257.082 330.115C255.881 327.872 256.242 327.701 262.18 327.701C267.924 327.701 276.21 330.336 277.614 332.61C278.548 334.121 262.53 337.379 260.301 336.131ZM284.176 336.919C282.701 335.443 284.534 333.927 287.793 333.927C289.75 333.927 290.742 334.514 290.423 335.483C289.849 337.226 285.486 338.229 284.176 336.919ZM1184.66 334.938C1181.36 331.641 1184.62 327.701 1190.65 327.701C1193.32 327.701 1193.32 327.722 1191.03 331.648C1188.36 336.223 1186.76 337.047 1184.66 334.938ZM294.462 334.683C294.462 334.413 295.302 333.871 296.329 333.476C297.356 333.082 298.196 333.302 298.196 333.966C298.196 334.629 297.356 335.172 296.329 335.172C295.302 335.172 294.462 334.952 294.462 334.683ZM240.658 325.757C240.274 325.372 237.646 325.026 234.819 324.987C230.919 324.933 229.983 324.549 230.94 323.396C231.865 322.281 230.537 320.797 225.961 317.831C216.989 312.015 211.98 310.878 205.952 313.291C200.301 315.553 199.868 315.617 199.868 314.192C199.868 311.586 209.774 308.72 216.906 309.262C223.728 309.781 227.548 311.233 240.941 318.402C251.951 324.295 251.963 324.306 248.409 325.32C244.374 326.471 241.532 326.631 240.658 325.757ZM249.654 315.248C252.067 313.688 253.388 313.688 253.388 315.248C253.388 315.933 252.128 316.485 250.588 316.474C248.323 316.459 248.144 316.224 249.654 315.248ZM1240.9 313.04C1240.15 312.542 1238.85 310.846 1238.02 309.27C1236.77 306.895 1236.9 305.742 1238.78 302.522C1241.68 297.548 1243.64 296.928 1244.59 300.684C1245.58 304.635 1242.71 314.237 1240.9 313.04ZM257.826 311.38C258.657 310.035 263.346 309.883 263.344 311.201C263.344 311.715 261.947 312.216 260.241 312.314C258.535 312.413 257.448 311.993 257.826 311.38ZM233.213 299.379C231.223 297.094 231.512 294.08 233.722 294.08C234.43 294.08 234.723 295.173 234.373 296.51C234.024 297.847 234.378 299.171 235.161 299.453C235.944 299.734 236.255 300.325 235.851 300.765C235.448 301.206 234.261 300.582 233.213 299.379ZM240.444 289.597C240.001 288.442 239.918 287.217 240.26 286.874C240.603 286.532 241.245 287.197 241.688 288.352C242.131 289.506 242.214 290.731 241.871 291.074C241.529 291.416 240.887 290.752 240.444 289.597ZM232.644 288.476C232.644 287.449 233.711 286.608 235.014 286.608C237.122 286.608 237.178 286.816 235.518 288.476C234.491 289.503 233.425 290.344 233.147 290.344C232.87 290.344 232.644 289.503 232.644 288.476ZM1276.5 261.177C1276.5 260.202 1275.14 257.788 1273.47 255.812C1269.53 251.122 1270.93 247.991 1275.6 251.054C1278.96 253.255 1280.71 257.753 1279.47 260.982C1278.53 263.432 1276.5 263.565 1276.5 261.177ZM310.642 253.683C310.642 253.381 311.202 252.788 311.887 252.365C312.571 251.941 313.132 252.188 313.132 252.914C313.132 253.639 312.571 254.232 311.887 254.232C311.202 254.232 310.642 253.985 310.642 253.683ZM1283.43 252.153C1282.63 250.049 1284.53 248.06 1287.39 248.025C1289.36 248.001 1289.4 250.785 1287.45 252.738C1285.42 254.769 1284.38 254.617 1283.43 252.153ZM1294.8 247.607C1292.39 243.918 1288.97 243.411 1281.16 245.582C1277.98 246.465 1275.79 246.475 1274.31 245.613C1273.12 244.917 1272.8 244.329 1273.6 244.308C1274.4 244.288 1276.75 242.85 1278.81 241.114C1281.47 238.874 1283.42 238.173 1285.52 238.701C1287.75 239.26 1290.16 238.19 1295.21 234.388C1305.06 226.986 1305.95 224.652 1301.94 216.743C1298.1 209.151 1299.17 206.707 1304.87 210.074C1309.02 212.525 1312.92 219.545 1311.79 222.504C1311.38 223.569 1311.99 226.912 1313.14 229.933C1314.77 234.207 1314.93 236.005 1313.84 238.04C1312.24 241.028 1307.79 243.025 1302.73 243.025C1299.9 243.025 1299.05 243.753 1298.13 246.985L1296.99 250.944L1294.8 247.607ZM790.582 243.357C789.096 241.871 789.887 240.535 792.251 240.535C793.58 240.535 795.013 239.975 795.436 239.29C796.593 237.417 798.566 237.793 797.818 239.744C797.05 241.746 791.661 244.437 790.582 243.357ZM748.139 241.203L744.405 239.492L749.384 239.408C755.585 239.303 760.153 240.467 759.254 241.922C758.252 243.543 752.424 243.166 748.139 241.203ZM697.859 228.781C692.878 226.23 692.644 225.911 695.244 225.231C698.358 224.416 705.252 225.43 705.111 226.682C705.063 227.11 704.643 228.388 704.178 229.522C703.413 231.386 702.807 231.315 697.859 228.781ZM672.912 215.309C671.835 212.217 671.92 211.034 673.319 209.634C675.85 207.102 677.816 208.881 677.816 213.703C677.816 219.398 674.693 220.421 672.912 215.309ZM643.726 216.344C644.609 214.042 648.396 213.652 647.634 215.942C647.349 216.798 646.184 217.679 645.045 217.9C643.601 218.18 643.202 217.709 643.726 216.344ZM1294.06 202.13C1291.78 198.929 1291.72 198.339 1293.4 195.936C1295.06 193.575 1295.05 192.868 1293.35 189.574C1290.55 184.157 1290.94 183.829 1295.8 187.535C1298.2 189.366 1302.93 191.689 1306.32 192.696C1313.33 194.776 1315.02 196.41 1311.36 197.569C1309.99 198.007 1308.86 199.179 1308.86 200.173C1308.86 201.527 1308 201.761 1305.43 201.104C1298.87 199.423 1297 199.834 1297.42 202.867C1297.94 206.584 1297.1 206.4 1294.06 202.13ZM674.912 203.593C673.468 202.149 674.012 199.736 675.949 198.992C677.298 198.474 677.816 199.129 677.816 201.35C677.816 204.339 676.598 205.28 674.912 203.593ZM1286.16 177.34C1285.11 176.141 1282.56 171.798 1280.51 167.687C1278.45 163.577 1273.02 156.028 1268.44 150.913C1263.31 145.197 1260.71 141.408 1261.68 141.083C1262.56 140.793 1264.42 142.095 1265.84 143.977C1269.26 148.539 1273.48 152.5 1280.13 157.406C1285.65 161.472 1288.38 165.236 1284.82 163.87C1280.71 162.294 1281.74 166.034 1287.05 172.016C1290.14 175.504 1292.68 178.618 1292.68 178.938C1292.68 180.452 1287.87 179.272 1286.16 177.34ZM375.364 175.161C375.364 174.133 375.907 173.293 376.57 173.293C377.233 173.293 377.453 174.133 377.059 175.161C376.665 176.188 376.123 177.029 375.854 177.029C375.585 177.029 375.364 176.188 375.364 175.161ZM368.861 171.142L364.224 170.656L372.949 162.013C377.748 157.259 382.302 153.369 383.069 153.369C383.878 153.369 383.635 154.284 382.491 155.549C379.9 158.414 381.667 161.632 386.402 162.672C388.469 163.127 390.529 164.712 391.326 166.46C392.604 169.266 392.387 169.552 388.075 170.75C383.551 172.007 378.15 172.117 368.861 171.142ZM65.5764 162.209C61.2649 158.18 60.784 156.482 63.643 155.384C66.2033 154.402 70.9295 157.606 72.7208 161.539C74.6005 165.667 74.5672 165.822 71.7996 165.822C70.5029 165.822 67.7024 164.196 65.5764 162.209ZM613.716 155.882C615.085 155.207 617.78 154.086 619.703 153.391C623.942 151.861 623.239 150.232 617.878 149.159C614.201 148.423 614.071 148.236 616.176 146.697C617.428 145.78 618.088 144.44 617.642 143.718C617.186 142.98 618.466 141.835 620.563 141.103C622.616 140.387 624.296 139.248 624.296 138.573C624.296 135.696 621.701 130.858 620.26 131.046C616.937 131.48 615.398 130.894 615.934 129.399C616.24 128.543 615.987 126.862 615.371 125.663C613.769 122.547 617.451 116.102 620.873 116.032C621.386 116.022 621.667 116.7 621.495 117.54C621.324 118.379 622.499 119.266 624.106 119.51L627.027 119.953L624.235 122.926L621.444 125.898L624.591 127.095C627.968 128.38 631.223 132.565 634.538 139.884C636.126 143.391 637.17 144.308 639.024 143.823C642.828 142.828 643.279 145.406 639.71 147.746C637.293 149.33 636.834 150.223 637.893 151.283C638.952 152.342 636.864 153.053 629.624 154.098C624.298 154.867 617.979 155.86 615.583 156.304C612.251 156.921 611.812 156.822 613.716 155.882ZM592.727 149.004C592.301 147.894 592.786 145.372 593.806 143.399C594.976 141.136 595.202 139.53 594.42 139.046C592.263 137.713 593.071 136.011 596.24 135.215C597.923 134.793 599.952 133.661 600.749 132.701C602.407 130.702 610.074 130.334 611.226 132.198C611.648 132.882 611.121 134.688 610.054 136.211C608.988 137.734 608.115 140.471 608.115 142.292C608.115 145.069 607.262 145.899 602.826 147.44C599.916 148.45 596.628 149.67 595.518 150.149C594.217 150.712 593.226 150.305 592.727 149.004ZM615.583 136.632C615.583 136.33 616.143 135.737 616.828 135.314C617.513 134.89 618.073 135.137 618.073 135.863C618.073 136.588 617.513 137.182 616.828 137.182C616.143 137.182 615.583 136.934 615.583 136.632ZM63.2041 130.633C61.9848 129.163 62.0625 128.478 63.5925 127.207C66.1219 125.107 67.3765 126.532 65.9043 129.833C64.8891 132.109 64.5197 132.218 63.2041 130.633ZM61.2577 121.268C60.8374 120.587 61.3275 119.338 62.3468 118.492C64.3705 116.811 64.7931 118.129 63.0919 120.815C62.442 121.841 61.7219 122.019 61.2577 121.268ZM-19.192 120.473C-19.192 119.597 -15.4179 118.065 -10.0639 116.768C-8.03428 116.276 -6.83432 116.394 -7.23753 117.047C-7.62293 117.671 -9.49016 118.495 -11.387 118.878C-13.2837 119.261 -15.8158 119.953 -17.0138 120.417C-18.2118 120.881 -19.192 120.906 -19.192 120.473ZM720.446 106.471C718.149 105.544 718.556 104.116 721.172 103.918C722.427 103.824 723.454 104.545 723.454 105.521C723.454 107.375 723.022 107.512 720.446 106.471ZM446.932 100.107C439.056 95.8099 435.291 89.2078 437.573 83.6955C438.653 81.0867 438.686 79.4463 437.696 77.5949C435.635 73.742 438.324 69.2268 445.201 64.9934C448.467 62.9827 451.728 60.237 452.448 58.8917C454.442 55.1647 452.666 48.7778 449.196 47.1962C447.44 46.3958 446.485 45.13 446.873 44.1185C447.756 41.8149 443.612 33.9472 439.485 30.0923C436.447 27.2551 435.141 26.9726 424.739 26.9045C410.575 26.8117 407.937 26.0239 408.171 21.958C408.268 20.269 408.643 18.8867 409.003 18.8862C409.363 18.8857 414.404 18.3013 420.205 17.5874C427.611 16.6759 434.252 14.7962 442.508 11.274C455.29 5.8208 456.263 5.71424 486.761 6.43141C496.392 6.65788 505.251 5.94483 516.633 4.02725C527.232 2.24148 535.031 1.56831 539.242 2.0757C542.821 2.50681 548.002 2.22246 550.927 1.43448C557.715 -0.394128 575.35 1.80551 582.287 5.34585C586.388 7.43887 588.557 7.71525 595.477 7.02604C602.951 6.28158 603.516 6.37951 601.27 8.03026C599.901 9.03627 595.7 10.2652 591.935 10.7611C583.765 11.8374 576.258 17.6631 578.247 21.3828C579.106 22.9874 578.49 24.3569 575.715 27.0168C573.699 28.9495 571.754 31.4611 571.393 32.5982C570.526 35.3297 559.523 40.4135 554.067 40.6031C548.007 40.8136 547.373 42.1024 552.06 44.6848C554.274 45.9047 557.505 47.9833 559.241 49.3039L562.397 51.705L559.544 52.7611C557.356 53.5706 555.582 53.0487 551.942 50.5252C547.003 47.1007 541.689 47.0835 544.524 50.5011C545.629 51.834 545.363 52.3517 543.294 52.893C538.669 54.1031 541.94 56.496 547.042 55.6338C550.288 55.0851 552.114 55.3743 553.129 56.5981C554.337 58.0543 552.762 58.7286 543.697 60.6348C537.711 61.8935 529.733 62.9694 525.968 63.0257C518.974 63.1303 513.933 65.1391 506.518 70.7772C504.1 72.6158 498.962 74.4378 492.949 75.5887C480.383 77.9942 476.136 80.7762 468.564 91.5632C462.482 100.227 458.815 103.457 455.022 103.487C453.996 103.496 450.355 101.974 446.932 100.107ZM358.68 91.7788C356.007 90.1357 352.732 87.0712 351.401 84.9689C348.804 80.8646 346.409 80.3431 339.397 82.3552C337.023 83.0363 334.359 83.1019 333.294 82.5056C329.608 80.442 336.265 78.4125 343.68 79.3393C349.319 80.0441 350.572 79.8433 351.229 78.1289C352.55 74.6844 358.597 72.2159 361.959 73.7485C364.029 74.6919 365.911 74.6656 368.554 73.6562C372.11 72.2982 372.16 72.1755 369.837 70.469C368.508 69.4929 366.991 68.6942 366.466 68.6942C365.941 68.6942 364.047 66.1927 362.256 63.1353C360.465 60.0779 357.108 56.407 354.797 54.9777C350.868 52.5486 350.348 52.5059 346.835 54.3238C343.763 55.9131 341.988 56.0244 337.127 54.9325C333.856 54.1976 329.288 53.9501 326.977 54.3825C322.967 55.1326 315.621 53.1695 315.621 51.348C315.621 48.0019 326.162 40.4922 332.424 39.3775L337.402 38.4912L333.844 42.2845C328.934 47.5172 330.781 49.9254 336.111 45.2427C338.373 43.2563 342.281 41.2448 344.796 40.7727C348.64 40.0513 350.286 40.5218 355.113 43.7199C361.534 47.9751 362.029 48.0892 365.65 46.1503C367.83 44.9827 368.639 45.3034 371.007 48.2745C372.645 50.3297 376.303 52.5675 379.87 53.6967C385.555 55.4963 385.944 55.8877 385.944 59.8104C385.944 62.752 386.792 64.6082 388.788 66.0366C397.141 72.0129 396.959 71.7661 395.152 74.6615C392.674 78.6314 390.717 78.9191 385.232 76.1198C381.416 74.1723 379.749 73.9053 377.829 74.9337C375.478 76.1922 375.453 76.4611 377.345 80.1215C378.898 83.1257 379.04 84.6426 377.985 86.9596C376.684 89.8147 376.477 89.8588 372.947 88.0322C366.006 84.4414 361.332 86.8043 367.807 90.6307C369.835 91.8295 371.212 93.268 370.867 93.8272C369.661 95.7786 363.503 94.7435 358.68 91.7788ZM614.339 93.3912C614.339 92.8204 615.179 92.3535 616.206 92.3535C617.232 92.3535 618.073 92.8204 618.073 93.3912C618.073 93.9619 617.232 94.4288 616.206 94.4288C615.179 94.4288 614.339 93.9619 614.339 93.3912ZM311.751 86.6944C309.297 85.4038 307.391 85.2933 303.955 86.2425C298.113 87.8564 296.069 86.6754 299.034 83.3979C302.83 79.2022 305.404 78.377 309.981 79.8885C315.134 81.5897 317.42 84.1182 316.03 86.5772C315.144 88.1448 314.54 88.1614 311.751 86.6944ZM558.951 86.1273C556.898 84.7764 554.284 83.9666 553.142 84.3278C551.571 84.8252 551.222 84.3934 551.704 82.5476C552.445 79.7147 563.381 75.6258 567.078 76.7996C568.367 77.2089 571.661 76.8723 574.398 76.0518C578.696 74.7637 579.835 74.8612 582.74 76.7656L586.105 78.9712L583.108 81.3079C580.578 83.2802 575.886 84.9915 564.552 88.0756C563.525 88.355 561.005 87.4783 558.951 86.1273ZM221.027 62.8822C219.316 62.6116 215.146 61.1469 211.762 59.6274L205.61 56.8646L214.252 56.242C219.005 55.8996 222.894 55.059 222.894 54.3742C222.894 53.6893 219.533 52.8286 215.426 52.4615C210.003 51.9769 208.98 51.6359 211.692 51.2163C216.232 50.5138 216.559 48.5466 212.314 47.4741C209.258 46.7018 209.28 46.6546 213.58 44.8012C221.031 41.5891 228.968 40.9738 236.001 43.063C241.774 44.7784 242.676 44.7711 245.398 42.9867C247.323 41.7248 248.465 41.5137 248.565 42.4013C248.65 43.165 248.791 44.4435 248.876 45.2425C249.165 47.9402 251.648 47.5911 254.61 44.4363C257.353 41.5157 262.106 40.1167 262.096 42.2332C262.093 42.7469 260.986 44.9806 259.635 47.197L257.179 51.2268L261.196 53.3232L265.212 55.4196L258.617 58.431C252.667 61.1484 251.446 61.3038 246.112 60.0236C240.94 58.7823 239.456 58.9243 234.244 61.1591C228.358 63.6833 227.117 63.8451 221.027 62.8822ZM270.945 62.0049C269.821 60.6497 270.285 59.9827 273.191 58.7788C275.213 57.9408 278.114 57.6614 279.668 58.155C282.364 59.011 282.302 59.1456 278.204 61.3289C272.976 64.1145 272.716 64.1387 270.945 62.0049ZM614.339 56.242C616.752 54.6818 618.073 54.6818 618.073 56.242C618.073 56.9269 616.812 57.4786 615.272 57.4682C613.008 57.4528 612.829 57.2181 614.339 56.242ZM842.733 52.7873C836.37 50.2727 836.5 50.4102 838.352 48.1782C839.218 47.1343 839.438 46.2624 838.841 46.2406C838.243 46.2188 838.875 45.3542 840.244 44.3192C841.613 43.2842 842.743 42.0412 842.754 41.557C842.798 39.7153 847.865 34.8582 851.446 33.226C853.5 32.2899 858.82 31.2349 863.27 30.8815C867.72 30.528 873.68 29.8805 876.515 29.4425C879.532 28.9764 881.991 29.167 882.445 29.9022C883.327 31.3308 881.643 31.938 871.983 33.6743C862.397 35.3973 856.635 38.0822 852.839 42.5945C848.841 47.348 848.708 50.3493 852.379 52.9117L855.18 54.8661L851.446 54.8105C849.392 54.7799 845.471 53.8694 842.733 52.7873ZM190.85 49.1769C188.843 47.1687 189.3 46.7315 198.931 41.457C210.214 35.277 215.885 34.4566 226.006 37.5395L231.606 39.2456L224.139 40.727C218.031 41.9386 205.088 46.2687 194.867 50.5199C193.824 50.9536 192.024 50.3518 190.85 49.1769ZM280.77 47.5652C280.77 46.9022 279.23 45.4753 277.348 44.3943L273.925 42.4288L278.508 43.1498C281.764 43.6622 283.385 43.357 284.109 42.0955C284.969 40.5953 292.891 37.5933 296.049 37.5706C296.58 37.5664 296.147 39.2428 295.086 41.295C292.588 46.1287 280.77 51.3046 280.77 47.5652ZM300.149 43.9294C298.366 41.0428 310.545 36.5744 315.718 38.2172C319.489 39.4144 316.969 41.4718 310.392 42.5655C307.449 43.0549 304.118 43.849 302.989 44.3301C301.86 44.8112 300.582 44.6309 300.149 43.9294ZM339.892 34.7599C331.677 34.1062 324.803 33.4291 324.615 33.2553C323.502 32.2221 326.278 28.8592 329.266 27.6212C332.203 26.404 333.556 26.5655 337.578 28.613C341.497 30.6087 344.023 30.9405 351.305 30.4155C356.213 30.0616 361.814 30.1735 363.751 30.6642L367.274 31.5563L362.918 33.8852C360.522 35.166 357.721 36.1543 356.695 36.0813C355.668 36.0082 348.106 35.4136 339.892 34.7599ZM698.076 29.6708C691.962 26.5393 691.372 25.1191 696.175 25.0924C698.057 25.0818 700.438 24.4687 701.465 23.7297C703.079 22.5681 703.057 22.4732 701.305 23.0288C700.191 23.3823 698.627 23.0193 697.831 22.2228C696.729 21.1212 696.156 21.1407 695.437 22.3042C694.772 23.3814 693.405 23.5089 690.821 22.7348C684.258 20.7683 682.795 19.8953 682.795 17.9457C682.795 16.2942 684.44 16.143 694.619 16.8588C702.371 17.404 706.443 17.2529 706.443 16.42C706.443 13.9687 709.897 15.1791 710.812 17.9514L711.738 20.7531L712.289 17.9514C712.592 16.4104 713.641 15.1496 714.62 15.1496C715.599 15.1496 716.401 14.4772 716.401 13.6553C716.401 12.4931 716.732 12.4931 717.894 13.6553C718.763 14.5246 722.928 15.1496 727.851 15.1496C736.75 15.1496 738.84 16.7413 732.905 18.9987C729.821 20.1719 724.457 19.84 718.579 18.1124C717.381 17.7603 716.404 17.9303 716.408 18.4901C716.417 19.6392 723.411 23.8662 725.303 23.8662C725.981 23.8662 727.321 24.6523 728.282 25.6131C729.78 27.1121 729.767 27.4599 728.193 28.0645C727.184 28.4519 726.358 28.1638 726.358 27.4242C726.358 26.5548 724.775 26.3766 721.879 26.9201C718.743 27.5086 717.656 27.3472 718.252 26.3815C718.721 25.6229 718.427 24.1863 717.6 23.189C716.004 21.265 711.422 20.676 711.422 22.3948C711.422 22.9552 709.602 25.4272 707.377 27.8881L703.332 32.3623L698.076 29.6708ZM367.896 26.9314C365.739 25.6642 362.686 25.2971 357.939 25.734C353.502 26.1424 350.091 25.7903 348.243 24.7334C345.696 23.2762 346.319 23.1101 354.092 23.1731C363.813 23.2519 368.082 21.1701 362.818 18.9183C360.317 17.8486 360.681 17.7515 364.968 18.3456C370.564 19.1212 372.74 17.6211 369.691 15.0894C366.439 12.3897 370.015 11.5516 381.583 12.3015C388.742 12.7655 393.241 12.5052 395.08 11.5207C398.603 9.63445 397.22 7.2334 393.194 8.24448C390.411 8.94326 371.097 7.7966 371.913 6.98099C372.495 6.39813 399.857 3.86282 417.824 2.72699C427.143 2.13783 437.505 1.31599 440.85 0.900659L446.932 0.145508L436.892 4.9705C427.478 9.49425 412.17 13.9044 405.881 13.9044C404.35 13.9044 399.948 15.5855 396.1 17.6401C392.251 19.6947 388.331 21.3757 387.388 21.3757C386.444 21.3757 382.373 23.0497 378.34 25.0956C374.308 27.1416 371.008 28.8028 371.008 28.7872C371.008 28.7716 369.608 27.9365 367.896 26.9314ZM343.626 15.5549C337.593 14.2195 337.372 13.7172 341.805 11.4187C348.267 8.06831 354.381 7.20959 357.161 9.26212C359.362 10.8871 359.234 11.1383 354.912 13.6899C350.406 16.3491 348.578 16.6513 343.626 15.5549Z" fill="#26292E"/>
</svg>