<svg width="12" height="12" viewBox="0 0 12 12" fill="none" xmlns="http://www.w3.org/2000/svg">
<path d="M10.9498 2.46447L7.41423 6L10.9498 9.53553C11.3387 9.92444 11.3387 10.5608 10.9498 10.9497C10.5609 11.3387 9.92446 11.3387 9.53555 10.9497L6.00002 7.41421L2.46449 10.9497C2.07558 11.3387 1.43918 11.3387 1.05027 10.9497C0.661363 10.5608 0.661364 9.92444 1.05027 9.53553L4.58581 6L1.05027 2.46447C0.661364 2.07556 0.661363 1.43916 1.05027 1.05025C1.43918 0.661344 2.07558 0.661344 2.46449 1.05025L6.00002 4.58579L9.53555 1.05025C9.92446 0.661344 10.5609 0.661344 10.9498 1.05025C11.3387 1.43916 11.3387 2.07556 10.9498 2.46447Z" fill="white"/>
</svg>
