<?xml version="1.0" encoding="UTF-8"?>
<svg xmlns="http://www.w3.org/2000/svg" width="140" height="140" viewBox="0 0 140 140" fill="none">
  <path d="M70.0648 0L134.88 35L134.88 105L70.0648 140L5.25 105L5.25015 35H5.25L70.0648 0Z" fill="#4E4E4E"></path>
  <path fill-rule="evenodd" clip-rule="evenodd" d="M5.25015 36.037L5.25 105L70.0648 140L134.88 105L134.88 35L70.0648 0L5.25015 34.9999L5.25 35M6.28719 35.6185L70.0648 1.17858L133.842 35.6186L133.843 104.381L70.0648 138.821L6.28704 104.381L6.28719 35.6185ZM5.25015 36.037V34.9999Z" fill="#403F3F"></path>
  <path d="M70.0649 4.40735L130.861 37.2036L130.861 102.796L70.0649 135.593L9.26855 102.796L9.2687 37.2036H9.26855L70.0649 4.40735Z" fill="#403F3F"></path>
  <path d="M9.26855 50.8148H130.861V89.1852H9.26855V50.8148Z" fill="#403F3F"></path>
  <path d="M125.157 39.9259L69.9351 9.85181L14.9723 39.9259L14.9722 54.25H125.157L125.157 39.9259Z" fill="#4E4E4E"></path>
  <path d="M69.9351 130.148L125.157 100.074L125.157 85.75H14.9722L14.9722 100.074L69.9351 130.148Z" fill="#4E4E4E"></path>
  <path fill-rule="evenodd" clip-rule="evenodd" d="M69.9354 10.0881L15.1797 40.0488L15.1797 54.0425H124.95L124.95 40.0491L69.9354 10.0881ZM125.157 39.9259L69.9351 9.85181L14.9723 39.9259L14.9722 54.25H125.157L125.157 39.9259ZM124.95 99.9508L124.95 85.9574H15.1796L15.1796 99.9511L69.9354 129.912L124.95 99.9508ZM69.9351 130.148L125.157 100.074L125.157 85.75H14.9722L14.9722 100.074L69.9351 130.148Z" fill="#403F3F"></path>
  <path d="M33.8794 95.5958V100.204H33.2686V95.5958H33.8794ZM35.8099 97.6687V98.1687H33.7464V97.6687H35.8099ZM36.1232 95.5958V96.0958H33.7464V95.5958H36.1232Z" fill="#EBEBEB"></path>
  <path d="M38.1932 95.5958V100.204H37.5824V95.5958H38.1932Z" fill="#EBEBEB"></path>
  <path d="M43.5357 95.5958V100.204H42.9217L40.6019 96.6496V100.204H39.9911V95.5958H40.6019L42.9312 99.1593V95.5958H43.5357Z" fill="#EBEBEB"></path>
  <path d="M47.0679 96.004L45.5424 100.204H44.919L46.6754 95.5958H47.0774L47.0679 96.004ZM48.3464 100.204L46.8178 96.004L46.8083 95.5958H47.2103L48.9731 100.204H48.3464ZM48.2673 98.4979V98.9979H45.6785V98.4979H48.2673Z" fill="#EBEBEB"></path>
  <path d="M53.8218 95.5958V100.204H53.2078L50.888 96.6496V100.204H50.2772V95.5958H50.888L53.2173 99.1593V95.5958H53.8218Z" fill="#EBEBEB"></path>
  <path d="M58.373 98.7384H58.9807C58.949 99.0296 58.8657 99.2901 58.7306 99.5201C58.5956 99.7501 58.4047 99.9326 58.1578 100.068C57.911 100.201 57.6029 100.267 57.2337 100.267C56.9636 100.267 56.7178 100.216 56.4963 100.115C56.2769 100.014 56.0881 99.8703 55.9298 99.6847C55.7716 99.4969 55.6492 99.2722 55.5627 99.0106C55.4783 98.7468 55.4361 98.4536 55.4361 98.1308V97.6719C55.4361 97.3491 55.4783 97.0568 55.5627 96.7952C55.6492 96.5315 55.7726 96.3057 55.933 96.118C56.0954 95.9302 56.2906 95.7857 56.5185 95.6844C56.7463 95.5831 57.0027 95.5325 57.2875 95.5325C57.6356 95.5325 57.93 95.5979 58.1705 95.7287C58.411 95.8595 58.5977 96.0409 58.7306 96.273C58.8657 96.503 58.949 96.7699 58.9807 97.0737H58.373C58.3435 96.8585 58.2886 96.6739 58.2085 96.5199C58.1283 96.3638 58.0144 96.2435 57.8667 96.1591C57.719 96.0747 57.5259 96.0325 57.2875 96.0325C57.0829 96.0325 56.9025 96.0715 56.7463 96.1496C56.5923 96.2277 56.4626 96.3384 56.3571 96.4819C56.2537 96.6254 56.1756 96.7973 56.1229 96.9978C56.0701 97.1982 56.0437 97.4208 56.0437 97.6655V98.1308C56.0437 98.3565 56.067 98.5686 56.1134 98.7669C56.1619 98.9652 56.2347 99.1393 56.3317 99.2891C56.4288 99.4389 56.5522 99.557 56.702 99.6435C56.8518 99.7279 57.029 99.7701 57.2337 99.7701C57.4932 99.7701 57.7 99.729 57.854 99.6467C58.008 99.5644 58.1241 99.4463 58.2021 99.2922C58.2823 99.1382 58.3393 98.9536 58.373 98.7384Z" fill="#EBEBEB"></path>
  <path d="M61.1552 95.5958V100.204H60.5444V95.5958H61.1552Z" fill="#EBEBEB"></path>
  <path d="M64.7158 96.004L63.1904 100.204H62.5669L64.3234 95.5958H64.7253L64.7158 96.004ZM65.9944 100.204L64.4658 96.004L64.4563 95.5958H64.8582L66.621 100.204H65.9944ZM65.9153 98.4979V98.9979H63.3265V98.4979H65.9153Z" fill="#EBEBEB"></path>
  <path d="M70.7197 99.7068V100.204H68.4157V99.7068H70.7197ZM68.536 95.5958V100.204H67.9252V95.5958H68.536Z" fill="#EBEBEB"></path>
  <path d="M76.8568 99.0391C76.8568 98.9315 76.8399 98.8365 76.8061 98.7542C76.7745 98.6698 76.7175 98.5939 76.6352 98.5264C76.5551 98.4588 76.4432 98.3945 76.2998 98.3333C76.1584 98.2721 75.9791 98.2099 75.7618 98.1466C75.5339 98.0791 75.3282 98.0042 75.1446 97.9219C74.9611 97.8375 74.8039 97.7415 74.6731 97.6339C74.5423 97.5263 74.442 97.4029 74.3724 97.2636C74.3028 97.1244 74.268 96.9651 74.268 96.7857C74.268 96.6064 74.3049 96.4408 74.3787 96.2889C74.4526 96.1369 74.5581 96.0051 74.6952 95.8933C74.8345 95.7793 75.0001 95.6907 75.1921 95.6274C75.3841 95.5641 75.5982 95.5325 75.8345 95.5325C76.1806 95.5325 76.4738 95.5989 76.7144 95.7319C76.957 95.8627 77.1416 96.0346 77.2682 96.2477C77.3948 96.4587 77.4581 96.6845 77.4581 96.925H76.8504C76.8504 96.752 76.8135 96.599 76.7397 96.4661C76.6658 96.3311 76.554 96.2256 76.4042 96.1496C76.2544 96.0715 76.0645 96.0325 75.8345 96.0325C75.6172 96.0325 75.4379 96.0652 75.2965 96.1306C75.1552 96.196 75.0497 96.2846 74.9801 96.3965C74.9125 96.5083 74.8788 96.6359 74.8788 96.7794C74.8788 96.8764 74.8988 96.9651 74.9389 97.0452C74.9811 97.1233 75.0455 97.1961 75.132 97.2636C75.2206 97.3311 75.3324 97.3934 75.4674 97.4503C75.6046 97.5073 75.7681 97.5622 75.958 97.6149C76.2196 97.6887 76.4453 97.771 76.6352 97.8618C76.8251 97.9525 76.9813 98.0548 77.1036 98.1687C77.2281 98.2806 77.3199 98.4082 77.379 98.5517C77.4401 98.693 77.4707 98.8534 77.4707 99.0327C77.4707 99.2205 77.4328 99.3903 77.3568 99.5423C77.2809 99.6942 77.1722 99.8239 77.0308 99.9315C76.8895 100.039 76.7196 100.122 76.5213 100.182C76.3251 100.239 76.1057 100.267 75.863 100.267C75.6499 100.267 75.44 100.237 75.2332 100.178C75.0286 100.119 74.8419 100.031 74.6731 99.9125C74.5064 99.7944 74.3724 99.6488 74.2711 99.4758C74.172 99.3007 74.1224 99.0981 74.1224 98.8682H74.73C74.73 99.0264 74.7606 99.1625 74.8218 99.2764C74.883 99.3882 74.9663 99.4811 75.0718 99.5549C75.1794 99.6288 75.3008 99.6836 75.4358 99.7195C75.5729 99.7532 75.7153 99.7701 75.863 99.7701C76.0761 99.7701 76.2565 99.7406 76.4042 99.6815C76.5519 99.6224 76.6637 99.538 76.7397 99.4283C76.8177 99.3186 76.8568 99.1889 76.8568 99.0391Z" fill="#EBEBEB"></path>
  <path d="M81.8637 99.7068V100.204H79.4237V99.7068H81.8637ZM79.5471 95.5958V100.204H78.9363V95.5958H79.5471ZM81.5409 97.5769V98.0738H79.4237V97.5769H81.5409ZM81.8321 95.5958V96.0958H79.4237V95.5958H81.8321Z" fill="#EBEBEB"></path>
  <path d="M83.3072 95.5958H84.8326C85.1786 95.5958 85.4708 95.6485 85.7092 95.754C85.9498 95.8595 86.1323 96.0156 86.2567 96.2224C86.3833 96.4271 86.4466 96.6792 86.4466 96.9788C86.4466 97.1898 86.4034 97.3828 86.3169 97.5579C86.2325 97.7309 86.1101 97.8786 85.9498 98.001C85.7915 98.1213 85.6016 98.2109 85.3801 98.27L85.2092 98.3365H83.7755L83.7692 97.8396H84.8516C85.071 97.8396 85.2535 97.8016 85.3991 97.7257C85.5447 97.6476 85.6544 97.5432 85.7282 97.4124C85.8021 97.2815 85.839 97.137 85.839 96.9788C85.839 96.8015 85.8042 96.6465 85.7346 96.5136C85.6649 96.3806 85.5552 96.2783 85.4054 96.2066C85.2577 96.1327 85.0668 96.0958 84.8326 96.0958H83.918V100.204H83.3072V95.5958ZM86.0004 100.204L84.8801 98.1149L85.5162 98.1118L86.6523 100.166V100.204H86.0004Z" fill="#EBEBEB"></path>
  <path d="M89.4123 99.5043L90.77 95.5958H91.4314L89.7256 100.204H89.2541L89.4123 99.5043ZM88.1432 95.5958L89.4883 99.5043L89.656 100.204H89.1844L87.4818 95.5958H88.1432Z" fill="#EBEBEB"></path>
  <path d="M93.3939 95.5958V100.204H92.7831V95.5958H93.3939Z" fill="#EBEBEB"></path>
  <path d="M97.9736 98.7384H98.5813C98.5496 99.0296 98.4663 99.2901 98.3312 99.5201C98.1962 99.7501 98.0053 99.9326 97.7584 100.068C97.5116 100.201 97.2035 100.267 96.8343 100.267C96.5642 100.267 96.3184 100.216 96.0969 100.115C95.8775 100.014 95.6886 99.8703 95.5304 99.6847C95.3722 99.4969 95.2498 99.2722 95.1633 99.0106C95.0789 98.7468 95.0367 98.4536 95.0367 98.1308V97.6719C95.0367 97.3491 95.0789 97.0568 95.1633 96.7952C95.2498 96.5315 95.3732 96.3057 95.5336 96.118C95.696 95.9302 95.8912 95.7857 96.119 95.6844C96.3469 95.5831 96.6033 95.5325 96.8881 95.5325C97.2362 95.5325 97.5305 95.5979 97.7711 95.7287C98.0116 95.8595 98.1983 96.0409 98.3312 96.273C98.4663 96.503 98.5496 96.7699 98.5813 97.0737H97.9736C97.9441 96.8585 97.8892 96.6739 97.809 96.5199C97.7289 96.3638 97.6149 96.2435 97.4672 96.1591C97.3196 96.0747 97.1265 96.0325 96.8881 96.0325C96.6834 96.0325 96.503 96.0715 96.3469 96.1496C96.1929 96.2277 96.0631 96.3384 95.9576 96.4819C95.8543 96.6254 95.7762 96.7973 95.7235 96.9978C95.6707 97.1982 95.6443 97.4208 95.6443 97.6655V98.1308C95.6443 98.3565 95.6675 98.5686 95.714 98.7669C95.7625 98.9652 95.8353 99.1393 95.9323 99.2891C96.0294 99.4389 96.1528 99.557 96.3026 99.6435C96.4524 99.7279 96.6296 99.7701 96.8343 99.7701C97.0938 99.7701 97.3006 99.729 97.4546 99.6467C97.6086 99.5644 97.7247 99.4463 97.8027 99.2922C97.8829 99.1382 97.9399 98.9536 97.9736 98.7384Z" fill="#EBEBEB"></path>
  <path d="M103.028 99.7068V100.204H100.588V99.7068H103.028ZM100.711 95.5958V100.204H100.101V95.5958H100.711ZM102.705 97.5769V98.0738H100.588V97.5769H102.705ZM102.996 95.5958V96.0958H100.588V95.5958H102.996Z" fill="#EBEBEB"></path>
  <path d="M106.927 99.0391C106.927 98.9315 106.91 98.8365 106.877 98.7542C106.845 98.6698 106.788 98.5939 106.706 98.5264C106.626 98.4588 106.514 98.3945 106.37 98.3333C106.229 98.2721 106.05 98.2099 105.832 98.1466C105.604 98.0791 105.399 98.0042 105.215 97.9219C105.032 97.8375 104.874 97.7415 104.744 97.6339C104.613 97.5263 104.513 97.4029 104.443 97.2636C104.373 97.1244 104.339 96.9651 104.339 96.7857C104.339 96.6064 104.375 96.4408 104.449 96.2889C104.523 96.1369 104.629 96.0051 104.766 95.8933C104.905 95.7793 105.071 95.6907 105.263 95.6274C105.455 95.5641 105.669 95.5325 105.905 95.5325C106.251 95.5325 106.544 95.5989 106.785 95.7319C107.028 95.8627 107.212 96.0346 107.339 96.2477C107.465 96.4587 107.529 96.6845 107.529 96.925H106.921C106.921 96.752 106.884 96.599 106.81 96.4661C106.736 96.3311 106.625 96.2256 106.475 96.1496C106.325 96.0715 106.135 96.0325 105.905 96.0325C105.688 96.0325 105.508 96.0652 105.367 96.1306C105.226 96.196 105.12 96.2846 105.051 96.3965C104.983 96.5083 104.949 96.6359 104.949 96.7794C104.949 96.8764 104.969 96.9651 105.009 97.0452C105.052 97.1233 105.116 97.1961 105.203 97.2636C105.291 97.3311 105.403 97.3934 105.538 97.4503C105.675 97.5073 105.839 97.5622 106.029 97.6149C106.29 97.6887 106.516 97.771 106.706 97.8618C106.896 97.9525 107.052 98.0548 107.174 98.1687C107.299 98.2806 107.39 98.4082 107.45 98.5517C107.511 98.693 107.541 98.8534 107.541 99.0327C107.541 99.2205 107.503 99.3903 107.427 99.5423C107.351 99.6942 107.243 99.8239 107.101 99.9315C106.96 100.039 106.79 100.122 106.592 100.182C106.396 100.239 106.176 100.267 105.934 100.267C105.721 100.267 105.511 100.237 105.304 100.178C105.099 100.119 104.912 100.031 104.744 99.9125C104.577 99.7944 104.443 99.6488 104.342 99.4758C104.243 99.3007 104.193 99.0981 104.193 98.8682H104.801C104.801 99.0264 104.831 99.1625 104.892 99.2764C104.954 99.3882 105.037 99.4811 105.142 99.5549C105.25 99.6288 105.371 99.6836 105.506 99.7195C105.643 99.7532 105.786 99.7701 105.934 99.7701C106.147 99.7701 106.327 99.7406 106.475 99.6815C106.622 99.6224 106.734 99.538 106.81 99.4283C106.888 99.3186 106.927 99.1889 106.927 99.0391Z" fill="#EBEBEB"></path>
  <path d="M64.9246 111.5V112H61.788V111.562L63.3579 109.814C63.551 109.599 63.7002 109.417 63.8056 109.268C63.9131 109.117 63.9877 108.982 64.0294 108.863C64.0733 108.743 64.0952 108.62 64.0952 108.495C64.0952 108.337 64.0623 108.194 63.9965 108.067C63.9328 107.937 63.8385 107.834 63.7134 107.757C63.5883 107.681 63.4369 107.642 63.2592 107.642C63.0464 107.642 62.8686 107.684 62.726 107.767C62.5856 107.848 62.4802 107.962 62.41 108.11C62.3398 108.257 62.3047 108.425 62.3047 108.616H61.6958C61.6958 108.346 61.755 108.1 61.8735 107.876C61.992 107.652 62.1676 107.474 62.4002 107.343C62.6327 107.209 62.9191 107.142 63.2592 107.142C63.562 107.142 63.8209 107.196 64.036 107.303C64.251 107.408 64.4156 107.558 64.5297 107.751C64.646 107.942 64.7041 108.165 64.7041 108.422C64.7041 108.563 64.68 108.705 64.6317 108.85C64.5856 108.993 64.5209 109.135 64.4375 109.278C64.3563 109.421 64.2609 109.561 64.1512 109.699C64.0437 109.837 63.9285 109.974 63.8056 110.107L62.5219 111.5H64.9246Z" fill="#EBEBEB"></path>
  <path d="M69.2717 109.222V109.953C69.2717 110.345 69.2366 110.677 69.1664 110.947C69.0962 111.217 68.9952 111.434 68.8636 111.598C68.7319 111.763 68.5728 111.883 68.3863 111.957C68.202 112.03 67.9935 112.066 67.7609 112.066C67.5766 112.066 67.4066 112.043 67.2508 111.997C67.095 111.951 66.9546 111.877 66.8295 111.776C66.7066 111.673 66.6013 111.539 66.5135 111.375C66.4257 111.21 66.3588 111.01 66.3127 110.776C66.2667 110.541 66.2436 110.266 66.2436 109.953V109.222C66.2436 108.829 66.2787 108.5 66.3489 108.235C66.4214 107.969 66.5234 107.756 66.655 107.596C66.7867 107.434 66.9447 107.317 67.129 107.247C67.3155 107.177 67.524 107.142 67.7544 107.142C67.9409 107.142 68.112 107.165 68.2678 107.211C68.4258 107.255 68.5662 107.326 68.6891 107.425C68.812 107.521 68.9162 107.651 69.0018 107.813C69.0896 107.973 69.1565 108.17 69.2026 108.402C69.2487 108.635 69.2717 108.908 69.2717 109.222ZM68.6595 110.051V109.12C68.6595 108.905 68.6463 108.716 68.62 108.554C68.5959 108.389 68.5597 108.249 68.5114 108.133C68.4631 108.016 68.4017 107.922 68.3271 107.849C68.2547 107.777 68.1702 107.724 68.0736 107.692C67.9793 107.656 67.8729 107.639 67.7544 107.639C67.6095 107.639 67.4812 107.666 67.3693 107.721C67.2574 107.774 67.163 107.858 67.0862 107.975C67.0116 108.091 66.9546 108.243 66.9151 108.432C66.8756 108.621 66.8558 108.85 66.8558 109.12V110.051C66.8558 110.266 66.8679 110.456 66.892 110.621C66.9184 110.785 66.9568 110.928 67.0072 111.049C67.0577 111.167 67.1191 111.265 67.1915 111.342C67.264 111.418 67.3473 111.475 67.4417 111.513C67.5382 111.548 67.6447 111.565 67.7609 111.565C67.9102 111.565 68.0407 111.537 68.1526 111.48C68.2645 111.423 68.3578 111.334 68.4324 111.213C68.5092 111.09 68.5662 110.934 68.6035 110.743C68.6408 110.55 68.6595 110.319 68.6595 110.051Z" fill="#EBEBEB"></path>
  <path d="M73.8821 111.5V112H70.7454V111.562L72.3154 109.814C72.5084 109.599 72.6577 109.417 72.763 109.268C72.8705 109.117 72.9451 108.982 72.9868 108.863C73.0307 108.743 73.0526 108.62 73.0526 108.495C73.0526 108.337 73.0197 108.194 72.9539 108.067C72.8902 107.937 72.7959 107.834 72.6708 107.757C72.5458 107.681 72.3943 107.642 72.2166 107.642C72.0038 107.642 71.826 107.684 71.6834 107.767C71.543 107.848 71.4377 107.962 71.3674 108.11C71.2972 108.257 71.2621 108.425 71.2621 108.616H70.6532C70.6532 108.346 70.7125 108.1 70.8309 107.876C70.9494 107.652 71.125 107.474 71.3576 107.343C71.5902 107.209 71.8765 107.142 72.2166 107.142C72.5194 107.142 72.7783 107.196 72.9934 107.303C73.2084 107.408 73.373 107.558 73.4871 107.751C73.6034 107.942 73.6615 108.165 73.6615 108.422C73.6615 108.563 73.6374 108.705 73.5891 108.85C73.543 108.993 73.4783 109.135 73.3949 109.278C73.3137 109.421 73.2183 109.561 73.1086 109.699C73.0011 109.837 72.8859 109.974 72.763 110.107L71.4793 111.5H73.8821Z" fill="#EBEBEB"></path>
  <path d="M76.1095 109.304H76.5439C76.7568 109.304 76.9323 109.269 77.0705 109.199C77.211 109.127 77.3152 109.029 77.3832 108.906C77.4534 108.781 77.4885 108.641 77.4885 108.485C77.4885 108.3 77.4578 108.146 77.3964 108.021C77.3349 107.896 77.2428 107.801 77.1199 107.738C76.997 107.674 76.8412 107.642 76.6525 107.642C76.4814 107.642 76.33 107.676 76.1983 107.744C76.0689 107.81 75.9668 107.904 75.8922 108.027C75.8198 108.15 75.7836 108.295 75.7836 108.462H75.1747C75.1747 108.218 75.2361 107.997 75.359 107.797C75.4819 107.597 75.6541 107.438 75.8758 107.32C76.0996 107.201 76.3585 107.142 76.6525 107.142C76.9422 107.142 77.1956 107.193 77.4128 107.297C77.6301 107.397 77.799 107.549 77.9197 107.751C78.0404 107.95 78.1007 108.199 78.1007 108.498C78.1007 108.619 78.0722 108.748 78.0152 108.886C77.9603 109.022 77.8736 109.15 77.7551 109.268C77.6388 109.387 77.4874 109.484 77.3009 109.561C77.1144 109.636 76.8906 109.673 76.6295 109.673H76.1095V109.304ZM76.1095 109.805V109.439H76.6295C76.9345 109.439 77.1868 109.475 77.3865 109.548C77.5862 109.62 77.7431 109.717 77.8572 109.837C77.9735 109.958 78.0547 110.091 78.1007 110.236C78.149 110.378 78.1731 110.521 78.1731 110.664C78.1731 110.887 78.1347 111.086 78.0579 111.259C77.9833 111.433 77.8769 111.58 77.7387 111.7C77.6026 111.821 77.4425 111.912 77.2581 111.974C77.0738 112.035 76.8731 112.066 76.6558 112.066C76.4474 112.066 76.251 112.036 76.0667 111.977C75.8845 111.918 75.7233 111.832 75.5828 111.72C75.4424 111.606 75.3327 111.467 75.2537 111.302C75.1747 111.135 75.1352 110.946 75.1352 110.733H75.7441C75.7441 110.9 75.7803 111.045 75.8527 111.17C75.9273 111.296 76.0327 111.393 76.1687 111.463C76.3069 111.531 76.4693 111.565 76.6558 111.565C76.8423 111.565 77.0025 111.534 77.1364 111.47C77.2724 111.404 77.3766 111.305 77.449 111.174C77.5236 111.042 77.561 110.876 77.561 110.677C77.561 110.477 77.5193 110.314 77.4359 110.186C77.3525 110.057 77.234 109.961 77.0804 109.9C76.929 109.836 76.7502 109.805 76.5439 109.805H76.1095Z" fill="#EBEBEB"></path>
  <path d="M65.5267 18.4114V23.2037H64.9013V18.4114H65.5267ZM67.0671 18.4114V18.9314H63.3643V18.4114H67.0671Z" fill="#EBEBEB"></path>
  <path d="M72.0236 20.6561V20.9589C72.0236 21.3188 71.9786 21.6413 71.8887 21.9266C71.7987 22.2119 71.6692 22.4543 71.5003 22.654C71.3313 22.8537 71.1284 23.0062 70.8914 23.1115C70.6566 23.2168 70.3933 23.2695 70.1015 23.2695C69.8184 23.2695 69.5584 23.2168 69.3214 23.1115C69.0866 23.0062 68.8825 22.8537 68.7092 22.654C68.538 22.4543 68.4053 22.2119 68.3109 21.9266C68.2166 21.6413 68.1694 21.3188 68.1694 20.9589V20.6561C68.1694 20.2963 68.2155 19.9748 68.3077 19.6918C68.402 19.4065 68.5348 19.164 68.7059 18.9644C68.8771 18.7625 69.08 18.6089 69.3148 18.5036C69.5518 18.3982 69.8118 18.3456 70.0949 18.3456C70.3867 18.3456 70.65 18.3982 70.8848 18.5036C71.1218 18.6089 71.3247 18.7625 71.4937 18.9644C71.6649 19.164 71.7954 19.4065 71.8854 19.6918C71.9775 19.9748 72.0236 20.2963 72.0236 20.6561ZM71.395 20.9589V20.6495C71.395 20.3643 71.3653 20.112 71.3061 19.8925C71.249 19.6731 71.1646 19.4888 71.0527 19.3396C70.9408 19.1904 70.8036 19.0774 70.6412 19.0006C70.4811 18.9238 70.2989 18.8854 70.0949 18.8854C69.8974 18.8854 69.7186 18.9238 69.5584 19.0006C69.4004 19.0774 69.2643 19.1904 69.1502 19.3396C69.0383 19.4888 68.9517 19.6731 68.8902 19.8925C68.8288 20.112 68.7981 20.3643 68.7981 20.6495V20.9589C68.7981 21.2464 68.8288 21.5009 68.8902 21.7225C68.9517 21.942 69.0394 22.1274 69.1535 22.2788C69.2698 22.428 69.407 22.541 69.565 22.6178C69.7251 22.6946 69.904 22.733 70.1015 22.733C70.3077 22.733 70.4909 22.6946 70.6511 22.6178C70.8113 22.541 70.9462 22.428 71.056 22.2788C71.1679 22.1274 71.2523 21.942 71.3094 21.7225C71.3664 21.5009 71.395 21.2464 71.395 20.9589Z" fill="#EBEBEB"></path>
  <path d="M75.3904 21.3243H74.1101V20.8075H75.3904C75.6384 20.8075 75.8392 20.768 75.9928 20.689C76.1464 20.61 76.2583 20.5003 76.3285 20.3599C76.4009 20.2195 76.4371 20.0593 76.4371 19.8794C76.4371 19.7148 76.4009 19.5601 76.3285 19.4153C76.2583 19.2705 76.1464 19.1542 75.9928 19.0664C75.8392 18.9764 75.6384 18.9314 75.3904 18.9314H74.2582V23.2037H73.623V18.4114H75.3904C75.7525 18.4114 76.0586 18.4739 76.3087 18.599C76.5589 18.7241 76.7487 18.8974 76.8781 19.1191C77.0076 19.3385 77.0723 19.5897 77.0723 19.8728C77.0723 20.18 77.0076 20.4422 76.8781 20.6594C76.7487 20.8767 76.5589 21.0423 76.3087 21.1564C76.0586 21.2683 75.7525 21.3243 75.3904 21.3243Z" fill="#EBEBEB"></path>
  <path d="M53.4766 33.6591C53.4766 33.5471 53.459 33.4484 53.4239 33.3628C53.391 33.2751 53.3317 33.1961 53.2462 33.1259C53.1628 33.0556 53.0465 32.9887 52.8973 32.9251C52.7503 32.8614 52.5638 32.7967 52.3377 32.7309C52.1008 32.6607 51.8868 32.5828 51.6959 32.4972C51.505 32.4094 51.3416 32.3096 51.2055 32.1977C51.0695 32.0858 50.9652 31.9574 50.8928 31.8126C50.8204 31.6678 50.7842 31.5021 50.7842 31.3156C50.7842 31.1291 50.8226 30.9568 50.8994 30.7988C50.9762 30.6409 51.0859 30.5037 51.2286 30.3874C51.3734 30.2689 51.5456 30.1768 51.7453 30.1109C51.945 30.0451 52.1677 30.0122 52.4134 30.0122C52.7733 30.0122 53.0783 30.0813 53.3285 30.2196C53.5808 30.3556 53.7728 30.5344 53.9044 30.7561C54.0361 30.9755 54.1019 31.2103 54.1019 31.4604H53.47C53.47 31.2805 53.4316 31.1214 53.3548 30.9832C53.278 30.8427 53.1617 30.733 53.0059 30.654C52.8501 30.5728 52.6526 30.5322 52.4134 30.5322C52.1874 30.5322 52.0009 30.5663 51.8539 30.6343C51.7069 30.7023 51.5972 30.7945 51.5248 30.9108C51.4546 31.027 51.4195 31.1598 51.4195 31.309C51.4195 31.4099 51.4403 31.5021 51.482 31.5855C51.5259 31.6667 51.5928 31.7424 51.6828 31.8126C51.7749 31.8828 51.8912 31.9475 52.0316 32.0068C52.1743 32.066 52.3443 32.1231 52.5418 32.1779C52.8139 32.2547 53.0487 32.3403 53.2462 32.4347C53.4436 32.529 53.606 32.6354 53.7333 32.7539C53.8628 32.8702 53.9582 33.003 54.0196 33.1522C54.0833 33.2992 54.1151 33.466 54.1151 33.6525C54.1151 33.8478 54.0756 34.0244 53.9966 34.1824C53.9176 34.3404 53.8046 34.4753 53.6576 34.5872C53.5106 34.6991 53.3339 34.7858 53.1277 34.8472C52.9236 34.9065 52.6954 34.9361 52.4431 34.9361C52.2215 34.9361 52.0031 34.9054 51.7881 34.8439C51.5752 34.7825 51.3811 34.6904 51.2055 34.5675C51.0322 34.4446 50.8928 34.2932 50.7875 34.1133C50.6844 33.9311 50.6328 33.7205 50.6328 33.4813H51.2648C51.2648 33.6459 51.2966 33.7874 51.3602 33.9059C51.4238 34.0222 51.5105 34.1187 51.6202 34.1955C51.7321 34.2723 51.8583 34.3294 51.9987 34.3667C52.1414 34.4018 52.2895 34.4194 52.4431 34.4194C52.6647 34.4194 52.8523 34.3886 53.0059 34.3272C53.1595 34.2658 53.2758 34.178 53.3548 34.0639C53.436 33.9498 53.4766 33.8148 53.4766 33.6591Z" fill="#EBEBEB"></path>
  <path d="M59.2626 32.3228V32.6256C59.2626 32.9854 59.2176 33.308 59.1276 33.5932C59.0376 33.8785 58.9082 34.1209 58.7392 34.3206C58.5703 34.5203 58.3673 34.6728 58.1303 34.7781C57.8955 34.8834 57.6322 34.9361 57.3404 34.9361C57.0573 34.9361 56.7973 34.8834 56.5603 34.7781C56.3255 34.6728 56.1215 34.5203 55.9481 34.3206C55.777 34.1209 55.6442 33.8785 55.5499 33.5932C55.4555 33.308 55.4083 32.9854 55.4083 32.6256V32.3228C55.4083 31.9629 55.4544 31.6414 55.5466 31.3584C55.6409 31.0731 55.7737 30.8307 55.9448 30.631C56.116 30.4291 56.319 30.2755 56.5537 30.1702C56.7907 30.0649 57.0507 30.0122 57.3338 30.0122C57.6256 30.0122 57.8889 30.0649 58.1237 30.1702C58.3607 30.2755 58.5637 30.4291 58.7326 30.631C58.9038 30.8307 59.0343 31.0731 59.1243 31.3584C59.2165 31.6414 59.2626 31.9629 59.2626 32.3228ZM58.6339 32.6256V32.3162C58.6339 32.0309 58.6043 31.7786 58.545 31.5592C58.488 31.3397 58.4035 31.1554 58.2916 31.0062C58.1797 30.857 58.0425 30.744 57.8802 30.6672C57.72 30.5904 57.5379 30.552 57.3338 30.552C57.1363 30.552 56.9575 30.5904 56.7973 30.6672C56.6393 30.744 56.5033 30.857 56.3892 31.0062C56.2773 31.1554 56.1906 31.3397 56.1292 31.5592C56.0677 31.7786 56.037 32.0309 56.037 32.3162V32.6256C56.037 32.913 56.0677 33.1675 56.1292 33.3892C56.1906 33.6086 56.2784 33.794 56.3925 33.9454C56.5088 34.0946 56.6459 34.2076 56.8039 34.2844C56.9641 34.3612 57.1429 34.3996 57.3404 34.3996C57.5466 34.3996 57.7299 34.3612 57.89 34.2844C58.0502 34.2076 58.1852 34.0946 58.2949 33.9454C58.4068 33.794 58.4913 33.6086 58.5483 33.3892C58.6054 33.1675 58.6339 32.913 58.6339 32.6256Z" fill="#EBEBEB"></path>
  <path d="M61.4971 30.078V34.8703H60.8619V30.078H61.4971ZM63.5049 32.2339V32.7539H61.3589V32.2339H63.5049ZM63.8307 30.078V30.5981H61.3589V30.078H63.8307Z" fill="#EBEBEB"></path>
  <path d="M67.0725 30.078V34.8703H66.4471V30.078H67.0725ZM68.6128 30.078V30.5981H64.91V30.078H68.6128Z" fill="#EBEBEB"></path>
  <path d="M71.2852 33.4221L72.2364 30.078H72.6972L72.4306 31.3781L71.407 34.8703H70.9495L71.2852 33.4221ZM70.3011 30.078L71.0581 33.3562L71.2852 34.8703H70.831L69.6691 30.078H70.3011ZM73.9282 33.353L74.6687 30.078H75.304L74.1454 34.8703H73.6912L73.9282 33.353ZM72.7663 30.078L73.6912 33.4221L74.0269 34.8703H73.5694L72.582 31.3781L72.3121 30.078H72.7663Z" fill="#EBEBEB"></path>
  <path d="M78.2857 30.5026L76.6993 34.8703H76.0509L77.8776 30.078H78.2956L78.2857 30.5026ZM79.6154 34.8703L78.0257 30.5026L78.0158 30.078H78.4338L80.2671 34.8703H79.6154ZM79.5331 33.0962V33.6163H76.8408V33.0962H79.5331Z" fill="#EBEBEB"></path>
  <path d="M81.5571 30.078H83.1435C83.5034 30.078 83.8073 30.1329 84.0552 30.2426C84.3054 30.3523 84.4952 30.5147 84.6246 30.7297C84.7563 30.9426 84.8221 31.2048 84.8221 31.5164C84.8221 31.7358 84.7771 31.9366 84.6872 32.1187C84.5994 32.2986 84.4721 32.4522 84.3054 32.5795C84.1408 32.7046 83.9433 32.7978 83.7129 32.8592L83.5352 32.9284H82.0442L82.0376 32.4116H83.1633C83.3915 32.4116 83.5813 32.3721 83.7327 32.2931C83.8841 32.2119 83.9982 32.1033 84.075 31.9673C84.1518 31.8312 84.1902 31.6809 84.1902 31.5164C84.1902 31.332 84.154 31.1708 84.0816 31.0325C84.0092 30.8943 83.895 30.7879 83.7393 30.7133C83.5857 30.6365 83.3871 30.5981 83.1435 30.5981H82.1923V34.8703H81.5571V30.078ZM84.358 34.8703L83.1929 32.698L83.8545 32.6947L85.0361 34.8308V34.8703H84.358Z" fill="#EBEBEB"></path>
  <path d="M89.4035 34.3535V34.8703H86.8658V34.3535H89.4035ZM86.9942 30.078V34.8703H86.3589V30.078H86.9942ZM89.0677 32.1384V32.6552H86.8658V32.1384H89.0677ZM89.3706 30.078V30.5981H86.8658V30.078H89.3706Z" fill="#EBEBEB"></path>
  <path d="M48.9877 46.537H47.9871L47.9937 46.0203H48.9877C49.33 46.0203 49.6153 45.949 49.8435 45.8063C50.0717 45.6615 50.2428 45.4597 50.3569 45.2007C50.4732 44.9396 50.5314 44.6346 50.5314 44.2857V43.9928C50.5314 43.7185 50.4985 43.4749 50.4326 43.2621C50.3668 43.0471 50.2703 42.866 50.143 42.719C50.0157 42.5698 49.8599 42.4568 49.6756 42.38C49.4935 42.3032 49.2839 42.2648 49.047 42.2648H47.9674V41.7448H49.047C49.3607 41.7448 49.6471 41.7974 49.906 41.9028C50.1649 42.0059 50.3877 42.1562 50.5742 42.3537C50.7629 42.549 50.9077 42.786 51.0086 43.0646C51.1096 43.3411 51.16 43.6527 51.16 43.9994V44.2857C51.16 44.6324 51.1096 44.9451 51.0086 45.2238C50.9077 45.5002 50.7618 45.7361 50.5709 45.9314C50.3822 46.1267 50.154 46.277 49.8863 46.3823C49.6208 46.4855 49.3212 46.537 48.9877 46.537ZM48.3262 41.7448V46.537H47.6909V41.7448H48.3262Z" fill="#EBEBEB"></path>
  <path d="M55.8072 46.0203V46.537H53.2695V46.0203H55.8072ZM53.3979 41.7448V46.537H52.7627V41.7448H53.3979ZM55.4715 43.8052V44.3219H53.2695V43.8052H55.4715ZM55.7743 41.7448V42.2648H53.2695V41.7448H55.7743Z" fill="#EBEBEB"></path>
  <path d="M58.7889 45.8096L60.2009 41.7448H60.8888L59.1148 46.537H58.6244L58.7889 45.8096ZM57.4691 41.7448L58.8679 45.8096L59.0424 46.537H58.552L56.7812 41.7448H57.4691Z" fill="#EBEBEB"></path>
  <path d="M65.2266 46.0203V46.537H62.689V46.0203H65.2266ZM62.8173 41.7448V46.537H62.1821V41.7448H62.8173ZM64.8909 43.8052V44.3219H62.689V43.8052H64.8909ZM65.1937 41.7448V42.2648H62.689V41.7448H65.1937Z" fill="#EBEBEB"></path>
  <path d="M69.5677 46.0203V46.537H67.1716V46.0203H69.5677ZM67.2966 41.7448V46.537H66.6614V41.7448H67.2966Z" fill="#EBEBEB"></path>
  <path d="M74.4156 43.9895V44.2923C74.4156 44.6522 74.3707 44.9747 74.2807 45.26C74.1907 45.5452 74.0613 45.7877 73.8923 45.9874C73.7233 46.187 73.5204 46.3395 73.2834 46.4449C73.0486 46.5502 72.7853 46.6029 72.4935 46.6029C72.2104 46.6029 71.9504 46.5502 71.7134 46.4449C71.4786 46.3395 71.2746 46.187 71.1012 45.9874C70.9301 45.7877 70.7973 45.5452 70.703 45.26C70.6086 44.9747 70.5614 44.6522 70.5614 44.2923V43.9895C70.5614 43.6296 70.6075 43.3082 70.6997 43.0251C70.794 42.7399 70.9268 42.4974 71.0979 42.2977C71.2691 42.0959 71.472 41.9423 71.7068 41.8369C71.9438 41.7316 72.2038 41.679 72.4869 41.679C72.7787 41.679 73.042 41.7316 73.2768 41.8369C73.5138 41.9423 73.7168 42.0959 73.8857 42.2977C74.0569 42.4974 74.1874 42.7399 74.2774 43.0251C74.3696 43.3082 74.4156 43.6296 74.4156 43.9895ZM73.787 44.2923V43.9829C73.787 43.6977 73.7574 43.4453 73.6981 43.2259C73.6411 43.0065 73.5566 42.8222 73.4447 42.673C73.3328 42.5237 73.1956 42.4107 73.0333 42.3339C72.8731 42.2571 72.691 42.2187 72.4869 42.2187C72.2894 42.2187 72.1106 42.2571 71.9504 42.3339C71.7924 42.4107 71.6564 42.5237 71.5423 42.673C71.4304 42.8222 71.3437 43.0065 71.2822 43.2259C71.2208 43.4453 71.1901 43.6977 71.1901 43.9829V44.2923C71.1901 44.5798 71.2208 44.8343 71.2822 45.0559C71.3437 45.2753 71.4315 45.4607 71.5456 45.6122C71.6618 45.7614 71.799 45.8744 71.957 45.9512C72.1172 46.028 72.296 46.0664 72.4935 46.0664C72.6997 46.0664 72.883 46.028 73.0431 45.9512C73.2033 45.8744 73.3383 45.7614 73.448 45.6122C73.5599 45.4607 73.6444 45.2753 73.7014 45.0559C73.7585 44.8343 73.787 44.5798 73.787 44.2923Z" fill="#EBEBEB"></path>
  <path d="M77.7825 44.6577H76.5021V44.1409H77.7825C78.0304 44.1409 78.2312 44.1014 78.3848 44.0224C78.5384 43.9434 78.6503 43.8337 78.7205 43.6933C78.7929 43.5528 78.8291 43.3927 78.8291 43.2127C78.8291 43.0482 78.7929 42.8935 78.7205 42.7487C78.6503 42.6038 78.5384 42.4875 78.3848 42.3998C78.2312 42.3098 78.0304 42.2648 77.7825 42.2648H76.6502V46.537H76.015V41.7448H77.7825C78.1445 41.7448 78.4506 41.8073 78.7008 41.9324C78.9509 42.0575 79.1407 42.2308 79.2702 42.4524C79.3996 42.6719 79.4644 42.9231 79.4644 43.2062C79.4644 43.5133 79.3996 43.7756 79.2702 43.9928C79.1407 44.21 78.9509 44.3757 78.7008 44.4898C78.4506 44.6017 78.1445 44.6577 77.7825 44.6577Z" fill="#EBEBEB"></path>
  <path d="M83.9601 46.0203V46.537H81.4225V46.0203H83.9601ZM81.5508 41.7448V46.537H80.9156V41.7448H81.5508ZM83.6244 43.8052V44.3219H81.4225V43.8052H83.6244ZM83.9272 41.7448V42.2648H81.4225V41.7448H83.9272Z" fill="#EBEBEB"></path>
  <path d="M85.3949 41.7448H86.9814C87.3412 41.7448 87.6451 41.7996 87.8931 41.9094C88.1432 42.0191 88.333 42.1814 88.4625 42.3965C88.5941 42.6093 88.66 42.8715 88.66 43.1831C88.66 43.4025 88.615 43.6033 88.525 43.7854C88.4372 43.9654 88.31 44.119 88.1432 44.2462C87.9786 44.3713 87.7812 44.4646 87.5508 44.526L87.373 44.5951H85.882L85.8755 44.0784H87.0011C87.2293 44.0784 87.4191 44.0389 87.5705 43.9599C87.7219 43.8787 87.836 43.7701 87.9128 43.634C87.9896 43.498 88.028 43.3477 88.028 43.1831C88.028 42.9988 87.9918 42.8375 87.9194 42.6993C87.847 42.561 87.7329 42.4546 87.5771 42.38C87.4235 42.3032 87.2249 42.2648 86.9814 42.2648H86.0301V46.537H85.3949V41.7448ZM88.1959 46.537L87.0307 44.3647L87.6923 44.3614L88.8739 46.4975V46.537H88.1959Z" fill="#EBEBEB"></path>
  <path d="M92.7509 45.3258C92.7509 45.2139 92.7333 45.1152 92.6982 45.0296C92.6653 44.9418 92.6061 44.8628 92.5205 44.7926C92.4371 44.7224 92.3208 44.6555 92.1716 44.5918C92.0246 44.5282 91.8381 44.4635 91.6121 44.3976C91.3751 44.3274 91.1611 44.2495 90.9703 44.1639C90.7794 44.0762 90.6159 43.9763 90.4798 43.8644C90.3438 43.7525 90.2396 43.6242 90.1672 43.4793C90.0947 43.3345 90.0585 43.1689 90.0585 42.9823C90.0585 42.7958 90.0969 42.6236 90.1737 42.4656C90.2505 42.3076 90.3602 42.1705 90.5029 42.0542C90.6477 41.9357 90.8199 41.8435 91.0196 41.7777C91.2193 41.7119 91.442 41.679 91.6878 41.679C92.0476 41.679 92.3526 41.7481 92.6028 41.8863C92.8551 42.0224 93.0471 42.2012 93.1788 42.4228C93.3104 42.6422 93.3762 42.877 93.3762 43.1272H92.7443C92.7443 42.9472 92.7059 42.7881 92.6291 42.6499C92.5523 42.5095 92.436 42.3998 92.2802 42.3208C92.1244 42.2396 91.9269 42.199 91.6878 42.199C91.4618 42.199 91.2753 42.233 91.1282 42.301C90.9812 42.369 90.8715 42.4612 90.7991 42.5775C90.7289 42.6938 90.6938 42.8265 90.6938 42.9758C90.6938 43.0767 90.7146 43.1689 90.7563 43.2522C90.8002 43.3334 90.8671 43.4091 90.9571 43.4793C91.0492 43.5496 91.1655 43.6143 91.306 43.6735C91.4486 43.7328 91.6187 43.7898 91.8161 43.8447C92.0882 43.9215 92.323 44.0071 92.5205 44.1014C92.718 44.1958 92.8803 44.3022 93.0076 44.4207C93.1371 44.537 93.2325 44.6697 93.294 44.8189C93.3576 44.9659 93.3894 45.1327 93.3894 45.3192C93.3894 45.5145 93.3499 45.6911 93.2709 45.8491C93.1919 46.0071 93.0789 46.1421 92.9319 46.254C92.7849 46.3659 92.6083 46.4525 92.402 46.514C92.1979 46.5732 91.9697 46.6029 91.7174 46.6029C91.4958 46.6029 91.2774 46.5721 91.0624 46.5107C90.8496 46.4493 90.6554 46.3571 90.4798 46.2342C90.3065 46.1113 90.1672 45.9599 90.0618 45.78C89.9587 45.5979 89.9071 45.3872 89.9071 45.1481H90.5391C90.5391 45.3126 90.5709 45.4542 90.6345 45.5727C90.6982 45.6889 90.7848 45.7855 90.8945 45.8623C91.0065 45.9391 91.1326 45.9961 91.2731 46.0334C91.4157 46.0686 91.5638 46.0861 91.7174 46.0861C91.939 46.0861 92.1266 46.0554 92.2802 45.994C92.4338 45.9325 92.5501 45.8447 92.6291 45.7306C92.7103 45.6165 92.7509 45.4816 92.7509 45.3258Z" fill="#EBEBEB"></path>
  <path fill-rule="evenodd" clip-rule="evenodd" d="M116.602 50.8148H23.6572V50.6852H116.602V50.8148Z" fill="#403F3F"></path>
  <path fill-rule="evenodd" clip-rule="evenodd" d="M116.602 89.1852H23.6572V89.0555H116.602V89.1852Z" fill="#403F3F"></path>
  <path d="M54.3799 61.5093H57.561V78.0215H54.3799V61.5093Z" fill="#EBEBEB"></path>
  <path d="M67.7758 73.0289C67.7758 75.6675 65.4891 75.9073 64.7269 75.9073C62.9484 75.9073 62.4351 74.3482 62.4351 73.5087V67.1715H60.0317V73.3887C60.0317 74.9479 60.5399 76.3871 61.5562 77.2266C62.4454 78.0662 63.3295 78.426 64.7269 78.426C65.7432 78.426 67.0136 78.1861 67.7758 77.4665V78.0371H70.568V67.1715H67.7758V73.0289Z" fill="#EBEBEB"></path>
  <path d="M76.2849 63.3627H73.363V67.1715H71.5923V69.2915H73.363V78.0371H76.2849V69.2915H78.4445V67.1715H76.2849V63.3627Z" fill="#EBEBEB"></path>
  <path d="M87.6215 75.0119C86.9882 75.4828 86.1017 75.836 85.2151 75.836C83.1887 75.836 81.7956 74.4233 81.7956 72.5397C81.7956 70.6561 83.1887 69.3611 85.2151 69.3611C86.1017 69.3611 86.9882 69.5966 87.6215 70.1852L88.0014 70.5384L90.0278 68.7725L89.5212 68.4193C88.3814 67.4775 86.8616 66.8889 85.2151 66.8889C81.6689 66.8889 79.0093 69.3611 79.0093 72.6574C79.0093 75.9537 81.6689 78.426 85.2151 78.426C86.8616 78.426 88.3814 77.8373 89.5212 76.8955L90.0278 76.5424L88.0014 74.6588L87.6215 75.0119Z" fill="#EBEBEB"></path>
  <path d="M100.425 68.2606C99.5353 67.4211 98.2571 67.0613 96.8597 67.0613C95.8434 67.0613 94.6975 67.3011 93.9353 68.0207V61.3953H91.1431V78.0371H93.9353V72.0694C93.9353 70.1297 95.9705 69.5799 96.7327 69.5799C98.5112 69.5799 98.7731 70.7502 98.7731 71.5897V77.9171H101.695V71.7096C101.695 70.1505 101.314 69.1002 100.425 68.2606Z" fill="#EBEBEB"></path>
  <path d="M85.1019 74.6667C86.2474 74.6667 87.176 73.7381 87.176 72.5926C87.176 71.4472 86.2474 70.5186 85.1019 70.5186C83.9564 70.5186 83.0278 71.4472 83.0278 72.5926C83.0278 73.7381 83.9564 74.6667 85.1019 74.6667Z" fill="#EBEBEB"></path>
  <path d="M50.9429 74.254C49.9325 75.2076 48.4168 75.8036 46.7748 75.8036C43.6172 75.8036 41.3437 73.4196 41.3437 70.2012C41.3437 66.9828 43.6172 64.5988 46.9011 64.5988C48.4168 64.5988 49.9325 65.1948 51.0692 66.2676L51.4481 66.6252L53.3427 64.8372L52.9638 64.4796C51.3218 62.9299 49.1746 62.0955 46.9011 62.0955C42.1015 61.9763 38.5649 65.5524 38.5649 70.2012C38.5649 74.85 42.1015 78.426 46.7748 78.426C49.0483 78.426 51.3218 77.5916 52.8375 76.042L53.2164 75.6844L51.3218 73.8964L50.9429 74.254Z" fill="#EBEBEB"></path>
</svg>
