<?xml version="1.0" encoding="UTF-8"?>
<svg xmlns="http://www.w3.org/2000/svg" width="140" height="140" viewBox="0 0 140 140" fill="none">
  <path d="M70.0648 0L134.88 35L134.88 105L70.0648 140L5.25 105L5.25015 35H5.25L70.0648 0Z" fill="#4E4E4E"></path>
  <path fill-rule="evenodd" clip-rule="evenodd" d="M5.25015 36.037L5.25 105L70.0648 140L134.88 105L134.88 35L70.0648 0L5.25015 34.9999L5.25 35M6.28719 35.6185L70.0648 1.17858L133.842 35.6186L133.843 104.381L70.0648 138.821L6.28704 104.381L6.28719 35.6185ZM5.25015 36.037V34.9999Z" fill="#403F3F"></path>
  <path d="M70.0649 4.40735L130.861 37.2036L130.861 102.796L70.0649 135.593L9.26855 102.796L9.2687 37.2036H9.26855L70.0649 4.40735Z" fill="#403F3F"></path>
  <path d="M9.26855 50.8148H130.861V89.1852H9.26855V50.8148Z" fill="#403F3F"></path>
  <path d="M125.157 39.9259L69.9351 9.85181L14.9723 39.9259L14.9722 54.25H125.157L125.157 39.9259Z" fill="#4E4E4E"></path>
  <path d="M69.9351 130.148L125.157 100.074L125.157 85.75H14.9722L14.9722 100.074L69.9351 130.148Z" fill="#4E4E4E"></path>
  <path fill-rule="evenodd" clip-rule="evenodd" d="M69.9354 10.0881L15.1797 40.0488L15.1797 54.0425H124.95L124.95 40.0491L69.9354 10.0881ZM125.157 39.9259L69.9351 9.85181L14.9723 39.9259L14.9722 54.25H125.157L125.157 39.9259ZM124.95 99.9508L124.95 85.9574H15.1796L15.1796 99.9511L69.9354 129.912L124.95 99.9508ZM69.9351 130.148L125.157 100.074L125.157 85.75H14.9722L14.9722 100.074L69.9351 130.148Z" fill="#403F3F"></path>
  <path d="M55.0262 97.2496H55.7918V101.177C55.7918 101.613 55.6948 101.976 55.5007 102.266C55.3067 102.556 55.0488 102.774 54.7271 102.92C54.4081 103.064 54.0612 103.135 53.6864 103.135C53.2929 103.135 52.9367 103.064 52.6177 102.92C52.3013 102.774 52.0501 102.556 51.864 102.266C51.6806 101.976 51.5889 101.613 51.5889 101.177V97.2496H52.3505V101.177C52.3505 101.481 52.4063 101.73 52.518 101.927C52.6296 102.124 52.7852 102.27 52.9845 102.366C53.1866 102.461 53.4205 102.509 53.6864 102.509C53.9549 102.509 54.1888 102.461 54.3882 102.366C54.5902 102.27 54.7471 102.124 54.8587 101.927C54.9704 101.73 55.0262 101.481 55.0262 101.177V97.2496Z" fill="#EBEBEB"></path>
  <path d="M58.5993 97.2496V103.056H57.8297V97.2496H58.5993ZM62.1045 97.2496L59.6919 99.9572L58.3361 101.365L58.2085 100.543L59.2294 99.4189L61.1793 97.2496H62.1045ZM61.3628 103.056L59.2134 100.224L59.672 99.6143L62.2799 103.056H61.3628Z" fill="#EBEBEB"></path>
  <path d="M63.7874 97.2496H65.7095C66.1455 97.2496 66.5136 97.3161 66.814 97.449C67.1171 97.5819 67.3471 97.7787 67.5039 98.0392C67.6634 98.2971 67.7432 98.6147 67.7432 98.9922C67.7432 99.2581 67.6887 99.5013 67.5797 99.722C67.4733 99.94 67.3191 100.126 67.1171 100.28C66.9177 100.432 66.6785 100.545 66.3993 100.619L66.184 100.703H64.3776L64.3696 100.077H65.7334C66.0099 100.077 66.2398 100.029 66.4233 99.9333C66.6067 99.8349 66.7449 99.7034 66.838 99.5385C66.931 99.3737 66.9775 99.1916 66.9775 98.9922C66.9775 98.7689 66.9337 98.5735 66.8459 98.406C66.7582 98.2386 66.62 98.1096 66.4312 98.0192C66.2451 97.9262 66.0046 97.8797 65.7095 97.8797H64.557V103.056H63.7874V97.2496ZM67.1809 103.056L65.7693 100.424L66.5708 100.42L68.0024 103.008V103.056H67.1809Z" fill="#EBEBEB"></path>
  <path d="M71.7988 97.764L69.8767 103.056H69.0912L71.3043 97.2496H71.8107L71.7988 97.764ZM73.4098 103.056L71.4838 97.764L71.4718 97.2496H71.9782L74.1993 103.056H73.4098ZM73.3101 100.906V101.536H70.0482V100.906H73.3101Z" fill="#EBEBEB"></path>
  <path d="M76.632 97.2496V103.056H75.8624V97.2496H76.632Z" fill="#EBEBEB"></path>
  <path d="M83.3274 97.2496V103.056H82.5538L79.6309 98.5775V103.056H78.8613V97.2496H79.6309L82.5658 101.74V97.2496H83.3274Z" fill="#EBEBEB"></path>
  <path d="M89.2094 102.43V103.056H86.1349V102.43H89.2094ZM86.2904 97.2496V103.056H85.5208V97.2496H86.2904ZM88.8026 99.7459V100.372H86.1349V99.7459H88.8026ZM89.1695 97.2496V97.8797H86.1349V97.2496H89.1695Z" fill="#EBEBEB"></path>
  <path d="M64.114 113.857V114.463H60.3138V113.933L62.2159 111.815C62.4498 111.555 62.6306 111.334 62.7582 111.153C62.8885 110.97 62.9789 110.806 63.0294 110.663C63.0825 110.517 63.1091 110.368 63.1091 110.216C63.1091 110.025 63.0693 109.852 62.9895 109.698C62.9124 109.541 62.7981 109.416 62.6466 109.323C62.495 109.23 62.3116 109.183 62.0963 109.183C61.8384 109.183 61.6231 109.234 61.4503 109.335C61.2801 109.433 61.1525 109.572 61.0675 109.75C60.9824 109.928 60.9399 110.132 60.9399 110.364H60.2021C60.2021 110.037 60.2739 109.738 60.4175 109.467C60.561 109.195 60.7737 108.98 61.0555 108.821C61.3373 108.658 61.6842 108.577 62.0963 108.577C62.4631 108.577 62.7768 108.642 63.0374 108.773C63.2979 108.9 63.4973 109.081 63.6355 109.315C63.7764 109.546 63.8468 109.817 63.8468 110.128C63.8468 110.299 63.8176 110.471 63.7591 110.647C63.7033 110.82 63.6249 110.992 63.5238 111.165C63.4255 111.338 63.3098 111.508 63.1769 111.676C63.0467 111.843 62.9071 112.008 62.7582 112.17L61.203 113.857H64.114Z" fill="#EBEBEB"></path>
  <path d="M69.3779 111.097V111.983C69.3779 112.459 69.3354 112.86 69.2503 113.187C69.1652 113.514 69.0429 113.777 68.8834 113.977C68.7239 114.176 68.5312 114.321 68.3052 114.411C68.0819 114.499 67.8294 114.543 67.5476 114.543C67.3243 114.543 67.1182 114.515 66.9295 114.459C66.7407 114.403 66.5706 114.314 66.4191 114.192C66.2702 114.067 66.1426 113.905 66.0363 113.705C65.9299 113.506 65.8488 113.264 65.793 112.98C65.7372 112.695 65.7093 112.363 65.7093 111.983V111.097C65.7093 110.622 65.7518 110.223 65.8369 109.901C65.9246 109.579 66.0482 109.322 66.2077 109.128C66.3672 108.931 66.5586 108.79 66.7819 108.705C67.0079 108.62 67.2605 108.577 67.5396 108.577C67.7656 108.577 67.9729 108.605 68.1617 108.661C68.3531 108.714 68.5232 108.801 68.6721 108.92C68.8209 109.037 68.9472 109.194 69.0509 109.391C69.1572 109.585 69.2383 109.823 69.2941 110.105C69.35 110.386 69.3779 110.717 69.3779 111.097ZM68.6362 112.102V110.974C68.6362 110.713 68.6202 110.485 68.5883 110.288C68.5591 110.089 68.5152 109.918 68.4567 109.778C68.3983 109.637 68.3238 109.522 68.2334 109.435C68.1457 109.347 68.0434 109.283 67.9264 109.243C67.8121 109.201 67.6831 109.179 67.5396 109.179C67.3641 109.179 67.2086 109.213 67.073 109.279C66.9375 109.343 66.8231 109.445 66.7301 109.586C66.6397 109.727 66.5706 109.912 66.5227 110.14C66.4749 110.369 66.451 110.647 66.451 110.974V112.102C66.451 112.363 66.4656 112.593 66.4948 112.792C66.5267 112.992 66.5733 113.164 66.6344 113.311C66.6955 113.454 66.77 113.572 66.8577 113.665C66.9454 113.759 67.0465 113.828 67.1608 113.873C67.2777 113.915 67.4067 113.937 67.5476 113.937C67.7283 113.937 67.8865 113.902 68.0221 113.833C68.1577 113.764 68.2707 113.656 68.361 113.51C68.4541 113.361 68.5232 113.171 68.5684 112.94C68.6136 112.706 68.6362 112.427 68.6362 112.102Z" fill="#EBEBEB"></path>
  <path d="M74.9608 113.857V114.463H71.1606V113.933L73.0627 111.815C73.2966 111.555 73.4774 111.334 73.605 111.153C73.7352 110.97 73.8256 110.806 73.8761 110.663C73.9293 110.517 73.9559 110.368 73.9559 110.216C73.9559 110.025 73.916 109.852 73.8363 109.698C73.7592 109.541 73.6449 109.416 73.4933 109.323C73.3418 109.23 73.1584 109.183 72.943 109.183C72.6852 109.183 72.4698 109.234 72.297 109.335C72.1269 109.433 71.9993 109.572 71.9142 109.75C71.8292 109.928 71.7866 110.132 71.7866 110.364H71.0489C71.0489 110.037 71.1207 109.738 71.2642 109.467C71.4078 109.195 71.6205 108.98 71.9023 108.821C72.1841 108.658 72.531 108.577 72.943 108.577C73.3099 108.577 73.6236 108.642 73.8841 108.773C74.1446 108.9 74.344 109.081 74.4823 109.315C74.6232 109.546 74.6936 109.817 74.6936 110.128C74.6936 110.299 74.6644 110.471 74.6059 110.647C74.55 110.82 74.4716 110.992 74.3706 111.165C74.2722 111.338 74.1566 111.508 74.0237 111.676C73.8934 111.843 73.7539 112.008 73.605 112.17L72.0498 113.857H74.9608Z" fill="#EBEBEB"></path>
  <path d="M77.6566 111.197H78.183C78.4408 111.197 78.6535 111.155 78.821 111.07C78.9911 110.982 79.1174 110.864 79.1998 110.715C79.2849 110.563 79.3274 110.393 79.3274 110.204C79.3274 109.981 79.2902 109.793 79.2158 109.642C79.1413 109.49 79.0297 109.376 78.8808 109.299C78.7319 109.222 78.5432 109.183 78.3146 109.183C78.1072 109.183 77.9238 109.225 77.7643 109.307C77.6074 109.387 77.4838 109.501 77.3934 109.65C77.3057 109.799 77.2618 109.974 77.2618 110.176H76.5241C76.5241 109.881 76.5986 109.613 76.7474 109.371C76.8963 109.129 77.105 108.936 77.3735 108.793C77.6447 108.649 77.9583 108.577 78.3146 108.577C78.6655 108.577 78.9725 108.64 79.2357 108.765C79.4989 108.887 79.7036 109.07 79.8498 109.315C79.996 109.557 80.0691 109.859 80.0691 110.22C80.0691 110.366 80.0346 110.523 79.9655 110.691C79.899 110.856 79.794 111.01 79.6504 111.153C79.5095 111.297 79.3261 111.415 79.1001 111.508C78.8742 111.599 78.603 111.644 78.2867 111.644H77.6566V111.197ZM77.6566 111.803V111.361H78.2867C78.6562 111.361 78.9619 111.405 79.2038 111.492C79.4457 111.58 79.6358 111.697 79.774 111.843C79.9149 111.989 80.0133 112.15 80.0691 112.326C80.1276 112.498 80.1569 112.671 80.1569 112.844C80.1569 113.115 80.1103 113.356 80.0173 113.566C79.9269 113.776 79.798 113.954 79.6305 114.1C79.4657 114.246 79.2716 114.357 79.0483 114.431C78.825 114.506 78.5817 114.543 78.3186 114.543C78.066 114.543 77.8281 114.507 77.6048 114.435C77.3841 114.363 77.1887 114.26 77.0186 114.124C76.8485 113.986 76.7155 113.817 76.6198 113.618C76.5241 113.416 76.4763 113.186 76.4763 112.928H77.214C77.214 113.13 77.2579 113.307 77.3456 113.458C77.436 113.61 77.5636 113.728 77.7284 113.813C77.8959 113.895 78.0926 113.937 78.3186 113.937C78.5445 113.937 78.7386 113.898 78.9008 113.821C79.0656 113.741 79.1919 113.622 79.2796 113.462C79.37 113.303 79.4152 113.102 79.4152 112.86C79.4152 112.618 79.3646 112.42 79.2636 112.266C79.1626 112.109 79.0191 111.993 78.833 111.919C78.6495 111.842 78.4329 111.803 78.183 111.803H77.6566Z" fill="#EBEBEB"></path>
  <path d="M64.8699 17.5274V23.3334H64.1122V17.5274H64.8699ZM66.7361 17.5274V18.1574H62.25V17.5274H66.7361Z" fill="#EBEBEB"></path>
  <path d="M72.7855 20.2469V20.6138C72.7855 21.0498 72.731 21.4406 72.622 21.7862C72.513 22.1318 72.3562 22.4255 72.1515 22.6674C71.9468 22.9094 71.7009 23.0941 71.4138 23.2217C71.1293 23.3493 70.8103 23.4131 70.4567 23.4131C70.1138 23.4131 69.7988 23.3493 69.5117 23.2217C69.2272 23.0941 68.98 22.9094 68.77 22.6674C68.5626 22.4255 68.4018 22.1318 68.2875 21.7862C68.1732 21.4406 68.116 21.0498 68.116 20.6138V20.2469C68.116 19.811 68.1718 19.4215 68.2835 19.0786C68.3978 18.733 68.5586 18.4392 68.766 18.1973C68.9733 17.9527 69.2193 17.7666 69.5037 17.639C69.7908 17.5114 70.1058 17.4476 70.4488 17.4476C70.8023 17.4476 71.1213 17.5114 71.4058 17.639C71.6929 17.7666 71.9388 17.9527 72.1435 18.1973C72.3509 18.4392 72.509 18.733 72.618 19.0786C72.7297 19.4215 72.7855 19.811 72.7855 20.2469ZM72.0239 20.6138V20.239C72.0239 19.8934 71.988 19.5877 71.9162 19.3218C71.8471 19.056 71.7447 18.8327 71.6092 18.6519C71.4736 18.4711 71.3074 18.3342 71.1107 18.2412C70.9167 18.1481 70.696 18.1016 70.4488 18.1016C70.2095 18.1016 69.9929 18.1481 69.7988 18.2412C69.6074 18.3342 69.4426 18.4711 69.3043 18.6519C69.1687 18.8327 69.0637 19.056 68.9893 19.3218C68.9149 19.5877 68.8776 19.8934 68.8776 20.239V20.6138C68.8776 20.9621 68.9149 21.2704 68.9893 21.5389C69.0637 21.8048 69.1701 22.0294 69.3083 22.2128C69.4492 22.3936 69.6154 22.5305 69.8068 22.6236C70.0008 22.7166 70.2175 22.7631 70.4567 22.7631C70.7066 22.7631 70.9286 22.7166 71.1227 22.6236C71.3167 22.5305 71.4802 22.3936 71.6132 22.2128C71.7487 22.0294 71.8511 21.8048 71.9202 21.5389C71.9893 21.2704 72.0239 20.9621 72.0239 20.6138Z" fill="#EBEBEB"></path>
  <path d="M76.9089 21.0564H75.3577V20.4304H76.9089C77.2093 20.4304 77.4526 20.3825 77.6387 20.2868C77.8248 20.1911 77.9603 20.0582 78.0454 19.8881C78.1331 19.7179 78.177 19.5239 78.177 19.3059C78.177 19.1065 78.1331 18.9191 78.0454 18.7436C77.9603 18.5682 77.8248 18.4273 77.6387 18.3209C77.4526 18.2119 77.2093 18.1574 76.9089 18.1574H75.5372V23.3334H74.7676V17.5274H76.9089C77.3476 17.5274 77.7184 17.6031 78.0215 17.7547C78.3245 17.9062 78.5545 18.1162 78.7113 18.3847C78.8682 18.6506 78.9466 18.955 78.9466 19.2979C78.9466 19.6701 78.8682 19.9878 78.7113 20.2509C78.5545 20.5141 78.3245 20.7148 78.0215 20.8531C77.7184 20.9886 77.3476 21.0564 76.9089 21.0564Z" fill="#EBEBEB"></path>
  <path d="M45.9131 29.2487V34.8704H45.168V29.2487H45.9131Z" fill="#EBEBEB"></path>
  <path d="M50.0594 29.2487V34.8704H49.3258V29.2487H50.0594ZM51.8664 29.2487V29.8588H47.5227V29.2487H51.8664Z" fill="#EBEBEB"></path>
  <path d="M59.1628 33.4495C59.1628 33.3183 59.1422 33.2024 59.101 33.102C59.0624 32.9991 58.9929 32.9064 58.8925 32.8241C58.7947 32.7417 58.6582 32.6632 58.4832 32.5885C58.3107 32.5139 58.092 32.4379 57.8268 32.3607C57.5488 32.2784 57.2979 32.187 57.0739 32.0866C56.85 31.9836 56.6582 31.8665 56.4986 31.7352C56.339 31.604 56.2168 31.4534 56.1318 31.2835C56.0469 31.1136 56.0044 30.9193 56.0044 30.7005C56.0044 30.4817 56.0495 30.2796 56.1396 30.0943C56.2297 29.909 56.3584 29.7481 56.5257 29.6117C56.6955 29.4727 56.8976 29.3646 57.1318 29.2873C57.3661 29.2101 57.6273 29.1715 57.9156 29.1715C58.3378 29.1715 58.6956 29.2526 58.989 29.4148C59.285 29.5743 59.5102 29.7841 59.6647 30.0441C59.8191 30.3015 59.8963 30.5769 59.8963 30.8704H59.155C59.155 30.6593 59.11 30.4727 59.0199 30.3105C58.9298 30.1458 58.7934 30.0171 58.6106 29.9244C58.4279 29.8292 58.1962 29.7816 57.9156 29.7816C57.6505 29.7816 57.4317 29.8215 57.2593 29.9012C57.0868 29.981 56.9581 30.0891 56.8732 30.2256C56.7908 30.362 56.7496 30.5177 56.7496 30.6928C56.7496 30.8112 56.7741 30.9193 56.823 31.0171C56.8744 31.1123 56.953 31.2011 57.0585 31.2835C57.1666 31.3659 57.303 31.4418 57.4678 31.5113C57.6351 31.5808 57.8346 31.6477 58.0662 31.7121C58.3854 31.8022 58.6608 31.9026 58.8925 32.0132C59.1241 32.1239 59.3146 32.2488 59.4639 32.3878C59.6158 32.5242 59.7278 32.6799 59.7998 32.8549C59.8745 33.0274 59.9118 33.223 59.9118 33.4418C59.9118 33.6709 59.8655 33.8781 59.7728 34.0634C59.6801 34.2488 59.5476 34.4071 59.3751 34.5384C59.2026 34.6696 58.9954 34.7713 58.7535 34.8434C58.5141 34.9129 58.2464 34.9476 57.9504 34.9476C57.6904 34.9476 57.4343 34.9116 57.182 34.8395C56.9324 34.7674 56.7046 34.6593 56.4986 34.5152C56.2953 34.371 56.1318 34.1934 56.0083 33.9824C55.8873 33.7687 55.8268 33.5216 55.8268 33.241H56.5681C56.5681 33.4341 56.6055 33.6001 56.6801 33.7391C56.7548 33.8755 56.8564 33.9888 56.9851 34.0789C57.1164 34.169 57.2644 34.2359 57.4291 34.2797C57.5965 34.3208 57.7702 34.3414 57.9504 34.3414C58.2104 34.3414 58.4304 34.3054 58.6106 34.2333C58.7908 34.1613 58.9272 34.0583 59.0199 33.9244C59.1151 33.7906 59.1628 33.6323 59.1628 33.4495Z" fill="#EBEBEB"></path>
  <path d="M65.2627 34.2642V34.8704H62.2858V34.2642H65.2627ZM62.4364 29.2487V34.8704H61.6912V29.2487H62.4364ZM64.8689 31.6657V32.2719H62.2858V31.6657H64.8689ZM65.2241 29.2487V29.8588H62.2858V29.2487H65.2241Z" fill="#EBEBEB"></path>
  <path d="M67.0151 29.2487H68.8761C69.2983 29.2487 69.6548 29.3131 69.9456 29.4418C70.2391 29.5705 70.4617 29.761 70.6136 30.0132C70.768 30.2629 70.8453 30.5705 70.8453 30.936C70.8453 31.1934 70.7925 31.4289 70.687 31.6426C70.584 31.8536 70.4347 32.0338 70.2391 32.1831C70.046 32.3298 69.8144 32.4392 69.5441 32.5113L69.3356 32.5924H67.5866L67.5788 31.9862H68.8993C69.167 31.9862 69.3897 31.9399 69.5673 31.8472C69.7449 31.752 69.8787 31.6246 69.9688 31.465C70.0589 31.3054 70.1039 31.1291 70.1039 30.936C70.1039 30.7198 70.0615 30.5306 69.9765 30.3684C69.8916 30.2063 69.7577 30.0814 69.575 29.9939C69.3948 29.9038 69.1619 29.8588 68.8761 29.8588H67.7603V34.8704H67.0151V29.2487ZM70.3009 34.8704L68.9341 32.3221L69.7101 32.3183L71.0962 34.8241V34.8704H70.3009Z" fill="#EBEBEB"></path>
  <path d="M74.4548 34.0171L76.1112 29.2487H76.9182L74.8371 34.8704H74.2618L74.4548 34.0171ZM72.9066 29.2487L74.5475 34.0171L74.7521 34.8704H74.1769L72.0996 29.2487H72.9066Z" fill="#EBEBEB"></path>
  <path d="M79.3038 29.2487V34.8704H78.5586V29.2487H79.3038Z" fill="#EBEBEB"></path>
  <path d="M84.8825 33.0827H85.6238C85.5852 33.438 85.4836 33.7558 85.3188 34.0364C85.1541 34.317 84.9211 34.5396 84.62 34.7044C84.3188 34.8665 83.943 34.9476 83.4926 34.9476C83.1631 34.9476 82.8632 34.8858 82.5929 34.7623C82.3252 34.6387 82.0949 34.4637 81.9018 34.2372C81.7088 34.0081 81.5595 33.734 81.4539 33.4148C81.351 33.093 81.2995 32.7352 81.2995 32.3414V31.7816C81.2995 31.3877 81.351 31.0312 81.4539 30.7121C81.5595 30.3903 81.71 30.1149 81.9057 29.8858C82.1039 29.6567 82.342 29.4804 82.62 29.3568C82.898 29.2333 83.2107 29.1715 83.5582 29.1715C83.9829 29.1715 84.342 29.2513 84.6354 29.4109C84.9289 29.5705 85.1567 29.7918 85.3188 30.075C85.4836 30.3556 85.5852 30.6812 85.6238 31.0518H84.8825C84.8465 30.7893 84.7796 30.5641 84.6818 30.3762C84.5839 30.1857 84.4449 30.039 84.2648 29.936C84.0846 29.833 83.8491 29.7816 83.5582 29.7816C83.3085 29.7816 83.0884 29.8292 82.898 29.9244C82.71 30.0197 82.5517 30.1548 82.423 30.3298C82.2969 30.5049 82.2017 30.7146 82.1373 30.9592C82.073 31.2037 82.0408 31.4753 82.0408 31.7738V32.3414C82.0408 32.6168 82.0691 32.8755 82.1257 33.1175C82.1849 33.3594 82.2738 33.5718 82.3922 33.7546C82.5106 33.9373 82.6611 34.0815 82.8439 34.187C83.0267 34.29 83.2429 34.3414 83.4926 34.3414C83.8092 34.3414 84.0614 34.2912 84.2493 34.1909C84.4372 34.0905 84.5788 33.9463 84.674 33.7584C84.7718 33.5705 84.8413 33.3453 84.8825 33.0827Z" fill="#EBEBEB"></path>
  <path d="M91.0404 34.2642V34.8704H88.0635V34.2642H91.0404ZM88.2141 29.2487V34.8704H87.4689V29.2487H88.2141ZM90.6466 31.6657V32.2719H88.0635V31.6657H90.6466ZM91.0018 29.2487V29.8588H88.0635V29.2487H91.0018Z" fill="#EBEBEB"></path>
  <path d="M95.789 33.4495C95.789 33.3183 95.7684 33.2024 95.7272 33.102C95.6886 32.9991 95.6191 32.9064 95.5187 32.8241C95.4209 32.7417 95.2845 32.6632 95.1094 32.5885C94.937 32.5139 94.7182 32.4379 94.4531 32.3607C94.1751 32.2784 93.9241 32.187 93.7001 32.0866C93.4762 31.9836 93.2844 31.8665 93.1249 31.7352C92.9653 31.604 92.843 31.4534 92.7581 31.2835C92.6731 31.1136 92.6306 30.9193 92.6306 30.7005C92.6306 30.4817 92.6757 30.2796 92.7658 30.0943C92.8559 29.909 92.9846 29.7481 93.1519 29.6117C93.3218 29.4727 93.5238 29.3646 93.7581 29.2873C93.9923 29.2101 94.2536 29.1715 94.5419 29.1715C94.964 29.1715 95.3218 29.2526 95.6152 29.4148C95.9112 29.5743 96.1365 29.7841 96.2909 30.0441C96.4453 30.3015 96.5226 30.5769 96.5226 30.8704H95.7812C95.7812 30.6593 95.7362 30.4727 95.6461 30.3105C95.556 30.1458 95.4196 30.0171 95.2368 29.9244C95.0541 29.8292 94.8224 29.7816 94.5419 29.7816C94.2767 29.7816 94.0579 29.8215 93.8855 29.9012C93.713 29.981 93.5843 30.0891 93.4994 30.2256C93.417 30.362 93.3758 30.5177 93.3758 30.6928C93.3758 30.8112 93.4003 30.9193 93.4492 31.0171C93.5007 31.1123 93.5792 31.2011 93.6847 31.2835C93.7928 31.3659 93.9292 31.4418 94.094 31.5113C94.2613 31.5808 94.4608 31.6477 94.6924 31.7121C95.0116 31.8022 95.287 31.9026 95.5187 32.0132C95.7504 32.1239 95.9408 32.2488 96.0901 32.3878C96.242 32.5242 96.354 32.6799 96.426 32.8549C96.5007 33.0274 96.538 33.223 96.538 33.4418C96.538 33.6709 96.4917 33.8781 96.399 34.0634C96.3064 34.2488 96.1738 34.4071 96.0013 34.5384C95.8289 34.6696 95.6217 34.7713 95.3797 34.8434C95.1403 34.9129 94.8726 34.9476 94.5766 34.9476C94.3166 34.9476 94.0605 34.9116 93.8083 34.8395C93.5586 34.7674 93.3308 34.6593 93.1249 34.5152C92.9215 34.371 92.7581 34.1934 92.6345 33.9824C92.5135 33.7687 92.453 33.5216 92.453 33.241H93.1944C93.1944 33.4341 93.2317 33.6001 93.3063 33.7391C93.381 33.8755 93.4826 33.9888 93.6113 34.0789C93.7426 34.169 93.8906 34.2359 94.0554 34.2797C94.2227 34.3208 94.3964 34.3414 94.5766 34.3414C94.8366 34.3414 95.0567 34.3054 95.2368 34.2333C95.417 34.1613 95.5534 34.0583 95.6461 33.9244C95.7414 33.7906 95.789 33.6323 95.789 33.4495Z" fill="#EBEBEB"></path>
  <path d="M53.5069 44.879H54.2482C54.2096 45.2342 54.1079 45.5521 53.9432 45.8327C53.7784 46.1133 53.5455 46.3359 53.2443 46.5006C52.9432 46.6628 52.5674 46.7439 52.1169 46.7439C51.7874 46.7439 51.4875 46.6821 51.2173 46.5586C50.9496 46.435 50.7192 46.26 50.5262 46.0335C50.3331 45.8044 50.1838 45.5302 50.0783 45.2111C49.9753 44.8893 49.9238 44.5315 49.9238 44.1377V43.5778C49.9238 43.184 49.9753 42.8275 50.0783 42.5083C50.1838 42.1866 50.3344 41.9112 50.53 41.6821C50.7282 41.453 50.9663 41.2767 51.2443 41.1531C51.5223 41.0296 51.835 40.9678 52.1825 40.9678C52.6073 40.9678 52.9663 41.0476 53.2598 41.2072C53.5532 41.3667 53.781 41.5881 53.9432 41.8713C54.1079 42.1518 54.2096 42.4774 54.2482 42.8481H53.5069C53.4708 42.5855 53.4039 42.3603 53.3061 42.1724C53.2083 41.9819 53.0693 41.8352 52.8891 41.7323C52.7089 41.6293 52.4734 41.5778 52.1825 41.5778C51.9329 41.5778 51.7128 41.6254 51.5223 41.7207C51.3344 41.8159 51.1761 41.9511 51.0474 42.1261C50.9213 42.3011 50.826 42.5109 50.7617 42.7554C50.6973 43 50.6651 43.2715 50.6651 43.5701V44.1377C50.6651 44.4131 50.6935 44.6718 50.7501 44.9138C50.8093 45.1557 50.8981 45.3681 51.0165 45.5508C51.1349 45.7336 51.2855 45.8777 51.4682 45.9833C51.651 46.0862 51.8672 46.1377 52.1169 46.1377C52.4335 46.1377 52.6858 46.0875 52.8737 45.9871C53.0616 45.8867 53.2031 45.7426 53.2984 45.5547C53.3962 45.3668 53.4657 45.1416 53.5069 44.879Z" fill="#EBEBEB"></path>
  <path d="M60.4215 43.6782V44.0334C60.4215 44.4556 60.3687 44.834 60.2632 45.1686C60.1577 45.5032 60.0058 45.7876 59.8076 46.0219C59.6094 46.2561 59.3713 46.435 59.0933 46.5586C58.8179 46.6821 58.509 46.7439 58.1667 46.7439C57.8346 46.7439 57.5296 46.6821 57.2516 46.5586C56.9762 46.435 56.7368 46.2561 56.5334 46.0219C56.3327 45.7876 56.1769 45.5032 56.0662 45.1686C55.9556 44.834 55.9002 44.4556 55.9002 44.0334V43.6782C55.9002 43.2561 55.9543 42.879 56.0624 42.5469C56.1731 42.2123 56.3288 41.9279 56.5296 41.6936C56.7303 41.4568 56.9684 41.2767 57.2439 41.1531C57.5219 41.0296 57.8269 40.9678 58.1589 40.9678C58.5013 40.9678 58.8102 41.0296 59.0856 41.1531C59.3636 41.2767 59.6017 41.4568 59.7999 41.6936C60.0006 41.9279 60.1538 42.2123 60.2593 42.5469C60.3674 42.879 60.4215 43.2561 60.4215 43.6782ZM59.684 44.0334V43.6705C59.684 43.3359 59.6493 43.0399 59.5798 42.7825C59.5129 42.5251 59.4138 42.3088 59.2825 42.1338C59.1512 41.9588 58.9903 41.8262 58.7999 41.7361C58.612 41.646 58.3983 41.601 58.1589 41.601C57.9273 41.601 57.7175 41.646 57.5296 41.7361C57.3443 41.8262 57.1847 41.9588 57.0508 42.1338C56.9195 42.3088 56.8179 42.5251 56.7458 42.7825C56.6737 43.0399 56.6377 43.3359 56.6377 43.6705V44.0334C56.6377 44.3706 56.6737 44.6692 56.7458 44.9292C56.8179 45.1866 56.9208 45.4041 57.0547 45.5817C57.1911 45.7567 57.352 45.8893 57.5373 45.9794C57.7252 46.0695 57.935 46.1145 58.1667 46.1145C58.4086 46.1145 58.6235 46.0695 58.8114 45.9794C58.9993 45.8893 59.1577 45.7567 59.2864 45.5817C59.4176 45.4041 59.5167 45.1866 59.5837 44.9292C59.6506 44.6692 59.684 44.3706 59.684 44.0334Z" fill="#EBEBEB"></path>
  <path d="M62.6025 41.045H63.3245L65.1662 45.628L67.0041 41.045H67.73L65.4442 46.6667H64.8805L62.6025 41.045ZM62.367 41.045H63.004L63.1083 44.4736V46.6667H62.367V41.045ZM67.3245 41.045H67.9616V46.6667H67.2203V44.4736L67.3245 41.045Z" fill="#EBEBEB"></path>
  <path d="M72.1735 44.462H70.6716V43.8558H72.1735C72.4644 43.8558 72.6999 43.8095 72.8801 43.7168C73.0603 43.6242 73.1915 43.4955 73.2739 43.3307C73.3589 43.166 73.4013 42.9781 73.4013 42.767C73.4013 42.574 73.3589 42.3925 73.2739 42.2226C73.1915 42.0527 73.0603 41.9163 72.8801 41.8133C72.6999 41.7078 72.4644 41.655 72.1735 41.655H70.8453V46.6667H70.1001V41.045H72.1735C72.5982 41.045 72.9573 41.1184 73.2507 41.2651C73.5442 41.4118 73.7668 41.6151 73.9187 41.8751C74.0706 42.1325 74.1465 42.4272 74.1465 42.7593C74.1465 43.1197 74.0706 43.4273 73.9187 43.6821C73.7668 43.9369 73.5442 44.1313 73.2507 44.2651C72.9573 44.3964 72.5982 44.462 72.1735 44.462Z" fill="#EBEBEB"></path>
  <path d="M77.4665 41.5431L75.6055 46.6667H74.8449L76.9877 41.045H77.4781L77.4665 41.5431ZM79.0264 46.6667L77.1615 41.5431L77.1499 41.045H77.6403L79.7908 46.6667H79.0264ZM78.9298 44.5856V45.1956H75.7715V44.5856H78.9298Z" fill="#EBEBEB"></path>
  <path d="M85.6977 41.045V46.6667H84.9487L82.1186 42.3307V46.6667H81.3734V41.045H82.1186L84.9603 45.3925V41.045H85.6977Z" fill="#EBEBEB"></path>
  <path d="M87.9984 41.045L89.4579 43.8674L90.9212 41.045H91.7668L89.8286 44.5663V46.6667H89.0834V44.5663L87.1451 41.045H87.9984Z" fill="#EBEBEB"></path>
  <path fill-rule="evenodd" clip-rule="evenodd" d="M116.602 50.8148H23.6572V50.6852H116.602V50.8148Z" fill="#403F3F"></path>
  <path fill-rule="evenodd" clip-rule="evenodd" d="M116.602 89.1852H23.6572V89.0555H116.602V89.1852Z" fill="#403F3F"></path>
  <path d="M54.3799 61.5093H57.561V78.0215H54.3799V61.5093Z" fill="#EBEBEB"></path>
  <path d="M67.7758 73.0289C67.7758 75.6675 65.4891 75.9073 64.7269 75.9073C62.9484 75.9073 62.4351 74.3482 62.4351 73.5086V67.1715H60.0317V73.3887C60.0317 74.9479 60.5399 76.3871 61.5562 77.2266C62.4454 78.0662 63.3295 78.426 64.7269 78.426C65.7432 78.426 67.0136 78.1861 67.7758 77.4665V78.0371H70.568V67.1715H67.7758V73.0289Z" fill="#EBEBEB"></path>
  <path d="M76.2849 63.3627H73.363V67.1715H71.5923V69.2915H73.363V78.0371H76.2849V69.2915H78.4445V67.1715H76.2849V63.3627Z" fill="#EBEBEB"></path>
  <path d="M87.3622 74.623C86.7289 75.0939 85.8424 75.4471 84.9558 75.4471C82.9294 75.4471 81.5363 74.0344 81.5363 72.1508C81.5363 70.2672 82.9294 68.9722 84.9558 68.9722C85.8424 68.9722 86.7289 69.2077 87.3622 69.7963L87.7421 70.1495L89.7685 68.3836L89.2619 68.0304C88.1221 67.0886 86.6023 66.5 84.9558 66.5C81.4096 66.5 78.75 68.9722 78.75 72.2685C78.75 75.5648 81.4096 78.037 84.9558 78.037C86.6023 78.037 88.1221 77.4484 89.2619 76.5066L89.7685 76.1534L87.7421 74.2698L87.3622 74.623Z" fill="#EBEBEB"></path>
  <path d="M100.425 68.2606C99.5353 67.4211 98.2571 67.0613 96.8597 67.0613C95.8434 67.0613 94.6975 67.3011 93.9353 68.0207V61.3953H91.1431V78.0371H93.9353V72.0694C93.9353 70.1297 95.9705 69.5799 96.7327 69.5799C98.5112 69.5799 98.7731 70.7502 98.7731 71.5897V77.9171H101.695V71.7096C101.695 70.1505 101.314 69.1002 100.425 68.2606Z" fill="#EBEBEB"></path>
  <path d="M85.1019 74.6667C86.2474 74.6667 87.176 73.7381 87.176 72.5926C87.176 71.4472 86.2474 70.5186 85.1019 70.5186C83.9564 70.5186 83.0278 71.4472 83.0278 72.5926C83.0278 73.7381 83.9564 74.6667 85.1019 74.6667Z" fill="#EBEBEB"></path>
  <path d="M50.9429 74.254C49.9325 75.2076 48.4168 75.8036 46.7748 75.8036C43.6172 75.8036 41.3437 73.4196 41.3437 70.2012C41.3437 66.9828 43.6172 64.5988 46.9011 64.5988C48.4168 64.5988 49.9325 65.1948 51.0692 66.2676L51.4481 66.6252L53.3427 64.8372L52.9638 64.4796C51.3218 62.9299 49.1746 62.0955 46.9011 62.0955C42.1015 61.9763 38.5649 65.5524 38.5649 70.2012C38.5649 74.85 42.1015 78.426 46.7748 78.426C49.0483 78.426 51.3218 77.5916 52.8375 76.042L53.2164 75.6844L51.3218 73.8964L50.9429 74.254Z" fill="#EBEBEB"></path>
</svg>
