<?xml version="1.0" encoding="UTF-8"?>
<svg xmlns="http://www.w3.org/2000/svg" width="140" height="140" viewBox="0 0 140 140" fill="none">
  <path d="M70.0648 0L134.88 35L134.88 105L70.0648 140L5.25 105L5.25015 35H5.25L70.0648 0Z" fill="#4E4E4E"></path>
  <path fill-rule="evenodd" clip-rule="evenodd" d="M5.25015 36.037L5.25 105L70.0648 140L134.88 105L134.88 35L70.0648 0L5.25015 34.9999L5.25 35M6.28719 35.6185L70.0648 1.17858L133.842 35.6186L133.843 104.381L70.0648 138.821L6.28704 104.381L6.28719 35.6185ZM5.25015 36.037V34.9999Z" fill="#403F3F"></path>
  <path d="M70.0649 4.40735L130.861 37.2036L130.861 102.796L70.0649 135.593L9.26855 102.796L9.2687 37.2036H9.26855L70.0649 4.40735Z" fill="#403F3F"></path>
  <path d="M9.26855 50.8148H130.861V89.1852H9.26855V50.8148Z" fill="#403F3F"></path>
  <path d="M125.585 40.0741L70.3633 10L15.4005 40.0741L15.4005 54.3981H125.586L125.585 40.0741Z" fill="#4E4E4E"></path>
  <path d="M70.3633 130.296L125.586 100.222L125.586 85.8981H15.4004L15.4004 100.222L70.3633 130.296Z" fill="#4E4E4E"></path>
  <path fill-rule="evenodd" clip-rule="evenodd" d="M69.9354 10.0881L15.1797 40.0488L15.1797 54.0425H124.95L124.95 40.0491L69.9354 10.0881ZM125.157 39.9259L69.9351 9.85181L14.9723 39.9259L14.9722 54.25H125.157L125.157 39.9259ZM124.95 99.9508L124.95 85.9574H15.1796L15.1796 99.9511L69.9354 129.912L124.95 99.9508ZM69.9351 130.148L125.157 100.074L125.157 85.75H14.9722L14.9722 100.074L69.9351 130.148Z" fill="#403F3F"></path>
  <path d="M63.8547 102.449V103.056H60.0545V102.525L61.9566 100.408C62.1906 100.147 62.3713 99.9266 62.4989 99.7458C62.6292 99.5624 62.7196 99.3989 62.7701 99.2553C62.8233 99.1091 62.8499 98.9602 62.8499 98.8087C62.8499 98.6173 62.81 98.4445 62.7302 98.2903C62.6531 98.1335 62.5388 98.0085 62.3873 97.9155C62.2358 97.8224 62.0523 97.7759 61.837 97.7759C61.5791 97.7759 61.3638 97.8264 61.191 97.9274C61.0209 98.0258 60.8933 98.164 60.8082 98.3422C60.7231 98.5203 60.6806 98.725 60.6806 98.9563H59.9429C59.9429 98.6293 60.0146 98.3302 60.1582 98.059C60.3018 97.7879 60.5144 97.5726 60.7962 97.413C61.078 97.2509 61.4249 97.1698 61.837 97.1698C62.2039 97.1698 62.5176 97.2349 62.7781 97.3652C63.0386 97.4928 63.238 97.6736 63.3762 97.9075C63.5171 98.1388 63.5876 98.41 63.5876 98.721C63.5876 98.8911 63.5583 99.0639 63.4998 99.2394C63.444 99.4122 63.3656 99.585 63.2646 99.7578C63.1662 99.9306 63.0506 100.101 62.9176 100.268C62.7874 100.436 62.6478 100.6 62.4989 100.763L60.9438 102.449H63.8547Z" fill="#EBEBEB"></path>
  <path d="M69.1186 99.69V100.575C69.1186 101.051 69.0761 101.453 68.991 101.78C68.9059 102.106 68.7836 102.37 68.6241 102.569C68.4646 102.768 68.2719 102.913 68.0459 103.004C67.8226 103.091 67.5701 103.135 67.2883 103.135C67.065 103.135 66.859 103.107 66.6702 103.052C66.4815 102.996 66.3113 102.907 66.1598 102.784C66.0109 102.659 65.8833 102.497 65.777 102.298C65.6706 102.099 65.5896 101.857 65.5337 101.572C65.4779 101.288 65.45 100.955 65.45 100.575V99.69C65.45 99.2141 65.4925 98.8154 65.5776 98.4937C65.6653 98.172 65.7889 97.9142 65.9484 97.7201C66.108 97.5234 66.2994 97.3825 66.5227 97.2974C66.7486 97.2123 67.0012 97.1698 67.2803 97.1698C67.5063 97.1698 67.7136 97.1977 67.9024 97.2535C68.0938 97.3067 68.2639 97.3931 68.4128 97.5127C68.5617 97.6297 68.6879 97.7866 68.7916 97.9833C68.898 98.1773 68.979 98.4153 69.0349 98.6971C69.0907 98.9789 69.1186 99.3098 69.1186 99.69ZM68.3769 100.695V99.5664C68.3769 99.3058 68.361 99.0772 68.3291 98.8805C68.2998 98.6811 68.256 98.511 68.1975 98.3701C68.139 98.2292 68.0645 98.1149 67.9742 98.0271C67.8864 97.9394 67.7841 97.8756 67.6671 97.8357C67.5528 97.7932 67.4239 97.7719 67.2803 97.7719C67.1049 97.7719 66.9493 97.8052 66.8138 97.8716C66.6782 97.9354 66.5639 98.0378 66.4708 98.1787C66.3804 98.3196 66.3113 98.5043 66.2635 98.733C66.2156 98.9616 66.1917 99.2394 66.1917 99.5664V100.695C66.1917 100.955 66.2063 101.185 66.2356 101.385C66.2675 101.584 66.314 101.757 66.3751 101.903C66.4363 102.047 66.5107 102.165 66.5984 102.258C66.6862 102.351 66.7872 102.42 66.9015 102.465C67.0185 102.508 67.1474 102.529 67.2883 102.529C67.4691 102.529 67.6272 102.495 67.7628 102.425C67.8984 102.356 68.0114 102.249 68.1018 102.102C68.1948 101.954 68.2639 101.764 68.3091 101.532C68.3543 101.298 68.3769 101.019 68.3769 100.695Z" fill="#EBEBEB"></path>
  <path d="M74.7015 102.449V103.056H70.9013V102.525L72.8034 100.408C73.0373 100.147 73.2181 99.9266 73.3457 99.7458C73.476 99.5624 73.5664 99.3989 73.6169 99.2553C73.67 99.1091 73.6966 98.9602 73.6966 98.8087C73.6966 98.6173 73.6567 98.4445 73.577 98.2903C73.4999 98.1335 73.3856 98.0085 73.234 97.9155C73.0825 97.8224 72.8991 97.7759 72.6838 97.7759C72.4259 97.7759 72.2106 97.8264 72.0378 97.9274C71.8676 98.0258 71.74 98.164 71.6549 98.3422C71.5699 98.5203 71.5273 98.725 71.5273 98.9563H70.7896C70.7896 98.6293 70.8614 98.3302 71.005 98.059C71.1485 97.7879 71.3612 97.5726 71.643 97.413C71.9248 97.2509 72.2717 97.1698 72.6838 97.1698C73.0506 97.1698 73.3643 97.2349 73.6248 97.3652C73.8854 97.4928 74.0847 97.6736 74.223 97.9075C74.3639 98.1388 74.4343 98.41 74.4343 98.721C74.4343 98.8911 74.4051 99.0639 74.3466 99.2394C74.2908 99.4122 74.2123 99.585 74.1113 99.7578C74.013 99.9306 73.8973 100.101 73.7644 100.268C73.6341 100.436 73.4946 100.6 73.3457 100.763L71.7905 102.449H74.7015Z" fill="#EBEBEB"></path>
  <path d="M77.3973 99.7897H77.9237C78.1816 99.7897 78.3942 99.7471 78.5617 99.6621C78.7319 99.5743 78.8581 99.456 78.9406 99.3072C79.0256 99.1556 79.0682 98.9855 79.0682 98.7968C79.0682 98.5734 79.0309 98.386 78.9565 98.2345C78.8821 98.083 78.7704 97.9687 78.6215 97.8916C78.4727 97.8145 78.2839 97.7759 78.0553 97.7759C77.8479 97.7759 77.6645 97.8171 77.505 97.8995C77.3482 97.9793 77.2245 98.0936 77.1342 98.2425C77.0464 98.3913 77.0026 98.5668 77.0026 98.7688H76.2648C76.2648 98.4738 76.3393 98.2053 76.4882 97.9633C76.637 97.7214 76.8457 97.5287 77.1142 97.3851C77.3854 97.2416 77.6991 97.1698 78.0553 97.1698C78.4062 97.1698 78.7133 97.2323 78.9764 97.3572C79.2396 97.4795 79.4443 97.6629 79.5905 97.9075C79.7367 98.1494 79.8099 98.4512 79.8099 98.8127C79.8099 98.9589 79.7753 99.1158 79.7062 99.2832C79.6397 99.4481 79.5347 99.6023 79.3912 99.7458C79.2503 99.8894 79.0668 100.008 78.8409 100.101C78.6149 100.191 78.3437 100.236 78.0274 100.236H77.3973V99.7897ZM77.3973 100.396V99.9532H78.0274C78.3969 99.9532 78.7026 99.997 78.9445 100.085C79.1865 100.172 79.3765 100.289 79.5148 100.436C79.6557 100.582 79.754 100.743 79.8099 100.918C79.8683 101.091 79.8976 101.264 79.8976 101.437C79.8976 101.708 79.8511 101.948 79.758 102.158C79.6676 102.368 79.5387 102.546 79.3712 102.693C79.2064 102.839 79.0123 102.949 78.789 103.024C78.5657 103.098 78.3225 103.135 78.0593 103.135C77.8067 103.135 77.5688 103.099 77.3455 103.028C77.1248 102.956 76.9295 102.852 76.7593 102.717C76.5892 102.578 76.4563 102.41 76.3606 102.21C76.2648 102.008 76.217 101.778 76.217 101.52H76.9547C76.9547 101.722 76.9986 101.899 77.0863 102.051C77.1767 102.202 77.3043 102.32 77.4691 102.406C77.6366 102.488 77.8333 102.529 78.0593 102.529C78.2852 102.529 78.4793 102.491 78.6415 102.414C78.8063 102.334 78.9326 102.214 79.0203 102.055C79.1107 101.895 79.1559 101.694 79.1559 101.453C79.1559 101.211 79.1054 101.013 79.0044 100.858C78.9033 100.702 78.7598 100.586 78.5737 100.511C78.3903 100.434 78.1736 100.396 77.9237 100.396H77.3973Z" fill="#EBEBEB"></path>
  <path d="M64.8567 22.5829V28.3889H64.099V22.5829H64.8567ZM66.7229 22.5829V23.213H62.2368V22.5829H66.7229Z" fill="#EBEBEB"></path>
  <path d="M72.8501 25.3025V25.6694C72.8501 26.1053 72.7956 26.4961 72.6866 26.8417C72.5776 27.1873 72.4208 27.4811 72.2161 27.723C72.0114 27.9649 71.7655 28.1497 71.4784 28.2773C71.1939 28.4049 70.8749 28.4687 70.5213 28.4687C70.1784 28.4687 69.8634 28.4049 69.5763 28.2773C69.2918 28.1497 69.0446 27.9649 68.8346 27.723C68.6272 27.4811 68.4664 27.1873 68.3521 26.8417C68.2378 26.4961 68.1806 26.1053 68.1806 25.6694V25.3025C68.1806 24.8665 68.2364 24.4771 68.3481 24.1341C68.4624 23.7885 68.6232 23.4948 68.8306 23.2528C69.0379 23.0083 69.2838 22.8222 69.5683 22.6946C69.8554 22.567 70.1704 22.5032 70.5134 22.5032C70.8669 22.5032 71.1859 22.567 71.4704 22.6946C71.7575 22.8222 72.0034 23.0083 72.2081 23.2528C72.4155 23.4948 72.5736 23.7885 72.6826 24.1341C72.7943 24.4771 72.8501 24.8665 72.8501 25.3025ZM72.0885 25.6694V25.2945C72.0885 24.9489 72.0526 24.6432 71.9808 24.3774C71.9117 24.1115 71.8093 23.8882 71.6738 23.7074C71.5382 23.5267 71.372 23.3898 71.1753 23.2967C70.9812 23.2037 70.7606 23.1571 70.5134 23.1571C70.2741 23.1571 70.0574 23.2037 69.8634 23.2967C69.672 23.3898 69.5072 23.5267 69.3689 23.7074C69.2333 23.8882 69.1283 24.1115 69.0539 24.3774C68.9795 24.6432 68.9422 24.9489 68.9422 25.2945V25.6694C68.9422 26.0176 68.9795 26.326 69.0539 26.5945C69.1283 26.8603 69.2347 27.085 69.3729 27.2684C69.5138 27.4492 69.6799 27.5861 69.8714 27.6791C70.0654 27.7722 70.2821 27.8187 70.5213 27.8187C70.7712 27.8187 70.9932 27.7722 71.1873 27.6791C71.3813 27.5861 71.5448 27.4492 71.6778 27.2684C71.8133 27.085 71.9157 26.8603 71.9848 26.5945C72.0539 26.326 72.0885 26.0176 72.0885 25.6694Z" fill="#EBEBEB"></path>
  <path d="M77.0513 26.112H75.5001V25.4859H77.0513C77.3517 25.4859 77.595 25.4381 77.781 25.3424C77.9671 25.2467 78.1027 25.1137 78.1878 24.9436C78.2755 24.7735 78.3194 24.5794 78.3194 24.3614C78.3194 24.162 78.2755 23.9746 78.1878 23.7992C78.1027 23.6237 77.9671 23.4828 77.781 23.3765C77.595 23.2675 77.3517 23.213 77.0513 23.213H75.6796V28.3889H74.9099V22.5829H77.0513C77.4899 22.5829 77.8608 22.6587 78.1639 22.8102C78.4669 22.9618 78.6969 23.1718 78.8537 23.4403C79.0106 23.7061 79.089 24.0105 79.089 24.3534C79.089 24.7256 79.0106 25.0433 78.8537 25.3065C78.6969 25.5697 78.4669 25.7704 78.1639 25.9086C77.8608 26.0442 77.4899 26.112 77.0513 26.112Z" fill="#EBEBEB"></path>
  <path d="M41.856 34.3043V39.9259H41.1108V34.3043H41.856Z" fill="#EBEBEB"></path>
  <path d="M48.4469 36.9375V37.2927C48.4469 37.7149 48.3941 38.0932 48.2886 38.4279C48.183 38.7625 48.0312 39.0469 47.833 39.2812C47.6348 39.5154 47.3967 39.6943 47.1187 39.8178C46.8433 39.9414 46.5344 40.0032 46.192 40.0032C45.86 40.0032 45.555 39.9414 45.277 39.8178C45.0015 39.6943 44.7622 39.5154 44.5588 39.2812C44.358 39.0469 44.2023 38.7625 44.0916 38.4279C43.9809 38.0932 43.9256 37.7149 43.9256 37.2927V36.9375C43.9256 36.5154 43.9797 36.1383 44.0878 35.8062C44.1984 35.4716 44.3542 35.1872 44.555 34.9529C44.7557 34.7161 44.9938 34.5359 45.2692 34.4124C45.5472 34.2888 45.8523 34.2271 46.1843 34.2271C46.5267 34.2271 46.8355 34.2888 47.111 34.4124C47.389 34.5359 47.6271 34.7161 47.8253 34.9529C48.026 35.1872 48.1792 35.4716 48.2847 35.8062C48.3928 36.1383 48.4469 36.5154 48.4469 36.9375ZM47.7094 37.2927V36.9298C47.7094 36.5952 47.6747 36.2991 47.6052 36.0417C47.5382 35.7843 47.4391 35.5681 47.3079 35.3931C47.1766 35.2181 47.0157 35.0855 46.8252 34.9954C46.6373 34.9053 46.4237 34.8603 46.1843 34.8603C45.9526 34.8603 45.7429 34.9053 45.555 34.9954C45.3696 35.0855 45.21 35.2181 45.0762 35.3931C44.9449 35.5681 44.8432 35.7843 44.7712 36.0417C44.6991 36.2991 44.6631 36.5952 44.6631 36.9298V37.2927C44.6631 37.6299 44.6991 37.9285 44.7712 38.1885C44.8432 38.4459 44.9462 38.6634 45.0801 38.841C45.2165 39.016 45.3774 39.1486 45.5627 39.2387C45.7506 39.3288 45.9604 39.3738 46.192 39.3738C46.434 39.3738 46.6489 39.3288 46.8368 39.2387C47.0247 39.1486 47.183 39.016 47.3117 38.841C47.443 38.6634 47.5421 38.4459 47.609 38.1885C47.676 37.9285 47.7094 37.6299 47.7094 37.2927Z" fill="#EBEBEB"></path>
  <path d="M52.4393 34.3043V39.9259H51.7057V34.3043H52.4393ZM54.2462 34.3043V34.9143H49.9026V34.3043H54.2462Z" fill="#EBEBEB"></path>
  <path d="M62.0958 38.1383H62.8372C62.7985 38.4935 62.6969 38.8114 62.5321 39.092C62.3674 39.3725 62.1345 39.5952 61.8333 39.7599C61.5321 39.9221 61.1563 40.0032 60.7059 40.0032C60.3764 40.0032 60.0765 39.9414 59.8062 39.8178C59.5385 39.6943 59.3082 39.5192 59.1151 39.2927C58.9221 39.0636 58.7728 38.7895 58.6672 38.4703C58.5643 38.1486 58.5128 37.7908 58.5128 37.397V36.8371C58.5128 36.4433 58.5643 36.0868 58.6672 35.7676C58.7728 35.4459 58.9234 35.1704 59.119 34.9413C59.3172 34.7123 59.5553 34.5359 59.8333 34.4124C60.1113 34.2888 60.424 34.2271 60.7715 34.2271C61.1962 34.2271 61.5553 34.3068 61.8487 34.4664C62.1422 34.626 62.37 34.8474 62.5321 35.1305C62.6969 35.4111 62.7985 35.7367 62.8372 36.1074H62.0958C62.0598 35.8448 61.9929 35.6196 61.8951 35.4317C61.7973 35.2412 61.6583 35.0945 61.4781 34.9915C61.2979 34.8886 61.0624 34.8371 60.7715 34.8371C60.5218 34.8371 60.3017 34.8847 60.1113 34.98C59.9234 35.0752 59.7651 35.2103 59.6364 35.3854C59.5102 35.5604 59.415 35.7702 59.3506 36.0147C59.2863 36.2592 59.2541 36.5308 59.2541 36.8294V37.397C59.2541 37.6724 59.2824 37.9311 59.3391 38.173C59.3983 38.415 59.4871 38.6273 59.6055 38.8101C59.7239 38.9929 59.8745 39.137 60.0572 39.2425C60.24 39.3455 60.4562 39.397 60.7059 39.397C61.0225 39.397 61.2747 39.3468 61.4626 39.2464C61.6505 39.146 61.7921 39.0019 61.8873 38.814C61.9852 38.6261 62.0547 38.4008 62.0958 38.1383Z" fill="#EBEBEB"></path>
  <path d="M69.0882 36.9375V37.2927C69.0882 37.7149 69.0355 38.0932 68.9299 38.4279C68.8244 38.7625 68.6725 39.0469 68.4743 39.2812C68.2761 39.5154 68.038 39.6943 67.76 39.8178C67.4846 39.9414 67.1757 40.0032 66.8334 40.0032C66.5013 40.0032 66.1963 39.9414 65.9183 39.8178C65.6429 39.6943 65.4035 39.5154 65.2002 39.2812C64.9994 39.0469 64.8437 38.7625 64.733 38.4279C64.6223 38.0932 64.567 37.7149 64.567 37.2927V36.9375C64.567 36.5154 64.621 36.1383 64.7291 35.8062C64.8398 35.4716 64.9955 35.1872 65.1963 34.9529C65.3971 34.7161 65.6352 34.5359 65.9106 34.4124C66.1886 34.2888 66.4936 34.2271 66.8257 34.2271C67.168 34.2271 67.4769 34.2888 67.7523 34.4124C68.0303 34.5359 68.2684 34.7161 68.4666 34.9529C68.6674 35.1872 68.8205 35.4716 68.9261 35.8062C69.0342 36.1383 69.0882 36.5154 69.0882 36.9375ZM68.3508 37.2927V36.9298C68.3508 36.5952 68.316 36.2991 68.2465 36.0417C68.1796 35.7843 68.0805 35.5681 67.9492 35.3931C67.818 35.2181 67.6571 35.0855 67.4666 34.9954C67.2787 34.9053 67.0651 34.8603 66.8257 34.8603C66.594 34.8603 66.3842 34.9053 66.1963 34.9954C66.011 35.0855 65.8514 35.2181 65.7176 35.3931C65.5863 35.5681 65.4846 35.7843 65.4125 36.0417C65.3405 36.2991 65.3044 36.5952 65.3044 36.9298V37.2927C65.3044 37.6299 65.3405 37.9285 65.4125 38.1885C65.4846 38.4459 65.5876 38.6634 65.7214 38.841C65.8578 39.016 66.0187 39.1486 66.204 39.2387C66.392 39.3288 66.6017 39.3738 66.8334 39.3738C67.0754 39.3738 67.2903 39.3288 67.4782 39.2387C67.6661 39.1486 67.8244 39.016 67.9531 38.841C68.0844 38.6634 68.1835 38.4459 68.2504 38.1885C68.3173 37.9285 68.3508 37.6299 68.3508 37.2927Z" fill="#EBEBEB"></path>
  <path d="M71.347 34.3043H72.069L73.9107 38.8873L75.7486 34.3043H76.4745L74.1887 39.9259H73.625L71.347 34.3043ZM71.1115 34.3043H71.7486L71.8528 37.7329V39.9259H71.1115V34.3043ZM76.0691 34.3043H76.7061V39.9259H75.9648V37.7329L76.0691 34.3043Z" fill="#EBEBEB"></path>
  <path d="M80.9958 37.7213H79.4939V37.1151H80.9958C81.2867 37.1151 81.5222 37.0688 81.7024 36.9761C81.8826 36.8834 82.0138 36.7547 82.0962 36.59C82.1812 36.4253 82.2236 36.2374 82.2236 36.0263C82.2236 35.8332 82.1812 35.6518 82.0962 35.4819C82.0138 35.312 81.8826 35.1756 81.7024 35.0726C81.5222 34.9671 81.2867 34.9143 80.9958 34.9143H79.6676V39.9259H78.9224V34.3043H80.9958C81.4205 34.3043 81.7796 34.3776 82.073 34.5244C82.3665 34.6711 82.5891 34.8744 82.741 35.1344C82.8929 35.3918 82.9688 35.6865 82.9688 36.0186C82.9688 36.3789 82.8929 36.6865 82.741 36.9414C82.5891 37.1962 82.3665 37.3905 82.073 37.5244C81.7796 37.6557 81.4205 37.7213 80.9958 37.7213Z" fill="#EBEBEB"></path>
  <path d="M86.3666 34.8023L84.5056 39.9259H83.7449L85.8878 34.3043H86.3782L86.3666 34.8023ZM87.9264 39.9259L86.0616 34.8023L86.05 34.3043H86.5403L88.6909 39.9259H87.9264ZM87.8299 37.8448V38.4549H84.6716V37.8448H87.8299Z" fill="#EBEBEB"></path>
  <path d="M94.6756 34.3043V39.9259H93.9266L91.0964 35.59V39.9259H90.3512V34.3043H91.0964L93.9381 38.6518V34.3043H94.6756Z" fill="#EBEBEB"></path>
  <path d="M97.0541 34.3043L98.5135 37.1267L99.9769 34.3043H100.822L98.8842 37.8255V39.9259H98.139V37.8255L96.2008 34.3043H97.0541Z" fill="#EBEBEB"></path>
  <path fill-rule="evenodd" clip-rule="evenodd" d="M116.602 50.8148H23.6572V50.6852H116.602V50.8148Z" fill="#403F3F"></path>
  <path fill-rule="evenodd" clip-rule="evenodd" d="M116.602 89.1852H23.6572V89.0555H116.602V89.1852Z" fill="#403F3F"></path>
  <path d="M53.979 61.5093H57.1601V78.0215H53.979V61.5093Z" fill="#EBEBEB"></path>
  <path d="M67.3749 73.0289C67.3749 75.6675 65.0883 75.9073 64.326 75.9073C62.5475 75.9073 62.0342 74.3482 62.0342 73.5087V67.1715H59.6309V73.3887C59.6309 74.9479 60.139 76.3871 61.1553 77.2266C62.0446 78.0662 62.9286 78.426 64.326 78.426C65.3423 78.426 66.6127 78.1861 67.3749 77.4665V78.0371H70.1672V67.1715H67.3749V73.0289Z" fill="#EBEBEB"></path>
  <path d="M75.884 63.3627H72.9621V67.1715H71.1914V69.2915H72.9621V78.0371H75.884V69.2915H78.0436V67.1715H75.884V63.3627Z" fill="#EBEBEB"></path>
  <path d="M87.2206 75.0119C86.5873 75.4828 85.7008 75.836 84.8142 75.836C82.7878 75.836 81.3947 74.4233 81.3947 72.5397C81.3947 70.6561 82.7878 69.3611 84.8142 69.3611C85.7008 69.3611 86.5873 69.5966 87.2206 70.1852L87.6005 70.5384L89.6269 68.7725L89.1203 68.4193C87.9805 67.4775 86.4607 66.8889 84.8142 66.8889C81.268 66.8889 78.6084 69.3611 78.6084 72.6574C78.6084 75.9537 81.268 78.426 84.8142 78.426C86.4607 78.426 87.9805 77.8373 89.1203 76.8955L89.6269 76.5424L87.6005 74.6588L87.2206 75.0119Z" fill="#EBEBEB"></path>
  <path d="M100.024 68.2606C99.1344 67.4211 97.8563 67.0613 96.4589 67.0613C95.4426 67.0613 94.2966 67.3011 93.5344 68.0207V61.3953H90.7422V78.0371H93.5344V72.0694C93.5344 70.1297 95.5696 69.5799 96.3318 69.5799C98.1103 69.5799 98.3722 70.7502 98.3722 71.5897V77.9171H101.294V71.7096C101.294 70.1505 100.913 69.1002 100.024 68.2606Z" fill="#EBEBEB"></path>
  <path d="M84.701 74.6667C85.8465 74.6667 86.7751 73.7381 86.7751 72.5926C86.7751 71.4472 85.8465 70.5186 84.701 70.5186C83.5555 70.5186 82.627 71.4472 82.627 72.5926C82.627 73.7381 83.5555 74.6667 84.701 74.6667Z" fill="#EBEBEB"></path>
  <path d="M50.542 74.254C49.5316 75.2076 48.0159 75.8036 46.3739 75.8036C43.2163 75.8036 40.9428 73.4196 40.9428 70.2012C40.9428 66.9828 43.2163 64.5988 46.5002 64.5988C48.0159 64.5988 49.5316 65.1948 50.6683 66.2676L51.0473 66.6252L52.9418 64.8372L52.5629 64.4796C50.9209 62.9299 48.7738 62.0955 46.5002 62.0955C41.7006 61.9763 38.1641 65.5524 38.1641 70.2012C38.1641 74.85 41.7006 78.426 46.3739 78.426C48.6474 78.426 50.9209 77.5916 52.4366 76.042L52.8155 75.6844L50.9209 73.8964L50.542 74.254Z" fill="#EBEBEB"></path>
</svg>
