<?xml version="1.0" encoding="UTF-8"?>
<svg xmlns="http://www.w3.org/2000/svg" width="140" height="140" viewBox="0 0 140 140" fill="none">
  <path d="M70.0648 0L134.88 35L134.88 105L70.0648 140L5.25 105L5.25015 35H5.25L70.0648 0Z" fill="#4E4E4E"></path>
  <path fill-rule="evenodd" clip-rule="evenodd" d="M5.25015 36.037L5.25 105L70.0648 140L134.88 105L134.88 35L70.0648 0L5.25015 34.9999L5.25 35M6.28719 35.6185L70.0648 1.17858L133.842 35.6186L133.843 104.381L70.0648 138.821L6.28704 104.381L6.28719 35.6185ZM5.25015 36.037V34.9999Z" fill="#403F3F"></path>
  <path d="M70.0649 4.40735L130.861 37.2036L130.861 102.796L70.0649 135.593L9.26855 102.796L9.2687 37.2036H9.26855L70.0649 4.40735Z" fill="#403F3F"></path>
  <path d="M9.26855 50.8148H130.861V89.1852H9.26855V50.8148Z" fill="#403F3F"></path>
  <path d="M125.157 39.9259L69.9351 9.85181L14.9723 39.9259L14.9722 54.25H125.157L125.157 39.9259Z" fill="#4E4E4E"></path>
  <path d="M69.9351 130.148L125.157 100.074L125.157 85.75H14.9722L14.9722 100.074L69.9351 130.148Z" fill="#4E4E4E"></path>
  <path fill-rule="evenodd" clip-rule="evenodd" d="M69.9354 10.0881L15.1797 40.0488L15.1797 54.0425H124.95L124.95 40.0491L69.9354 10.0881ZM125.157 39.9259L69.9351 9.85181L14.9723 39.9259L14.9722 54.25H125.157L125.157 39.9259ZM124.95 99.9508L124.95 85.9574H15.1796L15.1796 99.9511L69.9354 129.912L124.95 99.9508ZM69.9351 130.148L125.157 100.074L125.157 85.75H14.9722L14.9722 100.074L69.9351 130.148Z" fill="#403F3F"></path>
  <path d="M64.8402 99.9626V100.463H61.7035V100.025L63.2735 98.2775C63.4666 98.0624 63.6158 97.8803 63.7211 97.7311C63.8286 97.5797 63.9032 97.4447 63.9449 97.3262C63.9888 97.2056 64.0107 97.0827 64.0107 96.9576C64.0107 96.7996 63.9778 96.657 63.912 96.5297C63.8484 96.4003 63.754 96.2971 63.6289 96.2203C63.5039 96.1435 63.3525 96.1051 63.1747 96.1051C62.9619 96.1051 62.7842 96.1468 62.6415 96.2302C62.5011 96.3114 62.3958 96.4255 62.3256 96.5725C62.2553 96.7195 62.2202 96.8885 62.2202 97.0794H61.6113C61.6113 96.8095 61.6706 96.5626 61.7891 96.3388C61.9076 96.115 62.0831 95.9373 62.3157 95.8056C62.5483 95.6718 62.8346 95.6049 63.1747 95.6049C63.4775 95.6049 63.7365 95.6586 63.9515 95.7661C64.1665 95.8715 64.3311 96.0207 64.4452 96.2138C64.5615 96.4047 64.6196 96.6285 64.6196 96.8852C64.6196 97.0256 64.5955 97.1683 64.5472 97.3131C64.5012 97.4557 64.4364 97.5983 64.353 97.741C64.2719 97.8836 64.1764 98.024 64.0667 98.1623C63.9592 98.3005 63.844 98.4365 63.7211 98.5704L62.4375 99.9626H64.8402Z" fill="#EBEBEB"></path>
  <path d="M69.3298 97.685V98.4157C69.3298 98.8085 69.2947 99.1398 69.2245 99.4097C69.1543 99.6796 69.0533 99.8968 68.9217 100.061C68.79 100.226 68.6309 100.346 68.4444 100.42C68.2601 100.493 68.0517 100.529 67.8191 100.529C67.6348 100.529 67.4647 100.506 67.3089 100.46C67.1531 100.414 67.0127 100.34 66.8876 100.239C66.7647 100.136 66.6594 100.002 66.5716 99.8376C66.4839 99.673 66.4169 99.4733 66.3709 99.2385C66.3248 99.0038 66.3017 98.7295 66.3017 98.4157V97.685C66.3017 97.2922 66.3369 96.9631 66.4071 96.6976C66.4795 96.4321 66.5815 96.2192 66.7132 96.0591C66.8448 95.8967 67.0028 95.7804 67.1871 95.7102C67.3736 95.64 67.5821 95.6049 67.8125 95.6049C67.999 95.6049 68.1701 95.6279 68.3259 95.674C68.4839 95.7179 68.6244 95.7892 68.7472 95.8879C68.8701 95.9845 68.9743 96.1139 69.0599 96.2763C69.1477 96.4365 69.2146 96.6329 69.2607 96.8655C69.3068 97.098 69.3298 97.3712 69.3298 97.685ZM68.7176 98.5144V97.583C68.7176 97.3679 68.7044 97.1792 68.6781 97.0169C68.654 96.8523 68.6178 96.7119 68.5695 96.5956C68.5212 96.4793 68.4598 96.3849 68.3852 96.3125C68.3128 96.2401 68.2283 96.1874 68.1317 96.1545C68.0374 96.1194 67.931 96.1019 67.8125 96.1019C67.6677 96.1019 67.5393 96.1293 67.4274 96.1841C67.3155 96.2368 67.2211 96.3213 67.1443 96.4376C67.0697 96.5539 67.0127 96.7064 66.9732 96.8951C66.9337 97.0838 66.9139 97.3131 66.9139 97.583V98.5144C66.9139 98.7295 66.926 98.9193 66.9501 99.0838C66.9765 99.2484 67.0149 99.391 67.0653 99.5117C67.1158 99.6302 67.1773 99.7279 67.2497 99.8047C67.3221 99.8815 67.4055 99.9385 67.4998 99.9758C67.5964 100.011 67.7028 100.028 67.8191 100.028C67.9683 100.028 68.0988 99.9999 68.2107 99.9429C68.3226 99.8858 68.4159 99.797 68.4905 99.6763C68.5673 99.5534 68.6244 99.3965 68.6617 99.2056C68.699 99.0125 68.7176 98.7821 68.7176 98.5144Z" fill="#EBEBEB"></path>
  <path d="M74.0828 99.9626V100.463H70.9461V100.025L72.5161 98.2775C72.7092 98.0624 72.8584 97.8803 72.9637 97.7311C73.0712 97.5797 73.1458 97.4447 73.1875 97.3262C73.2314 97.2056 73.2533 97.0827 73.2533 96.9576C73.2533 96.7996 73.2204 96.657 73.1546 96.5297C73.091 96.4003 72.9966 96.2971 72.8715 96.2203C72.7465 96.1435 72.5951 96.1051 72.4173 96.1051C72.2045 96.1051 72.0267 96.1468 71.8841 96.2302C71.7437 96.3114 71.6384 96.4255 71.5682 96.5725C71.4979 96.7195 71.4628 96.8885 71.4628 97.0794H70.8539C70.8539 96.8095 70.9132 96.5626 71.0317 96.3388C71.1501 96.115 71.3257 95.9373 71.5583 95.8056C71.7909 95.6718 72.0772 95.6049 72.4173 95.6049C72.7201 95.6049 72.9791 95.6586 73.1941 95.7661C73.4091 95.8715 73.5737 96.0207 73.6878 96.2138C73.8041 96.4047 73.8622 96.6285 73.8622 96.8852C73.8622 97.0256 73.8381 97.1683 73.7898 97.3131C73.7438 97.4557 73.679 97.5983 73.5956 97.741C73.5145 97.8836 73.419 98.024 73.3093 98.1623C73.2018 98.3005 73.0866 98.4365 72.9637 98.5704L71.6801 99.9626H74.0828Z" fill="#EBEBEB"></path>
  <path d="M76.4528 97.7673H76.8872C77.1001 97.7673 77.2756 97.7322 77.4138 97.662C77.5543 97.5896 77.6585 97.4919 77.7265 97.369C77.7967 97.244 77.8318 97.1035 77.8318 96.9477C77.8318 96.7634 77.8011 96.6087 77.7397 96.4837C77.6782 96.3586 77.5861 96.2642 77.4632 96.2006C77.3403 96.137 77.1845 96.1051 76.9958 96.1051C76.8247 96.1051 76.6733 96.1392 76.5416 96.2072C76.4122 96.273 76.3101 96.3674 76.2355 96.4902C76.1631 96.6131 76.1269 96.7579 76.1269 96.9247H75.518C75.518 96.6811 75.5794 96.4595 75.7023 96.2598C75.8252 96.0602 75.9974 95.9011 76.2191 95.7826C76.4429 95.6641 76.7018 95.6049 76.9958 95.6049C77.2855 95.6049 77.5389 95.6564 77.7561 95.7596C77.9734 95.8605 78.1423 96.0119 78.263 96.2138C78.3837 96.4134 78.444 96.6625 78.444 96.9609C78.444 97.0816 78.4155 97.2111 78.3585 97.3493C78.3036 97.4853 78.2169 97.6126 78.0984 97.7311C77.9822 97.8496 77.8307 97.9472 77.6442 98.024C77.4577 98.0986 77.2339 98.1359 76.9728 98.1359H76.4528V97.7673ZM76.4528 98.2676V97.9022H76.9728C77.2778 97.9022 77.5301 97.9384 77.7298 98.0109C77.9295 98.0833 78.0864 98.1798 78.2005 98.3005C78.3168 98.4212 78.398 98.5539 78.444 98.6988C78.4923 98.8414 78.5165 98.984 78.5165 99.1266C78.5165 99.3504 78.4781 99.549 78.4013 99.7224C78.3267 99.8957 78.2202 100.043 78.082 100.163C77.9459 100.284 77.7858 100.375 77.6014 100.437C77.4171 100.498 77.2164 100.529 76.9991 100.529C76.7907 100.529 76.5943 100.499 76.41 100.44C76.2278 100.381 76.0666 100.295 75.9261 100.183C75.7857 100.069 75.676 99.9297 75.597 99.7652C75.518 99.5984 75.4785 99.4086 75.4785 99.1958H76.0874C76.0874 99.3625 76.1236 99.5084 76.196 99.6335C76.2706 99.7586 76.376 99.8562 76.512 99.9264C76.6502 99.9945 76.8126 100.028 76.9991 100.028C77.1856 100.028 77.3458 99.9967 77.4797 99.933C77.6157 99.8672 77.7199 99.7685 77.7923 99.6368C77.867 99.5051 77.9043 99.3395 77.9043 99.1398C77.9043 98.9401 77.8626 98.7766 77.7792 98.6494C77.6958 98.5199 77.5773 98.4245 77.4237 98.363C77.2723 98.2994 77.0935 98.2676 76.8872 98.2676H76.4528Z" fill="#EBEBEB"></path>
  <path d="M65.2806 18.4114V23.2037H64.6552V18.4114H65.2806ZM66.821 18.4114V18.9314H63.1182V18.4114H66.821Z" fill="#EBEBEB"></path>
  <path d="M71.959 20.6561V20.9589C71.959 21.3188 71.914 21.6413 71.8241 21.9266C71.7341 22.2119 71.6046 22.4543 71.4357 22.654C71.2667 22.8537 71.0638 23.0062 70.8268 23.1115C70.592 23.2168 70.3287 23.2695 70.0368 23.2695C69.7538 23.2695 69.4938 23.2168 69.2568 23.1115C69.022 23.0062 68.8179 22.8537 68.6446 22.654C68.4734 22.4543 68.3407 22.2119 68.2463 21.9266C68.152 21.6413 68.1048 21.3188 68.1048 20.9589V20.6561C68.1048 20.2963 68.1509 19.9748 68.243 19.6918C68.3374 19.4065 68.4701 19.164 68.6413 18.9644C68.8124 18.7625 69.0154 18.6089 69.2502 18.5036C69.4872 18.3982 69.7472 18.3456 70.0303 18.3456C70.3221 18.3456 70.5854 18.3982 70.8202 18.5036C71.0572 18.6089 71.2601 18.7625 71.4291 18.9644C71.6002 19.164 71.7308 19.4065 71.8208 19.6918C71.9129 19.9748 71.959 20.2963 71.959 20.6561ZM71.3304 20.9589V20.6495C71.3304 20.3643 71.3007 20.112 71.2415 19.8925C71.1844 19.6731 71.1 19.4888 70.988 19.3396C70.8761 19.1904 70.739 19.0774 70.5766 19.0006C70.4164 18.9238 70.2343 18.8854 70.0303 18.8854C69.8328 18.8854 69.6539 18.9238 69.4938 19.0006C69.3358 19.0774 69.1997 19.1904 69.0856 19.3396C68.9737 19.4888 68.8871 19.6731 68.8256 19.8925C68.7642 20.112 68.7335 20.3643 68.7335 20.6495V20.9589C68.7335 21.2464 68.7642 21.5009 68.8256 21.7225C68.8871 21.942 68.9748 22.1274 69.0889 22.2788C69.2052 22.428 69.3424 22.541 69.5003 22.6178C69.6605 22.6946 69.8394 22.733 70.0368 22.733C70.2431 22.733 70.4263 22.6946 70.5865 22.6178C70.7467 22.541 70.8816 22.428 70.9913 22.2788C71.1032 22.1274 71.1877 21.942 71.2448 21.7225C71.3018 21.5009 71.3304 21.2464 71.3304 20.9589Z" fill="#EBEBEB"></path>
  <path d="M75.5073 21.3243H74.227V20.8075H75.5073C75.7553 20.8075 75.956 20.768 76.1096 20.689C76.2632 20.61 76.3751 20.5003 76.4454 20.3599C76.5178 20.2195 76.554 20.0593 76.554 19.8794C76.554 19.7148 76.5178 19.5601 76.4454 19.4153C76.3751 19.2705 76.2632 19.1542 76.1096 19.0664C75.956 18.9764 75.7553 18.9314 75.5073 18.9314H74.3751V23.2037H73.7398V18.4114H75.5073C75.8694 18.4114 76.1755 18.4739 76.4256 18.599C76.6758 18.7241 76.8656 18.8974 76.995 19.1191C77.1245 19.3385 77.1892 19.5897 77.1892 19.8728C77.1892 20.18 77.1245 20.4422 76.995 20.6594C76.8656 20.8767 76.6758 21.0423 76.4256 21.1564C76.1755 21.2683 75.8694 21.3243 75.5073 21.3243Z" fill="#EBEBEB"></path>
  <path d="M65.1792 30.5027L63.5927 34.8704H62.9443L64.7711 30.0781H65.1891L65.1792 30.5027ZM66.5089 34.8704L64.9192 30.5027L64.9093 30.0781H65.3273L67.1606 34.8704H66.5089ZM66.4266 33.0963V33.6164H63.7343V33.0963H66.4266Z" fill="#EBEBEB"></path>
  <path d="M70.3995 32.991H69.1192V32.4742H70.3995C70.6475 32.4742 70.8482 32.4348 71.0018 32.3558C71.1554 32.2768 71.2673 32.1671 71.3376 32.0266C71.41 31.8862 71.4462 31.726 71.4462 31.5461C71.4462 31.3815 71.41 31.2268 71.3376 31.082C71.2673 30.9372 71.1554 30.8209 71.0018 30.7331C70.8482 30.6431 70.6475 30.5982 70.3995 30.5982H69.2673V34.8704H68.632V30.0781H70.3995C70.7616 30.0781 71.0677 30.1407 71.3178 30.2657C71.5679 30.3908 71.7578 30.5642 71.8872 30.7858C72.0167 31.0052 72.0814 31.2564 72.0814 31.5395C72.0814 31.8467 72.0167 32.1089 71.8872 32.3261C71.7578 32.5434 71.5679 32.709 71.3178 32.8231C71.0677 32.935 70.7616 32.991 70.3995 32.991Z" fill="#EBEBEB"></path>
  <path d="M75.4816 32.991H74.2013V32.4742H75.4816C75.7295 32.4742 75.9303 32.4348 76.0839 32.3558C76.2375 32.2768 76.3494 32.1671 76.4196 32.0266C76.4921 31.8862 76.5283 31.726 76.5283 31.5461C76.5283 31.3815 76.4921 31.2268 76.4196 31.082C76.3494 30.9372 76.2375 30.8209 76.0839 30.7331C75.9303 30.6431 75.7295 30.5982 75.4816 30.5982H74.3494V34.8704H73.7141V30.0781H75.4816C75.8437 30.0781 76.1497 30.1407 76.3999 30.2657C76.65 30.3908 76.8398 30.5642 76.9693 30.7858C77.0988 31.0052 77.1635 31.2564 77.1635 31.5395C77.1635 31.8467 77.0988 32.1089 76.9693 32.3261C76.8398 32.5434 76.65 32.709 76.3999 32.8231C76.1497 32.935 75.8437 32.991 75.4816 32.991Z" fill="#EBEBEB"></path>
  <path d="M23.8961 41.7448H24.5116L26.0816 45.6516L27.6483 41.7448H28.267L26.3185 46.537H25.838L23.8961 41.7448ZM23.6953 41.7448H24.2384L24.3273 44.6675V46.537H23.6953V41.7448ZM27.9214 41.7448H28.4645V46.537H27.8326V44.6675L27.9214 41.7448Z" fill="#EBEBEB"></path>
  <path d="M33.9181 43.9895V44.2923C33.9181 44.6522 33.8731 44.9747 33.7831 45.26C33.6932 45.5452 33.5637 45.7877 33.3947 45.9874C33.2258 46.187 33.0228 46.3395 32.7858 46.4449C32.5511 46.5502 32.2877 46.6029 31.9959 46.6029C31.7129 46.6029 31.4528 46.5502 31.2159 46.4449C30.9811 46.3395 30.777 46.187 30.6037 45.9874C30.4325 45.7877 30.2998 45.5452 30.2054 45.26C30.1111 44.9747 30.0639 44.6522 30.0639 44.2923V43.9895C30.0639 43.6296 30.11 43.3082 30.2021 43.0251C30.2965 42.7399 30.4292 42.4974 30.6004 42.2977C30.7715 42.0959 30.9745 41.9423 31.2093 41.8369C31.4463 41.7316 31.7063 41.679 31.9893 41.679C32.2812 41.679 32.5445 41.7316 32.7793 41.8369C33.0162 41.9423 33.2192 42.0959 33.3882 42.2977C33.5593 42.4974 33.6899 42.7399 33.7798 43.0251C33.872 43.3082 33.9181 43.6296 33.9181 43.9895ZM33.2894 44.2923V43.9829C33.2894 43.6977 33.2598 43.4453 33.2006 43.2259C33.1435 43.0065 33.059 42.8222 32.9471 42.673C32.8352 42.5237 32.6981 42.4107 32.5357 42.3339C32.3755 42.2571 32.1934 42.2187 31.9893 42.2187C31.7918 42.2187 31.613 42.2571 31.4528 42.3339C31.2948 42.4107 31.1588 42.5237 31.0447 42.673C30.9328 42.8222 30.8461 43.0065 30.7847 43.2259C30.7232 43.4453 30.6925 43.6977 30.6925 43.9829V44.2923C30.6925 44.5798 30.7232 44.8343 30.7847 45.0559C30.8461 45.2753 30.9339 45.4607 31.048 45.6122C31.1643 45.7614 31.3014 45.8744 31.4594 45.9512C31.6196 46.028 31.7984 46.0664 31.9959 46.0664C32.2022 46.0664 32.3854 46.028 32.5456 45.9512C32.7058 45.8744 32.8407 45.7614 32.9504 45.6122C33.0623 45.4607 33.1468 45.2753 33.2038 45.0559C33.2609 44.8343 33.2894 44.5798 33.2894 44.2923Z" fill="#EBEBEB"></path>
  <path d="M36.8142 46.537H35.8137L35.8202 46.0203H36.8142C37.1565 46.0203 37.4418 45.949 37.67 45.8063C37.8982 45.6615 38.0693 45.4597 38.1834 45.2007C38.2997 44.9396 38.3579 44.6346 38.3579 44.2857V43.9928C38.3579 43.7185 38.325 43.475 38.2592 43.2621C38.1933 43.0471 38.0968 42.866 37.9695 42.719C37.8422 42.5698 37.6865 42.4568 37.5021 42.38C37.32 42.3032 37.1105 42.2648 36.8735 42.2648H35.7939V41.7448H36.8735C37.1873 41.7448 37.4736 41.7974 37.7325 41.9028C37.9915 42.0059 38.2142 42.1562 38.4007 42.3537C38.5894 42.549 38.7342 42.786 38.8351 43.0646C38.9361 43.3411 38.9865 43.6527 38.9865 43.9994V44.2857C38.9865 44.6324 38.9361 44.9451 38.8351 45.2238C38.7342 45.5002 38.5883 45.7361 38.3974 45.9314C38.2087 46.1267 37.9805 46.277 37.7128 46.3823C37.4473 46.4855 37.1478 46.537 36.8142 46.537ZM36.1527 41.7448V46.537H35.5174V41.7448H36.1527Z" fill="#EBEBEB"></path>
  <path d="M43.6337 46.0203V46.537H41.0961V46.0203H43.6337ZM41.2244 41.7448V46.537H40.5892V41.7448H41.2244ZM43.298 43.8052V44.3219H41.0961V43.8052H43.298ZM43.6008 41.7448V42.2648H41.0961V41.7448H43.6008Z" fill="#EBEBEB"></path>
  <path d="M45.0685 41.7448H46.6549C47.0148 41.7448 47.3187 41.7996 47.5667 41.9094C47.8168 42.0191 48.0066 42.1814 48.1361 42.3965C48.2677 42.6093 48.3335 42.8715 48.3335 43.1831C48.3335 43.4025 48.2886 43.6033 48.1986 43.7854C48.1108 43.9654 47.9836 44.119 47.8168 44.2462C47.6522 44.3713 47.4548 44.4646 47.2244 44.526L47.0466 44.5951H45.5556L45.549 44.0784H46.6747C46.9029 44.0784 47.0927 44.0389 47.2441 43.9599C47.3955 43.8787 47.5096 43.7701 47.5864 43.634C47.6632 43.498 47.7016 43.3477 47.7016 43.1831C47.7016 42.9988 47.6654 42.8375 47.593 42.6993C47.5206 42.561 47.4065 42.4546 47.2507 42.38C47.0971 42.3032 46.8985 42.2648 46.6549 42.2648H45.7037V46.537H45.0685V41.7448ZM47.8695 46.537L46.7043 44.3647L47.3659 44.3614L48.5475 46.4975V46.537H47.8695Z" fill="#EBEBEB"></path>
  <path d="M53.5567 41.7448V46.537H52.9182L50.5056 42.8408V46.537H49.8704V41.7448H50.5056L52.9281 45.4509V41.7448H53.5567Z" fill="#EBEBEB"></path>
  <path d="M56.0118 41.7448V46.537H55.3766V41.7448H56.0118Z" fill="#EBEBEB"></path>
  <path d="M61.0309 46.0203V46.537H57.7856V46.0203H61.0309ZM60.9256 42.2056L57.937 46.537H57.5454V46.0631L60.5306 41.7448H60.9256V42.2056ZM60.6557 41.7448V42.2648H57.5881V41.7448H60.6557Z" fill="#EBEBEB"></path>
  <path d="M64.3253 42.1694L62.7389 46.537H62.0905L63.9172 41.7448H64.3352L64.3253 42.1694ZM65.6551 46.537L64.0653 42.1694L64.0554 41.7448H64.4735L66.3067 46.537H65.6551ZM65.5728 44.763V45.283H62.8804V44.763H65.5728Z" fill="#EBEBEB"></path>
  <path d="M68.9396 41.7448V46.537H68.3142V41.7448H68.9396ZM70.48 41.7448V42.2648H66.7772V41.7448H70.48Z" fill="#EBEBEB"></path>
  <path d="M72.5204 41.7448V46.537H71.8851V41.7448H72.5204Z" fill="#EBEBEB"></path>
  <path d="M78.0134 43.9895V44.2923C78.0134 44.6522 77.9684 44.9747 77.8785 45.26C77.7885 45.5452 77.659 45.7877 77.4901 45.9874C77.3211 46.187 77.1182 46.3395 76.8812 46.4449C76.6464 46.5502 76.3831 46.6029 76.0913 46.6029C75.8082 46.6029 75.5482 46.5502 75.3112 46.4449C75.0764 46.3395 74.8723 46.187 74.699 45.9874C74.5278 45.7877 74.3951 45.5452 74.3007 45.26C74.2064 44.9747 74.1592 44.6522 74.1592 44.2923V43.9895C74.1592 43.6296 74.2053 43.3082 74.2975 43.0251C74.3918 42.7399 74.5246 42.4974 74.6957 42.2977C74.8669 42.0959 75.0698 41.9423 75.3046 41.8369C75.5416 41.7316 75.8016 41.679 76.0847 41.679C76.3765 41.679 76.6398 41.7316 76.8746 41.8369C77.1116 41.9423 77.3145 42.0959 77.4835 42.2977C77.6547 42.4974 77.7852 42.7399 77.8752 43.0251C77.9673 43.3082 78.0134 43.6296 78.0134 43.9895ZM77.3848 44.2923V43.9829C77.3848 43.6977 77.3551 43.4453 77.2959 43.2259C77.2388 43.0065 77.1544 42.8222 77.0425 42.673C76.9306 42.5237 76.7934 42.4107 76.631 42.3339C76.4709 42.2571 76.2887 42.2187 76.0847 42.2187C75.8872 42.2187 75.7084 42.2571 75.5482 42.3339C75.3902 42.4107 75.2541 42.5237 75.14 42.673C75.0281 42.8222 74.9415 43.0065 74.88 43.2259C74.8186 43.4453 74.7879 43.6977 74.7879 43.9829V44.2923C74.7879 44.5798 74.8186 44.8343 74.88 45.0559C74.9415 45.2753 75.0292 45.4607 75.1433 45.6122C75.2596 45.7614 75.3968 45.8744 75.5548 45.9512C75.7149 46.028 75.8938 46.0664 76.0913 46.0664C76.2975 46.0664 76.4807 46.028 76.6409 45.9512C76.8011 45.8744 76.936 45.7614 77.0458 45.6122C77.1577 45.4607 77.2421 45.2753 77.2992 45.0559C77.3562 44.8343 77.3848 44.5798 77.3848 44.2923Z" fill="#EBEBEB"></path>
  <path d="M83.2991 41.7448V46.537H82.6606L80.248 42.8408V46.537H79.6128V41.7448H80.248L82.6705 45.4509V41.7448H83.2991Z" fill="#EBEBEB"></path>
  <path d="M89.9472 45.3258C89.9472 45.2139 89.9296 45.1152 89.8945 45.0296C89.8616 44.9418 89.8024 44.8628 89.7168 44.7926C89.6334 44.7224 89.5171 44.6555 89.3679 44.5918C89.2209 44.5282 89.0344 44.4635 88.8084 44.3976C88.5714 44.3274 88.3575 44.2495 88.1666 44.1639C87.9757 44.0762 87.8122 43.9763 87.6761 43.8644C87.5401 43.7525 87.4359 43.6242 87.3635 43.4793C87.2911 43.3345 87.2548 43.1689 87.2548 42.9823C87.2548 42.7958 87.2932 42.6236 87.37 42.4656C87.4468 42.3076 87.5566 42.1705 87.6992 42.0542C87.844 41.9357 88.0163 41.8435 88.2159 41.7777C88.4156 41.7119 88.6383 41.679 88.8841 41.679C89.2439 41.679 89.5489 41.7481 89.7991 41.8863C90.0514 42.0224 90.2434 42.2012 90.3751 42.4228C90.5067 42.6422 90.5726 42.877 90.5726 43.1272H89.9406C89.9406 42.9472 89.9022 42.7881 89.8254 42.6499C89.7486 42.5095 89.6323 42.3998 89.4765 42.3208C89.3207 42.2396 89.1233 42.199 88.8841 42.199C88.6581 42.199 88.4716 42.233 88.3245 42.301C88.1775 42.369 88.0678 42.4612 87.9954 42.5775C87.9252 42.6938 87.8901 42.8265 87.8901 42.9758C87.8901 43.0767 87.9109 43.1689 87.9526 43.2522C87.9965 43.3334 88.0634 43.4091 88.1534 43.4793C88.2455 43.5496 88.3618 43.6143 88.5023 43.6735C88.6449 43.7328 88.815 43.7898 89.0124 43.8447C89.2845 43.9215 89.5193 44.0071 89.7168 44.1014C89.9143 44.1958 90.0767 44.3022 90.2039 44.4207C90.3334 44.537 90.4288 44.6697 90.4903 44.8189C90.5539 44.9659 90.5857 45.1327 90.5857 45.3192C90.5857 45.5145 90.5462 45.6911 90.4672 45.8491C90.3882 46.0071 90.2752 46.1421 90.1282 46.254C89.9812 46.3659 89.8046 46.4525 89.5983 46.514C89.3942 46.5732 89.166 46.6029 88.9137 46.6029C88.6921 46.6029 88.4738 46.5721 88.2587 46.5107C88.0459 46.4493 87.8517 46.3571 87.6761 46.2342C87.5028 46.1113 87.3635 45.9599 87.2581 45.78C87.155 45.5979 87.1034 45.3872 87.1034 45.1481H87.7354C87.7354 45.3126 87.7672 45.4542 87.8308 45.5727C87.8945 45.689 87.9811 45.7855 88.0909 45.8623C88.2028 45.9391 88.3289 45.9961 88.4694 46.0334C88.612 46.0686 88.7601 46.0861 88.9137 46.0861C89.1353 46.0861 89.3229 46.0554 89.4765 45.994C89.6301 45.9325 89.7464 45.8447 89.8254 45.7306C89.9066 45.6165 89.9472 45.4816 89.9472 45.3258Z" fill="#EBEBEB"></path>
  <path d="M95.0881 46.0203V46.537H92.5504V46.0203H95.0881ZM92.6788 41.7448V46.537H92.0435V41.7448H92.6788ZM94.7523 43.8052V44.3219H92.5504V43.8052H94.7523ZM95.0552 41.7448V42.2648H92.5504V41.7448H95.0552Z" fill="#EBEBEB"></path>
  <path d="M96.5229 41.7448H98.1093C98.4692 41.7448 98.7731 41.7996 99.021 41.9094C99.2712 42.0191 99.461 42.1814 99.5904 42.3965C99.7221 42.6093 99.7879 42.8715 99.7879 43.1831C99.7879 43.4025 99.7429 43.6033 99.653 43.7854C99.5652 43.9654 99.4379 44.119 99.2712 44.2462C99.1066 44.3713 98.9091 44.4646 98.6787 44.526L98.501 44.5951H97.01L97.0034 44.0784H98.129C98.3573 44.0784 98.5471 44.0389 98.6985 43.9599C98.8499 43.8787 98.964 43.7701 99.0408 43.634C99.1176 43.498 99.156 43.3477 99.156 43.1831C99.156 42.9988 99.1198 42.8375 99.0473 42.6993C98.9749 42.561 98.8608 42.4546 98.705 42.38C98.5514 42.3032 98.3529 42.2648 98.1093 42.2648H97.1581V46.537H96.5229V41.7448ZM99.3238 46.537L98.1587 44.3647L98.8202 44.3614L100.002 46.4975V46.537H99.3238Z" fill="#EBEBEB"></path>
  <path d="M102.806 45.8096L104.218 41.7448H104.906L103.132 46.537H102.641L102.806 45.8096ZM101.486 41.7448L102.885 45.8096L103.059 46.537H102.569L100.798 41.7448H101.486Z" fill="#EBEBEB"></path>
  <path d="M106.88 41.7448V46.537H106.245V41.7448H106.88Z" fill="#EBEBEB"></path>
  <path d="M111.577 45.0131H112.209C112.176 45.3159 112.089 45.5869 111.949 45.8261C111.808 46.0653 111.61 46.2551 111.353 46.3955C111.096 46.5337 110.776 46.6029 110.392 46.6029C110.111 46.6029 109.855 46.5502 109.625 46.4449C109.397 46.3395 109.2 46.1903 109.036 45.9972C108.871 45.802 108.744 45.5683 108.654 45.2962C108.566 45.0219 108.522 44.7169 108.522 44.3812V43.9039C108.522 43.5682 108.566 43.2643 108.654 42.9922C108.744 42.7179 108.872 42.4831 109.039 42.2879C109.208 42.0926 109.411 41.9423 109.648 41.8369C109.885 41.7316 110.152 41.679 110.448 41.679C110.81 41.679 111.116 41.747 111.366 41.883C111.616 42.0191 111.811 42.2078 111.949 42.4491C112.089 42.6883 112.176 42.9659 112.209 43.2819H111.577C111.546 43.058 111.489 42.866 111.406 42.7059C111.322 42.5435 111.204 42.4184 111.05 42.3306C110.897 42.2429 110.696 42.199 110.448 42.199C110.235 42.199 110.047 42.2396 109.885 42.3208C109.725 42.402 109.59 42.5172 109.48 42.6664C109.373 42.8156 109.292 42.9944 109.237 43.2029C109.182 43.4113 109.154 43.6428 109.154 43.8973V44.3812C109.154 44.616 109.179 44.8365 109.227 45.0427C109.277 45.249 109.353 45.43 109.454 45.5858C109.555 45.7416 109.683 45.8645 109.839 45.9545C109.995 46.0422 110.179 46.0861 110.392 46.0861C110.662 46.0861 110.877 46.0433 111.037 45.9577C111.197 45.8722 111.318 45.7493 111.399 45.5891C111.483 45.4289 111.542 45.2369 111.577 45.0131Z" fill="#EBEBEB"></path>
  <path d="M116.767 46.0203V46.537H114.229V46.0203H116.767ZM114.358 41.7448V46.537H113.723V41.7448H114.358ZM116.431 43.8052V44.3219H114.229V43.8052H116.431ZM116.734 41.7448V42.2648H114.229V41.7448H116.734Z" fill="#EBEBEB"></path>
  <path fill-rule="evenodd" clip-rule="evenodd" d="M116.602 50.8148H23.6572V50.6852H116.602V50.8148Z" fill="#403F3F"></path>
  <path fill-rule="evenodd" clip-rule="evenodd" d="M116.602 89.1852H23.6572V89.0555H116.602V89.1852Z" fill="#403F3F"></path>
  <path d="M54.3799 61.5093H57.561V78.0215H54.3799V61.5093Z" fill="#EBEBEB"></path>
  <path d="M67.7758 73.0289C67.7758 75.6675 65.4891 75.9073 64.7269 75.9073C62.9484 75.9073 62.4351 74.3482 62.4351 73.5086V67.1715H60.0317V73.3887C60.0317 74.9479 60.5399 76.3871 61.5562 77.2266C62.4454 78.0662 63.3295 78.426 64.7269 78.426C65.7432 78.426 67.0136 78.1861 67.7758 77.4665V78.0371H70.568V67.1715H67.7758V73.0289Z" fill="#EBEBEB"></path>
  <path d="M76.2849 63.3627H73.363V67.1715H71.5923V69.2915H73.363V78.0371H76.2849V69.2915H78.4445V67.1715H76.2849V63.3627Z" fill="#EBEBEB"></path>
  <path d="M87.6215 75.0119C86.9882 75.4828 86.1017 75.836 85.2151 75.836C83.1887 75.836 81.7956 74.4233 81.7956 72.5397C81.7956 70.6561 83.1887 69.3611 85.2151 69.3611C86.1017 69.3611 86.9882 69.5966 87.6215 70.1852L88.0014 70.5384L90.0278 68.7725L89.5212 68.4193C88.3814 67.4775 86.8616 66.8889 85.2151 66.8889C81.6689 66.8889 79.0093 69.3611 79.0093 72.6574C79.0093 75.9537 81.6689 78.426 85.2151 78.426C86.8616 78.426 88.3814 77.8373 89.5212 76.8955L90.0278 76.5424L88.0014 74.6588L87.6215 75.0119Z" fill="#EBEBEB"></path>
  <path d="M100.425 68.2606C99.5353 67.4211 98.2571 67.0613 96.8597 67.0613C95.8434 67.0613 94.6975 67.3011 93.9353 68.0207V61.3953H91.1431V78.0371H93.9353V72.0694C93.9353 70.1297 95.9705 69.5799 96.7327 69.5799C98.5112 69.5799 98.7731 70.7502 98.7731 71.5897V77.9171H101.695V71.7096C101.695 70.1505 101.314 69.1002 100.425 68.2606Z" fill="#EBEBEB"></path>
  <path d="M85.1019 74.6667C86.2474 74.6667 87.176 73.7381 87.176 72.5926C87.176 71.4472 86.2474 70.5186 85.1019 70.5186C83.9564 70.5186 83.0278 71.4472 83.0278 72.5926C83.0278 73.7381 83.9564 74.6667 85.1019 74.6667Z" fill="#EBEBEB"></path>
  <path d="M50.9429 74.254C49.9325 75.2076 48.4168 75.8036 46.7748 75.8036C43.6172 75.8036 41.3437 73.4196 41.3437 70.2012C41.3437 66.9828 43.6172 64.5988 46.9011 64.5988C48.4168 64.5988 49.9325 65.1948 51.0692 66.2676L51.4481 66.6252L53.3427 64.8372L52.9638 64.4796C51.3218 62.9299 49.1746 62.0955 46.9011 62.0955C42.1015 61.9763 38.5649 65.5524 38.5649 70.2012C38.5649 74.85 42.1015 78.426 46.7748 78.426C49.0483 78.426 51.3218 77.5916 52.8375 76.042L53.2164 75.6844L51.3218 73.8964L50.9429 74.254Z" fill="#EBEBEB"></path>
</svg>
