<?xml version="1.0" encoding="UTF-8"?>
<svg xmlns="http://www.w3.org/2000/svg" width="140" height="140" viewBox="0 0 140 140" fill="none">
  <path d="M70.0648 0L134.88 35L134.88 105L70.0648 140L5.25 105L5.25015 35H5.25L70.0648 0Z" fill="#4E4E4E"></path>
  <path fill-rule="evenodd" clip-rule="evenodd" d="M5.25015 36.037L5.25 105L70.0648 140L134.88 105L134.88 35L70.0648 0L5.25015 34.9999L5.25 35M6.28719 35.6185L70.0648 1.17858L133.842 35.6186L133.843 104.381L70.0648 138.821L6.28704 104.381L6.28719 35.6185ZM5.25015 36.037V34.9999Z" fill="#403F3F"></path>
  <path d="M70.0649 4.40735L130.861 37.2036L130.861 102.796L70.0649 135.593L9.26855 102.796L9.2687 37.2036H9.26855L70.0649 4.40735Z" fill="#403F3F"></path>
  <path d="M9.26855 50.8148H130.861V89.1852H9.26855V50.8148Z" fill="#403F3F"></path>
  <path d="M125.157 39.9259L69.9351 9.85181L14.9723 39.9259L14.9722 54.25H125.157L125.157 39.9259Z" fill="#4E4E4E"></path>
  <path d="M69.9351 130.148L125.157 100.074L125.157 85.75H14.9722L14.9722 100.074L69.9351 130.148Z" fill="#4E4E4E"></path>
  <path fill-rule="evenodd" clip-rule="evenodd" d="M69.9354 10.0881L15.1797 40.0488L15.1797 54.0425H124.95L124.95 40.0491L69.9354 10.0881ZM125.157 39.9259L69.9351 9.85181L14.9723 39.9259L14.9722 54.25H125.157L125.157 39.9259ZM124.95 99.9508L124.95 85.9574H15.1796L15.1796 99.9511L69.9354 129.912L124.95 99.9508ZM69.9351 130.148L125.157 100.074L125.157 85.75H14.9722L14.9722 100.074L69.9351 130.148Z" fill="#403F3F"></path>
  <path d="M52.0938 97.12H52.8395L54.7416 101.853L56.6397 97.12H57.3894L55.0287 102.926H54.4465L52.0938 97.12ZM51.8506 97.12H52.5085L52.6162 100.661V102.926H51.8506V97.12ZM56.9707 97.12H57.6287V102.926H56.863V100.661L56.9707 97.12Z" fill="#EBEBEB"></path>
  <path d="M63.3172 102.3V102.926H60.2427V102.3H63.3172ZM60.3982 97.12V102.926H59.6286V97.12H60.3982ZM62.9104 99.6163V100.242H60.2427V99.6163H62.9104ZM63.2773 97.12V97.7501H60.2427V97.12H63.2773Z" fill="#EBEBEB"></path>
  <path d="M66.4895 102.926H65.2773L65.2852 102.3H66.4895C66.9042 102.3 67.2498 102.214 67.5263 102.041C67.8028 101.865 68.0101 101.621 68.1483 101.307C68.2892 100.991 68.3597 100.621 68.3597 100.198V99.8436C68.3597 99.5113 68.3198 99.2162 68.2401 98.9583C68.1603 98.6978 68.0433 98.4785 67.8892 98.3004C67.735 98.1196 67.5462 97.9827 67.3229 97.8896C67.1023 97.7966 66.8484 97.7501 66.5613 97.7501H65.2533V97.12H66.5613C66.9414 97.12 67.2883 97.1838 67.602 97.3114C67.9157 97.4364 68.1856 97.6185 68.4115 97.8577C68.6402 98.0943 68.8156 98.3815 68.9379 98.7191C69.0602 99.054 69.1213 99.4315 69.1213 99.8516V100.198C69.1213 100.619 69.0602 100.997 68.9379 101.335C68.8156 101.67 68.6388 101.956 68.4075 102.192C68.1789 102.429 67.9024 102.611 67.5781 102.739C67.2564 102.864 66.8936 102.926 66.4895 102.926ZM65.688 97.12V102.926H64.9184V97.12H65.688Z" fill="#EBEBEB"></path>
  <path d="M71.7513 97.12V102.926H70.9817V97.12H71.7513Z" fill="#EBEBEB"></path>
  <path d="M77.3043 101.08H78.0699C78.03 101.447 77.925 101.775 77.7549 102.065C77.5847 102.354 77.3441 102.584 77.0331 102.755C76.7221 102.922 76.3339 103.006 75.8687 103.006C75.5284 103.006 75.2187 102.942 74.9396 102.814C74.6631 102.687 74.4252 102.506 74.2258 102.272C74.0264 102.035 73.8722 101.752 73.7632 101.423C73.6569 101.09 73.6037 100.721 73.6037 100.314V99.7359C73.6037 99.3292 73.6569 98.961 73.7632 98.6313C73.8722 98.299 74.0278 98.0146 74.2298 97.778C74.4345 97.5414 74.6804 97.3593 74.9675 97.2317C75.2546 97.1041 75.5776 97.0403 75.9365 97.0403C76.3751 97.0403 76.746 97.1227 77.0491 97.2875C77.3521 97.4523 77.5874 97.681 77.7549 97.9734C77.925 98.2632 78.03 98.5994 78.0699 98.9823H77.3043C77.267 98.7111 77.1979 98.4785 77.0969 98.2844C76.9959 98.0877 76.8523 97.9362 76.6662 97.8298C76.4802 97.7235 76.2369 97.6703 75.9365 97.6703C75.6786 97.6703 75.4513 97.7195 75.2546 97.8179C75.0606 97.9162 74.8971 98.0558 74.7641 98.2366C74.6339 98.4173 74.5355 98.634 74.4691 98.8866C74.4026 99.1391 74.3694 99.4196 74.3694 99.7279V100.314C74.3694 100.599 74.3986 100.866 74.4571 101.116C74.5182 101.366 74.61 101.585 74.7322 101.774C74.8545 101.962 75.01 102.111 75.1988 102.22C75.3875 102.327 75.6108 102.38 75.8687 102.38C76.1957 102.38 76.4562 102.328 76.6503 102.224C76.8444 102.121 76.9906 101.972 77.0889 101.778C77.1899 101.584 77.2617 101.351 77.3043 101.08Z" fill="#EBEBEB"></path>
  <path d="M81.9161 97.6344L79.9941 102.926H79.2085L81.4216 97.12H81.9281L81.9161 97.6344ZM83.5271 102.926L81.6011 97.6344L81.5891 97.12H82.0956L84.3167 102.926H83.5271ZM83.4274 100.777V101.407H80.1655V100.777H83.4274Z" fill="#EBEBEB"></path>
  <path d="M89.2635 102.3V102.926H86.3605V102.3H89.2635ZM86.512 97.12V102.926H85.7424V97.12H86.512Z" fill="#EBEBEB"></path>
  <path d="M64.0879 113.886V114.463H60.4686V113.958L62.2802 111.941C62.503 111.693 62.6751 111.483 62.7967 111.311C62.9207 111.136 63.0068 110.98 63.0549 110.844C63.1055 110.705 63.1309 110.563 63.1309 110.418C63.1309 110.236 63.0929 110.072 63.0169 109.925C62.9435 109.775 62.8346 109.656 62.6903 109.568C62.546 109.479 62.3713 109.435 62.1662 109.435C61.9206 109.435 61.7156 109.483 61.551 109.579C61.389 109.673 61.2674 109.804 61.1864 109.974C61.1054 110.144 61.0649 110.339 61.0649 110.559H60.3623C60.3623 110.248 60.4307 109.963 60.5674 109.704C60.7041 109.446 60.9066 109.241 61.175 109.089C61.4434 108.935 61.7738 108.858 62.1662 108.858C62.5156 108.858 62.8144 108.92 63.0625 109.044C63.3106 109.165 63.5005 109.337 63.6322 109.56C63.7663 109.78 63.8334 110.039 63.8334 110.335C63.8334 110.497 63.8056 110.661 63.7499 110.829C63.6967 110.993 63.622 111.158 63.5258 111.322C63.4321 111.487 63.322 111.649 63.1954 111.808C63.0714 111.968 62.9384 112.125 62.7967 112.279L61.3155 113.886H64.0879Z" fill="#EBEBEB"></path>
  <path d="M69.1406 111.258V112.101C69.1406 112.554 69.1001 112.936 69.0191 113.248C68.9381 113.559 68.8216 113.81 68.6697 114C68.5178 114.19 68.3342 114.328 68.119 114.414C67.9063 114.497 67.6658 114.539 67.3974 114.539C67.1848 114.539 66.9886 114.512 66.8088 114.459C66.629 114.406 66.467 114.321 66.3227 114.205C66.1809 114.086 66.0594 113.931 65.9581 113.741C65.8568 113.552 65.7796 113.321 65.7264 113.05C65.6733 112.779 65.6467 112.463 65.6467 112.101V111.258C65.6467 110.805 65.6872 110.425 65.7682 110.118C65.8518 109.812 65.9695 109.566 66.1214 109.382C66.2733 109.194 66.4556 109.06 66.6683 108.979C66.8835 108.898 67.124 108.858 67.3899 108.858C67.6051 108.858 67.8025 108.884 67.9823 108.937C68.1646 108.988 68.3266 109.07 68.4684 109.184C68.6102 109.296 68.7305 109.445 68.8292 109.632C68.9305 109.817 69.0077 110.044 69.0609 110.312C69.114 110.58 69.1406 110.896 69.1406 111.258ZM68.4342 112.215V111.14C68.4342 110.892 68.419 110.674 68.3887 110.487C68.3608 110.297 68.319 110.135 68.2633 110.001C68.2076 109.866 68.1367 109.758 68.0507 109.674C67.9671 109.591 67.8696 109.53 67.7582 109.492C67.6494 109.451 67.5266 109.431 67.3899 109.431C67.2228 109.431 67.0746 109.463 66.9455 109.526C66.8164 109.587 66.7075 109.684 66.6189 109.818C66.5328 109.953 66.467 110.129 66.4214 110.346C66.3759 110.564 66.3531 110.829 66.3531 111.14V112.215C66.3531 112.463 66.367 112.682 66.3948 112.872C66.4252 113.062 66.4695 113.226 66.5278 113.365C66.586 113.502 66.6569 113.615 66.7404 113.703C66.824 113.792 66.9202 113.858 67.0291 113.901C67.1405 113.941 67.2633 113.962 67.3974 113.962C67.5696 113.962 67.7203 113.929 67.8494 113.863C67.9785 113.797 68.0861 113.695 68.1722 113.555C68.2608 113.414 68.3266 113.233 68.3697 113.012C68.4127 112.789 68.4342 112.524 68.4342 112.215Z" fill="#EBEBEB"></path>
  <path d="M74.4971 113.886V114.463H70.8779V113.958L72.6894 111.941C72.9122 111.693 73.0844 111.483 73.2059 111.311C73.33 111.136 73.4161 110.98 73.4642 110.844C73.5148 110.705 73.5401 110.563 73.5401 110.418C73.5401 110.236 73.5021 110.072 73.4262 109.925C73.3528 109.775 73.2439 109.656 73.0996 109.568C72.9553 109.479 72.7806 109.435 72.5755 109.435C72.3299 109.435 72.1248 109.483 71.9603 109.579C71.7982 109.673 71.6767 109.804 71.5957 109.974C71.5147 110.144 71.4741 110.339 71.4741 110.559H70.7716C70.7716 110.248 70.8399 109.963 70.9766 109.704C71.1134 109.446 71.3159 109.241 71.5843 109.089C71.8527 108.935 72.1831 108.858 72.5755 108.858C72.9249 108.858 73.2236 108.92 73.4718 109.044C73.7199 109.165 73.9098 109.337 74.0414 109.56C74.1756 109.78 74.2427 110.039 74.2427 110.335C74.2427 110.497 74.2149 110.661 74.1592 110.829C74.106 110.993 74.0313 111.158 73.9351 111.322C73.8414 111.487 73.7313 111.649 73.6047 111.808C73.4806 111.968 73.3477 112.125 73.2059 112.279L71.7248 113.886H74.4971Z" fill="#EBEBEB"></path>
  <path d="M77.1041 111.353H77.6054C77.851 111.353 78.0536 111.312 78.2131 111.231C78.3751 111.148 78.4954 111.035 78.5739 110.893C78.6549 110.749 78.6954 110.587 78.6954 110.407C78.6954 110.194 78.6599 110.016 78.589 109.872C78.5182 109.727 78.4118 109.618 78.27 109.545C78.1282 109.472 77.9485 109.435 77.7308 109.435C77.5333 109.435 77.3586 109.474 77.2067 109.553C77.0573 109.628 76.9396 109.737 76.8535 109.879C76.7699 110.021 76.7281 110.188 76.7281 110.38H76.0256C76.0256 110.099 76.0965 109.844 76.2382 109.613C76.38 109.383 76.5788 109.199 76.8345 109.063C77.0927 108.926 77.3915 108.858 77.7308 108.858C78.065 108.858 78.3574 108.917 78.608 109.036C78.8587 109.153 79.0536 109.327 79.1929 109.56C79.3321 109.791 79.4018 110.078 79.4018 110.422C79.4018 110.561 79.3688 110.711 79.303 110.87C79.2397 111.027 79.1397 111.174 79.003 111.311C78.8688 111.448 78.6941 111.56 78.4789 111.649C78.2637 111.735 78.0055 111.778 77.7042 111.778H77.1041V111.353ZM77.1041 111.93V111.508H77.7042C78.0561 111.508 78.3473 111.55 78.5776 111.634C78.808 111.717 78.9891 111.829 79.1207 111.968C79.2549 112.107 79.3486 112.26 79.4018 112.427C79.4575 112.592 79.4853 112.757 79.4853 112.921C79.4853 113.179 79.441 113.409 79.3524 113.609C79.2663 113.809 79.1435 113.978 78.984 114.117C78.827 114.257 78.6422 114.362 78.4295 114.433C78.2169 114.504 77.9852 114.539 77.7345 114.539C77.494 114.539 77.2674 114.505 77.0548 114.436C76.8446 114.368 76.6585 114.269 76.4965 114.14C76.3344 114.009 76.2079 113.848 76.1167 113.658C76.0256 113.465 75.98 113.246 75.98 113.001H76.6826C76.6826 113.193 76.7243 113.362 76.8079 113.506C76.894 113.65 77.0155 113.763 77.1725 113.844C77.332 113.922 77.5193 113.962 77.7345 113.962C77.9498 113.962 78.1346 113.925 78.289 113.852C78.446 113.776 78.5663 113.662 78.6498 113.51C78.7359 113.358 78.7789 113.167 78.7789 112.936C78.7789 112.706 78.7308 112.517 78.6346 112.37C78.5384 112.221 78.4017 112.111 78.2245 112.04C78.0498 111.967 77.8434 111.93 77.6054 111.93H77.1041Z" fill="#EBEBEB"></path>
  <path d="M64.6106 17.5274V23.3334H63.8529V17.5274H64.6106ZM66.4768 17.5274V18.1574H61.9907V17.5274H66.4768Z" fill="#EBEBEB"></path>
  <path d="M72.5262 20.2469V20.6138C72.5262 21.0498 72.4717 21.4406 72.3628 21.7862C72.2538 22.1318 72.0969 22.4255 71.8922 22.6674C71.6875 22.9094 71.4416 23.0941 71.1545 23.2217C70.87 23.3493 70.551 23.4131 70.1975 23.4131C69.8545 23.4131 69.5395 23.3493 69.2524 23.2217C68.9679 23.0941 68.7207 22.9094 68.5107 22.6674C68.3033 22.4255 68.1425 22.1318 68.0282 21.7862C67.9139 21.4406 67.8567 21.0498 67.8567 20.6138V20.2469C67.8567 19.811 67.9126 19.4215 68.0242 19.0786C68.1385 18.733 68.2994 18.4392 68.5067 18.1973C68.7141 17.9527 68.96 17.7666 69.2444 17.639C69.5315 17.5114 69.8466 17.4476 70.1895 17.4476C70.5431 17.4476 70.8621 17.5114 71.1465 17.639C71.4336 17.7666 71.6795 17.9527 71.8842 18.1973C72.0916 18.4392 72.2498 18.733 72.3588 19.0786C72.4704 19.4215 72.5262 19.811 72.5262 20.2469ZM71.7646 20.6138V20.239C71.7646 19.8934 71.7287 19.5877 71.6569 19.3218C71.5878 19.056 71.4855 18.8327 71.3499 18.6519C71.2143 18.4711 71.0482 18.3342 70.8514 18.2412C70.6574 18.1481 70.4367 18.1016 70.1895 18.1016C69.9502 18.1016 69.7336 18.1481 69.5395 18.2412C69.3481 18.3342 69.1833 18.4711 69.045 18.6519C68.9095 18.8327 68.8045 19.056 68.73 19.3218C68.6556 19.5877 68.6184 19.8934 68.6184 20.239V20.6138C68.6184 20.9621 68.6556 21.2704 68.73 21.5389C68.8045 21.8048 68.9108 22.0294 69.049 22.2128C69.1899 22.3936 69.3561 22.5305 69.5475 22.6236C69.7415 22.7166 69.9582 22.7631 70.1975 22.7631C70.4474 22.7631 70.6693 22.7166 70.8634 22.6236C71.0575 22.5305 71.221 22.3936 71.3539 22.2128C71.4895 22.0294 71.5918 21.8048 71.6609 21.5389C71.73 21.2704 71.7646 20.9621 71.7646 20.6138Z" fill="#EBEBEB"></path>
  <path d="M76.6497 21.0564H75.0985V20.4304H76.6497C76.9501 20.4304 77.1933 20.3825 77.3794 20.2868C77.5655 20.1911 77.7011 20.0582 77.7861 19.8881C77.8739 19.7179 77.9177 19.5239 77.9177 19.3059C77.9177 19.1065 77.8739 18.9191 77.7861 18.7436C77.7011 18.5682 77.5655 18.4273 77.3794 18.3209C77.1933 18.2119 76.9501 18.1574 76.6497 18.1574H75.2779V23.3334H74.5083V17.5274H76.6497C77.0883 17.5274 77.4591 17.6031 77.7622 17.7547C78.0653 17.9062 78.2952 18.1162 78.4521 18.3847C78.6089 18.6506 78.6873 18.955 78.6873 19.2979C78.6873 19.6701 78.6089 19.9878 78.4521 20.2509C78.2952 20.5141 78.0653 20.7148 77.7622 20.8531C77.4591 20.9886 77.0883 21.0564 76.6497 21.0564Z" fill="#EBEBEB"></path>
  <path d="M50.6982 33.4495C50.6982 33.3183 50.6776 33.2024 50.6365 33.102C50.5979 32.9991 50.5284 32.9064 50.428 32.8241C50.3302 32.7417 50.1937 32.6632 50.0187 32.5885C49.8462 32.5139 49.6274 32.4379 49.3623 32.3607C49.0843 32.2784 48.8334 32.187 48.6094 32.0866C48.3855 31.9836 48.1937 31.8665 48.0341 31.7352C47.8745 31.604 47.7523 31.4534 47.6673 31.2835C47.5824 31.1136 47.5399 30.9193 47.5399 30.7005C47.5399 30.4817 47.585 30.2796 47.675 30.0943C47.7651 29.909 47.8938 29.7481 48.0612 29.6117C48.231 29.4727 48.4331 29.3646 48.6673 29.2873C48.9016 29.2101 49.1628 29.1715 49.4511 29.1715C49.8733 29.1715 50.2311 29.2526 50.5245 29.4148C50.8205 29.5743 51.0457 29.7841 51.2002 30.0441C51.3546 30.3015 51.4318 30.5769 51.4318 30.8704H50.6905C50.6905 30.6593 50.6455 30.4727 50.5554 30.3105C50.4653 30.1458 50.3289 30.0171 50.1461 29.9244C49.9634 29.8292 49.7317 29.7816 49.4511 29.7816C49.186 29.7816 48.9672 29.8215 48.7948 29.9012C48.6223 29.981 48.4936 30.0891 48.4086 30.2256C48.3263 30.362 48.2851 30.5177 48.2851 30.6928C48.2851 30.8112 48.3095 30.9193 48.3585 31.0171C48.4099 31.1123 48.4884 31.2011 48.594 31.2835C48.7021 31.3659 48.8385 31.4418 49.0032 31.5113C49.1706 31.5808 49.37 31.6477 49.6017 31.7121C49.9209 31.8022 50.1963 31.9026 50.428 32.0132C50.6596 32.1239 50.8501 32.2488 50.9994 32.3878C51.1513 32.5242 51.2632 32.6799 51.3353 32.8549C51.41 33.0274 51.4473 33.223 51.4473 33.4418C51.4473 33.6709 51.401 33.8781 51.3083 34.0634C51.2156 34.2488 51.0831 34.4071 50.9106 34.5384C50.7381 34.6696 50.5309 34.7713 50.289 34.8434C50.0496 34.9129 49.7819 34.9476 49.4859 34.9476C49.2259 34.9476 48.9698 34.9116 48.7175 34.8395C48.4678 34.7674 48.24 34.6593 48.0341 34.5152C47.8308 34.371 47.6673 34.1934 47.5438 33.9824C47.4228 33.7687 47.3623 33.5216 47.3623 33.241H48.1036C48.1036 33.4341 48.1409 33.6001 48.2156 33.7391C48.2902 33.8755 48.3919 33.9888 48.5206 34.0789C48.6519 34.169 48.7999 34.2359 48.9646 34.2797C49.1319 34.3208 49.3057 34.3414 49.4859 34.3414C49.7459 34.3414 49.9659 34.3054 50.1461 34.2333C50.3263 34.1613 50.4627 34.0583 50.5554 33.9244C50.6506 33.7906 50.6982 33.6323 50.6982 33.4495Z" fill="#EBEBEB"></path>
  <path d="M57.555 31.882V32.2372C57.555 32.6593 57.5022 33.0377 57.3967 33.3723C57.2911 33.7069 57.1392 33.9914 56.941 34.2256C56.7428 34.4598 56.5048 34.6387 56.2268 34.7623C55.9513 34.8858 55.6425 34.9476 55.3001 34.9476C54.9681 34.9476 54.663 34.8858 54.385 34.7623C54.1096 34.6387 53.8702 34.4598 53.6669 34.2256C53.4661 33.9914 53.3104 33.7069 53.1997 33.3723C53.089 33.0377 53.0337 32.6593 53.0337 32.2372V31.882C53.0337 31.4598 53.0877 31.0827 53.1958 30.7507C53.3065 30.4161 53.4623 30.1316 53.663 29.8974C53.8638 29.6606 54.1019 29.4804 54.3773 29.3568C54.6553 29.2333 54.9603 29.1715 55.2924 29.1715C55.6347 29.1715 55.9436 29.2333 56.219 29.3568C56.497 29.4804 56.7351 29.6606 56.9333 29.8974C57.1341 30.1316 57.2873 30.4161 57.3928 30.7507C57.5009 31.0827 57.555 31.4598 57.555 31.882ZM56.8175 32.2372V31.8742C56.8175 31.5396 56.7827 31.2436 56.7132 30.9862C56.6463 30.7288 56.5472 30.5126 56.4159 30.3375C56.2847 30.1625 56.1238 30.0299 55.9333 29.9399C55.7454 29.8498 55.5318 29.8047 55.2924 29.8047C55.0607 29.8047 54.8509 29.8498 54.663 29.9399C54.4777 30.0299 54.3181 30.1625 54.1843 30.3375C54.053 30.5126 53.9513 30.7288 53.8792 30.9862C53.8072 31.2436 53.7711 31.5396 53.7711 31.8742V32.2372C53.7711 32.5744 53.8072 32.873 53.8792 33.1329C53.9513 33.3903 54.0543 33.6078 54.1881 33.7855C54.3246 33.9605 54.4854 34.093 54.6708 34.1831C54.8587 34.2732 55.0684 34.3183 55.3001 34.3183C55.5421 34.3183 55.757 34.2732 55.9449 34.1831C56.1328 34.093 56.2911 33.9605 56.4198 33.7855C56.5511 33.6078 56.6502 33.3903 56.7171 33.1329C56.784 32.873 56.8175 32.5744 56.8175 32.2372Z" fill="#EBEBEB"></path>
  <path d="M60.2456 29.2487V34.8704H59.5004V29.2487H60.2456ZM62.6008 31.7777V32.3878H60.0834V31.7777H62.6008ZM62.9831 29.2487V29.8588H60.0834V29.2487H62.9831Z" fill="#EBEBEB"></path>
  <path d="M66.8552 29.2487V34.8704H66.1216V29.2487H66.8552ZM68.6622 29.2487V29.8588H64.3185V29.2487H68.6622Z" fill="#EBEBEB"></path>
  <path d="M71.8663 33.1715L72.9822 29.2487H73.5227L73.21 30.7738L72.0092 34.8704H71.4725L71.8663 33.1715ZM70.7119 29.2487L71.5999 33.0943L71.8663 34.8704H71.3335L69.9706 29.2487H70.7119ZM74.9668 33.0905L75.8355 29.2487H76.5807L75.2216 34.8704H74.6888L74.9668 33.0905ZM73.6038 29.2487L74.6888 33.1715L75.0826 34.8704H74.5459L73.3876 30.7738L73.071 29.2487H73.6038Z" fill="#EBEBEB"></path>
  <path d="M80.1478 29.7468L78.2868 34.8704H77.5261L79.669 29.2487H80.1594L80.1478 29.7468ZM81.7076 34.8704L79.8428 29.7468L79.8312 29.2487H80.3215L82.4721 34.8704H81.7076ZM81.6111 32.7893V33.3993H78.4528V32.7893H81.6111Z" fill="#EBEBEB"></path>
  <path d="M84.0547 29.2487H85.9157C86.3378 29.2487 86.6943 29.3131 86.9852 29.4418C87.2786 29.5705 87.5013 29.761 87.6531 30.0132C87.8076 30.2629 87.8848 30.5705 87.8848 30.936C87.8848 31.1934 87.832 31.4289 87.7265 31.6426C87.6235 31.8536 87.4742 32.0338 87.2786 32.1831C87.0856 32.3298 86.8539 32.4392 86.5836 32.5113L86.3751 32.5924H84.6261L84.6184 31.9862H85.9388C86.2065 31.9862 86.4292 31.9399 86.6068 31.8472C86.7844 31.752 86.9183 31.6246 87.0083 31.465C87.0984 31.3054 87.1435 31.1291 87.1435 30.936C87.1435 30.7198 87.101 30.5306 87.0161 30.3684C86.9311 30.2063 86.7973 30.0814 86.6145 29.9939C86.4343 29.9038 86.2014 29.8588 85.9157 29.8588H84.7998V34.8704H84.0547V29.2487ZM87.3404 34.8704L85.9736 32.3221L86.7497 32.3183L88.1358 34.8241V34.8704H87.3404Z" fill="#EBEBEB"></path>
  <path d="M93.3284 34.2642V34.8704H90.3515V34.2642H93.3284ZM90.5021 29.2487V34.8704H89.7569V29.2487H90.5021ZM92.9345 31.6657V32.2719H90.3515V31.6657H92.9345ZM93.2898 29.2487V29.8588H90.3515V29.2487H93.2898Z" fill="#EBEBEB"></path>
  <path d="M44.907 46.6667H43.7332L43.741 46.0605H44.907C45.3085 46.0605 45.6432 45.9768 45.9109 45.8095C46.1786 45.6396 46.3793 45.4028 46.5132 45.0991C46.6496 44.7928 46.7178 44.435 46.7178 44.0257V43.6821C46.7178 43.3603 46.6792 43.0746 46.602 42.8249C46.5248 42.5727 46.4115 42.3603 46.2622 42.1879C46.1129 42.0128 45.9302 41.8803 45.7139 41.7902C45.5003 41.7001 45.2545 41.655 44.9765 41.655H43.7101V41.045H44.9765C45.3446 41.045 45.6805 41.1068 45.9842 41.2303C46.288 41.3513 46.5492 41.5276 46.768 41.7593C46.9894 41.9884 47.1593 42.2664 47.2777 42.5933C47.3961 42.9176 47.4553 43.2831 47.4553 43.6898V44.0257C47.4553 44.4324 47.3961 44.7992 47.2777 45.1261C47.1593 45.4504 46.9881 45.7271 46.7642 45.9562C46.5428 46.1853 46.2751 46.3616 45.9611 46.4852C45.6496 46.6062 45.2982 46.6667 44.907 46.6667ZM44.1309 41.045V46.6667H43.3857V41.045H44.1309Z" fill="#EBEBEB"></path>
  <path d="M52.9761 46.0605V46.6667H49.9992V46.0605H52.9761ZM50.1498 41.045V46.6667H49.4046V41.045H50.1498ZM52.5822 43.462V44.0682H49.9992V43.462H52.5822ZM52.9375 41.045V41.655H49.9992V41.045H52.9375Z" fill="#EBEBEB"></path>
  <path d="M56.5432 45.8134L58.1996 41.045H59.0065L56.9254 46.6667H56.3501L56.5432 45.8134ZM54.9949 41.045L56.6358 45.8134L56.8405 46.6667H56.2652L54.1879 41.045H54.9949Z" fill="#EBEBEB"></path>
  <path d="M64.1644 46.0605V46.6667H61.1875V46.0605H64.1644ZM61.3381 41.045V46.6667H60.5929V41.045H61.3381ZM63.7705 43.462V44.0682H61.1875V43.462H63.7705ZM64.1258 41.045V41.655H61.1875V41.045H64.1258Z" fill="#EBEBEB"></path>
  <path d="M69.3261 46.0605V46.6667H66.5153V46.0605H69.3261ZM66.662 41.045V46.6667H65.9168V41.045H66.662Z" fill="#EBEBEB"></path>
  <path d="M75.0824 43.6782V44.0334C75.0824 44.4556 75.0296 44.834 74.9241 45.1686C74.8186 45.5032 74.6667 45.7876 74.4685 46.0219C74.2703 46.2561 74.0322 46.435 73.7542 46.5586C73.4788 46.6821 73.1699 46.7439 72.8276 46.7439C72.4955 46.7439 72.1905 46.6821 71.9125 46.5586C71.6371 46.435 71.3977 46.2561 71.1943 46.0219C70.9936 45.7876 70.8378 45.5032 70.7271 45.1686C70.6165 44.834 70.5611 44.4556 70.5611 44.0334V43.6782C70.5611 43.2561 70.6152 42.879 70.7233 42.5469C70.834 42.2123 70.9897 41.9279 71.1905 41.6936C71.3912 41.4568 71.6293 41.2767 71.9048 41.1531C72.1828 41.0296 72.4878 40.9678 72.8198 40.9678C73.1622 40.9678 73.4711 41.0296 73.7465 41.1531C74.0245 41.2767 74.2626 41.4568 74.4608 41.6936C74.6615 41.9279 74.8147 42.2123 74.9202 42.5469C75.0283 42.879 75.0824 43.2561 75.0824 43.6782ZM74.3449 44.0334V43.6705C74.3449 43.3359 74.3102 43.0399 74.2407 42.7825C74.1738 42.5251 74.0747 42.3088 73.9434 42.1338C73.8121 41.9588 73.6512 41.8262 73.4608 41.7361C73.2729 41.646 73.0592 41.601 72.8198 41.601C72.5882 41.601 72.3784 41.646 72.1905 41.7361C72.0052 41.8262 71.8456 41.9588 71.7117 42.1338C71.5804 42.3088 71.4788 42.5251 71.4067 42.7825C71.3346 43.0399 71.2986 43.3359 71.2986 43.6705V44.0334C71.2986 44.3706 71.3346 44.6692 71.4067 44.9292C71.4788 45.1866 71.5817 45.4041 71.7156 45.5817C71.852 45.7567 72.0129 45.8893 72.1982 45.9794C72.3861 46.0695 72.5959 46.1145 72.8276 46.1145C73.0695 46.1145 73.2844 46.0695 73.4723 45.9794C73.6603 45.8893 73.8186 45.7567 73.9473 45.5817C74.0785 45.4041 74.1776 45.1866 74.2446 44.9292C74.3115 44.6692 74.3449 44.3706 74.3449 44.0334Z" fill="#EBEBEB"></path>
  <path d="M79.1012 44.462H77.5993V43.8558H79.1012C79.3921 43.8558 79.6276 43.8095 79.8078 43.7168C79.988 43.6242 80.1193 43.4955 80.2016 43.3307C80.2866 43.166 80.3291 42.9781 80.3291 42.767C80.3291 42.574 80.2866 42.3925 80.2016 42.2226C80.1193 42.0527 79.988 41.9163 79.8078 41.8133C79.6276 41.7078 79.3921 41.655 79.1012 41.655H77.773V46.6667H77.0279V41.045H79.1012C79.526 41.045 79.885 41.1184 80.1785 41.2651C80.4719 41.4118 80.6946 41.6151 80.8464 41.8751C80.9983 42.1325 81.0742 42.4272 81.0742 42.7593C81.0742 43.1197 80.9983 43.4273 80.8464 43.6821C80.6946 43.9369 80.4719 44.1313 80.1785 44.2651C79.885 44.3964 79.526 44.462 79.1012 44.462Z" fill="#EBEBEB"></path>
  <path d="M86.4174 46.0605V46.6667H83.4406V46.0605H86.4174ZM83.5911 41.045V46.6667H82.846V41.045H83.5911ZM86.0236 43.462V44.0682H83.4406V43.462H86.0236ZM86.3788 41.045V41.655H83.4406V41.045H86.3788Z" fill="#EBEBEB"></path>
  <path d="M88.1698 41.045H90.0309C90.453 41.045 90.8095 41.1093 91.1004 41.238C91.3938 41.3667 91.6165 41.5572 91.7683 41.8095C91.9228 42.0592 92 42.3668 92 42.7323C92 42.9897 91.9472 43.2252 91.8417 43.4388C91.7387 43.6499 91.5894 43.8301 91.3938 43.9794C91.2008 44.1261 90.9691 44.2355 90.6988 44.3076L90.4903 44.3887H88.7413L88.7336 43.7825H90.054C90.3217 43.7825 90.5444 43.7361 90.722 43.6435C90.8996 43.5482 91.0334 43.4208 91.1235 43.2612C91.2136 43.1016 91.2587 42.9253 91.2587 42.7323C91.2587 42.516 91.2162 42.3269 91.1313 42.1647C91.0463 42.0025 90.9125 41.8777 90.7297 41.7902C90.5495 41.7001 90.3166 41.655 90.0309 41.655H88.915V46.6667H88.1698V41.045ZM91.4556 46.6667L90.0888 44.1184L90.8648 44.1145L92.251 46.6203V46.6667H91.4556Z" fill="#EBEBEB"></path>
  <path d="M96.8683 45.2458C96.8683 45.1145 96.8477 44.9987 96.8065 44.8983C96.7679 44.7953 96.6984 44.7027 96.598 44.6203C96.5002 44.5379 96.3638 44.4594 96.1887 44.3848C96.0163 44.3101 95.7975 44.2342 95.5323 44.157C95.2544 44.0746 95.0034 43.9832 94.7794 43.8829C94.5555 43.7799 94.3637 43.6628 94.2041 43.5315C94.0446 43.4002 93.9223 43.2496 93.8373 43.0798C93.7524 42.9099 93.7099 42.7155 93.7099 42.4967C93.7099 42.278 93.755 42.0759 93.8451 41.8906C93.9352 41.7052 94.0639 41.5444 94.2312 41.4079C94.4011 41.2689 94.6031 41.1608 94.8374 41.0836C95.0716 41.0064 95.3329 40.9678 95.6211 40.9678C96.0433 40.9678 96.4011 41.0489 96.6945 41.211C96.9905 41.3706 97.2158 41.5804 97.3702 41.8404C97.5246 42.0978 97.6019 42.3732 97.6019 42.6666H96.8605C96.8605 42.4556 96.8155 42.2689 96.7254 42.1068C96.6353 41.942 96.4989 41.8133 96.3161 41.7207C96.1334 41.6254 95.9017 41.5778 95.6211 41.5778C95.356 41.5778 95.1372 41.6177 94.9648 41.6975C94.7923 41.7773 94.6636 41.8854 94.5787 42.0218C94.4963 42.1583 94.4551 42.314 94.4551 42.489C94.4551 42.6074 94.4796 42.7155 94.5285 42.8133C94.58 42.9086 94.6585 42.9974 94.764 43.0798C94.8721 43.1621 95.0085 43.2381 95.1733 43.3076C95.3406 43.3771 95.5401 43.444 95.7717 43.5083C96.0909 43.5984 96.3663 43.6988 96.598 43.8095C96.8297 43.9202 97.0201 44.045 97.1694 44.184C97.3213 44.3204 97.4333 44.4762 97.5053 44.6512C97.58 44.8237 97.6173 45.0193 97.6173 45.2381C97.6173 45.4672 97.571 45.6744 97.4783 45.8597C97.3856 46.045 97.2531 46.2033 97.0806 46.3346C96.9082 46.4659 96.701 46.5676 96.459 46.6396C96.2196 46.7091 95.9519 46.7439 95.6559 46.7439C95.3959 46.7439 95.1398 46.7079 94.8876 46.6358C94.6379 46.5637 94.4101 46.4556 94.2041 46.3115C94.0008 46.1673 93.8373 45.9897 93.7138 45.7786C93.5928 45.565 93.5323 45.3179 93.5323 45.0373H94.2736C94.2736 45.2304 94.311 45.3964 94.3856 45.5354C94.4603 45.6718 94.5619 45.7851 94.6906 45.8752C94.8219 45.9652 94.9699 46.0322 95.1347 46.0759C95.302 46.1171 95.4757 46.1377 95.6559 46.1377C95.9159 46.1377 96.136 46.1017 96.3161 46.0296C96.4963 45.9575 96.6327 45.8546 96.7254 45.7207C96.8206 45.5869 96.8683 45.4286 96.8683 45.2458Z" fill="#EBEBEB"></path>
  <path fill-rule="evenodd" clip-rule="evenodd" d="M116.544 51.1296H23.5996V51H116.544V51.1296Z" fill="#403F3F"></path>
  <path fill-rule="evenodd" clip-rule="evenodd" d="M116.602 89.1852H23.6572V89.0555H116.602V89.1852Z" fill="#403F3F"></path>
  <path d="M54.3799 61.5093H57.561V78.0215H54.3799V61.5093Z" fill="#EBEBEB"></path>
  <path d="M67.7758 73.0289C67.7758 75.6675 65.4891 75.9073 64.7269 75.9073C62.9484 75.9073 62.4351 74.3482 62.4351 73.5087V67.1715H60.0317V73.3887C60.0317 74.9479 60.5399 76.3871 61.5562 77.2266C62.4454 78.0662 63.3295 78.426 64.7269 78.426C65.7432 78.426 67.0136 78.1861 67.7758 77.4665V78.0371H70.568V67.1715H67.7758V73.0289Z" fill="#EBEBEB"></path>
  <path d="M76.2849 63.3627H73.363V67.1715H71.5923V69.2915H73.363V78.0371H76.2849V69.2915H78.4445V67.1715H76.2849V63.3627Z" fill="#EBEBEB"></path>
  <path d="M87.6215 75.0119C86.9882 75.4828 86.1017 75.836 85.2151 75.836C83.1887 75.836 81.7956 74.4233 81.7956 72.5397C81.7956 70.6561 83.1887 69.3611 85.2151 69.3611C86.1017 69.3611 86.9882 69.5966 87.6215 70.1852L88.0014 70.5384L90.0278 68.7725L89.5212 68.4193C88.3814 67.4775 86.8616 66.8889 85.2151 66.8889C81.6689 66.8889 79.0093 69.3611 79.0093 72.6574C79.0093 75.9537 81.6689 78.426 85.2151 78.426C86.8616 78.426 88.3814 77.8373 89.5212 76.8955L90.0278 76.5424L88.0014 74.6588L87.6215 75.0119Z" fill="#EBEBEB"></path>
  <path d="M100.425 68.2606C99.5353 67.4211 98.2571 67.0613 96.8597 67.0613C95.8434 67.0613 94.6975 67.3011 93.9353 68.0207V61.3953H91.1431V78.0371H93.9353V72.0694C93.9353 70.1297 95.9705 69.5799 96.7327 69.5799C98.5112 69.5799 98.7731 70.7502 98.7731 71.5897V77.9171H101.695V71.7096C101.695 70.1505 101.314 69.1002 100.425 68.2606Z" fill="#EBEBEB"></path>
  <path d="M85.1019 74.6667C86.2474 74.6667 87.176 73.7381 87.176 72.5926C87.176 71.4472 86.2474 70.5186 85.1019 70.5186C83.9564 70.5186 83.0278 71.4472 83.0278 72.5926C83.0278 73.7381 83.9564 74.6667 85.1019 74.6667Z" fill="#EBEBEB"></path>
  <path d="M50.9429 74.254C49.9325 75.2076 48.4168 75.8036 46.7748 75.8036C43.6172 75.8036 41.3437 73.4196 41.3437 70.2012C41.3437 66.9828 43.6172 64.5988 46.9011 64.5988C48.4168 64.5988 49.9325 65.1948 51.0692 66.2676L51.4481 66.6252L53.3427 64.8372L52.9638 64.4796C51.3218 62.9299 49.1746 62.0955 46.9011 62.0955C42.1015 61.9763 38.5649 65.5524 38.5649 70.2012C38.5649 74.85 42.1015 78.426 46.7748 78.426C49.0483 78.426 51.3218 77.5916 52.8375 76.042L53.2164 75.6844L51.3218 73.8964L50.9429 74.254Z" fill="#EBEBEB"></path>
</svg>
