<?xml version="1.0" encoding="UTF-8"?>
<svg xmlns="http://www.w3.org/2000/svg" width="140" height="140" viewBox="0 0 140 140" fill="none">
  <path d="M70.0648 0L134.88 35L134.88 105L70.0648 140L5.25 105L5.25015 35H5.25L70.0648 0Z" fill="#4E4E4E"></path>
  <path fill-rule="evenodd" clip-rule="evenodd" d="M5.25015 36.037L5.25 105L70.0648 140L134.88 105L134.88 35L70.0648 0L5.25015 34.9999L5.25 35M6.28719 35.6185L70.0648 1.17858L133.842 35.6186L133.843 104.381L70.0648 138.821L6.28704 104.381L6.28719 35.6185ZM5.25015 36.037V34.9999Z" fill="#403F3F"></path>
  <path d="M70.0649 4.40735L130.861 37.2036L130.861 102.796L70.0649 135.593L9.26855 102.796L9.2687 37.2036H9.26855L70.0649 4.40735Z" fill="#403F3F"></path>
  <path d="M9.49512 50.75H131.088V89.1204H9.49512V50.75Z" fill="#403F3F"></path>
  <path d="M125.157 39.9259L69.9351 9.85181L14.9723 39.9259L14.9722 54.25H125.157L125.157 39.9259Z" fill="#4E4E4E"></path>
  <path d="M69.9351 130.148L125.157 100.074L125.157 85.75H14.9722L14.9722 100.074L69.9351 130.148Z" fill="#4E4E4E"></path>
  <path fill-rule="evenodd" clip-rule="evenodd" d="M69.9354 10.0881L15.1797 40.0488L15.1797 54.0425H124.95L124.95 40.0491L69.9354 10.0881ZM125.157 39.9259L69.9351 9.85181L14.9723 39.9259L14.9722 54.25H125.157L125.157 39.9259ZM124.95 99.9508L124.95 85.9574H15.1796L15.1796 99.9511L69.9354 129.912L124.95 99.9508ZM69.9351 130.148L125.157 100.074L125.157 85.75H14.9722L14.9722 100.074L69.9351 130.148Z" fill="#403F3F"></path>
  <path d="M64.8402 99.9628V100.463H61.7035V100.025L63.2735 98.2776C63.4666 98.0625 63.6158 97.8804 63.7211 97.7312C63.8286 97.5798 63.9032 97.4449 63.9449 97.3264C63.9888 97.2057 64.0107 97.0828 64.0107 96.9577C64.0107 96.7998 63.9778 96.6571 63.912 96.5299C63.8484 96.4004 63.754 96.2973 63.6289 96.2205C63.5039 96.1437 63.3525 96.1053 63.1747 96.1053C62.9619 96.1053 62.7842 96.147 62.6415 96.2303C62.5011 96.3115 62.3958 96.4256 62.3256 96.5726C62.2553 96.7197 62.2202 96.8886 62.2202 97.0795H61.6113C61.6113 96.8096 61.6706 96.5628 61.7891 96.339C61.9076 96.1151 62.0831 95.9374 62.3157 95.8058C62.5483 95.6719 62.8346 95.605 63.1747 95.605C63.4775 95.605 63.7365 95.6587 63.9515 95.7663C64.1665 95.8716 64.3311 96.0208 64.4452 96.2139C64.5615 96.4048 64.6196 96.6286 64.6196 96.8853C64.6196 97.0258 64.5955 97.1684 64.5472 97.3132C64.5012 97.4558 64.4364 97.5985 64.353 97.7411C64.2719 97.8837 64.1764 98.0241 64.0667 98.1624C63.9592 98.3006 63.844 98.4367 63.7211 98.5705L62.4375 99.9628H64.8402Z" fill="#EBEBEB"></path>
  <path d="M69.3298 97.6851V98.4158C69.3298 98.8086 69.2947 99.1399 69.2245 99.4098C69.1543 99.6797 69.0533 99.8969 68.9217 100.062C68.79 100.226 68.6309 100.346 68.4444 100.42C68.2601 100.493 68.0517 100.529 67.8191 100.529C67.6348 100.529 67.4647 100.506 67.3089 100.46C67.1531 100.414 67.0127 100.34 66.8876 100.239C66.7647 100.136 66.6594 100.002 66.5716 99.8377C66.4839 99.6731 66.4169 99.4734 66.3709 99.2387C66.3248 99.0039 66.3017 98.7296 66.3017 98.4158V97.6851C66.3017 97.2924 66.3369 96.9632 66.4071 96.6977C66.4795 96.4322 66.5815 96.2194 66.7132 96.0592C66.8448 95.8968 67.0028 95.7805 67.1871 95.7103C67.3736 95.6401 67.5821 95.605 67.8125 95.605C67.999 95.605 68.1701 95.628 68.3259 95.6741C68.4839 95.718 68.6244 95.7893 68.7472 95.888C68.8701 95.9846 68.9743 96.114 69.0599 96.2764C69.1477 96.4366 69.2146 96.633 69.2607 96.8656C69.3068 97.0982 69.3298 97.3714 69.3298 97.6851ZM68.7176 98.5146V97.5831C68.7176 97.3681 68.7044 97.1794 68.6781 97.017C68.654 96.8524 68.6178 96.712 68.5695 96.5957C68.5212 96.4794 68.4598 96.385 68.3852 96.3126C68.3128 96.2402 68.2283 96.1876 68.1317 96.1546C68.0374 96.1195 67.931 96.102 67.8125 96.102C67.6677 96.102 67.5393 96.1294 67.4274 96.1843C67.3155 96.2369 67.2211 96.3214 67.1443 96.4377C67.0697 96.554 67.0127 96.7065 66.9732 96.8952C66.9337 97.0839 66.9139 97.3132 66.9139 97.5831V98.5146C66.9139 98.7296 66.926 98.9194 66.9501 99.084C66.9765 99.2485 67.0149 99.3912 67.0653 99.5118C67.1158 99.6303 67.1773 99.728 67.2497 99.8048C67.3221 99.8816 67.4055 99.9386 67.4998 99.9759C67.5964 100.011 67.7028 100.029 67.8191 100.029C67.9683 100.029 68.0988 100 68.2107 99.943C68.3226 99.886 68.4159 99.7971 68.4905 99.6764C68.5673 99.5535 68.6244 99.3966 68.6617 99.2057C68.699 99.0127 68.7176 98.7823 68.7176 98.5146Z" fill="#EBEBEB"></path>
  <path d="M74.0828 99.9628V100.463H70.9461V100.025L72.5161 98.2776C72.7092 98.0625 72.8584 97.8804 72.9637 97.7312C73.0712 97.5798 73.1458 97.4449 73.1875 97.3264C73.2314 97.2057 73.2533 97.0828 73.2533 96.9577C73.2533 96.7998 73.2204 96.6571 73.1546 96.5299C73.091 96.4004 72.9966 96.2973 72.8715 96.2205C72.7465 96.1437 72.5951 96.1053 72.4173 96.1053C72.2045 96.1053 72.0267 96.147 71.8841 96.2303C71.7437 96.3115 71.6384 96.4256 71.5682 96.5726C71.4979 96.7197 71.4628 96.8886 71.4628 97.0795H70.8539C70.8539 96.8096 70.9132 96.5628 71.0317 96.339C71.1501 96.1151 71.3257 95.9374 71.5583 95.8058C71.7909 95.6719 72.0772 95.605 72.4173 95.605C72.7201 95.605 72.9791 95.6587 73.1941 95.7663C73.4091 95.8716 73.5737 96.0208 73.6878 96.2139C73.8041 96.4048 73.8622 96.6286 73.8622 96.8853C73.8622 97.0258 73.8381 97.1684 73.7898 97.3132C73.7438 97.4558 73.679 97.5985 73.5956 97.7411C73.5145 97.8837 73.419 98.0241 73.3093 98.1624C73.2018 98.3006 73.0866 98.4367 72.9637 98.5705L71.6801 99.9628H74.0828Z" fill="#EBEBEB"></path>
  <path d="M76.4528 97.7674H76.8872C77.1001 97.7674 77.2756 97.7323 77.4138 97.6621C77.5543 97.5897 77.6585 97.492 77.7265 97.3692C77.7967 97.2441 77.8318 97.1037 77.8318 96.9479C77.8318 96.7635 77.8011 96.6089 77.7397 96.4838C77.6782 96.3587 77.5861 96.2644 77.4632 96.2007C77.3403 96.1371 77.1845 96.1053 76.9958 96.1053C76.8247 96.1053 76.6733 96.1393 76.5416 96.2073C76.4122 96.2731 76.3101 96.3675 76.2355 96.4904C76.1631 96.6132 76.1269 96.7581 76.1269 96.9248H75.518C75.518 96.6813 75.5794 96.4596 75.7023 96.26C75.8252 96.0603 75.9974 95.9012 76.2191 95.7827C76.4429 95.6642 76.7018 95.605 76.9958 95.605C77.2855 95.605 77.5389 95.6565 77.7561 95.7597C77.9734 95.8606 78.1423 96.012 78.263 96.2139C78.3837 96.4136 78.444 96.6626 78.444 96.961C78.444 97.0817 78.4155 97.2112 78.3585 97.3494C78.3036 97.4855 78.2169 97.6127 78.0984 97.7312C77.9822 97.8497 77.8307 97.9473 77.6442 98.0241C77.4577 98.0987 77.2339 98.136 76.9728 98.136H76.4528V97.7674ZM76.4528 98.2677V97.9024H76.9728C77.2778 97.9024 77.5301 97.9386 77.7298 98.011C77.9295 98.0834 78.0864 98.1799 78.2005 98.3006C78.3168 98.4213 78.398 98.5541 78.444 98.6989C78.4923 98.8415 78.5165 98.9841 78.5165 99.1268C78.5165 99.3506 78.4781 99.5491 78.4013 99.7225C78.3267 99.8958 78.2202 100.043 78.082 100.164C77.9459 100.284 77.7858 100.375 77.6014 100.437C77.4171 100.498 77.2164 100.529 76.9991 100.529C76.7907 100.529 76.5943 100.499 76.41 100.44C76.2278 100.381 76.0666 100.295 75.9261 100.183C75.7857 100.069 75.676 99.9299 75.597 99.7653C75.518 99.5985 75.4785 99.4087 75.4785 99.1959H76.0874C76.0874 99.3626 76.1236 99.5086 76.196 99.6336C76.2706 99.7587 76.376 99.8563 76.512 99.9266C76.6502 99.9946 76.8126 100.029 76.9991 100.029C77.1856 100.029 77.3458 99.9968 77.4797 99.9331C77.6157 99.8673 77.7199 99.7686 77.7923 99.6369C77.867 99.5053 77.9043 99.3396 77.9043 99.1399C77.9043 98.9402 77.8626 98.7768 77.7792 98.6495C77.6958 98.52 77.5773 98.4246 77.4237 98.3632C77.2723 98.2995 77.0935 98.2677 76.8872 98.2677H76.4528Z" fill="#EBEBEB"></path>
  <path d="M66.4669 19.1113V23.0741H65.9498V19.1113H66.4669ZM67.7406 19.1113V19.5414H64.6787V19.1113H67.7406Z" fill="#EBEBEB"></path>
  <path d="M71.7182 20.9675V21.2179C71.7182 21.5155 71.681 21.7822 71.6066 22.0181C71.5322 22.254 71.4251 22.4545 71.2854 22.6196C71.1457 22.7847 70.9779 22.9108 70.7819 22.9979C70.5878 23.085 70.37 23.1286 70.1287 23.1286C69.8946 23.1286 69.6796 23.085 69.4837 22.9979C69.2895 22.9108 69.1208 22.7847 68.9774 22.6196C68.8359 22.4545 68.7261 22.254 68.6481 22.0181C68.5701 21.7822 68.5311 21.5155 68.5311 21.2179V20.9675C68.5311 20.67 68.5692 20.4041 68.6454 20.1701C68.7234 19.9342 68.8332 19.7337 68.9747 19.5686C69.1162 19.4016 69.2841 19.2746 69.4782 19.1875C69.6742 19.1004 69.8892 19.0569 70.1233 19.0569C70.3646 19.0569 70.5823 19.1004 70.7765 19.1875C70.9724 19.2746 71.1403 19.4016 71.28 19.5686C71.4215 19.7337 71.5295 19.9342 71.6039 20.1701C71.6801 20.4041 71.7182 20.67 71.7182 20.9675ZM71.1983 21.2179V20.9621C71.1983 20.7262 71.1738 20.5175 71.1248 20.3361C71.0777 20.1546 71.0078 20.0022 70.9153 19.8788C70.8227 19.7555 70.7093 19.662 70.5751 19.5985C70.4426 19.535 70.292 19.5032 70.1233 19.5032C69.96 19.5032 69.8121 19.535 69.6796 19.5985C69.549 19.662 69.4365 19.7555 69.3421 19.8788C69.2496 20.0022 69.1779 20.1546 69.1271 20.3361C69.0763 20.5175 69.0509 20.7262 69.0509 20.9621V21.2179C69.0509 21.4556 69.0763 21.6661 69.1271 21.8494C69.1779 22.0308 69.2505 22.1841 69.3448 22.3093C69.441 22.4327 69.5544 22.5262 69.6851 22.5897C69.8175 22.6532 69.9654 22.6849 70.1287 22.6849C70.2993 22.6849 70.4508 22.6532 70.5832 22.5897C70.7157 22.5262 70.8273 22.4327 70.918 22.3093C71.0105 22.1841 71.0804 22.0308 71.1276 21.8494C71.1747 21.6661 71.1983 21.4556 71.1983 21.2179Z" fill="#EBEBEB"></path>
  <path d="M74.3811 21.52H73.3224V21.0927H74.3811C74.5862 21.0927 74.7522 21.0601 74.8792 20.9947C75.0062 20.9294 75.0988 20.8387 75.1568 20.7226C75.2167 20.6064 75.2466 20.474 75.2466 20.3252C75.2466 20.1891 75.2167 20.0612 75.1568 19.9414C75.0988 19.8217 75.0062 19.7255 74.8792 19.6529C74.7522 19.5785 74.5862 19.5414 74.3811 19.5414H73.4449V23.0741H72.9196V19.1113H74.3811C74.6805 19.1113 74.9336 19.163 75.1405 19.2665C75.3473 19.3699 75.5043 19.5132 75.6114 19.6965C75.7184 19.8779 75.7719 20.0857 75.7719 20.3198C75.7719 20.5738 75.7184 20.7906 75.6114 20.9703C75.5043 21.1499 75.3473 21.2869 75.1405 21.3812C74.9336 21.4738 74.6805 21.52 74.3811 21.52Z" fill="#EBEBEB"></path>
  <path d="M57.7094 31.7206H56.7051L56.6997 31.2988H57.6115C57.7621 31.2988 57.8936 31.2734 58.0061 31.2226C58.1186 31.1718 58.2057 31.0992 58.2674 31.0048C58.3309 30.9087 58.3627 30.7944 58.3627 30.6619C58.3627 30.5167 58.3345 30.3988 58.2783 30.3081C58.2239 30.2155 58.1395 30.1484 58.0252 30.1067C57.9127 30.0631 57.7693 30.0414 57.5951 30.0414H56.8222V33.5741H56.2969V29.6113H57.5951C57.7984 29.6113 57.9798 29.6322 58.1395 29.6739C58.2992 29.7138 58.4343 29.7773 58.545 29.8644C58.6575 29.9497 58.7428 30.0586 58.8009 30.191C58.8589 30.3235 58.8879 30.4823 58.8879 30.6673C58.8879 30.8306 58.8462 30.9785 58.7627 31.111C58.6793 31.2416 58.5632 31.3487 58.4144 31.4321C58.2674 31.5156 58.095 31.5691 57.8972 31.5927L57.7094 31.7206ZM57.685 33.5741H56.4983L56.7949 33.1468H57.685C57.8519 33.1468 57.9934 33.1178 58.1095 33.0597C58.2275 33.0017 58.3173 32.92 58.379 32.8148C58.4407 32.7077 58.4715 32.5816 58.4715 32.4365C58.4715 32.2895 58.4452 32.1625 58.3926 32.0554C58.34 31.9484 58.2574 31.8658 58.1449 31.8077C58.0324 31.7497 57.8873 31.7206 57.7094 31.7206H56.961L56.9664 31.2988H57.9898L58.1014 31.4512C58.2919 31.4675 58.4534 31.522 58.5858 31.6145C58.7183 31.7052 58.819 31.8214 58.8879 31.9629C58.9587 32.1044 58.9941 32.2605 58.9941 32.431C58.9941 32.6778 58.9397 32.8865 58.8308 33.057C58.7237 33.2258 58.5722 33.3546 58.3763 33.4435C58.1803 33.5306 57.9499 33.5741 57.685 33.5741Z" fill="#EBEBEB"></path>
  <path d="M62.4518 29.6113H62.9744V32.2922C62.9744 32.5898 62.9081 32.8375 62.7757 33.0352C62.6432 33.233 62.4672 33.3818 62.2477 33.4816C62.0299 33.5796 61.7931 33.6286 61.5373 33.6286C61.2687 33.6286 61.0256 33.5796 60.8079 33.4816C60.5919 33.3818 60.4205 33.233 60.2935 33.0352C60.1683 32.8375 60.1057 32.5898 60.1057 32.2922V29.6113H60.6255V32.2922C60.6255 32.4991 60.6636 32.6696 60.7398 32.8039C60.816 32.9382 60.9222 33.038 61.0583 33.1033C61.1962 33.1686 61.3558 33.2013 61.5373 33.2013C61.7206 33.2013 61.8802 33.1686 62.0163 33.1033C62.1542 33.038 62.2613 32.9382 62.3375 32.8039C62.4137 32.6696 62.4518 32.4991 62.4518 32.2922V29.6113Z" fill="#EBEBEB"></path>
  <path d="M66.3259 32.5725C66.3259 32.48 66.3114 32.3984 66.2824 32.3276C66.2551 32.255 66.2061 32.1897 66.1354 32.1316C66.0664 32.0736 65.9703 32.0182 65.8469 31.9656C65.7253 31.913 65.5711 31.8595 65.3842 31.805C65.1882 31.747 65.0113 31.6825 64.8535 31.6118C64.6956 31.5392 64.5604 31.4566 64.4479 31.3641C64.3354 31.2716 64.2492 31.1654 64.1894 31.0457C64.1295 30.9259 64.0995 30.7889 64.0995 30.6347C64.0995 30.4805 64.1313 30.338 64.1948 30.2074C64.2583 30.0767 64.349 29.9633 64.467 29.8672C64.5867 29.7692 64.7292 29.693 64.8943 29.6385C65.0594 29.5841 65.2436 29.5569 65.4468 29.5569C65.7444 29.5569 65.9966 29.614 66.2034 29.7284C66.4121 29.8409 66.5709 29.9887 66.6797 30.172C66.7886 30.3534 66.843 30.5476 66.843 30.7544H66.3205C66.3205 30.6057 66.2887 30.4741 66.2252 30.3598C66.1617 30.2437 66.0655 30.1529 65.9367 30.0876C65.8079 30.0205 65.6446 29.9869 65.4468 29.9869C65.2599 29.9869 65.1057 30.015 64.9841 30.0713C64.8625 30.1275 64.7718 30.2037 64.7119 30.2999C64.6539 30.3961 64.6248 30.5059 64.6248 30.6292C64.6248 30.7127 64.6421 30.7889 64.6765 30.8579C64.7128 30.925 64.7682 30.9876 64.8426 31.0457C64.9188 31.1037 65.0149 31.1573 65.1311 31.2062C65.249 31.2552 65.3896 31.3024 65.5529 31.3478C65.7779 31.4113 65.9721 31.482 66.1354 31.5601C66.2987 31.6381 66.433 31.7261 66.5382 31.8241C66.6453 31.9202 66.7242 32.03 66.775 32.1534C66.8276 32.275 66.8539 32.4129 66.8539 32.5671C66.8539 32.7286 66.8213 32.8747 66.7559 33.0053C66.6906 33.1359 66.5972 33.2475 66.4756 33.3401C66.354 33.4326 66.208 33.5043 66.0374 33.5551C65.8687 33.6041 65.68 33.6286 65.4713 33.6286C65.288 33.6286 65.1075 33.6032 64.9297 33.5524C64.7537 33.5016 64.5931 33.4254 64.4479 33.3237C64.3046 33.2221 64.1894 33.0969 64.1023 32.9481C64.017 32.7975 63.9743 32.6234 63.9743 32.4256H64.4969C64.4969 32.5617 64.5232 32.6787 64.5758 32.7767C64.6285 32.8728 64.7001 32.9527 64.7909 33.0162C64.8834 33.0797 64.9877 33.1269 65.1039 33.1577C65.2218 33.1867 65.3443 33.2013 65.4713 33.2013C65.6545 33.2013 65.8097 33.1759 65.9367 33.1251C66.0637 33.0742 66.1599 33.0017 66.2252 32.9073C66.2923 32.813 66.3259 32.7014 66.3259 32.5725Z" fill="#EBEBEB"></path>
  <path d="M68.5017 29.6113V33.5741H67.9764V29.6113H68.5017Z" fill="#EBEBEB"></path>
  <path d="M72.9201 29.6113V33.5741H72.3921L70.3971 30.5177V33.5741H69.8718V29.6113H70.3971L72.4003 32.676V29.6113H72.9201Z" fill="#EBEBEB"></path>
  <path d="M76.7834 33.1468V33.5741H74.6849V33.1468H76.7834ZM74.7911 29.6113V33.5741H74.2658V29.6113H74.7911ZM76.5057 31.3151V31.7424H74.6849V31.3151H76.5057ZM76.7561 29.6113V30.0414H74.6849V29.6113H76.7561Z" fill="#EBEBEB"></path>
  <path d="M79.9607 32.5725C79.9607 32.48 79.9462 32.3984 79.9172 32.3276C79.89 32.255 79.841 32.1897 79.7702 32.1316C79.7012 32.0736 79.6051 32.0182 79.4817 31.9656C79.3601 31.913 79.2059 31.8595 79.019 31.805C78.823 31.747 78.6461 31.6825 78.4883 31.6118C78.3304 31.5392 78.1952 31.4566 78.0827 31.3641C77.9702 31.2716 77.884 31.1654 77.8242 31.0457C77.7643 30.9259 77.7344 30.7889 77.7344 30.6347C77.7344 30.4805 77.7661 30.338 77.8296 30.2074C77.8931 30.0767 77.9838 29.9633 78.1018 29.8672C78.2215 29.7692 78.364 29.693 78.5291 29.6385C78.6942 29.5841 78.8784 29.5569 79.0816 29.5569C79.3792 29.5569 79.6314 29.614 79.8382 29.7284C80.0469 29.8409 80.2057 29.9887 80.3145 30.172C80.4234 30.3534 80.4778 30.5476 80.4778 30.7544H79.9553C79.9553 30.6057 79.9235 30.4741 79.86 30.3598C79.7965 30.2437 79.7003 30.1529 79.5715 30.0876C79.4427 30.0205 79.2794 29.9869 79.0816 29.9869C78.8947 29.9869 78.7405 30.015 78.6189 30.0713C78.4973 30.1275 78.4066 30.2037 78.3467 30.2999C78.2887 30.3961 78.2596 30.5059 78.2596 30.6292C78.2596 30.7127 78.2769 30.7889 78.3114 30.8579C78.3476 30.925 78.403 30.9876 78.4774 31.0457C78.5536 31.1037 78.6498 31.1573 78.7659 31.2062C78.8838 31.2552 79.0244 31.3024 79.1877 31.3478C79.4127 31.4113 79.6069 31.482 79.7702 31.5601C79.9335 31.6381 80.0678 31.7261 80.173 31.8241C80.2801 31.9202 80.359 32.03 80.4098 32.1534C80.4624 32.275 80.4887 32.4129 80.4887 32.5671C80.4887 32.7286 80.4561 32.8747 80.3907 33.0053C80.3254 33.1359 80.232 33.2475 80.1104 33.3401C79.9888 33.4326 79.8428 33.5043 79.6722 33.5551C79.5035 33.6041 79.3148 33.6286 79.1061 33.6286C78.9228 33.6286 78.7423 33.6032 78.5645 33.5524C78.3885 33.5016 78.2279 33.4254 78.0827 33.3237C77.9394 33.2221 77.8242 33.0969 77.7371 32.9481C77.6518 32.7975 77.6092 32.6234 77.6092 32.4256H78.1317C78.1317 32.5617 78.158 32.6787 78.2107 32.7767C78.2633 32.8728 78.3349 32.9527 78.4257 33.0162C78.5182 33.0797 78.6225 33.1269 78.7387 33.1577C78.8566 33.1867 78.9791 33.2013 79.1061 33.2013C79.2894 33.2013 79.4445 33.1759 79.5715 33.1251C79.6985 33.0742 79.7947 33.0017 79.86 32.9073C79.9271 32.813 79.9607 32.7014 79.9607 32.5725Z" fill="#EBEBEB"></path>
  <path d="M83.6851 32.5725C83.6851 32.48 83.6706 32.3984 83.6416 32.3276C83.6144 32.255 83.5654 32.1897 83.4946 32.1316C83.4257 32.0736 83.3295 32.0182 83.2061 31.9656C83.0845 31.913 82.9303 31.8595 82.7434 31.805C82.5475 31.747 82.3705 31.6825 82.2127 31.6118C82.0548 31.5392 81.9196 31.4566 81.8072 31.3641C81.6947 31.2716 81.6085 31.1654 81.5486 31.0457C81.4887 30.9259 81.4588 30.7889 81.4588 30.6347C81.4588 30.4805 81.4905 30.338 81.554 30.2074C81.6175 30.0767 81.7083 29.9633 81.8262 29.8672C81.946 29.7692 82.0884 29.693 82.2535 29.6385C82.4186 29.5841 82.6028 29.5569 82.806 29.5569C83.1036 29.5569 83.3558 29.614 83.5627 29.7284C83.7713 29.8409 83.9301 29.9887 84.039 30.172C84.1478 30.3534 84.2023 30.5476 84.2023 30.7544H83.6797C83.6797 30.6057 83.6479 30.4741 83.5844 30.3598C83.5209 30.2437 83.4248 30.1529 83.2959 30.0876C83.1671 30.0205 83.0038 29.9869 82.806 29.9869C82.6191 29.9869 82.4649 30.015 82.3433 30.0713C82.2218 30.1275 82.131 30.2037 82.0712 30.2999C82.0131 30.3961 81.9841 30.5059 81.9841 30.6292C81.9841 30.7127 82.0013 30.7889 82.0358 30.8579C82.0721 30.925 82.1274 30.9876 82.2018 31.0457C82.278 31.1037 82.3742 31.1573 82.4903 31.2062C82.6082 31.2552 82.7489 31.3024 82.9122 31.3478C83.1372 31.4113 83.3313 31.482 83.4946 31.5601C83.6579 31.6381 83.7922 31.7261 83.8974 31.8241C84.0045 31.9202 84.0834 32.03 84.1342 32.1534C84.1868 32.275 84.2131 32.4129 84.2131 32.5671C84.2131 32.7286 84.1805 32.8747 84.1152 33.0053C84.0498 33.1359 83.9564 33.2475 83.8348 33.3401C83.7133 33.4326 83.5672 33.5043 83.3966 33.5551C83.2279 33.6041 83.0392 33.6286 82.8305 33.6286C82.6473 33.6286 82.4667 33.6032 82.2889 33.5524C82.1129 33.5016 81.9523 33.4254 81.8072 33.3237C81.6638 33.2221 81.5486 33.0969 81.4615 32.9481C81.3762 32.7975 81.3336 32.6234 81.3336 32.4256H81.8561C81.8561 32.5617 81.8825 32.6787 81.9351 32.7767C81.9877 32.8728 82.0594 32.9527 82.1501 33.0162C82.2426 33.0797 82.347 33.1269 82.4631 33.1577C82.581 33.1867 82.7035 33.2013 82.8305 33.2013C83.0138 33.2013 83.1689 33.1759 83.2959 33.1251C83.4229 33.0742 83.5191 33.0017 83.5844 32.9073C83.6516 32.813 83.6851 32.7014 83.6851 32.5725Z" fill="#EBEBEB"></path>
  <path d="M23.6986 40.1113V44.0741H23.1733V40.1113H23.6986Z" fill="#EBEBEB"></path>
  <path d="M28.1171 40.1113V44.0741H27.5891L25.5941 41.0177V44.0741H25.0688V40.1113H25.5941L27.5972 43.176V40.1113H28.1171Z" fill="#EBEBEB"></path>
  <path d="M30.8454 40.1113V44.0741H30.3282V40.1113H30.8454ZM32.1191 40.1113V40.5414H29.0572V40.1113H32.1191Z" fill="#EBEBEB"></path>
  <path d="M35.6394 43.6468V44.0741H33.541V43.6468H35.6394ZM33.6471 40.1113V44.0741H33.1218V40.1113H33.6471ZM35.3618 41.8151V42.2424H33.541V41.8151H35.3618ZM35.6122 40.1113V40.5414H33.541V40.1113H35.6122Z" fill="#EBEBEB"></path>
  <path d="M39.108 43.6468V44.0741H37.1266V43.6468H39.108ZM37.23 40.1113V44.0741H36.7047V40.1113H37.23Z" fill="#EBEBEB"></path>
  <path d="M42.5276 43.6468V44.0741H40.5462V43.6468H42.5276ZM40.6496 40.1113V44.0741H40.1243V40.1113H40.6496Z" fill="#EBEBEB"></path>
  <path d="M44.1073 40.1113V44.0741H43.582V40.1113H44.1073Z" fill="#EBEBEB"></path>
  <path d="M48.406 42.1009V43.5516C48.357 43.6241 48.279 43.7058 48.1719 43.7965C48.0649 43.8854 47.917 43.9635 47.7283 44.0306C47.5414 44.0959 47.3001 44.1286 47.0043 44.1286C46.763 44.1286 46.5407 44.0868 46.3375 44.0034C46.1361 43.9181 45.961 43.7947 45.8122 43.6332C45.6652 43.4699 45.5509 43.2721 45.4693 43.0399C45.3894 42.8058 45.3495 42.5409 45.3495 42.2451V41.9376C45.3495 41.6418 45.384 41.3778 45.4529 41.1456C45.5237 40.9133 45.6271 40.7164 45.7632 40.555C45.8993 40.3917 46.0662 40.2683 46.264 40.1848C46.4618 40.0995 46.6886 40.0569 46.9444 40.0569C47.2475 40.0569 47.5006 40.1095 47.7038 40.2147C47.9088 40.3182 48.0685 40.4615 48.1828 40.6448C48.2989 40.828 48.3733 41.0367 48.406 41.2708H47.8807C47.8571 41.1274 47.8099 40.9968 47.7392 40.8788C47.6702 40.7609 47.5713 40.6665 47.4425 40.5958C47.3137 40.5232 47.1477 40.4869 46.9444 40.4869C46.7612 40.4869 46.6024 40.5205 46.4681 40.5876C46.3339 40.6548 46.2232 40.7509 46.1361 40.8761C46.049 41.0013 45.9837 41.1528 45.9401 41.3306C45.8984 41.5085 45.8775 41.709 45.8775 41.9321V42.2451C45.8775 42.4738 45.9038 42.6779 45.9565 42.8575C46.0109 43.0372 46.088 43.1905 46.1878 43.3175C46.2876 43.4427 46.4064 43.538 46.5443 43.6033C46.6841 43.6686 46.8383 43.7013 47.007 43.7013C47.1939 43.7013 47.3454 43.6858 47.4616 43.655C47.5777 43.6223 47.6684 43.5842 47.7337 43.5407C47.7991 43.4953 47.849 43.4527 47.8834 43.4128V42.5255H46.9662V42.1009H48.406Z" fill="#EBEBEB"></path>
  <path d="M52.2094 43.6468V44.0741H50.1109V43.6468H52.2094ZM50.2171 40.1113V44.0741H49.6918V40.1113H50.2171ZM51.9317 41.8151V42.2424H50.1109V41.8151H51.9317ZM52.1821 40.1113V40.5414H50.1109V40.1113H52.1821Z" fill="#EBEBEB"></path>
  <path d="M56.323 40.1113V44.0741H55.795L53.7999 41.0177V44.0741H53.2747V40.1113H53.7999L55.8031 43.176V40.1113H56.323Z" fill="#EBEBEB"></path>
  <path d="M60.061 42.814H60.5836C60.5564 43.0644 60.4847 43.2885 60.3686 43.4862C60.2524 43.684 60.0882 43.841 59.8759 43.9571C59.6636 44.0714 59.3987 44.1286 59.0812 44.1286C58.8489 44.1286 58.6375 44.085 58.447 43.9979C58.2583 43.9108 58.0959 43.7874 57.9598 43.6278C57.8238 43.4663 57.7185 43.273 57.6441 43.0481C57.5715 42.8212 57.5353 42.569 57.5353 42.2914V41.8968C57.5353 41.6191 57.5715 41.3678 57.6441 41.1428C57.7185 40.916 57.8247 40.7219 57.9626 40.5604C58.1023 40.3989 58.2701 40.2746 58.4661 40.1875C58.662 40.1004 58.8825 40.0569 59.1275 40.0569C59.4268 40.0569 59.68 40.1131 59.8868 40.2256C60.0937 40.3381 60.2542 40.4942 60.3686 40.6938C60.4847 40.8915 60.5564 41.1211 60.5836 41.3824H60.061C60.0356 41.1973 59.9884 41.0385 59.9195 40.9061C59.8505 40.7718 59.7525 40.6684 59.6255 40.5958C59.4985 40.5232 59.3325 40.4869 59.1275 40.4869C58.9515 40.4869 58.7963 40.5205 58.662 40.5876C58.5296 40.6548 58.418 40.75 58.3273 40.8734C58.2384 40.9968 58.1712 41.1447 58.1259 41.317C58.0805 41.4894 58.0578 41.6808 58.0578 41.8913V42.2914C58.0578 42.4856 58.0778 42.6679 58.1177 42.8385C58.1594 43.009 58.222 43.1587 58.3055 43.2876C58.389 43.4164 58.4951 43.518 58.6239 43.5924C58.7528 43.665 58.9052 43.7013 59.0812 43.7013C59.3044 43.7013 59.4822 43.6659 59.6146 43.5951C59.7471 43.5244 59.8469 43.4227 59.914 43.2903C59.983 43.1578 60.032 42.9991 60.061 42.814Z" fill="#EBEBEB"></path>
  <path d="M64.2318 43.6468V44.0741H62.1333V43.6468H64.2318ZM62.2395 40.1113V44.0741H61.7142V40.1113H62.2395ZM63.9542 41.8151V42.2424H62.1333V41.8151H63.9542ZM64.2046 40.1113V40.5414H62.1333V40.1113H64.2046Z" fill="#EBEBEB"></path>
  <path d="M68.5615 40.4624L67.2497 44.0741H66.7135L68.2241 40.1113H68.5697L68.5615 40.4624ZM69.6611 44.0741L68.3465 40.4624L68.3384 40.1113H68.684L70.2 44.0741H69.6611ZM69.5931 42.6071V43.0372H67.3667V42.6071H69.5931Z" fill="#EBEBEB"></path>
  <path d="M72.6071 42.52H71.5484V42.0927H72.6071C72.8122 42.0927 72.9782 42.0601 73.1052 41.9947C73.2322 41.9294 73.3248 41.8387 73.3828 41.7226C73.4427 41.6064 73.4726 41.474 73.4726 41.3252C73.4726 41.1891 73.4427 41.0612 73.3828 40.9414C73.3248 40.8217 73.2322 40.7255 73.1052 40.6529C72.9782 40.5785 72.8122 40.5414 72.6071 40.5414H71.6709V44.0741H71.1456V40.1113H72.6071C72.9065 40.1113 73.1596 40.163 73.3665 40.2665C73.5733 40.3699 73.7303 40.5132 73.8373 40.6965C73.9444 40.8779 73.9979 41.0857 73.9979 41.3198C73.9979 41.5738 73.9444 41.7906 73.8373 41.9703C73.7303 42.1499 73.5733 42.2869 73.3665 42.3812C73.1596 42.4738 72.9065 42.52 72.6071 42.52Z" fill="#EBEBEB"></path>
  <path d="M76.5384 42.52H75.4797V42.0927H76.5384C76.7434 42.0927 76.9095 42.0601 77.0365 41.9947C77.1635 41.9294 77.256 41.8387 77.3141 41.7226C77.374 41.6064 77.4039 41.474 77.4039 41.3252C77.4039 41.1891 77.374 41.0612 77.3141 40.9414C77.256 40.8217 77.1635 40.7255 77.0365 40.6529C76.9095 40.5785 76.7434 40.5414 76.5384 40.5414H75.6021V44.0741H75.0768V40.1113H76.5384C76.8378 40.1113 77.0909 40.163 77.2978 40.2665C77.5046 40.3699 77.6616 40.5132 77.7686 40.6965C77.8757 40.8779 77.9292 41.0857 77.9292 41.3198C77.9292 41.5738 77.8757 41.7906 77.7686 41.9703C77.6616 42.1499 77.5046 42.2869 77.2978 42.3812C77.0909 42.4738 76.8378 42.52 76.5384 42.52Z" fill="#EBEBEB"></path>
  <path d="M81.8779 44.0741H81.0505L81.056 43.6468H81.8779C82.161 43.6468 82.3969 43.5879 82.5856 43.4699C82.7743 43.3502 82.9158 43.1832 83.0101 42.9691C83.1063 42.7532 83.1544 42.501 83.1544 42.2125V41.9703C83.1544 41.7434 83.1272 41.542 83.0727 41.366C83.0183 41.1882 82.9385 41.0385 82.8332 40.9169C82.728 40.7936 82.5992 40.7001 82.4468 40.6366C82.2962 40.5731 82.1229 40.5414 81.9269 40.5414H81.0342V40.1113H81.9269C82.1864 40.1113 82.4232 40.1549 82.6373 40.242C82.8514 40.3272 83.0355 40.4515 83.1898 40.6148C83.3458 40.7763 83.4656 40.9723 83.549 41.2027C83.6325 41.4314 83.6742 41.689 83.6742 41.9757V42.2125C83.6742 42.4992 83.6325 42.7577 83.549 42.9882C83.4656 43.2168 83.3449 43.4119 83.1871 43.5733C83.031 43.7348 82.8423 43.8591 82.6209 43.9462C82.4014 44.0315 82.1537 44.0741 81.8779 44.0741ZM81.3308 40.1113V44.0741H80.8056V40.1113H81.3308Z" fill="#EBEBEB"></path>
  <path d="M87.3959 43.6468V44.0741H85.2975V43.6468H87.3959ZM85.4037 40.1113V44.0741H84.8784V40.1113H85.4037ZM87.1183 41.8151V42.2424H85.2975V41.8151H87.1183ZM87.3687 40.1113V40.5414H85.2975V40.1113H87.3687Z" fill="#EBEBEB"></path>
  <path d="M89.7404 43.4726L90.9081 40.1113H91.4769L90.0099 44.0741H89.6044L89.7404 43.4726ZM88.649 40.1113L89.8058 43.4726L89.95 44.0741H89.5445L88.0802 40.1113H88.649Z" fill="#EBEBEB"></path>
  <path d="M94.9428 43.6468V44.0741H92.8443V43.6468H94.9428ZM92.9505 40.1113V44.0741H92.4252V40.1113H92.9505ZM94.6652 41.8151V42.2424H92.8443V41.8151H94.6652ZM94.9156 40.1113V40.5414H92.8443V40.1113H94.9156Z" fill="#EBEBEB"></path>
  <path d="M98.4113 43.6468V44.0741H96.4299V43.6468H98.4113ZM96.5334 40.1113V44.0741H96.0081V40.1113H96.5334Z" fill="#EBEBEB"></path>
  <path d="M102.299 41.9675V42.2179C102.299 42.5155 102.262 42.7822 102.187 43.0181C102.113 43.254 102.006 43.4545 101.866 43.6196C101.727 43.7847 101.559 43.9108 101.363 43.9979C101.169 44.085 100.951 44.1286 100.71 44.1286C100.476 44.1286 100.261 44.085 100.065 43.9979C99.8704 43.9108 99.7017 43.7847 99.5583 43.6196C99.4168 43.4545 99.307 43.254 99.229 43.0181C99.151 42.7822 99.1119 42.5155 99.1119 42.2179V41.9675C99.1119 41.67 99.1501 41.4041 99.2263 41.1701C99.3043 40.9342 99.4141 40.7337 99.5556 40.5686C99.6971 40.4016 99.865 40.2746 100.059 40.1875C100.255 40.1004 100.47 40.0569 100.704 40.0569C100.945 40.0569 101.163 40.1004 101.357 40.1875C101.553 40.2746 101.721 40.4016 101.861 40.5686C102.002 40.7337 102.11 40.9342 102.185 41.1701C102.261 41.4041 102.299 41.67 102.299 41.9675ZM101.779 42.2179V41.9621C101.779 41.7262 101.755 41.5175 101.706 41.3361C101.659 41.1546 101.589 41.0022 101.496 40.8788C101.404 40.7555 101.29 40.662 101.156 40.5985C101.023 40.535 100.873 40.5032 100.704 40.5032C100.541 40.5032 100.393 40.535 100.261 40.5985C100.13 40.662 100.017 40.7555 99.923 40.8788C99.8305 41.0022 99.7588 41.1546 99.708 41.3361C99.6572 41.5175 99.6318 41.7262 99.6318 41.9621V42.2179C99.6318 42.4556 99.6572 42.6661 99.708 42.8494C99.7588 43.0308 99.8314 43.1841 99.9257 43.3093C100.022 43.4327 100.135 43.5262 100.266 43.5897C100.398 43.6532 100.546 43.6849 100.71 43.6849C100.88 43.6849 101.032 43.6532 101.164 43.5897C101.297 43.5262 101.408 43.4327 101.499 43.3093C101.591 43.1841 101.661 43.0308 101.708 42.8494C101.756 42.6661 101.779 42.4556 101.779 42.2179Z" fill="#EBEBEB"></path>
  <path d="M104.962 42.52H103.903V42.0927H104.962C105.167 42.0927 105.333 42.0601 105.46 41.9947C105.587 41.9294 105.68 41.8387 105.738 41.7226C105.798 41.6064 105.828 41.474 105.828 41.3252C105.828 41.1891 105.798 41.0612 105.738 40.9414C105.68 40.8217 105.587 40.7255 105.46 40.6529C105.333 40.5785 105.167 40.5414 104.962 40.5414H104.026V44.0741H103.5V40.1113H104.962C105.261 40.1113 105.515 40.163 105.721 40.2665C105.928 40.3699 106.085 40.5132 106.192 40.6965C106.299 40.8779 106.353 41.0857 106.353 41.3198C106.353 41.5738 106.299 41.7906 106.192 41.9703C106.085 42.1499 105.928 42.2869 105.721 42.3812C105.515 42.4738 105.261 42.52 104.962 42.52Z" fill="#EBEBEB"></path>
  <path d="M109.949 43.6468V44.0741H107.851V43.6468H109.949ZM107.957 40.1113V44.0741H107.432V40.1113H107.957ZM109.672 41.8151V42.2424H107.851V41.8151H109.672ZM109.922 40.1113V40.5414H107.851V40.1113H109.922Z" fill="#EBEBEB"></path>
  <path d="M111.015 40.1113H112.326C112.624 40.1113 112.875 40.1567 113.08 40.2474C113.287 40.3381 113.444 40.4724 113.551 40.6502C113.66 40.8262 113.715 41.0431 113.715 41.3007C113.715 41.4822 113.677 41.6482 113.603 41.7988C113.53 41.9476 113.425 42.0746 113.287 42.1798C113.151 42.2832 112.988 42.3604 112.797 42.4112L112.65 42.4683H111.417L111.412 42.041H112.343C112.532 42.041 112.688 42.0084 112.814 41.943C112.939 41.8759 113.033 41.7861 113.097 41.6736C113.16 41.5611 113.192 41.4368 113.192 41.3007C113.192 41.1483 113.162 41.0149 113.102 40.9006C113.042 40.7863 112.948 40.6983 112.819 40.6366C112.692 40.5731 112.528 40.5414 112.326 40.5414H111.54V44.0741H111.015V40.1113ZM113.331 44.0741L112.367 42.2778L112.914 42.2751L113.891 44.0415V44.0741H113.331Z" fill="#EBEBEB"></path>
  <path d="M116.976 43.0725C116.976 42.98 116.962 42.8984 116.933 42.8276C116.906 42.755 116.857 42.6897 116.786 42.6316C116.717 42.5736 116.621 42.5182 116.497 42.4656C116.376 42.413 116.221 42.3595 116.035 42.305C115.839 42.247 115.662 42.1825 115.504 42.1118C115.346 42.0392 115.211 41.9566 115.098 41.8641C114.986 41.7716 114.9 41.6654 114.84 41.5457C114.78 41.4259 114.75 41.2889 114.75 41.1347C114.75 40.9805 114.782 40.838 114.845 40.7074C114.909 40.5767 114.999 40.4633 115.117 40.3672C115.237 40.2692 115.38 40.193 115.545 40.1385C115.71 40.0841 115.894 40.0569 116.097 40.0569C116.395 40.0569 116.647 40.114 116.854 40.2284C117.062 40.3409 117.221 40.4887 117.33 40.672C117.439 40.8534 117.493 41.0476 117.493 41.2544H116.971C116.971 41.1057 116.939 40.9741 116.876 40.8598C116.812 40.7437 116.716 40.6529 116.587 40.5876C116.458 40.5205 116.295 40.4869 116.097 40.4869C115.91 40.4869 115.756 40.515 115.634 40.5713C115.513 40.6275 115.422 40.7037 115.362 40.7999C115.304 40.8961 115.275 41.0059 115.275 41.1292C115.275 41.2127 115.292 41.2889 115.327 41.3579C115.363 41.425 115.419 41.4876 115.493 41.5457C115.569 41.6037 115.665 41.6573 115.781 41.7062C115.899 41.7552 116.04 41.8024 116.203 41.8478C116.428 41.9113 116.622 41.982 116.786 42.0601C116.949 42.1381 117.083 42.2261 117.189 42.3241C117.296 42.4202 117.375 42.53 117.425 42.6534C117.478 42.775 117.504 42.9129 117.504 43.0671C117.504 43.2286 117.472 43.3747 117.406 43.5053C117.341 43.6359 117.248 43.7475 117.126 43.8401C117.004 43.9326 116.858 44.0043 116.688 44.0551C116.519 44.1041 116.33 44.1286 116.122 44.1286C115.938 44.1286 115.758 44.1032 115.58 44.0524C115.404 44.0016 115.243 43.9254 115.098 43.8237C114.955 43.7221 114.84 43.5969 114.753 43.4481C114.667 43.2975 114.625 43.1234 114.625 42.9256H115.147C115.147 43.0617 115.174 43.1787 115.226 43.2767C115.279 43.3728 115.351 43.4527 115.441 43.5162C115.534 43.5797 115.638 43.6269 115.754 43.6577C115.872 43.6867 115.995 43.7013 116.122 43.7013C116.305 43.7013 116.46 43.6759 116.587 43.6251C116.714 43.5742 116.81 43.5017 116.876 43.4073C116.943 43.313 116.976 43.2014 116.976 43.0725Z" fill="#EBEBEB"></path>
  <path fill-rule="evenodd" clip-rule="evenodd" d="M116.602 50.8148H23.6572V50.6852H116.602V50.8148Z" fill="#403F3F"></path>
  <path fill-rule="evenodd" clip-rule="evenodd" d="M116.602 89.1852H23.6572V89.0555H116.602V89.1852Z" fill="#403F3F"></path>
  <path d="M54.3799 61.5093H57.561V78.0215H54.3799V61.5093Z" fill="#EBEBEB"></path>
  <path d="M67.7758 73.0289C67.7758 75.6675 65.4891 75.9073 64.7269 75.9073C62.9484 75.9073 62.4351 74.3482 62.4351 73.5086V67.1715H60.0317V73.3887C60.0317 74.9479 60.5399 76.3871 61.5562 77.2266C62.4454 78.0662 63.3295 78.426 64.7269 78.426C65.7432 78.426 67.0136 78.1861 67.7758 77.4665V78.0371H70.568V67.1715H67.7758V73.0289Z" fill="#EBEBEB"></path>
  <path d="M76.2849 63.3627H73.363V67.1715H71.5923V69.2915H73.363V78.0371H76.2849V69.2915H78.4445V67.1715H76.2849V63.3627Z" fill="#EBEBEB"></path>
  <path d="M87.6215 75.0119C86.9882 75.4828 86.1017 75.836 85.2151 75.836C83.1887 75.836 81.7956 74.4233 81.7956 72.5397C81.7956 70.6561 83.1887 69.3611 85.2151 69.3611C86.1017 69.3611 86.9882 69.5966 87.6215 70.1852L88.0014 70.5384L90.0278 68.7725L89.5212 68.4193C88.3814 67.4775 86.8616 66.8889 85.2151 66.8889C81.6689 66.8889 79.0093 69.3611 79.0093 72.6574C79.0093 75.9537 81.6689 78.426 85.2151 78.426C86.8616 78.426 88.3814 77.8373 89.5212 76.8955L90.0278 76.5424L88.0014 74.6588L87.6215 75.0119Z" fill="#EBEBEB"></path>
  <path d="M100.425 68.2606C99.5353 67.4211 98.2571 67.0613 96.8597 67.0613C95.8434 67.0613 94.6975 67.3011 93.9353 68.0207V61.3953H91.1431V78.0371H93.9353V72.0694C93.9353 70.1297 95.9705 69.5799 96.7327 69.5799C98.5112 69.5799 98.7731 70.7502 98.7731 71.5897V77.9171H101.695V71.7096C101.695 70.1505 101.314 69.1002 100.425 68.2606Z" fill="#EBEBEB"></path>
  <path d="M85.1019 74.6667C86.2474 74.6667 87.176 73.7381 87.176 72.5926C87.176 71.4472 86.2474 70.5186 85.1019 70.5186C83.9564 70.5186 83.0278 71.4472 83.0278 72.5926C83.0278 73.7381 83.9564 74.6667 85.1019 74.6667Z" fill="#EBEBEB"></path>
  <path d="M50.9429 74.254C49.9325 75.2076 48.4168 75.8036 46.7748 75.8036C43.6172 75.8036 41.3437 73.4196 41.3437 70.2012C41.3437 66.9828 43.6172 64.5988 46.9011 64.5988C48.4168 64.5988 49.9325 65.1948 51.0692 66.2676L51.4481 66.6252L53.3427 64.8372L52.9638 64.4796C51.3218 62.9299 49.1746 62.0955 46.9011 62.0955C42.1015 61.9763 38.5649 65.5524 38.5649 70.2012C38.5649 74.85 42.1015 78.426 46.7748 78.426C49.0483 78.426 51.3218 77.5916 52.8375 76.042L53.2164 75.6844L51.3218 73.8964L50.9429 74.254Z" fill="#EBEBEB"></path>
</svg>
