<?xml version="1.0" encoding="UTF-8"?>
<svg xmlns="http://www.w3.org/2000/svg" width="140" height="140" viewBox="0 0 140 140" fill="none">
  <path d="M70.0648 0L134.88 35L134.88 105L70.0648 140L5.25 105L5.25015 35H5.25L70.0648 0Z" fill="#4E4E4E"></path>
  <path fill-rule="evenodd" clip-rule="evenodd" d="M5.25015 36.037L5.25 105L70.0648 140L134.88 105L134.88 35L70.0648 0L5.25015 34.9999L5.25 35M6.28719 35.6185L70.0648 1.17858L133.842 35.6186L133.843 104.381L70.0648 138.821L6.28704 104.381L6.28719 35.6185ZM5.25015 36.037V34.9999Z" fill="#403F3F"></path>
  <path d="M70.0649 4.40735L130.861 37.2036L130.861 102.796L70.0649 135.593L9.26855 102.796L9.2687 37.2036H9.26855L70.0649 4.40735Z" fill="#403F3F"></path>
  <path d="M9.26855 50.8148H130.861V89.1852H9.26855V50.8148Z" fill="#403F3F"></path>
  <path d="M125.157 39.9259L69.9351 9.85181L14.9723 39.9259L14.9722 54.25H125.157L125.157 39.9259Z" fill="#4E4E4E"></path>
  <path d="M69.9351 130.148L125.157 100.074L125.157 85.75H14.9722L14.9722 100.074L69.9351 130.148Z" fill="#4E4E4E"></path>
  <path fill-rule="evenodd" clip-rule="evenodd" d="M69.9354 10.0881L15.1797 40.0488L15.1797 54.0425H124.95L124.95 40.0491L69.9354 10.0881ZM125.157 39.9259L69.9351 9.85181L14.9723 39.9259L14.9722 54.25H125.157L125.157 39.9259ZM124.95 99.9508L124.95 85.9574H15.1796L15.1796 99.9511L69.9354 129.912L124.95 99.9508ZM69.9351 130.148L125.157 100.074L125.157 85.75H14.9722L14.9722 100.074L69.9351 130.148Z" fill="#403F3F"></path>
  <path d="M65.2288 100.092V100.593H62.0922V100.155L63.6621 98.4071C63.8552 98.1921 64.0044 98.0099 64.1098 97.8607C64.2173 97.7093 64.2919 97.5744 64.3336 97.4559C64.3775 97.3352 64.3994 97.2123 64.3994 97.0873C64.3994 96.9293 64.3665 96.7866 64.3007 96.6594C64.237 96.5299 64.1427 96.4268 64.0176 96.35C63.8925 96.2732 63.7411 96.2348 63.5634 96.2348C63.3506 96.2348 63.1728 96.2765 63.0302 96.3599C62.8898 96.441 62.7844 96.5551 62.7142 96.7022C62.644 96.8492 62.6089 97.0181 62.6089 97.209H62C62 96.9391 62.0592 96.6923 62.1777 96.4685C62.2962 96.2447 62.4718 96.0669 62.7044 95.9353C62.9369 95.8014 63.2233 95.7345 63.5634 95.7345C63.8662 95.7345 64.1251 95.7883 64.3402 95.8958C64.5552 96.0011 64.7198 96.1503 64.8339 96.3434C64.9502 96.5343 65.0083 96.7581 65.0083 97.0148C65.0083 97.1553 64.9842 97.2979 64.9359 97.4427C64.8898 97.5853 64.8251 97.728 64.7417 97.8706C64.6605 98.0132 64.5651 98.1537 64.4554 98.2919C64.3478 98.4301 64.2327 98.5662 64.1098 98.7L62.8261 100.092H65.2288Z" fill="#EBEBEB"></path>
  <path d="M69.7185 97.8146V98.5453C69.7185 98.9381 69.6834 99.2694 69.6132 99.5393C69.5429 99.8092 69.442 100.026 69.3104 100.191C69.1787 100.356 69.0196 100.475 68.8331 100.55C68.6488 100.622 68.4403 100.658 68.2077 100.658C68.0234 100.658 67.8534 100.635 67.6976 100.589C67.5418 100.543 67.4014 100.47 67.2763 100.369C67.1534 100.266 67.0481 100.132 66.9603 99.9672C66.8725 99.8026 66.8056 99.603 66.7595 99.3682C66.7135 99.1334 66.6904 98.8591 66.6904 98.5453V97.8146C66.6904 97.4219 66.7255 97.0927 66.7957 96.8272C66.8682 96.5617 66.9702 96.3489 67.1018 96.1887C67.2335 96.0263 67.3915 95.91 67.5758 95.8398C67.7623 95.7696 67.9708 95.7345 68.2012 95.7345C68.3877 95.7345 68.5588 95.7575 68.7146 95.8036C68.8726 95.8475 69.013 95.9188 69.1359 96.0176C69.2588 96.1141 69.363 96.2436 69.4486 96.4059C69.5364 96.5661 69.6033 96.7625 69.6494 96.9951C69.6954 97.2277 69.7185 97.5009 69.7185 97.8146ZM69.1063 98.6441V97.7126C69.1063 97.4976 69.0931 97.3089 69.0668 97.1465C69.0427 96.9819 69.0064 96.8415 68.9582 96.7252C68.9099 96.6089 68.8485 96.5146 68.7739 96.4421C68.7014 96.3697 68.617 96.3171 68.5204 96.2842C68.4261 96.249 68.3196 96.2315 68.2012 96.2315C68.0563 96.2315 67.928 96.2589 67.8161 96.3138C67.7042 96.3664 67.6098 96.4509 67.533 96.5672C67.4584 96.6835 67.4014 96.836 67.3619 97.0247C67.3224 97.2134 67.3026 97.4427 67.3026 97.7126V98.6441C67.3026 98.8591 67.3147 99.0489 67.3388 99.2135C67.3651 99.3781 67.4035 99.5207 67.454 99.6414C67.5045 99.7599 67.5659 99.8575 67.6383 99.9343C67.7107 100.011 67.7941 100.068 67.8885 100.105C67.985 100.141 68.0914 100.158 68.2077 100.158C68.357 100.158 68.4875 100.13 68.5994 100.073C68.7113 100.015 68.8046 99.9266 68.8792 99.8059C68.956 99.6831 69.013 99.5262 69.0503 99.3353C69.0876 99.1422 69.1063 98.9118 69.1063 98.6441Z" fill="#EBEBEB"></path>
  <path d="M74.4714 100.092V100.593H71.3348V100.155L72.9047 98.4071C73.0978 98.1921 73.247 98.0099 73.3524 97.8607C73.4599 97.7093 73.5345 97.5744 73.5762 97.4559C73.6201 97.3352 73.642 97.2123 73.642 97.0873C73.642 96.9293 73.6091 96.7866 73.5433 96.6594C73.4796 96.5299 73.3853 96.4268 73.2602 96.35C73.1351 96.2732 72.9837 96.2348 72.806 96.2348C72.5932 96.2348 72.4154 96.2765 72.2728 96.3599C72.1324 96.441 72.027 96.5551 71.9568 96.7022C71.8866 96.8492 71.8515 97.0181 71.8515 97.209H71.2426C71.2426 96.9391 71.3018 96.6923 71.4203 96.4685C71.5388 96.2447 71.7144 96.0669 71.9469 95.9353C72.1795 95.8014 72.4659 95.7345 72.806 95.7345C73.1088 95.7345 73.3677 95.7883 73.5828 95.8958C73.7978 96.0011 73.9624 96.1503 74.0765 96.3434C74.1928 96.5343 74.2509 96.7581 74.2509 97.0148C74.2509 97.1553 74.2268 97.2979 74.1785 97.4427C74.1324 97.5853 74.0677 97.728 73.9843 97.8706C73.9031 98.0132 73.8077 98.1537 73.698 98.2919C73.5904 98.4301 73.4752 98.5662 73.3524 98.7L72.0687 100.092H74.4714Z" fill="#EBEBEB"></path>
  <path d="M76.8414 97.8969H77.2759C77.4887 97.8969 77.6643 97.8618 77.8025 97.7916C77.9429 97.7192 78.0472 97.6216 78.1152 97.4987C78.1854 97.3736 78.2205 97.2332 78.2205 97.0774C78.2205 96.8931 78.1898 96.7384 78.1284 96.6133C78.0669 96.4882 77.9748 96.3939 77.8519 96.3302C77.729 96.2666 77.5732 96.2348 77.3845 96.2348C77.2134 96.2348 77.062 96.2688 76.9303 96.3368C76.8008 96.4026 76.6988 96.497 76.6242 96.6199C76.5518 96.7428 76.5156 96.8876 76.5156 97.0543H75.9067C75.9067 96.8108 75.9681 96.5892 76.091 96.3895C76.2139 96.1898 76.3861 96.0307 76.6077 95.9122C76.8316 95.7937 77.0905 95.7345 77.3845 95.7345C77.6741 95.7345 77.9276 95.7861 78.1448 95.8892C78.362 95.9901 78.531 96.1415 78.6517 96.3434C78.7724 96.5431 78.8327 96.7921 78.8327 97.0905C78.8327 97.2112 78.8042 97.3407 78.7471 97.4789C78.6923 97.615 78.6056 97.7422 78.4871 97.8607C78.3708 97.9792 78.2194 98.0769 78.0329 98.1537C77.8464 98.2283 77.6226 98.2656 77.3615 98.2656H76.8414V97.8969ZM76.8414 98.3972V98.0319H77.3615C77.6665 98.0319 77.9188 98.0681 78.1185 98.1405C78.3182 98.2129 78.4751 98.3095 78.5892 98.4301C78.7054 98.5508 78.7866 98.6836 78.8327 98.8284C78.881 98.971 78.9051 99.1136 78.9051 99.2563C78.9051 99.4801 78.8667 99.6787 78.7899 99.852C78.7153 100.025 78.6089 100.172 78.4707 100.293C78.3346 100.414 78.1744 100.505 77.9901 100.566C77.8058 100.628 77.605 100.658 77.3878 100.658C77.1793 100.658 76.983 100.629 76.7986 100.57C76.6165 100.51 76.4552 100.425 76.3148 100.313C76.1744 100.199 76.0647 100.059 75.9857 99.8948C75.9067 99.728 75.8672 99.5382 75.8672 99.3254H76.4761C76.4761 99.4922 76.5123 99.6381 76.5847 99.7631C76.6593 99.8882 76.7646 99.9859 76.9007 100.056C77.0389 100.124 77.2013 100.158 77.3878 100.158C77.5743 100.158 77.7345 100.126 77.8683 100.063C78.0044 99.9968 78.1086 99.8981 78.181 99.7664C78.2556 99.6348 78.2929 99.4691 78.2929 99.2694C78.2929 99.0698 78.2512 98.9063 78.1679 98.779C78.0845 98.6496 77.966 98.5541 77.8124 98.4927C77.661 98.429 77.4822 98.3972 77.2759 98.3972H76.8414Z" fill="#EBEBEB"></path>
  <path d="M65.9154 18.541V23.3333H65.29V18.541H65.9154ZM67.4557 18.541V19.0611H63.7529V18.541H67.4557Z" fill="#EBEBEB"></path>
  <path d="M72.2827 20.7858V21.0886C72.2827 21.4484 72.2377 21.771 72.1477 22.0562C72.0577 22.3415 71.9283 22.584 71.7593 22.7836C71.5904 22.9833 71.3874 23.1358 71.1504 23.2411C70.9156 23.3465 70.6523 23.3991 70.3605 23.3991C70.0774 23.3991 69.8174 23.3465 69.5804 23.2411C69.3457 23.1358 69.1416 22.9833 68.9682 22.7836C68.7971 22.584 68.6643 22.3415 68.57 22.0562C68.4756 21.771 68.4285 21.4484 68.4285 21.0886V20.7858C68.4285 20.4259 68.4745 20.1045 68.5667 19.8214C68.661 19.5361 68.7938 19.2937 68.965 19.094C69.1361 18.8921 69.3391 18.7385 69.5739 18.6332C69.8108 18.5279 70.0709 18.4752 70.3539 18.4752C70.6457 18.4752 70.9091 18.5279 71.1438 18.6332C71.3808 18.7385 71.5838 18.8921 71.7527 19.094C71.9239 19.2937 72.0545 19.5361 72.1444 19.8214C72.2366 20.1045 72.2827 20.4259 72.2827 20.7858ZM71.654 21.0886V20.7792C71.654 20.4939 71.6244 20.2416 71.5651 20.0222C71.5081 19.8027 71.4236 19.6184 71.3117 19.4692C71.1998 19.32 71.0627 19.207 70.9003 19.1302C70.7401 19.0534 70.558 19.015 70.3539 19.015C70.1564 19.015 69.9776 19.0534 69.8174 19.1302C69.6594 19.207 69.5234 19.32 69.4093 19.4692C69.2974 19.6184 69.2107 19.8027 69.1493 20.0222C69.0878 20.2416 69.0571 20.4939 69.0571 20.7792V21.0886C69.0571 21.376 69.0878 21.6306 69.1493 21.8522C69.2107 22.0716 69.2985 22.257 69.4126 22.4084C69.5289 22.5576 69.666 22.6706 69.824 22.7474C69.9842 22.8242 70.163 22.8626 70.3605 22.8626C70.5668 22.8626 70.75 22.8242 70.9102 22.7474C71.0703 22.6706 71.2053 22.5576 71.315 22.4084C71.4269 22.257 71.5114 22.0716 71.5684 21.8522C71.6255 21.6306 71.654 21.376 71.654 21.0886Z" fill="#EBEBEB"></path>
  <path d="M75.5199 21.4539H74.2395V20.9372H75.5199C75.7678 20.9372 75.9686 20.8977 76.1222 20.8187C76.2758 20.7397 76.3877 20.63 76.4579 20.4895C76.5303 20.3491 76.5665 20.1889 76.5665 20.009C76.5665 19.8444 76.5303 19.6897 76.4579 19.5449C76.3877 19.4001 76.2758 19.2838 76.1222 19.196C75.9686 19.1061 75.7678 19.0611 75.5199 19.0611H74.3876V23.3333H73.7524V18.541H75.5199C75.8819 18.541 76.188 18.6036 76.4382 18.7287C76.6883 18.8537 76.8781 19.0271 77.0076 19.2487C77.137 19.4681 77.2018 19.7194 77.2018 20.0024C77.2018 20.3096 77.137 20.5718 77.0076 20.7891C76.8781 21.0063 76.6883 21.172 76.4382 21.2861C76.188 21.398 75.8819 21.4539 75.5199 21.4539Z" fill="#EBEBEB"></path>
  <path d="M44.148 34.4832V34.9999H41.6104V34.4832H44.148ZM41.7388 30.2077V34.9999H41.1035V30.2077H41.7388ZM43.8123 32.2681V32.7848H41.6104V32.2681H43.8123ZM44.1151 30.2077V30.7277H41.6104V30.2077H44.1151Z" fill="#EBEBEB"></path>
  <path d="M49.1395 30.2077V34.9999H48.501L46.0884 31.3037V34.9999H45.4532V30.2077H46.0884L48.5109 33.9138V30.2077H49.1395Z" fill="#EBEBEB"></path>
  <path d="M52.4557 30.2077V34.9999H51.8304V30.2077H52.4557ZM53.9961 30.2077V30.7277H50.2933V30.2077H53.9961Z" fill="#EBEBEB"></path>
  <path d="M58.2701 34.4832V34.9999H55.7324V34.4832H58.2701ZM55.8608 30.2077V34.9999H55.2255V30.2077H55.8608ZM57.9344 32.2681V32.7848H55.7324V32.2681H57.9344ZM58.2372 30.2077V30.7277H55.7324V30.2077H58.2372Z" fill="#EBEBEB"></path>
  <path d="M59.5752 30.2077H61.1617C61.5215 30.2077 61.8254 30.2625 62.0734 30.3722C62.3235 30.482 62.5133 30.6443 62.6428 30.8594C62.7744 31.0722 62.8403 31.3344 62.8403 31.646C62.8403 31.8654 62.7953 32.0662 62.7053 32.2483C62.6176 32.4283 62.4903 32.5819 62.3235 32.7091C62.159 32.8342 61.9615 32.9274 61.7311 32.9889L61.5533 33.058H60.0624L60.0558 32.5413H61.1814C61.4096 32.5413 61.5994 32.5018 61.7508 32.4228C61.9022 32.3416 62.0163 32.233 62.0931 32.0969C62.1699 31.9609 62.2083 31.8106 62.2083 31.646C62.2083 31.4617 62.1721 31.3004 62.0997 31.1622C62.0273 31.0239 61.9132 30.9175 61.7574 30.8429C61.6038 30.7661 61.4052 30.7277 61.1617 30.7277H60.2105V34.9999H59.5752V30.2077ZM62.3762 34.9999L61.211 32.8276L61.8726 32.8243L63.0542 34.9604V34.9999H62.3762Z" fill="#EBEBEB"></path>
  <path d="M66.0149 33.1205H64.7346V32.6038H66.0149C66.2629 32.6038 66.4637 32.5643 66.6173 32.4853C66.7709 32.4063 66.8828 32.2966 66.953 32.1562C67.0254 32.0157 67.0616 31.8556 67.0616 31.6756C67.0616 31.5111 67.0254 31.3564 66.953 31.2115C66.8828 31.0667 66.7709 30.9504 66.6173 30.8627C66.4637 30.7727 66.2629 30.7277 66.0149 30.7277H64.8827V34.9999H64.2475V30.2077H66.0149C66.377 30.2077 66.6831 30.2702 66.9332 30.3953C67.1834 30.5204 67.3732 30.6937 67.5026 30.9153C67.6321 31.1347 67.6968 31.386 67.6968 31.669C67.6968 31.9762 67.6321 32.2385 67.5026 32.4557C67.3732 32.6729 67.1834 32.8386 66.9332 32.9527C66.6831 33.0646 66.377 33.1205 66.0149 33.1205Z" fill="#EBEBEB"></path>
  <path d="M69.0184 30.2077H70.6049C70.9647 30.2077 71.2687 30.2625 71.5166 30.3722C71.7667 30.482 71.9565 30.6443 72.086 30.8594C72.2177 31.0722 72.2835 31.3344 72.2835 31.646C72.2835 31.8654 72.2385 32.0662 72.1485 32.2483C72.0608 32.4283 71.9335 32.5819 71.7667 32.7091C71.6022 32.8342 71.4047 32.9274 71.1743 32.9889L70.9966 33.058H69.5056L69.499 32.5413H70.6246C70.8528 32.5413 71.0426 32.5018 71.194 32.4228C71.3454 32.3416 71.4596 32.233 71.5363 32.0969C71.6131 31.9609 71.6515 31.8106 71.6515 31.646C71.6515 31.4617 71.6153 31.3004 71.5429 31.1622C71.4705 31.0239 71.3564 30.9175 71.2006 30.8429C71.047 30.7661 70.8485 30.7277 70.6049 30.7277H69.6537V34.9999H69.0184V30.2077ZM71.8194 34.9999L70.6543 32.8276L71.3158 32.8243L72.4974 34.9604V34.9999H71.8194Z" fill="#EBEBEB"></path>
  <path d="M74.372 30.2077V34.9999H73.7368V30.2077H74.372Z" fill="#EBEBEB"></path>
  <path d="M78.5999 33.7887C78.5999 33.6768 78.5823 33.578 78.5472 33.4925C78.5143 33.4047 78.4551 33.3257 78.3695 33.2555C78.2861 33.1853 78.1698 33.1183 78.0206 33.0547C77.8736 32.9911 77.6871 32.9264 77.4611 32.8605C77.2241 32.7903 77.0102 32.7124 76.8193 32.6268C76.6284 32.5391 76.4649 32.4392 76.3288 32.3273C76.1928 32.2154 76.0886 32.087 76.0162 31.9422C75.9438 31.7974 75.9076 31.6317 75.9076 31.4452C75.9076 31.2587 75.946 31.0865 76.0227 30.9285C76.0995 30.7705 76.2093 30.6334 76.3519 30.5171C76.4967 30.3986 76.669 30.3064 76.8686 30.2406C77.0683 30.1748 77.291 30.1418 77.5368 30.1418C77.8966 30.1418 78.2016 30.211 78.4518 30.3492C78.7041 30.4852 78.8961 30.6641 79.0278 30.8857C79.1594 31.1051 79.2253 31.3399 79.2253 31.5901H78.5933C78.5933 31.4101 78.5549 31.251 78.4781 31.1128C78.4013 30.9724 78.285 30.8627 78.1292 30.7837C77.9734 30.7025 77.776 30.6619 77.5368 30.6619C77.3108 30.6619 77.1243 30.6959 76.9772 30.7639C76.8302 30.8319 76.7205 30.9241 76.6481 31.0404C76.5779 31.1567 76.5428 31.2894 76.5428 31.4386C76.5428 31.5396 76.5636 31.6317 76.6053 31.7151C76.6492 31.7963 76.7161 31.872 76.8061 31.9422C76.8983 32.0124 77.0146 32.0772 77.155 32.1364C77.2976 32.1957 77.4677 32.2527 77.6651 32.3076C77.9372 32.3844 78.172 32.4699 78.3695 32.5643C78.567 32.6587 78.7294 32.7651 78.8566 32.8836C78.9861 32.9999 79.0815 33.1326 79.143 33.2818C79.2066 33.4288 79.2384 33.5956 79.2384 33.7821C79.2384 33.9774 79.1989 34.154 79.1199 34.312C79.0409 34.47 78.9279 34.605 78.7809 34.7169C78.6339 34.8288 78.4573 34.9154 78.251 34.9769C78.0469 35.0361 77.8187 35.0657 77.5664 35.0657C77.3448 35.0657 77.1265 35.035 76.9114 34.9736C76.6986 34.9121 76.5044 34.82 76.3288 34.6971C76.1555 34.5742 76.0162 34.4228 75.9108 34.2429C75.8077 34.0608 75.7561 33.8501 75.7561 33.611H76.3881C76.3881 33.7755 76.4199 33.9171 76.4835 34.0355C76.5472 34.1518 76.6338 34.2484 76.7436 34.3252C76.8555 34.402 76.9816 34.459 77.1221 34.4963C77.2647 34.5314 77.4128 34.549 77.5664 34.549C77.788 34.549 77.9756 34.5183 78.1292 34.4568C78.2828 34.3954 78.3991 34.3076 78.4781 34.1935C78.5593 34.0794 78.5999 33.9445 78.5999 33.7887Z" fill="#EBEBEB"></path>
  <path d="M83.6111 34.4832V34.9999H81.0735V34.4832H83.6111ZM81.2019 30.2077V34.9999H80.5666V30.2077H81.2019ZM83.2754 32.2681V32.7848H81.0735V32.2681H83.2754ZM83.5782 30.2077V30.7277H81.0735V30.2077H83.5782Z" fill="#EBEBEB"></path>
  <path d="M88.8809 30.6323L87.2945 34.9999H86.646L88.4728 30.2077H88.8908L88.8809 30.6323ZM90.2106 34.9999L88.6209 30.6323L88.611 30.2077H89.029L90.8623 34.9999H90.2106ZM90.1283 33.2259V33.7459H87.436V33.2259H90.1283Z" fill="#EBEBEB"></path>
  <path d="M93.7901 33.1205H92.5098V32.6038H93.7901C94.0381 32.6038 94.2388 32.5643 94.3924 32.4853C94.546 32.4063 94.6579 32.2966 94.7282 32.1562C94.8006 32.0157 94.8368 31.8556 94.8368 31.6756C94.8368 31.5111 94.8006 31.3564 94.7282 31.2115C94.6579 31.0667 94.546 30.9504 94.3924 30.8627C94.2388 30.7727 94.0381 30.7277 93.7901 30.7277H92.6579V34.9999H92.0226V30.2077H93.7901C94.1522 30.2077 94.4583 30.2702 94.7084 30.3953C94.9585 30.5204 95.1484 30.6937 95.2778 30.9153C95.4073 31.1347 95.472 31.386 95.472 31.669C95.472 31.9762 95.4073 32.2385 95.2778 32.4557C95.1484 32.6729 94.9585 32.8386 94.7084 32.9527C94.4583 33.0646 94.1522 33.1205 93.7901 33.1205Z" fill="#EBEBEB"></path>
  <path d="M98.5611 33.1205H97.2807V32.6038H98.5611C98.809 32.6038 99.0098 32.5643 99.1634 32.4853C99.317 32.4063 99.4289 32.2966 99.4991 32.1562C99.5715 32.0157 99.6077 31.8556 99.6077 31.6756C99.6077 31.5111 99.5715 31.3564 99.4991 31.2115C99.4289 31.0667 99.317 30.9504 99.1634 30.8627C99.0098 30.7727 98.809 30.7277 98.5611 30.7277H97.4289V34.9999H96.7936V30.2077H98.5611C98.9231 30.2077 99.2292 30.2702 99.4794 30.3953C99.7295 30.5204 99.9193 30.6937 100.049 30.9153C100.178 31.1347 100.243 31.386 100.243 31.669C100.243 31.9762 100.178 32.2385 100.049 32.4557C99.9193 32.6729 99.7295 32.8386 99.4794 32.9527C99.2292 33.0646 98.9231 33.1205 98.5611 33.1205Z" fill="#EBEBEB"></path>
  <path d="M49.7656 46.6667H48.765L48.7716 46.1499H49.7656C50.1079 46.1499 50.3931 46.0786 50.6213 45.936C50.8495 45.7912 51.0207 45.5893 51.1348 45.3304C51.2511 45.0693 51.3092 44.7643 51.3092 44.4154V44.1224C51.3092 43.8482 51.2763 43.6046 51.2105 43.3917C51.1446 43.1767 51.0481 42.9957 50.9208 42.8487C50.7936 42.6995 50.6378 42.5865 50.4535 42.5097C50.2713 42.4329 50.0618 42.3945 49.8248 42.3945H48.7452V41.8744H49.8248C50.1386 41.8744 50.4249 41.9271 50.6838 42.0324C50.9428 42.1355 51.1655 42.2858 51.352 42.4833C51.5407 42.6786 51.6855 42.9156 51.7865 43.1943C51.8874 43.4707 51.9379 43.7823 51.9379 44.129V44.4154C51.9379 44.7621 51.8874 45.0747 51.7865 45.3534C51.6855 45.6299 51.5396 45.8658 51.3487 46.0611C51.16 46.2563 50.9318 46.4066 50.6641 46.512C50.3986 46.6151 50.0991 46.6667 49.7656 46.6667ZM49.104 41.8744V46.6667H48.4688V41.8744H49.104Z" fill="#EBEBEB"></path>
  <path d="M56.4554 46.1499V46.6667H53.9178V46.1499H56.4554ZM54.0461 41.8744V46.6667H53.4109V41.8744H54.0461ZM56.1197 43.9348V44.4516H53.9178V43.9348H56.1197ZM56.4225 41.8744V42.3945H53.9178V41.8744H56.4225Z" fill="#EBEBEB"></path>
  <path d="M59.3075 45.9393L60.7195 41.8744H61.4074L59.6334 46.6667H59.1429L59.3075 45.9393ZM57.9877 41.8744L59.3865 45.9393L59.5609 46.6667H59.0705L57.2998 41.8744H57.9877Z" fill="#EBEBEB"></path>
  <path d="M65.6156 46.1499V46.6667H63.0779V46.1499H65.6156ZM63.2063 41.8744V46.6667H62.571V41.8744H63.2063ZM65.2798 43.9348V44.4516H63.0779V43.9348H65.2798ZM65.5826 41.8744V42.3945H63.0779V41.8744H65.5826Z" fill="#EBEBEB"></path>
  <path d="M69.827 46.1499V46.6667H67.4309V46.1499H69.827ZM67.556 41.8744V46.6667H66.9207V41.8744H67.556Z" fill="#EBEBEB"></path>
  <path d="M74.5453 44.1191V44.4219C74.5453 44.7818 74.5003 45.1044 74.4104 45.3896C74.3204 45.6749 74.1909 45.9173 74.022 46.117C73.853 46.3167 73.6501 46.4692 73.4131 46.5745C73.1783 46.6798 72.915 46.7325 72.6232 46.7325C72.3401 46.7325 72.0801 46.6798 71.8431 46.5745C71.6083 46.4692 71.4042 46.3167 71.2309 46.117C71.0598 45.9173 70.927 45.6749 70.8326 45.3896C70.7383 45.1044 70.6911 44.7818 70.6911 44.4219V44.1191C70.6911 43.7593 70.7372 43.4378 70.8294 43.1548C70.9237 42.8695 71.0565 42.627 71.2276 42.4274C71.3988 42.2255 71.6017 42.0719 71.8365 41.9666C72.0735 41.8613 72.3335 41.8086 72.6166 41.8086C72.9084 41.8086 73.1717 41.8613 73.4065 41.9666C73.6435 42.0719 73.8465 42.2255 74.0154 42.4274C74.1866 42.627 74.3171 42.8695 74.4071 43.1548C74.4992 43.4378 74.5453 43.7593 74.5453 44.1191ZM73.9167 44.4219V44.1126C73.9167 43.8273 73.887 43.575 73.8278 43.3555C73.7707 43.1361 73.6863 42.9518 73.5744 42.8026C73.4625 42.6534 73.3253 42.5404 73.1629 42.4636C73.0028 42.3868 72.8206 42.3484 72.6166 42.3484C72.4191 42.3484 72.2403 42.3868 72.0801 42.4636C71.9221 42.5404 71.786 42.6534 71.6719 42.8026C71.56 42.9518 71.4734 43.1361 71.4119 43.3555C71.3505 43.575 71.3198 43.8273 71.3198 44.1126V44.4219C71.3198 44.7094 71.3505 44.9639 71.4119 45.1855C71.4734 45.405 71.5611 45.5904 71.6752 45.7418C71.7915 45.891 71.9287 46.004 72.0867 46.0808C72.2468 46.1576 72.4257 46.196 72.6232 46.196C72.8294 46.196 73.0126 46.1576 73.1728 46.0808C73.333 46.004 73.4679 45.891 73.5777 45.7418C73.6896 45.5904 73.774 45.405 73.8311 45.1855C73.8881 44.9639 73.9167 44.7094 73.9167 44.4219Z" fill="#EBEBEB"></path>
  <path d="M77.7825 44.7873H76.5022V44.2705H77.7825C78.0305 44.2705 78.2312 44.231 78.3848 44.1521C78.5384 44.0731 78.6503 43.9633 78.7206 43.8229C78.793 43.6825 78.8292 43.5223 78.8292 43.3424C78.8292 43.1778 78.793 43.0231 78.7206 42.8783C78.6503 42.7335 78.5384 42.6172 78.3848 42.5294C78.2312 42.4394 78.0305 42.3945 77.7825 42.3945H76.6503V46.6667H76.015V41.8744H77.7825C78.1446 41.8744 78.4507 41.937 78.7008 42.062C78.951 42.1871 79.1408 42.3604 79.2702 42.5821C79.3997 42.8015 79.4644 43.0527 79.4644 43.3358C79.4644 43.643 79.3997 43.9052 79.2702 44.1224C79.1408 44.3397 78.951 44.5053 78.7008 44.6194C78.4507 44.7313 78.1446 44.7873 77.7825 44.7873Z" fill="#EBEBEB"></path>
  <path d="M83.8305 46.1499V46.6667H81.2929V46.1499H83.8305ZM81.4213 41.8744V46.6667H80.786V41.8744H81.4213ZM83.4948 43.9348V44.4516H81.2929V43.9348H83.4948ZM83.7976 41.8744V42.3945H81.2929V41.8744H83.7976Z" fill="#EBEBEB"></path>
  <path d="M85.1357 41.8744H86.7221C87.082 41.8744 87.3859 41.9293 87.6339 42.039C87.884 42.1487 88.0738 42.3111 88.2033 42.5261C88.3349 42.739 88.4008 43.0012 88.4008 43.3128C88.4008 43.5322 88.3558 43.733 88.2658 43.9151C88.178 44.095 88.0508 44.2486 87.884 44.3759C87.7194 44.5009 87.522 44.5942 87.2916 44.6556L87.1138 44.7248H85.6228L85.6162 44.208H86.7419C86.9701 44.208 87.1599 44.1685 87.3113 44.0895C87.4627 44.0083 87.5768 43.8997 87.6536 43.7637C87.7304 43.6276 87.7688 43.4773 87.7688 43.3128C87.7688 43.1284 87.7326 42.9672 87.6602 42.8289C87.5878 42.6907 87.4737 42.5843 87.3179 42.5097C87.1643 42.4329 86.9657 42.3945 86.7221 42.3945H85.7709V46.6667H85.1357V41.8744ZM87.9367 46.6667L86.7715 44.4944L87.4331 44.4911L88.6147 46.6272V46.6667H87.9367Z" fill="#EBEBEB"></path>
  <path d="M92.3621 45.4554C92.3621 45.3435 92.3445 45.2448 92.3094 45.1592C92.2765 45.0714 92.2172 44.9925 92.1317 44.9222C92.0483 44.852 91.932 44.7851 91.7828 44.7215C91.6358 44.6578 91.4492 44.5931 91.2232 44.5273C90.9863 44.4571 90.7723 44.3792 90.5814 44.2936C90.3905 44.2058 90.227 44.106 90.091 43.9941C89.955 43.8822 89.8507 43.7538 89.7783 43.609C89.7059 43.4642 89.6697 43.2985 89.6697 43.112C89.6697 42.9255 89.7081 42.7532 89.7849 42.5952C89.8617 42.4372 89.9714 42.3001 90.114 42.1838C90.2589 42.0653 90.4311 41.9732 90.6308 41.9073C90.8305 41.8415 91.0532 41.8086 91.2989 41.8086C91.6588 41.8086 91.9638 41.8777 92.2139 42.016C92.4663 42.152 92.6583 42.3308 92.7899 42.5524C92.9216 42.7719 92.9874 43.0067 92.9874 43.2568H92.3555C92.3555 43.0769 92.3171 42.9178 92.2403 42.7796C92.1635 42.6391 92.0472 42.5294 91.8914 42.4504C91.7356 42.3692 91.5381 42.3286 91.2989 42.3286C91.0729 42.3286 90.8864 42.3626 90.7394 42.4307C90.5924 42.4987 90.4827 42.5908 90.4103 42.7071C90.34 42.8234 90.3049 42.9562 90.3049 43.1054C90.3049 43.2063 90.3258 43.2985 90.3675 43.3819C90.4114 43.4631 90.4783 43.5388 90.5682 43.609C90.6604 43.6792 90.7767 43.7439 90.9171 43.8032C91.0598 43.8624 91.2298 43.9195 91.4273 43.9743C91.6994 44.0511 91.9342 44.1367 92.1317 44.231C92.3291 44.3254 92.4915 44.4318 92.6188 44.5503C92.7482 44.6666 92.8437 44.7994 92.9051 44.9486C92.9688 45.0956 93.0006 45.2623 93.0006 45.4489C93.0006 45.6441 92.9611 45.8208 92.8821 45.9788C92.8031 46.1368 92.6901 46.2717 92.5431 46.3836C92.3961 46.4955 92.2194 46.5822 92.0132 46.6436C91.8091 46.7029 91.5809 46.7325 91.3286 46.7325C91.1069 46.7325 90.8886 46.7018 90.6736 46.6403C90.4607 46.5789 90.2665 46.4867 90.091 46.3639C89.9177 46.241 89.7783 46.0896 89.673 45.9097C89.5699 45.7275 89.5183 45.5169 89.5183 45.2777H90.1502C90.1502 45.4423 90.1821 45.5838 90.2457 45.7023C90.3093 45.8186 90.396 45.9151 90.5057 45.9919C90.6176 46.0687 90.7438 46.1258 90.8842 46.1631C91.0268 46.1982 91.175 46.2157 91.3286 46.2157C91.5502 46.2157 91.7378 46.185 91.8914 46.1236C92.045 46.0622 92.1613 45.9744 92.2403 45.8603C92.3215 45.7462 92.3621 45.6112 92.3621 45.4554Z" fill="#EBEBEB"></path>
  <path fill-rule="evenodd" clip-rule="evenodd" d="M116.602 50.8148H23.6572V50.6852H116.602V50.8148Z" fill="#403F3F"></path>
  <path fill-rule="evenodd" clip-rule="evenodd" d="M116.602 89.1852H23.6572V89.0555H116.602V89.1852Z" fill="#403F3F"></path>
  <path d="M54.3799 61.5093H57.561V78.0215H54.3799V61.5093Z" fill="#EBEBEB"></path>
  <path d="M67.7758 73.0289C67.7758 75.6675 65.4891 75.9073 64.7269 75.9073C62.9484 75.9073 62.4351 74.3482 62.4351 73.5086V67.1715H60.0317V73.3887C60.0317 74.9479 60.5399 76.3871 61.5562 77.2266C62.4454 78.0662 63.3295 78.426 64.7269 78.426C65.7432 78.426 67.0136 78.1861 67.7758 77.4665V78.0371H70.568V67.1715H67.7758V73.0289Z" fill="#EBEBEB"></path>
  <path d="M76.2849 63.3627H73.363V67.1715H71.5923V69.2915H73.363V78.0371H76.2849V69.2915H78.4445V67.1715H76.2849V63.3627Z" fill="#EBEBEB"></path>
  <path d="M87.6215 75.0119C86.9882 75.4828 86.1017 75.836 85.2151 75.836C83.1887 75.836 81.7956 74.4233 81.7956 72.5397C81.7956 70.6561 83.1887 69.3611 85.2151 69.3611C86.1017 69.3611 86.9882 69.5966 87.6215 70.1852L88.0014 70.5384L90.0278 68.7725L89.5212 68.4193C88.3814 67.4775 86.8616 66.8889 85.2151 66.8889C81.6689 66.8889 79.0093 69.3611 79.0093 72.6574C79.0093 75.9537 81.6689 78.426 85.2151 78.426C86.8616 78.426 88.3814 77.8373 89.5212 76.8955L90.0278 76.5424L88.0014 74.6588L87.6215 75.0119Z" fill="#EBEBEB"></path>
  <path d="M100.425 68.2606C99.5353 67.4211 98.2571 67.0613 96.8597 67.0613C95.8434 67.0613 94.6975 67.3011 93.9353 68.0207V61.3953H91.1431V78.0371H93.9353V72.0694C93.9353 70.1297 95.9705 69.5799 96.7327 69.5799C98.5112 69.5799 98.7731 70.7502 98.7731 71.5897V77.9171H101.695V71.7096C101.695 70.1505 101.314 69.1002 100.425 68.2606Z" fill="#EBEBEB"></path>
  <path d="M85.1019 74.6667C86.2474 74.6667 87.176 73.7381 87.176 72.5926C87.176 71.4472 86.2474 70.5186 85.1019 70.5186C83.9564 70.5186 83.0278 71.4472 83.0278 72.5926C83.0278 73.7381 83.9564 74.6667 85.1019 74.6667Z" fill="#EBEBEB"></path>
  <path d="M50.9429 74.254C49.9325 75.2076 48.4168 75.8036 46.7748 75.8036C43.6172 75.8036 41.3437 73.4196 41.3437 70.2012C41.3437 66.9828 43.6172 64.5988 46.9011 64.5988C48.4168 64.5988 49.9325 65.1948 51.0692 66.2676L51.4481 66.6252L53.3427 64.8372L52.9638 64.4796C51.3218 62.9299 49.1746 62.0955 46.9011 62.0955C42.1015 61.9763 38.5649 65.5524 38.5649 70.2012C38.5649 74.85 42.1015 78.426 46.7748 78.426C49.0483 78.426 51.3218 77.5916 52.8375 76.042L53.2164 75.6844L51.3218 73.8964L50.9429 74.254Z" fill="#EBEBEB"></path>
</svg>
