<svg width="200" height="45" viewBox="0 0 200 45" fill="none" xmlns="http://www.w3.org/2000/svg">
<g clip-path="url(#clip0_1057_1607)">
<path d="M37.2306 10.6378L37.7612 11.0804L37.4555 29.9512L37.2306 31.0247H37.2269L34.4431 29.2507L1.19448 1.36075L0 0L37.2269 10.6378H37.2306Z" fill="#F3957B"/>
<path d="M37.2265 31.0248L36.5308 32.1385L27.5533 39.6697L26.5923 39.8874H15.9545C10.0823 39.8874 5.32031 35.1253 5.32031 29.2495V18.6154L6.64683 18.2095L10.5494 20.0849L26.3001 26.2676L27.7281 26.8251L34.873 29.6628L37.2265 31.0248Z" fill="#EA4F6C"/>
<path d="M47.8659 39.8873L37.2317 45.2044L36.9102 43.9915V32.1446L37.2317 31.0247L38.7392 31.6677L47.1274 38.6243L47.8659 39.8873Z" fill="#F3957B"/>
<path d="M37.2316 31.0247V45.2044H37.2279L26.5938 39.8873L37.2279 31.0247H37.2316Z" fill="#ED6F72"/>
<path d="M74.4574 0L69.1366 18.6153L68.0815 19.6618L64.1533 21.1461L47.8646 27.3728L39.1512 31.0247H37.2305L38.1694 29.7079L72.0574 1.27761L74.4574 0Z" fill="#EC6E71"/>
<path d="M69.1366 18.6152V29.2494C69.1366 35.1252 64.3746 39.8872 58.5025 39.8872H47.8646L37.2305 31.0246L48.1568 26.7736L64.4529 20.4357L69.1366 18.6152Z" fill="#EA4F6C"/>
<path d="M74.4574 0L37.2305 31.0247V10.6378L74.4574 0Z" fill="#EA4F6C"/>
<path d="M37.2269 31.0247L26.3006 26.7725L10.0009 20.4357L5.32075 18.6153L0 0L37.2269 31.0247Z" fill="#ED6F72"/>
<path d="M168.789 14.7019V14.7753L162.853 30.5957H161.645L157.237 21.7832L152.794 30.5957H151.621L145.684 14.7753V14.7019H149.818L152.26 21.6768C152.474 22.3138 152.651 22.9153 152.828 23.5877C153.113 22.8799 153.397 22.2783 153.717 21.6414L156.809 15.4477H157.627L160.72 21.6414C161.076 22.2783 161.36 22.9153 161.645 23.6232C161.822 22.9153 162.036 22.2783 162.249 21.6768L164.684 14.7019H168.789Z" fill="white"/>
<path d="M79.582 22.5644C79.582 17.3977 83.3696 14.2471 87.8994 14.2471C90.1991 14.2471 92.1112 14.9195 93.7752 16.3707L91.8985 18.9541C90.7664 17.998 89.7052 17.6092 88.183 17.6092C85.5288 17.6092 83.476 19.5556 83.476 22.5644C83.476 25.6784 85.563 27.5196 88.1121 27.5196C89.8115 27.5196 90.9779 26.989 92.1467 25.8911L94.0931 28.4745C92.324 30.103 90.5182 30.916 87.7233 30.916C83.723 30.9172 79.582 28.0857 79.582 22.5644Z" fill="white"/>
<path d="M94.0938 22.5644C94.0938 17.6801 97.5977 14.2471 102.553 14.2471C107.508 14.2471 111.048 17.6801 111.048 22.5644C111.048 27.4487 107.508 30.9172 102.553 30.9172C97.5977 30.9172 94.0938 27.4487 94.0938 22.5644ZM107.119 22.5644C107.119 19.662 105.279 17.6447 102.554 17.6447C99.8644 17.6447 97.9877 19.662 97.9877 22.5644C97.9877 25.4669 99.8632 27.4841 102.554 27.4841C105.278 27.4841 107.119 25.4669 107.119 22.5644Z" fill="white"/>
<path d="M129.024 6.74146V30.5931H126.402L125.697 28.0856C124.423 29.8192 122.477 30.8462 120 30.8462C115.47 30.8462 112.391 27.4486 112.391 22.458C112.391 17.7155 115.577 14.2824 120 14.2824C122.124 14.2824 124.035 15.1322 125.273 16.5479C125.202 15.0967 125.167 13.7518 125.167 12.0182V6.74146H129.024ZM125.309 22.5643C125.309 19.6619 123.504 17.68 120.779 17.68C118.089 17.68 116.283 19.6619 116.283 22.5643C116.283 25.5022 118.088 27.4841 120.779 27.4841C123.538 27.4841 125.309 25.5022 125.309 22.5643Z" fill="white"/>
<path d="M145.685 21.9983C145.685 22.5644 145.614 23.2014 145.543 23.8384H134.217C134.713 26.3863 136.695 27.7311 139.243 27.7311C141.047 27.7311 142.321 27.2005 143.419 26.2444L145.048 28.7214C143.243 30.1726 141.331 30.916 138.889 30.916C133.829 30.916 130.359 27.4829 130.359 22.5277C130.359 17.8916 133.722 14.2458 138.499 14.2458C142.959 14.2471 145.685 17.2559 145.685 21.9983ZM134.253 21.2196H142.04C141.934 18.7071 140.447 17.3977 138.43 17.3977C136.342 17.3977 134.678 18.778 134.253 21.2196Z" fill="white"/>
<path d="M183.319 20.2647L183.32 30.5932H180.769L180.03 28.0857C178.864 29.7496 176.989 30.7754 174.407 30.7754C171.507 30.7754 169.457 29.1469 169.457 26.3508C169.457 22.7405 172.639 20.7587 177.449 20.7587C178.263 20.7587 178.864 20.7941 179.43 20.8296V20.1217C179.43 18.4932 178.228 17.6801 176.212 17.6801C174.657 17.6801 172.923 18.1753 171.296 18.9541L170.125 16.0309C172.459 14.9696 174.691 14.3889 176.813 14.3889C180.843 14.3889 183.319 16.4417 183.319 20.2647ZM179.542 23.3432C178.905 23.2723 178.41 23.2369 177.702 23.2369C174.906 23.2369 173.278 24.2284 173.278 25.962C173.278 27.2005 174.127 27.873 175.543 27.873C177.807 27.8742 179.471 26.2102 179.542 23.3432Z" fill="white"/>
<path d="M195.964 14.7043C195.964 14.7043 192.248 24.7235 191.928 25.8911C191.61 24.7235 187.505 14.7043 187.505 14.7043H183.328V14.8498L190.07 30.5957L187.483 37.2662H191.104L199.997 14.8498V14.7043H195.964Z" fill="white"/>
</g>
<defs>
<clipPath id="clip0_1057_1607">
<rect width="200" height="45" fill="white"/>
</clipPath>
</defs>
</svg>
