<svg width="15" height="18" viewBox="0 0 15 18" fill="none" xmlns="http://www.w3.org/2000/svg">
<path d="M5.1155 14.5C4.65517 14.5 4.27083 14.3458 3.9625 14.0375C3.65417 13.7292 3.5 13.3448 3.5 12.8845V2.1155C3.5 1.65517 3.65417 1.27083 3.9625 0.9625C4.27083 0.654167 4.65517 0.5 5.1155 0.5H12.8845C13.3448 0.5 13.7292 0.654167 14.0375 0.9625C14.3458 1.27083 14.5 1.65517 14.5 2.1155V12.8845C14.5 13.3448 14.3458 13.7292 14.0375 14.0375C13.7292 14.3458 13.3448 14.5 12.8845 14.5H5.1155ZM5.1155 13.5H12.8845C13.0385 13.5 13.1796 13.4359 13.3077 13.3077C13.4359 13.1796 13.5 13.0385 13.5 12.8845V2.1155C13.5 1.9615 13.4359 1.82042 13.3077 1.69225C13.1796 1.56408 13.0385 1.5 12.8845 1.5H5.1155C4.9615 1.5 4.82042 1.56408 4.69225 1.69225C4.56408 1.82042 4.5 1.9615 4.5 2.1155V12.8845C4.5 13.0385 4.56408 13.1796 4.69225 13.3077C4.82042 13.4359 4.9615 13.5 5.1155 13.5ZM2.1155 17.5C1.65517 17.5 1.27083 17.3458 0.9625 17.0375C0.654167 16.7292 0.5 16.3449 0.5 15.8848V4.1155H1.5V15.8848C1.5 16.0386 1.56408 16.1796 1.69225 16.3077C1.82042 16.4359 1.9615 16.5 2.1155 16.5H10.8845V17.5H2.1155Z" fill="white"/>
</svg>
