<svg width="1136" height="218" viewBox="0 0 1136 218" fill="none" xmlns="http://www.w3.org/2000/svg">
<g clip-path="url(#clip0_1281_402679)">
<g opacity="0.1">
<path opacity="0.1" d="M767.242 147.124C765.698 145.088 738.039 113.568 738.039 113.568L796.446 122.765L767.242 147.124Z" fill="#E8E8E9"/>
</g>
<g opacity="0.05">
<path opacity="0.05" d="M850.711 150.214L881.739 99.5288L901.466 136.244L850.711 150.214Z" fill="#E8E8E9"/>
</g>
<g opacity="0.05">
<path opacity="0.05" d="M929.757 68.0791L993.779 109.006L979.459 72.7825L929.757 68.0791Z" fill="#E8E8E9"/>
</g>
<g opacity="0.2">
<path opacity="0.2" d="M1067.56 89.4194L1112.35 115.464L1083.92 71.6587L1067.56 89.4194Z" fill="#E8E8E9"/>
</g>
<g opacity="0.1">
<path opacity="0.1" d="M1032.81 206.234L1074.09 241.896L1122.18 183.77L1032.81 206.234Z" fill="#E8E8E9"/>
</g>
<g opacity="0.2">
<path opacity="0.2" d="M650.429 176.047L671.91 148.95L703.36 174.854L650.429 176.047Z" fill="#E8E8E9"/>
</g>
<g opacity="0.2">
<path opacity="0.2" d="M787.039 204.478L802.764 187.279L827.264 216.412L787.039 204.478Z" fill="#E8E8E9"/>
</g>
<g opacity="0.1">
<path opacity="0.1" d="M924.141 172.818L958.89 166.359L901.466 136.243L924.141 172.818Z" fill="#E8E8E9"/>
</g>
<g opacity="0.1">
<path opacity="0.1" d="M1013.22 70.6761L1000.59 39.9282L1051.84 22.1675L1013.22 70.6761Z" fill="#E8E8E9"/>
</g>
<path d="M830.072 215.851C829.791 214.307 828.317 213.324 826.772 213.605C825.228 213.886 824.245 215.36 824.526 216.904C824.807 218.449 826.281 219.432 827.825 219.151C829.299 218.87 830.353 217.396 830.072 215.851Z" fill="#E8E8E9"/>
<path d="M772.857 146.071C772.296 142.982 769.347 140.947 766.258 141.508C763.17 142.07 761.134 145.018 761.695 148.107C762.257 151.196 765.205 153.232 768.294 152.67C771.383 152.108 773.419 149.16 772.857 146.071Z" fill="#E8E8E9"/>
<path d="M1002.35 45.3247C1005.34 44.3424 1006.96 41.128 1005.98 38.1452C1004.99 35.1624 1001.78 33.5408 998.796 34.5231C995.813 35.5054 994.191 38.7198 995.174 41.7026C996.156 44.6853 999.37 46.307 1002.35 45.3247Z" fill="#E8E8E9"/>
<path d="M853.519 149.651C853.238 148.107 851.764 147.124 850.219 147.405C848.675 147.686 847.692 149.16 847.973 150.704C848.254 152.249 849.728 153.231 851.272 152.951C852.747 152.67 853.8 151.196 853.519 149.651Z" fill="#E8E8E9"/>
<path d="M1035.62 205.742C1035.34 204.197 1033.86 203.214 1032.32 203.495C1030.78 203.776 1029.79 205.25 1030.07 206.795C1030.35 208.339 1031.83 209.322 1033.37 209.041C1034.85 208.76 1035.9 207.286 1035.62 205.742Z" fill="#E8E8E9"/>
<path d="M996.587 108.445C996.306 106.901 994.832 105.918 993.287 106.199C991.743 106.479 990.76 107.954 991.041 109.498C991.322 111.043 992.796 112.025 994.34 111.745C995.885 111.464 996.868 109.99 996.587 108.445Z" fill="#E8E8E9"/>
<path d="M1126.67 182.927C1126.18 180.47 1123.86 178.855 1121.33 179.276C1118.88 179.768 1117.26 182.084 1117.68 184.611C1118.17 187.068 1120.49 188.683 1123.02 188.262C1125.47 187.77 1127.09 185.384 1126.67 182.927Z" fill="#E8E8E9"/>
<path d="M881.739 101.213C882.669 101.213 883.423 100.459 883.423 99.5286C883.423 98.5981 882.669 97.8438 881.739 97.8438C880.808 97.8438 880.054 98.5981 880.054 99.5286C880.054 100.459 880.808 101.213 881.739 101.213Z" fill="#E8E8E9"/>
<path d="M1016.03 70.1858C1015.75 68.6414 1014.28 67.6586 1012.73 67.9394C1011.19 68.2202 1010.21 69.6944 1010.49 71.2388C1010.77 72.7833 1012.24 73.7661 1013.79 73.4853C1015.26 73.2045 1016.31 71.7303 1016.03 70.1858Z" fill="#E8E8E9"/>
<path d="M901.324 133.436C899.779 133.506 898.516 134.84 898.586 136.384C898.656 137.929 899.99 139.192 901.534 139.122C903.079 139.052 904.342 137.718 904.272 136.174C904.202 134.559 902.868 133.366 901.324 133.436Z" fill="#E8E8E9"/>
<path d="M874.087 178.224C871.911 178.294 870.156 180.19 870.296 182.366C870.367 184.542 872.262 186.297 874.438 186.157C876.615 186.087 878.37 184.191 878.229 182.015C878.089 179.839 876.334 178.154 874.087 178.224Z" fill="#E8E8E9"/>
<path d="M741.268 197.106C740.355 197.177 739.583 197.949 739.653 198.862C739.723 199.774 740.495 200.546 741.408 200.476C742.32 200.406 743.093 199.634 743.023 198.721C743.023 197.809 742.25 197.036 741.268 197.106Z" fill="#E8E8E9"/>
<path d="M737.969 110.69C736.424 110.761 735.161 112.094 735.231 113.639C735.301 115.183 736.635 116.447 738.179 116.377C739.724 116.306 740.987 114.973 740.917 113.428C740.847 111.884 739.513 110.69 737.969 110.69Z" fill="#E8E8E9"/>
<path d="M955.24 217.887C954.959 216.342 953.485 215.359 951.94 215.64C950.396 215.921 949.413 217.395 949.694 218.94C949.975 220.484 951.449 221.467 952.993 221.186C954.538 220.905 955.52 219.431 955.24 217.887Z" fill="#E8E8E9"/>
<path d="M1000.73 163.13C1001.66 163.13 1002.41 162.376 1002.41 161.446C1002.41 160.515 1001.66 159.761 1000.73 159.761C999.798 159.761 999.044 160.515 999.044 161.446C999.044 162.376 999.798 163.13 1000.73 163.13Z" fill="#E8E8E9"/>
<path d="M1070.37 88.8582C1070.09 87.3138 1068.61 86.331 1067.07 86.6118C1065.52 86.8926 1064.54 88.3668 1064.82 89.9112C1065.1 91.4556 1066.58 92.4384 1068.12 92.1576C1069.6 91.8768 1070.65 90.4026 1070.37 88.8582Z" fill="#E8E8E9"/>
<path d="M674.717 148.387C674.436 146.843 672.962 145.86 671.418 146.141C669.873 146.421 668.891 147.896 669.171 149.44C669.452 150.984 670.926 151.967 672.471 151.686C674.015 151.476 674.998 149.931 674.717 148.387Z" fill="#E8E8E9"/>
<path d="M598.339 154.003C598.058 152.459 596.584 151.476 595.04 151.757C593.495 152.038 592.512 153.512 592.793 155.056C593.074 156.601 594.548 157.583 596.093 157.303C597.637 157.092 598.62 155.548 598.339 154.003Z" fill="#E8E8E9"/>
<path d="M626.279 192.123C626.139 191.211 625.226 190.579 624.313 190.79C623.401 191 622.769 191.843 622.98 192.755C623.19 193.668 624.033 194.3 624.945 194.089C625.858 193.949 626.419 193.106 626.279 192.123Z" fill="#E8E8E9"/>
<path d="M653.237 175.555C652.957 174.011 651.482 173.028 649.938 173.309C648.394 173.589 647.411 175.064 647.692 176.608C647.972 178.152 649.447 179.135 650.991 178.854C652.465 178.574 653.518 177.099 653.237 175.555Z" fill="#E8E8E9"/>
<path d="M685.879 217.396C685.458 215.22 683.422 213.816 681.246 214.237C679.07 214.658 677.666 216.694 678.087 218.87C678.508 221.046 680.544 222.45 682.72 222.029C684.896 221.608 686.3 219.572 685.879 217.396Z" fill="#E8E8E9"/>
<path d="M706.168 174.293C705.887 172.749 704.413 171.766 702.868 172.047C701.324 172.328 700.341 173.802 700.622 175.346C700.903 176.891 702.377 177.873 703.921 177.593C705.396 177.382 706.449 175.838 706.168 174.293Z" fill="#E8E8E9"/>
<path d="M799.253 122.273C798.973 120.729 797.498 119.746 795.954 120.027C794.41 120.308 793.427 121.782 793.707 123.326C793.988 124.871 795.463 125.853 797.007 125.573C798.551 125.292 799.534 123.818 799.253 122.273Z" fill="#E8E8E9"/>
<path d="M805.571 186.788C805.29 185.244 803.816 184.261 802.272 184.542C800.727 184.823 799.745 186.297 800.025 187.841C800.306 189.386 801.78 190.369 803.325 190.088C804.799 189.807 805.852 188.333 805.571 186.788Z" fill="#E8E8E9"/>
<path d="M912.908 219.992C912.627 218.448 911.153 217.465 909.609 217.746C908.064 218.027 907.081 219.501 907.362 221.045C907.643 222.59 909.117 223.573 910.662 223.292C912.136 223.081 913.189 221.537 912.908 219.992Z" fill="#E8E8E9"/>
<path d="M764.715 219.22C765.645 219.22 766.399 218.465 766.399 217.535C766.399 216.604 765.645 215.85 764.715 215.85C763.784 215.85 763.03 216.604 763.03 217.535C763.03 218.465 763.784 219.22 764.715 219.22Z" fill="#E8E8E9"/>
<path d="M1007.61 22.168C1008.54 22.168 1009.29 21.4137 1009.29 20.4832C1009.29 19.5527 1008.54 18.7983 1007.61 18.7983C1006.68 18.7983 1005.93 19.5527 1005.93 20.4832C1005.93 21.4137 1006.68 22.168 1007.61 22.168Z" fill="#E8E8E9"/>
<path d="M802.693 82.3999C803.623 82.3999 804.377 81.6456 804.377 80.7151C804.377 79.7846 803.623 79.0303 802.693 79.0303C801.762 79.0303 801.008 79.7846 801.008 80.7151C801.008 81.6456 801.762 82.3999 802.693 82.3999Z" fill="#E8E8E9"/>
<path d="M684.967 121.923C684.827 121.011 683.915 120.379 683.002 120.589C682.089 120.73 681.457 121.643 681.668 122.555C681.809 123.468 682.721 124.1 683.634 123.889C684.546 123.749 685.178 122.906 684.967 121.923Z" fill="#E8E8E9"/>
<path d="M590.476 117.571C590.336 116.658 589.423 116.026 588.511 116.237C587.598 116.377 586.966 117.29 587.177 118.203C587.317 119.115 588.23 119.747 589.142 119.536C590.055 119.396 590.687 118.483 590.476 117.571Z" fill="#E8E8E9"/>
<path d="M863.346 8.68892C863.206 7.77632 862.293 7.14451 861.381 7.35511C860.468 7.49551 859.836 8.40812 860.047 9.32073C860.187 10.2333 861.1 10.8651 862.013 10.6545C862.925 10.4439 863.557 9.60153 863.346 8.68892Z" fill="#E8E8E9"/>
<path d="M1095.99 36.4177C1095.85 35.7859 1095.29 35.3647 1094.66 35.5051C1094.02 35.6455 1093.6 36.2071 1093.74 36.8389C1093.88 37.4707 1094.45 37.8919 1095.08 37.7515C1095.71 37.6111 1096.13 36.9793 1095.99 36.4177Z" fill="#E8E8E9"/>
<path d="M1066.65 182.716C1066.51 182.084 1065.94 181.663 1065.31 181.803C1064.68 181.943 1064.26 182.505 1064.4 183.137C1064.54 183.769 1065.1 184.19 1065.73 184.049C1066.37 183.909 1066.79 183.277 1066.65 182.716Z" fill="#E8E8E9"/>
<path d="M705.677 217.887C705.537 217.255 704.975 216.834 704.343 216.974C703.711 217.115 703.29 217.676 703.431 218.308C703.571 218.94 704.133 219.361 704.764 219.221C705.396 219.08 705.817 218.519 705.677 217.887Z" fill="#E8E8E9"/>
<path d="M877.106 167.061C876.965 166.429 876.404 166.008 875.772 166.148C875.14 166.289 874.719 166.85 874.859 167.482C875 168.114 875.561 168.535 876.193 168.395C876.825 168.324 877.246 167.693 877.106 167.061Z" fill="#E8E8E9"/>
<path d="M396.793 81.8378C396.722 81.5572 396.442 81.3468 396.161 81.4169C395.881 81.4871 395.67 81.7676 395.74 82.0482C395.811 82.3288 396.091 82.5393 396.372 82.4691C396.652 82.399 396.863 82.1184 396.793 81.8378Z" fill="#E8E8E9"/>
<path d="M944.708 31.1532C944.638 30.8726 944.357 30.6622 944.077 30.7323C943.796 30.8025 943.586 31.0831 943.656 31.3637C943.726 31.6443 944.007 31.8547 944.287 31.7845C944.568 31.7144 944.778 31.4338 944.708 31.1532Z" fill="#E8E8E9"/>
<path d="M900.48 15.9193C900.41 15.6388 900.13 15.4283 899.849 15.4985C899.569 15.5686 899.358 15.8492 899.428 16.1298C899.498 16.4104 899.779 16.6208 900.059 16.5507C900.34 16.5507 900.55 16.2701 900.48 15.9193Z" fill="#E8E8E9"/>
<path d="M860.537 60.8476C860.467 60.567 860.187 60.3565 859.906 60.4267C859.626 60.4968 859.415 60.7774 859.485 61.058C859.555 61.3386 859.836 61.549 860.117 61.4789C860.397 61.4087 860.608 61.1281 860.537 60.8476Z" fill="#E8E8E9"/>
<path d="M841.022 18.1664C840.951 17.8858 840.671 17.6754 840.39 17.7455C840.11 17.8157 839.899 18.0963 839.969 18.3769C840.04 18.6574 840.32 18.8679 840.601 18.7977C840.881 18.7276 841.092 18.447 841.022 18.1664Z" fill="#E8E8E9"/>
<path d="M720.629 113.92C720.558 113.64 720.278 113.429 719.997 113.499C719.717 113.57 719.506 113.85 719.576 114.131C719.646 114.411 719.927 114.622 720.208 114.552C720.418 114.552 720.629 114.271 720.629 113.92Z" fill="#E8E8E9"/>
<path d="M746.392 83.5224C746.322 83.2418 746.041 83.0313 745.761 83.1015C745.48 83.1716 745.27 83.4522 745.34 83.7328C745.41 84.0134 745.691 84.2238 745.971 84.1537C746.252 84.1537 746.462 83.8731 746.392 83.5224Z" fill="#E8E8E9"/>
<path d="M636.668 141.367C636.949 141.227 637.019 140.876 636.879 140.596C636.739 140.315 636.388 140.245 636.107 140.385C635.827 140.525 635.757 140.876 635.897 141.157C636.037 141.437 636.388 141.507 636.668 141.367Z" fill="#E8E8E9"/>
<path d="M648.533 120.307C648.813 120.166 648.883 119.816 648.743 119.535C648.603 119.254 648.252 119.184 647.972 119.325C647.691 119.465 647.621 119.816 647.761 120.096C647.901 120.377 648.252 120.447 648.533 120.307Z" fill="#E8E8E9"/>
<path d="M554.533 178.784C554.814 178.643 554.884 178.293 554.743 178.012C554.603 177.731 554.252 177.661 553.972 177.802C553.691 177.942 553.621 178.293 553.761 178.573C553.902 178.854 554.252 178.994 554.533 178.784Z" fill="#E8E8E9"/>
<path d="M1077.18 3.14301C1077.46 3.00272 1077.53 2.65199 1077.39 2.37141C1077.25 2.09082 1076.9 2.02067 1076.62 2.16097C1076.33 2.30126 1076.26 2.65199 1076.4 2.93258C1076.54 3.21316 1076.97 3.28331 1077.18 3.14301Z" fill="#E8E8E9"/>
<path d="M788.724 204.197C788.583 203.285 787.671 202.653 786.758 202.863C785.845 203.074 785.214 203.916 785.424 204.829C785.565 205.742 786.477 206.373 787.39 206.163C788.302 205.952 788.934 205.11 788.724 204.197Z" fill="#E8E8E9"/>
<path d="M832.108 89.4195C831.195 89.4897 830.423 90.2619 830.493 91.1745C830.563 92.0871 831.335 92.8593 832.248 92.7891C833.161 92.7189 833.933 91.9467 833.863 91.0341C833.792 90.1215 833.02 89.3493 832.108 89.4195Z" fill="#E8E8E9"/>
<path d="M979.388 71.0972C978.476 71.1674 977.704 71.9396 977.774 72.8522C977.844 73.7648 978.616 74.537 979.529 74.4668C980.441 74.3966 981.214 73.6244 981.143 72.7118C981.143 71.7992 980.371 71.0972 979.388 71.0972Z" fill="#E8E8E9"/>
<path d="M1115.16 114.902C1114.88 113.357 1113.4 112.374 1111.86 112.655C1110.31 112.936 1109.33 114.41 1109.61 115.955C1109.89 117.499 1111.37 118.482 1112.91 118.201C1114.38 117.92 1115.44 116.446 1115.16 114.902Z" fill="#E8E8E9"/>
<path d="M932.563 67.5872C932.283 66.0428 930.808 65.06 929.264 65.3408C927.72 65.6216 926.737 67.0958 927.018 68.6402C927.298 70.1846 928.773 71.1674 930.317 70.8866C931.791 70.6058 932.844 69.1316 932.563 67.5872Z" fill="#E8E8E9"/>
<path d="M961.698 165.798C961.417 164.253 959.943 163.27 958.398 163.551C956.854 163.832 955.871 165.306 956.152 166.851C956.433 168.395 957.907 169.378 959.451 169.097C960.925 168.886 961.978 167.342 961.698 165.798Z" fill="#E8E8E9"/>
<path d="M890.304 53.5462C890.023 52.0018 888.549 51.019 887.004 51.2998C885.46 51.5806 884.477 53.0548 884.758 54.5992C885.039 56.1436 886.513 57.1264 888.057 56.8456C889.531 56.5648 890.584 55.0906 890.304 53.5462Z" fill="#E8E8E9"/>
<path d="M1054.64 21.6057C1054.36 20.0613 1052.89 19.0785 1051.34 19.3593C1049.8 19.6401 1048.82 21.1143 1049.1 22.6588C1049.38 24.2032 1050.85 25.186 1052.4 24.9052C1053.94 24.6244 1054.92 23.1502 1054.64 21.6057Z" fill="#E8E8E9"/>
<path d="M1075.77 133.365C1075.49 131.821 1074.02 130.838 1072.47 131.119C1070.93 131.399 1069.95 132.874 1070.23 134.418C1070.51 135.962 1071.98 136.945 1073.53 136.664C1075.07 136.384 1076.05 134.909 1075.77 133.365Z" fill="#E8E8E9"/>
<g opacity="0.3">
<path opacity="0.3" d="M951.94 218.378L996.587 187.068L958.819 166.71L916.348 174.643L910.17 222.309L899.71 177.732L874.368 182.505L827.053 216.904L814.487 178.644L802.693 187.77L767.312 147.475L740.496 169.799L741.619 199.213L713.539 192.193L681.948 218.518L624.524 192.825L560.501 227.785L595.181 154.425L595.251 154.285L672.542 148.599L650.92 175.907L713.398 191.491L739.934 169.448L737.758 112.656L767.453 146.493L796.656 122.203L814.838 177.521L850.5 149.932L881.95 98.686L900.272 176.96L915.786 174.081L922.175 124.45L900.834 137.015L930.388 65.8321L922.947 123.326L1013.15 70.3951L1068.12 89.3493L1016.17 145.51L1028.04 165.166L1072.83 133.786L1073.18 133.505L1097.82 212.902L1121.9 183.769L1112.07 115.674L1050.78 21.1846L1217.72 132.523L1218 132.733L1151.59 216.693L1116.63 275.872L1097.54 214.236L1074.09 242.597L1027.83 166.078L997.781 187.139L1033.16 206.233L1019.54 277.136L951.94 218.378ZM997.219 187.419L952.993 218.448L1019.19 275.802L1032.53 206.444L997.219 187.419ZM1052.96 23.2906L1112.63 115.323L1112.7 115.394L1122.6 183.769V183.909L1098.1 213.534L1116.91 274.187L1151.17 216.202L1217.16 132.733L1052.96 23.2906ZM1072.83 134.418L1028.39 165.587L1074.16 241.333L1097.33 213.394L1072.83 134.418ZM681.948 217.746L712.907 191.982L649.937 176.258L671.278 149.301L595.812 154.846L561.976 226.311L624.454 192.193L624.595 192.123L681.948 217.746ZM900.342 177.591L909.96 218.729L915.646 174.713L900.342 177.591ZM881.599 100.371L850.921 150.354V150.424L814.978 178.223L827.404 215.921L874.087 181.944L899.57 177.17L881.599 100.371ZM714.241 191.702L741.057 198.371L740.004 170.291L714.241 191.702ZM796.305 123.326L767.804 147.054L802.764 186.928L814.276 178.013L796.305 123.326ZM1015.75 145.861L1000.52 162.288L993.288 107.531L1015.82 144.808L1067 89.4897L1013.22 70.9567L922.806 123.958L916.348 173.871L958.749 165.938H958.89L997.079 186.577L1027.41 165.306L1015.75 145.861ZM738.39 114.411L740.496 168.957L766.891 146.914L738.39 114.411ZM994.341 110.409L1001.01 160.884L1015.4 145.299L994.341 110.409ZM929.125 70.3951L902.097 135.541L922.245 123.677L929.125 70.3951Z" fill="#E8E8E9"/>
</g>
<path d="M594.619 153.863L651.13 176.047L624.524 192.895L594.619 153.863ZM596.514 155.267L624.665 192.052L649.726 176.187L596.514 155.267Z" fill="#E8E8E9"/>
<path d="M703.321 174.511L650.405 175.741L650.42 176.372L703.335 175.142L703.321 174.511Z" fill="#E8E8E9"/>
<g opacity="0.8">
<path opacity="0.8" d="M629.228 252.635L629.368 252.495L682.089 218.448L742.11 198.862L703.781 174.713L738.319 113.709L737.828 113.428L702.938 174.923L703.219 175.134L740.636 198.721L681.878 217.816L681.808 217.886L629.157 251.933L561.414 226.731L561.203 227.293L629.228 252.635Z" fill="#E8E8E9"/>
</g>
<path d="M624.912 192.47L624.282 192.519L628.847 252.296L629.477 252.248L624.912 192.47Z" fill="#E8E8E9"/>
<g opacity="0.6">
<path opacity="0.6" d="M650.147 176.258L650.639 175.907L681.878 217.536L702.938 174.924L671.348 148.88L737.968 113.218L796.445 122.414H796.516L826.983 137.858L881.669 99.1777L994.341 108.655L959.17 166.43L952.642 219.291L901.325 136.595L851.272 150.354L874.508 181.944L910.872 220.905L827.474 216.693L827.334 216.974L827.053 216.623L786.968 204.759L741.268 199.073L739.864 199.354L826.281 138.279L796.235 123.116L737.968 113.92L672.331 149.02L703.57 174.784L681.878 218.729L650.147 176.258ZM827.685 216.062L909.328 220.133L874.017 182.295L850.781 150.775L827.685 216.062ZM743.374 198.722L787.109 204.198L826.281 215.781L802.553 187.63L743.374 198.722ZM827.053 138.56L742.672 198.231L802.693 186.999H802.904L827.193 215.781L850.359 150.354L827.053 138.56ZM881.879 99.8797L827.685 138.209L850.781 149.863L901.395 135.963L901.606 135.893L952.22 217.466L958.539 166.289V166.219L993.218 109.216L881.879 99.8797Z" fill="#E8E8E9"/>
</g>
<g opacity="0.6">
<path opacity="0.6" d="M1019.47 276.645L1074.65 241.896L1032.88 205.953H1032.74L952.36 218.098L910.029 220.204L909.959 220.274L866.997 241.896L827.403 216.132L827.123 216.624L866.997 242.598L867.137 242.528L910.17 220.836L952.431 218.73L1032.67 206.585L1073.6 241.826L1019.19 276.083L1019.47 276.645Z" fill="#E8E8E9"/>
</g>
<path d="M802.552 187.045L786.845 204.267L787.312 204.692L803.018 187.471L802.552 187.045Z" fill="#E8E8E9"/>
<path d="M831.967 90.8944L832.108 90.8242L883.284 99.5291L795.323 123.467L831.967 90.8944ZM832.248 91.456L797.639 122.134L880.265 99.5993L832.248 91.456Z" fill="#E8E8E9"/>
<path d="M993.499 109.076L994.06 108.865L979.95 73.1333L1013.65 70.9571L1000.87 39.7881L1000.31 39.9987L1012.73 70.3955L979.037 72.5015L993.499 109.076Z" fill="#E8E8E9"/>
<path d="M1067.28 89.4892L1067.91 89.3488C1067.42 86.611 1052.82 24.6941 1052.19 22.0967L1051.55 22.2371C1051.69 22.8689 1066.72 86.6812 1067.28 89.4892Z" fill="#E8E8E9"/>
<g opacity="0.8">
<path opacity="0.8" d="M1032.53 206.444L1033.02 206.093L1000.87 161.235L1000.73 161.305L958.959 166.009L901.675 136.033L882.089 99.4586L887.775 54.5303L929.755 68.43L979.668 73.1334L1000.8 40.1392L1050.92 22.7996L1012.94 70.536L993.217 109.497L1067.28 89.771L1072.68 133.997L1121.96 183.98L1122.39 183.559L1073.32 133.717L1067.84 88.9987L994.41 108.515L1013.5 70.8168L1052.75 21.4658L1000.38 39.6478L979.317 72.5016L929.825 67.7982L887.214 53.6879L881.457 99.599L901.184 136.454L901.324 136.525L958.818 166.711L1000.59 161.937L1032.53 206.444Z" fill="#E8E8E9"/>
</g>
<path d="M901.536 136.524L994.551 109.075L929.756 67.7271L881.599 99.2471L881.95 99.8087L929.756 68.4291L993.077 108.865L901.325 135.962L901.536 136.524Z" fill="#E8E8E9"/>
<g opacity="0.3">
<path opacity="0.3" d="M738.109 113.849L832.318 91.3847L887.636 54.389L998.202 40.5595L929.616 67.7973L929.897 68.3589L1002.98 39.2959L887.355 53.7572L887.285 53.8274L832.037 90.8231L737.968 113.217L738.109 113.849Z" fill="#E8E8E9"/>
</g>
<path d="M1116.63 275.241L1162.54 265.623L1195.46 202.723L1194.9 202.443L1162.12 265.062L1116.77 274.609L1074.79 241.966L1151.87 216.553L1122.32 183.418L1122.11 183.489L1033.44 205.812L1073.25 134.138L1112.98 115.464L1068.05 89.3496L1143.38 7.70636L1142.88 7.28516L1067.07 89.49L1111.65 115.394L1072.75 133.646L1072.68 133.716L1032.18 206.725L1032.88 206.585L1122.11 184.12L1150.75 216.202L1073.46 241.755L1116.63 275.241Z" fill="#E8E8E9"/>
<path d="M993.498 109.076L1073.95 133.787L1000.45 162.007L993.498 109.076ZM994.27 109.989L1001.01 161.165L1072.05 133.927L994.27 109.989Z" fill="#E8E8E9"/>
<path d="M1122.39 184.05L1182.83 143.263L1112.7 115.253L1140.22 34.0314L1139.59 33.8208L1111.93 115.604L1181.5 143.404L1122.04 183.488L1122.39 184.05Z" fill="#E8E8E9"/>
<g opacity="0.5">
<path opacity="0.5" d="M1051.84 21.8432L1051.82 22.4746L1140.36 25.5888L1140.38 24.9574L1051.84 21.8432Z" fill="#E8E8E9"/>
</g>
<g opacity="0.1">
<path opacity="0.1" d="M384.016 194.439C384.999 196.826 403.883 234.243 403.883 234.243L349.618 210.726L384.016 194.439Z" fill="#E8E8E9"/>
</g>
<g opacity="0.05">
<path opacity="0.05" d="M303.989 170.642L261.237 211.92L251.408 171.414L303.989 170.642Z" fill="#E8E8E9"/>
</g>
<g opacity="0.05">
<path opacity="0.05" d="M206.902 230.383L155.164 174.714L160.008 213.324L206.902 230.383Z" fill="#E8E8E9"/>
</g>
<g opacity="0.2">
<path opacity="0.2" d="M78.8548 175.275L41.9995 138.841L58.5668 188.332L78.8548 175.275Z" fill="#E8E8E9"/>
</g>
<g opacity="0.1">
<path opacity="0.1" d="M141.684 70.8162L110.585 25.958L49.5107 70.2546L141.684 70.8162Z" fill="#E8E8E9"/>
</g>
<g opacity="0.2">
<path opacity="0.2" d="M504.411 195.635L476.752 216.484L452.813 183.56L504.411 195.635Z" fill="#E8E8E9"/>
</g>
<g opacity="0.2">
<path opacity="0.2" d="M379.173 133.927L359.728 146.633L343.231 112.375L379.173 133.927Z" fill="#E8E8E9"/>
</g>
<g opacity="0.1">
<path opacity="0.1" d="M238.561 130.346L203.32 127.889L251.408 171.413L238.561 130.346Z" fill="#E8E8E9"/>
</g>
<g opacity="0.1">
<path opacity="0.1" d="M126.802 207.005L131.295 239.929L77.2402 244.281L126.802 207.005Z" fill="#E8E8E9"/>
</g>
<path d="M340.423 112.164C340.282 113.709 341.476 115.113 343.09 115.183C344.635 115.323 346.039 114.13 346.109 112.515C346.249 110.971 345.056 109.567 343.441 109.497C341.897 109.426 340.493 110.62 340.423 112.164Z" fill="#E8E8E9"/>
<path d="M378.331 194.087C378.12 197.246 380.507 199.914 383.596 200.125C386.755 200.335 389.422 197.948 389.633 194.86C389.844 191.701 387.457 189.033 384.368 188.822C381.279 188.612 378.541 190.928 378.331 194.087Z" fill="#E8E8E9"/>
<path d="M301.18 170.43C301.04 171.975 302.233 173.379 303.848 173.449C305.392 173.589 306.796 172.396 306.866 170.781C307.007 169.237 305.813 167.833 304.199 167.763C302.654 167.693 301.25 168.886 301.18 170.43Z" fill="#E8E8E9"/>
<path d="M138.876 70.6061C138.736 72.1505 139.929 73.5545 141.544 73.6247C143.088 73.7651 144.492 72.5717 144.562 70.9571C144.703 69.4127 143.509 68.0087 141.895 67.9385C140.35 67.8683 139.016 69.0617 138.876 70.6061Z" fill="#E8E8E9"/>
<path d="M152.284 174.573C152.144 176.117 153.337 177.522 154.952 177.592C156.496 177.732 157.9 176.539 157.971 174.924C158.111 173.38 156.918 171.976 155.303 171.905C153.759 171.835 152.425 172.958 152.284 174.573Z" fill="#E8E8E9"/>
<path d="M45.0188 69.9034C44.8784 72.4307 46.7738 74.6069 49.2308 74.7473C51.6879 74.8877 53.9343 72.9923 54.0747 70.5352C54.2151 68.0782 52.3197 65.8318 49.8626 65.6914C47.3354 65.551 45.1592 67.4464 45.0188 69.9034Z" fill="#E8E8E9"/>
<path d="M259.551 211.779C259.481 212.691 260.183 213.534 261.166 213.604C262.078 213.674 262.921 212.972 262.991 211.989C263.061 211.077 262.359 210.234 261.376 210.164C260.464 210.164 259.621 210.866 259.551 211.779Z" fill="#E8E8E9"/>
<path d="M123.924 206.796C123.783 208.34 124.977 209.744 126.591 209.814C128.136 209.955 129.54 208.761 129.61 207.147C129.75 205.602 128.557 204.198 126.942 204.128C125.398 204.058 124.064 205.181 123.924 206.796Z" fill="#E8E8E9"/>
<path d="M250.776 174.222C252.321 174.573 253.795 173.59 254.146 172.046C254.497 170.501 253.514 169.027 251.97 168.676C250.425 168.325 248.951 169.308 248.6 170.852C248.249 172.327 249.232 173.871 250.776 174.222Z" fill="#E8E8E9"/>
<path d="M288.333 137.647C290.509 138.138 292.616 136.734 293.037 134.628C293.528 132.452 292.124 130.346 290.018 129.925C287.842 129.434 285.736 130.838 285.315 132.944C284.823 135.05 286.157 137.156 288.333 137.647Z" fill="#E8E8E9"/>
<path d="M421.644 152.529C422.556 152.74 423.469 152.178 423.68 151.196C423.89 150.283 423.329 149.37 422.346 149.16C421.433 148.949 420.521 149.511 420.31 150.494C420.17 151.476 420.731 152.389 421.644 152.529Z" fill="#E8E8E9"/>
<path d="M594.97 157.304C596.514 157.655 597.989 156.672 598.34 155.127C598.691 153.583 597.708 152.109 596.163 151.758C594.619 151.407 593.145 152.389 592.794 153.934C592.443 155.478 593.426 157.023 594.97 157.304Z" fill="#E8E8E9"/>
<path d="M219.748 78.9608C219.608 80.5052 220.801 81.9092 222.416 81.9794C223.96 82.1198 225.364 80.9264 225.434 79.3118C225.575 77.7674 224.381 76.3634 222.767 76.2932C221.152 76.223 219.818 77.3462 219.748 78.9608Z" fill="#E8E8E9"/>
<path d="M159.867 122.132C159.797 123.044 160.499 123.887 161.482 123.957C162.394 124.027 163.237 123.325 163.307 122.342C163.377 121.43 162.675 120.587 161.692 120.517C160.71 120.447 159.937 121.149 159.867 122.132Z" fill="#E8E8E9"/>
<path d="M75.977 175.064C75.8366 176.609 77.0301 178.013 78.6447 178.083C80.1891 178.223 81.5931 177.03 81.6633 175.415C81.8037 173.871 80.6103 172.467 78.9957 172.396C77.4513 172.326 76.1174 173.52 75.977 175.064Z" fill="#E8E8E9"/>
<path d="M473.943 216.343C473.802 217.887 474.996 219.291 476.611 219.361C478.155 219.502 479.559 218.308 479.629 216.694C479.77 215.149 478.576 213.745 476.962 213.675C475.417 213.605 474.083 214.728 473.943 216.343Z" fill="#E8E8E9"/>
<path d="M534.903 187.169C535.428 186.401 535.231 185.353 534.462 184.827C533.694 184.302 532.646 184.499 532.121 185.268C531.596 186.036 531.793 187.084 532.561 187.609C533.329 188.135 534.378 187.937 534.903 187.169Z" fill="#E8E8E9"/>
<path d="M501.532 195.423C501.392 196.967 502.585 198.371 504.2 198.441C505.744 198.582 507.148 197.388 507.218 195.774C507.359 194.229 506.165 192.825 504.551 192.755C503.006 192.685 501.673 193.878 501.532 195.423Z" fill="#E8E8E9"/>
<path d="M480.403 146.703C480.262 148.879 481.877 150.775 484.123 150.915C486.299 151.055 488.195 149.441 488.335 147.194C488.476 145.018 486.861 143.123 484.615 142.982C482.368 142.842 480.543 144.527 480.403 146.703Z" fill="#E8E8E9"/>
<path d="M450.005 183.348C449.864 184.892 451.058 186.296 452.672 186.366C454.217 186.507 455.621 185.313 455.691 183.699C455.832 182.154 454.638 180.75 453.023 180.68C451.479 180.61 450.075 181.803 450.005 183.348Z" fill="#E8E8E9"/>
<path d="M346.811 210.516C346.67 212.06 347.864 213.464 349.478 213.534C351.023 213.675 352.427 212.481 352.497 210.867C352.637 209.322 351.444 207.918 349.829 207.848C348.285 207.778 346.951 208.971 346.811 210.516Z" fill="#E8E8E9"/>
<path d="M356.849 146.492C356.708 148.036 357.902 149.44 359.516 149.511C361.061 149.651 362.465 148.458 362.535 146.843C362.675 145.299 361.482 143.895 359.867 143.824C358.323 143.754 356.989 144.877 356.849 146.492Z" fill="#E8E8E9"/>
<path d="M261.236 87.4538C261.096 88.9982 262.289 90.4022 263.904 90.4724C265.448 90.6128 266.852 89.4194 266.922 87.8048C267.063 86.2604 265.869 84.8563 264.255 84.7861C262.71 84.7159 261.376 85.9094 261.236 87.4538Z" fill="#E8E8E9"/>
<path d="M170.608 6.16153C170.538 7.07414 171.24 7.91655 172.223 7.98675C173.135 8.05695 173.978 7.35494 174.048 6.37213C174.118 5.45953 173.416 4.61712 172.433 4.54692C171.451 4.47672 170.608 5.24893 170.608 6.16153Z" fill="#E8E8E9"/>
<path d="M309.535 77.2743C309.465 78.1869 310.167 79.0293 311.15 79.0995C312.062 79.1697 312.905 78.4677 312.975 77.4849C313.045 76.5723 312.343 75.7299 311.36 75.6597C310.448 75.6597 309.605 76.3617 309.535 77.2743Z" fill="#E8E8E9"/>
<path d="M402.339 126.837C402.269 127.749 402.971 128.592 403.953 128.662C404.866 128.732 405.708 128.03 405.779 127.047C405.849 126.135 405.147 125.292 404.164 125.222C403.251 125.152 402.409 125.854 402.339 126.837Z" fill="#E8E8E9"/>
<path d="M244.177 59.7953C244.107 60.7079 244.809 61.5503 245.792 61.6205C246.704 61.6907 247.547 60.9887 247.617 60.0059C247.687 59.0933 246.985 58.2509 246.002 58.1807C245.02 58.1807 244.177 58.8827 244.177 59.7953Z" fill="#E8E8E9"/>
<path d="M114.518 1.73863C114.448 2.65124 115.15 3.49365 116.133 3.56385C117.045 3.63405 117.888 2.93204 117.958 1.94924C118.028 1.03663 117.326 0.194224 116.343 0.124023C115.36 0.124023 114.588 0.826026 114.518 1.73863Z" fill="#E8E8E9"/>
<path d="M103.004 85.138C102.934 85.7698 103.425 86.3314 104.057 86.3314C104.689 86.4016 105.25 85.9102 105.25 85.2784C105.321 84.6466 104.829 84.085 104.197 84.085C103.566 84.085 103.074 84.5062 103.004 85.138Z" fill="#E8E8E9"/>
<path d="M461.308 141.299C461.238 141.931 461.729 142.492 462.361 142.492C462.993 142.563 463.554 142.071 463.554 141.439C463.625 140.808 463.133 140.246 462.501 140.246C461.94 140.176 461.378 140.667 461.308 141.299Z" fill="#E8E8E9"/>
<path d="M282.647 147.616C282.577 148.247 283.068 148.809 283.7 148.809C284.332 148.879 284.893 148.388 284.893 147.756C284.964 147.124 284.472 146.562 283.84 146.562C283.209 146.562 282.717 147.054 282.647 147.616Z" fill="#E8E8E9"/>
<path d="M225.293 48.7028C225.293 48.9834 225.503 49.2639 225.854 49.3341C226.135 49.3341 226.415 49.1237 226.485 48.7729C226.485 48.4923 226.275 48.2117 225.924 48.1416C225.574 48.2117 225.293 48.4222 225.293 48.7028Z" fill="#E8E8E9"/>
<path d="M365.905 82.3292C365.905 82.6098 366.115 82.8904 366.466 82.9605C366.747 82.9605 367.027 82.7501 367.097 82.3994C367.097 82.1188 366.887 81.8382 366.536 81.7681C366.185 81.7681 365.905 82.0486 365.905 82.3292Z" fill="#E8E8E9"/>
<path d="M527.368 110.831C527.368 111.111 527.578 111.392 527.929 111.462C528.209 111.462 528.49 111.252 528.56 110.901C528.56 110.62 528.35 110.34 527.999 110.27C527.648 110.27 527.368 110.55 527.368 110.831Z" fill="#E8E8E9"/>
<path d="M536.634 67.4459C536.634 67.7265 536.844 68.0071 537.195 68.0773C537.476 68.0773 537.756 67.8668 537.826 67.5161C537.826 67.2355 537.616 66.9549 537.265 66.8848C536.914 66.8848 536.634 67.1654 536.634 67.4459Z" fill="#E8E8E9"/>
<path d="M580.719 118.623C580.719 118.903 580.93 119.184 581.28 119.254C581.561 119.254 581.842 119.044 581.912 118.693C581.912 118.412 581.701 118.132 581.351 118.062C581 118.132 580.719 118.342 580.719 118.623Z" fill="#E8E8E9"/>
<path d="M501.603 97.0714C501.603 97.352 501.813 97.6326 502.164 97.7027C502.444 97.7027 502.725 97.4923 502.795 97.1416C502.795 96.861 502.585 96.5804 502.234 96.5103C501.883 96.5103 501.603 96.7908 501.603 97.0714Z" fill="#E8E8E9"/>
<path d="M296.547 49.0543C296.547 49.3349 296.758 49.6155 297.108 49.6856C297.389 49.6856 297.669 49.4752 297.74 49.1245C297.74 48.8439 297.529 48.5633 297.178 48.4932C296.828 48.4932 296.547 48.7738 296.547 49.0543Z" fill="#E8E8E9"/>
<path d="M194.826 6.7223C194.826 7.00288 195.037 7.28347 195.387 7.35362C195.668 7.35362 195.949 7.14318 196.019 6.79245C196.019 6.51186 195.808 6.23128 195.457 6.16113C195.177 6.23128 194.896 6.44171 194.826 6.7223Z" fill="#E8E8E9"/>
<path d="M228.733 16.9713C228.733 17.2519 228.944 17.5325 229.295 17.6026C229.575 17.6026 229.856 17.3922 229.926 17.0415C229.926 16.7609 229.715 16.4803 229.365 16.4102C229.014 16.4803 228.733 16.6907 228.733 16.9713Z" fill="#E8E8E9"/>
<path d="M445.022 97.7028C445.022 97.9834 445.232 98.2639 445.583 98.3341C445.864 98.3341 446.144 98.1236 446.214 97.7729C446.214 97.4923 446.004 97.2117 445.653 97.1416C445.303 97.1416 445.022 97.4222 445.022 97.7028Z" fill="#E8E8E9"/>
<path d="M694.514 79.311C694.233 79.3812 694.023 79.7319 694.093 80.0125C694.163 80.2931 694.514 80.5035 694.794 80.4334C695.075 80.3632 695.285 80.0125 695.215 79.7319C695.145 79.3812 694.794 79.1707 694.514 79.311Z" fill="#E8E8E9"/>
<path d="M551.234 160.183C550.953 160.253 550.743 160.603 550.813 160.884C550.883 161.165 551.234 161.375 551.514 161.305C551.795 161.235 552.005 160.884 551.935 160.603C551.865 160.253 551.585 160.112 551.234 160.183Z" fill="#E8E8E9"/>
<path d="M597.917 216.974C597.637 217.044 597.426 217.395 597.497 217.676C597.567 217.956 597.917 218.167 598.198 218.096C598.479 218.026 598.689 217.676 598.619 217.395C598.549 217.044 598.268 216.834 597.917 216.974Z" fill="#E8E8E9"/>
<path d="M340.493 80.7151C340.422 81.3469 340.914 81.9085 341.546 81.9085C342.177 81.9787 342.739 81.4873 342.739 80.8555C342.809 80.2237 342.318 79.6621 341.686 79.6621C341.054 79.6621 340.563 80.0833 340.493 80.7151Z" fill="#E8E8E9"/>
<path d="M176.435 53.4066C176.364 54.3192 177.066 55.1616 178.049 55.2318C178.962 55.302 179.804 54.6 179.874 53.6172C179.945 52.7046 179.243 51.8621 178.26 51.7919C177.277 51.7217 176.505 52.4237 176.435 53.4066Z" fill="#E8E8E9"/>
<path d="M496.408 129.434C496.337 130.346 497.04 131.189 498.022 131.259C498.935 131.329 499.777 130.627 499.848 129.644C499.918 128.732 499.216 127.889 498.233 127.819C497.32 127.749 496.478 128.451 496.408 129.434Z" fill="#E8E8E9"/>
<path d="M377.488 133.787C377.418 134.7 378.12 135.542 379.103 135.612C380.015 135.682 380.858 134.98 380.928 133.998C380.998 133.085 380.296 132.243 379.313 132.172C378.401 132.172 377.558 132.874 377.488 133.787Z" fill="#E8E8E9"/>
<path d="M542.318 127.047C542.248 127.959 542.95 128.802 543.933 128.872C544.846 128.942 545.688 128.24 545.758 127.257C545.828 126.345 545.126 125.502 544.144 125.432C543.161 125.362 542.318 126.134 542.318 127.047Z" fill="#E8E8E9"/>
<path d="M159.586 215.009C160.499 215.219 161.411 214.658 161.622 213.675C161.832 212.762 161.271 211.85 160.288 211.639C159.375 211.429 158.463 211.99 158.252 212.973C158.112 213.886 158.673 214.798 159.586 215.009Z" fill="#E8E8E9"/>
<path d="M26.6267 31.154C26.4863 32.6984 27.6797 34.1024 29.2943 34.1726C30.9089 34.2428 32.2427 33.1196 32.3129 31.505C32.4533 29.9606 31.2599 28.5565 29.6453 28.4863C28.1009 28.4161 26.7671 29.6096 26.6267 31.154Z" fill="#E8E8E9"/>
<path d="M39.1919 138.63C39.0515 140.174 40.2449 141.578 41.8595 141.649C43.4039 141.789 44.8079 140.596 44.8781 138.981C45.0185 137.437 43.8251 136.033 42.2105 135.962C40.5959 135.892 39.2621 137.086 39.1919 138.63Z" fill="#E8E8E9"/>
<path d="M200.443 127.749C200.302 129.293 201.496 130.697 203.11 130.767C204.655 130.908 206.059 129.714 206.129 128.1C206.27 126.555 205.076 125.151 203.461 125.081C201.917 125.011 200.583 126.134 200.443 127.749Z" fill="#E8E8E9"/>
<path d="M107.777 25.8177C107.637 27.3621 108.83 28.7661 110.445 28.8363C111.989 28.9767 113.393 27.7833 113.464 26.1687C113.604 24.6243 112.411 23.2203 110.796 23.1501C109.252 23.0799 107.848 24.2031 107.777 25.8177Z" fill="#E8E8E9"/>
<path d="M81.8735 130.627C81.7331 132.172 82.9265 133.576 84.5411 133.646C86.0856 133.786 87.4896 132.593 87.5598 130.978C87.7002 129.434 86.5068 128.03 84.8921 127.959C83.3477 127.889 81.9437 129.083 81.8735 130.627Z" fill="#E8E8E9"/>
<g opacity="0.3">
<path opacity="0.3" d="M-55.7894 96.0875L-56 95.8067L29.2937 31.152L77.9427 -17.4268L81.0315 47.0173L110.797 25.4658L136.42 111.11L170.818 98.1935L141.334 70.8855L172.011 6.16062L172.222 5.66922L223.047 79.3096L172.011 98.4743L203.461 127.678L246.635 130.626L264.536 85.9786L263.483 131.749L289.176 133.504L343.16 112.163L343.582 112.023L346.179 152.248L359.868 146.351L384.017 194.228L415.537 179.275L421.785 150.493L447.198 164.322L484.193 146.842L484.404 146.772L533.544 185.944L595.461 154.354L595.742 154.916L533.685 186.576L533.474 186.646L484.334 147.474L447.9 164.603L504.551 195.351L504.973 195.562L477.594 216.271L561.344 226.661L561.273 227.292L475.98 216.692L503.779 195.632L447.198 164.954L416.099 179.696L404.024 235.225L383.736 195L349.408 211.216L345.617 153.09L304.199 170.921L261.517 212.199L260.955 212.761L262.781 132.381L246.986 131.328L228.382 177.801L252.18 170.992L205.708 232.557L227.259 178.784L126.662 207.496L78.2234 175.414L142.527 134.066L135.928 112.093L84.3309 131.469L80.3295 48.4214L49.8624 70.3941L42.351 138.769L78.0831 245.615L-55.7894 96.0875ZM77.381 -15.9525L29.7149 31.6434L-55.0874 95.9471L76.4684 242.947L41.7192 138.91V138.84L49.3008 70.0431L80.4699 47.4385L77.381 -15.9525ZM384.298 194.719L403.814 233.33L415.397 179.977L384.298 194.719ZM228.102 178.433L208.094 228.275L250.566 171.974L228.102 178.433ZM342.95 112.795L289.316 133.996H289.246L263.413 132.241L261.587 211.076L303.778 170.29L345.477 152.318L342.95 112.795ZM246.354 131.188L203.18 128.239L171.309 98.6849L136.56 111.672L143.089 133.504L161.903 121.43L155.233 176.257L142.738 134.487L79.3467 175.204L126.732 206.583L227.61 177.871L246.354 131.188ZM359.587 147.053L346.249 152.81L349.97 210.234L383.455 194.368L359.587 147.053ZM422.276 151.406L416.309 178.924L446.496 164.533L422.276 151.406ZM143.299 134.136L155.023 173.168L161.201 122.623L143.299 134.136ZM110.445 26.5188L81.0315 47.7895L84.9627 130.345L135.788 111.251L110.445 26.5188ZM247.196 130.556L262.711 131.609L263.693 89.3483L247.196 130.556ZM172.362 6.93283L142.106 70.7451L171.45 97.9829L222.064 79.0288L172.362 6.93283Z" fill="#E8E8E9"/>
</g>
<path d="M503.569 195.564L533.614 185.876L562.326 227.996L503.569 195.564ZM505.183 195.704L560.291 226.101L533.334 186.578L505.183 195.704Z" fill="#E8E8E9"/>
<path d="M452.914 183.241L452.77 183.856L504.309 195.919L504.453 195.304L452.914 183.241Z" fill="#E8E8E9"/>
<g opacity="0.8">
<path opacity="0.8" d="M404.094 234.454L453.234 183.558L453.094 183.348L422.697 151.196L484.403 147.335L543.934 127.468L595.391 154.846L595.742 154.285L544.004 126.836H543.863L484.263 146.703L421.363 150.634L452.392 183.558L403.673 234.033L404.094 234.454Z" fill="#E8E8E9"/>
</g>
<path d="M543.685 127.148L533.188 186.17L533.81 186.281L544.307 127.259L543.685 127.148Z" fill="#E8E8E9"/>
<g opacity="0.6">
<path opacity="0.6" d="M349.549 211.007L323.856 188.473L261.237 212.271L154.532 174.924L202.971 127.82L222.557 78.188L251.62 171.134L303.568 170.361L288.966 133.927L263.483 87.1035L343.161 112.025L343.372 111.744L343.582 112.165L379.385 133.646L422.207 150.565L423.611 150.635L324.628 188.192L349.9 210.446L404.025 233.893L476.332 216.272L452.674 183.699L452.534 183.489L484.545 146.353L504.763 195.423L504.201 195.633L484.334 147.476L453.306 183.489L477.385 216.623L404.025 234.454H403.955L349.549 211.007ZM303.849 170.923L251.128 171.765L222.486 80.0834L203.602 128.03V128.101L155.796 174.644L261.237 211.569L323.294 187.982L303.849 170.923ZM359.658 146.985H359.448L343.161 113.007L304.34 170.572L323.926 187.771L420.522 151.126L359.658 146.985ZM264.747 88.1565L289.458 133.576L304.059 169.87L342.74 112.446L264.747 88.1565ZM359.939 146.353L420.101 150.424L379.104 134.208L344.003 113.218L359.939 146.353Z" fill="#E8E8E9"/>
</g>
<g opacity="0.6">
<path opacity="0.6" d="M343.02 112.586L343.511 112.165L311.359 77.0643L264.114 87.3136L222.626 78.8193L141.895 70.4655L111.077 26.1689L172.362 6.58298L172.152 5.95117L110.094 25.8179L141.544 71.0973H141.684L222.485 79.4511L264.114 87.9454H264.184L311.149 77.7663L343.02 112.586Z" fill="#E8E8E9"/>
</g>
<path d="M379.057 133.646L359.544 146.392L359.89 146.921L379.402 134.175L379.057 133.646Z" fill="#E8E8E9"/>
<path d="M259.832 211.639L351.023 210.445L307.217 232.839L259.832 211.639ZM262.71 212.2L307.147 232.137L348.285 211.077L262.71 212.2Z" fill="#E8E8E9"/>
<path d="M29.7851 31.3642C30.2063 14.5862 31.0487 -17.4954 31.3295 -18.759L30.6977 -18.8994C30.3467 -17.2146 29.2235 29.3986 29.1533 31.3642H29.7851Z" fill="#E8E8E9"/>
<path d="M131.013 240L131.645 239.86L127.152 207.357L160.357 213.745L155.443 174.714L154.811 174.784L159.585 212.973L126.38 206.585L131.013 240Z" fill="#E8E8E9"/>
<path d="M76.8889 244.282H77.5207C77.5207 243.65 78.9247 178.013 79.1353 175.275L78.5035 175.205C78.2929 178.013 76.9591 241.614 76.8889 244.282Z" fill="#E8E8E9"/>
<g opacity="0.8">
<path opacity="0.8" d="M244.529 254.953L244.669 254.602L261.587 211.92V211.85L251.689 171.274L251.619 171.203L203.461 127.609L161.762 121.782L142.036 70.6762L141.404 70.8868L161.341 122.344L203.181 128.241L251.128 171.625L260.956 211.85L244.178 253.97L207.042 230.031L159.867 212.973L131.155 239.649L78.2937 243.931L127.013 207.216V207.146L155.865 174.433L79.2063 174.924L85.033 130.768L84.9628 130.698L49.7923 70.0444L49.2307 70.3954L84.331 130.908L78.5043 175.556L154.461 175.064L126.522 206.725L76.1877 244.703L131.436 240.211L160.077 213.675L206.761 230.663L244.529 254.953Z" fill="#E8E8E9"/>
</g>
<path d="M206.831 230.734L207.041 230.663L261.376 212.201L261.166 211.639L207.041 229.961L155.865 175.065L251.408 171.765L251.338 171.133L154.461 174.433L206.831 230.734Z" fill="#E8E8E9"/>
<path d="M-14.6529 235.929L79.3456 175.275L79.0648 174.995L42.6307 139.052L84.8213 131.119L84.8915 131.049L142.456 70.466L49.721 69.9044L29.9946 31.6451L111.217 26.2397L77.8012 -17.0038H77.6608L30.9072 -19.1099L30.7669 -19.0397L-16.6887 33.5405L-16.2675 33.9617L31.188 -18.4781L77.4502 -16.372L109.953 25.7483L29.0118 31.0835L49.37 70.5362H49.5104L140.982 71.0978L84.5405 130.558L41.3671 138.631L78.2926 175.205L-15.0039 235.437L-14.6529 235.929Z" fill="#E8E8E9"/>
<path d="M83.769 130.627L161.902 121.711L155.514 174.221L155.444 174.713L83.769 130.627ZM85.6645 131.048L155.023 173.66L161.27 122.413L85.6645 131.048Z" fill="#E8E8E9"/>
<path d="M-4.8242 211.076L42.4208 138.77L42.2102 138.559L-18.0219 94.473L49.6514 70.5346L49.4408 69.9028L-19.3557 94.2624L41.5784 138.91L-5.3156 210.725L-4.8242 211.076Z" fill="#E8E8E9"/>
</g>
<defs>
<clipPath id="clip0_1281_402679">
<rect width="1136" height="218" fill="white"/>
</clipPath>
</defs>
</svg>
