<svg width="736" height="131" viewBox="0 0 736 131" fill="none" xmlns="http://www.w3.org/2000/svg">
<g clip-path="url(#clip0_4454_7058)">
<g opacity="0.4">
<g opacity="0.1">
<path opacity="0.1" d="M497.088 84.032C496.087 82.7087 478.167 62.2207 478.167 62.2207L516.008 68.1983L497.088 84.032Z" fill="#77787C"/>
</g>
<g opacity="0.05">
<path opacity="0.05" d="M551.165 86.0389L571.268 53.0938L584.049 76.9584L551.165 86.0389Z" fill="#77787C"/>
</g>
<g opacity="0.05">
<path opacity="0.05" d="M602.378 32.6523L643.858 59.2548L634.579 35.7096L602.378 32.6523Z" fill="#77787C"/>
</g>
<g opacity="0.2">
<path opacity="0.2" d="M691.659 46.523L720.677 63.4519L702.257 34.9785L691.659 46.523Z" fill="#77787C"/>
</g>
<g opacity="0.1">
<path opacity="0.1" d="M669.145 122.453L695.888 145.634L727.043 107.852L669.145 122.453Z" fill="#77787C"/>
</g>
<g opacity="0.2">
<path opacity="0.2" d="M421.405 102.832L435.323 85.2188L455.699 102.056L421.405 102.832Z" fill="#77787C"/>
</g>
<g opacity="0.2">
<path opacity="0.2" d="M509.913 121.31L520.101 110.131L535.974 129.067L509.913 121.31Z" fill="#77787C"/>
</g>
<g opacity="0.1">
<path opacity="0.1" d="M598.74 100.732L621.253 96.5344L584.049 76.959L598.74 100.732Z" fill="#77787C"/>
</g>
<g opacity="0.1">
<path opacity="0.1" d="M656.456 34.3392L648.27 14.3531L681.471 2.80859L656.456 34.3392Z" fill="#77787C"/>
</g>
<path d="M537.793 128.704C537.611 127.7 536.656 127.061 535.655 127.244C534.655 127.426 534.018 128.385 534.2 129.389C534.382 130.392 535.337 131.031 536.338 130.849C537.293 130.666 537.975 129.708 537.793 128.704Z" fill="#77787C"/>
<path d="M500.725 83.3468C500.361 81.3391 498.45 80.0158 496.449 80.3808C494.448 80.7459 493.129 82.6624 493.493 84.6701C493.857 86.6778 495.767 88.0011 497.768 87.6361C499.769 87.271 501.088 85.3546 500.725 83.3468Z" fill="#77787C"/>
<path d="M649.412 17.8629C651.345 17.2244 652.395 15.1351 651.759 13.1963C651.123 11.2575 649.04 10.2034 647.108 10.8419C645.175 11.4804 644.124 13.5698 644.761 15.5086C645.397 17.4474 647.48 18.5015 649.412 17.8629Z" fill="#77787C"/>
<path d="M552.984 85.6729C552.802 84.669 551.847 84.0302 550.847 84.2127C549.846 84.3952 549.209 85.3535 549.391 86.3573C549.573 87.3612 550.528 88 551.529 87.8175C552.484 87.635 553.166 86.6767 552.984 85.6729Z" fill="#77787C"/>
<path d="M670.965 122.132C670.783 121.128 669.828 120.489 668.827 120.672C667.827 120.854 667.19 121.812 667.372 122.816C667.554 123.82 668.509 124.459 669.509 124.276C670.465 124.094 671.147 123.136 670.965 122.132Z" fill="#77787C"/>
<path d="M645.677 58.8897C645.495 57.8858 644.54 57.247 643.539 57.4295C642.539 57.612 641.902 58.5703 642.084 59.5741C642.266 60.578 643.221 61.2168 644.221 61.0343C645.222 60.8518 645.859 59.8936 645.677 58.8897Z" fill="#77787C"/>
<path d="M729.955 107.303C729.636 105.706 728.136 104.656 726.498 104.93C724.906 105.25 723.86 106.755 724.133 108.398C724.451 109.995 725.952 111.045 727.59 110.771C729.182 110.451 730.228 108.9 729.955 107.303Z" fill="#77787C"/>
<path d="M571.267 54.1883C571.87 54.1883 572.359 53.698 572.359 53.0932C572.359 52.4883 571.87 51.998 571.267 51.998C570.665 51.998 570.176 52.4883 570.176 53.0932C570.176 53.698 570.665 54.1883 571.267 54.1883Z" fill="#77787C"/>
<path d="M658.275 34.0206C658.094 33.0167 657.138 32.3779 656.138 32.5604C655.137 32.7429 654.5 33.7011 654.682 34.705C654.864 35.7089 655.819 36.3477 656.82 36.1652C657.775 35.9827 658.457 35.0244 658.275 34.0206Z" fill="#77787C"/>
<path d="M583.956 75.1347C582.956 75.1804 582.137 76.0473 582.182 77.0512C582.228 78.0551 583.092 78.8764 584.093 78.8308C585.093 78.7851 585.912 77.9182 585.867 76.9143C585.821 75.8648 584.957 75.0891 583.956 75.1347Z" fill="#77787C"/>
<path d="M566.311 104.246C564.901 104.291 563.764 105.523 563.855 106.938C563.9 108.352 565.128 109.493 566.538 109.402C567.948 109.356 569.085 108.124 568.994 106.71C568.903 105.295 567.766 104.2 566.311 104.246Z" fill="#77787C"/>
<path d="M480.258 116.52C479.667 116.566 479.166 117.068 479.212 117.661C479.257 118.254 479.758 118.756 480.349 118.711C480.94 118.665 481.441 118.163 481.395 117.57C481.395 116.977 480.895 116.475 480.258 116.52Z" fill="#77787C"/>
<path d="M478.121 60.3496C477.121 60.3952 476.302 61.2622 476.348 62.2661C476.393 63.27 477.257 64.0913 478.258 64.0457C479.258 64 480.077 63.1331 480.032 62.1292C479.986 61.1253 479.122 60.3496 478.121 60.3496Z" fill="#77787C"/>
<path d="M618.888 130.026C618.706 129.023 617.751 128.384 616.75 128.566C615.749 128.749 615.113 129.707 615.295 130.711C615.477 131.715 616.432 132.354 617.432 132.171C618.433 131.989 619.07 131.03 618.888 130.026Z" fill="#77787C"/>
<path d="M648.36 94.4344C648.963 94.4344 649.452 93.9441 649.452 93.3393C649.452 92.7344 648.963 92.2441 648.36 92.2441C647.757 92.2441 647.269 92.7344 647.269 93.3393C647.269 93.9441 647.757 94.4344 648.36 94.4344Z" fill="#77787C"/>
<path d="M693.479 46.1592C693.297 45.1553 692.341 44.5165 691.341 44.699C690.34 44.8816 689.704 45.8398 689.885 46.8437C690.067 47.8475 691.022 48.4864 692.023 48.3038C692.978 48.1213 693.66 47.1631 693.479 46.1592Z" fill="#77787C"/>
<path d="M437.142 84.8526C436.96 83.8487 436.005 83.2099 435.004 83.3924C434.003 83.5749 433.367 84.5332 433.549 85.537C433.73 86.5409 434.686 87.1797 435.686 86.9972C436.687 86.8603 437.324 85.8565 437.142 84.8526Z" fill="#77787C"/>
<path d="M387.656 88.503C387.474 87.4991 386.519 86.8603 385.519 87.0428C384.518 87.2253 383.881 88.1836 384.063 89.1874C384.245 90.1913 385.2 90.8301 386.201 90.6476C387.201 90.5107 387.838 89.5068 387.656 88.503Z" fill="#77787C"/>
<path d="M405.759 113.28C405.668 112.687 405.076 112.276 404.485 112.413C403.894 112.55 403.485 113.098 403.621 113.691C403.758 114.284 404.303 114.695 404.895 114.558C405.486 114.467 405.85 113.919 405.759 113.28Z" fill="#77787C"/>
<path d="M423.225 102.511C423.043 101.507 422.088 100.868 421.087 101.051C420.086 101.233 419.45 102.191 419.632 103.195C419.813 104.199 420.769 104.838 421.769 104.655C422.724 104.473 423.407 103.515 423.225 102.511Z" fill="#77787C"/>
<path d="M444.373 129.707C444.1 128.293 442.781 127.38 441.371 127.654C439.961 127.928 439.052 129.251 439.325 130.666C439.598 132.08 440.917 132.993 442.327 132.719C443.736 132.445 444.646 131.122 444.373 129.707Z" fill="#77787C"/>
<path d="M457.518 101.69C457.336 100.687 456.381 100.048 455.38 100.23C454.379 100.413 453.743 101.371 453.925 102.375C454.106 103.379 455.062 104.018 456.062 103.835C457.017 103.698 457.7 102.694 457.518 101.69Z" fill="#77787C"/>
<path d="M517.826 67.878C517.644 66.8741 516.689 66.2353 515.689 66.4178C514.688 66.6003 514.051 67.5585 514.233 68.5624C514.415 69.5663 515.37 70.2051 516.371 70.0226C517.371 69.8401 518.008 68.8818 517.826 67.878Z" fill="#77787C"/>
<path d="M521.92 109.814C521.738 108.81 520.783 108.171 519.782 108.353C518.782 108.536 518.145 109.494 518.327 110.498C518.509 111.502 519.464 112.141 520.465 111.958C521.42 111.776 522.102 110.817 521.92 109.814Z" fill="#77787C"/>
<path d="M591.462 131.396C591.28 130.392 590.325 129.753 589.324 129.935C588.324 130.118 587.687 131.076 587.869 132.08C588.051 133.084 589.006 133.723 590.007 133.54C590.962 133.403 591.644 132.399 591.462 131.396Z" fill="#77787C"/>
<path d="M495.449 130.893C496.052 130.893 496.541 130.403 496.541 129.798C496.541 129.193 496.052 128.703 495.449 128.703C494.846 128.703 494.357 129.193 494.357 129.798C494.357 130.403 494.846 130.893 495.449 130.893Z" fill="#77787C"/>
<path d="M652.818 2.8094C653.421 2.8094 653.91 2.3191 653.91 1.71427C653.91 1.10945 653.421 0.619141 652.818 0.619141C652.215 0.619141 651.727 1.10945 651.727 1.71427C651.727 2.3191 652.215 2.8094 652.818 2.8094Z" fill="#77787C"/>
<path d="M520.054 41.9598C520.657 41.9598 521.146 41.4695 521.146 40.8647C521.146 40.2598 520.657 39.7695 520.054 39.7695C519.452 39.7695 518.963 40.2598 518.963 40.8647C518.963 41.4695 519.452 41.9598 520.054 41.9598Z" fill="#77787C"/>
<path d="M443.782 67.6512C443.691 67.058 443.1 66.6474 442.509 66.7842C441.917 66.8755 441.508 67.4687 441.645 68.0619C441.735 68.6551 442.327 69.0658 442.918 68.9289C443.509 68.8376 443.919 68.29 443.782 67.6512Z" fill="#77787C"/>
<path d="M382.562 64.8211C382.471 64.2279 381.88 63.8173 381.289 63.9542C380.698 64.0454 380.288 64.6386 380.425 65.2318C380.516 65.825 381.107 66.2357 381.698 66.0988C382.29 66.0075 382.699 65.4143 382.562 64.8211Z" fill="#77787C"/>
<path d="M710.078 12.0717C709.987 11.661 709.624 11.3873 709.214 11.4785C708.805 11.5698 708.532 11.9348 708.623 12.3455C708.714 12.7562 709.078 13.03 709.487 12.9387C709.897 12.8474 710.169 12.4368 710.078 12.0717Z" fill="#77787C"/>
<path d="M691.068 107.165C690.977 106.755 690.613 106.481 690.204 106.572C689.794 106.664 689.521 107.029 689.612 107.439C689.703 107.85 690.067 108.124 690.476 108.032C690.886 107.941 691.159 107.531 691.068 107.165Z" fill="#77787C"/>
<path d="M457.199 130.027C457.109 129.616 456.745 129.342 456.335 129.434C455.926 129.525 455.653 129.89 455.744 130.301C455.835 130.711 456.199 130.985 456.608 130.894C457.018 130.803 457.29 130.437 457.199 130.027Z" fill="#77787C"/>
<path d="M568.266 96.9897C568.175 96.579 567.811 96.3052 567.402 96.3965C566.992 96.4878 566.72 96.8528 566.81 97.2635C566.901 97.6742 567.265 97.9479 567.675 97.8567C568.084 97.811 568.357 97.4004 568.266 96.9897Z" fill="#77787C"/>
<path d="M257.077 41.5949C257.032 41.4125 256.85 41.2757 256.668 41.3213C256.486 41.3669 256.35 41.5493 256.396 41.7317C256.441 41.9141 256.623 42.0509 256.805 42.0053C256.986 41.9597 257.123 41.7773 257.077 41.5949Z" fill="#77787C"/>
<path d="M612.065 8.6496C612.019 8.46722 611.837 8.33043 611.656 8.37602C611.474 8.42162 611.337 8.604 611.383 8.78638C611.428 8.96876 611.61 9.10554 611.792 9.05995C611.974 9.01435 612.11 8.83198 612.065 8.6496Z" fill="#77787C"/>
<path d="M557.531 27.9523C557.486 27.77 557.304 27.6332 557.122 27.6788C556.941 27.7244 556.804 27.9067 556.85 28.0891C556.895 28.2715 557.077 28.4083 557.259 28.3627C557.44 28.3171 557.577 28.1347 557.531 27.9523Z" fill="#77787C"/>
<path d="M544.888 0.208191C544.842 0.025811 544.661 -0.110977 544.479 -0.0653819C544.297 -0.0197868 544.161 0.162597 544.206 0.344978C544.252 0.527358 544.433 0.664139 544.615 0.618544C544.797 0.572949 544.933 0.390571 544.888 0.208191Z" fill="#77787C"/>
<path d="M466.887 62.4484C466.841 62.266 466.66 62.1293 466.478 62.1749C466.296 62.2204 466.16 62.4028 466.205 62.5852C466.251 62.7676 466.432 62.9044 466.614 62.8588C466.75 62.8588 466.887 62.6764 466.887 62.4484Z" fill="#77787C"/>
<path d="M483.578 42.6906C483.533 42.5082 483.351 42.3714 483.169 42.417C482.987 42.4626 482.851 42.645 482.897 42.8274C482.942 43.0098 483.124 43.1466 483.306 43.101C483.487 43.101 483.624 42.9186 483.578 42.6906Z" fill="#77787C"/>
<path d="M412.49 80.2894C412.671 80.1982 412.717 79.9702 412.626 79.7878C412.535 79.6055 412.308 79.5599 412.126 79.6511C411.944 79.7423 411.899 79.9702 411.99 80.1526C412.081 80.335 412.308 80.3806 412.49 80.2894Z" fill="#77787C"/>
<path d="M420.176 66.5999C420.358 66.5087 420.403 66.2808 420.313 66.0984C420.222 65.916 419.994 65.8704 419.813 65.9616C419.631 66.0528 419.585 66.2808 419.676 66.4632C419.767 66.6455 419.994 66.6911 420.176 66.5999Z" fill="#77787C"/>
<path d="M359.275 104.61C359.457 104.519 359.502 104.291 359.411 104.108C359.32 103.926 359.093 103.88 358.911 103.971C358.729 104.063 358.684 104.291 358.775 104.473C358.866 104.655 359.093 104.746 359.275 104.61Z" fill="#77787C"/>
<path d="M511.005 121.128C510.914 120.535 510.323 120.124 509.731 120.261C509.14 120.398 508.731 120.945 508.867 121.538C508.958 122.132 509.549 122.542 510.141 122.405C510.732 122.269 511.141 121.721 511.005 121.128Z" fill="#77787C"/>
<path d="M539.112 46.5224C538.521 46.568 538.021 47.07 538.066 47.6632C538.112 48.2564 538.612 48.7583 539.203 48.7127C539.795 48.667 540.295 48.1651 540.25 47.5719C540.204 46.9787 539.704 46.4768 539.112 46.5224Z" fill="#77787C"/>
<path d="M634.533 34.6133C633.942 34.6589 633.442 35.1608 633.487 35.754C633.533 36.3472 634.033 36.8492 634.624 36.8035C635.216 36.7579 635.716 36.256 635.67 35.6628C635.67 35.0696 635.17 34.6133 634.533 34.6133Z" fill="#77787C"/>
<path d="M722.496 63.0869C722.314 62.0831 721.359 61.4443 720.359 61.6268C719.358 61.8093 718.721 62.7675 718.903 63.7714C719.085 64.7753 720.04 65.4141 721.041 65.2316C721.996 65.0491 722.678 64.0908 722.496 63.0869Z" fill="#77787C"/>
<path d="M604.196 32.3311C604.014 31.3272 603.059 30.6884 602.059 30.8709C601.058 31.0534 600.421 32.0117 600.603 33.0155C600.785 34.0194 601.74 34.6582 602.741 34.4757C603.696 34.2932 604.378 33.335 604.196 32.3311Z" fill="#77787C"/>
<path d="M623.072 96.169C622.89 95.1651 621.935 94.5263 620.935 94.7088C619.934 94.8913 619.297 95.8496 619.479 96.8534C619.661 97.8573 620.616 98.4961 621.617 98.3136C622.572 98.1767 623.254 97.1728 623.072 96.169Z" fill="#77787C"/>
<path d="M576.816 23.2061C576.634 22.2022 575.679 21.5634 574.679 21.7459C573.678 21.9284 573.041 22.8867 573.223 23.8905C573.405 24.8944 574.36 25.5332 575.361 25.3507C576.316 25.1682 576.998 24.21 576.816 23.2061Z" fill="#77787C"/>
<path d="M683.29 2.44437C683.108 1.4405 682.153 0.801681 681.152 0.984202C680.152 1.16672 679.515 2.12496 679.697 3.12883C679.879 4.1327 680.834 4.77153 681.835 4.589C682.835 4.40648 683.472 3.44824 683.29 2.44437Z" fill="#77787C"/>
<path d="M696.98 75.087C696.798 74.0831 695.842 73.4443 694.842 73.6268C693.841 73.8093 693.205 74.7675 693.386 75.7714C693.568 76.7753 694.523 77.4141 695.524 77.2316C696.525 77.0491 697.161 76.0908 696.98 75.087Z" fill="#77787C"/>
<g opacity="0.3">
<path opacity="0.3" d="M616.75 130.346L645.677 109.994L621.208 96.7616L593.691 101.918L589.689 132.901L582.912 103.926L566.493 107.028L535.838 129.387L527.697 104.519L520.056 110.451L497.133 84.2589L479.759 98.7694L480.486 117.888L462.293 113.325L441.827 130.437L404.622 113.736L363.143 136.46L385.611 88.7763L385.656 88.6851L435.732 84.989L421.723 102.739L462.202 112.869L479.395 98.5412L477.985 61.6263L497.224 83.6201L516.144 67.832L527.924 103.789L551.029 85.856L571.405 52.5458L583.276 103.424L593.327 101.553L597.466 69.2922L583.64 77.46L602.788 31.1908L597.966 68.5621L656.411 34.1568L692.023 46.477L658.367 82.9813L666.053 95.7578L695.071 75.361L695.298 75.1785L711.262 126.786L726.862 107.85L720.495 63.5884L680.789 2.16992L788.945 74.5396L789.127 74.6765L746.101 129.25L723.451 167.717L711.08 127.653L695.889 146.088L665.917 96.351L646.45 110.04L669.373 122.452L660.55 168.538L616.75 130.346ZM646.086 110.223L617.433 130.391L660.322 167.671L668.964 122.588L646.086 110.223ZM682.199 3.53883L720.859 63.3602L720.904 63.4058L727.317 107.85V107.941L711.444 127.197L723.633 166.622L745.829 128.931L788.582 74.6765L682.199 3.53883ZM695.071 75.7717L666.28 96.0315L695.935 145.267L710.944 127.106L695.071 75.7717ZM441.827 129.935L461.884 113.189L421.087 102.967L434.913 85.4453L386.02 89.0501L364.098 135.502L404.577 113.325L404.668 113.28L441.827 129.935ZM583.321 103.834L589.552 130.574L593.236 101.963L583.321 103.834ZM571.177 53.641L551.302 86.1298V86.1754L528.015 104.245L536.065 128.749L566.311 106.663L582.821 103.561L571.177 53.641ZM462.748 113.006L480.122 117.341L479.44 99.0888L462.748 113.006ZM515.917 68.5621L497.451 83.9851L520.101 109.903L527.56 104.108L515.917 68.5621ZM658.094 83.2094L648.224 93.8869L643.539 58.2952L658.139 82.525L691.296 46.5683L656.456 34.5218L597.875 68.9728L593.691 101.416L621.162 96.2597H621.253L645.995 109.675L665.644 95.849L658.094 83.2094ZM478.394 62.767L479.759 98.2218L496.86 83.8939L478.394 62.767ZM644.222 60.1661L648.542 92.9743L657.866 82.8444L644.222 60.1661ZM601.969 34.1568L584.458 76.5018L597.512 68.7902L601.969 34.1568Z" fill="#77787C"/>
</g>
<path d="M385.246 88.4121L421.859 102.831L404.621 113.783L385.246 88.4121ZM386.474 89.3247L404.712 113.235L420.949 102.923L386.474 89.3247Z" fill="#77787C"/>
<path d="M455.673 101.831L421.39 102.631L421.399 103.041L455.682 102.242L455.673 101.831Z" fill="#77787C"/>
<g opacity="0.8">
<path opacity="0.8" d="M407.669 152.614L407.76 152.523L441.917 130.392L480.804 117.661L455.971 101.964L478.348 62.3114L478.03 62.1289L455.425 102.101L455.607 102.238L479.849 117.57L441.78 129.981L441.735 130.027L407.623 152.158L363.733 135.776L363.597 136.141L407.669 152.614Z" fill="#77787C"/>
</g>
<path d="M404.873 113.506L404.465 113.537L407.422 152.392L407.83 152.361L404.873 113.506Z" fill="#77787C"/>
<g opacity="0.6">
<path opacity="0.6" d="M421.223 102.967L421.541 102.739L441.781 129.798L455.425 102.1L434.958 85.1715L478.121 61.9913L516.007 67.9689H516.053L535.792 78.0076L571.222 52.8652L644.221 59.0253L621.435 96.5791L617.205 130.939L583.957 77.1862L551.529 86.1298L566.583 106.663L590.143 131.988L536.11 129.25L536.019 129.433L535.837 129.205L509.867 121.493L480.258 117.797L479.349 117.98L535.337 78.2813L515.871 68.4252L478.121 62.4476L435.595 85.2628L455.834 102.009L441.781 130.574L421.223 102.967ZM536.247 128.84L589.142 131.486L566.265 106.892L551.21 86.4035L536.247 128.84ZM481.623 117.569L509.958 121.128L535.337 128.657L519.964 110.359L481.623 117.569ZM535.837 78.4639L481.168 117.25L520.055 109.949H520.192L535.928 128.657L550.937 86.1298L535.837 78.4639ZM571.359 53.3215L536.247 78.2357L551.21 85.8104L584.003 76.7755L584.139 76.7299L616.932 129.752L621.025 96.4879V96.4422L643.493 59.3904L571.359 53.3215Z" fill="#77787C"/>
</g>
<g opacity="0.6">
<path opacity="0.6" d="M660.504 168.219L696.253 145.632L669.191 122.27H669.1L617.023 130.164L589.597 131.532L589.552 131.578L561.717 145.632L536.065 128.886L535.883 129.205L561.717 146.089L561.808 146.043L589.688 131.943L617.068 130.574L669.054 122.68L695.57 145.587L660.322 167.854L660.504 168.219Z" fill="#77787C"/>
</g>
<path d="M519.963 109.98L509.787 121.174L510.09 121.451L520.266 110.257L519.963 109.98Z" fill="#77787C"/>
<path d="M539.021 47.4812L539.112 47.4355L572.268 53.0937L515.279 68.6537L539.021 47.4812ZM539.203 47.8462L516.78 67.7867L570.313 53.1393L539.203 47.8462Z" fill="#77787C"/>
<path d="M643.676 59.2989L644.04 59.162L634.898 35.9361L656.729 34.5216L648.452 14.2617L648.088 14.3986L656.138 34.1565L634.307 35.5255L643.676 59.2989Z" fill="#77787C"/>
<path d="M691.477 46.5688L691.886 46.4775C691.568 44.698 682.108 4.45199 681.698 2.76367L681.289 2.85493C681.38 3.2656 691.113 44.7436 691.477 46.5688Z" fill="#77787C"/>
<g opacity="0.8">
<path opacity="0.8" d="M668.962 122.59L669.281 122.361L648.45 93.2036L648.359 93.2492L621.297 96.3064L584.184 76.8223L571.494 53.0488L575.178 23.8454L602.377 32.8802L634.714 35.9375L648.404 14.4912L680.879 3.2205L656.273 34.2491L643.492 59.574L691.476 46.7519L694.978 75.499L726.906 107.988L727.179 107.714L695.387 75.3165L691.84 46.2499L644.266 58.9352L656.637 34.4317L682.061 2.35352L648.132 14.1718L634.487 35.5268L602.422 32.4696L574.815 23.2979L571.085 53.1401L583.865 77.096L583.956 77.1417L621.206 96.7627L648.268 93.6599L668.962 122.59Z" fill="#77787C"/>
</g>
<path d="M584.094 77.1416L644.357 59.3001L602.377 32.4238L571.177 52.9119L571.404 53.2769L602.377 32.8801L643.402 59.1632L583.957 76.7765L584.094 77.1416Z" fill="#77787C"/>
<g opacity="0.3">
<path opacity="0.3" d="M478.212 62.4028L539.249 47.8011L575.089 23.7539L646.723 14.7647L602.287 32.4693L602.469 32.8343L649.816 13.9434L574.907 23.3432L574.861 23.3888L539.067 47.436L478.121 61.9921L478.212 62.4028Z" fill="#77787C"/>
</g>
<path d="M723.451 167.306L753.196 161.054L774.528 120.17L774.164 119.987L752.924 160.689L723.542 166.895L696.344 145.677L746.283 129.159L727.135 107.621L726.999 107.667L669.555 122.177L695.343 75.5888L721.086 63.4511L691.978 46.4766L740.78 -6.59145L740.461 -6.86523L691.341 46.5679L720.222 63.4055L695.025 75.2694L694.979 75.315L668.736 122.771L669.191 122.679L726.999 108.078L745.555 128.931L695.48 145.54L723.451 167.306Z" fill="#77787C"/>
<path d="M643.675 59.3008L695.797 75.3627L648.178 93.7061L643.675 59.3008ZM644.175 59.894L648.541 93.1585L694.569 75.4539L644.175 59.894Z" fill="#77787C"/>
<path d="M727.181 108.034L766.341 81.5225L720.905 63.316L738.734 10.5217L738.324 10.3848L720.404 63.5441L765.477 81.6137L726.954 107.669L727.181 108.034Z" fill="#77787C"/>
<g opacity="0.5">
<path opacity="0.5" d="M681.472 2.59737L681.458 3.00781L738.822 5.03205L738.836 4.62161L681.472 2.59737Z" fill="#77787C"/>
</g>
<g opacity="0.1">
<path opacity="0.1" d="M248.8 114.785C249.437 116.337 261.671 140.658 261.671 140.658L226.514 125.371L248.8 114.785Z" fill="#77787C"/>
</g>
<g opacity="0.05">
<path opacity="0.05" d="M196.951 99.3184L169.252 126.149L162.885 99.8203L196.951 99.3184Z" fill="#77787C"/>
</g>
<g opacity="0.05">
<path opacity="0.05" d="M134.05 138.15L100.529 101.965L103.668 127.062L134.05 138.15Z" fill="#77787C"/>
</g>
<g opacity="0.2">
<path opacity="0.2" d="M51.089 102.329L27.2109 78.6465L37.9447 110.816L51.089 102.329Z" fill="#77787C"/>
</g>
<g opacity="0.1">
<path opacity="0.1" d="M91.796 34.4312L71.6475 5.27344L32.0781 34.0662L91.796 34.4312Z" fill="#77787C"/>
</g>
<g opacity="0.2">
<path opacity="0.2" d="M326.801 115.563L308.881 129.115L293.372 107.715L326.801 115.563Z" fill="#77787C"/>
</g>
<g opacity="0.2">
<path opacity="0.2" d="M245.662 75.4538L233.063 83.7129L222.375 61.4453L245.662 75.4538Z" fill="#77787C"/>
</g>
<g opacity="0.1">
<path opacity="0.1" d="M154.561 73.1244L131.729 71.5273L162.885 99.8182L154.561 73.1244Z" fill="#77787C"/>
</g>
<g opacity="0.1">
<path opacity="0.1" d="M82.1543 122.953L85.0651 144.354L50.0439 147.183L82.1543 122.953Z" fill="#77787C"/>
</g>
<path d="M220.556 61.3081C220.465 62.312 221.238 63.2246 222.284 63.2702C223.285 63.3615 224.195 62.5858 224.24 61.5363C224.331 60.5324 223.558 59.6198 222.512 59.5742C221.511 59.5285 220.602 60.3043 220.556 61.3081Z" fill="#77787C"/>
<path d="M245.116 114.558C244.979 116.611 246.526 118.345 248.527 118.482C250.574 118.619 252.302 117.068 252.438 115.06C252.575 113.006 251.028 111.272 249.027 111.136C247.026 110.999 245.252 112.505 245.116 114.558Z" fill="#77787C"/>
<path d="M195.131 99.1792C195.04 100.183 195.814 101.096 196.86 101.141C197.86 101.233 198.77 100.457 198.815 99.4074C198.906 98.4035 198.133 97.4909 197.087 97.4453C196.086 97.3996 195.177 98.1754 195.131 99.1792Z" fill="#77787C"/>
<path d="M89.976 34.2945C89.8851 35.2983 90.6583 36.2109 91.7043 36.2566C92.705 36.3478 93.6146 35.5721 93.6601 34.5226C93.751 33.5187 92.9778 32.6061 91.9318 32.5605C90.9312 32.5149 90.067 33.2906 89.976 34.2945Z" fill="#77787C"/>
<path d="M98.6635 101.873C98.5726 102.877 99.3458 103.789 100.392 103.835C101.392 103.926 102.302 103.15 102.348 102.101C102.439 101.097 101.665 100.184 100.619 100.139C99.6187 100.093 98.7545 100.823 98.6635 101.873Z" fill="#77787C"/>
<path d="M29.1678 33.8383C29.0769 35.481 30.3049 36.8955 31.8968 36.9868C33.4886 37.078 34.944 35.846 35.035 34.249C35.126 32.6519 33.898 31.1917 32.3061 31.1005C30.6687 31.0092 29.2588 32.2412 29.1678 33.8383Z" fill="#77787C"/>
<path d="M168.16 126.057C168.115 126.65 168.57 127.198 169.206 127.244C169.798 127.289 170.343 126.833 170.389 126.194C170.434 125.601 169.98 125.053 169.343 125.008C168.752 125.008 168.206 125.464 168.16 126.057Z" fill="#77787C"/>
<path d="M80.2895 122.818C80.1985 123.822 80.9717 124.734 82.0178 124.78C83.0184 124.871 83.9281 124.096 83.9735 123.046C84.0645 122.042 83.2913 121.13 82.2452 121.084C81.2446 121.038 80.3805 121.769 80.2895 122.818Z" fill="#77787C"/>
<path d="M162.476 101.645C163.476 101.873 164.431 101.235 164.659 100.231C164.886 99.2268 164.249 98.2685 163.249 98.0404C162.248 97.8122 161.293 98.4511 161.066 99.4549C160.838 100.413 161.475 101.417 162.476 101.645Z" fill="#77787C"/>
<path d="M186.808 77.8704C188.218 78.1898 189.582 77.2772 189.855 75.9082C190.173 74.4937 189.264 73.1248 187.899 72.851C186.489 72.5316 185.125 73.4442 184.852 74.8131C184.534 76.182 185.398 77.5509 186.808 77.8704Z" fill="#77787C"/>
<path d="M273.178 87.545C273.769 87.6819 274.36 87.3169 274.497 86.6781C274.633 86.0849 274.269 85.4917 273.633 85.3548C273.041 85.2179 272.45 85.5829 272.314 86.2218C272.223 86.8606 272.587 87.4538 273.178 87.545Z" fill="#77787C"/>
<path d="M385.474 90.6471C386.474 90.8753 387.429 90.2365 387.657 89.2326C387.884 88.2287 387.247 87.2705 386.247 87.0423C385.246 86.8142 384.291 87.453 384.064 88.4569C383.836 89.4607 384.473 90.4646 385.474 90.6471Z" fill="#77787C"/>
<path d="M142.373 39.7243C142.282 40.7281 143.055 41.6407 144.101 41.6864C145.101 41.7776 146.011 41.0019 146.057 39.9524C146.148 38.9485 145.374 38.0359 144.328 37.9903C143.282 37.9447 142.418 38.6748 142.373 39.7243Z" fill="#77787C"/>
<path d="M103.576 67.787C103.531 68.3802 103.986 68.9278 104.622 68.9734C105.214 69.019 105.76 68.5627 105.805 67.9239C105.85 67.3307 105.396 66.7831 104.759 66.7375C104.122 66.6919 103.622 67.1482 103.576 67.787Z" fill="#77787C"/>
<path d="M49.225 102.193C49.1341 103.197 49.9073 104.109 50.9534 104.155C51.954 104.246 52.8636 103.471 52.9091 102.421C53.0001 101.417 52.2269 100.505 51.1808 100.459C50.1802 100.413 49.316 101.189 49.225 102.193Z" fill="#77787C"/>
<path d="M307.062 129.023C306.971 130.027 307.744 130.94 308.79 130.985C309.791 131.076 310.701 130.301 310.746 129.251C310.837 128.247 310.064 127.335 309.018 127.289C308.017 127.244 307.153 127.974 307.062 129.023Z" fill="#77787C"/>
<path d="M346.557 110.06C346.897 109.561 346.77 108.88 346.272 108.538C345.774 108.197 345.095 108.325 344.755 108.824C344.414 109.324 344.542 110.005 345.04 110.346C345.538 110.688 346.217 110.56 346.557 110.06Z" fill="#77787C"/>
<path d="M324.937 115.425C324.846 116.429 325.619 117.342 326.665 117.387C327.666 117.479 328.576 116.703 328.621 115.653C328.712 114.65 327.939 113.737 326.893 113.691C325.892 113.646 325.028 114.421 324.937 115.425Z" fill="#77787C"/>
<path d="M311.247 83.7577C311.156 85.1723 312.202 86.4043 313.657 86.4955C315.067 86.5868 316.295 85.5373 316.386 84.0771C316.477 82.6626 315.431 81.4306 313.976 81.3393C312.52 81.248 311.338 82.3432 311.247 83.7577Z" fill="#77787C"/>
<path d="M291.553 107.576C291.462 108.58 292.235 109.492 293.281 109.538C294.282 109.629 295.192 108.853 295.237 107.804C295.328 106.8 294.555 105.887 293.509 105.842C292.508 105.796 291.599 106.572 291.553 107.576Z" fill="#77787C"/>
<path d="M224.695 125.236C224.604 126.24 225.377 127.152 226.423 127.198C227.424 127.289 228.333 126.514 228.379 125.464C228.47 124.46 227.697 123.548 226.65 123.502C225.65 123.456 224.786 124.232 224.695 125.236Z" fill="#77787C"/>
<path d="M231.198 83.6207C231.107 84.6246 231.88 85.5372 232.926 85.5829C233.927 85.6741 234.836 84.8984 234.882 83.8489C234.973 82.845 234.2 81.9324 233.153 81.8868C232.153 81.8412 231.289 82.5712 231.198 83.6207Z" fill="#77787C"/>
<path d="M169.252 45.2456C169.161 46.2495 169.935 47.1621 170.981 47.2077C171.981 47.299 172.891 46.5233 172.936 45.4738C173.027 44.4699 172.254 43.5573 171.208 43.5117C170.208 43.466 169.343 44.2418 169.252 45.2456Z" fill="#77787C"/>
<path d="M200.544 38.6296C200.499 39.2228 200.953 39.7703 201.59 39.816C202.181 39.8616 202.727 39.4053 202.773 38.7665C202.818 38.1733 202.363 37.6257 201.727 37.5801C201.135 37.5801 200.59 38.0364 200.544 38.6296Z" fill="#77787C"/>
<path d="M260.671 70.8437C260.626 71.4368 261.08 71.9844 261.717 72.03C262.308 72.0757 262.854 71.6194 262.9 70.9805C262.945 70.3874 262.49 69.8398 261.854 69.7942C261.262 69.7485 260.717 70.2048 260.671 70.8437Z" fill="#77787C"/>
<path d="M158.199 27.2663C158.154 27.8595 158.609 28.4071 159.246 28.4527C159.837 28.4983 160.383 28.042 160.428 27.4032C160.474 26.81 160.019 26.2624 159.382 26.2168C158.745 26.2168 158.199 26.6731 158.199 27.2663Z" fill="#77787C"/>
<path d="M66.7358 43.7391C66.6903 44.1498 67.0087 44.5149 67.418 44.5149C67.8273 44.5605 68.1912 44.2411 68.1912 43.8304C68.2367 43.4197 67.9183 43.0547 67.509 43.0547C67.0996 43.0547 66.7813 43.3285 66.7358 43.7391Z" fill="#77787C"/>
<path d="M298.876 80.2454C298.831 80.6561 299.149 81.0212 299.559 81.0212C299.968 81.0668 300.332 80.7474 300.332 80.3367C300.377 79.926 300.059 79.561 299.65 79.561C299.286 79.5154 298.922 79.8348 298.876 80.2454Z" fill="#77787C"/>
<path d="M183.123 84.3505C183.078 84.7611 183.396 85.1262 183.806 85.1262C184.215 85.1718 184.579 84.8524 184.579 84.4417C184.624 84.0311 184.306 83.666 183.897 83.666C183.487 83.666 183.169 83.9854 183.123 84.3505Z" fill="#77787C"/>
<path d="M145.965 20.0562C145.965 20.2385 146.101 20.4209 146.328 20.4665C146.51 20.4665 146.692 20.3297 146.737 20.1018C146.737 19.9194 146.601 19.737 146.374 19.6914C146.147 19.737 145.965 19.8738 145.965 20.0562Z" fill="#77787C"/>
<path d="M237.065 41.9136C237.065 42.096 237.202 42.2783 237.429 42.3239C237.611 42.3239 237.793 42.1872 237.838 41.9592C237.838 41.7768 237.702 41.5944 237.474 41.5488C237.247 41.5488 237.065 41.7312 237.065 41.9136Z" fill="#77787C"/>
<path d="M341.675 60.4409C341.675 60.6233 341.811 60.8057 342.038 60.8513C342.22 60.8513 342.402 60.7145 342.447 60.4865C342.447 60.3041 342.311 60.1218 342.084 60.0762C341.857 60.0762 341.675 60.2585 341.675 60.4409Z" fill="#77787C"/>
<path d="M347.679 32.2398C347.679 32.4221 347.815 32.6045 348.042 32.6501C348.224 32.6501 348.406 32.5133 348.451 32.2854C348.451 32.103 348.315 31.9206 348.088 31.875C347.86 31.875 347.679 32.0574 347.679 32.2398Z" fill="#77787C"/>
<path d="M376.241 65.5054C376.241 65.6878 376.378 65.8702 376.605 65.9157C376.787 65.9157 376.968 65.779 377.014 65.551C377.014 65.3686 376.877 65.1862 376.65 65.1406C376.423 65.1862 376.241 65.323 376.241 65.5054Z" fill="#77787C"/>
<path d="M324.982 51.4976C324.982 51.6799 325.119 51.8623 325.346 51.9079C325.528 51.9079 325.71 51.7711 325.755 51.5432C325.755 51.3608 325.619 51.1784 325.391 51.1328C325.164 51.1328 324.982 51.3152 324.982 51.4976Z" fill="#77787C"/>
<path d="M192.13 20.2847C192.13 20.4671 192.266 20.6494 192.493 20.695C192.675 20.695 192.857 20.5583 192.902 20.3303C192.902 20.1479 192.766 19.9655 192.539 19.9199C192.312 19.9199 192.13 20.1023 192.13 20.2847Z" fill="#77787C"/>
<path d="M288.324 51.9077C288.324 52.0901 288.461 52.2725 288.688 52.3181C288.87 52.3181 289.051 52.1813 289.097 51.9533C289.097 51.7709 288.96 51.5886 288.733 51.543C288.506 51.543 288.324 51.7254 288.324 51.9077Z" fill="#77787C"/>
<path d="M449.967 39.9524C449.785 39.998 449.649 40.226 449.694 40.4083C449.74 40.5907 449.967 40.7275 450.149 40.6819C450.331 40.6363 450.467 40.4083 450.422 40.226C450.376 39.998 450.149 39.8612 449.967 39.9524Z" fill="#77787C"/>
<path d="M357.138 92.5192C356.956 92.5648 356.82 92.7928 356.865 92.9752C356.911 93.1575 357.138 93.2943 357.32 93.2487C357.502 93.2031 357.638 92.9752 357.592 92.7928C357.547 92.5648 357.365 92.4736 357.138 92.5192Z" fill="#77787C"/>
<path d="M387.383 129.433C387.201 129.478 387.065 129.706 387.11 129.889C387.156 130.071 387.383 130.208 387.565 130.162C387.747 130.117 387.883 129.889 387.838 129.706C387.792 129.478 387.61 129.342 387.383 129.433Z" fill="#77787C"/>
<path d="M220.601 40.8661C220.556 41.2768 220.874 41.6418 221.283 41.6418C221.693 41.6874 222.056 41.368 222.056 40.9574C222.102 40.5467 221.784 40.1816 221.374 40.1816C220.965 40.1816 220.646 40.4554 220.601 40.8661Z" fill="#77787C"/>
<path d="M114.31 23.1151C114.264 23.7083 114.719 24.2559 115.356 24.3015C115.947 24.3472 116.493 23.8909 116.538 23.252C116.584 22.6588 116.129 22.1113 115.492 22.0656C114.856 22.02 114.355 22.4763 114.31 23.1151Z" fill="#77787C"/>
<path d="M321.616 72.5331C321.571 73.1263 322.026 73.6739 322.663 73.7195C323.254 73.7651 323.8 73.3088 323.845 72.67C323.891 72.0768 323.436 71.5292 322.799 71.4836C322.208 71.438 321.662 71.8943 321.616 72.5331Z" fill="#77787C"/>
<path d="M244.571 75.362C244.525 75.9552 244.98 76.5028 245.617 76.5484C246.208 76.594 246.754 76.1377 246.799 75.4989C246.845 74.9057 246.39 74.3581 245.753 74.3125C245.162 74.3125 244.616 74.7688 244.571 75.362Z" fill="#77787C"/>
<path d="M351.362 70.9801C351.316 71.5733 351.771 72.1209 352.408 72.1665C352.999 72.2121 353.545 71.7558 353.59 71.117C353.636 70.5238 353.181 69.9763 352.544 69.9306C351.907 69.885 351.362 70.3869 351.362 70.9801Z" fill="#77787C"/>
<path d="M103.395 128.156C103.986 128.293 104.577 127.928 104.714 127.289C104.85 126.696 104.486 126.103 103.849 125.966C103.258 125.829 102.667 126.194 102.53 126.833C102.44 127.426 102.803 128.019 103.395 128.156Z" fill="#77787C"/>
<path d="M17.2514 8.64993C17.1604 9.6538 17.9336 10.5664 18.9797 10.612C20.0258 10.6577 20.89 9.92758 20.9355 8.87808C21.0264 7.87422 20.2532 6.96161 19.2071 6.91598C18.2065 6.87035 17.3424 7.64606 17.2514 8.64993Z" fill="#77787C"/>
<path d="M25.392 78.5093C25.3011 79.5132 26.0743 80.4258 27.1204 80.4714C28.121 80.5627 29.0306 79.787 29.0761 78.7375C29.167 77.7336 28.3939 76.821 27.3478 76.7754C26.3017 76.7297 25.4375 77.5054 25.392 78.5093Z" fill="#77787C"/>
<path d="M129.865 71.4372C129.774 72.441 130.547 73.3536 131.593 73.3993C132.594 73.4905 133.503 72.7148 133.549 71.6653C133.64 70.6614 132.867 69.7488 131.82 69.7032C130.82 69.6576 129.956 70.3877 129.865 71.4372Z" fill="#77787C"/>
<path d="M69.8286 5.18129C69.7376 6.18515 70.5108 7.09776 71.5569 7.14339C72.5575 7.23465 73.4671 6.45894 73.5126 5.40944C73.6036 4.40557 72.8304 3.49297 71.7843 3.44734C70.7837 3.40171 69.874 4.13179 69.8286 5.18129Z" fill="#77787C"/>
<path d="M53.0454 73.3081C52.9544 74.312 53.7276 75.2246 54.7737 75.2702C55.7743 75.3615 56.6839 74.5858 56.7294 73.5363C56.8204 72.5324 56.0472 71.6198 55.0011 71.5742C54.0005 71.5285 53.0908 72.3043 53.0454 73.3081Z" fill="#77787C"/>
<g opacity="0.3">
<path opacity="0.3" d="M-36.1448 50.8565L-36.2812 50.674L18.9794 8.64847L50.4985 -22.9277L52.4997 18.9609L71.7841 4.95241L88.385 60.6214L110.671 52.2254L91.5688 34.4752L111.444 -7.59594L111.581 -7.91535L144.51 39.9509L111.444 52.408L131.82 71.3902L159.792 73.3067L171.39 44.2858L170.708 74.0368L187.354 75.1775L222.33 61.3059L222.603 61.2146L224.285 87.3608L233.154 83.5279L248.8 114.648L269.222 104.929L273.27 86.2201L289.734 95.2093L313.703 83.8473L313.84 83.8017L345.677 109.263L385.792 88.7297L385.974 89.0948L345.768 109.674L345.632 109.72L313.794 84.258L290.189 95.3918L326.893 115.378L327.166 115.515L309.428 128.976L363.688 135.729L363.642 136.14L308.382 129.249L326.393 115.56L289.734 95.6199L269.586 105.202L261.763 141.296L248.618 115.15L226.378 125.69L223.922 87.9084L197.087 99.4985L169.434 126.329L169.07 126.694L170.253 74.4474L160.019 73.763L147.967 103.97L163.385 99.5441L133.276 139.562L147.239 104.609L82.063 123.272L50.6804 102.419L92.342 75.5426L88.0667 61.2603L54.6374 73.8542L52.0449 19.8735L32.3057 34.1558L27.4391 78.5998L50.5895 148.049L-36.1448 50.8565ZM50.1346 -21.9695L19.2523 8.96788L-35.69 50.7653L49.5434 146.315L27.0298 78.6911V78.6454L31.9418 33.9277L52.1359 19.2347L50.1346 -21.9695ZM248.982 114.967L261.626 140.064L269.131 105.385L248.982 114.967ZM147.785 104.381L134.822 136.778L162.339 100.183L147.785 104.381ZM222.193 61.7166L187.445 75.4969H187.399L170.662 74.3562L169.48 125.599L196.814 99.0878L223.831 87.4065L222.193 61.7166ZM159.61 73.6717L131.638 71.7552L110.99 52.5449L88.476 60.9865L92.7058 75.1775L104.895 67.3291L100.574 102.966L92.4784 75.8163L51.4081 102.282L82.1085 122.679L147.466 104.016L159.61 73.6717ZM232.972 83.9842L224.331 87.7259L226.741 125.051L248.436 114.739L232.972 83.9842ZM273.588 86.8133L269.722 104.7L289.279 95.3461L273.588 86.8133ZM92.8423 75.5882L100.438 100.959L104.44 68.1048L92.8423 75.5882ZM71.5567 5.63686L52.4997 19.4629L55.0467 73.1241L87.9757 60.7127L71.5567 5.63686ZM160.156 73.261L170.207 73.9455L170.844 46.476L160.156 73.261ZM111.672 -7.094L92.0691 34.384L111.081 52.0886L143.873 39.7684L111.672 -7.094Z" fill="#77787C"/>
</g>
<path d="M326.256 115.518L345.722 109.221L364.324 136.599L326.256 115.518ZM327.302 115.609L363.005 135.367L345.54 109.677L327.302 115.609Z" fill="#77787C"/>
<path d="M293.438 107.508L293.345 107.908L326.736 115.749L326.83 115.349L293.438 107.508Z" fill="#77787C"/>
<g opacity="0.8">
<path opacity="0.8" d="M261.808 140.795L293.645 107.713L293.555 107.576L273.861 86.6775L313.84 84.1678L352.408 71.2544L385.747 89.0503L385.974 88.6852L352.454 70.8438H352.363L313.749 83.7572L272.997 86.3125L293.1 107.713L261.535 140.521L261.808 140.795Z" fill="#77787C"/>
</g>
<path d="M352.247 71.0478L345.446 109.412L345.849 109.484L352.65 71.1197L352.247 71.0478Z" fill="#77787C"/>
<g opacity="0.6">
<path opacity="0.6" d="M226.469 125.555L209.823 110.908L169.253 126.377L100.12 102.101L131.503 71.4833L144.192 39.2227L163.022 99.6372L196.678 99.1353L187.218 75.4532L170.708 45.0177L222.33 61.2165L222.467 61.034L222.603 61.3077L245.799 75.2706L273.543 86.2676L274.453 86.3132L210.323 110.725L226.697 125.19L261.763 140.431L308.61 128.978L293.282 107.805L293.191 107.668L313.931 83.5297L327.03 115.425L326.666 115.562L313.795 84.2598L293.692 107.668L309.292 129.206L261.763 140.796H261.718L226.469 125.555ZM196.86 99.5004L162.703 100.048L144.147 40.4547L131.912 71.6202V71.6658L100.939 101.919L169.253 125.92L209.459 110.589L196.86 99.5004ZM233.019 83.9404H232.882L222.33 61.8553L197.179 99.2722L209.868 110.452L272.452 86.6326L233.019 83.9404ZM171.527 45.7022L187.537 75.225L196.997 98.8159L222.057 61.4903L171.527 45.7022ZM233.201 83.5297L272.179 86.1763L245.617 75.6357L222.876 61.9922L233.201 83.5297Z" fill="#77787C"/>
</g>
<g opacity="0.6">
<path opacity="0.6" d="M222.239 61.582L222.557 61.3082L201.726 38.4931L171.117 45.1551L144.237 39.6338L91.9325 34.2038L71.9659 5.41107L111.672 -7.31979L111.535 -7.73047L71.3291 5.18292L91.7051 34.6145H91.796L144.146 40.0445L171.117 45.5658H171.162L201.59 38.9494L222.239 61.582Z" fill="#77787C"/>
</g>
<path d="M245.586 75.2695L232.944 83.5547L233.168 83.8985L245.81 75.6134L245.586 75.2695Z" fill="#77787C"/>
<path d="M168.342 125.965L227.423 125.189L199.042 139.746L168.342 125.965ZM170.207 126.33L198.997 139.289L225.649 125.6L170.207 126.33Z" fill="#77787C"/>
<path d="M19.298 8.78657C19.5709 -2.11908 20.1167 -22.9722 20.2986 -23.7935L19.8893 -23.8848C19.6619 -22.7896 18.9342 7.50892 18.8887 8.78657H19.298Z" fill="#77787C"/>
<path d="M84.8827 144.401L85.292 144.31L82.3812 123.183L103.894 127.335L100.71 101.965L100.301 102.01L103.394 126.833L81.8809 122.681L84.8827 144.401Z" fill="#77787C"/>
<path d="M49.8154 147.183H50.2248C50.2248 146.773 51.1344 104.108 51.2709 102.329L50.8615 102.283C50.7251 104.108 49.8609 145.45 49.8154 147.183Z" fill="#77787C"/>
<g opacity="0.8">
<path opacity="0.8" d="M158.428 154.12L158.518 153.892L169.48 126.149V126.103L163.067 99.7287L163.021 99.683L131.821 71.3466L104.804 67.5593L92.0237 34.3404L91.6144 34.4773L104.531 67.9243L131.639 71.7572L162.703 99.9568L169.07 126.103L158.2 153.481L134.14 137.921L103.576 126.833L84.974 144.173L50.726 146.956L82.2906 123.091V123.046L100.984 101.782L51.3173 102.101L55.0923 73.3999L55.0468 73.3543L32.2603 33.9297L31.8965 34.1578L54.6375 73.4912L50.8625 102.512L100.074 102.193L81.9722 122.772L49.3616 147.458L85.156 144.538L103.713 127.289L133.958 138.332L158.428 154.12Z" fill="#77787C"/>
</g>
<path d="M134.003 138.377L134.139 138.331L169.342 126.33L169.206 125.965L134.139 137.875L100.983 102.192L162.884 100.047L162.838 99.6367L100.073 101.781L134.003 138.377Z" fill="#77787C"/>
<path d="M-9.49254 141.754L51.4079 102.329L51.226 102.146L27.6208 78.7837L54.9555 73.6275L55.001 73.5818L92.2963 34.2028L32.2145 33.8378L19.434 8.96926L72.0568 5.45572L50.4073 -22.6526H50.3163L20.0253 -24.0215L19.9343 -23.9759L-10.8115 10.2013L-10.5386 10.4751L20.2072 -23.6108L50.1799 -22.2419L71.2381 5.13631L18.7973 8.60421L31.9871 34.2485H32.078L91.3411 34.6135L54.7736 73.2624L26.8021 78.5099L50.7257 102.283L-9.71995 141.434L-9.49254 141.754Z" fill="#77787C"/>
<path d="M54.2734 73.3087L104.895 67.5137L100.756 101.645L100.711 101.965L54.2734 73.3087ZM55.5015 73.5825L100.438 101.28L104.486 67.97L55.5015 73.5825Z" fill="#77787C"/>
<path d="M-3.12526 125.601L27.4842 78.6013L27.3477 78.4644L-11.6759 49.8085L32.1688 34.2486L32.0324 33.8379L-12.54 49.6716L26.9384 78.6925L-3.44363 125.372L-3.12526 125.601Z" fill="#77787C"/>
</g>
</g>
<defs>
<clipPath id="clip0_4454_7058">
<rect width="736" height="130" fill="white" transform="translate(0 0.0996094)"/>
</clipPath>
</defs>
</svg>
