<svg width="735" height="131" viewBox="0 0 735 131" fill="none" xmlns="http://www.w3.org/2000/svg">
<g clip-path="url(#clip0_3973_19427)">
<g opacity="0.4">
<g opacity="0.1">
<path opacity="0.1" d="M496.088 84.032C495.087 82.7087 477.167 62.2207 477.167 62.2207L515.008 68.1983L496.088 84.032Z" fill="#FF6300"/>
</g>
<g opacity="0.05">
<path opacity="0.05" d="M550.165 86.0389L570.268 53.0938L583.049 76.9584L550.165 86.0389Z" fill="#FF6300"/>
</g>
<g opacity="0.05">
<path opacity="0.05" d="M601.378 32.6523L642.858 59.2548L633.579 35.7096L601.378 32.6523Z" fill="#FF6300"/>
</g>
<g opacity="0.2">
<path opacity="0.2" d="M690.659 46.523L719.677 63.4519L701.257 34.9785L690.659 46.523Z" fill="#FF6300"/>
</g>
<g opacity="0.1">
<path opacity="0.1" d="M668.145 122.453L694.888 145.634L726.043 107.852L668.145 122.453Z" fill="#FF6300"/>
</g>
<g opacity="0.2">
<path opacity="0.2" d="M420.405 102.832L434.323 85.2188L454.699 102.056L420.405 102.832Z" fill="#FF6300"/>
</g>
<g opacity="0.2">
<path opacity="0.2" d="M508.913 121.31L519.101 110.131L534.974 129.067L508.913 121.31Z" fill="#FF6300"/>
</g>
<g opacity="0.1">
<path opacity="0.1" d="M597.74 100.732L620.253 96.5344L583.049 76.959L597.74 100.732Z" fill="#FF6300"/>
</g>
<g opacity="0.1">
<path opacity="0.1" d="M655.456 34.3392L647.27 14.3531L680.471 2.80859L655.456 34.3392Z" fill="#FF6300"/>
</g>
<path d="M536.793 128.704C536.611 127.7 535.656 127.061 534.655 127.244C533.655 127.426 533.018 128.385 533.2 129.389C533.382 130.392 534.337 131.031 535.338 130.849C536.293 130.666 536.975 129.708 536.793 128.704Z" fill="#FF6300"/>
<path d="M499.725 83.3468C499.361 81.3391 497.45 80.0158 495.449 80.3808C493.448 80.7459 492.129 82.6624 492.493 84.6701C492.857 86.6778 494.767 88.0011 496.768 87.6361C498.769 87.271 500.088 85.3546 499.725 83.3468Z" fill="#FF6300"/>
<path d="M648.412 17.861C650.345 17.2225 651.395 15.1332 650.759 13.1943C650.123 11.2555 648.04 10.2014 646.108 10.84C644.175 11.4785 643.124 13.5678 643.761 15.5066C644.397 17.4454 646.48 18.4995 648.412 17.861Z" fill="#FF6300"/>
<path d="M551.984 85.6729C551.802 84.669 550.847 84.0302 549.847 84.2127C548.846 84.3952 548.209 85.3535 548.391 86.3573C548.573 87.3612 549.528 88 550.529 87.8175C551.484 87.635 552.166 86.6767 551.984 85.6729Z" fill="#FF6300"/>
<path d="M669.965 122.132C669.783 121.128 668.828 120.489 667.827 120.672C666.827 120.854 666.19 121.812 666.372 122.816C666.554 123.82 667.509 124.459 668.509 124.276C669.465 124.094 670.147 123.136 669.965 122.132Z" fill="#FF6300"/>
<path d="M644.677 58.8897C644.495 57.8858 643.54 57.247 642.539 57.4295C641.539 57.612 640.902 58.5703 641.084 59.5741C641.266 60.578 642.221 61.2168 643.221 61.0343C644.222 60.8518 644.859 59.8936 644.677 58.8897Z" fill="#FF6300"/>
<path d="M728.955 107.303C728.636 105.706 727.136 104.656 725.498 104.93C723.906 105.25 722.86 106.755 723.133 108.398C723.451 109.995 724.952 111.045 726.59 110.771C728.182 110.451 729.228 108.9 728.955 107.303Z" fill="#FF6300"/>
<path d="M570.267 54.1883C570.87 54.1883 571.359 53.698 571.359 53.0932C571.359 52.4883 570.87 51.998 570.267 51.998C569.665 51.998 569.176 52.4883 569.176 53.0932C569.176 53.698 569.665 54.1883 570.267 54.1883Z" fill="#FF6300"/>
<path d="M657.275 34.0206C657.094 33.0167 656.138 32.3779 655.138 32.5604C654.137 32.7429 653.5 33.7011 653.682 34.705C653.864 35.7089 654.819 36.3477 655.82 36.1652C656.775 35.9827 657.457 35.0244 657.275 34.0206Z" fill="#FF6300"/>
<path d="M582.956 75.1347C581.956 75.1804 581.137 76.0473 581.182 77.0512C581.228 78.0551 582.092 78.8764 583.093 78.8308C584.093 78.7851 584.912 77.9182 584.867 76.9143C584.821 75.8648 583.957 75.0891 582.956 75.1347Z" fill="#FF6300"/>
<path d="M565.311 104.246C563.901 104.291 562.764 105.523 562.855 106.938C562.9 108.352 564.128 109.493 565.538 109.402C566.948 109.356 568.085 108.124 567.994 106.71C567.903 105.295 566.766 104.2 565.311 104.246Z" fill="#FF6300"/>
<path d="M479.258 116.52C478.667 116.566 478.166 117.068 478.212 117.661C478.257 118.254 478.758 118.756 479.349 118.711C479.94 118.665 480.441 118.163 480.395 117.57C480.395 116.977 479.895 116.475 479.258 116.52Z" fill="#FF6300"/>
<path d="M477.121 60.3496C476.121 60.3952 475.302 61.2622 475.348 62.2661C475.393 63.27 476.257 64.0913 477.258 64.0457C478.258 64 479.077 63.1331 479.032 62.1292C478.986 61.1253 478.122 60.3496 477.121 60.3496Z" fill="#FF6300"/>
<path d="M617.888 130.026C617.706 129.023 616.751 128.384 615.75 128.566C614.749 128.749 614.113 129.707 614.295 130.711C614.477 131.715 615.432 132.354 616.432 132.171C617.433 131.989 618.07 131.03 617.888 130.026Z" fill="#FF6300"/>
<path d="M647.36 94.4344C647.963 94.4344 648.452 93.9441 648.452 93.3393C648.452 92.7344 647.963 92.2441 647.36 92.2441C646.757 92.2441 646.269 92.7344 646.269 93.3393C646.269 93.9441 646.757 94.4344 647.36 94.4344Z" fill="#FF6300"/>
<path d="M692.479 46.1592C692.297 45.1553 691.341 44.5165 690.341 44.699C689.34 44.8816 688.704 45.8398 688.885 46.8437C689.067 47.8475 690.022 48.4864 691.023 48.3038C691.978 48.1213 692.66 47.1631 692.479 46.1592Z" fill="#FF6300"/>
<path d="M436.142 84.8526C435.96 83.8487 435.005 83.2099 434.004 83.3924C433.003 83.5749 432.367 84.5332 432.549 85.537C432.73 86.5409 433.686 87.1797 434.686 86.9972C435.687 86.8603 436.324 85.8565 436.142 84.8526Z" fill="#FF6300"/>
<path d="M386.656 88.503C386.474 87.4991 385.519 86.8603 384.519 87.0428C383.518 87.2253 382.881 88.1836 383.063 89.1874C383.245 90.1913 384.2 90.8301 385.201 90.6476C386.201 90.5107 386.838 89.5068 386.656 88.503Z" fill="#FF6300"/>
<path d="M404.759 113.28C404.668 112.687 404.076 112.276 403.485 112.413C402.894 112.55 402.485 113.098 402.621 113.691C402.758 114.284 403.303 114.695 403.895 114.558C404.486 114.467 404.85 113.919 404.759 113.28Z" fill="#FF6300"/>
<path d="M422.225 102.511C422.043 101.507 421.088 100.868 420.087 101.051C419.086 101.233 418.45 102.191 418.632 103.195C418.813 104.199 419.769 104.838 420.769 104.655C421.724 104.473 422.407 103.515 422.225 102.511Z" fill="#FF6300"/>
<path d="M443.373 129.707C443.1 128.293 441.781 127.38 440.371 127.654C438.961 127.928 438.052 129.251 438.325 130.666C438.598 132.08 439.917 132.993 441.327 132.719C442.736 132.445 443.646 131.122 443.373 129.707Z" fill="#FF6300"/>
<path d="M456.518 101.69C456.336 100.687 455.381 100.048 454.38 100.23C453.379 100.413 452.743 101.371 452.925 102.375C453.106 103.379 454.062 104.018 455.062 103.835C456.017 103.698 456.7 102.694 456.518 101.69Z" fill="#FF6300"/>
<path d="M516.826 67.878C516.644 66.8741 515.689 66.2353 514.689 66.4178C513.688 66.6003 513.051 67.5585 513.233 68.5624C513.415 69.5663 514.37 70.2051 515.371 70.0226C516.371 69.8401 517.008 68.8818 516.826 67.878Z" fill="#FF6300"/>
<path d="M520.92 109.814C520.738 108.81 519.783 108.171 518.782 108.353C517.782 108.536 517.145 109.494 517.327 110.498C517.509 111.502 518.464 112.141 519.465 111.958C520.42 111.776 521.102 110.817 520.92 109.814Z" fill="#FF6300"/>
<path d="M590.462 131.396C590.28 130.392 589.325 129.753 588.324 129.935C587.324 130.118 586.687 131.076 586.869 132.08C587.051 133.084 588.006 133.723 589.007 133.54C589.962 133.403 590.644 132.399 590.462 131.396Z" fill="#FF6300"/>
<path d="M494.449 130.893C495.052 130.893 495.541 130.403 495.541 129.798C495.541 129.193 495.052 128.703 494.449 128.703C493.846 128.703 493.357 129.193 493.357 129.798C493.357 130.403 493.846 130.893 494.449 130.893Z" fill="#FF6300"/>
<path d="M651.818 2.8094C652.421 2.8094 652.91 2.3191 652.91 1.71427C652.91 1.10945 652.421 0.619141 651.818 0.619141C651.215 0.619141 650.727 1.10945 650.727 1.71427C650.727 2.3191 651.215 2.8094 651.818 2.8094Z" fill="#FF6300"/>
<path d="M519.054 41.9598C519.657 41.9598 520.146 41.4695 520.146 40.8647C520.146 40.2598 519.657 39.7695 519.054 39.7695C518.452 39.7695 517.963 40.2598 517.963 40.8647C517.963 41.4695 518.452 41.9598 519.054 41.9598Z" fill="#FF6300"/>
<path d="M442.782 67.6512C442.691 67.058 442.1 66.6474 441.509 66.7842C440.917 66.8755 440.508 67.4687 440.645 68.0619C440.735 68.6551 441.327 69.0658 441.918 68.9289C442.509 68.8376 442.919 68.29 442.782 67.6512Z" fill="#FF6300"/>
<path d="M381.562 64.8211C381.471 64.2279 380.88 63.8173 380.289 63.9542C379.698 64.0454 379.288 64.6386 379.425 65.2318C379.516 65.825 380.107 66.2357 380.698 66.0988C381.29 66.0075 381.699 65.4143 381.562 64.8211Z" fill="#FF6300"/>
<path d="M709.078 12.0717C708.987 11.661 708.624 11.3873 708.214 11.4785C707.805 11.5698 707.532 11.9348 707.623 12.3455C707.714 12.7562 708.078 13.03 708.487 12.9387C708.897 12.8474 709.169 12.4368 709.078 12.0717Z" fill="#FF6300"/>
<path d="M690.068 107.165C689.977 106.755 689.613 106.481 689.204 106.572C688.794 106.664 688.521 107.029 688.612 107.439C688.703 107.85 689.067 108.124 689.476 108.032C689.886 107.941 690.159 107.531 690.068 107.165Z" fill="#FF6300"/>
<path d="M456.199 130.027C456.109 129.616 455.745 129.342 455.335 129.434C454.926 129.525 454.653 129.89 454.744 130.301C454.835 130.711 455.199 130.985 455.608 130.894C456.018 130.803 456.29 130.437 456.199 130.027Z" fill="#FF6300"/>
<path d="M567.266 96.9897C567.175 96.579 566.811 96.3052 566.402 96.3965C565.992 96.4878 565.72 96.8528 565.81 97.2635C565.901 97.6742 566.265 97.9479 566.675 97.8567C567.084 97.811 567.357 97.4004 567.266 96.9897Z" fill="#FF6300"/>
<path d="M256.077 41.5949C256.032 41.4125 255.85 41.2757 255.668 41.3213C255.486 41.3669 255.35 41.5493 255.396 41.7317C255.441 41.9141 255.623 42.0509 255.805 42.0053C255.986 41.9597 256.123 41.7773 256.077 41.5949Z" fill="#FF6300"/>
<path d="M611.065 8.6496C611.019 8.46722 610.837 8.33043 610.656 8.37602C610.474 8.42162 610.337 8.604 610.383 8.78638C610.428 8.96876 610.61 9.10554 610.792 9.05995C610.974 9.01435 611.11 8.83198 611.065 8.6496Z" fill="#FF6300"/>
<path d="M556.531 27.9523C556.486 27.77 556.304 27.6332 556.122 27.6788C555.941 27.7244 555.804 27.9067 555.85 28.0891C555.895 28.2715 556.077 28.4083 556.259 28.3627C556.44 28.3171 556.577 28.1347 556.531 27.9523Z" fill="#FF6300"/>
<path d="M543.888 0.208191C543.842 0.0258109 543.661 -0.110977 543.479 -0.0653819C543.297 -0.0197869 543.161 0.162597 543.206 0.344978C543.252 0.527358 543.433 0.664139 543.615 0.618544C543.797 0.572949 543.933 0.390571 543.888 0.208191Z" fill="#FF6300"/>
<path d="M465.887 62.4484C465.841 62.266 465.66 62.1293 465.478 62.1749C465.296 62.2204 465.16 62.4028 465.205 62.5852C465.251 62.7676 465.432 62.9044 465.614 62.8588C465.75 62.8588 465.887 62.6764 465.887 62.4484Z" fill="#FF6300"/>
<path d="M482.578 42.6906C482.533 42.5082 482.351 42.3714 482.169 42.417C481.987 42.4626 481.851 42.645 481.897 42.8274C481.942 43.0098 482.124 43.1466 482.306 43.101C482.487 43.101 482.624 42.9186 482.578 42.6906Z" fill="#FF6300"/>
<path d="M411.49 80.2894C411.671 80.1982 411.717 79.9702 411.626 79.7878C411.535 79.6055 411.308 79.5599 411.126 79.6511C410.944 79.7423 410.899 79.9702 410.99 80.1526C411.081 80.335 411.308 80.3806 411.49 80.2894Z" fill="#FF6300"/>
<path d="M419.176 66.5999C419.358 66.5087 419.403 66.2808 419.313 66.0984C419.222 65.916 418.994 65.8704 418.813 65.9616C418.631 66.0528 418.585 66.2808 418.676 66.4632C418.767 66.6455 418.994 66.6911 419.176 66.5999Z" fill="#FF6300"/>
<path d="M358.275 104.61C358.457 104.519 358.502 104.291 358.411 104.108C358.32 103.926 358.093 103.88 357.911 103.971C357.729 104.063 357.684 104.291 357.775 104.473C357.866 104.655 358.093 104.746 358.275 104.61Z" fill="#FF6300"/>
<path d="M510.005 121.128C509.914 120.535 509.323 120.124 508.731 120.261C508.14 120.398 507.731 120.945 507.867 121.538C507.958 122.132 508.549 122.542 509.141 122.405C509.732 122.269 510.141 121.721 510.005 121.128Z" fill="#FF6300"/>
<path d="M538.112 46.5224C537.521 46.568 537.021 47.07 537.066 47.6632C537.112 48.2564 537.612 48.7583 538.203 48.7127C538.795 48.667 539.295 48.1651 539.25 47.5719C539.204 46.9787 538.704 46.4768 538.112 46.5224Z" fill="#FF6300"/>
<path d="M633.533 34.6133C632.942 34.6589 632.442 35.1608 632.487 35.754C632.533 36.3472 633.033 36.8492 633.624 36.8035C634.216 36.7579 634.716 36.256 634.67 35.6628C634.67 35.0696 634.17 34.6133 633.533 34.6133Z" fill="#FF6300"/>
<path d="M721.496 63.0869C721.314 62.0831 720.359 61.4443 719.359 61.6268C718.358 61.8093 717.721 62.7675 717.903 63.7714C718.085 64.7753 719.04 65.4141 720.041 65.2316C720.996 65.0491 721.678 64.0908 721.496 63.0869Z" fill="#FF6300"/>
<path d="M603.196 32.3311C603.014 31.3272 602.059 30.6884 601.059 30.8709C600.058 31.0534 599.421 32.0117 599.603 33.0155C599.785 34.0194 600.74 34.6582 601.741 34.4757C602.696 34.2932 603.378 33.335 603.196 32.3311Z" fill="#FF6300"/>
<path d="M622.072 96.169C621.89 95.1651 620.935 94.5263 619.935 94.7088C618.934 94.8913 618.297 95.8496 618.479 96.8534C618.661 97.8573 619.616 98.4961 620.617 98.3136C621.572 98.1767 622.254 97.1728 622.072 96.169Z" fill="#FF6300"/>
<path d="M575.816 23.2061C575.634 22.2022 574.679 21.5634 573.679 21.7459C572.678 21.9284 572.041 22.8867 572.223 23.8905C572.405 24.8944 573.36 25.5332 574.361 25.3507C575.316 25.1682 575.998 24.21 575.816 23.2061Z" fill="#FF6300"/>
<path d="M682.29 2.44437C682.108 1.4405 681.153 0.801681 680.152 0.984202C679.152 1.16672 678.515 2.12496 678.697 3.12883C678.879 4.1327 679.834 4.77153 680.835 4.589C681.835 4.40648 682.472 3.44824 682.29 2.44437Z" fill="#FF6300"/>
<path d="M695.981 75.087C695.799 74.0831 694.843 73.4443 693.843 73.6268C692.842 73.8093 692.205 74.7675 692.387 75.7714C692.569 76.7753 693.524 77.4141 694.525 77.2316C695.526 77.0491 696.162 76.0908 695.981 75.087Z" fill="#FF6300"/>
<g opacity="0.3">
<path opacity="0.3" d="M615.75 130.346L644.677 109.994L620.208 96.7616L592.691 101.918L588.689 132.901L581.912 103.926L565.493 107.028L534.838 129.387L526.697 104.519L519.056 110.451L496.133 84.2589L478.759 98.7694L479.486 117.888L461.293 113.325L440.827 130.437L403.622 113.736L362.143 136.46L384.611 88.7763L384.656 88.6851L434.732 84.989L420.723 102.739L461.202 112.869L478.395 98.5412L476.985 61.6263L496.224 83.6201L515.144 67.832L526.924 103.789L550.029 85.856L570.405 52.5458L582.276 103.424L592.327 101.553L596.466 69.2922L582.64 77.46L601.788 31.1908L596.966 68.5621L655.411 34.1568L691.023 46.477L657.367 82.9813L665.053 95.7578L694.071 75.361L694.298 75.1785L710.262 126.786L725.862 107.85L719.495 63.5884L679.789 2.16992L787.945 74.5397L788.127 74.6766L745.101 129.25L722.451 167.717L710.08 127.653L694.889 146.088L664.917 96.351L645.45 110.04L668.373 122.452L659.55 168.538L615.75 130.346ZM645.086 110.223L616.433 130.391L659.322 167.671L667.964 122.588L645.086 110.223ZM681.199 3.53883L719.859 63.3602L719.904 63.4059L726.317 107.85V107.941L710.444 127.197L722.633 166.622L744.829 128.931L787.582 74.6766L681.199 3.53883ZM694.071 75.7717L665.28 96.0316L694.935 145.267L709.944 127.106L694.071 75.7717ZM440.827 129.935L460.884 113.189L420.087 102.967L433.913 85.4453L385.02 89.0501L363.098 135.502L403.577 113.325L403.668 113.28L440.827 129.935ZM582.321 103.834L588.552 130.574L592.236 101.964L582.321 103.834ZM570.177 53.641L550.302 86.1298V86.1754L527.015 104.245L535.065 128.749L565.311 106.663L581.821 103.561L570.177 53.641ZM461.748 113.006L479.122 117.341L478.44 99.0888L461.748 113.006ZM514.917 68.5621L496.451 83.9851L519.101 109.903L526.56 104.108L514.917 68.5621ZM657.094 83.2094L647.224 93.8869L642.539 58.2952L657.139 82.525L690.296 46.5683L655.456 34.5218L596.875 68.9728L592.691 101.416L620.162 96.2597H620.253L644.995 109.675L664.644 95.849L657.094 83.2094ZM477.394 62.767L478.759 98.2218L495.86 83.8939L477.394 62.767ZM643.222 60.1661L647.542 92.9743L656.866 82.8444L643.222 60.1661ZM600.969 34.1568L583.458 76.5018L596.512 68.7902L600.969 34.1568Z" fill="#FF6300"/>
</g>
<path d="M384.246 88.4121L420.859 102.831L403.621 113.783L384.246 88.4121ZM385.474 89.3247L403.712 113.235L419.949 102.923L385.474 89.3247Z" fill="#FF6300"/>
<path d="M454.673 101.831L420.39 102.631L420.399 103.041L454.682 102.242L454.673 101.831Z" fill="#FF6300"/>
<g opacity="0.8">
<path opacity="0.8" d="M406.669 152.614L406.76 152.523L440.917 130.392L479.804 117.661L454.971 101.964L477.348 62.3114L477.029 62.1289L454.425 102.101L454.607 102.238L478.849 117.57L440.78 129.981L440.735 130.027L406.623 152.158L362.733 135.776L362.597 136.141L406.669 152.614Z" fill="#FF6300"/>
</g>
<path d="M403.873 113.506L403.465 113.537L406.422 152.392L406.83 152.361L403.873 113.506Z" fill="#FF6300"/>
<g opacity="0.6">
<path opacity="0.6" d="M420.223 102.967L420.541 102.739L440.781 129.798L454.425 102.1L433.958 85.1715L477.121 61.9913L515.007 67.9689H515.053L534.792 78.0076L570.222 52.8652L643.221 59.0253L620.435 96.5791L616.205 130.939L582.957 77.1862L550.529 86.1298L565.583 106.663L589.143 131.988L535.11 129.25L535.019 129.433L534.837 129.205L508.867 121.493L479.258 117.797L478.349 117.98L534.337 78.2814L514.871 68.4252L477.121 62.4476L434.595 85.2628L454.834 102.009L440.781 130.574L420.223 102.967ZM535.247 128.84L588.142 131.486L565.265 106.892L550.21 86.4035L535.247 128.84ZM480.623 117.569L508.958 121.128L534.337 128.657L518.964 110.359L480.623 117.569ZM534.837 78.4639L480.168 117.25L519.055 109.949H519.192L534.928 128.657L549.937 86.1298L534.837 78.4639ZM570.359 53.3215L535.247 78.2357L550.21 85.8104L583.003 76.7755L583.139 76.7299L615.932 129.752L620.025 96.4879V96.4422L642.493 59.3904L570.359 53.3215Z" fill="#FF6300"/>
</g>
<g opacity="0.6">
<path opacity="0.6" d="M659.504 168.219L695.253 145.632L668.191 122.27H668.1L616.023 130.164L588.597 131.532L588.552 131.578L560.717 145.632L535.065 128.886L534.883 129.205L560.717 146.089L560.808 146.043L588.688 131.943L616.068 130.574L668.054 122.68L694.57 145.587L659.322 167.854L659.504 168.219Z" fill="#FF6300"/>
</g>
<path d="M518.963 109.98L508.787 121.174L509.09 121.451L519.266 110.257L518.963 109.98Z" fill="#FF6300"/>
<path d="M538.021 47.4812L538.112 47.4355L571.268 53.0937L514.279 68.6537L538.021 47.4812ZM538.203 47.8462L515.78 67.7867L569.313 53.1393L538.203 47.8462Z" fill="#FF6300"/>
<path d="M642.676 59.2989L643.04 59.162L633.898 35.9361L655.729 34.5216L647.452 14.2617L647.088 14.3986L655.138 34.1565L633.307 35.5255L642.676 59.2989Z" fill="#FF6300"/>
<path d="M690.477 46.5688L690.886 46.4775C690.568 44.698 681.108 4.452 680.698 2.76367L680.289 2.85493C680.38 3.2656 690.113 44.7436 690.477 46.5688Z" fill="#FF6300"/>
<g opacity="0.8">
<path opacity="0.8" d="M667.962 122.59L668.281 122.361L647.45 93.2036L647.359 93.2492L620.297 96.3064L583.184 76.8223L570.494 53.0488L574.178 23.8454L601.377 32.8802L633.714 35.9375L647.404 14.4912L679.879 3.2205L655.273 34.2491L642.492 59.574L690.476 46.7519L693.978 75.499L725.906 107.988L726.179 107.714L694.387 75.3165L690.84 46.2499L643.266 58.9352L655.637 34.4317L681.061 2.35352L647.132 14.1718L633.487 35.5268L601.422 32.4696L573.815 23.2979L570.085 53.1401L582.865 77.096L582.956 77.1417L620.206 96.7627L647.268 93.6599L667.962 122.59Z" fill="#FF6300"/>
</g>
<path d="M583.094 77.1416L643.357 59.3001L601.377 32.4238L570.177 52.9119L570.404 53.2769L601.377 32.8801L642.402 59.1632L582.957 76.7765L583.094 77.1416Z" fill="#FF6300"/>
<g opacity="0.3">
<path opacity="0.3" d="M477.212 62.4028L538.249 47.8011L574.089 23.7539L645.723 14.7647L601.287 32.4693L601.469 32.8343L648.816 13.9434L573.907 23.3432L573.861 23.3888L538.067 47.436L477.121 61.9921L477.212 62.4028Z" fill="#FF6300"/>
</g>
<path d="M722.45 167.306L752.195 161.054L773.527 120.17L773.163 119.987L751.923 160.689L722.541 166.895L695.343 145.677L745.282 129.159L726.134 107.621L725.998 107.667L668.554 122.177L694.342 75.5888L720.085 63.4511L690.977 46.4766L739.779 -6.59145L739.461 -6.86523L690.34 46.5679L719.221 63.4055L694.024 75.2694L693.978 75.315L667.735 122.771L668.19 122.679L725.998 108.078L744.554 128.931L694.479 145.54L722.45 167.306Z" fill="#FF6300"/>
<path d="M642.675 59.3008L694.797 75.3627L647.178 93.7061L642.675 59.3008ZM643.175 59.894L647.541 93.1585L693.569 75.4539L643.175 59.894Z" fill="#FF6300"/>
<path d="M726.181 108.034L765.341 81.5225L719.905 63.316L737.734 10.5217L737.324 10.3848L719.404 63.5441L764.477 81.6137L725.954 107.669L726.181 108.034Z" fill="#FF6300"/>
<g opacity="0.5">
<path opacity="0.5" d="M680.472 2.59737L680.458 3.00781L737.822 5.03205L737.836 4.62161L680.472 2.59737Z" fill="#FF6300"/>
</g>
<g opacity="0.1">
<path opacity="0.1" d="M247.8 114.785C248.437 116.337 260.671 140.658 260.671 140.658L225.514 125.371L247.8 114.785Z" fill="#FF6300"/>
</g>
<g opacity="0.05">
<path opacity="0.05" d="M195.951 99.3184L168.252 126.149L161.885 99.8203L195.951 99.3184Z" fill="#FF6300"/>
</g>
<g opacity="0.05">
<path opacity="0.05" d="M133.05 138.15L99.5293 101.965L102.668 127.062L133.05 138.15Z" fill="#FF6300"/>
</g>
<g opacity="0.2">
<path opacity="0.2" d="M50.089 102.329L26.2109 78.6465L36.9447 110.816L50.089 102.329Z" fill="#FF6300"/>
</g>
<g opacity="0.1">
<path opacity="0.1" d="M90.796 34.4312L70.6475 5.27344L31.0781 34.0662L90.796 34.4312Z" fill="#FF6300"/>
</g>
<g opacity="0.2">
<path opacity="0.2" d="M325.801 115.563L307.881 129.115L292.372 107.715L325.801 115.563Z" fill="#FF6300"/>
</g>
<g opacity="0.2">
<path opacity="0.2" d="M244.662 75.4538L232.063 83.7129L221.375 61.4453L244.662 75.4538Z" fill="#FF6300"/>
</g>
<g opacity="0.1">
<path opacity="0.1" d="M153.561 73.1244L130.729 71.5273L161.885 99.8182L153.561 73.1244Z" fill="#FF6300"/>
</g>
<g opacity="0.1">
<path opacity="0.1" d="M81.1543 122.953L84.0651 144.354L49.0439 147.183L81.1543 122.953Z" fill="#FF6300"/>
</g>
<path d="M219.556 61.3081C219.465 62.312 220.238 63.2246 221.284 63.2702C222.285 63.3615 223.195 62.5858 223.24 61.5363C223.331 60.5324 222.558 59.6198 221.512 59.5742C220.511 59.5285 219.602 60.3043 219.556 61.3081Z" fill="#FF6300"/>
<path d="M244.116 114.558C243.979 116.611 245.526 118.345 247.527 118.482C249.574 118.619 251.302 117.068 251.438 115.06C251.575 113.006 250.028 111.272 248.027 111.136C246.026 110.999 244.252 112.505 244.116 114.558Z" fill="#FF6300"/>
<path d="M194.131 99.1792C194.04 100.183 194.814 101.096 195.86 101.141C196.86 101.233 197.77 100.457 197.815 99.4074C197.906 98.4035 197.133 97.4909 196.087 97.4453C195.086 97.3996 194.177 98.1754 194.131 99.1792Z" fill="#FF6300"/>
<path d="M88.976 34.2945C88.8851 35.2983 89.6583 36.2109 90.7043 36.2566C91.705 36.3478 92.6146 35.5721 92.6601 34.5226C92.751 33.5187 91.9778 32.6061 90.9318 32.5605C89.9312 32.5149 89.067 33.2906 88.976 34.2945Z" fill="#FF6300"/>
<path d="M97.6635 101.873C97.5726 102.877 98.3458 103.789 99.3918 103.835C100.392 103.926 101.302 103.15 101.348 102.101C101.439 101.097 100.665 100.184 99.6193 100.139C98.6187 100.093 97.7545 100.823 97.6635 101.873Z" fill="#FF6300"/>
<path d="M28.1678 33.8383C28.0769 35.481 29.3049 36.8955 30.8968 36.9868C32.4886 37.078 33.944 35.846 34.035 34.249C34.126 32.6519 32.898 31.1917 31.3061 31.1005C29.6687 31.0092 28.2588 32.2412 28.1678 33.8383Z" fill="#FF6300"/>
<path d="M167.16 126.057C167.115 126.65 167.57 127.198 168.206 127.244C168.798 127.289 169.343 126.833 169.389 126.194C169.434 125.601 168.98 125.053 168.343 125.008C167.752 125.008 167.206 125.464 167.16 126.057Z" fill="#FF6300"/>
<path d="M79.2895 122.818C79.1985 123.822 79.9717 124.734 81.0178 124.78C82.0184 124.871 82.9281 124.096 82.9735 123.046C83.0645 122.042 82.2913 121.13 81.2452 121.084C80.2446 121.038 79.3805 121.769 79.2895 122.818Z" fill="#FF6300"/>
<path d="M161.476 101.645C162.476 101.873 163.431 101.235 163.659 100.231C163.886 99.2268 163.249 98.2685 162.249 98.0404C161.248 97.8122 160.293 98.4511 160.066 99.4549C159.838 100.413 160.475 101.417 161.476 101.645Z" fill="#FF6300"/>
<path d="M185.808 77.8704C187.218 78.1898 188.582 77.2772 188.855 75.9082C189.173 74.4937 188.264 73.1248 186.899 72.851C185.489 72.5316 184.125 73.4442 183.852 74.8131C183.534 76.182 184.398 77.5509 185.808 77.8704Z" fill="#FF6300"/>
<path d="M272.178 87.545C272.769 87.6819 273.36 87.3169 273.497 86.6781C273.633 86.0849 273.269 85.4917 272.633 85.3548C272.041 85.2179 271.45 85.5829 271.314 86.2218C271.223 86.8606 271.587 87.4538 272.178 87.545Z" fill="#FF6300"/>
<path d="M384.474 90.6471C385.474 90.8753 386.429 90.2365 386.657 89.2326C386.884 88.2287 386.247 87.2705 385.247 87.0423C384.246 86.8142 383.291 87.453 383.064 88.4569C382.836 89.4607 383.473 90.4646 384.474 90.6471Z" fill="#FF6300"/>
<path d="M141.373 39.7243C141.282 40.7281 142.055 41.6407 143.101 41.6864C144.101 41.7776 145.011 41.0019 145.057 39.9524C145.148 38.9485 144.374 38.0359 143.328 37.9903C142.282 37.9447 141.418 38.6748 141.373 39.7243Z" fill="#FF6300"/>
<path d="M102.576 67.787C102.531 68.3802 102.986 68.9278 103.622 68.9734C104.214 69.019 104.76 68.5627 104.805 67.9239C104.85 67.3307 104.396 66.7831 103.759 66.7375C103.122 66.6919 102.622 67.1482 102.576 67.787Z" fill="#FF6300"/>
<path d="M48.225 102.193C48.1341 103.197 48.9073 104.109 49.9534 104.155C50.954 104.246 51.8636 103.471 51.9091 102.421C52.0001 101.417 51.2269 100.505 50.1808 100.459C49.1802 100.413 48.316 101.189 48.225 102.193Z" fill="#FF6300"/>
<path d="M306.062 129.023C305.971 130.027 306.744 130.94 307.79 130.985C308.791 131.076 309.701 130.301 309.746 129.251C309.837 128.247 309.064 127.335 308.018 127.289C307.017 127.244 306.153 127.974 306.062 129.023Z" fill="#FF6300"/>
<path d="M345.557 110.06C345.897 109.561 345.77 108.88 345.272 108.538C344.774 108.197 344.095 108.325 343.755 108.824C343.414 109.324 343.542 110.005 344.04 110.346C344.538 110.688 345.217 110.56 345.557 110.06Z" fill="#FF6300"/>
<path d="M323.937 115.425C323.846 116.429 324.619 117.342 325.665 117.387C326.666 117.479 327.576 116.703 327.621 115.653C327.712 114.65 326.939 113.737 325.893 113.691C324.892 113.646 324.028 114.421 323.937 115.425Z" fill="#FF6300"/>
<path d="M310.247 83.7577C310.156 85.1723 311.202 86.4043 312.657 86.4955C314.067 86.5868 315.295 85.5373 315.386 84.0771C315.477 82.6626 314.431 81.4306 312.976 81.3393C311.52 81.248 310.338 82.3432 310.247 83.7577Z" fill="#FF6300"/>
<path d="M290.553 107.576C290.462 108.58 291.235 109.492 292.281 109.538C293.282 109.629 294.192 108.853 294.237 107.804C294.328 106.8 293.555 105.887 292.509 105.842C291.508 105.796 290.599 106.572 290.553 107.576Z" fill="#FF6300"/>
<path d="M223.695 125.236C223.604 126.24 224.377 127.152 225.423 127.198C226.424 127.289 227.333 126.514 227.379 125.464C227.47 124.46 226.697 123.548 225.65 123.502C224.65 123.456 223.786 124.232 223.695 125.236Z" fill="#FF6300"/>
<path d="M230.198 83.6207C230.107 84.6246 230.88 85.5372 231.926 85.5829C232.927 85.6741 233.836 84.8984 233.882 83.8489C233.973 82.845 233.2 81.9324 232.153 81.8868C231.153 81.8412 230.289 82.5712 230.198 83.6207Z" fill="#FF6300"/>
<path d="M168.252 45.2456C168.161 46.2495 168.935 47.1621 169.981 47.2077C170.981 47.299 171.891 46.5233 171.936 45.4738C172.027 44.4699 171.254 43.5573 170.208 43.5117C169.208 43.466 168.343 44.2418 168.252 45.2456Z" fill="#FF6300"/>
<path d="M199.544 38.6296C199.499 39.2228 199.953 39.7703 200.59 39.816C201.181 39.8616 201.727 39.4053 201.773 38.7665C201.818 38.1733 201.363 37.6257 200.727 37.5801C200.135 37.5801 199.59 38.0364 199.544 38.6296Z" fill="#FF6300"/>
<path d="M259.671 70.8437C259.626 71.4368 260.08 71.9844 260.717 72.03C261.308 72.0757 261.854 71.6194 261.9 70.9805C261.945 70.3874 261.49 69.8398 260.854 69.7942C260.262 69.7485 259.717 70.2048 259.671 70.8437Z" fill="#FF6300"/>
<path d="M157.199 27.2663C157.154 27.8595 157.609 28.4071 158.246 28.4527C158.837 28.4983 159.383 28.042 159.428 27.4032C159.474 26.81 159.019 26.2624 158.382 26.2168C157.745 26.2168 157.199 26.6731 157.199 27.2663Z" fill="#FF6300"/>
<path d="M65.7358 43.7391C65.6903 44.1498 66.0087 44.5149 66.418 44.5149C66.8273 44.5605 67.1912 44.2411 67.1912 43.8304C67.2367 43.4197 66.9183 43.0547 66.509 43.0547C66.0996 43.0547 65.7813 43.3285 65.7358 43.7391Z" fill="#FF6300"/>
<path d="M297.876 80.2454C297.831 80.6561 298.149 81.0212 298.559 81.0212C298.968 81.0668 299.332 80.7474 299.332 80.3367C299.377 79.926 299.059 79.561 298.65 79.561C298.286 79.5154 297.922 79.8348 297.876 80.2454Z" fill="#FF6300"/>
<path d="M182.123 84.3505C182.078 84.7611 182.396 85.1262 182.806 85.1262C183.215 85.1718 183.579 84.8524 183.579 84.4417C183.624 84.0311 183.306 83.666 182.897 83.666C182.487 83.666 182.169 83.9854 182.123 84.3505Z" fill="#FF6300"/>
<path d="M144.965 20.0562C144.965 20.2385 145.101 20.4209 145.328 20.4665C145.51 20.4665 145.692 20.3297 145.737 20.1018C145.737 19.9194 145.601 19.737 145.374 19.6914C145.147 19.737 144.965 19.8738 144.965 20.0562Z" fill="#FF6300"/>
<path d="M236.065 41.9136C236.065 42.096 236.202 42.2783 236.429 42.3239C236.611 42.3239 236.793 42.1872 236.838 41.9592C236.838 41.7768 236.702 41.5944 236.474 41.5488C236.247 41.5488 236.065 41.7312 236.065 41.9136Z" fill="#FF6300"/>
<path d="M340.675 60.4409C340.675 60.6233 340.811 60.8057 341.038 60.8513C341.22 60.8513 341.402 60.7145 341.447 60.4865C341.447 60.3041 341.311 60.1218 341.084 60.0762C340.857 60.0762 340.675 60.2585 340.675 60.4409Z" fill="#FF6300"/>
<path d="M346.679 32.2398C346.679 32.4221 346.815 32.6045 347.042 32.6501C347.224 32.6501 347.406 32.5133 347.451 32.2854C347.451 32.103 347.315 31.9206 347.088 31.875C346.86 31.875 346.679 32.0574 346.679 32.2398Z" fill="#FF6300"/>
<path d="M375.241 65.5054C375.241 65.6878 375.378 65.8702 375.605 65.9157C375.787 65.9157 375.968 65.779 376.014 65.551C376.014 65.3686 375.877 65.1862 375.65 65.1406C375.423 65.1862 375.241 65.323 375.241 65.5054Z" fill="#FF6300"/>
<path d="M323.982 51.4976C323.982 51.6799 324.119 51.8623 324.346 51.9079C324.528 51.9079 324.71 51.7711 324.755 51.5432C324.755 51.3608 324.619 51.1784 324.391 51.1328C324.164 51.1328 323.982 51.3152 323.982 51.4976Z" fill="#FF6300"/>
<path d="M191.13 20.2847C191.13 20.4671 191.266 20.6494 191.493 20.695C191.675 20.695 191.857 20.5583 191.902 20.3303C191.902 20.1479 191.766 19.9655 191.539 19.9199C191.312 19.9199 191.13 20.1023 191.13 20.2847Z" fill="#FF6300"/>
<path d="M287.324 51.9077C287.324 52.0901 287.461 52.2725 287.688 52.3181C287.87 52.3181 288.051 52.1813 288.097 51.9533C288.097 51.7709 287.96 51.5886 287.733 51.543C287.506 51.543 287.324 51.7254 287.324 51.9077Z" fill="#FF6300"/>
<path d="M448.967 39.9524C448.785 39.998 448.649 40.226 448.694 40.4083C448.74 40.5907 448.967 40.7275 449.149 40.6819C449.331 40.6363 449.467 40.4083 449.422 40.226C449.376 39.998 449.149 39.8612 448.967 39.9524Z" fill="#FF6300"/>
<path d="M356.138 92.5192C355.956 92.5648 355.82 92.7928 355.865 92.9752C355.911 93.1575 356.138 93.2943 356.32 93.2487C356.502 93.2031 356.638 92.9752 356.592 92.7928C356.547 92.5648 356.365 92.4736 356.138 92.5192Z" fill="#FF6300"/>
<path d="M386.383 129.433C386.201 129.478 386.065 129.706 386.11 129.889C386.156 130.071 386.383 130.208 386.565 130.162C386.747 130.117 386.883 129.889 386.838 129.706C386.792 129.478 386.61 129.342 386.383 129.433Z" fill="#FF6300"/>
<path d="M219.601 40.8661C219.556 41.2768 219.874 41.6418 220.283 41.6418C220.693 41.6874 221.056 41.368 221.056 40.9574C221.102 40.5467 220.784 40.1816 220.374 40.1816C219.965 40.1816 219.646 40.4554 219.601 40.8661Z" fill="#FF6300"/>
<path d="M113.31 23.1151C113.264 23.7083 113.719 24.2559 114.356 24.3015C114.947 24.3472 115.493 23.8909 115.538 23.252C115.584 22.6588 115.129 22.1113 114.492 22.0656C113.856 22.02 113.355 22.4763 113.31 23.1151Z" fill="#FF6300"/>
<path d="M320.616 72.5331C320.571 73.1263 321.026 73.6739 321.663 73.7195C322.254 73.7651 322.8 73.3088 322.845 72.67C322.891 72.0768 322.436 71.5292 321.799 71.4836C321.208 71.438 320.662 71.8943 320.616 72.5331Z" fill="#FF6300"/>
<path d="M243.571 75.362C243.525 75.9552 243.98 76.5028 244.617 76.5484C245.208 76.594 245.754 76.1377 245.799 75.4989C245.845 74.9057 245.39 74.3581 244.753 74.3125C244.162 74.3125 243.616 74.7688 243.571 75.362Z" fill="#FF6300"/>
<path d="M350.362 70.9801C350.316 71.5733 350.771 72.1209 351.408 72.1665C351.999 72.2121 352.545 71.7558 352.59 71.117C352.636 70.5238 352.181 69.9763 351.544 69.9306C350.907 69.885 350.362 70.3869 350.362 70.9801Z" fill="#FF6300"/>
<path d="M102.395 128.156C102.986 128.293 103.577 127.928 103.714 127.289C103.85 126.696 103.486 126.103 102.849 125.966C102.258 125.829 101.667 126.194 101.53 126.833C101.44 127.426 101.803 128.019 102.395 128.156Z" fill="#FF6300"/>
<path d="M16.2514 8.64993C16.1604 9.6538 16.9336 10.5664 17.9797 10.612C19.0258 10.6577 19.89 9.92758 19.9355 8.87808C20.0264 7.87422 19.2532 6.96161 18.2071 6.91598C17.2065 6.87035 16.3424 7.64606 16.2514 8.64993Z" fill="#FF6300"/>
<path d="M24.392 78.5093C24.3011 79.5132 25.0743 80.4258 26.1204 80.4714C27.121 80.5627 28.0306 79.787 28.0761 78.7375C28.167 77.7336 27.3939 76.821 26.3478 76.7754C25.3017 76.7297 24.4375 77.5054 24.392 78.5093Z" fill="#FF6300"/>
<path d="M128.865 71.4372C128.774 72.441 129.547 73.3536 130.593 73.3993C131.594 73.4905 132.503 72.7148 132.549 71.6653C132.64 70.6614 131.867 69.7488 130.82 69.7032C129.82 69.6576 128.956 70.3877 128.865 71.4372Z" fill="#FF6300"/>
<path d="M68.8286 5.18129C68.7376 6.18515 69.5108 7.09776 70.5569 7.14339C71.5575 7.23465 72.4671 6.45894 72.5126 5.40944C72.6036 4.40557 71.8304 3.49297 70.7843 3.44734C69.7837 3.40171 68.874 4.13179 68.8286 5.18129Z" fill="#FF6300"/>
<path d="M52.0454 73.3081C51.9544 74.312 52.7276 75.2246 53.7737 75.2702C54.7743 75.3615 55.6839 74.5858 55.7294 73.5363C55.8204 72.5324 55.0472 71.6198 54.0011 71.5742C53.0005 71.5285 52.0908 72.3043 52.0454 73.3081Z" fill="#FF6300"/>
<g opacity="0.3">
<path opacity="0.3" d="M-37.1448 50.8565L-37.2812 50.674L17.9794 8.64847L49.4985 -22.9277L51.4997 18.9609L70.7841 4.95241L87.385 60.6214L109.671 52.2255L90.5688 34.4752L110.444 -7.59594L110.581 -7.91535L143.51 39.9509L110.444 52.408L130.82 71.3902L158.792 73.3067L170.39 44.2858L169.708 74.0368L186.354 75.1775L221.33 61.3059L221.603 61.2146L223.285 87.3608L232.154 83.5279L247.8 114.648L268.222 104.929L272.27 86.2201L288.734 95.2093L312.703 83.8473L312.84 83.8017L344.677 109.263L384.792 88.7297L384.974 89.0948L344.768 109.674L344.632 109.72L312.794 84.258L289.189 95.3918L325.893 115.378L326.166 115.515L308.428 128.976L362.688 135.729L362.642 136.14L307.382 129.249L325.393 115.56L288.734 95.6199L268.586 105.202L260.763 141.296L247.618 115.15L225.378 125.69L222.922 87.9084L196.087 99.4985L168.434 126.329L168.07 126.694L169.253 74.4474L159.019 73.763L146.967 103.97L162.385 99.5441L132.276 139.562L146.239 104.609L81.063 123.272L49.6804 102.419L91.342 75.5426L87.0667 61.2603L53.6374 73.8542L51.0449 19.8735L31.3057 34.1558L26.4391 78.5998L49.5895 148.049L-37.1448 50.8565ZM49.1346 -21.9695L18.2523 8.96788L-36.69 50.7653L48.5434 146.315L26.0298 78.6911V78.6454L30.9418 33.9277L51.1359 19.2347L49.1346 -21.9695ZM247.982 114.967L260.626 140.064L268.131 105.385L247.982 114.967ZM146.785 104.381L133.822 136.778L161.339 100.183L146.785 104.381ZM221.193 61.7166L186.445 75.4969H186.399L169.662 74.3562L168.48 125.599L195.814 99.0878L222.831 87.4065L221.193 61.7166ZM158.61 73.6717L130.638 71.7552L109.99 52.5449L87.476 60.9865L91.7058 75.1775L103.895 67.3291L99.5742 102.966L91.4784 75.8163L50.4081 102.282L81.1085 122.679L146.466 104.016L158.61 73.6717ZM231.972 83.9842L223.331 87.7259L225.741 125.051L247.436 114.739L231.972 83.9842ZM272.588 86.8133L268.722 104.7L288.279 95.3461L272.588 86.8133ZM91.8423 75.5882L99.4378 100.959L103.44 68.1048L91.8423 75.5882ZM70.5567 5.63686L51.4997 19.4629L54.0467 73.1241L86.9757 60.7127L70.5567 5.63686ZM159.156 73.261L169.207 73.9455L169.844 46.476L159.156 73.261ZM110.672 -7.094L91.0691 34.384L110.081 52.0886L142.873 39.7684L110.672 -7.094Z" fill="#FF6300"/>
</g>
<path d="M325.256 115.518L344.722 109.221L363.324 136.599L325.256 115.518ZM326.302 115.609L362.005 135.367L344.54 109.677L326.302 115.609Z" fill="#FF6300"/>
<path d="M292.438 107.508L292.345 107.908L325.736 115.749L325.83 115.349L292.438 107.508Z" fill="#FF6300"/>
<g opacity="0.8">
<path opacity="0.8" d="M260.808 140.795L292.645 107.713L292.555 107.576L272.861 86.6775L312.84 84.1678L351.408 71.2544L384.747 89.0503L384.974 88.6852L351.454 70.8438H351.363L312.749 83.7572L271.997 86.3125L292.1 107.713L260.535 140.521L260.808 140.795Z" fill="#FF6300"/>
</g>
<path d="M351.247 71.0478L344.446 109.412L344.849 109.484L351.65 71.1197L351.247 71.0478Z" fill="#FF6300"/>
<g opacity="0.6">
<path opacity="0.6" d="M225.469 125.555L208.823 110.908L168.253 126.377L99.1201 102.101L130.503 71.4833L143.192 39.2227L162.022 99.6372L195.678 99.1353L186.218 75.4532L169.708 45.0177L221.33 61.2165L221.467 61.034L221.603 61.3077L244.799 75.2706L272.543 86.2676L273.453 86.3132L209.323 110.725L225.697 125.19L260.763 140.431L307.61 128.978L292.282 107.805L292.191 107.668L312.931 83.5297L326.03 115.425L325.666 115.562L312.795 84.2598L292.692 107.668L308.292 129.206L260.763 140.796H260.718L225.469 125.555ZM195.86 99.5004L161.703 100.048L143.147 40.4547L130.912 71.6202V71.6658L99.9388 101.919L168.253 125.92L208.459 110.589L195.86 99.5004ZM232.019 83.9404H231.882L221.33 61.8553L196.179 99.2722L208.868 110.452L271.452 86.6326L232.019 83.9404ZM170.527 45.7022L186.537 75.225L195.997 98.8159L221.057 61.4903L170.527 45.7022ZM232.201 83.5297L271.179 86.1763L244.617 75.6357L221.876 61.9922L232.201 83.5297Z" fill="#FF6300"/>
</g>
<g opacity="0.6">
<path opacity="0.6" d="M221.239 61.582L221.557 61.3082L200.726 38.4931L170.117 45.1551L143.237 39.6338L90.9325 34.2038L70.9659 5.41107L110.672 -7.31979L110.535 -7.73047L70.3291 5.18292L90.7051 34.6145H90.796L143.146 40.0445L170.117 45.5658H170.162L200.59 38.9494L221.239 61.582Z" fill="#FF6300"/>
</g>
<path d="M244.586 75.2695L231.944 83.5547L232.168 83.8985L244.81 75.6134L244.586 75.2695Z" fill="#FF6300"/>
<path d="M167.342 125.965L226.423 125.189L198.042 139.746L167.342 125.965ZM169.207 126.33L197.997 139.289L224.649 125.6L169.207 126.33Z" fill="#FF6300"/>
<path d="M18.298 8.78657C18.5709 -2.11909 19.1167 -22.9722 19.2986 -23.7935L18.8893 -23.8848C18.6619 -22.7896 17.9342 7.50892 17.8887 8.78657H18.298Z" fill="#FF6300"/>
<path d="M83.8827 144.401L84.292 144.31L81.3812 123.183L102.894 127.335L99.7104 101.965L99.3011 102.01L102.394 126.833L80.8809 122.681L83.8827 144.401Z" fill="#FF6300"/>
<path d="M48.8154 147.183H49.2248C49.2248 146.773 50.1344 104.108 50.2709 102.329L49.8615 102.283C49.7251 104.108 48.8609 145.45 48.8154 147.183Z" fill="#FF6300"/>
<g opacity="0.8">
<path opacity="0.8" d="M157.428 154.12L157.518 153.892L168.48 126.149V126.103L162.067 99.7287L162.021 99.683L130.821 71.3466L103.804 67.5593L91.0237 34.3404L90.6144 34.4773L103.531 67.9243L130.639 71.7573L161.703 99.9568L168.07 126.103L157.2 153.481L133.14 137.921L102.576 126.833L83.974 144.173L49.726 146.956L81.2906 123.091V123.046L99.9837 101.782L50.3173 102.101L54.0923 73.3999L54.0468 73.3543L31.2603 33.9297L30.8965 34.1578L53.6375 73.4912L49.8625 102.512L99.0741 102.193L80.9722 122.772L48.3616 147.458L84.156 144.538L102.713 127.289L132.958 138.332L157.428 154.12Z" fill="#FF6300"/>
</g>
<path d="M133.003 138.377L133.139 138.331L168.342 126.33L168.206 125.965L133.139 137.875L99.9829 102.192L161.884 100.047L161.838 99.6367L99.0732 101.781L133.003 138.377Z" fill="#FF6300"/>
<path d="M-10.4925 141.754L50.4079 102.329L50.226 102.146L26.6208 78.7837L53.9555 73.6275L54.001 73.5818L91.2963 34.2028L31.2145 33.8378L18.434 8.96926L71.0568 5.45572L49.4073 -22.6526H49.3163L19.0253 -24.0215L18.9343 -23.9759L-11.8115 10.2013L-11.5386 10.4751L19.2072 -23.6108L49.1799 -22.2419L70.2381 5.13631L17.7973 8.60422L30.9871 34.2485H31.078L90.3411 34.6135L53.7736 73.2624L25.8021 78.5099L49.7257 102.283L-10.72 141.434L-10.4925 141.754Z" fill="#FF6300"/>
<path d="M53.2734 73.3087L103.895 67.5137L99.7561 101.645L99.7106 101.965L53.2734 73.3087ZM54.5015 73.5825L99.4377 101.28L103.486 67.97L54.5015 73.5825Z" fill="#FF6300"/>
<path d="M-4.12526 125.601L26.4842 78.6013L26.3477 78.4644L-12.6759 49.8085L31.1688 34.2486L31.0324 33.8379L-13.54 49.6716L25.9384 78.6925L-4.44363 125.372L-4.12526 125.601Z" fill="#FF6300"/>
</g>
</g>
<defs>
<clipPath id="clip0_3973_19427">
<rect width="736" height="130" fill="white" transform="translate(-1 0.0996094)"/>
</clipPath>
</defs>
</svg>
