<?xml version="1.0" encoding="UTF-8"?>
<svg xmlns="http://www.w3.org/2000/svg" width="143" height="45" viewBox="0 0 143 45" fill="none">
  <path fill-rule="evenodd" clip-rule="evenodd" d="M41.9128 34.2127L49.3184 21.9054L56.7563 9.65438L51.3167 1.26533e-05L43.8792 12.251L36.4735 24.5581L27.0924 24.519L28.41 18.8215L13.4023 26.6123L23.5743 39.4419L24.8229 34.1538L41.9128 34.2127Z" fill="white"></path>
  <path fill-rule="evenodd" clip-rule="evenodd" d="M0 10.7227L45.3362 9.87822L51.3183 0.000103375L19.57 0.583087L0 10.7227Z" fill="white"></path>
  <path fill-rule="evenodd" clip-rule="evenodd" d="M58.4367 10.7863L51.0312 23.0935L43.5938 35.3445L49.0338 45L56.4396 32.6926L63.8768 20.4419L73.2569 20.4814L71.9392 26.1765L87.0043 18.356L76.7744 5.55743L75.5274 10.8459L58.4367 10.7863Z" fill="white"></path>
  <path fill-rule="evenodd" clip-rule="evenodd" d="M100.353 34.2763L55.0163 35.1207L49.0352 45L80.7504 44.3607L100.353 34.2763Z" fill="white"></path>
</svg>
