<?xml version="1.0" encoding="UTF-8"?>
<svg xmlns="http://www.w3.org/2000/svg" width="24" height="24" viewBox="0 0 24 24" fill="none">
  <rect width="24" height="24" rx="4" fill="#FF6300"></rect>
  <g clip-path="url(#clip0_5255_423324)">
    <path d="M4 9.09829H4.11034C4.40276 9.09829 5.38207 9.07371 5.74621 9.07371C7.95779 9.07371 8.85048 10.3909 8.85048 11.9129C8.85048 13.5169 7.792 14.842 5.68276 14.842C5.39034 14.842 4.66372 14.8257 4.13462 14.8257H4V9.09829ZM5.264 10.3257V13.5986C5.43007 13.6151 5.54041 13.6151 5.72193 13.6151C6.81241 13.6151 7.50759 13.0014 7.50759 11.9129C7.50759 10.8571 6.75724 10.3009 5.73021 10.3009C5.59586 10.3009 5.42207 10.3009 5.264 10.3254V10.3257ZM12.0764 9C13.7592 9 15.0149 10.1371 15.0149 11.962C15.0149 13.6969 13.7586 14.9243 12.0761 14.9243C10.3934 14.9243 9.13738 13.7871 9.13738 11.962C9.13765 10.3009 10.3145 9 12.0764 9ZM12.0764 13.6966C13.1274 13.6966 13.672 12.9274 13.672 11.9617C13.672 10.9143 12.9691 10.2269 12.0767 10.2269C11.1603 10.2269 10.4808 10.9143 10.4808 11.9617C10.4808 12.944 11.192 13.6966 12.0767 13.6966H12.0764ZM20 12.4611C20 14.212 18.9255 14.924 17.7407 14.924C16.3189 14.924 15.3316 14.0811 15.3316 12.404V9.09829H16.5956V12.1257C16.5956 13.0177 16.8557 13.6971 17.7404 13.6971C18.5068 13.6971 18.7357 13.116 18.7357 12.1994V9.09829H20V12.4611Z" fill="#1C1E24"></path>
  </g>
  <defs>
    <clipPath id="clip0_5255_423324">
      <rect width="16" height="6" fill="white" transform="translate(4 9)"></rect>
    </clipPath>
  </defs>
</svg>
