<svg width="110" height="110" viewBox="0 0 110 110" fill="none" xmlns="http://www.w3.org/2000/svg">
<path d="M9.02319 16.7529H83.8803V71.9987H9.02319V16.7529Z" fill="#D0CECE"/>
<path d="M46.4517 36.5112L46.534 36.5893L83.8803 71.9987H9.02319L46.4517 36.5112Z" fill="#DADADA"/>
<path d="M46.4517 52.2403L46.3692 52.1622L9.02319 16.7534H83.8803L46.4517 52.2403Z" fill="#E8E8E9"/>
<path d="M79.867 95.3614C75.246 95.3614 70.7288 93.9911 66.8867 91.4238C63.0445 88.8565 60.0499 85.2076 58.2816 80.9383C56.5132 76.6691 56.0506 71.9714 56.9522 67.4392C57.8537 62.9071 60.079 58.744 63.3466 55.4766C66.6141 52.2091 70.7773 49.984 75.3094 49.0826C79.8416 48.1812 84.5393 48.644 88.8085 50.4125C93.0777 52.181 96.7265 55.1757 99.2937 59.018C101.861 62.8602 103.231 67.3775 103.231 71.9984C103.224 78.1926 100.76 84.131 96.3796 88.5109C91.9996 92.8907 86.0611 95.3544 79.867 95.3614Z" fill="#FA9090"/>
<path d="M89.2278 65.6297C90.054 64.8036 90.054 63.4642 89.2279 62.638C88.4018 61.8118 87.0624 61.8118 86.2362 62.6379L79.8671 69.0069L73.4982 62.638C72.6721 61.8118 71.3326 61.8119 70.5065 62.638C69.6804 63.4642 69.6804 64.8036 70.5066 65.6297L76.8755 71.9985L70.5065 78.3675C69.6804 79.1936 69.6804 80.5329 70.5065 81.3591C71.3326 82.1853 72.6721 82.1853 73.4982 81.3591L79.8671 74.9902L86.2362 81.3592C87.0624 82.1853 88.4018 82.1853 89.2279 81.3591C90.054 80.533 90.054 79.1936 89.2279 78.3675L82.8587 71.9985L89.2278 65.6297Z" fill="#BF0411"/>
</svg>
