<svg width="16" height="16" viewBox="0 0 16 16" fill="none" xmlns="http://www.w3.org/2000/svg">
<path d="M15.2 1.6C14.7579 1.6 14.4 1.95824 14.4 2.4V3.2028C12.9146 1.22648 10.5588 0 8.00001 0C4.23834 0 1.0297 2.55896 0.197696 6.22264C0.100016 6.65352 0.370335 7.0824 0.800815 7.18008C0.860975 7.19376 0.920335 7.2 0.978895 7.2C1.34378 7.2 1.67418 6.9484 1.75858 6.57736C2.42346 3.64688 4.99065 1.6 8.00001 1.6C10.3077 1.6 12.4013 2.8524 13.5315 4.8H12C11.5579 4.8 11.2 5.15824 11.2 5.6C11.2 6.04176 11.5579 6.4 12 6.4H15.2C15.6422 6.4 16 6.04176 16 5.6V2.4C16 1.95824 15.6422 1.6 15.2 1.6Z" fill="#FF6300"/>
<path d="M0.8 14.3998C1.24216 14.3998 1.6 14.0415 1.6 13.5998V12.7796C3.09344 14.7878 5.43056 15.9998 8 15.9998C11.7617 15.9998 14.9703 13.4408 15.8023 9.77711C15.9 9.34623 15.6297 8.91735 15.1992 8.81967C14.7641 8.71927 14.339 8.99151 14.2414 9.42239C13.5766 12.3529 11.0094 14.3998 8 14.3998C5.69152 14.3998 3.6176 13.1778 2.47352 11.1998H4C4.44216 11.1998 4.8 10.8415 4.8 10.3998C4.8 9.95799 4.44216 9.59975 4 9.59975H0.8C0.35784 9.59975 0 9.95799 0 10.3998V13.5998C0 14.0415 0.35784 14.3998 0.8 14.3998Z" fill="#FF6300"/>
</svg>
