<svg width="610" height="788" viewBox="0 0 610 788" fill="none" xmlns="http://www.w3.org/2000/svg">
<g opacity="0.3">
<path d="M135.333 531.682C92.6823 451.845 81.7549 343.393 135.333 261.017" stroke="#FF6300" stroke-width="3"/>
<path d="M172.537 495.854C141.145 437.092 133.102 357.269 172.537 296.638" stroke="#FF6300" stroke-width="3"/>
<path d="M217.957 480.06C191.53 430.592 184.759 363.394 217.957 312.353" stroke="#FF6300" stroke-width="3"/>
<path d="M253.557 461.182C233.08 422.851 227.833 370.781 253.557 331.23" stroke="#FF6300" stroke-width="3"/>
<path d="M404.855 117.202C495.321 120.184 594.707 164.946 639.258 252.534" stroke="#FF6300" stroke-width="3"/>
<path opacity="0.8" d="M417.281 167.335C483.866 169.53 557.017 202.477 589.808 266.943" stroke="#FF6300" stroke-width="3"/>
<path opacity="0.6" d="M408.25 214.566C464.303 216.414 525.884 244.15 553.488 298.42" stroke="#FF6300" stroke-width="3"/>
<path opacity="0.4" d="M406.797 254.837C450.231 256.269 497.948 277.76 519.338 319.812" stroke="#FF6300" stroke-width="3"/>
<path d="M635.047 553.731C584.453 628.786 493.725 689.199 395.853 680.403" stroke="#FF6300" stroke-width="3"/>
<path opacity="0.8" d="M585.972 537.62C548.734 592.862 481.956 637.328 409.919 630.854" stroke="#FF6300" stroke-width="3"/>
<path opacity="0.6" d="M550.759 504.873C519.41 551.378 463.194 588.811 402.551 583.361" stroke="#FF6300" stroke-width="3"/>
<path opacity="0.4" d="M517.414 482.246C493.123 518.282 449.563 547.287 402.572 543.064" stroke="#FF6300" stroke-width="3"/>
<rect opacity="0.8" x="316.514" y="342.153" width="6.09981" height="118.946" rx="3.0499" fill="url(#paint0_linear_1305_432599)"/>
<rect opacity="0.8" x="347.011" y="397.051" width="6.09981" height="64.048" rx="3.0499" fill="url(#paint1_linear_1305_432599)"/>
<rect opacity="0.8" x="377.512" y="357.402" width="6.09981" height="103.697" rx="3.0499" fill="url(#paint2_linear_1305_432599)"/>
<rect opacity="0.8" x="438.51" y="342.153" width="6.09981" height="118.946" rx="3.0499" fill="url(#paint3_linear_1305_432599)"/>
<rect opacity="0.8" x="469.009" y="397.051" width="6.09981" height="64.048" rx="3.0499" fill="url(#paint4_linear_1305_432599)"/>
<rect opacity="0.8" x="408.01" y="323.854" width="6.09981" height="137.246" rx="3.0499" fill="url(#paint5_linear_1305_432599)"/>
<path d="M63.25 319.377C63.25 315.681 66.2567 312.685 69.9656 312.685H156.309C160.018 312.685 163.024 315.681 163.024 319.377V372.916C163.024 376.612 160.018 379.608 156.309 379.608H69.9656C66.2567 379.608 63.25 376.612 63.25 372.916V319.377Z" fill="#1C1E24"/>
<g filter="url(#filter0_d_1305_432599)">
<path d="M93.429 359.565L104.799 347.845M111.872 346.495L116.929 348.733L117.623 349.04M124.252 346.999L132.934 331.788" stroke="white" stroke-linecap="round" stroke-linejoin="round"/>
</g>
<circle cx="90.9598" cy="362.034" r="3.82088" stroke="#FF6300" stroke-linecap="round" stroke-dasharray="1 1"/>
<circle cx="108.243" cy="345.367" r="3.82088" stroke="#FF6300" stroke-linecap="round" stroke-dasharray="1 1"/>
<circle cx="121.823" cy="350.305" r="3.82088" stroke="#FF6300" stroke-linecap="round" stroke-dasharray="1 1"/>
<circle cx="135.404" cy="328.701" r="3.82088" stroke="#FF6300" stroke-linecap="round" stroke-dasharray="1 1"/>
<path fill-rule="evenodd" clip-rule="evenodd" d="M156.309 314.358H69.9656C67.1839 314.358 64.9289 316.605 64.9289 319.377V372.916C64.9289 375.688 67.1839 377.935 69.9656 377.935H156.309C159.09 377.935 161.345 375.688 161.345 372.916V319.377C161.345 316.605 159.09 314.358 156.309 314.358ZM69.9656 312.685C66.2567 312.685 63.25 315.681 63.25 319.377V372.916C63.25 376.612 66.2567 379.608 69.9656 379.608H156.309C160.018 379.608 163.024 376.612 163.024 372.916V319.377C163.024 315.681 160.018 312.685 156.309 312.685H69.9656Z" fill="white"/>
<mask id="path-26-inside-1_1305_432599" fill="white">
<rect x="281.825" y="548.863" width="24.304" height="26.3131" rx="1" transform="rotate(-33.7445 281.825 548.863)"/>
</mask>
<rect x="281.825" y="548.863" width="24.304" height="26.3131" rx="1" transform="rotate(-33.7445 281.825 548.863)" stroke="#FF6300" stroke-width="4" stroke-dasharray="3 3" mask="url(#path-26-inside-1_1305_432599)"/>
<mask id="path-27-inside-2_1305_432599" fill="white">
<rect x="301.731" y="128.745" width="24.304" height="26.3131" rx="1" transform="rotate(-33.7445 301.731 128.745)"/>
</mask>
<rect x="301.731" y="128.745" width="24.304" height="26.3131" rx="1" transform="rotate(-33.7445 301.731 128.745)" stroke="#FF6300" stroke-width="4" stroke-dasharray="3 3" mask="url(#path-27-inside-2_1305_432599)"/>
<line x1="261.719" y1="175.477" x2="290.144" y2="220.705" stroke="#FF6300" stroke-width="2" stroke-dasharray="3 3"/>
<circle cx="554.913" cy="397.499" r="12.096" stroke="#FF6300" stroke-width="2" stroke-dasharray="3 3"/>
<circle cx="225.775" cy="583.032" r="6.85758" stroke="#FF6300" stroke-width="2" stroke-dasharray="3 3"/>
<circle cx="238.347" cy="247.776" r="6.85758" stroke="#FF6300" stroke-width="2" stroke-dasharray="3 3"/>
<path d="M452.547 174.665C452.547 171.68 454.976 169.26 457.972 169.26H527.714C530.71 169.26 533.138 171.68 533.138 174.665V217.91C533.138 220.896 530.71 223.316 527.714 223.316H457.972C454.976 223.316 452.547 220.896 452.547 217.91V174.665Z" fill="#1C1E24"/>
<path fill-rule="evenodd" clip-rule="evenodd" d="M527.714 170.611H457.972C455.725 170.611 453.903 172.426 453.903 174.665V217.91C453.903 220.149 455.725 221.965 457.972 221.965H527.714C529.961 221.965 531.782 220.149 531.782 217.91V174.665C531.782 172.426 529.961 170.611 527.714 170.611ZM457.972 169.26C454.976 169.26 452.547 171.68 452.547 174.665V217.91C452.547 220.896 454.976 223.316 457.972 223.316H527.714C530.71 223.316 533.138 220.896 533.138 217.91V174.665C533.138 171.68 530.71 169.26 527.714 169.26H457.972Z" fill="white"/>
<path d="M487.961 157.923C482.749 157.923 478.514 161.592 478.514 166.109C478.514 166.887 478.673 167.627 478.908 168.338C476.088 169.04 474.016 171.236 474.016 173.905C474.016 177.138 477.033 179.752 480.763 179.752H505.054C508.785 179.752 511.802 177.138 511.802 173.905C511.802 171.175 509.631 168.946 506.713 168.302C506.78 167.968 506.854 167.633 506.854 167.278C506.854 163.838 503.626 161.041 499.656 161.041C498.322 161.041 497.101 161.394 496.03 161.943C494.38 159.552 491.405 157.923 487.961 157.923ZM487.961 158.702C491.224 158.702 494.054 160.287 495.495 162.613C495.524 162.661 495.565 162.704 495.614 162.738C495.663 162.772 495.72 162.797 495.781 162.81C495.842 162.824 495.906 162.827 495.968 162.818C496.03 162.809 496.089 162.789 496.142 162.759C497.148 162.17 498.35 161.821 499.656 161.821C503.14 161.821 505.954 164.26 505.954 167.278C505.954 167.679 505.897 168.075 505.799 168.46C505.787 168.51 505.786 168.562 505.797 168.613C505.808 168.664 505.831 168.712 505.864 168.755C505.896 168.798 505.938 168.835 505.988 168.864C506.037 168.893 506.092 168.913 506.151 168.923C508.865 169.364 510.902 171.415 510.902 173.905C510.902 176.719 508.302 178.973 505.054 178.973H480.763C477.516 178.973 474.916 176.719 474.916 173.905C474.916 171.459 476.884 169.436 479.526 168.947C479.587 168.935 479.643 168.911 479.693 168.879C479.742 168.847 479.784 168.806 479.814 168.759C479.844 168.712 479.863 168.66 479.869 168.606C479.875 168.553 479.869 168.499 479.85 168.448C479.566 167.71 479.414 166.927 479.414 166.109C479.414 162.014 483.235 158.702 487.961 158.702Z" fill="#FF6300"/>
<path d="M454.329 562.922C454.329 560.02 456.69 557.667 459.603 557.667H527.414C530.327 557.667 532.688 560.02 532.688 562.922V604.97C532.688 607.873 530.327 610.226 527.414 610.226H459.603C456.69 610.226 454.329 607.873 454.329 604.97V562.922Z" fill="#1C1E24"/>
<path fill-rule="evenodd" clip-rule="evenodd" d="M527.414 558.98H459.603C457.418 558.98 455.647 560.745 455.647 562.922V604.97C455.647 607.147 457.418 608.912 459.603 608.912H527.414C529.599 608.912 531.37 607.147 531.37 604.97V562.922C531.37 560.745 529.599 558.98 527.414 558.98ZM459.603 557.667C456.69 557.667 454.329 560.02 454.329 562.922V604.97C454.329 607.873 456.69 610.226 459.603 610.226H527.414C530.327 610.226 532.688 607.873 532.688 604.97V562.922C532.688 560.02 530.327 557.667 527.414 557.667H459.603Z" fill="white"/>
<path d="M507.03 583.611C507.03 591.224 500.859 597.395 493.246 597.395C485.634 597.395 479.463 591.224 479.463 583.611C479.463 575.999 485.634 569.828 493.246 569.828C500.859 569.828 507.03 575.999 507.03 583.611Z" fill="#1C1E24"/>
<path fill-rule="evenodd" clip-rule="evenodd" d="M493.246 596.705C500.478 596.705 506.341 590.843 506.341 583.611C506.341 576.379 500.478 570.517 493.246 570.517C486.015 570.517 480.152 576.379 480.152 583.611C480.152 590.843 486.015 596.705 493.246 596.705ZM493.246 597.395C500.859 597.395 507.03 591.224 507.03 583.611C507.03 575.999 500.859 569.828 493.246 569.828C485.634 569.828 479.463 575.999 479.463 583.611C479.463 591.224 485.634 597.395 493.246 597.395Z" fill="#FF6300"/>
<path fill-rule="evenodd" clip-rule="evenodd" d="M487.06 587.974C485.455 589.218 484.468 591.015 484.468 593.26H483.779C483.779 590.79 484.874 588.796 486.637 587.429C488.393 586.068 490.798 585.334 493.427 585.334C498.692 585.334 503.076 588.641 503.076 593.605H502.387C502.387 589.139 498.44 586.024 493.427 586.024C490.919 586.024 488.671 586.724 487.06 587.974Z" fill="#FF6300"/>
<path fill-rule="evenodd" clip-rule="evenodd" d="M493.463 584.99C495.366 584.99 496.909 583.447 496.909 581.544C496.909 579.641 495.366 578.098 493.463 578.098C491.56 578.098 490.017 579.641 490.017 581.544C490.017 583.447 491.56 584.99 493.463 584.99ZM493.463 585.679C495.747 585.679 497.598 583.827 497.598 581.544C497.598 579.26 495.747 577.409 493.463 577.409C491.179 577.409 489.328 579.26 489.328 581.544C489.328 583.827 491.179 585.679 493.463 585.679Z" fill="#FF6300"/>
</g>
<defs>
<filter id="filter0_d_1305_432599" x="76.929" y="315.288" width="72.5054" height="60.7769" filterUnits="userSpaceOnUse" color-interpolation-filters="sRGB">
<feFlood flood-opacity="0" result="BackgroundImageFix"/>
<feColorMatrix in="SourceAlpha" type="matrix" values="0 0 0 0 0 0 0 0 0 0 0 0 0 0 0 0 0 0 127 0" result="hardAlpha"/>
<feOffset/>
<feGaussianBlur stdDeviation="8"/>
<feComposite in2="hardAlpha" operator="out"/>
<feColorMatrix type="matrix" values="0 0 0 0 1 0 0 0 0 0.388235 0 0 0 0 0 0 0 0 1 0"/>
<feBlend mode="normal" in2="BackgroundImageFix" result="effect1_dropShadow_1305_432599"/>
<feBlend mode="normal" in="SourceGraphic" in2="effect1_dropShadow_1305_432599" result="shape"/>
</filter>
<linearGradient id="paint0_linear_1305_432599" x1="319.564" y1="342.153" x2="319.564" y2="461.099" gradientUnits="userSpaceOnUse">
<stop stop-color="white"/>
<stop offset="1" stop-color="white" stop-opacity="0"/>
</linearGradient>
<linearGradient id="paint1_linear_1305_432599" x1="350.061" y1="397.051" x2="350.061" y2="461.099" gradientUnits="userSpaceOnUse">
<stop stop-color="#FF6300"/>
<stop offset="1" stop-color="#FF6300" stop-opacity="0"/>
</linearGradient>
<linearGradient id="paint2_linear_1305_432599" x1="380.562" y1="357.402" x2="380.562" y2="461.099" gradientUnits="userSpaceOnUse">
<stop stop-color="white"/>
<stop offset="1" stop-color="white" stop-opacity="0"/>
</linearGradient>
<linearGradient id="paint3_linear_1305_432599" x1="441.56" y1="342.153" x2="441.56" y2="461.099" gradientUnits="userSpaceOnUse">
<stop stop-color="white"/>
<stop offset="1" stop-color="white" stop-opacity="0"/>
</linearGradient>
<linearGradient id="paint4_linear_1305_432599" x1="472.059" y1="397.051" x2="472.059" y2="461.099" gradientUnits="userSpaceOnUse">
<stop stop-color="#FF6300"/>
<stop offset="1" stop-color="#FF6300" stop-opacity="0"/>
</linearGradient>
<linearGradient id="paint5_linear_1305_432599" x1="411.06" y1="323.854" x2="411.06" y2="461.099" gradientUnits="userSpaceOnUse">
<stop stop-color="#FF6300"/>
<stop offset="1" stop-color="#FF6300" stop-opacity="0"/>
</linearGradient>
</defs>
</svg>
