<svg width="17" height="16" viewBox="0 0 23 23" fill="none" xmlns="http://www.w3.org/2000/svg">
<path d="M1.94116 20.3511L1.44622 19.8561L0.951213 20.351L1.44615 20.846L1.94116 20.3511ZM20.1363 2.15838L20.6313 2.65339L21.8264 1.45838H20.1363V2.15838ZM2.64822 21.0583L2.15321 21.5532L2.64816 22.0482L3.14316 21.5533L2.64822 21.0583ZM20.8421 2.86678H21.5421V1.17699L20.3472 2.37177L20.8421 2.86678ZM20.8421 17.2677H20.1421V17.9677H20.8421V17.2677ZM22.0421 17.2677V17.9677H22.7421V17.2677H22.0421ZM22.0421 0.958384H22.7421V0.258383H22.0421V0.958384ZM5.7307 0.958384V0.258383H5.0307V0.958384H5.7307ZM5.7307 2.15838H5.0307V2.85839H5.7307V2.15838ZM2.4361 20.8461L20.6313 2.65339L19.6414 1.66338L1.44622 19.8561L2.4361 20.8461ZM3.14323 20.5633L2.43617 19.8562L1.44615 20.846L2.15321 21.5532L3.14323 20.5633ZM20.3472 2.37177L2.15328 20.5633L3.14316 21.5533L21.3371 3.36179L20.3472 2.37177ZM21.5421 17.2677L21.5421 2.86678H20.1421L20.1421 17.2677H21.5421ZM22.0421 16.5677H20.8421V17.9677H22.0421V16.5677ZM21.3421 1.55838L21.3421 17.2677H22.7421L22.7421 1.55838H21.3421ZM21.3421 0.958384V1.55838H22.7421V0.958384H21.3421ZM21.4421 1.65838H22.0421V0.258383H21.4421V1.65838ZM5.7307 1.65838L21.4421 1.65838V0.258383L5.7307 0.258383L5.7307 1.65838ZM6.4307 2.15838L6.4307 0.958384H5.0307L5.0307 2.15838H6.4307ZM20.1363 1.45838L5.7307 1.45838V2.85839L20.1363 2.85839V1.45838Z" fill="white"/>
</svg>
