<svg width="20" height="20" viewBox="0 0 20 20" fill="none" xmlns="http://www.w3.org/2000/svg">
<path d="M2.26575 1.55865L2.76076 1.06371L2.26581 0.568705L1.77081 1.06365L2.26575 1.55865ZM17.2674 16.5623L16.7724 17.0573L17.9674 18.2524V16.5623H17.2674ZM1.55859 2.26571L1.06365 1.77071L0.568644 2.26565L1.06359 2.76066L1.55859 2.26571ZM16.5593 17.2684V17.9684H18.249L17.0543 16.7734L16.5593 17.2684ZM4.77631 17.2684V16.5684H4.07631V17.2684H4.77631ZM4.77631 18.4684H4.07631V19.1684H4.77631V18.4684ZM18.4674 18.4684V19.1684H19.1674V18.4684H18.4674ZM18.4674 4.77552H19.1674V4.07552H18.4674V4.77552ZM17.2674 4.77552V4.07552H16.5674V4.77552H17.2674ZM1.77074 2.0536L16.7724 17.0573L17.7624 16.0674L2.76076 1.06371L1.77074 2.0536ZM2.05354 2.76072L2.76069 2.05366L1.77081 1.06365L1.06365 1.77071L2.05354 2.76072ZM17.0543 16.7734L2.0536 1.77077L1.06359 2.76066L16.0643 17.7633L17.0543 16.7734ZM4.77631 17.9684L16.5593 17.9684V16.5684L4.77631 16.5684V17.9684ZM5.47631 18.4684V17.2684H4.07631V18.4684H5.47631ZM17.8674 17.7684L4.77631 17.7684V19.1684L17.8674 19.1684V17.7684ZM18.4674 17.7684H17.8674V19.1684H18.4674V17.7684ZM17.7674 17.8684V18.4684H19.1674V17.8684H17.7674ZM17.7674 4.77552L17.7674 17.8684H19.1674L19.1674 4.77552H17.7674ZM17.2674 5.47552H18.4674V4.07552H17.2674V5.47552ZM17.9674 16.5623L17.9674 4.77552H16.5674L16.5674 16.5623H17.9674Z" fill="#FF6300"/>
</svg>
