<svg width="1200" height="280" viewBox="0 0 1200 280" fill="none" xmlns="http://www.w3.org/2000/svg">
<g clip-path="url(#clip0_2628_551957)">
<rect width="1200" height="280" fill="#F5F5F5"/>
<g opacity="0.5">
<path opacity="0.19" d="M8.36133 139.186C49.5061 71.3143 221.251 29.6893 337.808 106.06C448.009 178.21 526.08 234.519 650.959 162.658C751.105 105.019 1149.44 123.461 1199.94 151.385" stroke="url(#paint0_linear_2628_551957)" stroke-width="0.25" stroke-miterlimit="10"/>
<path opacity="0.2212" d="M5.53027 139.302C30.7257 90.9707 119.719 57.8442 207.44 67.3254C250.492 72.0082 294.873 85.1895 333.359 109.818C353.527 122.594 372.597 134.561 390.8 145.083C474.419 193.183 543.533 214.169 646.973 156.704C665.176 146.644 692.683 139.129 726.026 133.868C880.088 109.702 1160.01 123.288 1199.94 145.314" stroke="url(#paint1_linear_2628_551957)" stroke-width="0.2981" stroke-miterlimit="10"/>
<path opacity="0.2523" d="M2.69873 139.417C25.4093 88.369 116.887 55.8205 203.164 68.944C245.696 75.419 290.076 89.583 328.852 113.575C349.367 126.236 368.841 137.683 387.102 147.453C471.125 192.258 538.39 206.364 642.928 150.749C661.477 140.863 689.158 133.752 722.674 129.069C878.007 107.447 1161.63 118.085 1199.94 139.244" stroke="url(#paint2_linear_2628_551957)" stroke-width="0.3462" stroke-miterlimit="10"/>
<path opacity="0.2835" d="M-0.135742 139.533C20.1477 85.7096 114.11 53.8549 198.885 70.5049C240.954 78.7721 285.335 93.8611 324.342 117.275C345.261 129.821 365.082 140.805 383.458 149.766C468.001 191.16 533.359 198.675 638.937 144.678C657.834 135.024 685.687 128.317 719.377 124.155C875.924 105.25 1163.19 112.939 1199.88 133.231" stroke="url(#paint3_linear_2628_551957)" stroke-width="0.3942" stroke-miterlimit="10"/>
<path opacity="0.3146" d="M-3.02295 139.649C14.8334 83.108 111.281 51.8893 194.611 72.1237C236.16 82.183 280.599 98.1393 319.836 121.033C341.102 133.463 361.386 143.927 379.762 152.136C464.825 190.119 528.334 191.044 634.894 138.724C654.08 129.3 682.164 122.941 716.028 119.299C873.788 102.996 1164.75 107.736 1199.83 127.161" stroke="url(#paint4_linear_2628_551957)" stroke-width="0.4423" stroke-miterlimit="10"/>
<path opacity="0.3458" d="M-5.85449 139.765C9.5748 80.4489 108.565 49.9817 190.392 73.6848C231.421 85.5942 275.918 102.36 315.387 124.791C337.057 137.105 357.687 147.049 376.121 154.507C461.705 189.079 523.364 183.413 630.965 132.711C650.497 123.519 678.755 117.507 712.792 114.443C871.823 100.799 1166.42 102.591 1199.94 121.091" stroke="url(#paint5_linear_2628_551957)" stroke-width="0.4904" stroke-miterlimit="10"/>
<path opacity="0.3769" d="M-8.68604 139.88C4.31617 77.8471 105.791 48.0736 186.116 75.3033C226.683 89.0627 271.237 106.638 310.937 128.549C333.012 140.689 353.989 150.228 372.539 156.877C458.642 188.038 518.395 175.839 626.977 126.756C646.856 117.738 675.23 112.014 709.556 109.586C869.801 98.1971 1168.04 97.3877 1200 115.021" stroke="url(#paint6_linear_2628_551957)" stroke-width="0.5385" stroke-miterlimit="10"/>
<path opacity="0.4081" d="M-11.5171 139.995C-0.999748 75.2454 103.018 46.2235 181.84 76.922C221.887 92.5314 266.499 110.916 306.43 132.306C328.852 144.331 350.291 153.35 368.841 159.305C455.522 187.055 513.425 168.324 622.991 120.802C643.216 112.014 671.763 106.638 706.263 104.788C867.721 96.0001 1169.66 92.3001 1200 109.066" stroke="url(#paint7_linear_2628_551957)" stroke-width="0.5865" stroke-miterlimit="10"/>
<path opacity="0.4392" d="M-14.3486 140.053C-6.25837 72.5862 100.244 44.3737 177.564 78.4831C217.148 95.9424 261.818 115.136 301.923 136.007C324.749 147.916 346.535 156.414 365.143 161.617C452.402 185.899 508.398 160.692 618.946 114.732C639.518 106.175 668.239 101.146 702.911 99.8737C865.641 93.6877 1171.22 87.0393 1199.94 102.938" stroke="url(#paint8_linear_2628_551957)" stroke-width="0.6346" stroke-miterlimit="10"/>
<path opacity="0.4704" d="M-17.1802 140.169C-11.5748 69.9846 97.4704 42.5815 173.346 80.1018C212.41 99.469 257.138 119.414 297.473 139.822C320.704 151.558 342.894 159.594 361.56 164.046C449.339 184.916 503.544 153.235 615.016 108.835C635.935 100.51 664.829 95.8268 699.675 95.0752C863.618 91.4909 1172.84 81.9518 1200 96.9252" stroke="url(#paint9_linear_2628_551957)" stroke-width="0.6827" stroke-miterlimit="10"/>
<path opacity="0.5015" d="M-20.0703 140.285C-16.8342 67.3253 94.7536 40.7893 169.068 81.6628C207.671 102.88 252.456 123.635 292.965 143.522C316.6 155.142 339.137 162.658 357.861 166.358C446.218 183.76 498.516 145.603 610.97 102.764C632.236 94.6706 661.303 90.3346 696.322 90.1612C861.537 89.1784 1174.4 76.6909 1199.94 90.7971" stroke="url(#paint10_linear_2628_551957)" stroke-width="0.7308" stroke-miterlimit="10"/>
<path opacity="0.5327" d="M-22.9019 140.4C-22.1506 64.7237 91.9221 38.9971 164.792 83.2815C202.874 106.407 247.717 127.913 288.515 147.28C312.555 158.727 335.497 165.78 354.278 168.728C443.213 182.661 493.661 138.088 607.041 96.8096C628.653 88.9471 657.894 84.9581 693.086 85.305C859.572 86.9237 1176.07 71.5456 1200 84.7846" stroke="url(#paint11_linear_2628_551957)" stroke-width="0.7788" stroke-miterlimit="10"/>
<path opacity="0.5638" d="M-25.7321 140.516C-27.408 62.0643 89.1496 37.2627 160.517 84.8424C198.137 109.933 243.038 132.075 284.009 151.038C308.453 162.311 331.742 168.902 350.581 171.099C440.094 181.563 488.693 130.572 602.997 90.7971C624.956 83.1658 654.37 79.5237 689.736 80.4487C857.436 84.7268 1177.64 66.3424 1199.94 78.7143" stroke="url(#paint12_linear_2628_551957)" stroke-width="0.8269" stroke-miterlimit="10"/>
<path opacity="0.595" d="M-28.5647 140.631C-32.7254 59.4626 86.3171 35.5282 156.24 86.461C193.34 113.459 238.356 136.353 279.501 154.795C304.35 165.953 328.043 172.024 346.881 173.527C437.03 180.464 483.722 123.114 598.951 84.9001C621.257 77.5001 650.844 74.2626 686.383 75.7079C855.354 82.5876 1179.14 61.3126 1199.94 72.7595" stroke="url(#paint13_linear_2628_551957)" stroke-width="0.875" stroke-miterlimit="10"/>
<path opacity="0.6262" d="M-31.3971 140.747C-37.9849 56.8611 83.5424 33.8517 152.021 88.022C188.6 116.928 233.732 140.516 275.051 158.495C300.304 169.48 324.343 175.088 343.298 175.839C434.024 179.308 478.81 115.599 595.02 78.8298C617.731 71.6611 647.376 68.7704 683.147 70.7361C853.331 80.2751 1180.76 56.0517 1199.94 66.6314" stroke="url(#paint14_linear_2628_551957)" stroke-width="0.9231" stroke-miterlimit="10"/>
<path opacity="0.6573" d="M-34.2268 140.863C-43.2995 54.2019 80.6549 32.1754 147.746 89.641C183.748 120.513 229.053 144.794 270.545 162.254C296.203 173.064 320.647 178.614 339.601 178.21C430.848 176.302 473.842 108.141 590.977 72.8754C614.034 65.9379 643.853 63.3941 679.797 65.9379C851.253 78.0785 1182.38 50.9066 1199.94 60.5613" stroke="url(#paint15_linear_2628_551957)" stroke-width="0.9712" stroke-miterlimit="10"/>
<path opacity="0.6885" d="M-37.1169 140.978C-48.5589 51.6003 77.8226 30.4987 143.469 91.2019C178.951 124.039 224.314 148.957 266.037 166.011C292.099 176.649 316.89 181.332 335.902 180.58C427.784 176.996 468.871 100.625 586.931 66.8628C610.335 60.1566 640.327 57.9597 676.444 61.0237C849.229 75.8237 1183.99 45.7034 1199.94 54.4909" stroke="url(#paint16_linear_2628_551957)" stroke-width="1.0192" stroke-miterlimit="10"/>
<path opacity="0.7196" d="M-39.9472 141.094C-53.8162 48.9411 74.9345 28.8223 139.194 92.8208C174.098 127.624 219.635 153.177 261.588 169.769C288.055 180.233 313.251 184.454 332.32 182.95C424.723 175.782 464.018 93.2255 583.003 60.9083C606.754 54.4333 636.919 52.5833 673.209 56.2255C847.15 73.6848 1185.55 40.5583 1199.94 48.4786" stroke="url(#paint17_linear_2628_551957)" stroke-width="1.0673" stroke-miterlimit="10"/>
<path opacity="0.7508" d="M-42.7814 141.21C-59.1353 46.3393 72.0426 27.1455 134.915 94.4393C169.299 131.208 214.951 157.397 257.078 173.527C283.95 183.817 309.492 187.517 328.62 185.321C421.658 174.625 459.104 85.7674 579.013 54.8955C603.111 48.7096 633.449 47.1487 669.913 51.369C845.125 71.4877 1187.17 35.3549 1199.94 42.408" stroke="url(#paint18_linear_2628_551957)" stroke-width="1.1154" stroke-miterlimit="10"/>
<path opacity="0.7819" d="M-45.6136 141.267C-64.3945 43.6798 69.1526 25.4689 130.696 96.0002C164.502 134.735 210.328 161.56 252.628 177.227C279.904 187.344 305.851 190.581 324.978 187.691C418.594 173.411 454.191 78.3095 575.025 48.9408C599.469 42.9861 629.981 41.772 666.619 46.5127C843.044 69.2908 1188.79 30.2095 1199.94 36.3377" stroke="url(#paint19_linear_2628_551957)" stroke-width="1.1635" stroke-miterlimit="10"/>
<path opacity="0.8131" d="M-48.4422 141.383C-69.7081 41.0783 66.2084 23.8502 126.423 97.619C159.651 138.319 205.65 165.78 248.124 181.042C275.804 190.986 302.097 193.761 321.341 190.119C415.477 172.197 449.224 70.9096 570.983 42.9283C595.774 37.2049 626.459 36.4533 663.27 41.6564C840.909 67.383 1190.35 25.0064 1199.94 30.3252" stroke="url(#paint20_linear_2628_551957)" stroke-width="1.2115" stroke-miterlimit="10"/>
<path opacity="0.8442" d="M-51.2747 141.499C-74.9676 38.4769 63.2603 22.1738 122.146 99.1801C154.738 141.846 200.968 169.943 243.615 184.743C271.758 194.513 298.398 196.768 317.641 192.432C412.355 170.925 444.312 63.5097 566.995 36.916C592.132 31.4816 622.933 31.0191 659.975 36.7426C838.828 65.1285 1191.97 19.7457 1199.94 24.1972" stroke="url(#paint21_linear_2628_551957)" stroke-width="1.2596" stroke-miterlimit="10"/>
<path opacity="0.8754" d="M-54.1643 141.614C-80.2843 35.8174 60.2551 20.4971 117.869 100.799C149.884 145.43 196.287 174.105 239.166 188.5C267.713 198.097 294.699 199.889 314.058 194.802C409.292 169.711 439.457 56.1096 563.065 30.9612C588.549 25.7581 619.523 25.6424 656.739 31.944C836.863 62.9315 1193.59 14.6581 1200 18.1846" stroke="url(#paint22_linear_2628_551957)" stroke-width="1.3077" stroke-miterlimit="10"/>
<path opacity="0.9065" d="M-56.9975 141.73C-85.5446 33.2158 57.3064 18.8783 113.591 102.36C144.97 148.956 191.605 178.267 234.656 192.258C263.608 201.624 290.942 203.011 310.358 197.172C406.112 168.497 434.486 48.7095 559.018 24.9486C584.907 20.0345 615.997 20.2079 653.385 27.0876C834.723 60.7345 1195.14 9.45482 1199.94 12.1142" stroke="url(#paint23_linear_2628_551957)" stroke-width="1.3558" stroke-miterlimit="10"/>
<path opacity="0.9377" d="M-59.827 141.845C-90.8589 30.5564 54.3035 17.2017 109.375 103.978C140.176 152.541 186.984 182.488 230.209 196.016C259.565 205.208 287.303 206.075 306.72 199.542C402.994 167.225 429.576 41.3673 555.033 18.9939C581.269 14.311 612.532 14.8314 650.094 22.2314C832.702 58.4798 1196.76 4.30947 1199.94 6.04385" stroke="url(#paint24_linear_2628_551957)" stroke-width="1.4038" stroke-miterlimit="10"/>
<path opacity="0.9688" d="M-62.6582 141.961C-96.1172 27.9548 51.1256 15.6408 105.099 105.539C135.149 156.125 182.303 186.535 225.702 199.716C255.463 208.677 283.547 209.081 303.079 201.855C399.816 165.838 424.665 34.083 550.988 12.9814C577.571 8.58765 609.007 9.39703 646.742 17.3752C830.565 56.2252 1198.33 -0.893602 1199.89 0.0313986" stroke="url(#paint25_linear_2628_551957)" stroke-width="1.4519" stroke-miterlimit="10"/>
<path d="M-65.4913 142.077C-101.435 25.2956 48.2925 13.8487 100.821 107.158C150.808 195.958 251.531 223.708 299.38 204.283C417.266 156.357 426.108 -36.2169 643.447 12.519C828.541 54.0284 1199.88 -6.03882 1199.88 -6.03882" stroke="url(#paint26_linear_2628_551957)" stroke-width="1.5" stroke-miterlimit="10"/>
</g>
<rect width="1200" height="278" fill="url(#paint27_linear_2628_551957)"/>
</g>
<defs>
<linearGradient id="paint0_linear_2628_551957" x1="1199.98" y1="130.513" x2="8.29953" y2="130.513" gradientUnits="userSpaceOnUse">
<stop stop-color="#FFA978"/>
<stop offset="1" stop-color="#FF7A00"/>
</linearGradient>
<linearGradient id="paint1_linear_2628_551957" x1="1199.98" y1="128.464" x2="5.41941" y2="128.464" gradientUnits="userSpaceOnUse">
<stop stop-color="#FFA978"/>
<stop offset="1" stop-color="#FF7A00"/>
</linearGradient>
<linearGradient id="paint2_linear_2628_551957" x1="1199.98" y1="126.361" x2="2.53743" y2="126.361" gradientUnits="userSpaceOnUse">
<stop stop-color="#FFA978"/>
<stop offset="1" stop-color="#FF7A00"/>
</linearGradient>
<linearGradient id="paint3_linear_2628_551957" x1="1199.98" y1="124.652" x2="-0.200196" y2="124.652" gradientUnits="userSpaceOnUse">
<stop stop-color="#FFA978"/>
<stop offset="1" stop-color="#FF7A00"/>
</linearGradient>
<linearGradient id="paint4_linear_2628_551957" x1="1199.98" y1="122.734" x2="-3.0753" y2="122.734" gradientUnits="userSpaceOnUse">
<stop stop-color="#FFA978"/>
<stop offset="1" stop-color="#FF7A00"/>
</linearGradient>
<linearGradient id="paint5_linear_2628_551957" x1="1199.99" y1="120.973" x2="-5.95534" y2="120.973" gradientUnits="userSpaceOnUse">
<stop stop-color="#FF7A00"/>
<stop offset="1" stop-color="#FFA978"/>
</linearGradient>
<linearGradient id="paint6_linear_2628_551957" x1="1200" y1="119.412" x2="-8.84059" y2="119.412" gradientUnits="userSpaceOnUse">
<stop stop-color="#FF7A00"/>
<stop offset="1" stop-color="#FFA978"/>
</linearGradient>
<linearGradient id="paint7_linear_2628_551957" x1="1199.96" y1="118.614" x2="-11.5208" y2="118.614" gradientUnits="userSpaceOnUse">
<stop stop-color="#FF7A00"/>
<stop offset="1" stop-color="#FFA978"/>
</linearGradient>
<linearGradient id="paint8_linear_2628_551957" x1="1199.97" y1="117.608" x2="-14.3991" y2="117.608" gradientUnits="userSpaceOnUse">
<stop stop-color="#FF7A00"/>
<stop offset="1" stop-color="#FFA978"/>
</linearGradient>
<linearGradient id="paint9_linear_2628_551957" x1="1199.98" y1="116.84" x2="-17.291" y2="116.84" gradientUnits="userSpaceOnUse">
<stop stop-color="#FF7A00"/>
<stop offset="1" stop-color="#FFA978"/>
</linearGradient>
<linearGradient id="paint10_linear_2628_551957" x1="1200.01" y1="116.243" x2="-20.2134" y2="116.243" gradientUnits="userSpaceOnUse">
<stop stop-color="#FF7A00"/>
<stop offset="1" stop-color="#FFA978"/>
</linearGradient>
<linearGradient id="paint11_linear_2628_551957" x1="1199.84" y1="117.165" x2="-22.6792" y2="117.165" gradientUnits="userSpaceOnUse">
<stop stop-color="#FF7A00"/>
<stop offset="1" stop-color="#FFA978"/>
</linearGradient>
<linearGradient id="paint12_linear_2628_551957" x1="1199.95" y1="116.586" x2="-25.7671" y2="116.586" gradientUnits="userSpaceOnUse">
<stop stop-color="#FF7A00"/>
<stop offset="1" stop-color="#FFA978"/>
</linearGradient>
<linearGradient id="paint13_linear_2628_551957" x1="710.199" y1="2382.09" x2="710.199" y2="2382.09" gradientUnits="userSpaceOnUse">
<stop stop-color="#FF7A00"/>
<stop offset="1" stop-color="#FFA978"/>
</linearGradient>
<linearGradient id="paint14_linear_2628_551957" x1="-31.6914" y1="117.366" x2="1199.95" y2="117.366" gradientUnits="userSpaceOnUse">
<stop stop-color="#FF7A00"/>
<stop offset="1" stop-color="#FFA978"/>
</linearGradient>
<linearGradient id="paint15_linear_2628_551957" x1="-34.5666" y1="118.643" x2="1199.79" y2="118.643" gradientUnits="userSpaceOnUse">
<stop stop-color="#FF7A00"/>
<stop offset="1" stop-color="#FFA978"/>
</linearGradient>
<linearGradient id="paint16_linear_2628_551957" x1="-37.9758" y1="116.47" x2="1200.06" y2="116.47" gradientUnits="userSpaceOnUse">
<stop stop-color="#FF7A00"/>
<stop offset="1" stop-color="#FFA978"/>
</linearGradient>
<linearGradient id="paint17_linear_2628_551957" x1="-41.0869" y1="115.167" x2="1200.01" y2="115.167" gradientUnits="userSpaceOnUse">
<stop stop-color="#FF7A00"/>
<stop offset="1" stop-color="#FFA978"/>
</linearGradient>
<linearGradient id="paint18_linear_2628_551957" x1="-44.2805" y1="113.785" x2="1199.97" y2="113.785" gradientUnits="userSpaceOnUse">
<stop stop-color="#FF7A00"/>
<stop offset="1" stop-color="#FFA978"/>
</linearGradient>
<linearGradient id="paint19_linear_2628_551957" x1="-47.5311" y1="112.371" x2="1199.95" y2="112.371" gradientUnits="userSpaceOnUse">
<stop stop-color="#FF7A00"/>
<stop offset="1" stop-color="#FFA978"/>
</linearGradient>
<linearGradient id="paint20_linear_2628_551957" x1="-50.9114" y1="110.57" x2="1200.09" y2="110.57" gradientUnits="userSpaceOnUse">
<stop stop-color="#FF7A00"/>
<stop offset="1" stop-color="#FFA978"/>
</linearGradient>
<linearGradient id="paint21_linear_2628_551957" x1="-54.2371" y1="109.193" x2="1200.07" y2="109.193" gradientUnits="userSpaceOnUse">
<stop stop-color="#FF7A00"/>
<stop offset="1" stop-color="#FFA978"/>
</linearGradient>
<linearGradient id="paint22_linear_2628_551957" x1="-57.6044" y1="107.807" x2="1200.06" y2="107.807" gradientUnits="userSpaceOnUse">
<stop stop-color="#FF7A00"/>
<stop offset="1" stop-color="#FFA978"/>
</linearGradient>
<linearGradient id="paint23_linear_2628_551957" x1="-61.0107" y1="106.416" x2="1200.05" y2="106.416" gradientUnits="userSpaceOnUse">
<stop stop-color="#FF7A00"/>
<stop offset="1" stop-color="#FFA978"/>
</linearGradient>
<linearGradient id="paint24_linear_2628_551957" x1="-64.4819" y1="104.801" x2="1200.16" y2="104.801" gradientUnits="userSpaceOnUse">
<stop stop-color="#FF7A00"/>
<stop offset="1" stop-color="#FFA978"/>
</linearGradient>
<linearGradient id="paint25_linear_2628_551957" x1="-67.9491" y1="103.423" x2="1200.16" y2="103.423" gradientUnits="userSpaceOnUse">
<stop stop-color="#FF7A00"/>
<stop offset="1" stop-color="#FFA978"/>
</linearGradient>
<linearGradient id="paint26_linear_2628_551957" x1="-71.4398" y1="102.07" x2="1200.01" y2="102.07" gradientUnits="userSpaceOnUse">
<stop stop-color="#FF7A00"/>
<stop offset="1" stop-color="#FFA978"/>
</linearGradient>
<linearGradient id="paint27_linear_2628_551957" x1="0" y1="139" x2="1160.15" y2="139" gradientUnits="userSpaceOnUse">
<stop offset="0.333558" stop-color="#F5F5F5"/>
<stop offset="0.494159" stop-color="#F5F5F5" stop-opacity="0"/>
</linearGradient>
<clipPath id="clip0_2628_551957">
<rect width="1200" height="280" fill="white"/>
</clipPath>
</defs>
</svg>
