<?xml version="1.0" encoding="UTF-8"?>
<svg xmlns="http://www.w3.org/2000/svg" width="80" height="46" viewBox="0 0 80 46" fill="none">
  <g clip-path="url(#clip0_4683_390)">
    <path d="M26.7935 32.8944C26.7935 28.2049 30.1985 24.7686 34.8087 24.7686C38.4948 24.7686 41.4479 27.083 42.2714 30.6103H39.68C38.9368 28.5182 37.1188 27.2548 34.8087 27.2548C31.685 27.2548 29.3949 29.6198 29.3949 32.8944C29.3949 36.169 31.685 38.5138 34.8087 38.5138C37.1891 38.5138 39.0272 37.1594 39.7302 34.936H42.3217C41.508 38.6249 38.5551 41 34.7986 41C30.1985 41 26.7935 37.5738 26.7935 32.8944Z" fill="white"></path>
    <path d="M45.9147 25.0415H48.4761V40.7272H45.9147V25.0415Z" fill="white"></path>
    <path d="M63.5985 27.4471H59.0286V40.7273H56.4672V27.4471H51.8973V25.0518H63.5985V27.4471Z" fill="white"></path>
    <path d="M73.6932 34.4408V40.7272H71.0615V34.4307L65.4672 25.0415H68.229L72.3874 32.0556L76.5659 25.0415H79.328L73.6932 34.4408Z" fill="white"></path>
    <path d="M5.73549 26.4766H3.56597V30.6507H2.27029V26.4766H0.100769V25.2739H5.73549V26.4766Z" fill="white"></path>
    <path d="M14.042 30.6612H12.7564V28.4074H9.29122V30.6612H7.99554V25.2844H9.29122V27.2351H12.7564V25.2844H14.0521V30.6612H14.042Z" fill="white"></path>
    <path d="M22.4692 26.3857H18.1403V27.3357H21.9469V28.4576H18.1403V29.4278H22.5898V30.6507H16.8446V25.2739H22.4793V26.3857H22.4692Z" fill="white"></path>
    <path d="M2.54115 7.68851V12.0951H8.3466V14.4398H2.54115V20.8576H0V5.29321H8.91912V7.68851H2.54115Z" fill="white"></path>
    <path d="M18.2503 21.1506C13.5497 21.1506 10.0945 17.684 10.0945 13.0753C10.0945 8.46662 13.5597 5 18.2503 5C22.9409 5 26.396 8.45651 26.396 13.0753C26.4061 17.6941 22.951 21.1506 18.2503 21.1506ZM23.8248 13.0753C23.8248 9.86135 21.4443 7.45594 18.2604 7.45594C15.0663 7.45594 12.6859 9.88156 12.6859 13.0753C12.6859 16.269 15.0764 18.6946 18.2604 18.6946C21.4443 18.6946 23.8248 16.2892 23.8248 13.0753Z" fill="white"></path>
    <path d="M27.9324 15.9557H30.5037C30.5037 17.6941 31.9299 18.6542 33.7379 18.6542C35.3851 18.6542 36.7913 17.7851 36.7913 16.3499C36.7913 14.8036 35.134 14.4094 33.2658 13.9647C30.8954 13.3886 28.1835 12.7317 28.1835 9.51774C28.1835 6.70804 30.3028 5.05054 33.5973 5.05054C36.952 5.05054 38.9407 6.88996 38.9407 9.82092H36.4297C36.4297 8.26448 35.1541 7.42562 33.537 7.42562C32.0003 7.42562 30.7247 8.1331 30.7247 9.40655C30.7247 10.8417 32.3116 11.2359 34.1497 11.6806C36.5502 12.2769 39.3826 12.9742 39.3826 16.3196C39.3826 19.4324 36.8817 21.0899 33.758 21.0899C30.2928 21.1 27.9324 19.1394 27.9324 15.9557Z" fill="white"></path>
    <path d="M52.9601 7.67841H48.42V20.8576H45.889V7.67841H41.3489V5.29321H52.9601V7.67841Z" fill="white"></path>
    <path d="M64.5427 18.4421V20.8576H55.3226V5.29321H64.3017V7.68851H57.8536V11.7514H63.7192V14.0962H57.8536V18.4421H64.5427Z" fill="white"></path>
    <path d="M73.3815 15.0968H70.4487V20.8576H67.9075V5.29321H73.924C76.9071 5.29321 79.1166 7.34488 79.1166 10.2152C79.1166 12.3376 77.8611 14.0254 75.9727 14.7329L79.5486 20.8475H76.696L73.3815 15.0968ZM70.4385 12.7015H73.773C75.4507 12.7015 76.5352 11.6503 76.5352 10.195C76.5352 8.74972 75.4507 7.68851 73.773 7.68851H70.4385V12.7015Z" fill="white"></path>
  </g>
  <defs>
    <clipPath id="clip0_4683_390">
      <rect width="79.7727" height="36" fill="white" transform="translate(0 5)"></rect>
    </clipPath>
  </defs>
</svg>
