<?xml version="1.0" encoding="UTF-8"?>
<svg xmlns="http://www.w3.org/2000/svg" width="113" height="64" viewBox="0 0 113 64" fill="none">
  <g clip-path="url(#clip0_4683_389)">
    <g clip-path="url(#clip1_4683_389)">
      <path d="M38.098 45.7662C38.098 39.2417 42.8353 34.4607 49.2495 34.4607C54.378 34.4607 58.4866 37.6808 59.6323 42.5883H56.027C54.9929 39.6775 52.4636 37.9199 49.2495 37.9199C44.9035 37.9199 41.7173 41.2103 41.7173 45.7662C41.7173 50.3222 44.9035 53.5845 49.2495 53.5845C52.5614 53.5845 55.1187 51.7002 56.0969 48.6067H59.7023C58.5703 53.7391 54.4619 57.0436 49.2355 57.0436C42.8353 57.0436 38.098 52.2767 38.098 45.7662Z" fill="#8D8E91"></path>
      <path d="M64.7014 34.8403H68.2649V56.6639H64.7014V34.8403Z" fill="#8D8E91"></path>
      <path d="M89.3049 38.1873H82.9467V56.6642H79.3831V38.1873H73.0249V34.8547H89.3049V38.1873Z" fill="#8D8E91"></path>
      <path d="M103.35 47.9176V56.6639H99.6882V47.9035L91.9048 34.8403H95.7473L101.533 44.5991L107.346 34.8403H111.189L103.35 47.9176Z" fill="#8D8E91"></path>
      <path d="M8.79982 36.8371H5.78135V42.6446H3.97866V36.8371H0.960205V35.1638H8.79982V36.8371Z" fill="#8D8E91"></path>
      <path d="M20.3567 42.6592H18.568V39.5235H13.7469V42.6592H11.9442V35.1785H13.7469V37.8924H18.568V35.1785H20.3707V42.6592H20.3567Z" fill="#8D8E91"></path>
      <path d="M32.0816 36.7106H26.0587V38.0324H31.3549V39.5932H26.0587V40.9431H32.2493V42.6445H24.256V35.1638H32.0956V36.7106H32.0816Z" fill="#8D8E91"></path>
      <path d="M4.35551 10.6971V16.828H12.4327V20.0902H4.35551V29.0193H0.820007V7.3645H13.2292V10.6971H4.35551Z" fill="#8D8E91"></path>
      <path d="M26.2118 29.4269C19.6718 29.4269 14.8646 24.6038 14.8646 18.1917C14.8646 11.7797 19.6857 6.95654 26.2118 6.95654C32.7378 6.95654 37.5449 11.7656 37.5449 18.1917C37.5589 24.6179 32.7518 29.4269 26.2118 29.4269ZM33.9675 18.1917C33.9675 13.7202 30.6556 10.3735 26.2257 10.3735C21.7819 10.3735 18.47 13.7483 18.47 18.1917C18.47 22.6352 21.7959 26.01 26.2257 26.01C30.6556 26.01 33.9675 22.6633 33.9675 18.1917Z" fill="#8D8E91"></path>
      <path d="M39.6825 22.1993H43.2599C43.2599 24.6179 45.2443 25.9537 47.7596 25.9537C50.0515 25.9537 52.0078 24.7444 52.0078 22.7477C52.0078 20.5963 49.7021 20.0479 47.1029 19.4291C43.8049 18.6276 40.0319 17.7137 40.0319 13.2421C40.0319 9.33295 42.9804 7.02686 47.564 7.02686C52.2314 7.02686 54.9983 9.58606 54.9983 13.6639H51.5048C51.5048 11.4984 49.7301 10.3313 47.4802 10.3313C45.3421 10.3313 43.5674 11.3156 43.5674 13.0874C43.5674 15.0842 45.7753 15.6325 48.3326 16.2512C51.6725 17.0809 55.6132 18.0511 55.6132 22.7055C55.6132 27.0364 52.1336 29.3425 47.7876 29.3425C42.9664 29.3566 39.6825 26.6287 39.6825 22.1993Z" fill="#8D8E91"></path>
      <path d="M74.5036 10.683H68.187V29.0193H64.6655V10.683H58.3489V7.3645H74.5036V10.683Z" fill="#8D8E91"></path>
      <path d="M90.6185 25.6586V29.0193H77.7906V7.3645H90.2833V10.6971H81.312V16.3499H89.4728V19.6121H81.312V25.6586H90.6185Z" fill="#8D8E91"></path>
      <path d="M102.916 21.0042H98.8356V29.0193H95.2999V7.3645H103.671C107.821 7.3645 110.895 10.219 110.895 14.2125C110.895 17.1654 109.148 19.5137 106.521 20.498L111.496 29.0052H107.527L102.916 21.0042ZM98.8214 17.6716H103.461C105.795 17.6716 107.304 16.2092 107.304 14.1843C107.304 12.1736 105.795 10.6971 103.461 10.6971H98.8214V17.6716Z" fill="#8D8E91"></path>
    </g>
  </g>
  <defs>
    <clipPath id="clip0_4683_389">
      <rect width="111.36" height="64" fill="white" transform="translate(0.820007)"></rect>
    </clipPath>
    <clipPath id="clip1_4683_389">
      <rect width="110.988" height="50.087" fill="white" transform="translate(0.820007 6.95654)"></rect>
    </clipPath>
  </defs>
</svg>
