<?xml version="1.0" encoding="UTF-8"?>
<svg xmlns="http://www.w3.org/2000/svg" width="50" height="50" viewBox="0 0 50 50" fill="none">
  <path fill-rule="evenodd" clip-rule="evenodd" d="M25 29.6875C32.7665 29.6875 39.0625 23.3915 39.0625 15.625C39.0625 7.8585 32.7665 1.5625 25 1.5625C17.2335 1.5625 10.9375 7.8585 10.9375 15.625C10.9375 23.3915 17.2335 29.6875 25 29.6875ZM25 31.25C33.6294 31.25 40.625 24.2544 40.625 15.625C40.625 6.99555 33.6294 0 25 0C16.3706 0 9.375 6.99555 9.375 15.625C9.375 24.2544 16.3706 31.25 25 31.25Z" fill="#494B50"></path>
  <path fill-rule="evenodd" clip-rule="evenodd" d="M24.2188 32.8516V31.25H25.7812V32.8516H24.2188ZM24.2188 36.0547V34.4531H25.7812V36.0547H24.2188ZM24.2188 39.2578V37.6562H25.7812V39.2578H24.2188ZM24.2188 40.8594H25.7812V40.8789H25.791V42.4414H24.2188V40.8594ZM28.9551 42.4414H27.373V40.8789H28.9551V42.4414ZM32.1191 42.4414H30.5371V40.8789H32.1191V42.4414Z" fill="#494B50"></path>
  <path fill-rule="evenodd" clip-rule="evenodd" d="M21.1328 42.4414H22.7148V40.8789H21.1328V42.4414ZM17.9688 42.4414H19.5508V40.8789H17.9688V42.4414Z" fill="#494B50"></path>
  <path fill-rule="evenodd" clip-rule="evenodd" d="M35.1254 16.4226C35.1458 16.1594 35.1562 15.8934 35.1562 15.625C35.1562 15.3566 35.1458 15.0906 35.1254 14.8274L33.5676 14.9484C33.5849 15.1714 33.5938 15.397 33.5938 15.625C33.5938 15.853 33.5849 16.0786 33.5676 16.3016L35.1254 16.4226ZM34.8778 17.997L33.3582 17.6334C33.2526 18.0745 33.113 18.5024 32.9423 18.9142L34.3856 19.5127C34.5876 19.0254 34.7529 18.519 34.8778 17.997ZM33.6609 20.9322L32.3294 20.1146C32.0933 20.4992 31.8276 20.864 31.5354 21.2057L32.7231 22.221C33.068 21.8176 33.3818 21.3867 33.6609 20.9322ZM31.596 23.3481L30.5807 22.1604C30.239 22.4526 29.8742 22.7183 29.4896 22.9544L30.3072 24.2859C30.7617 24.0068 31.1926 23.693 31.596 23.3481ZM28.8877 25.0106L28.2892 23.5673C27.8774 23.738 27.4495 23.8776 27.0084 23.9832L27.372 25.5028C27.894 25.3779 28.4004 25.2126 28.8877 25.0106ZM25.7976 25.7504L25.6766 24.1926C25.4536 24.2099 25.228 24.2188 25 24.2188C24.772 24.2188 24.5464 24.2099 24.3234 24.1926L24.2024 25.7504C24.4656 25.7708 24.7316 25.7812 25 25.7812C25.2684 25.7812 25.5344 25.7708 25.7976 25.7504ZM22.628 25.5028L22.9916 23.9832C22.5505 23.8776 22.1226 23.738 21.7108 23.5673L21.1123 25.0106C21.5996 25.2126 22.106 25.3779 22.628 25.5028ZM19.6928 24.2859L20.5104 22.9544C20.1258 22.7183 19.761 22.4526 19.4193 22.1604L18.404 23.3481C18.8074 23.693 19.2383 24.0068 19.6928 24.2859ZM17.2769 22.221L18.4646 21.2057C18.1724 20.864 17.9067 20.4992 17.6706 20.1146L16.3391 20.9322C16.6182 21.3867 16.932 21.8176 17.2769 22.221ZM15.6144 19.5127L17.0577 18.9142C16.887 18.5024 16.7474 18.0745 16.6418 17.6334L15.1222 17.997C15.2471 18.519 15.4124 19.0254 15.6144 19.5127ZM14.8746 16.4226C14.8542 16.1594 14.8438 15.8934 14.8438 15.625C14.8438 15.3566 14.8542 15.0906 14.8746 14.8274L16.4324 14.9484C16.4151 15.1714 16.4062 15.397 16.4062 15.625C16.4062 15.853 16.4151 16.0786 16.4324 16.3016L14.8746 16.4226ZM15.1222 13.253L16.6418 13.6166C16.7474 13.1755 16.887 12.7476 17.0577 12.3358L15.6144 11.7373C15.4124 12.2246 15.2471 12.731 15.1222 13.253ZM16.3391 10.3178L17.6706 11.1354C17.9067 10.7508 18.1724 10.386 18.4646 10.0443L17.2769 9.02897C16.932 9.43245 16.6182 9.86327 16.3391 10.3178ZM18.404 7.90194L19.4193 9.0896C19.761 8.79744 20.1258 8.53172 20.5104 8.29555L19.6928 6.96406C19.2383 7.24315 18.8074 7.55701 18.404 7.90194ZM21.1123 6.23941L21.7108 7.68273C22.1226 7.51198 22.5505 7.37238 22.9916 7.26684L22.628 5.74722C22.106 5.87213 21.5996 6.03735 21.1123 6.23941ZM24.2024 5.49961L24.3234 7.05742C24.5464 7.0401 24.772 7.03125 25 7.03125C25.228 7.03125 25.4536 7.0401 25.6766 7.05742L25.7976 5.49961C25.5344 5.47916 25.2684 5.46875 25 5.46875C24.7316 5.46875 24.4656 5.47916 24.2024 5.49961ZM27.372 5.74722L27.0084 7.26684C27.4495 7.37238 27.8774 7.51198 28.2892 7.68273L28.8877 6.23941C28.4004 6.03735 27.894 5.87213 27.372 5.74722ZM30.3072 6.96406L29.4896 8.29555C29.8742 8.53172 30.239 8.79744 30.5807 9.0896L31.596 7.90194C31.1926 7.55701 30.7617 7.24315 30.3072 6.96406ZM32.7231 9.02897L31.5354 10.0443C31.8276 10.386 32.0933 10.7508 32.3294 11.1354L33.6609 10.3178C33.3818 9.86328 33.068 9.43245 32.7231 9.02897ZM34.3856 11.7373L32.9423 12.3358C33.113 12.7476 33.2526 13.1755 33.3582 13.6166L34.8778 13.253C34.7529 12.731 34.5877 12.2246 34.3856 11.7373Z" fill="#494B50"></path>
  <path fill-rule="evenodd" clip-rule="evenodd" d="M46.8453 42.0191L45.6012 41.898C45.6169 41.7366 45.625 41.5725 45.625 41.4062C45.625 41.24 45.6169 41.0759 45.6012 40.9145L46.8453 40.7934C46.865 40.995 46.875 41.1995 46.875 41.4062C46.875 41.613 46.865 41.8175 46.8453 42.0191ZM46.6074 39.5914L45.4111 39.9538C45.3155 39.6383 45.1895 39.3358 45.0362 39.0497L46.1381 38.4595C46.3298 38.8174 46.4877 39.1961 46.6074 39.5914ZM45.4565 37.4412L44.4907 38.2348C44.2825 37.9814 44.0499 37.7488 43.7965 37.5406L44.59 36.5747C44.9063 36.8346 45.1966 37.1249 45.4565 37.4412ZM43.5718 35.8931L42.9816 36.995C42.6955 36.8418 42.393 36.7157 42.0774 36.6201L42.4399 35.4238C42.8352 35.5436 43.2139 35.7014 43.5718 35.8931ZM41.2378 35.1859L41.1168 36.43C40.9553 36.4143 40.7913 36.4062 40.625 36.4062C40.4587 36.4062 40.2947 36.4143 40.1332 36.43L40.0122 35.1859C40.2138 35.1663 40.4182 35.1562 40.625 35.1562C40.8318 35.1562 41.0362 35.1663 41.2378 35.1859ZM38.8101 35.4238L39.1726 36.6201C38.857 36.7157 38.5545 36.8418 38.2684 36.995L37.6782 35.8931C38.0361 35.7014 38.4148 35.5436 38.8101 35.4238ZM36.66 36.5747L37.4535 37.5406C37.2001 37.7488 36.9675 37.9814 36.7593 38.2348L35.7935 37.4412C36.0534 37.1249 36.3437 36.8346 36.66 36.5747ZM35.1119 38.4595L36.2138 39.0497C36.0605 39.3358 35.9345 39.6383 35.8389 39.9538L34.6426 39.5914C34.7623 39.1961 34.9202 38.8174 35.1119 38.4595ZM34.4047 40.7934C34.385 40.995 34.375 41.1995 34.375 41.4062C34.375 41.613 34.385 41.8175 34.4047 42.0191L35.6488 41.898C35.6331 41.7366 35.625 41.5725 35.625 41.4062C35.625 41.24 35.6331 41.0759 35.6488 40.9145L34.4047 40.7934ZM34.6426 43.2211L35.8389 42.8587C35.9345 43.1742 36.0605 43.4767 36.2138 43.7628L35.1119 44.353C34.9202 43.9951 34.7623 43.6164 34.6426 43.2211ZM35.7935 45.3713L36.7593 44.5777C36.9675 44.8311 37.2001 45.0637 37.4535 45.2719L36.66 46.2378C36.3437 45.9779 36.0534 45.6876 35.7935 45.3713ZM37.6782 46.9194L38.2684 45.8175C38.5545 45.9707 38.857 46.0968 39.1726 46.1924L38.8101 47.3887C38.4148 47.2689 38.0361 47.1111 37.6782 46.9194ZM40.0122 47.6266L40.1332 46.3825C40.2947 46.3982 40.4587 46.4062 40.625 46.4062C40.7913 46.4062 40.9553 46.3982 41.1168 46.3825L41.2378 47.6266C41.0362 47.6462 40.8318 47.6562 40.625 47.6562C40.4182 47.6562 40.2138 47.6462 40.0122 47.6266ZM42.4399 47.3887L42.0774 46.1924C42.393 46.0968 42.6955 45.9707 42.9816 45.8175L43.5718 46.9194C43.2139 47.1111 42.8352 47.2689 42.4399 47.3887ZM44.59 46.2378L43.7965 45.2719C44.0499 45.0637 44.2825 44.8311 44.4907 44.5777L45.4565 45.3713C45.1966 45.6876 44.9063 45.9779 44.59 46.2378ZM46.1381 44.353L45.0362 43.7628C45.1895 43.4767 45.3155 43.1742 45.4111 42.8587L46.6074 43.2211C46.4877 43.6164 46.3298 43.9951 46.1381 44.353Z" fill="#494B50"></path>
  <circle cx="9.375" cy="41.4062" r="2.34375" fill="#494B50"></circle>
  <circle cx="40.625" cy="41.4062" r="1.5625" fill="#494B50"></circle>
  <rect x="4.90625" y="36.9375" width="8.9375" height="8.9375" stroke="#494B50" stroke-width="2"></rect>
</svg>
