<?xml version="1.0" encoding="UTF-8"?>
<svg xmlns="http://www.w3.org/2000/svg" width="109" height="46" viewBox="0 0 109 46" fill="none">
  <g clip-path="url(#clip0_4530_6731)">
    <path d="M90.9756 0.0107956C90.9746 0.0226573 90.9706 0.0335786 90.9637 0.0435598C90.9602 0.0486227 90.9585 0.0541919 90.9585 0.0602673V8.66726C90.9585 8.67348 90.9607 8.67883 90.965 8.68332C96.7173 14.4352 102.469 20.1871 108.221 25.939C108.253 25.9711 108.263 26.0028 108.317 26.0119M95.3035 21.7026L86.6134 13.0088M108.302 8.70089L108.3 8.69069C108.3 8.68303 108.295 8.67919 108.288 8.67919H99.6494C99.6418 8.67919 99.6379 8.67543 99.6379 8.66791C99.6374 5.80636 99.6374 2.94561 99.6379 0.0856541C99.6379 0.0585315 99.631 0.0318428 99.626 0.00537109" stroke="#FFC500" stroke-width="2"></path>
    <path d="M82.2792 0H90.9706L90.9756 0.0108491C90.9746 0.0227107 90.9706 0.0336321 90.9637 0.0436132C90.9602 0.0486761 90.9585 0.0542453 90.9585 0.0603207V8.66731C90.9585 8.67353 90.9607 8.67888 90.965 8.68337C96.7173 14.4352 102.469 20.1871 108.221 25.939C108.253 25.9711 108.263 26.0028 108.317 26.0119V26.0377H99.6364L95.3035 21.7027L86.6134 13.0089L82.2792 8.67794V0ZM99.6282 0H108.317V8.68597L108.302 8.70094L108.3 8.69074C108.3 8.68308 108.295 8.67924 108.288 8.67924H99.6494C99.6418 8.67924 99.6379 8.67548 99.6379 8.66796C99.6374 5.80641 99.6374 2.94566 99.6379 0.0857075C99.6379 0.0585849 99.631 0.0318962 99.626 0.00542453C99.6267 0.00354402 99.6275 0.00173585 99.6282 0Z" fill="#FFD600"></path>
    <path d="M99.626 0.00561523C99.631 0.0320869 99.6379 0.0587756 99.6379 0.0858983C99.6374 2.94585 99.6374 5.80661 99.6379 8.66815C99.6379 8.67568 99.6418 8.67944 99.6494 8.67944H108.288C108.295 8.67944 108.3 8.68327 108.3 8.69094L108.302 8.70113L103.994 13.0104C103.988 13.0166 103.988 13.0228 103.994 13.029L108.317 17.3491V26.0121C108.263 26.003 108.253 25.9713 108.221 25.9392C102.469 20.1873 96.7173 14.4354 90.965 8.68356C90.9607 8.67907 90.9585 8.67372 90.9585 8.6675V0.0605115C90.9585 0.054436 90.9602 0.0488668 90.9637 0.0438039C90.9706 0.0338228 90.9746 0.0229014 90.9756 0.0110398L95.2894 4.32354C95.2952 4.32947 95.3011 4.32954 95.307 4.32376L99.626 0.00561523ZM86.6134 13.0091L95.3035 21.7029C95.2078 21.7888 95.0978 21.9064 95.0312 21.973C93.6887 23.3158 92.345 24.6576 91.0001 25.9982C90.9851 26.0131 90.969 26.0264 90.9518 26.0379H82.2792V17.352L86.6113 13.0199C86.6127 13.0185 86.6134 13.0167 86.6134 13.0147V13.0091Z" fill="#FFB400"></path>
  </g>
  <g clip-path="url(#clip1_4530_6731)">
    <path d="M12.4931 31.8129H15.9521V36.6595C14.8729 37.0055 13.5101 37.1951 12.0936 37.1951C6.35248 37.1951 2.97821 32.2907 2.97821 27.5009C2.97821 22.8032 6.0303 19.5079 10.2884 19.5079C12.9828 19.5079 14.5507 20.4185 15.9532 21.6869V23.2682L18.5832 20.6446C16.9197 19.5218 14.511 18.4548 11.068 18.4548C3.50981 18.4548 0.0550537 23.8488 0.0550537 28.2819C0.0550537 34.5919 4.66214 38.3929 10.4516 38.3929C13.2588 38.3929 15.7513 37.9654 18.6305 37.1662V32.1589C18.6305 31.9029 18.7433 31.7272 18.9119 31.5729L19.8204 30.6666H13.6508L12.4931 31.8129Z" fill="white"></path>
    <path d="M27.9885 25.2266C23.6381 25.2266 20.9426 28.3976 20.9426 31.7637C20.9426 34.669 23.1141 38.1186 27.5139 38.1186C31.7462 38.1186 34.3429 34.9411 34.3429 31.5162C34.3429 28.3258 31.8052 25.2276 27.9885 25.2276V25.2266ZM27.2669 26.1511C30.334 26.1511 31.7 30.1374 31.7 32.9807C31.7 37.2091 28.5202 37.2927 28.14 37.2927C26.6848 37.2927 25.6678 36.4153 24.9064 35.2647C24.2363 34.2041 23.5812 32.234 23.5812 30.3088C23.5812 28.3912 24.2105 27.4549 25.2007 26.766C26.0104 26.2497 26.7686 26.1511 27.2658 26.1511H27.2669Z" fill="white"></path>
    <path d="M56.4268 25.2255C52.6273 25.2255 50.5719 27.6252 50.5719 30.3045C50.5719 32.3443 52.0367 34.6455 55.0587 34.6455H55.8233C55.8233 34.6455 55.615 35.15 55.6139 35.6375C55.6139 36.3563 55.8727 36.7602 56.4225 37.3815C51.2227 37.6976 49.1328 39.7899 49.1328 42.0385C49.1328 44.0076 51.0229 45.9456 54.9953 45.9456C59.698 45.9456 62.1336 43.3412 62.1336 40.7851C62.1336 38.9831 61.2337 37.9954 58.9548 36.292C58.2847 35.7725 58.1548 35.4414 58.1548 35.0525C58.1548 34.4955 58.4888 34.1269 58.6112 33.9877C58.827 33.7605 59.2007 33.5013 59.3404 33.377C60.1061 32.73 61.1875 31.7722 61.1875 29.861C61.1875 28.5497 60.6409 27.4217 59.3951 26.3653H60.9158L62.0584 25.2255H56.4279H56.4268ZM55.3787 26.0782C56.0681 26.0782 56.6438 26.3214 57.2516 26.826C57.926 27.4324 59.0032 29.0618 59.0032 31.078C59.0032 33.2538 57.3085 33.8495 56.3914 33.8495C55.9425 33.8495 55.4045 33.7241 54.9491 33.4135C53.9375 32.7589 52.9334 31.0169 52.9334 28.944C52.9334 27.0735 54.0502 26.0782 55.3787 26.0782ZM56.8833 38.2075C57.1732 38.2075 57.3816 38.2311 57.3816 38.2311C57.3816 38.2311 58.0656 38.7185 58.5435 39.0828C59.6561 39.9602 60.3498 40.6308 60.3498 41.8253C60.3498 43.4676 58.8227 44.7553 56.3495 44.7553C53.6347 44.7553 51.5599 43.4944 51.5599 41.4354C51.5599 39.7299 52.9817 38.2622 56.8833 38.2075Z" fill="white"></path>
    <path d="M62.8811 37.7426H68.097L68.8917 36.9499L67.3958 36.7635C66.993 36.7142 66.7536 36.3671 66.7536 36.0307V20.3136C66.7536 20.004 66.8975 19.8454 67.0027 19.7447L67.9435 18.8063H63.4953L62.3376 19.9611H64.0666V36.2417C64.0666 36.4731 63.9936 36.6306 63.8368 36.7924L62.8811 37.7426Z" fill="white"></path>
    <path d="M75.1644 25.2266C72.252 25.2266 69.1581 27.441 69.1581 31.4166C69.1581 34.7001 71.3778 38.1186 75.5253 38.1186C76.5595 38.1186 77.4111 37.9858 78.209 37.6205C79.0649 37.2273 79.8886 36.5888 80.49 35.7864C79.3548 36.3574 78.4291 36.7324 77.1995 36.7324C74.8627 36.7324 72.6096 35.0504 71.8214 31.9586L80.0765 28.6301C79.5997 26.9342 78.2552 25.2266 75.1655 25.2266H75.1644ZM74.6253 26.1361C76.1879 26.1361 77.3176 27.4185 77.3176 28.4223C77.3176 28.7469 77.1136 28.9183 76.7098 29.0768L71.6355 31.1241C71.6355 31.1241 71.4981 30.4867 71.4981 29.7978C71.4981 26.9085 73.5922 26.1361 74.6253 26.1361Z" fill="white"></path>
    <path d="M42.7506 25.2266C38.4002 25.2266 35.7047 28.3976 35.7047 31.7637C35.7047 34.669 37.8761 38.1186 42.2759 38.1186C46.5082 38.1186 49.1049 34.9411 49.1049 31.5162C49.1049 28.3258 46.5673 25.2276 42.7506 25.2276V25.2266ZM42.0289 26.1511C45.096 26.1511 46.462 30.1374 46.462 32.9807C46.462 37.2091 43.2822 37.2927 42.902 37.2927C41.4469 37.2927 40.4299 36.4153 39.6685 35.2647C38.9984 34.2041 38.3432 32.234 38.3432 30.3088C38.3432 28.3912 38.9726 27.4549 39.9627 26.766C40.7724 26.2497 41.5306 26.1511 42.0278 26.1511H42.0289Z" fill="white"></path>
  </g>
  <defs>
    <clipPath id="clip0_4530_6731">
      <rect width="26.0377" height="26.0377" fill="white" transform="translate(82.2792)"></rect>
    </clipPath>
    <clipPath id="clip1_4530_6731">
      <rect width="80.5434" height="27.6" fill="white" transform="translate(0 18.4)"></rect>
    </clipPath>
  </defs>
</svg>
