<?xml version="1.0" encoding="UTF-8"?>
<svg xmlns="http://www.w3.org/2000/svg" width="278" height="120" viewBox="0 0 278 120" fill="none">
  <path fill-rule="evenodd" clip-rule="evenodd" d="M141.853 30C156.316 30 168.325 40.7141 170.379 54.6292C170.457 55.285 170.245 55.509 169.846 55.509C169.3 55.509 168.753 55.1607 168.637 54.6292C166.718 42.2883 156.055 32.8439 143.188 32.8439C139.482 32.8439 135.959 33.6291 132.775 35.0394C124.563 38.1855 118.383 45.4698 116.787 54.3298C116.633 55.1374 115.905 55.795 114.816 55.795C114.019 55.795 113.28 55.1206 113.373 54.3298C115.554 40.5604 127.493 30 141.853 30ZM165.181 70.7253C165.506 69.8497 166.11 69.2657 167.256 69.2657C168.096 69.2657 169.07 69.7869 168.779 70.723C164.821 81.9401 154.124 89.9999 141.58 89.9999C128.924 89.9999 118.147 81.7966 114.275 70.4231C114.043 69.7617 114.382 69.5433 114.781 69.5433C115.327 69.5433 115.788 69.8935 115.989 70.4231C119.608 80.2811 129.07 87.3139 140.173 87.3139C144.657 87.3139 148.873 86.1663 152.545 84.1496C158.249 81.4147 162.784 76.6157 165.181 70.7253Z" fill="#C2DB6F"></path>
  <path fill-rule="evenodd" clip-rule="evenodd" d="M188.002 76.9236C187.373 76.9236 186.965 76.4514 186.965 75.6326C186.965 73.838 187.971 71.6341 191.306 69.8079C190.739 73.4603 189.984 76.9236 188.002 76.9236M158.405 73.7741C158.405 75.7577 157.996 76.5765 157.492 76.5765C156.989 76.5765 156.518 76.1675 156.518 73.8374C156.518 72.1686 156.958 68.7053 156.958 68.7053C157.335 69.1776 158.405 70.437 158.405 73.7741M124.055 65.6518C123.426 66.8799 122.419 67.3522 121.916 67.3522C121.193 67.3522 120.563 66.8483 120.563 65.0537C120.563 62.2201 122.167 59.2915 123.803 59.2915C124.715 59.2915 125.219 60.0474 125.219 60.992C125.219 61.7479 124.841 64.1404 124.055 65.6518M114.02 59.0081C114.398 59.0081 114.744 59.2913 114.744 59.7324C114.744 62.1882 113.297 63.3847 111.127 63.3847C111.536 61.2437 112.637 59.0081 114.02 59.0081M195.867 67.3201C195.647 67.3201 195.206 67.8241 194.64 67.9815C196.087 60.8029 196.999 59.6064 196.999 58.5985C196.999 58.252 196.779 58.1579 196.496 58.1579C196.024 58.1579 195.269 58.3153 193.822 58.6302C193.193 58.7559 193.099 59.0713 193.036 59.5747C192.879 60.8653 192.375 63.4791 191.872 64.3608C191.18 65.5568 189.764 66.8479 188.444 66.8479C187.971 66.8479 187.657 66.4385 187.657 65.7776C187.657 63.7623 189.67 59.9212 189.67 58.5985C189.67 58.252 189.45 58.1579 189.167 58.1579C188.695 58.1579 187.94 58.3153 186.493 58.6302C185.896 58.7559 185.801 59.0713 185.707 59.5747C185.373 61.1243 184.397 63.6994 184.329 65.8302C183.763 66.3854 183.088 66.8479 182.341 66.8479C181.869 66.8479 181.555 66.4385 181.555 65.7776C181.555 62.5341 184.323 54.9778 185.046 53.2774C185.707 51.7348 186.241 50.9794 186.241 50.6645C186.241 50.3492 185.99 50.1606 185.676 50.1606C184.606 50.1606 182.592 50.9477 182.027 51.6402C181.46 52.3333 178.221 63.1014 178.221 66.0607C178.221 66.139 178.227 66.2126 178.232 66.2866C177.79 66.6164 177.3 66.8479 176.774 66.8479C176.302 66.8479 175.987 66.4385 175.987 65.7776C175.987 62.5341 178.755 54.9778 179.479 53.2774C180.139 51.7348 180.674 50.9794 180.674 50.6645C180.674 50.3492 180.422 50.1606 180.108 50.1606C179.038 50.1606 177.025 50.9477 176.459 51.6402C175.893 52.3333 172.653 63.1014 172.653 66.0607C172.653 66.2689 172.675 66.4608 172.717 66.6369C172.436 66.7673 172.142 66.8479 171.835 66.8479C171.363 66.8479 171.049 66.4385 171.049 65.7776C171.049 63.7623 173.062 59.9212 173.062 58.5985C173.062 58.252 172.842 58.1579 172.558 58.1579C172.087 58.1579 171.332 58.3153 169.885 58.6302C169.256 58.7559 169.161 59.0713 169.099 59.5747C168.91 60.8341 168.249 63.6365 167.746 64.5182C167.054 65.7142 165.828 66.8479 164.506 66.8479C164.034 66.8479 163.72 66.4385 163.72 65.7776C163.72 63.7623 165.733 59.9212 165.733 58.5985C165.733 58.252 165.513 58.1579 165.23 58.1579C164.758 58.1579 164.003 58.3153 162.556 58.6302C161.99 58.7559 161.895 59.1025 161.77 59.5747C161.381 61.0432 160.48 63.6225 160.394 65.7412C159.651 66.4175 158.575 67.1711 157.303 67.383C158.121 62.6603 159.442 58.3153 160.732 54.663C161.518 52.459 162.43 50.916 162.43 50.6645C162.43 50.3492 162.179 50.1606 161.864 50.1606C160.795 50.1606 158.782 50.9477 158.215 51.6402C157.649 52.3333 155.007 61.6212 154.441 64.5811C154.032 64.5811 153.088 65.0533 153.088 66.4385C153.088 66.4701 153.091 66.5027 153.097 66.5353C152.759 66.7258 152.398 66.8479 152.019 66.8479C151.547 66.8479 151.232 66.4385 151.232 65.7776C151.232 63.7623 152.396 61.8103 152.396 60.4247C152.396 59.0396 151.641 58.252 150.005 58.252C147.93 58.252 145.287 60.8653 145.287 60.8653C146.2 56.7728 147.08 54.9778 147.803 53.2774C148.464 51.7348 148.999 50.9794 148.999 50.6645C148.999 50.3492 148.747 50.1606 148.433 50.1606C147.363 50.1606 145.35 50.9477 144.784 51.6402C144.291 52.2443 141.621 61.896 140.945 66.3202C140.515 66.6327 140.039 66.8479 139.531 66.8479C139.059 66.8479 138.745 66.4385 138.745 65.7776C138.745 63.6654 139.541 60.8108 140.281 58.6027H141.315C141.984 58.6027 142.299 57.5236 142.299 57.2646C142.299 57.1994 142.26 57.1351 142.22 57.1351C142.155 57.1351 142.063 57.3508 141.682 57.3508H140.741L140.758 57.3079C140.978 56.7094 141.198 56.2055 141.355 55.8278C142.016 54.2852 142.551 53.5293 142.551 53.2145C142.551 52.8996 142.299 52.711 141.985 52.711C140.915 52.711 138.902 53.4981 138.336 54.1907C138.116 54.4427 137.675 55.702 137.203 57.3079L137.19 57.3508H135.802C135.146 57.3508 134.844 58.4299 134.844 58.6889C134.844 58.7536 134.857 58.8184 134.909 58.8184C134.988 58.8184 135.08 58.6027 135.46 58.6027H136.824C136.141 61.1005 135.498 64.0417 135.419 65.7324C134.834 66.3299 134.124 66.8479 133.335 66.8479C132.862 66.8479 132.548 66.4385 132.548 65.7776C132.548 62.5341 135.316 54.9778 136.04 53.2774C136.7 51.7348 137.235 50.9794 137.235 50.6645C137.235 50.3492 136.983 50.1606 136.669 50.1606C135.599 50.1606 133.586 50.9477 133.02 51.6402C132.454 52.3333 129.214 63.1014 129.214 66.0607C129.214 66.2689 129.236 66.4608 129.277 66.6369C128.997 66.7673 128.703 66.8479 128.396 66.8479C127.924 66.8479 127.61 66.4385 127.61 65.7776C127.61 64.4865 128.522 61.4326 129.056 60.1732C129.56 59.0079 130.063 58.6931 130.063 58.4099C130.063 58.2208 129.937 58.0634 129.749 58.0634C129.088 58.0634 127.295 58.5044 126.414 59.2599C126.288 59.3856 126.163 59.449 126.068 59.449C125.974 59.449 125.911 59.4173 125.754 59.2599C125.282 58.7876 124.527 58.252 123.332 58.252C120.029 58.252 117.324 61.4638 117.324 64.8959C117.324 65.1358 117.345 65.3556 117.376 65.5661C116.546 66.2657 115.223 67.0682 113.518 67.0682C111.851 67.0682 111.033 65.9033 111.033 64.2033C113.927 64.2033 117.166 63.0697 117.166 60.4876C117.166 59.2287 116.097 58.252 114.273 58.252C110.718 58.252 107.604 61.4638 107.604 64.5811C107.604 65.3374 107.754 65.9522 108.014 66.4496C107.636 66.6867 107.23 66.8479 106.818 66.8479C106.094 66.8479 105.654 66.3756 105.654 65.4627C105.654 63.8992 106.295 61.2579 107.068 58.6279H109.022C111.003 58.6279 111.935 56.6838 111.935 56.2176C111.935 56.1007 111.818 55.9843 111.702 55.9843C111.508 55.9843 111.236 56.3727 110.11 56.3727H107.769C108.549 53.921 109.29 51.7902 109.523 50.9477C110.152 48.6809 111.032 47.7676 111.032 47.3265C111.032 46.8859 110.812 46.7285 110.435 46.7285C109.963 46.7285 108.233 47.1379 107.038 47.5473C105.843 47.9566 105.685 48.4289 104.993 50.8219C104.703 51.779 104.12 53.9662 103.538 56.3727H97.3719C98.0433 54.1683 98.7268 51.8871 98.9855 51.1368C99.6457 49.216 100.401 47.6101 100.401 47.2007C100.401 46.7918 100.212 46.571 99.8663 46.571C98.9855 46.571 97.2867 47.5473 95.8713 47.8621C95.0221 48.0512 94.8021 49.1532 94.4559 51.1996C94.2837 52.2047 93.8757 54.2321 93.3997 56.3727H92.7106C90.7689 56.3727 89.8755 58.3167 89.8755 58.783C89.8755 58.8999 89.9142 59.0163 90.0696 59.0163C90.3027 59.0163 90.5744 58.6279 91.7009 58.6279H92.9009C92.4291 60.5756 91.9549 62.358 91.625 63.3217C90.8699 65.431 89.7378 67.2884 87.8818 67.2884C86.0262 67.2884 85.0193 66.2498 85.0193 65.0845C85.0193 63.4791 87.0954 63.3529 87.0954 61.2435C87.0954 60.1732 86.4663 59.2287 85.0509 59.2287C83.6355 59.2287 82 60.5193 82 62.8806C82 65.7459 84.2646 68.3275 88.2908 68.3275C91.3105 68.3275 93.5123 67.1315 94.7076 64.4232C95.2129 63.2704 95.9448 60.9869 96.6781 58.6279H103.005C102.33 61.5774 101.754 64.3938 101.754 65.3994C101.754 66.9736 102.508 68.3275 104.867 68.3275C106.212 68.3275 107.417 67.6867 108.35 66.9596C109.192 67.9861 110.631 68.3275 112.071 68.3275C114.549 68.3275 116.401 67.193 117.529 66.2289C118.065 67.7961 119.557 68.3275 120.847 68.3275C122.419 68.3275 123.584 67.4775 124.181 67.0053C124.307 66.9107 124.401 66.8795 124.464 66.8795C124.527 66.8795 124.621 66.9424 124.716 67.0998C124.999 67.6038 125.628 68.3275 127.012 68.3275C127.948 68.3275 128.835 67.8967 129.592 67.3406C130.09 68.0369 131.012 68.3275 131.951 68.3275C133.304 68.3275 134.557 67.4277 135.458 66.5498C135.703 67.8231 136.911 68.3275 138.147 68.3275C139.123 68.3275 140.046 67.8595 140.824 67.2694C140.801 67.505 140.789 67.7132 140.789 67.8869C140.789 68.2018 140.946 68.3275 141.198 68.3275C141.513 68.3275 143.841 68.3275 143.841 67.5716C143.841 66.7533 144.564 63.5103 145.224 62.2826C145.885 61.0544 147.615 59.6376 148.433 59.6376C148.999 59.6376 149.219 59.8896 149.219 60.299C149.219 61.9049 147.898 63.8885 147.898 66.0607C147.898 67.6978 149.251 68.3275 150.635 68.3275C151.655 68.3275 152.618 67.8157 153.417 67.1874C153.608 67.4533 153.812 67.6648 153.812 67.6978C153.812 67.8869 153.34 71.5081 153.34 73.5858C153.34 75.664 154.284 77.6472 156.611 77.6472C158.939 77.6472 159.662 74.8135 159.662 73.1136C159.662 69.8389 157.24 68.0444 157.24 68.0444C158.553 67.8869 159.638 67.2246 160.433 66.5479C160.677 67.8227 161.886 68.3275 163.122 68.3275C164.978 68.3275 167.211 66.3127 167.715 65.7776C167.715 67.8241 169.067 68.3275 170.451 68.3275C171.387 68.3275 172.275 67.8967 173.032 67.3411C173.53 68.0369 174.452 68.3275 175.39 68.3275C176.512 68.3275 177.565 67.7086 178.406 66.9964C178.82 67.9419 179.877 68.3275 180.957 68.3275C182.27 68.3275 183.489 67.4808 184.384 66.6285C184.661 67.8455 185.848 68.3275 187.059 68.3275C188.915 68.3275 191.4 66.0607 191.903 65.5256C191.903 65.5256 191.526 68.4221 191.368 69.1463C187.185 71.1299 185.046 72.6096 185.046 74.9081C185.046 76.5769 186.399 77.5843 188.223 77.5843C192.815 77.5843 193.98 73.2393 194.577 68.7369C195.332 68.4221 196.15 68.0444 196.15 67.635C196.15 67.4147 196.055 67.3201 195.867 67.3201" fill="#ACD3CF"></path>
  <path fill-rule="evenodd" clip-rule="evenodd" d="M173.748 69.7051H173.28V71.678H173.706V70.3981L174.255 71.2327H174.266L174.821 70.3897V71.678H175.251V69.7051H174.784L174.266 70.5392L173.748 69.7051ZM171.315 70.1056H171.915V71.6784H172.349V70.1056H172.949V69.7055H171.315V70.1056Z" fill="#ACD3CF"></path>
</svg>
