<?xml version="1.0" encoding="UTF-8"?>
<svg xmlns="http://www.w3.org/2000/svg" width="278" height="120" viewBox="0 0 278 120" fill="none">
  <path d="M91.433 68.5466C93.0568 65.7732 93.9997 62.4666 93.9997 58.9999C93.9997 48.7066 85.7759 40.3333 75.6663 40.3333C65.5568 40.3333 57.333 48.7066 57.333 58.9999C57.333 69.2932 65.5568 77.6666 75.6663 77.6666C79.0711 77.6666 82.3187 76.7066 85.0425 75.0532L92.0616 76.8132C92.7425 76.9732 93.3187 76.3866 93.1616 75.6932L91.433 68.5466ZM83.1044 65.7199C83.1044 66.2532 82.6854 66.6266 82.214 66.6266H69.6425C69.1187 66.6266 68.7521 66.1999 68.7521 65.7199V54.4666C68.7521 54.1999 68.8568 53.9333 69.0663 53.7733L75.3521 48.2266C75.6663 47.9066 76.1901 47.9066 76.5568 48.2266L82.8425 53.7733C83.0521 53.9333 83.1568 54.1999 83.1568 54.4666V65.7199H83.1044Z" fill="url(#paint0_linear_6246_116011)"></path>
  <path d="M106.831 47.9438H113.206V42.9183H115.095V54.8838H113.206V49.7557H106.831V54.8496H104.941V42.8842H106.831V47.9438V47.9438Z" fill="white"></path>
  <path d="M126.036 50.6408C126.036 53.1023 124.181 54.9483 121.685 54.9483C119.188 54.9483 117.333 53.1023 117.333 50.6408C117.333 48.1793 119.188 46.3333 121.685 46.3333C124.181 46.3333 126.036 48.1793 126.036 50.6408ZM119.155 50.6408C119.155 52.1792 120.234 53.2732 121.685 53.2732C123.135 53.2732 124.215 52.2134 124.215 50.6408C124.215 49.0682 123.135 48.0084 121.685 48.0084C120.234 48.0084 119.155 49.1024 119.155 50.6408Z" fill="white"></path>
  <path d="M140.8 49.7208V54.8488H139.046V50.302C139.046 48.9345 138.337 48.1482 137.157 48.1482C136.01 48.1482 135.065 48.9003 135.065 50.302V54.8488H133.311V50.302C133.311 48.9345 132.603 48.1482 131.422 48.1482C130.275 48.1482 129.33 48.9003 129.33 50.302V54.8488H127.576V46.6781H129.33V47.6696C129.971 46.7123 130.983 46.473 131.793 46.473C133.007 46.473 134.019 47.02 134.593 47.9431C135.301 46.7807 136.549 46.473 137.528 46.473C139.451 46.473 140.8 47.8063 140.8 49.7208Z" fill="white"></path>
  <path d="M150.493 50.6408C150.493 50.8801 150.493 51.0852 150.46 51.2903H144.489C144.725 52.7604 145.737 53.3757 146.884 53.3757C147.693 53.3757 148.537 53.0681 149.211 52.5211L150.088 53.786C149.11 54.6407 147.997 54.9483 146.783 54.9483C144.354 54.9483 142.667 53.239 142.667 50.6408C142.667 48.0768 144.32 46.3333 146.681 46.3333C148.942 46.3333 150.493 48.0768 150.493 50.6408ZM144.489 49.9229H148.672C148.469 48.658 147.727 47.9058 146.614 47.9058C145.366 47.9058 144.691 48.7263 144.489 49.9229Z" fill="white"></path>
  <path d="M164.853 45.1743L163.267 46.234C162.559 45.1743 161.378 44.5247 159.961 44.5247C157.566 44.5247 155.778 46.3024 155.778 48.8664C155.778 51.4305 157.533 53.2082 159.961 53.2082C161.345 53.2082 162.525 52.5586 163.234 51.4988L164.785 52.6612C163.773 54.1654 162.019 55.0885 159.961 55.0885C156.352 55.0885 153.788 52.4561 153.788 48.9006C153.788 45.3452 156.352 42.7128 159.961 42.7128C162.053 42.6786 163.942 43.6358 164.853 45.1743Z" fill="white"></path>
  <path d="M174.637 50.7806C174.637 53.242 172.782 55.0881 170.286 55.0881C167.789 55.0881 165.968 53.242 165.968 50.7806C165.968 48.3191 167.823 46.473 170.319 46.473C172.816 46.473 174.637 48.3191 174.637 50.7806ZM167.789 50.7806C167.789 52.319 168.869 53.413 170.319 53.413C171.77 53.413 172.85 52.3532 172.85 50.7806C172.85 49.208 171.77 48.1482 170.319 48.1482C168.869 48.1482 167.789 49.2422 167.789 50.7806Z" fill="white"></path>
  <path d="M183.912 49.7208V54.8488H182.158V50.302C182.158 48.9345 181.449 48.1482 180.269 48.1482C179.122 48.1482 178.177 48.9003 178.177 50.302V54.8488H176.423V46.6781H178.177V47.6696C178.818 46.7123 179.83 46.473 180.64 46.473C182.562 46.473 183.912 47.8063 183.912 49.7208Z" fill="white"></path>
  <path d="M193.696 49.7208V54.8488H191.942V50.302C191.942 48.9345 191.233 48.1482 190.053 48.1482C188.906 48.1482 187.961 48.9003 187.961 50.302V54.8488H186.207V46.6781H187.961V47.6696C188.602 46.7123 189.614 46.473 190.424 46.473C192.347 46.473 193.696 47.8063 193.696 49.7208Z" fill="white"></path>
  <path d="M203.209 50.7806C203.209 51.0199 203.175 51.225 203.175 51.4301H197.204C197.441 52.9002 198.453 53.5155 199.6 53.5155C200.409 53.5155 201.253 53.2078 201.927 52.6608L202.804 53.9258C201.826 54.7804 200.713 55.0881 199.498 55.0881C197.07 55.0881 195.383 53.3788 195.383 50.7806C195.383 48.2166 197.036 46.473 199.397 46.473C201.657 46.473 203.209 48.2166 203.209 50.7806ZM197.238 50.0626H201.421C201.219 48.7977 200.477 48.0456 199.363 48.0456C198.115 48.0456 197.407 48.8661 197.238 50.0626Z" fill="white"></path>
  <path d="M211.675 47.7721L210.562 49.0029C209.988 48.4559 209.415 48.1482 208.639 48.1482C207.29 48.1482 206.244 49.208 206.244 50.7806C206.244 52.3532 207.256 53.413 208.639 53.413C209.415 53.413 210.09 53.0369 210.629 52.5583L211.709 53.789C210.967 54.6437 209.887 55.0881 208.707 55.0881C206.143 55.0881 204.456 53.242 204.456 50.7806C204.456 48.3191 206.143 46.473 208.707 46.473C209.854 46.473 210.967 46.9175 211.675 47.7721Z" fill="white"></path>
  <path d="M218.828 48.3193H215.724V51.8748C215.724 52.9687 216.297 53.4132 217.006 53.4132C217.546 53.4132 218.153 53.1739 218.625 52.8662L219.334 54.302C218.693 54.7465 217.883 55.1225 216.871 55.1225C215.049 55.1225 213.97 54.1311 213.97 51.9431V48.3193H212.351V46.7126H213.97V44.2511H215.724V46.7126H218.828V48.3193Z" fill="white"></path>
  <path d="M105.334 76.6373V65.4858H112.478V67.1793H107.354V70.2067H111.988V71.9001H107.354V76.6373H105.334Z" fill="white"></path>
  <path d="M124.283 71.0616C124.283 72.2631 124.058 73.2923 123.608 74.1489C123.161 75.002 122.551 75.6554 121.778 76.1092C121.009 76.5629 120.136 76.7898 119.159 76.7898C118.183 76.7898 117.308 76.5629 116.535 76.1092C115.765 75.6518 115.155 74.9966 114.705 74.1435C114.258 73.2868 114.035 72.2595 114.035 71.0616C114.035 69.86 114.258 68.8327 114.705 67.9797C115.155 67.123 115.765 66.4678 116.535 66.014C117.308 65.5603 118.183 65.3334 119.159 65.3334C120.136 65.3334 121.009 65.5603 121.778 66.014C122.551 66.4678 123.161 67.123 123.608 67.9797C124.058 68.8327 124.283 69.86 124.283 71.0616ZM122.252 71.0616C122.252 70.2158 122.119 69.5025 121.854 68.9217C121.593 68.3372 121.23 67.8962 120.765 67.5985C120.301 67.2972 119.765 67.1466 119.159 67.1466C118.553 67.1466 118.017 67.2972 117.553 67.5985C117.088 67.8962 116.723 68.3372 116.458 68.9217C116.197 69.5025 116.066 70.2158 116.066 71.0616C116.066 71.9074 116.197 72.6225 116.458 73.2069C116.723 73.7878 117.088 74.2288 117.553 74.5301C118.017 74.8278 118.553 74.9766 119.159 74.9766C119.765 74.9766 120.301 74.8278 120.765 74.5301C121.23 74.2288 121.593 73.7878 121.854 73.2069C122.119 72.6225 122.252 71.9074 122.252 71.0616Z" fill="white"></path>
  <path d="M126.193 76.6373V65.4858H130.375C131.231 65.4858 131.95 65.6347 132.531 65.9323C133.115 66.23 133.556 66.6475 133.854 67.1847C134.155 67.7183 134.306 68.3409 134.306 69.0524C134.306 69.7675 134.153 70.3882 133.848 70.9146C133.547 71.4373 133.103 71.8421 132.514 72.1288C131.926 72.412 131.204 72.5535 130.347 72.5535H127.369V70.8765H130.075C130.576 70.8765 130.986 70.8075 131.306 70.6695C131.625 70.528 131.861 70.3229 132.013 70.0543C132.17 69.782 132.248 69.448 132.248 69.0524C132.248 68.6567 132.17 68.3191 132.013 68.0396C131.857 67.7564 131.62 67.5423 131.3 67.3971C130.981 67.2482 130.569 67.1738 130.064 67.1738H128.213V76.6373H126.193ZM131.954 71.5843L134.714 76.6373H132.46L129.748 71.5843H131.954Z" fill="white"></path>
  <path fill-rule="evenodd" clip-rule="evenodd" d="M163.461 70.3919C164.359 70.0311 164.941 69.1376 164.924 68.1582C164.924 66.1479 163.544 65.1514 161.649 65.1514H156.677V76.0792H162.081C163.744 76.0792 165.373 74.8764 165.373 73.038C165.373 70.8558 163.461 70.4091 163.461 70.3919ZM159.271 67.4194H161.2C161.715 67.385 162.164 67.7974 162.197 68.3301C162.197 68.3644 162.197 68.416 162.197 68.4503C162.181 69.0173 161.748 69.4469 161.2 69.4469H159.254L159.271 67.4194ZM161.216 73.794H159.287V71.6462H161.166C162.114 71.6462 162.563 72.0758 162.563 72.7115C162.563 73.5019 161.998 73.794 161.216 73.794Z" fill="#D93733"></path>
  <path fill-rule="evenodd" clip-rule="evenodd" d="M171.094 64.8762C168.034 64.8762 166.238 67.402 166.238 70.5979C166.238 73.7937 168.034 76.3195 171.094 76.3195C174.153 76.3195 175.949 73.8109 175.949 70.5979C175.949 67.3848 174.17 64.8762 171.094 64.8762ZM171.094 73.7078C169.597 73.7078 168.849 72.3161 168.849 70.5979C168.849 68.8797 169.597 67.5051 171.094 67.5051C172.59 67.5051 173.355 68.8968 173.355 70.5979C173.355 72.3333 172.59 73.7078 171.094 73.7078Z" fill="#D93733"></path>
  <path fill-rule="evenodd" clip-rule="evenodd" d="M181.585 69.4468L181.22 69.3609C180.322 69.1718 179.607 68.9313 179.607 68.2612C179.607 67.5395 180.288 67.2474 180.887 67.2474C181.718 67.2646 182.5 67.6255 183.049 68.2612L184.695 66.5773C183.947 65.7011 182.733 64.8591 180.837 64.8591C178.609 64.8591 176.913 66.1478 176.913 68.2956C176.913 70.2543 178.276 71.2165 179.939 71.5773L180.305 71.6633C181.685 71.9554 182.201 72.1787 182.201 72.866C182.201 73.5189 181.635 73.9485 180.771 73.9485C179.74 73.9485 178.809 73.4846 178.094 72.5395L176.414 74.2578C177.345 75.409 178.526 76.3024 180.804 76.3024C182.783 76.3024 184.894 75.134 184.894 72.7457C184.928 70.2543 183.099 69.7732 181.585 69.4468Z" fill="#D93733"></path>
  <path fill-rule="evenodd" clip-rule="evenodd" d="M190.815 73.7081C189.651 73.7081 188.437 72.7115 188.437 70.5294C188.437 68.5878 189.568 67.5054 190.748 67.5054C191.679 67.5054 192.228 67.9521 192.66 68.7253L194.789 67.2648C193.725 65.5981 192.461 64.8937 190.715 64.8937C187.522 64.8937 185.793 67.4538 185.793 70.5466C185.793 73.794 187.705 76.337 190.682 76.337C192.777 76.337 193.774 75.581 194.855 73.9658L192.71 72.471C192.278 73.1926 191.812 73.7081 190.815 73.7081Z" fill="#D93733"></path>
  <path fill-rule="evenodd" clip-rule="evenodd" d="M201.888 65.1514V69.172H198.679V65.1514H195.902V76.0792H198.679V71.7665H201.888V76.0792H204.665V65.1514H201.888Z" fill="#D93733"></path>
  <path d="M146.014 63.6666C142.284 63.6666 139.256 66.7959 139.256 70.6496C139.256 74.5033 142.284 77.6325 146.014 77.6325C149.743 77.6325 152.772 74.5033 152.772 70.6496C152.772 66.7959 149.743 63.6666 146.014 63.6666ZM146.014 76.9806C142.635 76.9806 139.887 74.1411 139.887 70.6496C139.887 67.1581 142.635 64.3186 146.014 64.3186C149.393 64.3186 152.141 67.1581 152.141 70.6496C152.141 74.1411 149.393 76.9806 146.014 76.9806Z" fill="white"></path>
  <path d="M148.803 66.2887H148.341V68.6791H143.7V66.2887H143.223C140.896 67.8823 140.251 71.113 141.793 73.5324C142.172 74.1264 142.663 74.6335 143.223 75.0102H143.7V72.6197H148.341V75.0102H148.803C151.131 73.4165 151.776 70.1858 150.248 67.7809C149.869 67.1869 149.378 66.6799 148.803 66.2887ZM143.055 74.0685C141.232 72.3879 141.064 69.4904 142.691 67.6071C142.803 67.4767 142.929 67.3463 143.055 67.2304V74.0685ZM148.341 71.9533H143.7V69.3311H148.341V71.9533ZM148.972 74.054V72.6052V68.6791V67.2304C150.794 68.9254 150.949 71.8229 149.308 73.7063C149.196 73.8222 149.084 73.9381 148.972 74.054Z" fill="white"></path>
  <defs>
    <linearGradient id="paint0_linear_6246_116011" x1="61.5" y1="42.5" x2="97" y2="78" gradientUnits="userSpaceOnUse">
      <stop stop-color="#385FE6"></stop>
      <stop offset="1" stop-color="#5ABFFD"></stop>
    </linearGradient>
  </defs>
</svg>
