<svg width="16" height="16" viewBox="0 0 16 16" fill="none" xmlns="http://www.w3.org/2000/svg">
<path d="M7.36845 12H8.63157V7.1579H7.36845V12ZM8.00001 5.71661C8.19272 5.71661 8.35426 5.65143 8.48462 5.52107C8.61498 5.39071 8.68016 5.22918 8.68016 5.03646C8.68016 4.84376 8.61498 4.68222 8.48462 4.55185C8.35426 4.42149 8.19272 4.35631 8.00001 4.35631C7.80729 4.35631 7.64575 4.42149 7.51539 4.55185C7.38504 4.68222 7.31986 4.84376 7.31986 5.03646C7.31986 5.22918 7.38504 5.39071 7.51539 5.52107C7.64575 5.65143 7.80729 5.71661 8.00001 5.71661ZM8.00142 16C6.89494 16 5.85491 15.79 4.88132 15.3701C3.90772 14.9502 3.06082 14.3803 2.34064 13.6604C1.62044 12.9405 1.05028 12.094 0.630171 11.1209C0.210057 10.1477 0 9.10789 0 8.00142C0 6.89494 0.209966 5.85491 0.629897 4.88132C1.04983 3.90772 1.61972 3.06083 2.33959 2.34064C3.05946 1.62044 3.90599 1.05029 4.87915 0.630171C5.85231 0.210058 6.89212 0 7.9986 0C9.10507 0 10.1451 0.209967 11.1187 0.629898C12.0923 1.04983 12.9392 1.61972 13.6594 2.33959C14.3796 3.05946 14.9497 3.90599 15.3698 4.87915C15.79 5.85231 16 6.89212 16 7.9986C16 9.10507 15.79 10.1451 15.3701 11.1187C14.9502 12.0923 14.3803 12.9392 13.6604 13.6594C12.9405 14.3796 12.094 14.9497 11.1209 15.3698C10.1477 15.79 9.10789 16 8.00142 16ZM8.00001 14.7369C9.88071 14.7369 11.4737 14.0842 12.779 12.779C14.0842 11.4737 14.7369 9.88071 14.7369 8.00001C14.7369 6.1193 14.0842 4.52631 12.779 3.22104C11.4737 1.91578 9.88071 1.26314 8.00001 1.26314C6.1193 1.26314 4.52631 1.91578 3.22104 3.22104C1.91577 4.52631 1.26314 6.1193 1.26314 8.00001C1.26314 9.88071 1.91577 11.4737 3.22104 12.779C4.52631 14.0842 6.1193 14.7369 8.00001 14.7369Z" fill="#FF6300"/>
</svg>
