<?xml version="1.0" encoding="UTF-8"?>
<svg xmlns="http://www.w3.org/2000/svg" width="126" height="100" viewBox="0 0 126 100" fill="none">
  <g clip-path="url(#clip0_4581_2670)">
    <path d="M57.7448 69.9728L39.4375 54.4514L50.1831 53.6554L57.7448 59.2272C70.4803 47.6856 95.9513 26.5926 126.198 31.3683C95.9513 27.3885 62.9186 65.595 57.7448 69.9728Z" fill="#EAEAEA"></path>
    <path d="M7.12392 28.7832V51.9719H2.29688V28.7832H7.12392Z" fill="#A6A6A6"></path>
    <path d="M19.8321 28.373C23.0922 28.373 25.858 29.2038 28.1296 30.8654L25.8265 34.9353C23.9125 33.463 21.9039 32.7269 19.8006 32.7269C18.7279 32.7269 17.855 32.9477 17.182 33.3894C16.53 33.8311 16.204 34.4515 16.204 35.2508C16.204 35.9659 16.4984 36.5338 17.0873 36.9545C17.6763 37.3541 18.8015 37.7327 20.4631 38.0902C23.3867 38.6792 25.4374 39.5099 26.6152 40.5826C27.7931 41.6343 28.382 43.075 28.382 44.9049C28.382 47.1764 27.5932 48.9958 26.0158 50.3629C24.4383 51.709 22.293 52.3821 19.5797 52.3821C15.9831 52.3821 12.9859 51.3515 10.5882 49.2902L13.2068 45.315C13.985 46.1353 14.9735 46.7978 16.1724 47.3026C17.3713 47.7864 18.5596 48.0283 19.7375 48.0283C20.9574 48.0283 21.8933 47.7969 22.5454 47.3342C23.2184 46.8715 23.5549 46.2194 23.5549 45.3781C23.5549 44.663 23.2184 44.0846 22.5454 43.6429C21.8933 43.1802 20.7365 42.7806 19.0749 42.444C16.2145 41.8341 14.2058 40.9823 13.049 39.8885C11.9132 38.7738 11.3454 37.3225 11.3454 35.5347C11.3454 33.4525 12.1341 31.7383 13.7116 30.3922C15.3101 29.0461 17.3502 28.373 19.8321 28.373Z" fill="#A6A6A6"></path>
    <path d="M43.007 28.373C46.4144 28.373 49.2538 29.5193 51.5254 31.8119C53.7969 34.0835 54.9327 36.9545 54.9327 40.4249C54.9327 43.8743 53.7969 46.7347 51.5254 49.0063C49.2538 51.2568 46.4144 52.3821 43.007 52.3821C39.5787 52.3821 36.7287 51.2568 34.4572 49.0063C32.2067 46.7347 31.0814 43.8743 31.0814 40.4249C31.0814 36.9545 32.2067 34.0835 34.4572 31.8119C36.7287 29.5193 39.5787 28.373 43.007 28.373ZM48.0549 34.9353C46.7509 33.5051 45.0683 32.7899 43.007 32.7899C40.9458 32.7899 39.2527 33.5051 37.9276 34.9353C36.6236 36.3445 35.9716 38.1744 35.9716 40.4249C35.9716 42.6123 36.6236 44.4211 37.9276 45.8514C39.2527 47.2606 40.9458 47.9652 43.007 47.9652C45.0472 47.9652 46.7193 47.2606 48.0234 45.8514C49.3485 44.4211 50.011 42.6123 50.011 40.4249C50.011 38.1954 49.359 36.3655 48.0549 34.9353Z" fill="#A6A6A6"></path>
    <path d="M6.36742 59.8908C8.02902 59.8908 9.41193 60.4534 10.5162 61.5787L9.4908 62.746C8.64949 61.8311 7.60836 61.3736 6.36742 61.3736C5.14751 61.3736 4.14845 61.7995 3.37024 62.6514C2.59202 63.5032 2.20291 64.5864 2.20291 65.901C2.20291 67.205 2.59202 68.2829 3.37024 69.1348C4.14845 69.9866 5.14751 70.4125 6.36742 70.4125C7.66094 70.4125 8.72836 69.9287 9.56968 68.9612L10.5793 70.1601C9.51709 71.3169 8.11315 71.8953 6.36742 71.8953C4.69531 71.8953 3.3124 71.3274 2.21869 70.1917C1.12498 69.0559 0.578125 67.6256 0.578125 65.901C0.578125 64.1657 1.12498 62.7302 2.21869 61.5945C3.3124 60.4587 4.69531 59.8908 6.36742 59.8908Z" fill="#A6A6A6"></path>
    <path d="M20.0376 60.0959V61.5787H14.4692V65.0964H19.3593V66.5319H14.4692V70.2074H20.1638V71.6902H12.8602V60.0959H20.0376Z" fill="#A6A6A6"></path>
    <path d="M31.2084 71.6902H29.3155L26.6022 67.2891H26.5707H24.3307V71.6902H22.7217V60.0959H26.5707C27.759 60.0959 28.7371 60.4166 29.5048 61.0581C30.2725 61.6891 30.6563 62.5672 30.6563 63.6925C30.6563 64.5128 30.446 65.2069 30.0253 65.7748C29.6047 66.3426 29.0315 66.7528 28.3059 67.0052L31.2084 71.6902ZM24.3307 61.5156V65.8694H26.4287C27.2385 65.8694 27.8747 65.6854 28.3374 65.3173C28.8002 64.9387 29.0315 64.3971 29.0315 63.6925C29.0315 62.9984 28.7949 62.4621 28.3217 62.0835C27.8589 61.7049 27.228 61.5156 26.4287 61.5156H24.3307Z" fill="#A6A6A6"></path>
    <path d="M42.0775 60.0959V61.5314H38.0077V71.6902H36.3987V61.5314H32.3446V60.0959H42.0775Z" fill="#A6A6A6"></path>
    <path d="M46.0277 60.0959V71.6902H44.4187V60.0959H46.0277Z" fill="#A6A6A6"></path>
    <path d="M56.3384 60.0959V61.5787H51.0066V65.2542H55.5181V66.7055H51.0066V71.6902H49.3976V60.0959H56.3384Z" fill="#A6A6A6"></path>
    <path d="M60.2988 60.0959V71.6902H58.6898V60.0959H60.2988Z" fill="#A6A6A6"></path>
    <path d="M70.8462 60.0959V61.5787H65.2777V65.0964H70.1679V66.5319H65.2777V70.2074H70.9724V71.6902H63.6687V60.0959H70.8462Z" fill="#A6A6A6"></path>
    <path d="M77.0637 60.0959C79.0198 60.0959 80.5447 60.6059 81.6384 61.626C82.7426 62.6356 83.2947 64.0553 83.2947 65.8852C83.2947 67.715 82.7479 69.14 81.6542 70.1601C80.5604 71.1802 79.0303 71.6902 77.0637 71.6902H73.5618V60.0959H77.0637ZM77.0164 61.5945H75.1708V70.2074H77.0164C78.5097 70.2074 79.656 69.8341 80.4553 69.0874C81.265 68.3302 81.6699 67.2628 81.6699 65.8852C81.6699 64.5286 81.265 63.4769 80.4553 62.7302C79.6455 61.9731 78.4992 61.5945 77.0164 61.5945Z" fill="#A6A6A6"></path>
    <path d="M62.2045 29.772C63.7335 29.772 64.7565 30.795 64.7565 32.247C64.7565 33.204 64.4375 33.875 63.8325 34.667L62.2045 36.801H64.8445V38H59.7735V37.934L62.7105 33.974C63.2385 33.27 63.4145 32.863 63.4145 32.214C63.4145 31.433 62.8975 30.971 62.2045 30.971C61.4675 30.971 61.0605 31.389 60.9065 32.258L59.6965 31.972C59.9825 30.509 60.8405 29.772 62.2045 29.772Z" fill="#A6A6A6"></path>
    <path d="M71.051 29.915V29.981L67.069 38H65.617L69.082 31.136H65.474V29.915H71.051Z" fill="#A6A6A6"></path>
    <path d="M74.4059 29.772C76.2209 29.772 77.2769 31.4 77.2769 33.952C77.2769 36.515 76.2209 38.143 74.4059 38.143C72.5909 38.143 71.5349 36.515 71.5349 33.952C71.5349 31.4 72.5909 29.772 74.4059 29.772ZM74.4059 30.96C73.3719 30.96 72.8879 32.148 72.8879 33.952C72.8879 35.767 73.3719 36.955 74.4059 36.955C75.4399 36.955 75.9239 35.767 75.9239 33.952C75.9239 32.148 75.4399 30.96 74.4059 30.96Z" fill="#A6A6A6"></path>
    <path d="M80.9157 29.772C82.7307 29.772 83.7867 31.4 83.7867 33.952C83.7867 36.515 82.7307 38.143 80.9157 38.143C79.1007 38.143 78.0447 36.515 78.0447 33.952C78.0447 31.4 79.1007 29.772 80.9157 29.772ZM80.9157 30.96C79.8817 30.96 79.3977 32.148 79.3977 33.952C79.3977 35.767 79.8817 36.955 80.9157 36.955C81.9497 36.955 82.4337 35.767 82.4337 33.952C82.4337 32.148 81.9497 30.96 80.9157 30.96Z" fill="#A6A6A6"></path>
    <path d="M87.5575 29.772V38H86.2265V32.104L84.9065 32.852L84.3345 31.653L87.5135 29.772H87.5575Z" fill="#A6A6A6"></path>
    <path d="M62.2045 41.772C63.7335 41.772 64.7565 42.795 64.7565 44.247C64.7565 45.204 64.4375 45.875 63.8325 46.667L62.2045 48.801H64.8445V50H59.7735V49.934L62.7105 45.974C63.2385 45.27 63.4145 44.863 63.4145 44.214C63.4145 43.433 62.8975 42.971 62.2045 42.971C61.4675 42.971 61.0605 43.389 60.9065 44.258L59.6965 43.972C59.9825 42.509 60.8405 41.772 62.2045 41.772Z" fill="#A6A6A6"></path>
    <path d="M68.444 41.772C70.259 41.772 71.315 43.4 71.315 45.952C71.315 48.515 70.259 50.143 68.444 50.143C66.629 50.143 65.573 48.515 65.573 45.952C65.573 43.4 66.629 41.772 68.444 41.772ZM68.444 42.96C67.41 42.96 66.926 44.148 66.926 45.952C66.926 47.767 67.41 48.955 68.444 48.955C69.478 48.955 69.962 47.767 69.962 45.952C69.962 44.148 69.478 42.96 68.444 42.96Z" fill="#A6A6A6"></path>
    <path d="M75.0858 41.772V50H73.7548V44.104L72.4348 44.852L71.8628 43.653L75.0418 41.772H75.0858Z" fill="#A6A6A6"></path>
    <path d="M78.8122 41.772C80.2862 41.772 81.2762 42.773 81.2762 44.137C81.2762 45.006 80.8472 45.523 80.2642 45.82C81.0012 46.128 81.4962 46.755 81.4962 47.657C81.4962 49.131 80.4732 50.143 78.8892 50.143C77.4482 50.143 76.6012 49.395 76.2272 48.02L77.4372 47.712C77.6462 48.482 78.0532 48.944 78.8782 48.944C79.6372 48.944 80.1542 48.438 80.1542 47.646C80.1542 46.909 79.5932 46.381 78.7902 46.381H77.9212V45.27H78.8122C79.4062 45.259 79.9452 44.874 79.9452 44.137C79.9452 43.422 79.4612 42.971 78.8012 42.971C78.1522 42.971 77.7232 43.367 77.5362 44.049L76.3702 43.565C76.7332 42.487 77.5362 41.772 78.8122 41.772Z" fill="#A6A6A6"></path>
  </g>
  <defs>
    <clipPath id="clip0_4581_2670">
      <rect width="126" height="100" fill="white"></rect>
    </clipPath>
  </defs>
</svg>
