<?xml version="1.0" encoding="UTF-8"?>
<svg xmlns="http://www.w3.org/2000/svg" width="127" height="100" viewBox="0 0 127 100" fill="none">
  <g clip-path="url(#clip0_4580_2616)">
    <path d="M58.4113 69.9728L40.104 54.4514L50.8496 53.6554L58.4113 59.2272C71.1468 47.6856 96.6178 26.5926 126.865 31.3683C96.6178 27.3885 63.5851 65.595 58.4113 69.9728Z" fill="#EAEAEA"></path>
    <path d="M7.79042 28.7832V51.9719H2.96338V28.7832H7.79042Z" fill="#A6A6A6"></path>
    <path d="M20.4986 28.373C23.7587 28.373 26.5245 29.2038 28.7961 30.8654L26.493 34.9353C24.579 33.463 22.5704 32.7269 20.4671 32.7269C19.3944 32.7269 18.5215 32.9477 17.8485 33.3894C17.1965 33.8311 16.8705 34.4515 16.8705 35.2508C16.8705 35.9659 17.1649 36.5338 17.7538 36.9545C18.3428 37.3541 19.468 37.7327 21.1296 38.0902C24.0532 38.6792 26.1039 39.5099 27.2817 40.5826C28.4596 41.6343 29.0485 43.075 29.0485 44.9049C29.0485 47.1764 28.2598 48.9958 26.6823 50.3629C25.1048 51.709 22.9595 52.3821 20.2462 52.3821C16.6496 52.3821 13.6524 51.3515 11.2547 49.2902L13.8733 45.315C14.6515 46.1353 15.64 46.7978 16.8389 47.3026C18.0378 47.7864 19.2261 48.0283 20.404 48.0283C21.6239 48.0283 22.5598 47.7969 23.2119 47.3342C23.8849 46.8715 24.2214 46.2194 24.2214 45.3781C24.2214 44.663 23.8849 44.0846 23.2119 43.6429C22.5598 43.1802 21.403 42.7806 19.7414 42.444C16.881 41.8341 14.8723 40.9823 13.7155 39.8885C12.5798 38.7738 12.0119 37.3225 12.0119 35.5347C12.0119 33.4525 12.8006 31.7383 14.3781 30.3922C15.9766 29.0461 18.0167 28.373 20.4986 28.373Z" fill="#A6A6A6"></path>
    <path d="M43.6736 28.373C47.0809 28.373 49.9203 29.5193 52.1919 31.8119C54.4634 34.0835 55.5992 36.9545 55.5992 40.4249C55.5992 43.8743 54.4634 46.7347 52.1919 49.0063C49.9203 51.2568 47.0809 52.3821 43.6736 52.3821C40.2452 52.3821 37.3952 51.2568 35.1237 49.0063C32.8732 46.7347 31.7479 43.8743 31.7479 40.4249C31.7479 36.9545 32.8732 34.0835 35.1237 31.8119C37.3952 29.5193 40.2452 28.373 43.6736 28.373ZM48.7214 34.9353C47.4174 33.5051 45.7348 32.7899 43.6736 32.7899C41.6123 32.7899 39.9192 33.5051 38.5941 34.9353C37.2901 36.3445 36.6381 38.1744 36.6381 40.4249C36.6381 42.6123 37.2901 44.4211 38.5941 45.8514C39.9192 47.2606 41.6123 47.9652 43.6736 47.9652C45.7137 47.9652 47.3859 47.2606 48.6899 45.8514C50.015 44.4211 50.6775 42.6123 50.6775 40.4249C50.6775 38.1954 50.0255 36.3655 48.7214 34.9353Z" fill="#A6A6A6"></path>
    <path d="M7.03392 59.8908C8.69552 59.8908 10.0784 60.4534 11.1827 61.5787L10.1573 62.746C9.31599 61.8311 8.27486 61.3736 7.03392 61.3736C5.81402 61.3736 4.81496 61.7995 4.03674 62.6514C3.25853 63.5032 2.86942 64.5864 2.86942 65.901C2.86942 67.205 3.25853 68.2829 4.03674 69.1348C4.81496 69.9866 5.81402 70.4125 7.03392 70.4125C8.32745 70.4125 9.39486 69.9287 10.2362 68.9612L11.2458 70.1601C10.1836 71.3169 8.77965 71.8953 7.03392 71.8953C5.36181 71.8953 3.9789 71.3274 2.88519 70.1917C1.79148 69.0559 1.24463 67.6256 1.24463 65.901C1.24463 64.1657 1.79148 62.7302 2.88519 61.5945C3.9789 60.4587 5.36181 59.8908 7.03392 59.8908Z" fill="#A6A6A6"></path>
    <path d="M20.7041 60.0959V61.5787H15.1357V65.0964H20.0258V66.5319H15.1357V70.2074H20.8303V71.6902H13.5267V60.0959H20.7041Z" fill="#A6A6A6"></path>
    <path d="M31.8749 71.6902H29.982L27.2687 67.2891H27.2372H24.9972V71.6902H23.3882V60.0959H27.2372C28.4255 60.0959 29.4036 60.4166 30.1713 61.0581C30.939 61.6891 31.3228 62.5672 31.3228 63.6925C31.3228 64.5128 31.1125 65.2069 30.6918 65.7748C30.2712 66.3426 29.698 66.7528 28.9724 67.0052L31.8749 71.6902ZM24.9972 61.5156V65.8694H27.0952C27.905 65.8694 28.5412 65.6854 29.0039 65.3173C29.4667 64.9387 29.698 64.3971 29.698 63.6925C29.698 62.9984 29.4614 62.4621 28.9882 62.0835C28.5254 61.7049 27.8945 61.5156 27.0952 61.5156H24.9972Z" fill="#A6A6A6"></path>
    <path d="M42.744 60.0959V61.5314H38.6742V71.6902H37.0652V61.5314H33.0111V60.0959H42.744Z" fill="#A6A6A6"></path>
    <path d="M46.6942 60.0959V71.6902H45.0852V60.0959H46.6942Z" fill="#A6A6A6"></path>
    <path d="M57.0049 60.0959V61.5787H51.6731V65.2542H56.1847V66.7055H51.6731V71.6902H50.0641V60.0959H57.0049Z" fill="#A6A6A6"></path>
    <path d="M60.9654 60.0959V71.6902H59.3563V60.0959H60.9654Z" fill="#A6A6A6"></path>
    <path d="M71.5127 60.0959V61.5787H65.9442V65.0964H70.8344V66.5319H65.9442V70.2074H71.6389V71.6902H64.3352V60.0959H71.5127Z" fill="#A6A6A6"></path>
    <path d="M77.7302 60.0959C79.6863 60.0959 81.2112 60.6059 82.3049 61.626C83.4091 62.6356 83.9612 64.0553 83.9612 65.8852C83.9612 67.715 83.4144 69.14 82.3207 70.1601C81.2269 71.1802 79.6968 71.6902 77.7302 71.6902H74.2283V60.0959H77.7302ZM77.6829 61.5945H75.8373V70.2074H77.6829C79.1762 70.2074 80.3225 69.8341 81.1218 69.0874C81.9315 68.3302 82.3364 67.2628 82.3364 65.8852C82.3364 64.5286 81.9315 63.4769 81.1218 62.7302C80.312 61.9731 79.1657 61.5945 77.6829 61.5945Z" fill="#A6A6A6"></path>
    <path d="M64.0581 29.772C65.5321 29.772 66.7531 30.883 66.7531 32.456C66.7531 33.083 66.5661 33.633 66.2361 34.073L66.2251 34.095L63.7171 38H62.2101L64.0471 35.151C62.5511 35.151 61.3301 34.018 61.3301 32.456C61.3301 30.883 62.5621 29.772 64.0581 29.772ZM64.0581 30.96C63.2881 30.96 62.6941 31.554 62.6941 32.456C62.6941 33.358 63.2881 33.963 64.0581 33.963C64.8171 33.963 65.4001 33.358 65.4001 32.456C65.4001 31.554 64.8171 30.96 64.0581 30.96Z" fill="#A6A6A6"></path>
    <path d="M70.3469 29.772C72.1619 29.772 73.2179 31.4 73.2179 33.952C73.2179 36.515 72.1619 38.143 70.3469 38.143C68.5319 38.143 67.4759 36.515 67.4759 33.952C67.4759 31.4 68.5319 29.772 70.3469 29.772ZM70.3469 30.96C69.3129 30.96 68.8289 32.148 68.8289 33.952C68.8289 35.767 69.3129 36.955 70.3469 36.955C71.3809 36.955 71.8649 35.767 71.8649 33.952C71.8649 32.148 71.3809 30.96 70.3469 30.96Z" fill="#A6A6A6"></path>
    <path d="M76.8567 29.772C78.6717 29.772 79.7277 31.4 79.7277 33.952C79.7277 36.515 78.6717 38.143 76.8567 38.143C75.0417 38.143 73.9857 36.515 73.9857 33.952C73.9857 31.4 75.0417 29.772 76.8567 29.772ZM76.8567 30.96C75.8227 30.96 75.3387 32.148 75.3387 33.952C75.3387 35.767 75.8227 36.955 76.8567 36.955C77.8907 36.955 78.3747 35.767 78.3747 33.952C78.3747 32.148 77.8907 30.96 76.8567 30.96Z" fill="#A6A6A6"></path>
    <path d="M83.4984 29.772V38H82.1674V32.104L80.8474 32.852L80.2754 31.653L83.4544 29.772H83.4984Z" fill="#A6A6A6"></path>
    <path d="M63.8711 41.772C65.4001 41.772 66.4231 42.795 66.4231 44.247C66.4231 45.204 66.1041 45.875 65.4991 46.667L63.8711 48.801H66.5111V50H61.4401V49.934L64.3771 45.974C64.9051 45.27 65.0811 44.863 65.0811 44.214C65.0811 43.433 64.5641 42.971 63.8711 42.971C63.1341 42.971 62.7271 43.389 62.5731 44.258L61.3631 43.972C61.6491 42.509 62.5071 41.772 63.8711 41.772Z" fill="#A6A6A6"></path>
    <path d="M70.1106 41.772C71.9256 41.772 72.9816 43.4 72.9816 45.952C72.9816 48.515 71.9256 50.143 70.1106 50.143C68.2956 50.143 67.2396 48.515 67.2396 45.952C67.2396 43.4 68.2956 41.772 70.1106 41.772ZM70.1106 42.96C69.0766 42.96 68.5926 44.148 68.5926 45.952C68.5926 47.767 69.0766 48.955 70.1106 48.955C71.1446 48.955 71.6286 47.767 71.6286 45.952C71.6286 44.148 71.1446 42.96 70.1106 42.96Z" fill="#A6A6A6"></path>
    <path d="M76.7523 41.772V50H75.4213V44.104L74.1013 44.852L73.5293 43.653L76.7083 41.772H76.7523Z" fill="#A6A6A6"></path>
    <path d="M82.7778 41.915V43.114H79.7418V45.138C79.9728 45.039 80.2588 44.951 80.6438 44.951C82.1398 44.951 83.2728 45.853 83.2728 47.569C83.2728 49.043 82.2608 50.143 80.6438 50.143C79.2798 50.143 78.4108 49.527 78.0038 48.361L79.1368 47.822C79.3348 48.537 79.7968 48.944 80.5558 48.944C81.3588 48.944 81.9308 48.35 81.9308 47.514C81.9308 46.667 81.3698 46.106 80.5558 46.106C79.9728 46.106 79.5658 46.337 79.2798 46.568L78.3998 46.161V41.915H82.7778Z" fill="#A6A6A6"></path>
  </g>
  <defs>
    <clipPath id="clip0_4580_2616">
      <rect width="126" height="100" fill="white" transform="translate(0.666504)"></rect>
    </clipPath>
  </defs>
</svg>
