<?xml version="1.0" encoding="UTF-8"?>
<svg xmlns="http://www.w3.org/2000/svg" width="143" height="45" viewBox="0 0 143 45" fill="none">
  <path d="M87.1448 0V22.4527L86.861 22.6893L86.5771 22.9259L86.3051 23.1743L86.045 23.4227L85.7966 23.6711L85.5483 23.9314L85.3118 24.1916L85.0753 24.4519V0H60.2055V20.4416H58.1478V0H33.278V20.4771H31.2203V0H6.3505V23.3399L0 44.5031H5.58181L8.38454 35.1341H9.1887L13.8244 44.5031H20.5652L16.0713 35.1341H26.2652L23.4389 44.5031H29.5292L32.3201 35.1577H33.6682V35.134H35.584H35.7378H47.2443L44.548 44.4794H50.6975L53.311 35.134H56.0782L56.1491 44.4794H61.3052L67.23 35.134H71.1089L69.0985 44.4794H75.1533L77.1282 35.134H80.6287L80.605 35.6663L80.6176 36.2105L80.6412 36.731L80.6885 37.2515L80.7239 37.4999L80.7594 37.7484L80.8066 37.9968L80.8539 38.2452L80.913 38.4936L80.9721 38.7302L81.043 38.9668L81.1138 39.2034L81.1967 39.44L81.2796 39.6648L81.3741 39.8895L81.4688 40.1024L81.5752 40.3272L81.6817 40.5401L81.8 40.7412L81.9183 40.9542L82.0485 41.1553L82.1904 41.3446L82.3323 41.5457L82.486 41.7231L82.6398 41.9124L82.7935 42.0898L82.9709 42.2673L83.1483 42.4329L83.373 42.6222L83.5977 42.8114L83.8342 42.9889L84.0825 43.1545L84.3309 43.3201L84.5792 43.4739L84.8394 43.604L85.1114 43.7459L85.3715 43.8642L85.6435 43.9825L85.9155 44.089L86.1993 44.1955L86.4832 44.2902L86.767 44.373L87.0508 44.4557L87.3346 44.5267L87.9023 44.6568L88.4817 44.7515L89.0494 44.8343L89.617 44.9053L90.1728 44.9526L90.7168 44.9763L91.249 45H91.7575L92.4434 44.9888L93.1293 44.9776L93.827 44.9421L94.5247 44.9066L95.2225 44.8473L95.9202 44.7881L96.6179 44.7171L97.3157 44.6344L98.0252 44.5396L98.7348 44.4332L99.4443 44.3149L100.154 44.1966L100.863 44.0665L101.573 43.9246L102.283 43.7826L103.004 43.617L105.109 35.1352H112.015V0.00109441H87.1454L87.1448 0ZM8.65653 34.2587L8.69198 34.1286L8.77483 34.2587H8.65653ZM30.3215 21.6719L29.9667 22.8667L26.6555 33.8683L26.5254 34.2587H15.6456L14.806 32.4605L26.5254 20.4771H18.9923L9.82726 30.3549L12.7956 20.4771H7.2374V0.887232H30.3215V21.6719H30.3215ZM36.743 30.97L36.5656 30.9812L36.4 30.9925L36.2226 31.0037H36.0334H35.7851H35.5722L35.3712 31.0149H35.1819L33.7037 31.0037L34.3896 28.4721L34.7089 27.2182L35.4894 24.2726H35.7378H35.9979L36.2463 24.2614H36.4828H37.6299L38.3276 24.2726L38.9662 24.2963L39.25 24.3076L39.522 24.3313L39.7822 24.3668L40.0187 24.4023L40.2316 24.4378L40.4326 24.497L40.6218 24.5562L40.7874 24.6272L40.9293 24.6982L41.0594 24.7929L41.1777 24.8876L41.2723 25.0059L41.3313 25.1006L41.3786 25.1953L41.4259 25.3018L41.4613 25.4201L41.485 25.5501L41.4975 25.6802V25.8222V25.9759L41.485 26.1416L41.4738 26.3072L41.4384 26.4964L41.4029 26.6857L41.2965 27.0879L41.1663 27.5375L41.0362 27.916L40.8943 28.2827L40.7406 28.6258L40.575 28.9452L40.4922 29.0871L40.4093 29.2291L40.3146 29.371L40.2081 29.5011L40.1017 29.6312L39.9952 29.7495L39.8769 29.8677L39.7586 29.9742L39.6284 30.0689L39.4983 30.1754L39.3564 30.2582L39.2027 30.3529L39.0489 30.4357L38.8834 30.5067L38.7178 30.5777L38.5404 30.6369L38.3512 30.7079L38.1502 30.7552L37.9373 30.8025L37.7244 30.8498L37.4879 30.8853L37.2514 30.9208L37.0031 30.9445L36.7429 30.9682L36.743 30.97ZM53.5593 34.2587L55.9836 25.623L56.0783 34.2587H53.5594H53.5593ZM57.249 20.4416H51.478L47.5045 34.2587H41.3787L41.6625 34.1404L41.9463 34.0221L42.2183 33.9038L42.4903 33.7738L42.7505 33.6437L42.9988 33.4899L43.2472 33.3479L43.4837 33.1942L43.7202 33.0285L43.9449 32.8629L44.1578 32.6973L44.3706 32.508L44.5717 32.3306L44.7609 32.1295L44.9501 31.9402L45.1275 31.7273L45.3049 31.5262L45.4705 31.3014L45.6242 31.0885L45.7779 30.8519L45.9198 30.6153L46.0499 30.3787L46.1801 30.1303L46.2984 29.87L46.4167 29.6098L46.5232 29.3495L46.6177 29.0774L46.7124 28.7935L46.7833 28.5096L46.8661 28.2257L46.9252 27.9181L46.9843 27.6224L47.0671 27.1492L47.138 26.6997L47.1853 26.2738L47.2207 25.8716L47.2333 25.4694L47.2207 25.1027L47.2096 24.736L47.1624 24.3929L47.1151 24.0735L47.0322 23.7541L46.9494 23.4584L46.8311 23.1744L46.701 22.9024L46.5591 22.6303L46.3935 22.3819L46.2043 22.1453L46.0505 21.9797L45.8968 21.814L45.7313 21.6721L45.5539 21.542L45.3646 21.4119L45.1754 21.2937L44.9744 21.1872L44.7734 21.0925L44.5605 20.9978L44.3476 20.9268L44.1229 20.8558L43.8982 20.7848L43.6617 20.7256L43.4252 20.6783L43.1887 20.631L42.9403 20.5955L42.4318 20.5245L41.9233 20.489L41.403 20.4535L40.8708 20.4423H39.8065H38.754H38.4229H37.8316H37.0984H36.2824H35.49H34.816H34.3429H34.1656V0.887863H57.2496V20.4423L57.249 20.4416ZM71.2745 34.2587H67.8095L73.0602 25.9779L71.2745 34.2587ZM84.1765 20.832L84.164 25.623L83.8683 26.0371L83.5963 26.4629L83.3243 26.8888L83.076 27.3147L82.8395 27.7405L82.603 28.1782L82.4019 28.6041L82.2009 29.03L82.0117 29.444L81.8461 29.8699L81.6805 30.2839L81.5386 30.6861L81.4085 31.0883L81.2902 31.4787L81.1837 31.8572L81.0891 32.2358L81.03 32.4842L80.9709 32.7445L80.9118 32.9929L80.8645 33.2531L80.8173 33.5016L80.7818 33.75L80.7464 33.9984L80.7227 34.2587H77.3287L80.2261 20.4771L70.4579 20.4659L61.7186 34.2593H61.08V0.887835H84.1759V20.8326L84.1765 20.832ZM97.4924 39.9014L97.0076 39.9842L96.5109 40.0552L96.0142 40.1262L95.5293 40.1854L95.0445 40.2327L94.5596 40.2682L94.0866 40.2919H93.6135H93.3061L92.9986 40.2807L92.7029 40.2569L92.4073 40.2214L92.1235 40.1742L91.8515 40.1269L91.5795 40.0677L91.3193 39.9967L91.071 39.9139L90.8226 39.8311L90.5861 39.7246L90.3614 39.6181L90.1367 39.488L89.9239 39.358L89.7228 39.216L89.5336 39.0741L89.3444 38.9085L89.1788 38.731L89.0133 38.5536L88.8595 38.3525L88.7176 38.1514L88.5875 37.9266L88.4692 37.7018L88.3509 37.4652L88.2562 37.2168L88.1734 36.9447L88.1025 36.6727L88.0316 36.3887L87.9843 36.093L87.9489 35.7854L87.9252 35.466L87.9127 35.1348H98.6742L97.4917 39.9021L97.4924 39.9014ZM111.139 34.2587H105.321L106.279 30.4022H94.6187L93.6608 34.2587H88.0199V33.4661L88.0908 33.1348L88.1499 32.8036L88.2208 32.4487L88.2917 32.0938L88.3982 31.7035L88.5047 31.3131L88.623 30.9227L88.7531 30.5441L88.895 30.1656L89.0487 29.7871L89.2143 29.4203L89.3798 29.0536L89.5691 28.6869L89.7583 28.3438L89.9593 27.9889L90.184 27.6577L90.4087 27.3265L90.6334 27.0071L90.8817 26.6995L91.1419 26.4038L91.4139 26.1199L91.6859 25.8596L91.9815 25.5994L92.2772 25.3509L92.5847 25.1262L92.9158 24.9132L93.2469 24.724L93.5899 24.5465L93.9446 24.3809L94.3112 24.239L94.6897 24.1207L95.0799 24.026L95.482 23.9432L95.8959 23.884L96.3216 23.8485L96.7592 23.8372L97.1021 23.8485L97.4451 23.8722L97.788 23.9195L98.1192 23.9905L98.2847 24.0377L98.4385 24.085L98.5922 24.1323L98.7341 24.2033L98.876 24.2625L99.0179 24.3453L99.148 24.4281L99.2782 24.5109L99.3965 24.6174L99.5148 24.7239L99.6213 24.8304L99.7278 24.9604L99.8224 25.0787L99.9053 25.2207L99.9762 25.3744L100.047 25.5282L100.106 25.6938L100.153 25.8713L100.189 26.0487L100.224 26.2498L100.237 26.4509V26.6639V26.8886L100.213 27.1252H107.167L107.273 26.6402L107.368 26.0842L107.415 25.7885L107.439 25.4691L107.462 25.1497V24.8184L107.451 24.4754L107.416 24.1205L107.38 23.9549L107.357 23.7774L107.31 23.6L107.262 23.4225L107.203 23.2333L107.144 23.0558L107.073 22.8784L106.99 22.7009L106.908 22.5235L106.801 22.3461L106.695 22.1686L106.576 21.9912L106.434 21.8019L106.281 21.6244L106.127 21.447L105.961 21.2814L105.784 21.1158L105.595 20.962L105.405 20.82L105.204 20.6781L104.992 20.5361L104.779 20.4178L104.554 20.2996L104.318 20.1813L104.081 20.0748L103.833 19.9683L103.572 19.8736L103.312 19.7789L103.052 19.6961L102.768 19.6251L102.496 19.5541L102.201 19.4831L101.905 19.4239L101.609 19.3647L101.302 19.3174L100.983 19.2819L100.332 19.2109L99.67 19.1517L98.9722 19.128L98.2627 19.1168L97.7305 19.128L97.1747 19.1392L96.5952 19.1747L95.9921 19.222L95.3653 19.293L94.7268 19.3758L94.0763 19.4823L93.4141 19.6242L93.083 19.6952L92.74 19.778L92.4089 19.8727L92.0659 19.9674L91.723 20.0739L91.38 20.1922L91.0371 20.3105L90.7059 20.4405L90.363 20.5825L90.0201 20.7363L89.6889 20.89L89.346 21.0557L89.0149 21.2331L88.6837 21.4224L88.3526 21.6117L88.0215 21.8246V0.886123H111.141V34.2576L111.139 34.2587Z" fill="white"></path>
</svg>
