<?xml version="1.0" encoding="UTF-8"?>
<svg xmlns="http://www.w3.org/2000/svg" width="100" height="40" viewBox="0 0 100 40" fill="none">
  <path d="M77.462 0V19.9579L77.2098 20.1682L76.9575 20.3785L76.7157 20.5994L76.4844 20.8202L76.2637 21.041L76.0429 21.2723L75.8327 21.5037L75.6225 21.735V0H53.516V18.1703H51.6869V0H29.5804V18.2019H27.7514V0H5.64489V20.7466L0 39.5583H4.96161L7.45293 31.2303H8.16774L12.2884 39.5583H18.2802L14.2856 31.2303H23.3469L20.8345 39.5583H26.2482L28.729 31.2513H29.9273V31.2302H31.6302H31.7669H41.995L39.5983 39.5373H45.0644L47.3875 31.2302H49.8473L49.9104 39.5373H54.4935L59.76 31.2302H63.2079L61.4209 39.5373H66.8029L68.5584 31.2302H71.6699L71.6489 31.7034L71.6601 32.1871L71.6811 32.6498L71.7231 33.1124L71.7546 33.3333L71.7861 33.5541L71.8281 33.7749L71.8701 33.9957L71.9226 34.2165L71.9752 34.4269L72.0382 34.6372L72.1012 34.8475L72.1748 35.0578L72.2485 35.2576L72.3325 35.4573L72.4167 35.6466L72.5113 35.8464L72.606 36.0357L72.7111 36.2144L72.8163 36.4037L72.932 36.5825L73.0581 36.7507L73.1843 36.9295L73.3209 37.0872L73.4576 37.2555L73.5942 37.4132L73.7519 37.5709L73.9096 37.7181L74.1093 37.8864L74.309 38.0546L74.5193 38.2123L74.74 38.3596L74.9608 38.5068L75.1815 38.6435L75.4128 38.7591L75.6545 38.8853L75.8858 38.9904L76.1276 39.0955L76.3694 39.1902L76.6216 39.2849L76.8739 39.369L77.1262 39.4426L77.3785 39.5162L77.6308 39.5793L78.1353 39.6949L78.6504 39.7791L79.155 39.8527L79.6596 39.9158L80.1536 39.9578L80.6372 39.9789L81.1102 40H81.5622L82.1719 39.99L82.7816 39.98L83.4018 39.9485L84.022 39.9169L84.6422 39.8643L85.2624 39.8117L85.8826 39.7486L86.5028 39.675L87.1335 39.5908L87.7642 39.4961L88.3949 39.391L89.0257 39.2859L89.6564 39.1702L90.2871 39.0441L90.9178 38.9179L91.559 38.7707L93.4301 31.2312H99.5691V0.000972813H77.4626L77.462 0ZM7.69469 30.4521L7.7262 30.3365L7.79985 30.4521H7.69469ZM26.9525 19.2639L26.6371 20.326L23.6938 30.1051L23.5781 30.4521H13.9072L13.1608 28.8538L23.5781 18.2019H16.8821L8.73535 26.9821L11.3738 18.2019H6.43324V0.788651H26.9524V19.2639H26.9525ZM32.6604 27.5289L32.5027 27.5389L32.3556 27.5489L32.1979 27.5588H32.0297H31.8089H31.6197L31.441 27.5688H31.2728L29.9589 27.5588L30.5685 25.3086L30.8524 24.1939L31.5461 21.5757H31.7669H31.9982L32.2189 21.5657H32.4292H33.4488L34.069 21.5757L34.6366 21.5967L34.8889 21.6067L35.1307 21.6278L35.362 21.6594L35.5722 21.6909L35.7614 21.7225L35.9401 21.7751L36.1083 21.8277L36.2555 21.8908L36.3816 21.9539L36.4973 22.0381L36.6024 22.1223L36.6865 22.2275L36.739 22.3116L36.781 22.3958L36.823 22.4905L36.8545 22.5956L36.8755 22.7112L36.8866 22.8269V22.953V23.0897L36.8755 23.2369L36.8656 23.3841L36.8341 23.5524L36.8026 23.7206L36.708 24.0782L36.5923 24.4777L36.4766 24.8142L36.3505 25.1402L36.2138 25.4451L36.0667 25.729L35.993 25.8552L35.9194 25.9814L35.8352 26.1076L35.7406 26.2232L35.6459 26.3388L35.5513 26.444L35.4461 26.5491L35.3409 26.6438L35.2253 26.7279L35.1096 26.8226L34.9835 26.8962L34.8468 26.9804L34.7102 27.054L34.563 27.1171L34.4158 27.1802L34.2582 27.2328L34.09 27.2959L33.9113 27.338L33.7221 27.38L33.5328 27.422L33.3226 27.4536L33.1124 27.4851L32.8916 27.5062L32.6604 27.5273L32.6604 27.5289ZM47.6083 30.4521L49.7632 22.776L49.8474 30.4521H47.6084H47.6083ZM50.888 18.1703H45.7582L42.2262 30.4521H36.7811L37.0333 30.347L37.2856 30.2419L37.5274 30.1367L37.7692 30.0211L38.0004 29.9055L38.2212 29.7688L38.4419 29.6426L38.6522 29.5059L38.8624 29.3587L39.0621 29.2115L39.2514 29.0643L39.4406 28.896L39.6193 28.7383L39.7875 28.5595L39.9557 28.3913L40.1133 28.202L40.271 28.0233L40.4182 27.8235L40.5548 27.6342L40.6915 27.4239L40.8176 27.2136L40.9333 27.0033L41.0489 26.7825L41.1541 26.5511L41.2593 26.3198L41.3539 26.0885L41.438 25.8466L41.5221 25.5942L41.5851 25.3419L41.6588 25.0895L41.7113 24.8161L41.7638 24.5532L41.8375 24.1326L41.9005 23.7331L41.9425 23.3545L41.974 22.997L41.9851 22.6395L41.974 22.3135L41.9641 21.9875L41.9221 21.6826L41.8801 21.3987L41.8064 21.1148L41.7328 20.8519L41.6276 20.5995L41.512 20.3577L41.3858 20.1158L41.2387 19.895L41.0705 19.6847L40.9338 19.5375L40.7972 19.3903L40.65 19.2641L40.4923 19.1485L40.3241 19.0328L40.1559 18.9277L39.9772 18.833L39.7985 18.7489L39.6093 18.6647L39.4201 18.6016L39.2204 18.5385L39.0207 18.4753L38.8104 18.4227L38.6002 18.3807L38.3899 18.3387L38.1692 18.3071L37.7172 18.244L37.2652 18.2124L36.8027 18.1809L36.3296 18.1709H35.3836H34.448H34.1537H33.6281H32.9763H32.251H31.5467H30.9475H30.5271H30.3694V0.789212H50.8886V18.1709L50.888 18.1703ZM63.3551 30.4521H60.2751L64.9424 23.0915L63.3551 30.4521V30.4521ZM74.8236 18.5173L74.8124 22.776L74.5496 23.1441L74.3079 23.5226L74.0661 23.9011L73.8453 24.2797L73.6351 24.6582L73.4249 25.0473L73.2462 25.4259L73.0675 25.8044L72.8993 26.1724L72.7521 26.551L72.6049 26.919L72.4788 27.2765L72.3631 27.634L72.258 27.9811L72.1633 28.3175L72.0792 28.654L72.0266 28.8749L71.9741 29.1062L71.9216 29.327L71.8796 29.5583L71.8376 29.7792L71.8061 30L71.7746 30.2208L71.7536 30.4521H68.7366L71.3121 18.2019L62.6292 18.1919L54.861 30.4527H54.2933V0.789187H74.823V18.5179L74.8236 18.5173ZM86.6599 35.4679L86.2289 35.5415L85.7874 35.6046L85.3459 35.6677L84.915 35.7203L84.484 35.7624L84.053 35.7939L83.6325 35.815H83.212H82.9387L82.6654 35.805L82.4026 35.7839L82.1398 35.7524L81.8875 35.7104L81.6458 35.6683L81.404 35.6157L81.1727 35.5526L80.952 35.479L80.7312 35.4054L80.521 35.3108L80.3213 35.2161L80.1215 35.1005L79.9323 34.9849L79.7536 34.8587L79.5854 34.7325L79.4172 34.5853L79.2701 34.4276L79.1229 34.2698L78.9863 34.0911L78.8601 33.9123L78.7445 33.7125L78.6393 33.5127L78.5341 33.3024L78.45 33.0816L78.3763 32.8398L78.3133 32.5979L78.2503 32.3455L78.2083 32.0827L78.1768 31.8093L78.1558 31.5254L78.1446 31.2309H87.7104L86.6593 35.4686L86.6599 35.4679ZM98.7906 30.4521H93.6188L94.4703 27.0242H84.1055L83.2541 30.4521H78.2399V29.7476L78.3029 29.4532L78.3554 29.1588L78.4185 28.8433L78.4815 28.5279L78.5761 28.1808L78.6708 27.8338L78.776 27.4868L78.8916 27.1503L79.0178 26.8139L79.1544 26.4774L79.3016 26.1514L79.4488 25.8254L79.617 25.4995L79.7851 25.1945L79.9638 24.8791L80.1636 24.5846L80.3633 24.2902L80.563 24.0063L80.7838 23.7329L81.015 23.47L81.2568 23.2176L81.4986 22.9863L81.7614 22.755L82.0242 22.5342L82.2975 22.3344L82.5918 22.1451L82.8861 21.9769L83.191 21.8191L83.5063 21.6719L83.8322 21.5457L84.1686 21.4406L84.5155 21.3564L84.8729 21.2828L85.2408 21.2302L85.6192 21.1986L86.0082 21.1887L86.313 21.1986L86.6179 21.2197L86.9227 21.2617L87.217 21.3249L87.3642 21.3669L87.5009 21.4089L87.6375 21.4509L87.7637 21.5141L87.8898 21.5667L88.0159 21.6403L88.1316 21.7139L88.2473 21.7874L88.3524 21.8821L88.4576 21.9768L88.5522 22.0714L88.6469 22.187L88.731 22.2922L88.8047 22.4184L88.8677 22.5551L88.9307 22.6918L88.9833 22.839L89.0253 22.9967L89.0568 23.1544L89.0883 23.3332L89.0994 23.5119V23.7012V23.901L89.0784 24.1113H95.2594L95.354 23.6802L95.4382 23.186L95.4802 22.9231L95.5012 22.6392L95.5222 22.3553V22.0608L95.5123 21.7559L95.4808 21.4404L95.4493 21.2932L95.4283 21.1355L95.3863 20.9778L95.3443 20.82L95.2918 20.6518L95.2392 20.4941L95.1762 20.3363L95.1026 20.1786L95.0289 20.0209L94.9343 19.8632L94.8396 19.7054L94.7345 19.5477L94.6083 19.3795L94.4717 19.2217L94.335 19.064L94.1878 18.9168L94.0302 18.7696L93.862 18.6329L93.6938 18.5067L93.5151 18.3805L93.3259 18.2543L93.1366 18.1492L92.9369 18.0441L92.7267 17.9389L92.5165 17.8443L92.2957 17.7496L92.0644 17.6654L91.8332 17.5812L91.6019 17.5076L91.3496 17.4445L91.1079 17.3814L90.8451 17.3183L90.5823 17.2657L90.3195 17.213L90.0462 17.171L89.7623 17.1395L89.1842 17.0764L88.5955 17.0237L87.9753 17.0026L87.3446 16.9927L86.8716 17.0026L86.3775 17.0126L85.8624 17.0442L85.3263 17.0862L84.7692 17.1493L84.2016 17.2229L83.6234 17.3176L83.0347 17.4437L82.7404 17.5068L82.4356 17.5804L82.1412 17.6646L81.8364 17.7488L81.5315 17.8435L81.2267 17.9486L80.9218 18.0537L80.6275 18.1694L80.3227 18.2955L80.0178 18.4322L79.7235 18.5689L79.4186 18.7162L79.1243 18.8739L78.83 19.0421L78.5357 19.2104L78.2413 19.3996V0.787665H98.792V30.4512L98.7906 30.4521Z" fill="#1E88E8"></path>
</svg>
