<?xml version="1.0" encoding="UTF-8"?>
<svg xmlns="http://www.w3.org/2000/svg" width="130" height="36" viewBox="0 0 130 36" fill="none">
  <g clip-path="url(#clip0_4887_340)">
    <path d="M71.5471 28.8113C70.0754 28.8113 68.7735 28.5849 67.6981 28.1887C66.6226 27.7925 65.7169 27.1698 65.0377 26.434C64.3585 25.6981 63.7924 24.7925 63.4528 23.7736C63.1132 22.7547 62.9434 21.6226 62.9434 20.3774V7.13208H67.7547V19.9811C67.7547 20.8302 67.8679 21.566 68.0377 22.1887C68.2075 22.8113 68.4905 23.2642 68.8301 23.6604C69.1698 24.0566 69.566 24.283 70.0754 24.4528C70.5283 24.6226 71.0943 24.6793 71.6603 24.6793C72.849 24.6793 73.7547 24.3396 74.4905 23.6038C75.2264 22.8679 75.566 21.6792 75.566 19.9811V7.13208H80.3773V20.3208C80.3773 21.566 80.2075 22.6981 79.8679 23.7736C79.5283 24.7925 78.9622 25.6981 78.283 26.434C77.5471 27.1698 76.6415 27.7359 75.566 28.1887C74.3773 28.6415 73.0188 28.8113 71.5471 28.8113Z" fill="white"></path>
    <path d="M92.4906 19.3585V24.8491C92.8302 24.9057 93.2264 24.9057 93.6226 24.9623C94.0189 24.9623 94.4717 25.0189 94.9811 25.0189C96.3962 25.0189 97.5849 24.7925 98.434 24.3962C99.3396 24 99.7359 23.2076 99.7359 22.1321C99.7359 21.1698 99.3396 20.434 98.6038 20.0377C97.8679 19.6415 96.7925 19.4151 95.434 19.4151H92.4906V19.3585ZM92.4906 15.6793H94.8113C96.283 15.6793 97.3585 15.5094 97.9811 15.1132C98.6038 14.717 98.9434 14.1509 98.9434 13.3019C98.9434 12.4528 98.6038 11.8302 97.9811 11.4906C97.3019 11.1509 96.3396 10.9811 95.0943 10.9811C94.6981 10.9811 94.2453 10.9811 93.7925 10.9811C93.3396 10.9811 92.8868 11.0377 92.5472 11.0377V15.6793H92.4906ZM94.9245 28.8679C93.7359 28.8679 92.6038 28.8113 91.4717 28.7547C90.3396 28.6981 89.0943 28.5283 87.8491 28.2453V7.64151C88.8113 7.4717 89.8868 7.30189 91.0755 7.24529C92.2642 7.13208 93.3396 7.13208 94.3019 7.13208C95.6604 7.13208 96.9057 7.24529 98.0377 7.4151C99.1698 7.58491 100.132 7.92453 100.981 8.43397C101.774 8.8868 102.453 9.50944 102.906 10.3019C103.358 11.0943 103.585 12 103.585 13.1321C103.585 14.8302 102.792 16.1887 101.151 17.1509C102.509 17.6604 103.415 18.3396 103.925 19.2453C104.434 20.1509 104.66 21.1132 104.66 22.2453C104.66 24.4528 103.868 26.151 102.226 27.283C100.528 28.3019 98.0943 28.8679 94.9245 28.8679Z" fill="white"></path>
    <path d="M113.774 28.5848H108.792C109.585 26.3207 110.377 24.1697 111.057 22.2452C111.792 20.3207 112.472 18.4527 113.151 16.7546C113.83 15.0565 114.509 13.415 115.189 11.8867C115.868 10.3584 116.547 8.8301 117.283 7.3584H121.811C122.491 8.8301 123.17 10.3584 123.849 11.8867C124.528 13.415 125.208 15.0565 125.887 16.7546C126.566 18.4527 127.302 20.3207 127.981 22.2452C128.717 24.1697 129.453 26.3207 130.245 28.5848H125.094C124.925 28.0188 121.359 17.8867 119.943 13.8112C119.774 13.2452 118.981 13.2452 118.755 13.8112C117.453 17.9433 113.943 28.0188 113.774 28.5848Z" fill="white"></path>
    <path d="M49.3585 17.3207C52.8679 14.2641 55.6415 10.415 57.6226 7.3584H51.9623C48.566 12.3961 45.9057 14.6603 44.2641 15.9622V7.3584H39.4528V17.9999V28.6414H44.2641V20.0376C45.9057 21.3395 48.566 23.6037 51.9623 28.6414H57.6226C55.5849 25.5848 52.8113 21.7358 49.3585 18.6792C48.9623 18.2829 48.9623 17.6603 49.3585 17.3207Z" fill="white"></path>
    <path d="M15 33C6.73585 33 0 26.2642 0 18C0 9.67925 6.73585 3 15 3V33Z" fill="white"></path>
    <path d="M25.5849 7.3584C31.4151 13.1886 31.4151 22.698 25.5849 28.5848L17.0943 20.0942C15.9057 18.9056 15.9057 17.0376 17.0943 15.849L25.5849 7.3584Z" fill="white"></path>
  </g>
  <defs>
    <clipPath id="clip0_4887_340">
      <rect width="130" height="36" fill="white"></rect>
    </clipPath>
  </defs>
</svg>
