<?xml version="1.0" encoding="UTF-8"?>
<svg xmlns="http://www.w3.org/2000/svg" width="278" height="120" viewBox="0 0 278 120" fill="none">
  <path d="M92.1624 81.1965C92.1624 81.1005 92.1473 81.0158 92.1172 80.9424C92.089 80.8671 92.0383 80.7994 91.9649 80.7391C91.8935 80.6789 91.7938 80.6215 91.666 80.5669C91.54 80.5123 91.3802 80.4568 91.1866 80.4003C90.9835 80.3401 90.8002 80.2733 90.6366 80.1998C90.473 80.1246 90.333 80.0389 90.2164 79.9429C90.0998 79.8469 90.0105 79.7368 89.9485 79.6126C89.8864 79.4883 89.8554 79.3462 89.8554 79.1862C89.8554 79.0262 89.8883 78.8785 89.9541 78.743C90.0199 78.6074 90.1139 78.4898 90.2361 78.39C90.3602 78.2884 90.5078 78.2093 90.6789 78.1529C90.85 78.0964 91.0408 78.0682 91.2514 78.0682C91.5598 78.0682 91.8211 78.1275 92.0354 78.246C92.2517 78.3627 92.4162 78.5162 92.529 78.7063C92.6418 78.8945 92.6982 79.0959 92.6982 79.3105H92.1567C92.1567 79.1561 92.1238 79.0197 92.058 78.9011C91.9922 78.7806 91.8926 78.6865 91.7591 78.6187C91.6256 78.5491 91.4564 78.5143 91.2514 78.5143C91.0578 78.5143 90.898 78.5434 90.772 78.6018C90.646 78.6601 90.552 78.7392 90.49 78.839C90.4298 78.9387 90.3997 79.0526 90.3997 79.1806C90.3997 79.2672 90.4176 79.3462 90.4533 79.4178C90.4909 79.4874 90.5482 79.5523 90.6253 79.6126C90.7043 79.6728 90.8039 79.7283 90.9243 79.7792C91.0465 79.83 91.1922 79.8789 91.3614 79.926C91.5945 79.9919 91.7957 80.0653 91.9649 80.1462C92.1341 80.2271 92.2733 80.3184 92.3823 80.4201C92.4933 80.5198 92.575 80.6337 92.6277 80.7617C92.6822 80.8878 92.7095 81.0309 92.7095 81.1909C92.7095 81.3584 92.6756 81.5099 92.6079 81.6454C92.5403 81.781 92.4434 81.8967 92.3175 81.9927C92.1915 82.0887 92.0401 82.1631 91.8634 82.2158C91.6886 82.2666 91.493 82.292 91.2768 82.292C91.0869 82.292 90.8998 82.2656 90.7156 82.2129C90.5332 82.1602 90.3668 82.0812 90.2164 81.9758C90.0679 81.8704 89.9485 81.7405 89.8582 81.5862C89.7699 81.4299 89.7257 81.2492 89.7257 81.0441H90.2672C90.2672 81.1852 90.2944 81.3066 90.349 81.4083C90.4035 81.508 90.4777 81.5909 90.5717 81.6567C90.6676 81.7226 90.7757 81.7716 90.8961 81.8036C91.0183 81.8337 91.1452 81.8487 91.2768 81.8487C91.4667 81.8487 91.6275 81.8224 91.7591 81.7697C91.8907 81.717 91.9903 81.6417 92.058 81.5438C92.1276 81.4459 92.1624 81.3302 92.1624 81.1965Z" fill="white"></path>
  <path d="M93.8531 79.1806V82.2355H93.3286V79.1806H93.8531ZM93.2891 78.3703C93.2891 78.2856 93.3145 78.214 93.3652 78.1557C93.4179 78.0973 93.495 78.0682 93.5965 78.0682C93.6962 78.0682 93.7723 78.0973 93.8249 78.1557C93.8795 78.214 93.9067 78.2856 93.9067 78.3703C93.9067 78.4512 93.8795 78.5209 93.8249 78.5792C93.7723 78.6357 93.6962 78.6639 93.5965 78.6639C93.495 78.6639 93.4179 78.6357 93.3652 78.5792C93.3145 78.5209 93.2891 78.4512 93.2891 78.3703Z" fill="white"></path>
  <path d="M95.1717 79.7876V82.2355H94.6471V79.1806H95.1435L95.1717 79.7876ZM95.0645 80.5923L94.822 80.5838C94.8238 80.3749 94.8511 80.182 94.9038 80.005C94.9564 79.8262 95.0344 79.6709 95.1378 79.5392C95.2412 79.4074 95.37 79.3058 95.5242 79.2342C95.6784 79.1608 95.857 79.1241 96.06 79.1241C96.2029 79.1241 96.3345 79.1448 96.4549 79.1862C96.5752 79.2258 96.6795 79.2888 96.7679 79.3754C96.8563 79.462 96.9249 79.573 96.9738 79.7086C97.0227 79.8441 97.0471 80.0079 97.0471 80.1998V82.2355H96.5254V80.2253C96.5254 80.0653 96.4981 79.9373 96.4436 79.8413C96.3909 79.7453 96.3157 79.6756 96.218 79.6323C96.1202 79.5872 96.0055 79.5646 95.8739 79.5646C95.7197 79.5646 95.5909 79.5919 95.4875 79.6465C95.3841 79.701 95.3014 79.7763 95.2394 79.8723C95.1773 79.9683 95.1322 80.0784 95.104 80.2027C95.0777 80.325 95.0645 80.4549 95.0645 80.5923ZM97.0415 80.3043L96.6918 80.4116C96.6936 80.2441 96.7209 80.0831 96.7736 79.9288C96.8281 79.7745 96.9061 79.637 97.0076 79.5166C97.111 79.3961 97.2379 79.3011 97.3884 79.2314C97.5388 79.1599 97.7108 79.1241 97.9045 79.1241C98.068 79.1241 98.2128 79.1458 98.3388 79.1891C98.4666 79.2324 98.5738 79.2992 98.6603 79.3895C98.7486 79.478 98.8154 79.5919 98.8605 79.7312C98.9056 79.8704 98.9282 80.0361 98.9282 80.2281V82.2355H98.4036V80.2224C98.4036 80.0511 98.3764 79.9185 98.3219 79.8243C98.2692 79.7283 98.194 79.6615 98.0962 79.6239C98.0003 79.5843 97.8857 79.5646 97.7522 79.5646C97.6375 79.5646 97.536 79.5843 97.4476 79.6239C97.3592 79.6634 97.285 79.718 97.2248 79.7876C97.1646 79.8554 97.1186 79.9335 97.0866 80.022C97.0565 80.1104 97.0415 80.2046 97.0415 80.3043Z" fill="white"></path>
  <path d="M100.202 79.7679V83.4101H99.677V79.1806H100.156L100.202 79.7679ZM102.258 80.6827V80.7419C102.258 80.9641 102.231 81.1702 102.179 81.3603C102.126 81.5485 102.049 81.7123 101.947 81.8516C101.848 81.9908 101.725 82.0991 101.578 82.1762C101.431 82.2534 101.263 82.292 101.073 82.292C100.879 82.292 100.708 82.26 100.56 82.196C100.411 82.132 100.285 82.0388 100.182 81.9165C100.078 81.7941 99.9957 81.6473 99.9337 81.476C99.8735 81.3047 99.8322 81.1118 99.8096 80.8972V80.581C99.8322 80.3551 99.8745 80.1528 99.9365 79.974C99.9985 79.7952 100.08 79.6427 100.182 79.5166C100.285 79.3886 100.41 79.2917 100.557 79.2258C100.704 79.158 100.873 79.1241 101.065 79.1241C101.256 79.1241 101.427 79.1618 101.575 79.2371C101.724 79.3105 101.849 79.4159 101.95 79.5533C102.052 79.6907 102.128 79.8554 102.179 80.0474C102.231 80.2375 102.258 80.4493 102.258 80.6827ZM101.733 80.7419V80.6827C101.733 80.5302 101.717 80.3871 101.685 80.2535C101.653 80.118 101.603 79.9994 101.536 79.8977C101.47 79.7942 101.385 79.7133 101.282 79.6549C101.178 79.5947 101.055 79.5646 100.912 79.5646C100.781 79.5646 100.666 79.5872 100.568 79.6323C100.472 79.6775 100.391 79.7387 100.323 79.8159C100.255 79.8912 100.2 79.9777 100.156 80.0756C100.115 80.1716 100.084 80.2714 100.063 80.3749V81.1062C100.101 81.2379 100.154 81.3622 100.221 81.4789C100.289 81.5937 100.379 81.6869 100.492 81.7584C100.605 81.828 100.747 81.8628 100.918 81.8628C101.059 81.8628 101.18 81.8337 101.282 81.7753C101.385 81.7151 101.47 81.6332 101.536 81.5297C101.603 81.4262 101.653 81.3076 101.685 81.1739C101.717 81.0384 101.733 80.8944 101.733 80.7419Z" fill="white"></path>
  <path d="M103.452 77.8988V82.2355H102.927V77.8988H103.452Z" fill="white"></path>
  <path d="M104.818 79.1806V82.2355H104.294V79.1806H104.818ZM104.254 78.3703C104.254 78.2856 104.28 78.214 104.331 78.1557C104.383 78.0973 104.46 78.0682 104.562 78.0682C104.661 78.0682 104.738 78.0973 104.79 78.1557C104.845 78.214 104.872 78.2856 104.872 78.3703C104.872 78.4512 104.845 78.5209 104.79 78.5792C104.738 78.6357 104.661 78.6639 104.562 78.6639C104.46 78.6639 104.383 78.6357 104.331 78.5792C104.28 78.5209 104.254 78.4512 104.254 78.3703Z" fill="white"></path>
  <path d="M106.396 82.2355H105.875V78.8587C105.875 78.6385 105.914 78.4531 105.993 78.3025C106.074 78.15 106.19 78.0352 106.34 77.9581C106.49 77.879 106.669 77.8395 106.876 77.8395C106.936 77.8395 106.996 77.8432 107.056 77.8508C107.118 77.8583 107.179 77.8696 107.237 77.8846L107.209 78.311C107.169 78.3016 107.124 78.295 107.073 78.2912C107.024 78.2875 106.976 78.2856 106.927 78.2856C106.816 78.2856 106.72 78.3082 106.639 78.3533C106.56 78.3966 106.5 78.4606 106.458 78.5453C106.417 78.63 106.396 78.7345 106.396 78.8587V82.2355ZM107.045 79.1806V79.5815H105.392V79.1806H107.045Z" fill="white"></path>
  <path d="M108.445 81.9193L109.294 79.1806H109.853L108.629 82.707C108.601 82.7823 108.563 82.8633 108.516 82.9499C108.471 83.0383 108.412 83.1221 108.341 83.2011C108.27 83.2802 108.183 83.3442 108.082 83.3931C107.982 83.444 107.863 83.4694 107.723 83.4694C107.682 83.4694 107.629 83.4637 107.565 83.4524C107.502 83.4411 107.456 83.4317 107.43 83.4242L107.427 83.0007C107.442 83.0026 107.466 83.0044 107.498 83.0063C107.532 83.0101 107.555 83.012 107.568 83.012C107.687 83.012 107.787 82.996 107.87 82.964C107.953 82.9339 108.022 82.8821 108.079 82.8087C108.137 82.7372 108.187 82.6383 108.228 82.5122L108.445 81.9193ZM107.822 79.1806L108.615 81.5523L108.75 82.1028L108.375 82.2948L107.252 79.1806H107.822Z" fill="white"></path>
  <path d="M109.99 81.9588C109.99 81.8704 110.017 81.796 110.071 81.7358C110.128 81.6737 110.209 81.6426 110.314 81.6426C110.419 81.6426 110.499 81.6737 110.554 81.7358C110.61 81.796 110.638 81.8704 110.638 81.9588C110.638 82.0454 110.61 82.1188 110.554 82.1791C110.499 82.2393 110.419 82.2694 110.314 82.2694C110.209 82.2694 110.128 82.2393 110.071 82.1791C110.017 82.1188 109.99 82.0454 109.99 81.9588Z" fill="white"></path>
  <path d="M113.484 78.1246V82.2355H112.94V78.1246H113.484ZM115.204 79.974V80.4201H113.365V79.974H115.204ZM115.483 78.1246V78.5707H113.365V78.1246H115.483Z" fill="white"></path>
  <path d="M115.815 80.7419V80.677C115.815 80.4568 115.847 80.2526 115.911 80.0643C115.975 79.8742 116.067 79.7095 116.187 79.5702C116.308 79.4291 116.453 79.3199 116.624 79.2427C116.795 79.1637 116.987 79.1241 117.2 79.1241C117.414 79.1241 117.607 79.1637 117.778 79.2427C117.951 79.3199 118.097 79.4291 118.218 79.5702C118.34 79.7095 118.433 79.8742 118.497 80.0643C118.561 80.2526 118.593 80.4568 118.593 80.677V80.7419C118.593 80.9622 118.561 81.1664 118.497 81.3546C118.433 81.5429 118.34 81.7076 118.218 81.8487C118.097 81.988 117.952 82.0972 117.781 82.1762C117.611 82.2534 117.42 82.292 117.205 82.292C116.991 82.292 116.798 82.2534 116.627 82.1762C116.456 82.0972 116.309 81.988 116.187 81.8487C116.067 81.7076 115.975 81.5429 115.911 81.3546C115.847 81.1664 115.815 80.9622 115.815 80.7419ZM116.337 80.677V80.7419C116.337 80.8944 116.355 81.0384 116.39 81.1739C116.426 81.3076 116.48 81.4262 116.551 81.5297C116.624 81.6332 116.715 81.7151 116.825 81.7753C116.934 81.8337 117.061 81.8628 117.205 81.8628C117.348 81.8628 117.473 81.8337 117.58 81.7753C117.689 81.7151 117.78 81.6332 117.851 81.5297C117.923 81.4262 117.976 81.3076 118.012 81.1739C118.049 81.0384 118.068 80.8944 118.068 80.7419V80.677C118.068 80.5264 118.049 80.3843 118.012 80.2507C117.976 80.1151 117.922 79.9956 117.848 79.8921C117.777 79.7867 117.687 79.7039 117.578 79.6436C117.47 79.5834 117.344 79.5533 117.2 79.5533C117.057 79.5533 116.931 79.5834 116.822 79.6436C116.715 79.7039 116.624 79.7867 116.551 79.8921C116.48 79.9956 116.426 80.1151 116.39 80.2507C116.355 80.3843 116.337 80.5264 116.337 80.677Z" fill="white"></path>
  <path d="M120.43 81.8628C120.554 81.8628 120.669 81.8374 120.774 81.7866C120.88 81.7358 120.966 81.6662 121.034 81.5777C121.101 81.4873 121.14 81.3847 121.149 81.2699H121.646C121.636 81.4506 121.575 81.6191 121.462 81.7753C121.352 81.9297 121.206 82.0548 121.025 82.1508C120.845 82.2449 120.646 82.292 120.43 82.292C120.201 82.292 120.001 82.2515 119.83 82.1706C119.66 82.0897 119.519 81.9786 119.407 81.8374C119.296 81.6963 119.212 81.5344 119.156 81.3518C119.101 81.1673 119.074 80.9725 119.074 80.7674V80.6488C119.074 80.4436 119.101 80.2497 119.156 80.0671C119.212 79.8827 119.296 79.7199 119.407 79.5787C119.519 79.4375 119.66 79.3265 119.83 79.2455C120.001 79.1646 120.201 79.1241 120.43 79.1241C120.669 79.1241 120.878 79.1731 121.056 79.2709C121.235 79.3669 121.375 79.4987 121.477 79.6662C121.58 79.8319 121.636 80.0201 121.646 80.2309H121.149C121.14 80.1048 121.104 79.9909 121.042 79.8893C120.982 79.7876 120.899 79.7067 120.794 79.6465C120.691 79.5843 120.569 79.5533 120.43 79.5533C120.27 79.5533 120.136 79.5853 120.027 79.6493C119.92 79.7114 119.834 79.7961 119.77 79.9034C119.708 80.0088 119.663 80.1264 119.635 80.2563C119.609 80.3843 119.595 80.5151 119.595 80.6488V80.7674C119.595 80.901 119.609 81.0328 119.635 81.1626C119.661 81.2925 119.705 81.4102 119.768 81.5156C119.831 81.621 119.917 81.7057 120.024 81.7697C120.133 81.8318 120.269 81.8628 120.43 81.8628Z" fill="white"></path>
  <path d="M124.061 81.5297V79.1806H124.586V82.2355H124.087L124.061 81.5297ZM124.16 80.8859L124.377 80.8803C124.377 81.0836 124.356 81.2718 124.312 81.445C124.271 81.6163 124.203 81.765 124.109 81.8911C124.015 82.0172 123.892 82.116 123.74 82.1875C123.588 82.2572 123.402 82.292 123.184 82.292C123.036 82.292 122.899 82.2704 122.775 82.2271C122.653 82.1838 122.548 82.117 122.459 82.0266C122.371 81.9363 122.302 81.8186 122.254 81.6737C122.207 81.5287 122.183 81.3546 122.183 81.1513V79.1806H122.705V81.157C122.705 81.2944 122.72 81.4083 122.75 81.4986C122.782 81.5871 122.824 81.6577 122.877 81.7104C122.931 81.7612 122.992 81.797 123.057 81.8177C123.125 81.8384 123.195 81.8487 123.266 81.8487C123.488 81.8487 123.664 81.8064 123.793 81.7217C123.923 81.6351 124.016 81.5193 124.073 81.3744C124.131 81.2276 124.16 81.0648 124.16 80.8859Z" fill="white"></path>
  <path d="M127.12 81.4252C127.12 81.3499 127.103 81.2803 127.069 81.2163C127.037 81.1504 126.97 81.0911 126.869 81.0384C126.769 80.9838 126.619 80.9368 126.418 80.8972C126.249 80.8615 126.095 80.8191 125.958 80.7702C125.823 80.7212 125.707 80.6619 125.611 80.5923C125.517 80.5227 125.445 80.4408 125.394 80.3467C125.343 80.2526 125.318 80.1424 125.318 80.0163C125.318 79.8959 125.344 79.782 125.397 79.6747C125.451 79.5674 125.527 79.4723 125.625 79.3895C125.725 79.3067 125.844 79.2418 125.983 79.1947C126.123 79.1477 126.278 79.1241 126.449 79.1241C126.693 79.1241 126.902 79.1674 127.075 79.254C127.248 79.3406 127.38 79.4564 127.472 79.6013C127.565 79.7443 127.611 79.9034 127.611 80.0784H127.089C127.089 79.9937 127.064 79.9119 127.013 79.8328C126.964 79.7519 126.892 79.685 126.796 79.6323C126.702 79.5796 126.586 79.5533 126.449 79.5533C126.304 79.5533 126.186 79.5759 126.096 79.621C126.008 79.6643 125.943 79.7199 125.902 79.7876C125.862 79.8554 125.842 79.9269 125.842 80.0022C125.842 80.0587 125.852 80.1095 125.871 80.1547C125.891 80.198 125.927 80.2384 125.978 80.2761C126.029 80.3118 126.1 80.3457 126.192 80.3777C126.284 80.4097 126.402 80.4417 126.545 80.4737C126.795 80.5302 127.001 80.598 127.162 80.677C127.324 80.7561 127.444 80.853 127.523 80.9678C127.602 81.0826 127.642 81.2219 127.642 81.3857C127.642 81.5193 127.614 81.6417 127.557 81.7527C127.503 81.8638 127.423 81.9598 127.317 82.0407C127.214 82.1198 127.09 82.1819 126.945 82.2271C126.802 82.2704 126.641 82.292 126.463 82.292C126.194 82.292 125.966 82.244 125.78 82.148C125.594 82.052 125.453 81.9278 125.357 81.7753C125.261 81.6229 125.214 81.4619 125.214 81.2925H125.738C125.746 81.4356 125.787 81.5494 125.862 81.6341C125.937 81.717 126.029 81.7763 126.139 81.812C126.248 81.8459 126.356 81.8628 126.463 81.8628C126.606 81.8628 126.725 81.844 126.821 81.8064C126.919 81.7687 126.993 81.717 127.044 81.6511C127.095 81.5852 127.12 81.5099 127.12 81.4252Z" fill="white"></path>
  <path d="M128.297 81.9588C128.297 81.8704 128.325 81.796 128.379 81.7358C128.436 81.6737 128.517 81.6426 128.622 81.6426C128.727 81.6426 128.807 81.6737 128.862 81.7358C128.918 81.796 128.946 81.8704 128.946 81.9588C128.946 82.0454 128.918 82.1188 128.862 82.1791C128.807 82.2393 128.727 82.2694 128.622 82.2694C128.517 82.2694 128.436 82.2393 128.379 82.1791C128.325 82.1188 128.297 82.0454 128.297 81.9588Z" fill="white"></path>
  <path d="M133.738 81.7923V82.2355H131.685V81.7923H133.738ZM131.792 78.1246V82.2355H131.248V78.1246H131.792Z" fill="white"></path>
  <path d="M134.811 79.1806V82.2355H134.286V79.1806H134.811ZM134.247 78.3703C134.247 78.2856 134.272 78.214 134.323 78.1557C134.376 78.0973 134.453 78.0682 134.554 78.0682C134.654 78.0682 134.73 78.0973 134.783 78.1557C134.837 78.214 134.865 78.2856 134.865 78.3703C134.865 78.4512 134.837 78.5209 134.783 78.5792C134.73 78.6357 134.654 78.6639 134.554 78.6639C134.453 78.6639 134.376 78.6357 134.323 78.5792C134.272 78.5209 134.247 78.4512 134.247 78.3703Z" fill="white"></path>
  <path d="M136.538 81.764L137.373 79.1806H137.906L136.809 82.2355H136.459L136.538 81.764ZM135.842 79.1806L136.702 81.7781L136.761 82.2355H136.412L135.306 79.1806H135.842Z" fill="white"></path>
  <path d="M139.597 82.292C139.385 82.292 139.192 82.2562 139.019 82.1847C138.848 82.1113 138.7 82.0087 138.576 81.877C138.454 81.7452 138.36 81.589 138.294 81.4083C138.228 81.2276 138.195 81.0299 138.195 80.8154V80.6968C138.195 80.4483 138.232 80.2271 138.305 80.0333C138.379 79.8375 138.478 79.6719 138.604 79.5363C138.73 79.4008 138.873 79.2982 139.033 79.2286C139.193 79.159 139.358 79.1241 139.529 79.1241C139.747 79.1241 139.935 79.1618 140.093 79.2371C140.253 79.3124 140.384 79.4178 140.485 79.5533C140.587 79.6869 140.662 79.845 140.711 80.0276C140.76 80.2083 140.784 80.406 140.784 80.6205V80.8549H138.506V80.4285H140.263V80.389C140.255 80.2535 140.227 80.1217 140.178 79.9937C140.131 79.8657 140.056 79.7603 139.952 79.6775C139.849 79.5947 139.708 79.5533 139.529 79.5533C139.411 79.5533 139.302 79.5787 139.202 79.6295C139.103 79.6785 139.017 79.7519 138.946 79.8497C138.874 79.9476 138.819 80.0672 138.779 80.2083C138.74 80.3495 138.72 80.5123 138.72 80.6968V80.8154C138.72 80.9603 138.74 81.0968 138.779 81.2248C138.821 81.3509 138.88 81.4619 138.957 81.5579C139.036 81.6539 139.131 81.7292 139.242 81.7838C139.355 81.8384 139.482 81.8657 139.625 81.8657C139.81 81.8657 139.966 81.828 140.093 81.7527C140.221 81.6774 140.333 81.5767 140.429 81.4506L140.745 81.7019C140.679 81.8017 140.595 81.8967 140.494 81.9871C140.392 82.0774 140.267 82.1508 140.119 82.2073C139.972 82.2638 139.798 82.292 139.597 82.292Z" fill="white"></path>
  <path d="M144.55 81.7132V80.1406C144.55 80.0201 144.525 79.9156 144.476 79.8272C144.429 79.7368 144.358 79.6672 144.262 79.6182C144.166 79.5693 144.048 79.5448 143.906 79.5448C143.775 79.5448 143.659 79.5674 143.56 79.6126C143.462 79.6578 143.385 79.717 143.328 79.7905C143.274 79.8639 143.247 79.9429 143.247 80.0276H142.725C142.725 79.9184 142.753 79.8102 142.809 79.7029C142.866 79.5956 142.947 79.4987 143.052 79.4121C143.159 79.3236 143.287 79.254 143.436 79.2032C143.586 79.1505 143.753 79.1241 143.938 79.1241C144.159 79.1241 144.355 79.1618 144.524 79.2371C144.695 79.3124 144.829 79.4262 144.925 79.5787C145.022 79.7293 145.071 79.9184 145.071 80.1462V81.5692C145.071 81.6709 145.08 81.7791 145.097 81.8939C145.115 82.0087 145.143 82.1075 145.178 82.1904V82.2355H144.634C144.608 82.1753 144.587 82.0953 144.572 81.9955C144.557 81.8939 144.55 81.7998 144.55 81.7132ZM144.64 80.3834L144.645 80.7504H144.118C143.969 80.7504 143.837 80.7627 143.72 80.7871C143.604 80.8097 143.506 80.8445 143.427 80.8916C143.348 80.9386 143.288 80.9979 143.247 81.0695C143.205 81.1391 143.185 81.221 143.185 81.3151C143.185 81.4111 143.206 81.4986 143.249 81.5777C143.293 81.6567 143.357 81.7198 143.444 81.7668C143.532 81.812 143.64 81.8346 143.768 81.8346C143.928 81.8346 144.069 81.8007 144.191 81.733C144.314 81.6652 144.41 81.5824 144.482 81.4845C144.555 81.3866 144.595 81.2916 144.6 81.1993L144.823 81.4506C144.81 81.5297 144.774 81.6172 144.716 81.7132C144.658 81.8092 144.58 81.9014 144.482 81.9899C144.386 82.0765 144.271 82.1489 144.138 82.2073C144.006 82.2638 143.858 82.292 143.692 82.292C143.485 82.292 143.304 82.2515 143.148 82.1706C142.994 82.0897 142.873 81.9814 142.787 81.8459C142.702 81.7085 142.66 81.5551 142.66 81.3857C142.66 81.2219 142.692 81.0779 142.756 80.9537C142.82 80.8276 142.912 80.7231 143.032 80.6403C143.153 80.5556 143.297 80.4916 143.467 80.4483C143.636 80.405 143.825 80.3834 144.033 80.3834H144.64Z" fill="white"></path>
  <path d="M146.376 79.8328V82.2355H145.854V79.1806H146.347L146.376 79.8328ZM146.252 80.5923L146.034 80.5838C146.036 80.3749 146.067 80.182 146.127 80.005C146.188 79.8262 146.272 79.6709 146.381 79.5392C146.49 79.4074 146.62 79.3058 146.77 79.2342C146.923 79.1608 147.091 79.1241 147.275 79.1241C147.426 79.1241 147.561 79.1448 147.681 79.1862C147.802 79.2258 147.904 79.2898 147.989 79.3782C148.075 79.4667 148.141 79.5815 148.186 79.7227C148.231 79.862 148.254 80.0323 148.254 80.2337V82.2355H147.729V80.2281C147.729 80.0681 147.706 79.9401 147.659 79.8441C147.612 79.7462 147.543 79.6756 147.453 79.6323C147.363 79.5872 147.252 79.5646 147.12 79.5646C146.99 79.5646 146.872 79.5919 146.765 79.6465C146.66 79.701 146.568 79.7763 146.491 79.8723C146.416 79.9683 146.357 80.0784 146.314 80.2027C146.272 80.325 146.252 80.4549 146.252 80.5923Z" fill="white"></path>
  <path d="M150.97 79.1806V82.2355H150.445V79.1806H150.97ZM150.406 78.3703C150.406 78.2856 150.431 78.214 150.482 78.1557C150.535 78.0973 150.612 78.0682 150.713 78.0682C150.813 78.0682 150.889 78.0973 150.942 78.1557C150.996 78.214 151.024 78.2856 151.024 78.3703C151.024 78.4512 150.996 78.5209 150.942 78.5792C150.889 78.6357 150.813 78.6639 150.713 78.6639C150.612 78.6639 150.535 78.6357 150.482 78.5792C150.431 78.5209 150.406 78.4512 150.406 78.3703Z" fill="white"></path>
  <path d="M152.291 79.8328V82.2355H151.77V79.1806H152.263L152.291 79.8328ZM152.167 80.5923L151.95 80.5838C151.952 80.3749 151.983 80.182 152.043 80.005C152.103 79.8262 152.188 79.6709 152.297 79.5392C152.406 79.4074 152.536 79.3058 152.686 79.2342C152.838 79.1608 153.007 79.1241 153.191 79.1241C153.341 79.1241 153.477 79.1448 153.597 79.1862C153.717 79.2258 153.82 79.2898 153.904 79.3782C153.991 79.4667 154.057 79.5815 154.102 79.7227C154.147 79.862 154.17 80.0323 154.17 80.2337V82.2355H153.645V80.2281C153.645 80.0681 153.621 79.9401 153.574 79.8441C153.527 79.7462 153.459 79.6756 153.369 79.6323C153.278 79.5872 153.167 79.5646 153.036 79.5646C152.906 79.5646 152.788 79.5919 152.68 79.6465C152.575 79.701 152.484 79.7763 152.407 79.8723C152.332 79.9683 152.272 80.0784 152.229 80.2027C152.188 80.325 152.167 80.4549 152.167 80.5923Z" fill="white"></path>
  <path d="M156.202 79.1806V79.5815H154.552V79.1806H156.202ZM155.11 78.438H155.632V81.4789C155.632 81.5824 155.648 81.6605 155.68 81.7132C155.712 81.7659 155.753 81.8007 155.804 81.8177C155.855 81.8346 155.909 81.8431 155.968 81.8431C156.011 81.8431 156.056 81.8393 156.103 81.8318C156.152 81.8224 156.188 81.8148 156.213 81.8092L156.216 82.2355C156.174 82.2487 156.12 82.2609 156.052 82.2722C155.986 82.2854 155.906 82.292 155.812 82.292C155.685 82.292 155.567 82.2666 155.46 82.2158C155.353 82.165 155.267 82.0803 155.203 81.9617C155.141 81.8412 155.11 81.6793 155.11 81.476V78.438Z" fill="white"></path>
  <path d="M158.042 82.292C157.829 82.292 157.637 82.2562 157.464 82.1847C157.293 82.1113 157.145 82.0087 157.021 81.877C156.899 81.7452 156.805 81.589 156.739 81.4083C156.673 81.2276 156.64 81.0299 156.64 80.8154V80.6968C156.64 80.4483 156.677 80.2271 156.75 80.0333C156.824 79.8375 156.923 79.6719 157.049 79.5363C157.175 79.4008 157.318 79.2982 157.478 79.2286C157.638 79.159 157.803 79.1241 157.974 79.1241C158.192 79.1241 158.38 79.1618 158.538 79.2371C158.698 79.3124 158.829 79.4178 158.93 79.5533C159.032 79.6869 159.107 79.845 159.156 80.0276C159.205 80.2083 159.229 80.406 159.229 80.6205V80.8549H156.95V80.4285H158.707V80.389C158.7 80.2535 158.672 80.1217 158.623 79.9937C158.576 79.8657 158.501 79.7603 158.397 79.6775C158.294 79.5947 158.153 79.5533 157.974 79.5533C157.856 79.5533 157.747 79.5787 157.647 79.6295C157.547 79.6785 157.462 79.7519 157.39 79.8497C157.319 79.9476 157.263 80.0672 157.224 80.2083C157.185 80.3495 157.165 80.5123 157.165 80.6968V80.8154C157.165 80.9603 157.185 81.0968 157.224 81.2248C157.265 81.3509 157.325 81.4619 157.402 81.5579C157.481 81.6539 157.576 81.7292 157.687 81.7838C157.799 81.8384 157.927 81.8657 158.07 81.8657C158.254 81.8657 158.41 81.828 158.538 81.7527C158.666 81.6774 158.778 81.5767 158.874 81.4506L159.19 81.7019C159.124 81.8017 159.04 81.8967 158.939 81.9871C158.837 82.0774 158.712 82.1508 158.564 82.2073C158.417 82.2638 158.243 82.292 158.042 82.292Z" fill="white"></path>
  <path d="M160.322 79.8328V82.2355H159.8V79.1806H160.294L160.322 79.8328ZM160.198 80.5923L159.981 80.5838C159.983 80.3749 160.014 80.182 160.074 80.005C160.134 79.8262 160.219 79.6709 160.328 79.5392C160.437 79.4074 160.566 79.3058 160.717 79.2342C160.869 79.1608 161.037 79.1241 161.222 79.1241C161.372 79.1241 161.507 79.1448 161.628 79.1862C161.748 79.2258 161.851 79.2898 161.935 79.3782C162.022 79.4667 162.088 79.5815 162.133 79.7227C162.178 79.862 162.2 80.0323 162.2 80.2337V82.2355H161.676V80.2281C161.676 80.0681 161.652 79.9401 161.605 79.8441C161.558 79.7462 161.49 79.6756 161.399 79.6323C161.309 79.5872 161.198 79.5646 161.067 79.5646C160.937 79.5646 160.818 79.5919 160.711 79.6465C160.606 79.701 160.515 79.7763 160.438 79.8723C160.362 79.9683 160.303 80.0784 160.26 80.2027C160.219 80.325 160.198 80.4549 160.198 80.5923Z" fill="white"></path>
  <path d="M164.232 79.1806V79.5815H162.583V79.1806H164.232ZM163.141 78.438H163.663V81.4789C163.663 81.5824 163.679 81.6605 163.711 81.7132C163.743 81.7659 163.784 81.8007 163.835 81.8177C163.885 81.8346 163.94 81.8431 163.998 81.8431C164.042 81.8431 164.087 81.8393 164.134 81.8318C164.183 81.8224 164.219 81.8148 164.244 81.8092L164.246 82.2355C164.205 82.2487 164.151 82.2609 164.083 82.2722C164.017 82.2854 163.937 82.292 163.843 82.292C163.715 82.292 163.598 82.2666 163.491 82.2158C163.383 82.165 163.298 82.0803 163.234 81.9617C163.172 81.8412 163.141 81.6793 163.141 81.476V78.438Z" fill="white"></path>
  <path d="M165.373 79.1806V82.2355H164.849V79.1806H165.373ZM164.809 78.3703C164.809 78.2856 164.835 78.214 164.885 78.1557C164.938 78.0973 165.015 78.0682 165.117 78.0682C165.216 78.0682 165.292 78.0973 165.345 78.1557C165.4 78.214 165.427 78.2856 165.427 78.3703C165.427 78.4512 165.4 78.5209 165.345 78.5792C165.292 78.6357 165.216 78.6639 165.117 78.6639C165.015 78.6639 164.938 78.6357 164.885 78.5792C164.835 78.5209 164.809 78.4512 164.809 78.3703Z" fill="white"></path>
  <path d="M166.035 80.7419V80.677C166.035 80.4568 166.067 80.2526 166.131 80.0643C166.194 79.8742 166.287 79.7095 166.407 79.5702C166.527 79.4291 166.673 79.3199 166.844 79.2427C167.015 79.1637 167.207 79.1241 167.419 79.1241C167.634 79.1241 167.826 79.1637 167.998 79.2427C168.17 79.3199 168.317 79.4291 168.437 79.5702C168.56 79.7095 168.653 79.8742 168.717 80.0643C168.781 80.2526 168.813 80.4568 168.813 80.677V80.7419C168.813 80.9622 168.781 81.1664 168.717 81.3546C168.653 81.5429 168.56 81.7076 168.437 81.8487C168.317 81.988 168.171 82.0972 168 82.1762C167.831 82.2534 167.639 82.292 167.425 82.292C167.211 82.292 167.018 82.2534 166.847 82.1762C166.676 82.0972 166.529 81.988 166.407 81.8487C166.287 81.7076 166.194 81.5429 166.131 81.3546C166.067 81.1664 166.035 80.9622 166.035 80.7419ZM166.556 80.677V80.7419C166.556 80.8944 166.574 81.0384 166.61 81.1739C166.646 81.3076 166.699 81.4262 166.771 81.5297C166.844 81.6332 166.935 81.7151 167.044 81.7753C167.153 81.8337 167.28 81.8628 167.425 81.8628C167.568 81.8628 167.693 81.8337 167.8 81.7753C167.909 81.7151 167.999 81.6332 168.071 81.5297C168.142 81.4262 168.196 81.3076 168.232 81.1739C168.269 81.0384 168.288 80.8944 168.288 80.7419V80.677C168.288 80.5264 168.269 80.3843 168.232 80.2507C168.196 80.1151 168.141 79.9956 168.068 79.8921C167.997 79.7867 167.906 79.7039 167.797 79.6436C167.69 79.5834 167.564 79.5533 167.419 79.5533C167.276 79.5533 167.151 79.5834 167.041 79.6436C166.934 79.7039 166.844 79.7867 166.771 79.8921C166.699 79.9956 166.646 80.1151 166.61 80.2507C166.574 80.3843 166.556 80.5264 166.556 80.677Z" fill="white"></path>
  <path d="M169.951 79.8328V82.2355H169.429V79.1806H169.922L169.951 79.8328ZM169.827 80.5923L169.609 80.5838C169.611 80.3749 169.642 80.182 169.702 80.005C169.763 79.8262 169.847 79.6709 169.956 79.5392C170.065 79.4074 170.195 79.3058 170.345 79.2342C170.498 79.1608 170.666 79.1241 170.85 79.1241C171.001 79.1241 171.136 79.1448 171.256 79.1862C171.377 79.2258 171.479 79.2898 171.564 79.3782C171.65 79.4667 171.716 79.5815 171.761 79.7227C171.806 79.862 171.829 80.0323 171.829 80.2337V82.2355H171.304V80.2281C171.304 80.0681 171.281 79.9401 171.234 79.8441C171.187 79.7462 171.118 79.6756 171.028 79.6323C170.938 79.5872 170.827 79.5646 170.695 79.5646C170.565 79.5646 170.447 79.5919 170.34 79.6465C170.235 79.701 170.143 79.7763 170.066 79.8723C169.991 79.9683 169.932 80.0784 169.889 80.2027C169.847 80.325 169.827 80.4549 169.827 80.5923Z" fill="white"></path>
  <path d="M174.383 81.7132V80.1406C174.383 80.0201 174.358 79.9156 174.309 79.8272C174.262 79.7368 174.191 79.6672 174.095 79.6182C173.999 79.5693 173.881 79.5448 173.74 79.5448C173.608 79.5448 173.492 79.5674 173.393 79.6126C173.295 79.6578 173.218 79.717 173.161 79.7905C173.107 79.8639 173.08 79.9429 173.08 80.0276H172.558C172.558 79.9184 172.586 79.8102 172.643 79.7029C172.699 79.5956 172.78 79.4987 172.885 79.4121C172.992 79.3236 173.12 79.254 173.269 79.2032C173.419 79.1505 173.586 79.1241 173.771 79.1241C173.993 79.1241 174.188 79.1618 174.357 79.2371C174.528 79.3124 174.662 79.4262 174.758 79.5787C174.855 79.7293 174.904 79.9184 174.904 80.1462V81.5692C174.904 81.6709 174.913 81.7791 174.93 81.8939C174.949 82.0087 174.976 82.1075 175.012 82.1904V82.2355H174.467C174.441 82.1753 174.42 82.0953 174.405 81.9955C174.39 81.8939 174.383 81.7998 174.383 81.7132ZM174.473 80.3834L174.479 80.7504H173.951C173.803 80.7504 173.67 80.7627 173.553 80.7871C173.437 80.8097 173.339 80.8445 173.26 80.8916C173.181 80.9386 173.121 80.9979 173.08 81.0695C173.038 81.1391 173.018 81.221 173.018 81.3151C173.018 81.4111 173.039 81.4986 173.083 81.5777C173.126 81.6567 173.191 81.7198 173.277 81.7668C173.365 81.812 173.474 81.8346 173.601 81.8346C173.761 81.8346 173.902 81.8007 174.024 81.733C174.147 81.6652 174.244 81.5824 174.315 81.4845C174.388 81.3866 174.428 81.2916 174.433 81.1993L174.656 81.4506C174.643 81.5297 174.607 81.6172 174.549 81.7132C174.491 81.8092 174.413 81.9014 174.315 81.9899C174.219 82.0765 174.104 82.1489 173.971 82.2073C173.839 82.2638 173.691 82.292 173.525 82.292C173.318 82.292 173.137 82.2515 172.981 82.1706C172.827 82.0897 172.706 81.9814 172.62 81.8459C172.535 81.7085 172.493 81.5551 172.493 81.3857C172.493 81.2219 172.525 81.0779 172.589 80.9537C172.653 80.8276 172.745 80.7231 172.865 80.6403C172.986 80.5556 173.13 80.4916 173.3 80.4483C173.469 80.405 173.658 80.3834 173.867 80.3834H174.473Z" fill="white"></path>
  <path d="M176.254 77.8988V82.2355H175.729V77.8988H176.254Z" fill="white"></path>
  <path d="M179.015 77.8988V82.2355H178.491V77.8988H179.015Z" fill="white"></path>
  <path d="M180.382 79.1806V82.2355H179.857V79.1806H180.382ZM179.817 78.3703C179.817 78.2856 179.843 78.214 179.894 78.1557C179.946 78.0973 180.023 78.0682 180.125 78.0682C180.225 78.0682 180.301 78.0973 180.353 78.1557C180.408 78.214 180.435 78.2856 180.435 78.3703C180.435 78.4512 180.408 78.5209 180.353 78.5792C180.301 78.6357 180.225 78.6639 180.125 78.6639C180.023 78.6639 179.946 78.6357 179.894 78.5792C179.843 78.5209 179.817 78.4512 179.817 78.3703Z" fill="white"></path>
  <path d="M181.96 82.2355H181.438V78.8587C181.438 78.6385 181.477 78.4531 181.556 78.3025C181.637 78.15 181.753 78.0352 181.903 77.9581C182.054 77.879 182.232 77.8395 182.439 77.8395C182.499 77.8395 182.559 77.8432 182.619 77.8508C182.681 77.8583 182.742 77.8696 182.8 77.8846L182.772 78.311C182.732 78.3016 182.687 78.295 182.636 78.2912C182.587 78.2875 182.539 78.2856 182.49 78.2856C182.379 78.2856 182.283 78.3082 182.202 78.3533C182.123 78.3966 182.063 78.4606 182.022 78.5453C181.98 78.63 181.96 78.7345 181.96 78.8587V82.2355ZM182.608 79.1806V79.5815H180.956V79.1806H182.608Z" fill="white"></path>
  <path d="M184.35 82.292C184.137 82.292 183.945 82.2562 183.772 82.1847C183.6 82.1113 183.453 82.0087 183.329 81.877C183.207 81.7452 183.113 81.589 183.047 81.4083C182.981 81.2276 182.948 81.0299 182.948 80.8154V80.6968C182.948 80.4483 182.985 80.2271 183.058 80.0333C183.131 79.8375 183.231 79.6719 183.357 79.5363C183.483 79.4008 183.626 79.2982 183.786 79.2286C183.945 79.159 184.111 79.1241 184.282 79.1241C184.5 79.1241 184.688 79.1618 184.846 79.2371C185.006 79.3124 185.137 79.4178 185.238 79.5533C185.34 79.6869 185.415 79.845 185.464 80.0276C185.513 80.2083 185.537 80.406 185.537 80.6205V80.8549H183.258V80.4285H185.015V80.389C185.008 80.2535 184.98 80.1217 184.931 79.9937C184.884 79.8657 184.808 79.7603 184.705 79.6775C184.602 79.5947 184.461 79.5533 184.282 79.5533C184.164 79.5533 184.055 79.5787 183.955 79.6295C183.855 79.6785 183.77 79.7519 183.698 79.8497C183.627 79.9476 183.571 80.0672 183.532 80.2083C183.492 80.3495 183.473 80.5123 183.473 80.6968V80.8154C183.473 80.9603 183.492 81.0968 183.532 81.2248C183.573 81.3509 183.632 81.4619 183.71 81.5579C183.789 81.6539 183.883 81.7292 183.994 81.7838C184.107 81.8384 184.235 81.8657 184.378 81.8657C184.562 81.8657 184.718 81.828 184.846 81.7527C184.974 81.6774 185.086 81.5767 185.182 81.4506L185.498 81.7019C185.432 81.8017 185.348 81.8967 185.247 81.9871C185.145 82.0774 185.02 82.1508 184.871 82.2073C184.725 82.2638 184.551 82.292 184.35 82.292Z" fill="white"></path>
  <path d="M186.737 78.124V79.8009H186.363V78.124H186.737ZM187.247 78.124V78.4154H185.864V78.124H187.247Z" fill="white"></path>
  <path d="M187.764 78.124H188.074L188.477 79.3229L188.878 78.124H189.189L188.602 79.8009H188.35L187.764 78.124ZM187.584 78.124H187.9L187.959 79.3667V79.8009H187.584V78.124ZM189.052 78.124H189.369V79.8009H188.993V79.3667L189.052 78.124Z" fill="white"></path>
  <path fill-rule="evenodd" clip-rule="evenodd" d="M112.866 57.0138H114.473C116.026 57.0138 117.285 58.2741 117.285 59.8289V62.2065V63.8042H119.413V59.8289C119.413 57.0976 117.201 54.8834 114.473 54.8834H112.866C110.138 54.8834 107.927 57.0976 107.927 59.8289V67.4372C107.927 70.1685 110.138 72.3827 112.866 72.3827H114.473C117.201 72.3827 119.413 70.1685 119.413 67.4372V66.6954L117.285 66.334V67.4372C117.285 68.992 116.026 70.2523 114.473 70.2523H112.866C111.313 70.2523 110.055 68.992 110.055 67.4372V63.8042V62.2065V59.8289C110.055 58.2741 111.313 57.0138 112.866 57.0138Z" fill="white"></path>
  <path d="M117.285 62.2065H110.055V63.8042H117.285V62.2065Z" fill="white"></path>
  <path d="M120.96 55.7204L126.603 72.3827H127.705L131.714 59.6006L135.742 72.3827H136.844L142.486 55.7204H140.435L136.312 68.5405L132.303 55.7204H131.125L127.078 68.5405L122.974 55.7204H120.96Z" fill="white"></path>
  <path d="M159.035 55.7584V72.3637H161.068V60.7419C161.068 58.7447 162.531 57.5844 164.051 57.6415H165.97V55.416H164.469C163.158 55.416 161.742 56.1838 160.84 57.3752L159.757 55.7584H159.035Z" fill="white"></path>
  <path fill-rule="evenodd" clip-rule="evenodd" d="M150.876 57.0138H149.269C147.716 57.0138 146.457 58.2741 146.457 59.8289V67.4372C146.457 68.992 147.716 70.2523 149.269 70.2523H150.876C152.429 70.2523 153.688 68.992 153.688 67.4372V59.8289C153.688 58.2741 152.429 57.0138 150.876 57.0138ZM149.269 54.8834C146.541 54.8834 144.329 57.0976 144.329 59.8289V67.4372C144.329 70.1685 146.541 72.3827 149.269 72.3827H150.876C153.604 72.3827 155.816 70.1685 155.816 67.4372V59.8289C155.816 57.0976 153.604 54.8834 150.876 54.8834H149.269Z" fill="white"></path>
  <path d="M187.648 57.0138H189.434C190.84 57.0138 192.094 58.4974 192.094 59.7528C192.094 59.9897 192.094 60.3424 192.094 60.3424L194.099 60.0381C194.105 59.9437 194.108 59.8486 194.108 59.7528C194.108 57.1686 192.015 55.0736 189.434 55.0736H187.648C185.067 55.0736 182.974 57.1686 182.974 59.7528C182.974 60.9587 183.43 61.9877 184.178 62.7423C185.311 63.9945 187.535 64.3555 189.491 65.0026C191.158 65.5542 192.094 66.334 192.208 67.5133C192.404 69.5413 190.764 70.4806 189.396 70.4806H187.572C186.061 70.4806 184.722 69.026 184.722 67.5133C184.713 67.1258 184.711 66.7593 184.717 66.4482L182.67 66.8163C182.666 67.0373 182.666 67.2694 182.67 67.5133C182.67 70.2026 184.886 72.3827 187.572 72.3827H189.396C192.082 72.3827 194.26 70.4689 194.26 67.5133C194.26 65.8667 193.31 64.4319 191.738 63.7579C190.327 63.153 189.513 62.9031 187.648 62.3777C186.318 61.9212 185.026 60.894 185.026 59.7528C185.026 58.1741 186.242 57.0138 187.648 57.0138Z" fill="white"></path>
  <path d="M168.649 49.025H170.738V72.3827H168.649V49.025Z" fill="white"></path>
  <path d="M99.6809 53.628H101.771V72.3827H99.6809V53.628Z" fill="white"></path>
  <path d="M96.641 57.5464V55.6443H105.685V57.5464H96.641Z" fill="white"></path>
  <path d="M99.6809 53.628H101.771C101.771 51.5739 103.006 50.889 104.317 50.889H106.046V48.9869H104.146C101.904 48.9869 99.6809 50.6418 99.6809 53.628Z" fill="white"></path>
  <path d="M91.4352 49.025H93.8291V51.6689H91.4352V49.025Z" fill="white"></path>
  <path d="M93.6771 72.3827H91.5872V55.7204H93.6771V72.3827Z" fill="white"></path>
  <path d="M76.3877 49.025H78.5916V70.2904H87.5973V72.3827H76.3877V49.025Z" fill="white"></path>
  <path d="M171.099 64.0515L177.958 55.7204H180.713L173.626 64.0515L180.713 72.3827H177.958L171.099 64.0515Z" fill="white"></path>
  <path d="M186.147 42.7861L177.673 39.933L186.47 36.7755L201.404 40.9031L186.147 42.7861Z" fill="url(#paint0_linear_6246_116123)"></path>
  <path d="M175.394 50.813L185.786 52.4297L201.594 41.7019L186.033 44.2317L175.394 50.813Z" fill="url(#paint1_linear_6246_116123)"></path>
  <defs>
    <linearGradient id="paint0_linear_6246_116123" x1="199.125" y1="40.125" x2="181.25" y2="43.9167" gradientUnits="userSpaceOnUse">
      <stop stop-color="#91CDB1"></stop>
      <stop offset="1" stop-color="#5DA192"></stop>
    </linearGradient>
    <linearGradient id="paint1_linear_6246_116123" x1="199.125" y1="40.125" x2="181.25" y2="43.9167" gradientUnits="userSpaceOnUse">
      <stop stop-color="#91CDB1"></stop>
      <stop offset="1" stop-color="#5DA192"></stop>
    </linearGradient>
  </defs>
</svg>
