<?xml version="1.0" encoding="UTF-8"?>
<svg xmlns="http://www.w3.org/2000/svg" width="368" height="80" viewBox="0 0 368 80" fill="none">
  <g clip-path="url(#clip0_1545_444123)">
    <path d="M108 24.7644L99.1418 15.859L99.0832 15.8H99H84H83.8V16V31V31.0828L83.8586 31.1414L92.7172 40L83.8586 48.8586L83.8 48.9172V49V64V64.2H84H99H99.0828L99.1414 64.1414L108 55.2828L116.859 64.1414L116.917 64.2H117H132H132.2V64V49V48.9172L132.141 48.8586L123.283 40L132.141 31.1414L132.2 31.0828V31V16V15.8H132H117H116.917L116.858 15.859L108 24.7644ZM86.6 29.9214V18.6H97.096V31V31.0829L97.1546 31.1414L127.425 61.4H118.079L108.501 51.8586L108.501 51.8583L96.5014 39.8586L96.1414 39.4986L95.6497 39.0069L95.6494 39.0066L86.6 29.9214ZM99.896 29.9212V20.5748L107.955 28.6334L108.097 28.7762L108.239 28.6321L116.14 20.5813V31.672V31.872H116.34H127.461L119.463 39.8585L119.321 39.9999L119.463 40.1414L129.4 50.0788V59.4252L99.896 29.9212ZM106.025 53.296L97.9212 61.4H86.6V50.0788L94.704 41.9748L106.025 53.296ZM129.4 29.096H118.904V18.6H129.4V29.096Z" fill="#9D9EA1" stroke="#9D9EA1" stroke-width="0.4"></path>
  </g>
  <path d="M270 52.5L276.984 43.6289L270.655 35.5H275.478L279.577 40.9618L283.591 35.5H288.373L282.016 43.7565L289 52.5H284.023L279.493 46.6207L274.949 52.5H270Z" fill="#9D9EA1"></path>
  <g clip-path="url(#clip1_1545_444123)">
    <path fill-rule="evenodd" clip-rule="evenodd" d="M201.05 43.9941C201.05 48.9009 197.15 52.516 192.364 52.516C187.578 52.516 183.678 48.9009 183.678 43.9941C183.678 39.0534 187.578 35.4728 192.364 35.4728C197.15 35.4728 201.05 39.0534 201.05 43.9941ZM197.248 43.9941C197.248 40.9284 194.987 38.8308 192.364 38.8308C189.741 38.8308 187.48 40.9284 187.48 43.9941C187.48 47.0298 189.741 49.158 192.364 49.158C194.987 49.158 197.248 47.0259 197.248 43.9941Z" fill="#9D9EA1"></path>
    <path fill-rule="evenodd" clip-rule="evenodd" d="M219.787 43.9941C219.787 48.9009 215.887 52.516 211.102 52.516C206.316 52.516 202.416 48.9009 202.416 43.9941C202.416 39.0574 206.316 35.4728 211.102 35.4728C215.887 35.4728 219.787 39.0534 219.787 43.9941ZM215.985 43.9941C215.985 40.9284 213.724 38.8308 211.102 38.8308C208.478 38.8308 206.218 40.9284 206.218 43.9941C206.218 47.0298 208.478 49.158 211.102 49.158C213.724 49.158 215.985 47.0259 215.985 43.9941Z" fill="#9D9EA1"></path>
    <path fill-rule="evenodd" clip-rule="evenodd" d="M237.744 51.2868C237.744 57.5803 233.973 60.1503 229.515 60.1503C225.318 60.1503 222.793 57.3883 221.841 55.1285L225.151 53.7724C225.74 55.1598 227.185 56.7963 229.511 56.7963C232.365 56.7963 234.133 55.0634 234.133 51.8018V50.5759H234C233.149 51.6091 231.509 52.512 229.441 52.512C225.112 52.512 221.146 48.8005 221.146 44.0253C221.146 39.2148 225.112 35.4728 229.441 35.4728C231.506 35.4728 233.145 36.3751 234 37.3784H234.133V35.991H237.744V51.2868ZM234.402 44.0253C234.402 41.0241 232.369 38.8308 229.78 38.8308C227.157 38.8308 224.96 41.0241 224.96 44.0253C224.96 46.9953 227.157 49.158 229.78 49.158C232.369 49.158 234.402 46.9953 234.402 44.0253Z" fill="#9D9EA1"></path>
    <path d="M243.697 27.0199V51.9937H239.988V27.0199H243.697Z" fill="#9D9EA1"></path>
    <path fill-rule="evenodd" clip-rule="evenodd" d="M258.148 46.7992L261.099 48.7354C260.146 50.1227 257.851 52.512 253.885 52.512C248.966 52.512 245.293 48.7699 245.293 43.9907C245.293 38.9224 248.998 35.4688 253.46 35.4688C257.953 35.4688 260.15 38.9882 260.868 40.8898L261.263 41.8579L249.689 46.576C250.575 48.2862 251.953 49.158 253.885 49.158C255.822 49.158 257.164 48.2205 258.148 46.7992ZM256.801 40.5709C256.375 39.5065 255.095 38.765 253.589 38.765C251.656 38.765 248.966 40.444 249.064 43.7329L256.801 40.5709Z" fill="#9D9EA1"></path>
    <path d="M169.641 41.7775V38.1617H182.019C182.14 38.7922 182.203 39.5377 182.203 40.3443C182.203 43.0565 181.449 46.4112 179.021 48.8005C176.66 51.221 173.642 52.512 169.644 52.512C162.236 52.512 156.005 46.572 156.005 39.2799C156.005 31.9878 162.236 26.0479 169.644 26.0479C173.744 26.0479 176.664 27.6305 178.857 29.6936L176.265 32.245C174.692 30.7925 172.561 29.663 169.641 29.663C164.23 29.663 159.999 33.9545 159.999 39.2799C159.999 44.6053 164.23 48.8969 169.641 48.8969C173.15 48.8969 175.149 47.5095 176.429 46.2498C177.467 45.2279 178.151 43.7675 178.42 41.7735L169.641 41.7775Z" fill="#9D9EA1"></path>
  </g>
  <defs>
    <clipPath id="clip0_1545_444123">
      <rect width="48" height="48" fill="white" transform="translate(84 16)"></rect>
    </clipPath>
    <clipPath id="clip1_1545_444123">
      <rect width="105.301" height="34.1516" fill="white" transform="translate(156 26)"></rect>
    </clipPath>
  </defs>
</svg>
