<?xml version="1.0" encoding="UTF-8"?>
<svg xmlns="http://www.w3.org/2000/svg" width="117" height="32" viewBox="0 0 117 32" fill="none">
  <g clip-path="url(#clip0_4529_6693)">
    <path d="M0 0C0 2.72573 2.12076 4.93541 4.73684 4.93541C7.36042 4.94265 9.4934 2.73353 9.50211 0H0Z" fill="#188540"></path>
    <path d="M112.971 25.6047L109.806 31.3166H116.135L112.971 25.6047Z" fill="#5592F2"></path>
    <path d="M31.6386 8.80786C29.1925 8.81654 27.0533 10.5269 26.4123 12.9865V9.31456H20.8418V31.3164H26.4123V14.5197H31.6386V8.80786Z" fill="#1F5C93"></path>
    <path d="M8.38672 0V6.12644V12.3944V31.3166H14.412V6.12644H19.6099V0H8.38672Z" fill="#1F5C93"></path>
    <path d="M44.0061 9.3147V26.3977H39.6324V9.3147H34.043V25.993C34.0419 28.4676 35.5369 30.6746 37.7752 31.5025C40.0134 32.3303 42.5094 31.5995 44.0061 29.678V31.3232H49.5798V9.3147H44.0061Z" fill="#1F5C93"></path>
    <path d="M69.5143 14.6548C69.5176 12.1798 68.0232 9.97149 65.7848 9.1433C63.5463 8.3151 61.0499 9.0469 59.5543 10.9697V0H53.9648V31.3166H59.5543V14.2336H63.928V31.3166H69.5143V14.6548Z" fill="#1F5C93"></path>
    <path d="M81.1014 8.80786C76.7751 8.80786 73.1309 12.0981 73.1309 16.9282V23.9035C73.1309 28.6941 76.6298 31.8231 80.9087 31.8231C85.1877 31.8231 88.8824 28.5329 88.8824 23.7028V16.7275C88.8824 11.8842 85.3803 8.80786 81.1014 8.80786ZM83.3687 26.4271H78.6319V14.1479H83.3687V26.4271Z" fill="#1F5C93"></path>
    <path d="M100.005 8.80786C95.6755 8.80786 92.0312 12.0981 92.0312 16.9282V23.9035C92.0312 28.6941 95.5302 31.8231 99.8091 31.8231C104.088 31.8231 107.783 28.5329 107.783 23.7028V16.7275C107.783 11.8842 104.281 8.80786 100.005 8.80786ZM102.279 26.4271H97.5418V14.1479H102.279V26.4271Z" fill="#1F5C93"></path>
  </g>
  <defs>
    <clipPath id="clip0_4529_6693">
      <rect width="116.211" height="32" fill="white"></rect>
    </clipPath>
  </defs>
</svg>
