<?xml version="1.0" encoding="UTF-8"?>
<svg xmlns="http://www.w3.org/2000/svg" width="368" height="80" viewBox="0 0 368 80" fill="none">
  <path opacity="0.797216" d="M145.117 16.1979C149.331 20.4101 144.166 28.014 133.563 33.1573C122.961 38.3226 110.931 39.0764 106.717 34.8643C105.109 33.2459 104.86 31.1399 105.789 28.8565C106.06 28.2136 106.446 27.3711 106.74 26.7504C107.465 25.3981 107.533 25.2873 108.099 24.3783C109.119 22.8708 109.481 22.3609 110.818 20.8313C111.792 19.7893 111.973 19.612 113.015 18.6809C114.103 17.7719 114.216 17.6833 115.077 17.0625C116.255 16.2645 116.3 16.2201 117.025 15.7989C118.249 15.1117 118.271 15.0895 118.951 14.757C119.381 14.5574 119.97 14.2914 120.401 14.1141C120.99 13.8924 122.191 13.4046 122.304 13.4046C123.573 13.0056 123.573 13.0056 124.252 12.8283C125.544 12.5179 125.589 12.5179 126.336 12.3849C127.673 12.1853 127.764 12.1632 128.647 12.0967C130.007 12.008 130.21 11.9858 131.298 12.008C132.634 12.0523 132.997 12.0523 134.47 12.2297C135.806 12.4292 136.69 12.5622 138.411 13.0278C139.612 13.3825 140.564 13.6707 142.104 14.3357L143.169 14.8235C143.917 15.2003 144.574 15.6659 145.117 16.1979Z" fill="#A9A9AB"></path>
  <path opacity="0.797216" d="M156.333 47.8551C155.744 49.274 155.721 49.3626 155.268 50.2494C154.543 51.6017 154.475 51.7125 153.908 52.6215C152.889 54.129 152.527 54.6389 151.19 56.1685C150.216 57.2105 150.035 57.3878 148.992 58.3189C147.905 59.2279 147.792 59.3165 146.931 59.9373C145.753 60.7353 145.707 60.7797 144.983 61.2009C143.759 61.8881 143.737 61.9103 143.057 62.2428C142.626 62.4424 142.037 62.7084 141.607 62.8857C141.018 63.1074 139.817 63.5952 139.727 63.5952C138.458 63.9942 138.458 63.9942 137.778 64.1715C136.487 64.4819 136.442 64.4819 135.694 64.6149C134.357 64.8145 134.267 64.8366 133.383 64.9031C132.024 64.9918 131.82 65.014 130.733 64.9918C129.396 64.9475 129.034 64.9475 127.561 64.7701C126.224 64.5706 125.341 64.4376 123.619 63.972C122.169 63.5286 122.011 63.4843 120.991 63.1074C119.587 62.531 119.473 62.4867 118.567 62.0433C118.227 61.866 117.774 61.6221 117.457 61.4448C122.758 64.4376 133.791 63.307 143.646 58.5184C150.714 55.0822 155.449 50.6041 156.763 46.6802C156.627 47.0349 156.468 47.5226 156.333 47.8551Z" fill="#A9A9AB"></path>
  <path opacity="0.797216" d="M152.821 22.8042C153.704 24.0456 153.727 24.0678 154.158 24.7772C154.928 26.0852 154.95 26.1073 155.313 26.8611C155.97 28.2356 155.97 28.2577 156.287 29.0337C156.808 30.4746 156.831 30.4968 157.057 31.2949C157.443 32.7581 157.465 32.7802 157.624 33.6005C157.737 34.2434 157.873 35.1301 157.964 35.773C158.53 40.9384 152.458 47.7887 142.241 52.7545C129.419 59.0062 114.874 59.9151 109.777 54.8162C109.528 54.5724 109.324 54.3285 109.143 54.0847L108.644 53.3753C107.806 52.1116 107.783 52.0895 107.376 51.3579C106.651 50.0056 106.651 49.9834 106.288 49.2296C106.13 48.8528 105.903 48.3651 105.767 47.966C105.246 46.525 105.223 46.5029 104.997 45.7048C104.612 44.2416 104.589 44.2194 104.43 43.3992C104.181 41.9139 104.159 41.8917 104.091 41.0714C104.068 40.6946 104.023 40.1625 104 39.7856C104.068 41.2045 104.634 42.5124 105.744 43.6209C110.796 48.6533 125.137 47.7443 137.824 41.5813C150.125 35.5957 156.31 26.8833 152.051 21.7622C152.255 22.0947 152.594 22.4938 152.821 22.8042Z" fill="#A9A9AB"></path>
  <path opacity="0.797216" fill-rule="evenodd" clip-rule="evenodd" d="M168.152 30.511C167.377 32.3781 167 34.3549 167 36.4416C167 38.5503 167.377 40.5492 168.13 42.3723C168.905 44.2613 170.035 45.9307 171.519 47.4463C172.959 48.896 174.598 50.0162 176.459 50.785C178.319 51.5538 180.911 51.9492 182.971 51.9492C185.009 51.9492 186.294 51.5758 188.155 50.785C190.015 50.0162 191.677 48.874 193.139 47.4024C194.601 45.9307 195.708 44.2613 196.484 42.3943C197.259 40.5272 197.635 38.5284 197.635 36.4416C197.635 34.3769 197.259 32.4 196.484 30.533C195.708 28.6659 194.601 26.9965 193.139 25.5249C191.677 24.0751 190.015 22.9549 188.155 22.1642C186.294 21.3954 184.345 21 182.329 21C180.291 21 178.342 21.3734 176.481 22.1422C174.642 22.911 172.981 24.0093 171.541 25.4809C170.057 26.9746 168.927 28.6439 168.152 30.511ZM171.807 41.4792C171.222 40.0446 170.93 38.4979 170.93 36.839C170.93 35.2251 171.222 33.7007 171.829 32.2661C172.391 30.809 173.223 29.5089 174.348 28.3432C175.427 27.2224 176.642 26.3481 178.036 25.7653C179.408 25.1601 180.869 24.8687 182.376 24.8687C183.883 24.8687 185.322 25.1601 186.694 25.7653C188.043 26.3481 189.257 27.2224 190.337 28.3656C191.439 29.5313 192.293 30.8314 192.855 32.2661C193.418 33.7007 193.71 35.2251 193.71 36.839C193.71 38.4754 193.418 39.9998 192.833 41.4568C192.248 42.9139 191.416 44.2141 190.314 45.3797C189.257 46.5005 188.043 47.3524 186.671 47.9576C185.299 48.5629 183.86 48.8543 182.354 48.8543C180.869 48.8543 179.43 48.5629 178.036 47.9576C176.642 47.3748 175.405 46.5005 174.325 45.3797C173.223 44.2141 172.391 42.9139 171.807 41.4792Z" fill="#A9A9AB"></path>
  <path opacity="0.797216" d="M201.641 51.6465V30.9765H205.101V34.0273C205.749 32.8114 206.62 31.9492 207.736 31.3966C208.852 30.866 210.371 30.5786 212.269 30.5786H213.251V34.1599H212.67C210.103 34.1599 208.25 34.7568 207.111 35.9727C205.972 37.1886 205.392 39.1561 205.392 41.8752V51.6244H201.641V51.6465Z" fill="#A9A9AB"></path>
  <path opacity="0.797216" d="M215.436 21.4702H219.21V41.278C219.21 43.4445 219.835 45.1909 221.063 46.5394C222.291 47.8879 223.899 48.5511 225.863 48.5511C227.873 48.5511 229.481 47.8879 230.731 46.5394C231.981 45.1909 232.606 43.4223 232.606 41.2338C232.606 39.1336 231.959 37.4314 230.686 36.105C229.414 34.7786 227.761 34.1154 225.729 34.1154C224.814 34.1154 223.921 34.2701 223.05 34.5796C222.179 34.8891 221.309 35.3754 220.46 36.0165V32.0373C221.309 31.551 222.202 31.1972 223.162 30.9762C224.1 30.7551 225.104 30.6225 226.131 30.6225C227.114 30.6225 228.119 30.7772 229.079 31.0646C230.061 31.3741 230.932 31.7941 231.736 32.3468C233.254 33.3858 234.415 34.668 235.219 36.1934C236.023 37.7188 236.424 39.3989 236.424 41.2559C236.424 44.3729 235.442 46.9373 233.455 48.9712C231.468 50.9829 228.967 51.9998 225.953 51.9998C223.943 51.9998 222.09 51.4914 220.415 50.4965C218.741 49.5017 217.468 48.109 216.575 46.3626C216.173 45.5888 215.861 44.7488 215.682 43.8203C215.503 42.8918 215.414 41.499 215.414 39.6421V21.4702H215.436Z" fill="#A9A9AB"></path>
  <path opacity="0.797216" fill-rule="evenodd" clip-rule="evenodd" d="M240.751 23.2267C240.287 23.6797 240.055 24.2231 240.055 24.8572C240.055 25.4913 240.287 26.0575 240.751 26.4877C241.216 26.9633 241.773 27.1897 242.423 27.1897C243.096 27.1897 243.653 26.9633 244.095 26.5104C244.536 26.0575 244.768 25.4913 244.768 24.8346C244.768 24.1779 244.536 23.6344 244.095 23.2041C243.653 22.7738 243.096 22.5474 242.423 22.5474C241.773 22.5474 241.216 22.7738 240.751 23.2267ZM240.055 31.0586V51.9493H243.982V31.0586H240.055Z" fill="#A9A9AB"></path>
  <path opacity="0.797216" d="M248.172 48.0869H257.192C258.108 48.0869 258.8 47.9101 259.336 47.5564C259.849 47.2027 260.117 46.7163 260.117 46.0973C260.117 45.5889 259.916 45.1246 259.537 44.7709C259.157 44.3951 258.42 43.9972 257.349 43.555L253.776 42.1181C251.677 41.278 250.226 40.4158 249.422 39.5316C248.618 38.6473 248.239 37.542 248.239 36.1713C248.239 34.4912 248.842 33.1869 250.047 32.3026C251.253 31.3962 252.995 30.9541 255.25 30.9541H262.953V34.4028H254.245C253.531 34.4028 252.995 34.5575 252.593 34.867C252.191 35.1765 251.99 35.6187 251.99 36.1713C251.99 36.5914 252.169 36.9672 252.526 37.2988C252.883 37.6304 253.464 37.9841 254.29 38.3157L258.041 39.8411C260.385 40.7917 261.948 41.7202 262.774 42.6044C263.6 43.4887 264.002 44.6162 264.002 45.9868C264.002 47.888 263.288 49.3249 261.859 50.2534C260.43 51.1819 258.219 51.6461 255.25 51.6461H248.217V48.0869H248.172Z" fill="#A9A9AB"></path>
  <path opacity="0.797216" d="M169 64.3104L169.383 63.2909C169.991 63.6813 170.487 63.8765 170.87 63.8765C171.546 63.8765 171.884 63.5945 171.884 63.0523C171.884 62.6618 171.546 62.3147 170.893 62.0327C170.374 61.8158 170.036 61.6423 169.856 61.5338C169.676 61.4254 169.518 61.2952 169.406 61.1434C169.27 60.9915 169.18 60.8397 169.113 60.6661C169.045 60.4926 169.023 60.3191 169.023 60.1238C169.023 59.6249 169.203 59.2562 169.586 58.9742C169.969 58.6922 170.442 58.562 171.05 58.562C171.501 58.562 172.087 58.6922 172.763 58.9742L172.447 59.9503C172.019 59.6032 171.569 59.4514 171.118 59.4514C170.848 59.4514 170.622 59.5165 170.442 59.6249C170.262 59.7551 170.172 59.8852 170.172 60.0804C170.172 60.4709 170.397 60.7529 170.848 60.9481L171.636 61.2952C172.109 61.5121 172.47 61.7507 172.695 62.0327C172.921 62.3147 173.033 62.6401 173.033 63.0523C173.033 63.5945 172.831 64.0067 172.447 64.3104C172.064 64.6141 171.524 64.7659 170.825 64.7659C170.194 64.7659 169.586 64.6141 169 64.3104Z" fill="#A9A9AB"></path>
  <path opacity="0.797216" d="M185.156 65.6769C185.021 66.0674 184.706 66.3711 184.255 66.6314C183.804 66.8917 183.286 67.0001 182.723 67.0001V66.0457C183.173 66.0457 183.579 65.9372 183.895 65.742C184.233 65.5251 184.39 65.2865 184.39 64.9828C184.39 64.6574 184.323 64.332 184.21 64.0066C184.097 63.6813 183.94 63.2908 183.737 62.8353L182.047 58.6704H183.173L184.999 63.2908L186.643 58.6704H187.77L185.156 65.6769Z" fill="#A9A9AB"></path>
  <path opacity="0.797216" d="M196.805 64.3104L197.188 63.2909C197.796 63.6813 198.292 63.8765 198.675 63.8765C199.351 63.8765 199.689 63.5945 199.689 63.0523C199.689 62.6618 199.351 62.3147 198.697 62.0327C198.179 61.8158 197.841 61.6423 197.661 61.5338C197.481 61.4254 197.323 61.2952 197.21 61.1434C197.075 60.9915 196.985 60.8397 196.917 60.6661C196.85 60.4926 196.827 60.3191 196.827 60.1238C196.827 59.6249 197.007 59.2562 197.391 58.9742C197.774 58.6922 198.247 58.562 198.855 58.562C199.306 58.562 199.892 58.6922 200.568 58.9742L200.252 59.9503C199.824 59.6032 199.373 59.4514 198.923 59.4514C198.652 59.4514 198.427 59.5165 198.247 59.6249C198.067 59.7551 197.976 59.8852 197.976 60.0804C197.976 60.4709 198.202 60.7529 198.652 60.9481L199.441 61.2952C199.914 61.5121 200.275 61.7507 200.5 62.0327C200.725 62.3147 200.838 62.6401 200.838 63.0523C200.838 63.5945 200.635 64.0067 200.252 64.3104C199.869 64.6141 199.306 64.7659 198.63 64.7659C197.999 64.7659 197.391 64.6141 196.805 64.3104Z" fill="#A9A9AB"></path>
  <path opacity="0.797216" d="M210.979 59.5163H210.258V58.6703H210.979V57.4121L212.083 57V58.6703H213.795V59.5163H212.083V62.4881C212.083 62.987 212.173 63.3557 212.353 63.5727C212.534 63.7896 212.804 63.898 213.21 63.898C213.502 63.898 213.773 63.833 214.088 63.6811L214.246 64.6139C213.795 64.7223 213.3 64.7874 212.736 64.7874C212.241 64.7874 211.835 64.6139 211.497 64.2668C211.159 63.9197 210.979 63.4642 210.979 62.9436V59.5163Z" fill="#A9A9AB"></path>
  <path opacity="0.797216" fill-rule="evenodd" clip-rule="evenodd" d="M224.919 61.7821H229.221C229.285 61.5917 229.307 61.3801 229.307 61.1474C229.307 60.4069 229.069 59.7933 228.594 59.3491C228.097 58.8836 227.426 58.6509 226.583 58.6509C225.849 58.6509 225.222 58.9048 224.681 59.4337C224.076 60.0261 223.773 60.7877 223.773 61.7609C223.773 62.6918 224.076 63.4323 224.66 63.9824C225.2 64.469 225.827 64.7229 226.583 64.7229C227.102 64.7229 227.578 64.6382 228.01 64.4901C228.356 64.3844 228.594 64.2574 228.767 64.0882L228.313 63.3477C227.902 63.6862 227.405 63.8554 226.8 63.8554C226.281 63.8554 225.849 63.6862 225.503 63.3688C225.114 62.988 224.919 62.4591 224.919 61.7821ZM225.055 59.8587C225.363 59.5593 225.733 59.4097 226.185 59.4097C226.677 59.4097 227.047 59.5593 227.334 59.88C227.601 60.158 227.725 60.5001 227.725 60.9277H224.562C224.604 60.5001 224.768 60.1366 225.055 59.8587Z" fill="#A9A9AB"></path>
  <path opacity="0.797216" d="M246.129 64.6575V60.8614C246.129 59.9069 245.701 59.4514 244.867 59.4514C244.597 59.4514 244.349 59.5382 244.124 59.69C243.899 59.8418 243.741 60.0371 243.651 60.2323V64.6575H242.547V60.4058C242.547 60.1021 242.434 59.8852 242.209 59.7117C241.983 59.5382 241.668 59.4514 241.285 59.4514C241.059 59.4514 240.834 59.5382 240.586 59.69C240.338 59.8635 240.158 60.0371 240.045 60.2323V64.6575H238.941V58.6705H239.662L240.023 59.3646C240.451 58.8223 240.992 58.562 241.623 58.562C242.524 58.562 243.132 58.8223 243.493 59.3646C243.606 59.1477 243.853 58.9525 244.191 58.8006C244.529 58.6488 244.867 58.562 245.228 58.562C245.881 58.562 246.377 58.7355 246.715 59.1043C247.076 59.4731 247.233 59.9937 247.233 60.6444V64.6575H246.129Z" fill="#A9A9AB"></path>
  <path opacity="0.797216" d="M256.969 64.3104L257.352 63.2909C257.96 63.6813 258.456 63.8765 258.839 63.8765C259.515 63.8765 259.853 63.5945 259.853 63.0523C259.853 62.6618 259.515 62.3147 258.861 62.0327C258.366 61.8158 258.005 61.6423 257.825 61.5338C257.645 61.4254 257.487 61.2952 257.374 61.1434C257.239 60.9915 257.149 60.8397 257.081 60.6661C257.014 60.4926 256.991 60.3191 256.991 60.1238C256.991 59.6249 257.172 59.2562 257.555 58.9742C257.938 58.6922 258.411 58.562 259.019 58.562C259.47 58.562 260.056 58.6922 260.732 58.9742L260.416 59.9503C259.988 59.6032 259.537 59.4514 259.087 59.4514C258.816 59.4514 258.591 59.5165 258.411 59.6249C258.231 59.7551 258.14 59.8852 258.14 60.0804C258.14 60.4709 258.366 60.7529 258.816 60.9481L259.605 61.2952C260.078 61.5121 260.439 61.7507 260.664 62.0327C260.889 62.3147 261.002 62.6401 261.002 63.0523C261.002 63.5945 260.799 64.0067 260.416 64.3104C260.033 64.6141 259.47 64.7659 258.794 64.7659C258.163 64.7659 257.532 64.6141 256.969 64.3104Z" fill="#A9A9AB"></path>
</svg>
