<?xml version="1.0" encoding="UTF-8"?>
<svg xmlns="http://www.w3.org/2000/svg" width="368" height="80" viewBox="0 0 368 80" fill="none">
  <path opacity="0.797216" fill-rule="evenodd" clip-rule="evenodd" d="M186.827 4C204.183 4 218.593 16.857 221.057 33.5554C221.151 34.3423 220.896 34.6111 220.418 34.6111C219.763 34.6111 219.107 34.1931 218.968 33.5554C216.665 18.7461 203.869 7.41266 188.428 7.41266C183.981 7.41266 179.754 8.35497 175.933 10.0473C166.078 13.8227 158.662 22.564 156.746 33.196C156.562 34.1651 155.688 34.9543 154.381 34.9543C153.425 34.9543 152.538 34.145 152.65 33.196C155.267 16.6726 169.595 4 186.827 4ZM214.819 52.8703C215.209 51.8195 215.935 51.1187 217.309 51.1187C218.317 51.1187 219.486 51.7441 219.137 52.8675C214.387 66.3281 201.55 75.9999 186.498 75.9999C171.31 75.9999 158.378 66.1559 153.732 52.5075C153.453 51.7139 153.859 51.4518 154.339 51.4518C154.994 51.4518 155.547 51.8721 155.789 52.5075C160.131 64.3373 171.486 72.7767 184.81 72.7767C190.19 72.7767 195.249 71.3996 199.656 68.9795C206.501 65.6976 211.943 59.9387 214.819 52.8703ZM242.206 60.3083C241.451 60.3083 240.961 59.7416 240.961 58.7591C240.961 56.6056 242.168 53.9609 246.17 51.7694C245.49 56.1523 244.584 60.3083 242.206 60.3083ZM206.687 56.5302C206.687 58.9105 206.196 59.8931 205.592 59.8931C204.988 59.8931 204.422 59.4024 204.422 56.6062C204.422 54.6036 204.95 50.4476 204.95 50.4476L204.981 50.4862C205.458 51.0817 206.687 52.6133 206.687 56.5302ZM165.467 46.7822C164.712 48.256 163.504 48.8227 162.9 48.8227C162.032 48.8227 161.277 48.218 161.277 46.0645C161.277 42.6642 163.202 39.1498 165.165 39.1498C166.26 39.1498 166.864 40.0569 166.864 41.1903C166.864 42.0974 166.411 44.9685 165.467 46.7822ZM153.426 38.8099C153.879 38.8099 154.294 39.1498 154.294 39.679C154.294 42.6261 152.557 44.062 149.953 44.062C150.444 41.4927 151.765 38.8099 153.426 38.8099ZM251.642 48.7848C251.524 48.7848 251.354 48.9044 251.142 49.0539C250.877 49.2405 250.546 49.4735 250.169 49.5784C251.245 44.2406 252.075 41.659 252.55 40.1797C252.842 39.2716 253 38.7788 253 38.3187C253 37.9029 252.736 37.79 252.396 37.79C251.83 37.79 250.924 37.9789 249.188 38.3567C248.433 38.5077 248.32 38.886 248.244 39.4902C248.056 41.0389 247.452 44.1755 246.847 45.2335C246.017 46.6688 244.319 48.218 242.733 48.218C242.167 48.218 241.79 47.7268 241.79 46.9337C241.79 45.5977 242.527 43.593 243.187 41.7986L243.187 41.7985C243.722 40.3448 244.205 39.0291 244.205 38.3187C244.205 37.9029 243.941 37.79 243.602 37.79C243.035 37.79 242.129 37.9789 240.393 38.3567C239.676 38.5077 239.563 38.886 239.449 39.4902C239.325 40.0644 239.128 40.756 238.912 41.513L238.912 41.5131C238.429 43.2074 237.853 45.2295 237.797 46.9968C237.117 47.663 236.306 48.218 235.411 48.218C234.844 48.218 234.467 47.7268 234.467 46.9337C234.467 43.0415 237.789 33.9738 238.656 31.9333C239.033 31.0544 239.375 30.3885 239.631 29.891C239.914 29.3406 240.091 28.9963 240.091 28.7978C240.091 28.4194 239.789 28.1931 239.412 28.1931C238.128 28.1931 235.712 29.1376 235.033 29.9687C234.354 30.8004 230.466 43.7222 230.466 47.2735C230.466 47.3607 230.472 47.443 230.478 47.5255L230.48 47.5446C229.949 47.9403 229.361 48.218 228.729 48.218C228.163 48.218 227.786 47.7268 227.786 46.9337C227.786 43.0415 231.107 33.9738 231.976 31.9333C232.352 31.0545 232.694 30.3885 232.95 29.891C233.233 29.3406 233.41 28.9963 233.41 28.7978C233.41 28.4194 233.108 28.1931 232.731 28.1931C231.447 28.1931 229.031 29.1376 228.352 29.9687C227.672 30.8004 223.785 43.7222 223.785 47.2735C223.785 47.5233 223.811 47.7536 223.861 47.9649C223.524 48.1213 223.171 48.218 222.803 48.218C222.237 48.218 221.859 47.7268 221.859 46.9337C221.859 45.5977 222.597 43.593 223.257 41.7986C223.791 40.3449 224.275 39.0291 224.275 38.3187C224.275 37.9029 224.011 37.79 223.671 37.79C223.105 37.79 222.199 37.9789 220.463 38.3567C219.708 38.5077 219.595 38.886 219.519 39.4902C219.293 41.0015 218.5 44.3644 217.896 45.4224C217.066 46.8577 215.594 48.218 214.008 48.218C213.442 48.218 213.065 47.7268 213.065 46.9337C213.065 45.5977 213.802 43.593 214.462 41.7986C214.997 40.3449 215.481 39.0291 215.481 38.3187C215.481 37.9029 215.217 37.79 214.877 37.79C214.31 37.79 213.404 37.9789 211.668 38.3567C210.989 38.5077 210.875 38.9235 210.725 39.4902C210.624 39.87 210.495 40.3116 210.353 40.7963L210.353 40.7965C209.838 42.5609 209.155 44.8956 209.074 46.8901C208.182 47.7016 206.891 48.6059 205.365 48.8602C206.346 43.1929 207.932 37.9789 209.479 33.596C210.043 32.017 210.66 30.7206 211.066 29.8681C211.34 29.2927 211.517 28.9194 211.517 28.7978C211.517 28.4194 211.215 28.1931 210.838 28.1931C209.555 28.1931 207.139 29.1376 206.459 29.9687C205.78 30.8004 202.609 41.946 201.93 45.4979C201.44 45.4979 200.307 46.0646 200.307 47.7268C200.307 47.7648 200.31 47.8039 200.317 47.843C199.911 48.0716 199.478 48.218 199.023 48.218C198.457 48.218 198.08 47.7268 198.08 46.9337C198.08 45.6116 198.497 44.3122 198.875 43.1341C199.189 42.1573 199.476 41.2639 199.476 40.5102C199.476 38.848 198.57 37.9029 196.607 37.9029C194.116 37.9029 190.945 41.0389 190.945 41.0389C191.922 36.6595 192.868 34.4725 193.677 32.6033C193.775 32.3764 193.871 32.1542 193.965 31.9333C194.341 31.0545 194.684 30.3885 194.939 29.891C195.222 29.3406 195.399 28.9963 195.399 28.7978C195.399 28.4194 195.097 28.1931 194.72 28.1931C193.437 28.1931 191.021 29.1376 190.342 29.9687C189.749 30.6936 186.546 42.2758 185.735 47.5848C185.218 47.9598 184.648 48.218 184.038 48.218C183.472 48.218 183.094 47.7268 183.094 46.9337C183.094 44.3991 184.05 40.9735 184.937 38.3238H186.179C186.982 38.3238 187.36 37.0288 187.36 36.718C187.36 36.6398 187.313 36.5627 187.265 36.5627C187.242 36.5627 187.216 36.5849 187.18 36.6164C187.092 36.6922 186.942 36.8214 186.619 36.8214H185.49L185.51 36.77C185.723 36.1918 185.936 35.6871 186.109 35.2758L186.109 35.2755L186.11 35.2731C186.152 35.1745 186.191 35.0814 186.227 34.9938C186.604 34.1153 186.946 33.4494 187.201 32.9518C187.485 32.4009 187.662 32.0563 187.662 31.8578C187.662 31.48 187.36 31.2536 186.982 31.2536C185.699 31.2536 183.283 32.1982 182.604 33.0293C182.339 33.3316 181.811 34.8429 181.245 36.77L181.229 36.8214H179.563C178.775 36.8214 178.413 38.1164 178.413 38.4272C178.413 38.5049 178.429 38.5825 178.492 38.5825C178.521 38.5825 178.552 38.5573 178.595 38.5225C178.689 38.446 178.839 38.3238 179.153 38.3238H180.79C179.97 41.3212 179.199 44.8506 179.104 46.8795C178.401 47.5965 177.549 48.218 176.602 48.218C176.036 48.218 175.658 47.7268 175.658 46.9337C175.658 43.0415 178.98 33.9738 179.848 31.9333C180.224 31.0544 180.567 30.3885 180.823 29.891C181.105 29.3406 181.282 28.9963 181.282 28.7978C181.282 28.4194 180.98 28.1931 180.603 28.1931C179.32 28.1931 176.904 29.1376 176.224 29.9687C175.545 30.8004 171.658 43.7222 171.658 47.2735C171.658 47.5233 171.684 47.7536 171.733 47.9649C171.397 48.1213 171.044 48.218 170.676 48.218C170.11 48.218 169.732 47.7268 169.732 46.9337C169.732 45.3844 170.827 41.7197 171.468 40.2084C171.81 39.4172 172.152 38.9527 172.384 38.637L172.384 38.637C172.562 38.3946 172.676 38.2399 172.676 38.0924C172.676 37.8655 172.525 37.6766 172.299 37.6766C171.506 37.6766 169.355 38.2058 168.298 39.1124C168.147 39.2633 167.996 39.3393 167.882 39.3393C167.769 39.3393 167.694 39.3013 167.505 39.1124C166.939 38.5457 166.033 37.9029 164.599 37.9029C160.635 37.9029 157.389 41.7571 157.389 45.8757C157.389 46.1635 157.414 46.4273 157.451 46.6799C156.456 47.5194 154.868 48.4824 152.821 48.4824C150.821 48.4824 149.84 47.0846 149.84 45.0446C153.313 45.0446 157.2 43.6842 157.2 40.5857C157.2 39.0749 155.917 37.9029 153.728 37.9029C149.462 37.9029 145.725 41.7571 145.725 45.4979C145.725 46.4055 145.906 47.1433 146.217 47.7402C145.764 48.0247 145.276 48.218 144.782 48.218C143.913 48.218 143.385 47.6513 143.385 46.5559C143.385 44.6796 144.155 41.5101 145.081 38.354H147.427C149.803 38.354 150.922 36.0211 150.922 35.4616C150.922 35.3213 150.782 35.1816 150.643 35.1816C150.574 35.1816 150.498 35.2217 150.39 35.2784C150.13 35.415 149.687 35.6477 148.732 35.6477H145.923C146.34 34.3373 146.748 33.1033 147.096 32.0482L147.096 32.0479C147.53 30.7344 147.873 29.6983 148.027 29.1376C148.491 27.4684 149.068 26.4108 149.444 25.7204C149.682 25.2857 149.839 24.9967 149.839 24.7922C149.839 24.2634 149.575 24.0745 149.122 24.0745C148.556 24.0745 146.48 24.5658 145.046 25.0571C143.611 25.5484 143.423 26.1151 142.592 28.9867C142.244 30.1353 141.544 32.7599 140.846 35.6477H133.446C133.624 35.0655 133.802 34.4788 133.975 33.9082C134.588 31.8864 135.141 30.0668 135.383 29.3646C135.727 28.3631 136.093 27.433 136.396 26.661L136.396 26.6609C136.792 25.6561 137.081 24.9191 137.081 24.6413C137.081 24.1505 136.855 23.8856 136.44 23.8856C135.867 23.8856 135.005 24.2301 134.065 24.6056C133.272 24.9227 132.423 25.262 131.646 25.4349C130.627 25.6618 130.363 26.9842 129.947 29.44C129.741 30.6461 129.251 33.079 128.68 35.6477H127.853C125.523 35.6477 124.451 37.9806 124.451 38.5401C124.451 38.6804 124.497 38.8201 124.684 38.8201C124.771 38.8201 124.863 38.7745 124.989 38.7119C125.267 38.5742 125.712 38.354 126.641 38.354H128.081C127.515 40.6913 126.946 42.8302 126.55 43.9866C125.644 46.5179 124.285 48.7468 122.058 48.7468C119.831 48.7468 118.623 47.5004 118.623 46.102C118.623 45.2044 119.164 44.6921 119.742 44.1449C120.404 43.5177 121.115 42.8446 121.115 41.4928C121.115 40.2084 120.36 39.0749 118.661 39.0749C116.963 39.0749 115 40.6237 115 43.4573C115 46.8957 117.718 49.9937 122.549 49.9937C126.173 49.9937 128.815 48.5584 130.249 45.3084C130.856 43.9251 131.734 41.1848 132.614 38.354H140.206C139.396 41.8935 138.704 45.2732 138.704 46.4799C138.704 48.3689 139.61 49.9937 142.441 49.9937C144.055 49.9937 145.5 49.2246 146.621 48.3522C147.63 49.584 149.357 49.9937 151.085 49.9937C154.059 49.9937 156.282 48.6322 157.636 47.4753C158.278 49.356 160.068 49.9937 161.617 49.9937C163.504 49.9937 164.901 48.9737 165.618 48.4069C165.769 48.2935 165.882 48.256 165.957 48.256C166.033 48.256 166.146 48.3315 166.259 48.5204C166.599 49.1251 167.354 49.9937 169.015 49.9937C170.138 49.9937 171.202 49.4767 172.111 48.8094C172.709 49.6449 173.816 49.9937 174.941 49.9937C176.565 49.9937 178.069 48.9139 179.15 47.8603C179.444 49.3884 180.894 49.9937 182.377 49.9937C183.548 49.9937 184.656 49.432 185.59 48.7238C185.562 49.0067 185.548 49.2565 185.548 49.465C185.548 49.8428 185.736 49.9937 186.039 49.9937C186.416 49.9937 189.209 49.9937 189.209 49.0866C189.209 48.1046 190.077 44.2129 190.87 42.7397C191.663 41.2658 193.739 39.5657 194.72 39.5657C195.399 39.5657 195.663 39.868 195.663 40.3593C195.663 41.2502 195.325 42.238 194.96 43.3003C194.537 44.5357 194.078 45.8719 194.078 47.2735C194.078 49.238 195.701 49.9937 197.363 49.9937C198.587 49.9937 199.742 49.3794 200.701 48.6255C200.818 48.7877 200.938 48.933 201.028 49.0419L201.029 49.0421L201.029 49.0422C201.116 49.1474 201.175 49.2185 201.175 49.238C201.175 49.2906 201.145 49.5644 201.098 49.9852C200.943 51.3797 200.609 54.3883 200.609 56.3037C200.609 58.7975 201.741 61.1773 204.534 61.1773C207.328 61.1773 208.196 57.777 208.196 55.737C208.196 51.8073 205.289 49.6539 205.289 49.6539C206.865 49.465 208.167 48.6702 209.12 47.8581C209.414 49.3878 210.864 49.9937 212.347 49.9937C214.574 49.9937 217.255 47.5759 217.859 46.9337C217.859 49.3895 219.482 49.9937 221.142 49.9937C222.265 49.9937 223.331 49.4767 224.239 48.8099C224.837 49.6449 225.943 49.9937 227.069 49.9937C228.415 49.9937 229.679 49.2509 230.688 48.3963C231.186 49.5309 232.454 49.9937 233.75 49.9937C235.325 49.9937 236.788 48.9776 237.862 47.9548C238.195 49.4152 239.619 49.9937 241.072 49.9937C243.3 49.9937 246.281 47.2735 246.885 46.6313C246.885 46.6313 246.433 50.1071 246.243 50.9762C241.223 53.3566 238.656 55.1322 238.656 57.8904C238.656 59.893 240.28 61.1019 242.469 61.1019C247.98 61.1019 249.377 55.8879 250.094 50.485C250.999 50.1071 251.981 49.6539 251.981 49.1626C251.981 48.8982 251.868 48.7848 251.642 48.7848ZM224.539 51.6465H225.1L225.722 52.6475L226.344 51.6465H226.904V54.014H226.388V52.4681L225.722 53.4797H225.708L225.049 52.4781V54.014H224.539V51.6465ZM222.899 52.1269H222.18V51.6468H224.14V52.1269H223.42V54.0143H222.899V52.1269Z" fill="#BBBBBC"></path>
</svg>
