<?xml version="1.0" encoding="UTF-8"?>
<svg xmlns="http://www.w3.org/2000/svg" width="368" height="80" viewBox="0 0 368 80" fill="none">
  <path opacity="0.797216" fill-rule="evenodd" clip-rule="evenodd" d="M239.296 45.3723V45.7463C238.514 45.7023 237.232 45.6803 235.448 45.6803C234.579 45.6803 233.875 45.684 233.337 45.6913C232.799 45.6987 232.441 45.717 232.265 45.7463V45.3723L233.812 45.0643C234.24 44.9763 234.52 44.848 234.652 44.6794C234.785 44.5107 234.851 44.243 234.851 43.8764V32.6565H232.198C231.933 32.6418 231.708 32.6565 231.524 32.7005C231.34 32.7445 231.159 32.8398 230.982 32.9865C230.805 33.1332 230.614 33.3348 230.407 33.5915C230.201 33.8481 229.95 34.1818 229.656 34.5925C229.464 34.8711 229.317 35.0471 229.213 35.1205C229.11 35.1938 229.04 35.1975 229.003 35.1315C228.966 35.0655 228.959 34.9481 228.981 34.7795C229.003 34.6108 229.036 34.4238 229.081 34.2185L229.766 31.4685C229.869 31.0872 229.976 30.8965 230.087 30.8965C230.197 30.8965 230.326 31.0432 230.474 31.3365C230.636 31.6298 230.776 31.8022 230.894 31.8535C231.012 31.9048 231.24 31.9305 231.579 31.9305H240.136C240.401 31.9305 240.611 31.9268 240.766 31.9195C240.921 31.9122 241.046 31.8865 241.142 31.8425C241.238 31.7985 241.319 31.7362 241.385 31.6555C241.451 31.5748 241.521 31.4538 241.595 31.2925C241.698 31.0138 241.824 30.8745 241.971 30.8745C242.163 30.8745 242.258 31.0212 242.258 31.3145L242.214 34.8565C242.214 34.9738 242.196 35.0655 242.159 35.1315C242.122 35.1975 242.071 35.2195 242.004 35.1975C241.938 35.1755 241.868 35.1021 241.794 34.9775C241.72 34.8528 241.654 34.6438 241.595 34.3505C241.521 34.0425 241.444 33.7821 241.363 33.5695C241.282 33.3568 241.168 33.1845 241.02 33.0525C240.873 32.9205 240.678 32.8215 240.434 32.7555C240.191 32.6895 239.885 32.6565 239.517 32.6565H236.819V43.8984C236.819 44.2944 236.867 44.5584 236.963 44.6904C237.059 44.8223 237.262 44.925 237.571 44.9983L239.296 45.3723ZM177.609 45.7682C178.538 45.7389 179.511 45.7169 180.528 45.7022C181.545 45.6876 182.606 45.6802 183.712 45.6802C185.923 45.6802 188.068 45.7022 190.146 45.7462L190.257 41.7643H189.859C189.77 42.4829 189.626 43.0623 189.427 43.5023C189.228 43.9423 188.923 44.2796 188.51 44.5142C188.097 44.7489 187.548 44.9029 186.863 44.9762C186.177 45.0496 185.296 45.0862 184.22 45.0862H180.152L189.637 32.3704V31.9304L181.766 32.0404C181.265 32.0551 180.856 32.0587 180.539 32.0514C180.222 32.0441 179.975 32.0184 179.798 31.9744C179.621 31.9304 179.5 31.8681 179.433 31.7874C179.367 31.7067 179.334 31.6004 179.334 31.4684C179.334 31.3217 179.363 31.1531 179.422 30.9624H179.024L177.698 35.0104H177.941C178.339 34.4384 178.656 33.9984 178.892 33.6904C179.128 33.3824 179.352 33.155 179.566 33.0084C179.78 32.8617 180.016 32.7664 180.274 32.7224C180.532 32.6784 180.889 32.6344 181.346 32.5904L187.249 32.4804L177.609 45.5482V45.7682ZM112.074 45.7353C111.455 45.9333 110.762 46.0323 109.996 46.0323C108.566 46.0323 107.261 45.6876 106.082 44.9983L106.325 41.6983H106.657C106.716 42.2263 106.863 42.714 107.099 43.1613C107.335 43.6086 107.622 43.9973 107.961 44.3273C108.3 44.6573 108.684 44.914 109.111 45.0973C109.539 45.2806 109.973 45.3723 110.416 45.3723C110.814 45.3723 111.201 45.3136 111.576 45.1963C111.952 45.079 112.284 44.9103 112.571 44.6903C112.859 44.4703 113.091 44.2063 113.268 43.8983C113.445 43.5903 113.533 43.2456 113.533 42.8643C113.533 42.5123 113.478 42.2007 113.367 41.9293C113.257 41.658 113.069 41.4013 112.804 41.1593C112.538 40.9173 112.181 40.668 111.731 40.4113C111.282 40.1547 110.725 39.8577 110.062 39.5204C108.75 38.8457 107.803 38.1857 107.221 37.5404C106.638 36.8951 106.347 36.1544 106.347 35.3184C106.347 34.7757 106.458 34.2844 106.679 33.8444C106.9 33.4044 107.21 33.0268 107.608 32.7114C108.006 32.3961 108.474 32.1504 109.012 31.9744C109.55 31.7984 110.136 31.7104 110.769 31.7104C112.052 31.7104 113.121 32.0331 113.975 32.6784L113.887 35.2084H113.577C113.165 33.3018 112.111 32.3484 110.416 32.3484C110.032 32.3484 109.671 32.4071 109.332 32.5244C108.993 32.6418 108.698 32.8031 108.448 33.0084C108.197 33.2138 108.002 33.4521 107.862 33.7234C107.722 33.9948 107.652 34.2844 107.652 34.5924C107.652 34.8564 107.7 35.0947 107.796 35.3074C107.891 35.5201 108.068 35.7364 108.326 35.9564C108.584 36.1764 108.931 36.4147 109.365 36.6714C109.8 36.9281 110.349 37.2251 111.013 37.5624C111.705 37.9144 112.302 38.2334 112.804 38.5194C113.305 38.8054 113.714 39.106 114.031 39.4214C114.348 39.7367 114.58 40.0887 114.727 40.4773C114.875 40.866 114.948 41.339 114.948 41.8963C114.948 42.5123 114.834 43.077 114.606 43.5903C114.377 44.1036 114.053 44.54 113.633 44.8993C113.213 45.2586 112.693 45.5373 112.074 45.7353ZM128.457 45.4823C127.528 45.849 126.15 46.0323 124.322 46.0323C123.187 46.0323 122.152 45.8673 121.216 45.5373C120.28 45.2073 119.48 44.7416 118.817 44.1403C118.153 43.539 117.641 42.813 117.28 41.9623C116.919 41.1117 116.738 40.1584 116.738 39.1024C116.738 38.1197 116.923 37.1847 117.291 36.2974C117.66 35.4101 118.168 34.6254 118.817 33.9434C119.465 33.2614 120.228 32.7188 121.105 32.3154C121.982 31.9121 122.922 31.7104 123.924 31.7104C124.587 31.7104 125.159 31.7251 125.638 31.7544C126.117 31.7838 126.533 31.8314 126.887 31.8974C127.241 31.9634 127.554 32.0551 127.827 32.1724C128.099 32.2898 128.376 32.4364 128.656 32.6124C128.7 32.9644 128.733 33.3458 128.755 33.7564C128.777 34.1671 128.781 34.5631 128.766 34.9444H128.324C128.044 34.0938 127.565 33.4264 126.887 32.9424C126.209 32.4584 125.354 32.2164 124.322 32.2164C123.556 32.2164 122.848 32.3778 122.2 32.7004C121.551 33.0231 120.991 33.4851 120.519 34.0864C120.047 34.6877 119.679 35.4101 119.414 36.2534C119.148 37.0967 119.016 38.0317 119.016 39.0584C119.016 41.185 119.473 42.791 120.386 43.8763C121.3 44.9616 122.634 45.5043 124.388 45.5043C125.42 45.5043 126.301 45.255 127.031 44.7563C127.76 44.2576 128.361 43.5243 128.833 42.5563H129.142C128.98 43.4803 128.752 44.4556 128.457 45.4823ZM146.388 45.7681V45.3941L144.708 45.0861C144.442 45.0421 144.277 44.9541 144.21 44.8221C144.144 44.6901 144.111 44.4701 144.111 44.1621V33.2282C144.111 32.9496 144.14 32.7589 144.199 32.6562C144.258 32.5536 144.383 32.4876 144.575 32.4583L146.123 32.2383V31.8643C145.857 31.8936 145.493 31.9156 145.028 31.9303C144.564 31.9449 144.015 31.9523 143.381 31.9523L143.011 31.9514C142.531 31.949 142.105 31.942 141.734 31.9303C141.27 31.9156 140.897 31.8936 140.617 31.8643V32.2383L141.767 32.3703C141.944 32.3849 142.069 32.4546 142.143 32.5792C142.217 32.7039 142.253 32.9129 142.253 33.2062V38.4422H134.448V33.2282C134.448 32.9496 134.478 32.7589 134.537 32.6562C134.596 32.5536 134.721 32.4876 134.913 32.4583L136.571 32.2383V31.8643C136.306 31.8936 135.941 31.9156 135.477 31.9303C135.012 31.9449 134.448 31.9523 133.785 31.9523L133.461 31.9516C132.935 31.9496 132.476 31.9425 132.083 31.9303C131.611 31.9156 131.235 31.8936 130.955 31.8643V32.2383L132.105 32.3703C132.282 32.3849 132.407 32.4546 132.481 32.5792C132.554 32.7039 132.591 32.9129 132.591 33.2062V44.1621C132.591 44.4701 132.554 44.6901 132.481 44.8221C132.407 44.9541 132.252 45.0421 132.016 45.0861L130.336 45.3941V45.7681C130.704 45.7388 131.136 45.7168 131.629 45.7021C132.123 45.6874 132.665 45.6801 133.255 45.6801C133.859 45.6801 134.415 45.6874 134.924 45.7021C135.432 45.7168 135.878 45.7388 136.262 45.7681V45.3941L134.913 45.1741C134.721 45.1448 134.596 45.0604 134.537 44.9211C134.478 44.7818 134.448 44.5288 134.448 44.1621V39.1242H142.253V44.1621C142.253 44.5141 142.224 44.7634 142.165 44.9101C142.106 45.0568 141.988 45.1448 141.811 45.1741L140.462 45.3941V45.7681C140.846 45.7388 141.292 45.7168 141.8 45.7021C142.309 45.6874 142.858 45.6801 143.447 45.6801C144.052 45.6801 144.601 45.6874 145.095 45.7021C145.588 45.7168 146.02 45.7388 146.388 45.7681ZM158.505 45.5043C157.561 45.8563 156.522 46.0323 155.387 46.0323C154.282 46.0323 153.261 45.8563 152.325 45.5043C151.389 45.1523 150.586 44.6646 149.915 44.0413C149.244 43.418 148.721 42.6737 148.345 41.8083C147.969 40.943 147.781 40.0044 147.781 38.9924C147.781 37.9804 147.973 37.0307 148.356 36.1434C148.739 35.2561 149.277 34.4824 149.97 33.8224C150.663 33.1624 151.492 32.6454 152.458 32.2714C153.423 31.8974 154.495 31.7104 155.675 31.7104C156.692 31.7104 157.646 31.8901 158.538 32.2494C159.43 32.6088 160.211 33.1074 160.882 33.7454C161.552 34.3834 162.079 35.1461 162.463 36.0334C162.846 36.9207 163.037 37.885 163.037 38.9264C163.037 39.9677 162.853 40.9247 162.485 41.7973C162.116 42.67 161.597 43.418 160.926 44.0413C160.255 44.6646 159.448 45.1523 158.505 45.5043ZM155.343 45.5702C154.562 45.5702 153.839 45.3905 153.176 45.0312C152.513 44.6719 151.942 44.1952 151.462 43.6012C150.983 43.0072 150.608 42.3179 150.335 41.5332C150.062 40.7486 149.926 39.9382 149.926 39.1023C149.926 38.1489 150.044 37.2506 150.28 36.4073C150.515 35.564 150.865 34.8306 151.33 34.2073C151.794 33.584 152.365 33.0927 153.043 32.7333C153.721 32.374 154.503 32.1943 155.387 32.1943C156.227 32.1943 156.99 32.363 157.675 32.7003C158.361 33.0377 158.947 33.507 159.433 34.1083C159.92 34.7096 160.292 35.432 160.55 36.2753C160.808 37.1186 160.937 38.0463 160.937 39.0583C160.937 41.1556 160.461 42.7652 159.511 43.8872C158.56 45.0092 157.171 45.5702 155.343 45.5702ZM176.879 42.1381L176.238 45.7681C175.619 45.7388 174.804 45.7168 173.795 45.7021C172.785 45.6874 171.55 45.6801 170.091 45.6801C168.632 45.6801 167.423 45.6874 166.465 45.7021C165.507 45.7168 164.792 45.7388 164.32 45.7681V45.4381L165.691 45.2181C166.001 45.1888 166.237 45.1448 166.399 45.0861C166.561 45.0274 166.675 44.9504 166.741 44.8551C166.808 44.7598 166.841 44.6314 166.841 44.4701V33.2282C166.841 32.9496 166.793 32.7699 166.697 32.6892C166.601 32.6086 166.458 32.5536 166.266 32.5243L164.63 32.2383V31.8643C165.365 31.9049 166.438 31.9267 167.851 31.9299L168.212 31.9303C169.804 31.9303 170.791 31.9083 171.175 31.8643V32.2383L169.339 32.5243C169.118 32.5536 168.967 32.6012 168.886 32.6672C168.805 32.7332 168.764 32.9202 168.764 33.2282V44.6461C168.764 44.8368 168.798 44.9798 168.864 45.0751C168.93 45.1704 169.104 45.2181 169.384 45.2181H171.44C172.074 45.2181 172.637 45.1961 173.131 45.1521C173.625 45.1081 174.071 44.9871 174.469 44.7891C174.867 44.5911 175.232 44.2831 175.563 43.8651C175.895 43.4471 176.216 42.8715 176.525 42.1381H176.879ZM208.088 45.2183C207.152 45.541 206.154 45.7023 205.092 45.7023L201.511 45.6143H197.066V45.2183L198.747 44.8443C198.983 44.8003 199.148 44.705 199.244 44.5583C199.34 44.4116 199.388 44.133 199.388 43.7223V33.6024C199.388 33.2504 199.344 33.0011 199.255 32.8544C199.167 32.7078 198.997 32.6124 198.747 32.5685L197.288 32.3045V31.9085C197.774 31.9231 198.349 31.9195 199.012 31.8975C199.675 31.8755 200.361 31.8461 201.068 31.8095C201.776 31.7728 202.461 31.7435 203.125 31.7215C203.788 31.6995 204.363 31.6958 204.849 31.7105C205.955 31.7398 206.99 31.9085 207.956 32.2165C208.921 32.5245 209.761 32.9718 210.476 33.5584C211.191 34.1451 211.755 34.8601 212.168 35.7034C212.581 36.5467 212.787 37.5111 212.787 38.5964C212.787 39.6964 212.588 40.6864 212.19 41.5663C211.792 42.4463 211.243 43.1943 210.543 43.8103C209.843 44.4263 209.024 44.8956 208.088 45.2183ZM204.275 45.1085C203.789 45.1085 203.361 45.0535 202.993 44.9435C202.624 44.8335 202.315 44.6869 202.064 44.5035C201.814 44.3202 201.626 44.1149 201.5 43.8876C201.375 43.6602 201.312 43.4292 201.312 43.1946V33.6027C201.312 33.06 201.416 32.708 201.622 32.5467C201.828 32.3854 202.344 32.3047 203.17 32.3047C204.305 32.3047 205.326 32.444 206.232 32.7227C207.139 33.0013 207.905 33.4083 208.532 33.9437C209.158 34.479 209.641 35.1317 209.98 35.9016C210.319 36.6716 210.488 37.5406 210.488 38.5086C210.488 39.5939 210.322 40.5473 209.991 41.3686C209.659 42.1899 209.213 42.8792 208.653 43.4366C208.093 43.9939 207.437 44.4119 206.685 44.6905C205.934 44.9692 205.13 45.1085 204.275 45.1085ZM228.661 45.3725V45.7465C227.954 45.7025 227.003 45.6805 225.809 45.6805H224.615C224.232 45.6805 223.882 45.6878 223.565 45.7025C223.248 45.7171 222.957 45.7318 222.692 45.7465V45.3725L224.151 45.1525C224.357 45.1231 224.519 45.0901 224.637 45.0535C224.755 45.0168 224.833 44.9655 224.87 44.8995C224.906 44.8335 224.917 44.7528 224.903 44.6575C224.888 44.5622 224.851 44.4412 224.792 44.2945L223.023 39.4985H218.756L216.987 44.4925C216.913 44.7272 216.899 44.8995 216.943 45.0095C216.987 45.1195 217.208 45.1891 217.606 45.2185L219.154 45.3285V45.7245C219.007 45.7098 218.708 45.6988 218.259 45.6915C217.809 45.6841 217.201 45.6805 216.434 45.6805C215.668 45.6805 215.06 45.6841 214.61 45.6915C214.161 45.6988 213.862 45.7098 213.715 45.7245V45.3285L215.108 45.2185C215.594 45.1745 215.933 44.9032 216.125 44.4045L221.1 31.1606H221.785L226.672 44.2505C226.775 44.4998 226.871 44.6685 226.959 44.7565C227.047 44.8445 227.21 44.9252 227.445 44.9985L228.661 45.3725ZM222.826 38.9486H218.957L220.859 33.4707L222.826 38.9486ZM257.318 45.7465V45.3725L256.102 44.9985C255.866 44.9252 255.704 44.8445 255.615 44.7565C255.527 44.6685 255.431 44.4998 255.328 44.2505L250.441 31.1606H249.756L244.781 44.4045C244.59 44.9032 244.25 45.1745 243.764 45.2185L242.371 45.3285V45.7245C242.518 45.7098 242.817 45.6988 243.267 45.6915C243.716 45.6841 244.324 45.6805 245.091 45.6805C245.857 45.6805 246.465 45.6841 246.915 45.6915C247.364 45.6988 247.663 45.7098 247.81 45.7245V45.3285L246.263 45.2185C245.865 45.1891 245.643 45.1195 245.599 45.0095C245.555 44.8995 245.57 44.7272 245.643 44.4925L247.412 39.4985H251.68L253.448 44.2945C253.507 44.4412 253.544 44.5622 253.559 44.6575C253.574 44.7528 253.563 44.8335 253.526 44.8995C253.489 44.9655 253.412 45.0168 253.294 45.0535C253.176 45.0901 253.014 45.1231 252.807 45.1525L251.348 45.3725V45.7465C251.613 45.7318 251.904 45.7171 252.221 45.7025C252.538 45.6878 252.888 45.6805 253.272 45.6805H254.465C255.659 45.6805 256.61 45.7025 257.318 45.7465ZM247.609 38.9486H251.479L249.511 33.4707L247.609 38.9486ZM264.26 45.7023C265.07 45.7316 265.833 45.6436 266.548 45.4383C267.263 45.233 267.889 44.9433 268.427 44.5693C268.965 44.1953 269.389 43.748 269.699 43.2273C270.008 42.7067 270.156 42.1383 270.141 41.5223C270.141 40.525 269.846 39.7147 269.257 39.0914C268.667 38.468 267.797 38.0097 266.648 37.7164C267.443 37.3791 268.052 36.9831 268.472 36.5284C268.892 36.0737 269.102 35.5677 269.102 35.0104C269.102 33.8958 268.652 33.0671 267.753 32.5244C266.854 31.9818 265.601 31.7104 263.994 31.7104C263.758 31.7104 263.228 31.7288 262.402 31.7654C261.577 31.8021 260.471 31.8571 259.086 31.9304L257.781 31.9964V32.4144L259.174 32.5464C259.425 32.5758 259.616 32.6051 259.749 32.6344C259.882 32.6638 259.981 32.7078 260.048 32.7664C260.114 32.8251 260.151 32.8948 260.158 32.9754C260.165 33.0561 260.169 33.1551 260.169 33.2724V43.8323C260.169 44.2576 260.11 44.5473 259.992 44.7013C259.874 44.8553 259.675 44.9616 259.395 45.0203L258.024 45.2843V45.6803H259.616C260.398 45.6803 261.172 45.684 261.938 45.6913C262.704 45.6986 263.478 45.7023 264.26 45.7023ZM262.094 37.8267C262.33 37.8707 262.934 37.8926 263.907 37.8926C264.378 37.8926 264.813 37.8193 265.211 37.6727C265.609 37.526 265.952 37.3207 266.239 37.0567C266.527 36.7927 266.748 36.4773 266.903 36.1107C267.058 35.744 267.135 35.3407 267.135 34.9007C267.135 34.0207 266.844 33.3644 266.262 32.9317C265.679 32.499 264.843 32.2827 263.752 32.2827C263.177 32.2827 262.624 32.3487 262.094 32.4807V37.8267ZM264.636 45.0863C262.941 45.0863 262.094 44.529 262.094 43.4143V38.5304C262.389 38.501 262.68 38.479 262.967 38.4644C263.255 38.4497 263.524 38.4424 263.774 38.4424C265.248 38.4424 266.339 38.721 267.046 39.2784C267.754 39.8357 268.108 40.701 268.108 41.8743C268.108 42.2997 268.016 42.7067 267.831 43.0953C267.647 43.484 267.393 43.825 267.069 44.1183C266.744 44.4116 266.372 44.6463 265.952 44.8223C265.532 44.9983 265.093 45.0863 264.636 45.0863ZM285.993 45.3725V45.7465C285.286 45.7025 284.335 45.6805 283.141 45.6805H281.947C281.564 45.6805 281.214 45.6878 280.897 45.7025C280.58 45.7171 280.289 45.7318 280.024 45.7465V45.3725L281.483 45.1525C281.689 45.1231 281.851 45.0901 281.969 45.0535C282.087 45.0168 282.165 44.9655 282.202 44.8995C282.238 44.8335 282.249 44.7528 282.235 44.6575C282.22 44.5622 282.183 44.4412 282.124 44.2945L280.355 39.4985H276.088L274.319 44.4925C274.246 44.7272 274.231 44.8995 274.275 45.0095C274.319 45.1195 274.54 45.1891 274.938 45.2185L276.486 45.3285V45.7245C276.339 45.7098 276.04 45.6988 275.591 45.6915C275.141 45.6841 274.533 45.6805 273.766 45.6805C273 45.6805 272.392 45.6841 271.942 45.6915C271.493 45.6988 271.194 45.7098 271.047 45.7245V45.3285L272.44 45.2185C272.926 45.1745 273.265 44.9032 273.457 44.4045L278.432 31.1606H279.117L284.004 44.2505C284.107 44.4998 284.203 44.6685 284.291 44.7565C284.379 44.8445 284.542 44.9252 284.777 44.9985L285.993 45.3725ZM280.158 38.9486H276.289L278.191 33.4707L280.158 38.9486ZM300.718 33.5142L300.917 45.9661H300.387L289.486 34.3502V44.1621C289.486 44.5288 289.53 44.7744 289.619 44.8991C289.707 45.0238 289.892 45.1008 290.172 45.1301L292.184 45.3501V45.7461C291.299 45.7021 290.415 45.6801 289.53 45.6801C288.646 45.6801 287.622 45.7021 286.457 45.7461V45.3501L287.673 45.1301C288.174 45.0421 288.495 44.9394 288.635 44.8221C288.775 44.7048 288.845 44.4848 288.845 44.1621V34.6582C288.845 33.9836 288.771 33.4776 288.624 33.1402C288.476 32.8029 288.196 32.6049 287.784 32.5462L286.479 32.3483V31.9303H289.177C289.353 31.9303 289.501 31.9376 289.619 31.9523C289.737 31.9669 289.84 31.9963 289.928 32.0403C290.017 32.0843 290.102 32.1429 290.183 32.2163C290.264 32.2896 290.363 32.3849 290.481 32.5023L300.254 43.0841L300.055 33.5142C300.055 33.1036 299.992 32.8359 299.867 32.7112C299.742 32.5866 299.539 32.5096 299.259 32.4803L297.402 32.2603V31.8643C297.783 31.9049 298.49 31.9267 299.524 31.9299L299.79 31.9303C300.984 31.9303 301.794 31.9083 302.222 31.8643V32.2603L301.249 32.3483C300.998 32.3776 300.844 32.4693 300.785 32.6232C300.726 32.7772 300.703 33.0742 300.718 33.5142ZM309.695 45.7681V45.3721L308.28 45.1301C308.074 45.1008 307.93 45.0384 307.849 44.9431C307.768 44.8478 307.728 44.6828 307.728 44.4481V33.0742C307.728 32.8249 307.764 32.6636 307.838 32.5902C307.912 32.5169 308.059 32.4656 308.28 32.4363L309.695 32.2383V31.8643C309.312 31.8936 308.855 31.9119 308.324 31.9193C307.794 31.9266 307.293 31.9303 306.821 31.9303L306.163 31.9294C305.646 31.9279 305.205 31.9245 304.842 31.9193C304.334 31.9119 304.042 31.8936 303.969 31.8643V32.2383L305.317 32.4363C305.553 32.4803 305.704 32.5353 305.771 32.6012C305.837 32.6672 305.87 32.8249 305.87 33.0742V44.4481C305.87 44.6974 305.83 44.8734 305.749 44.9761C305.668 45.0788 305.524 45.1448 305.317 45.1741L303.969 45.3721V45.7681C304.249 45.7388 304.628 45.7168 305.107 45.7021C305.586 45.6874 306.165 45.6801 306.843 45.6801C307.521 45.6801 308.096 45.6874 308.568 45.7021C309.039 45.7168 309.415 45.7388 309.695 45.7681ZM319.998 45.3721V45.7681C319.6 45.7388 319.128 45.7168 318.583 45.7021C318.038 45.6874 317.411 45.6801 316.704 45.6801C315.996 45.6801 315.348 45.6874 314.758 45.7021C314.168 45.7168 313.675 45.7388 313.277 45.7681V45.3721L314.846 45.1081C315.082 45.0788 315.2 45.0091 315.2 44.8991C315.2 44.7891 315.068 44.6241 314.802 44.4041L309.783 40.2022C309.444 39.9235 309.124 39.6705 308.821 39.4432C308.519 39.2158 308.243 39.0142 307.992 38.8382C308.331 38.6768 308.685 38.4678 309.053 38.2112C309.422 37.9545 309.783 37.6795 310.137 37.3862L314.05 34.0642C314.832 33.4189 315.222 32.9716 315.222 32.7222C315.222 32.5902 315.119 32.5096 314.913 32.4803L313.343 32.2603V31.8643C313.728 31.9053 314.537 31.9272 315.77 31.93L316.04 31.9303C317.411 31.9303 318.31 31.9083 318.738 31.8643V32.2603C318.399 32.2896 318.067 32.3446 317.743 32.4253C317.419 32.5059 317.094 32.6196 316.77 32.7662C316.446 32.9129 316.092 33.1146 315.709 33.3712C315.325 33.6279 314.905 33.9469 314.448 34.3282L310.093 38.0682L316.527 43.5681C317.293 44.2281 317.802 44.6461 318.052 44.8221C318.347 45.0128 318.627 45.1301 318.893 45.1741L319.998 45.3721Z" fill="#E1E1E1"></path>
  <path opacity="0.797216" fill-rule="evenodd" clip-rule="evenodd" d="M63.3303 20.0654L71.7141 24.8674C71.8096 24.9224 71.883 25.0974 71.883 25.2184C71.8907 27.5826 71.8896 29.946 71.8885 32.3094L71.888 33.4903V36.1303L53.3555 25.5474C53.5225 25.4507 53.6828 25.357 53.8395 25.2655L53.8399 25.2652L53.8401 25.2651C54.0624 25.1353 54.2774 25.0096 54.4942 24.8854L62.9011 20.0704C63.0569 19.9804 63.1725 19.9744 63.3303 20.0654ZM75.0612 21.0072L73.3135 20.0132L73.3125 20.0122V41.405C73.3569 41.3812 73.3972 41.3599 73.4345 41.3402L73.4347 41.3401C73.5072 41.3018 73.5688 41.2692 73.6291 41.235C76.7476 39.448 79.8702 37.667 82.9958 35.892C83.2039 35.775 83.2441 35.634 83.2441 35.424C83.238 32.2571 83.238 29.0891 83.2441 25.9211C83.2451 25.7171 83.1818 25.6111 83.0039 25.5111C80.3557 24.0122 77.7074 22.5112 75.0612 21.0072ZM57.0623 29.2532C57.4464 29.4755 57.8301 29.6984 58.2138 29.9213L58.2141 29.9214C59.1194 30.4472 60.0245 30.9729 60.9336 31.4912C62.2141 32.2208 63.4976 32.9456 64.7808 33.6702L64.781 33.6703L64.7812 33.6704L64.7814 33.6705L64.7816 33.6706L64.7818 33.6707C65.3273 33.9787 65.8728 34.2868 66.418 34.5951C66.452 34.6134 66.4832 34.6357 66.5253 34.6659L66.5254 34.666L66.5254 34.666L66.5254 34.666C66.5456 34.6805 66.5682 34.6967 66.5949 34.7151L48.0162 45.32C48.0137 45.2711 48.011 45.2272 48.0084 45.1866C48.0035 45.1087 47.9994 45.0431 48.0001 44.978C48.0043 44.5499 48.0101 44.122 48.0158 43.6941C48.0277 42.8085 48.0396 41.9233 48.0383 41.0381C48.0383 38.8491 48.0202 36.6601 48.0011 34.4702C48.0011 34.2602 48.0644 34.1412 48.2523 34.0342C51.0603 32.4352 53.8643 30.8322 56.6643 29.2242C56.8322 29.1272 56.9327 29.1782 57.0623 29.2532ZM88.1899 34.5234V37.3464C88.1899 40.0954 88.1929 42.8443 88.199 45.5943C88.199 45.7693 88.1718 45.9013 87.996 46.0033C86.4904 46.8533 84.9889 47.7093 83.4905 48.5693C82.1819 49.3193 80.8764 50.0723 79.5719 50.8292C79.4242 50.9162 79.3126 50.9392 79.1488 50.8462C75.98 49.0283 72.8091 47.2153 69.6363 45.4063C69.587 45.3782 69.5385 45.3474 69.4793 45.31L69.4793 45.3099C69.4481 45.2901 69.4139 45.2685 69.375 45.2443L88.1889 34.5234H88.1899ZM62.6839 59.9839V38.5562L62.6597 38.5682L62.6086 38.5932L62.6083 38.5933L62.6083 38.5933L62.6082 38.5934L62.6081 38.5934L62.6079 38.5935C62.5546 38.6196 62.512 38.6404 62.4699 38.6642C59.3704 40.4381 56.2679 42.2071 53.1634 43.9741C53.0086 44.0631 52.9493 44.1591 52.9493 44.3391C52.9554 47.573 52.9554 50.809 52.9453 54.045C52.9453 54.289 53.0187 54.426 53.2368 54.549C54.1275 55.0534 55.0145 55.5635 55.9017 56.0737L55.9039 56.0749L55.9054 56.0758C56.5576 56.4509 57.2099 56.826 57.8639 57.1989C58.1159 57.3429 58.3723 57.4798 58.6287 57.6166L58.6288 57.6166L58.6289 57.6167L58.629 57.6167L58.6291 57.6168L58.6292 57.6169L58.6294 57.617C58.9249 57.7747 59.2203 57.9324 59.5091 58.1009C60.1838 58.4938 60.8547 58.8941 61.5363 59.3008L61.5364 59.3009C61.9148 59.5267 62.2965 59.7544 62.6839 59.9839ZM82.8331 54.5329L64.0905 43.833C64.0868 43.8767 64.0831 43.9105 64.08 43.9389L64.08 43.939C64.0764 43.9722 64.0735 43.9981 64.0724 44.024C64.0765 47.601 64.0734 51.1769 64.0664 54.7539C64.0654 54.9509 64.1659 55.0199 64.3086 55.1009L65.6571 55.8688L65.658 55.8692L65.6584 55.8695L65.6585 55.8695C67.9887 57.1962 70.3206 58.5238 72.6412 59.8648C72.9588 60.0498 73.1759 60.0398 73.4854 59.8648C75.5231 58.6933 77.5663 57.5316 79.6092 56.37C80.3231 55.9641 81.0371 55.5582 81.7507 55.1519C81.9671 55.0289 82.1822 54.9056 82.4087 54.7759L82.4093 54.7755L82.418 54.7705C82.5516 54.694 82.6891 54.6152 82.8331 54.5329ZM63.5273 55.5762L67.3836 57.7761L63.5273 59.9791V55.5762ZM79.5742 51.7441L83.2204 53.8271V49.6611L79.5742 51.7441ZM52.104 48.1223V43.9233L48.4297 46.0233L52.104 48.1223ZM87.5716 33.9382L84.0781 31.9492V35.9362L87.5716 33.9382ZM52.9805 26.2632L56.6086 28.3352L52.9805 30.4091V26.2632ZM72.4562 24.3666V20.2227L68.8281 22.2956L72.4562 24.3666Z" fill="#E1E1E1"></path>
</svg>
