<?xml version="1.0" encoding="UTF-8"?>
<svg xmlns="http://www.w3.org/2000/svg" width="278" height="120" viewBox="0 0 278 120" fill="none">
  <path d="M76.0992 48.0177C76.0406 48.0239 75.859 48.0453 75.6989 48.0637C73.6054 48.2997 71.8011 49.4275 70.274 51.4533L70.0493 51.7506L70.0308 51.0304C70.0093 50.2151 69.9723 50.019 69.7629 49.6053C69.4489 48.9862 68.9532 48.5571 68.2882 48.3365C67.7432 48.1557 67.069 48.174 66.5333 48.3886C65.8282 48.6675 65.2648 49.3202 65.0585 50.0987C65.0031 50.3071 65 50.6258 65 59.4153V68.5176L65.0708 68.7597C65.3387 69.6852 66.1022 70.3779 67.032 70.5403C68.2051 70.7425 69.3196 70.1786 69.803 69.1366C70.0339 68.6401 70.0154 69.158 70.0339 62.8478C70.0554 56.5867 70.04 57.0403 70.2525 56.1883C70.6804 54.4659 71.7611 53.2523 73.2852 52.7834C73.8055 52.624 74.1072 52.5842 74.7599 52.5842C75.6096 52.5842 76.1515 52.6975 76.795 53.0101C78.082 53.6323 78.8578 54.8582 79.138 56.7032C79.1842 57.0249 79.1903 57.5766 79.2088 62.8018C79.2273 69.1029 79.2118 68.6249 79.3997 69.0631C79.6028 69.535 80.0154 70.0009 80.4403 70.2399C81.7981 70.9969 83.5007 70.4422 84.0611 69.06C84.255 68.5758 84.2396 69.0907 84.258 62.8326C84.2796 56.556 84.2642 56.9667 84.4766 56.1269C84.726 55.1279 85.1694 54.3372 85.8283 53.7212C86.4102 53.1756 87.2045 52.7895 88.0604 52.6393C88.4761 52.5658 89.4459 52.5627 89.8616 52.6363C91.6903 52.9519 92.8511 54.1533 93.2606 56.1515C93.4207 56.9299 93.4115 56.6572 93.4299 62.8326L93.4483 68.5789L93.5499 68.87C93.6792 69.2377 93.8455 69.5197 94.0887 69.7772C94.5475 70.2675 95.1355 70.5372 95.8191 70.5771C96.8689 70.6353 97.7926 70.102 98.2236 69.1918C98.4884 68.6249 98.4638 69.296 98.4761 62.3882C98.4853 56.1883 98.4761 55.511 98.3745 54.7172C98.2298 53.6262 97.9558 52.6884 97.5278 51.8119C96.7458 50.2213 95.4404 49.0597 93.7747 48.4775C92.1952 47.9227 90.154 47.8461 88.4453 48.2752C87.3184 48.5571 86.1638 49.1333 85.2125 49.8872C84.8461 50.1784 83.9225 51.107 83.6115 51.4992C83.4699 51.6831 83.3436 51.8302 83.3344 51.8302C83.3251 51.8302 83.2851 51.7689 83.2482 51.6923C83.0081 51.202 82.4939 50.5032 82.0259 50.0343C80.9575 48.9678 79.6583 48.3334 78.0234 48.0882C77.6417 48.03 76.3886 47.984 76.0992 48.0177Z" fill="white"></path>
  <path d="M110.521 48.018C110.463 48.0242 110.253 48.0456 110.059 48.064C106.854 48.3643 103.895 50.2583 102.187 53.1024C101.888 53.5988 101.448 54.5091 101.254 55.027C100.857 56.0935 100.607 57.2428 100.512 58.4289C100.466 59.0265 100.49 60.473 100.561 61.0247C101.004 64.6164 102.802 67.4973 105.693 69.2442C107.177 70.139 108.905 70.6815 110.758 70.8347C111.34 70.8807 112.861 70.8562 113.415 70.7857C115.669 70.5099 117.507 69.7468 119.219 68.3768C119.85 67.8742 120.109 67.5433 120.269 67.0468C120.57 66.1059 120.145 65.0394 119.296 64.6104C119.096 64.5092 118.76 64.4234 118.495 64.405C117.92 64.3682 117.513 64.5123 116.956 64.9475C115.709 65.922 114.533 66.4461 113.055 66.679C112.636 66.7465 111.574 66.774 111.134 66.7281C109.246 66.535 107.741 65.6891 106.694 64.2395C106.429 63.8717 106.001 63.0167 105.844 62.5386C105.73 62.1923 105.592 61.6376 105.546 61.3403L105.524 61.2085L112.633 61.2024L119.742 61.1932L119.967 61.1227C120.767 60.8775 121.306 60.3627 121.58 59.5812L121.682 59.2931V58.5882C121.682 57.8526 121.654 57.5339 121.525 56.7984C121.131 54.5152 120.059 52.4036 118.511 50.8651C116.925 49.2868 114.955 48.3551 112.615 48.0763C112.224 48.0303 110.773 47.9874 110.521 48.018ZM111.756 52.137C112.479 52.2105 112.996 52.3546 113.615 52.658C115.059 53.3659 116.081 54.7389 116.556 56.6115C116.645 56.9608 116.771 57.6596 116.771 57.7975V57.868H111.128H105.481L105.536 57.5523C105.937 55.217 107.156 53.4272 108.905 52.609C109.773 52.2044 110.773 52.0389 111.756 52.137Z" fill="white"></path>
  <path d="M147.467 48.1097C145.69 48.2599 144.397 48.6062 143.009 49.2988C141.903 49.8505 141.004 50.4879 140.111 51.3552C139.142 52.2992 138.461 53.2186 137.861 54.4046C137.227 55.6642 136.854 56.9177 136.685 58.3734C136.632 58.8147 136.632 60.2919 136.685 60.7332C136.99 63.378 138.067 65.6705 139.877 67.5184C141.192 68.8639 142.685 69.8078 144.422 70.3962C145.693 70.8284 146.774 71 148.19 71C149.114 70.9969 149.588 70.954 150.376 70.7977C151.405 70.5954 152.239 70.3135 153.209 69.8354C154.394 69.2562 155.232 68.6677 156.158 67.7667C156.725 67.2181 156.669 67.2856 159.813 63.4915C161.617 61.3094 162.43 60.3103 162.492 60.1815C162.682 59.7923 162.685 59.3265 162.497 58.9312C162.43 58.7902 161.743 57.9352 159.847 55.6305C158.439 53.9204 157.248 52.4861 157.202 52.4432C157.156 52.4003 156.999 52.2256 156.851 52.057C156.5 51.6525 155.78 50.9568 155.392 50.6473C153.668 49.2682 151.682 48.4376 149.468 48.1649C149.105 48.122 147.772 48.0821 147.467 48.1097ZM149.207 52.5811C150.626 52.8048 151.937 53.4362 152.972 54.3954C153.27 54.6743 156.811 58.8944 156.912 59.0936C156.986 59.2407 156.995 59.2959 156.995 59.5563C156.995 59.823 156.986 59.8659 156.903 60.0253C156.783 60.2521 153.083 64.6254 152.818 64.8522C151.414 66.0535 149.721 66.6542 147.913 66.5929C146.829 66.5561 145.93 66.3263 144.988 65.8513C144.231 65.4713 143.674 65.0606 143.061 64.4384C141.709 63.0563 141.001 61.2358 141.072 59.3081C141.131 57.7605 141.62 56.4273 142.596 55.1708C143.027 54.6191 143.778 53.951 144.431 53.5496C145.241 53.0469 146.278 52.6792 147.205 52.5688C147.359 52.5505 147.525 52.529 147.574 52.5229C147.781 52.4953 148.914 52.5351 149.207 52.5811Z" fill="white"></path>
  <path d="M163.273 48.1652C162.82 48.2694 162.451 48.4717 162.121 48.7965C161.742 49.1735 161.545 49.5903 161.475 50.1603C161.401 50.7579 161.564 51.331 161.989 51.9562C162.17 52.2229 162.152 52.1983 165.354 55.9618C166.792 57.6535 167.87 58.9437 167.919 59.0388C168.051 59.29 168.085 59.5352 168.023 59.7866C167.993 59.9 167.937 60.0501 167.897 60.1175C167.854 60.188 166.579 61.705 165.059 63.4918C163.541 65.2785 162.207 66.8569 162.1 67.0009C161.853 67.3288 161.619 67.7762 161.533 68.0919C161.441 68.4198 161.441 68.9316 161.533 69.2841C161.739 70.0717 162.303 70.6478 163.107 70.8992C163.306 70.9605 163.399 70.9697 163.815 70.9697C164.218 70.9697 164.329 70.9574 164.532 70.8992C165.154 70.7214 165.576 70.3996 166.198 69.6365C166.367 69.4251 168.122 67.2737 170.092 64.8555C172.066 62.4375 173.719 60.3872 173.762 60.3045C173.907 60.0379 173.953 59.8264 173.938 59.4801C173.923 59.146 173.858 58.9254 173.704 58.7017C173.532 58.4473 166.007 49.2317 165.77 48.9865C165.381 48.582 165.009 48.346 164.548 48.2112C164.255 48.1284 163.556 48.1008 163.273 48.1652Z" fill="#06B6D4"></path>
  <path d="M173.71 48.1648C173.257 48.269 172.887 48.4713 172.558 48.7962C172.29 49.0628 172.128 49.3264 172.019 49.6574C171.767 50.4542 171.885 51.1468 172.408 51.9222C172.515 52.0846 173.879 53.715 175.437 55.5477C177.084 57.4846 178.306 58.9465 178.356 59.0384C178.528 59.3725 178.528 59.7341 178.356 60.0681C178.306 60.1601 177.229 61.4503 175.791 63.1421C172.577 66.9239 172.607 66.8841 172.426 67.1507C172.047 67.7085 171.899 68.1437 171.903 68.6861C171.909 69.7557 172.521 70.5801 173.544 70.8988C173.743 70.9601 173.836 70.9693 174.252 70.9693C174.655 70.9693 174.766 70.957 174.969 70.8988C175.443 70.764 175.816 70.5311 176.207 70.1204C176.342 69.9794 177.42 68.6769 178.602 67.2242C180.844 64.4691 180.846 64.466 181.163 64.3618C181.348 64.3005 181.687 64.3158 181.887 64.3924C181.98 64.4262 182.121 64.515 182.202 64.5856C182.281 64.6591 183.248 65.8267 184.354 67.1844C185.455 68.542 186.434 69.7435 186.527 69.8568C187.189 70.669 187.906 71.0153 188.842 70.9754C189.507 70.9509 189.976 70.7517 190.416 70.3104C190.717 70.0131 190.89 69.7189 191.004 69.3113C191.096 68.9956 191.102 68.4073 191.022 68.1038C190.942 67.8096 190.693 67.3285 190.455 67.0158C190.339 66.8626 188.996 65.269 187.466 63.47C185.807 61.5178 184.652 60.1325 184.603 60.0375C184.529 59.8904 184.52 59.8444 184.52 59.5533C184.52 59.2744 184.529 59.2101 184.597 59.0782C184.643 58.9863 185.782 57.6225 187.472 55.6305C189.011 53.8192 190.36 52.2194 190.468 52.0754C190.693 51.772 190.942 51.2878 191.022 51.0028C191.102 50.6994 191.096 50.1109 191.004 49.7953C190.788 49.026 190.228 48.4591 189.446 48.2139C189.141 48.1189 188.55 48.0944 188.196 48.1648C187.528 48.2997 187.017 48.646 186.441 49.357C184.048 52.3022 182.229 54.5149 182.146 54.5762C181.903 54.7631 181.54 54.8367 181.241 54.7601C180.856 54.662 180.92 54.7325 178.574 51.8486C177.377 50.3806 176.299 49.0781 176.179 48.9555C175.813 48.5786 175.431 48.3395 174.985 48.2108C174.692 48.1281 173.993 48.1005 173.71 48.1648Z" fill="#06B6D4"></path>
  <path d="M134.176 48.1871C132.916 48.3067 131.558 49.1617 130.469 50.5132C129.988 51.1139 129.662 51.6257 129.268 52.4134L128.997 52.9497L128.985 51.6012C128.972 50.0842 128.975 50.1087 128.732 49.6092C128.489 49.1096 128.098 48.7204 127.593 48.4752C127.162 48.2668 126.993 48.23 126.438 48.23C125.98 48.2331 125.949 48.2362 125.672 48.3312C124.831 48.6223 124.265 49.2353 124.031 50.1148L123.96 50.3753V59.4162V68.4571L124.028 68.7115C124.342 69.8852 125.407 70.6545 126.608 70.5779C127.692 70.5043 128.557 69.8332 128.905 68.7942L128.978 68.5797L128.997 64.6108C129.015 60.3724 129.015 60.3724 129.179 59.3794C129.545 57.1391 130.527 55.3953 132.057 54.2798C132.799 53.7404 133.825 53.3113 134.874 53.1029C135.102 53.0569 135.398 52.9803 135.527 52.9282C136.235 52.6585 136.78 52.0578 136.971 51.3254C137.057 50.9975 137.067 50.36 136.986 50.0168C136.743 48.9441 135.998 48.3005 134.877 48.1871C134.533 48.1504 134.545 48.1504 134.176 48.1871Z" fill="white"></path>
  <path d="M202.225 48.1862C200.83 48.2383 199.352 48.459 198.099 48.7961C197.468 48.9677 196.208 49.3906 195.941 49.5193C195.509 49.7308 195.162 50.0802 194.94 50.5276C194.78 50.8586 194.727 51.0762 194.727 51.447C194.727 51.8179 194.78 52.0355 194.946 52.3757C195.27 53.0315 195.956 53.4728 196.716 53.5096C197.138 53.528 197.323 53.4912 198.123 53.2246C199.13 52.8905 199.856 52.7312 200.91 52.6055C201.572 52.5289 203.278 52.5289 203.794 52.6055C205.106 52.8047 206.036 53.2184 206.738 53.9111C207.193 54.3677 207.498 54.8642 207.708 55.4986C207.883 56.0318 207.942 56.418 207.957 57.1689L207.973 57.8309L207.563 57.7113C206.547 57.4079 205.377 57.1658 204.426 57.0554C202.317 56.8164 200.238 56.9053 198.6 57.3037C195.393 58.0852 193.496 59.9516 193.044 62.7712C192.966 63.2676 192.963 64.757 193.044 65.2076C193.209 66.1515 193.514 66.9422 193.986 67.6532C194.648 68.6523 195.513 69.3848 196.714 69.9609C197.852 70.5065 199.035 70.7792 200.454 70.8221C202.616 70.8865 204.555 70.3563 206.135 69.2744C206.605 68.9526 206.969 68.6431 207.452 68.1589L207.936 67.6716V68.1865C207.936 68.7779 207.973 68.9863 208.136 69.3142C208.419 69.8873 208.97 70.3073 209.675 70.4973C210.036 70.5953 210.719 70.5984 211.052 70.5034C211.83 70.2797 212.382 69.8046 212.674 69.1058C212.874 68.6247 212.865 68.9465 212.852 62.336C212.843 55.8479 212.85 56.1299 212.674 55.094C212.209 52.3358 210.786 50.3346 208.505 49.2221C207.206 48.5907 205.79 48.272 203.909 48.1831C203.21 48.1525 203.127 48.1525 202.225 48.1862ZM204.229 60.1662C205.408 60.2611 206.541 60.4818 207.557 60.8189L208.044 60.9814V62.0049C208.04 63.142 208.016 63.3534 207.81 63.9173C207.422 64.9869 206.535 65.9277 205.402 66.4733C203.73 67.2793 201.556 67.408 200.004 66.7889C198.872 66.3354 198.148 65.5202 197.942 64.4628C197.88 64.1472 197.88 63.4423 197.945 63.1205C198.274 61.4104 199.731 60.3898 202.179 60.157C202.44 60.1294 203.868 60.1386 204.229 60.1662Z" fill="white"></path>
</svg>
