<?xml version="1.0" encoding="UTF-8"?>
<svg xmlns="http://www.w3.org/2000/svg" width="141" height="60" viewBox="0 0 141 60" fill="none">
  <path fill-rule="evenodd" clip-rule="evenodd" d="M10.5845 18.0169C10.5484 18.0208 10.4632 18.0307 10.3662 18.042L10.2027 18.0609C8.20627 18.2866 6.48571 19.3654 5.02946 21.3031L4.81513 21.5875L4.79752 20.8986C4.77697 20.1188 4.74176 19.9312 4.54208 19.5355C4.24256 18.9433 3.76982 18.5329 3.13569 18.3218C2.61605 18.1489 1.97305 18.1665 1.46214 18.3717C0.789789 18.6384 0.252496 19.2629 0.0557811 20.0074C0.00293091 20.2068 0 20.5116 0 28.919V37.6255L0.0675253 37.857C0.322962 38.7425 1.0511 39.4049 1.93773 39.5602C3.05641 39.7537 4.11921 39.2143 4.58024 38.2176C4.59591 38.1837 4.61034 38.1549 4.62374 38.1282C4.63692 38.102 4.64907 38.0778 4.66009 38.0532C4.78514 37.7765 4.78605 37.4433 4.79718 33.3637L4.80036 32.2023L4.80388 31.1578C4.81706 27.139 4.81876 26.6445 4.92406 26.1734C4.93882 26.1073 4.95563 26.0417 4.97471 25.967C4.98528 25.9256 4.99675 25.8808 5.0089 25.8323C5.41701 24.1848 6.44755 23.0239 7.90096 22.5753C8.39709 22.4229 8.68479 22.3848 9.30723 22.3848C10.1176 22.3848 10.6343 22.4933 11.2479 22.7924C12.4753 23.3874 13.2152 24.56 13.4823 26.3247C13.5264 26.6325 13.5322 27.1601 13.5498 32.1583L13.5532 33.3364C13.5646 37.4632 13.5653 37.7607 13.6719 38.0134C13.6802 38.033 13.6892 38.0524 13.6987 38.0734C13.709 38.0956 13.72 38.1195 13.7319 38.1473C13.9256 38.5987 14.3191 39.0444 14.7242 39.273C16.0191 39.997 17.6426 39.4665 18.177 38.1443C18.1903 38.1112 18.2025 38.0829 18.2137 38.0568C18.2242 38.0328 18.2337 38.0106 18.2426 37.9881C18.3495 37.7173 18.3504 37.4044 18.3617 33.3181L18.3649 32.1877L18.3684 31.1275C18.3817 27.0799 18.3833 26.5797 18.4907 26.1035C18.5056 26.0367 18.5228 25.9704 18.5423 25.8947C18.552 25.8573 18.5624 25.8167 18.5733 25.7735C18.8112 24.8179 19.2341 24.0616 19.8623 23.4724C20.4172 22.9506 21.1747 22.5813 21.9909 22.4376C22.3873 22.3673 23.3121 22.3643 23.7085 22.4346C25.4525 22.7367 26.5594 23.8857 26.9499 25.7971L26.9659 25.8742C26.981 25.9475 26.9944 26.012 27.0062 26.0769C27.095 26.5634 27.0965 27.0658 27.1089 31.3376L27.1114 32.1877L27.129 37.6842L27.2259 37.9626C27.3492 38.3143 27.5077 38.5841 27.7396 38.8303C28.1771 39.2993 28.7379 39.5574 29.3897 39.5954C30.391 39.6511 31.2718 39.1411 31.6828 38.2705C31.7038 38.2253 31.7229 38.1885 31.7401 38.1549C31.7547 38.1267 31.7682 38.1008 31.7804 38.0744C31.9146 37.7857 31.915 37.4347 31.9213 33.2462L31.9236 31.7626C31.9324 25.8323 31.9236 25.1844 31.8267 24.4252C31.6887 23.3815 31.4273 22.4845 31.0192 21.6461C30.2735 20.1247 29.0287 19.0137 27.4402 18.4567C25.934 17.9261 23.9874 17.8528 22.3579 18.2633C21.2833 18.5329 20.1824 19.084 19.2752 19.8052C18.9257 20.0836 18.045 20.9719 17.7484 21.3471C17.6133 21.523 17.4929 21.6637 17.4841 21.6637C17.4752 21.6637 17.4372 21.6051 17.4018 21.5317C17.1729 21.0627 16.6825 20.3944 16.2363 19.9459C15.2175 18.9257 13.9784 18.319 12.4194 18.0844C12.0554 18.0287 10.8605 17.9847 10.5845 18.0169ZM43.4095 18.0172C43.3538 18.023 43.1541 18.0435 42.9691 18.061C39.9127 18.3484 37.0911 20.16 35.4617 22.8804C35.1768 23.3553 34.757 24.2259 34.572 24.7214C34.1933 25.7415 33.9555 26.8408 33.8645 27.9753C33.8204 28.5469 33.8438 29.9305 33.9114 30.4583C34.3342 33.8939 36.0488 36.6495 38.8058 38.3204C40.2209 39.1764 41.8681 39.6952 43.6356 39.8418C44.1904 39.8857 45.6409 39.8624 46.1694 39.7949C48.3186 39.5311 50.0713 38.8011 51.7038 37.4907C52.3057 37.0099 52.5523 36.6935 52.705 36.2185C52.9927 35.3186 52.5875 34.2985 51.7772 33.8881C51.5864 33.7914 51.2663 33.7092 51.0138 33.6916C50.4648 33.6565 50.0772 33.7942 49.5458 34.2105C48.3567 35.1427 47.2351 35.6439 45.8258 35.8668C45.4266 35.9313 44.4136 35.9576 43.9938 35.9137C42.194 35.7289 40.7583 34.9199 39.76 33.5333C39.5075 33.1815 39.0994 32.3637 38.9497 31.9064C38.841 31.5751 38.7089 31.0445 38.6648 30.7602L38.6444 30.6341L45.4236 30.6282L52.2029 30.6195L52.4173 30.552C53.1806 30.3176 53.6944 29.825 53.9557 29.0775L54.0526 28.802V28.1277C54.0526 27.4241 54.0263 27.1192 53.9029 26.4157C53.5271 24.2318 52.5053 22.212 51.0285 20.7404C49.5165 19.2307 47.6373 18.3396 45.406 18.0728C45.0331 18.0288 43.6502 17.9878 43.4095 18.0172ZM44.5868 21.957C45.2768 22.0273 45.77 22.1651 46.3602 22.4554C47.7373 23.1326 48.7119 24.4458 49.1641 26.2369C49.2492 26.571 49.3696 27.2394 49.3696 27.3714V27.4388H43.9879H38.6032L38.656 27.1369C39.0377 24.9031 40.2005 23.1911 41.8681 22.4084C42.696 22.0215 43.6502 21.8632 44.5868 21.957ZM74.3905 19.2424C75.7145 18.5799 76.9477 18.2486 78.6418 18.105C78.9324 18.0786 80.2038 18.1166 80.55 18.1578C82.661 18.4186 84.5552 19.2131 86.1994 20.5322C86.5691 20.8282 87.2562 21.4937 87.5905 21.8807C87.7316 22.0419 87.8812 22.2089 87.9258 22.2501C87.9697 22.2911 89.1055 23.663 90.4474 25.2988C92.2561 27.5032 92.911 28.3211 92.9752 28.4559C93.1546 28.8341 93.1515 29.2797 92.9697 29.6519C92.911 29.775 92.1355 30.7307 90.4153 32.8179C87.4699 36.3836 87.4698 36.3837 86.9581 36.8803L86.9303 36.9073C86.0466 37.7692 85.2477 38.332 84.1173 38.886C83.193 39.3434 82.3971 39.6131 81.4164 39.8065C80.6643 39.956 80.2124 39.9972 79.3319 40C77.9812 40 76.9506 39.8358 75.738 39.4225C74.0821 38.8597 72.6581 37.9568 71.4045 36.6699C69.678 34.9023 68.6504 32.7095 68.3598 30.1796C68.3099 29.7575 68.3099 28.3445 68.3598 27.9224C68.5212 26.53 68.8765 25.331 69.4813 24.1261C70.0539 22.9917 70.7028 22.1122 71.6276 21.2093C72.479 20.3798 73.3363 19.7701 74.3905 19.2424ZM83.8917 24.1173C82.9047 23.1998 81.6545 22.5959 80.3009 22.382C80.0221 22.338 78.9411 22.2998 78.7445 22.3263L78.6916 22.3329C78.6205 22.342 78.5031 22.3569 78.3919 22.3703C77.5084 22.4758 76.519 22.8276 75.7469 23.3083C75.1245 23.6923 74.408 24.3314 73.9969 24.859C73.0662 26.0609 72.5994 27.3362 72.5436 28.8164C72.4761 30.6604 73.1514 32.4017 74.4403 33.7237C75.0246 34.3188 75.5561 34.7117 76.2782 35.0752C77.1767 35.5296 78.034 35.7493 79.0671 35.7845C80.7912 35.8432 82.4057 35.2685 83.7444 34.1195C83.9975 33.9025 87.5264 29.7194 87.6408 29.5025C87.7198 29.3501 87.7284 29.309 87.7284 29.0539C87.7284 28.8048 87.7198 28.752 87.6494 28.6114C87.553 28.4208 84.176 24.3842 83.8917 24.1173ZM93.7156 18.1581C93.2841 18.2578 92.9316 18.4512 92.6175 18.7619C92.2563 19.1225 92.0683 19.5211 92.001 20.0664C91.9304 20.6381 92.0864 21.1862 92.4913 21.7843L92.5244 21.8326C92.6663 22.0385 92.8288 22.2301 95.1969 25.0217L95.198 25.0231L95.1988 25.0241L95.7006 25.6156C97.0714 27.2339 98.0993 28.4679 98.1462 28.5588C98.2724 28.7992 98.3045 29.0337 98.2457 29.2742C98.2167 29.3827 98.1634 29.5262 98.1258 29.5907C98.0844 29.6581 96.8686 31.1092 95.4187 32.8183C93.9711 34.5273 92.6997 36.037 92.5971 36.1747C92.3621 36.4885 92.1389 36.9164 92.0566 37.2183C91.9688 37.5321 91.9688 38.0216 92.0566 38.3587C92.2533 39.1122 92.7906 39.6632 93.5574 39.9036C93.7478 39.9623 93.8364 39.9711 94.2326 39.9711C94.6172 39.9711 94.723 39.9593 94.9165 39.9036C95.5096 39.7336 95.9121 39.4258 96.5051 38.6959C96.6258 38.5444 97.5934 37.3539 98.8602 35.7949L98.8755 35.7761L98.8839 35.7657L98.8852 35.764L100.219 34.1228C102.101 31.8098 103.677 29.8487 103.719 29.7696C103.857 29.5145 103.901 29.3123 103.886 28.9811C103.872 28.6615 103.81 28.4504 103.663 28.2364C103.499 27.9931 96.3226 19.1782 96.097 18.9436C95.7265 18.5567 95.3717 18.331 94.9314 18.2021C94.6526 18.1229 93.986 18.0965 93.7156 18.1581ZM102.57 18.7615C102.884 18.4507 103.237 18.2572 103.669 18.1575C103.939 18.096 104.605 18.1224 104.884 18.2015C105.309 18.3247 105.674 18.5533 106.024 18.9139C106.137 19.0311 107.165 20.277 108.308 21.6812L108.45 21.8562C110.266 24.0958 110.467 24.3448 110.724 24.4313C110.755 24.4422 110.788 24.4505 110.825 24.4598L110.85 24.4661C111.135 24.5393 111.481 24.469 111.713 24.2902C111.792 24.2315 113.528 22.1151 115.81 19.2979C116.359 18.6178 116.846 18.2866 117.483 18.1575C117.82 18.0902 118.384 18.1135 118.674 18.2045C119.421 18.439 119.955 18.9813 120.161 19.7171C120.249 20.019 120.254 20.5819 120.178 20.8721C120.102 21.1447 119.864 21.6078 119.649 21.8981C119.547 22.0359 118.26 23.5662 116.792 25.2986C115.181 27.204 114.095 28.5085 114.051 28.5964C113.986 28.7226 113.977 28.7841 113.977 29.0508C113.977 29.3293 113.986 29.3733 114.056 29.514C114.103 29.6049 115.205 30.9299 116.787 32.7973C118.246 34.5181 119.526 36.0425 119.638 36.189C119.864 36.488 120.102 36.9482 120.178 37.2296C120.254 37.5199 120.249 38.0827 120.161 38.3846C120.052 38.7745 119.888 39.056 119.6 39.3404C119.18 39.7623 118.734 39.9529 118.099 39.9764C117.207 40.0146 116.523 39.6833 115.892 38.9064C115.803 38.7981 114.869 37.6489 113.819 36.3502C112.765 35.0515 111.842 33.9347 111.766 33.8644C111.69 33.7968 111.555 33.7119 111.467 33.6796C111.277 33.6063 110.953 33.5917 110.777 33.6503C110.474 33.75 110.472 33.753 108.334 36.388C107.207 37.7775 106.179 39.0236 106.05 39.1585C105.677 39.5513 105.322 39.7742 104.87 39.9032C104.675 39.9589 104.57 39.9705 104.186 39.9705C103.789 39.9705 103.701 39.9617 103.51 39.9032C102.535 39.5983 101.952 38.8097 101.945 37.7866C101.942 37.2678 102.083 36.8515 102.444 36.3179L102.478 36.2677C102.617 36.0673 102.775 35.8806 105.042 33.2051L105.653 32.4836C107.024 30.8654 108.052 29.6314 108.099 29.5433C108.263 29.2238 108.263 28.8778 108.099 28.5584C108.052 28.4704 106.887 27.0721 105.316 25.2195C103.83 23.4665 102.53 21.9069 102.427 21.7515C101.928 21.0098 101.816 20.3473 102.056 19.5852C102.16 19.2686 102.315 19.0165 102.57 18.7615ZM65.9672 18.1788C64.7662 18.2931 63.4714 19.111 62.4321 20.4037C61.9741 20.9784 61.6629 21.4679 61.2871 22.2212L61.0287 22.7343L61.017 21.4445L61.0165 21.394C61.0085 20.3935 61.0062 20.1168 60.922 19.868C60.8898 19.7729 60.8456 19.6819 60.7845 19.5561L60.7762 19.539C60.5442 19.0612 60.1713 18.6889 59.6899 18.4543C59.2788 18.255 59.1173 18.2198 58.5889 18.2198C58.1514 18.2228 58.122 18.2257 57.8578 18.3166C57.0562 18.595 56.516 19.1814 56.2928 20.0226L56.2254 20.2718V28.9197V37.5675L56.29 37.8109C56.5894 38.9335 57.6053 39.6694 58.7503 39.596C59.7838 39.5257 60.6089 38.8837 60.9405 37.8899L61.0111 37.6847L61.0287 33.8884C61.0429 30.6173 61.0457 29.9853 61.1279 29.3643C61.1476 29.2158 61.1719 29.0679 61.2019 28.8845C61.5513 26.7416 62.4879 25.0736 63.9471 24.0065C64.6547 23.4906 65.6324 23.0801 66.6335 22.8809C66.8508 22.8369 67.1327 22.7637 67.2561 22.7138C67.9313 22.4558 68.451 21.8813 68.6331 21.1806C68.7152 20.867 68.724 20.2572 68.6477 19.9289C68.4158 18.9028 67.7053 18.2873 66.6365 18.1788L66.62 18.177C66.4719 18.1612 66.3952 18.153 66.3186 18.1524C66.2367 18.1518 66.1546 18.16 65.9848 18.177L65.9672 18.1788ZM126.925 18.7617C128.12 18.4393 129.53 18.2282 130.86 18.1784C131.72 18.1461 131.799 18.1461 132.466 18.1754C134.259 18.2604 135.61 18.5653 136.849 19.1692C139.024 20.2333 140.381 22.1475 140.824 24.7859C140.853 24.9501 140.875 25.0796 140.895 25.2097C140.99 25.865 140.987 26.5351 140.995 31.713C141.005 37.3202 141.014 37.713 140.882 38.0509C140.865 38.0941 140.846 38.1364 140.824 38.1884C140.546 38.8568 140.02 39.3113 139.277 39.5253C138.96 39.6161 138.308 39.6132 137.964 39.5194C137.293 39.3376 136.767 38.936 136.497 38.3878C136.341 38.0742 136.306 37.8748 136.306 37.3091V36.8166L135.845 37.2827C135.385 37.7459 135.037 38.0419 134.589 38.3497C133.083 39.3846 131.232 39.8917 129.172 39.8301C127.818 39.789 126.69 39.5282 125.604 39.0064C124.459 38.4554 123.635 37.7547 123.003 36.7991C122.553 36.1189 122.263 35.3625 122.105 34.4597C122.027 34.0288 122.031 32.6041 122.105 32.1293C122.536 29.4322 124.345 27.647 127.403 26.8994C128.965 26.5184 130.947 26.4333 132.959 26.6619C133.866 26.7676 134.982 26.9992 135.951 27.2893L136.341 27.4037L136.326 26.7705C136.312 26.0523 136.256 25.683 136.089 25.1728C135.889 24.566 135.598 24.0911 135.165 23.6543C134.494 22.9919 133.607 22.5961 132.357 22.4056C131.864 22.3322 130.237 22.3322 129.606 22.4056C128.602 22.5258 127.909 22.6782 126.949 22.9977C126.186 23.2527 126.01 23.2879 125.606 23.2703C124.882 23.2351 124.228 22.813 123.919 22.1857C123.761 21.8603 123.711 21.6522 123.711 21.2974C123.711 20.9427 123.761 20.7346 123.913 20.418C124.124 19.9901 124.456 19.6558 124.867 19.4536C125.123 19.3304 126.323 18.9259 126.925 18.7617ZM135.945 30.2619C134.976 29.9393 133.895 29.7283 132.771 29.6375C132.427 29.6111 131.065 29.6023 130.815 29.6286C128.481 29.8515 127.093 30.8276 126.779 32.4634C126.716 32.7711 126.716 33.4455 126.775 33.7473C126.972 34.7587 127.662 35.5384 128.743 35.9723C130.222 36.5645 132.295 36.4413 133.89 35.6704C134.97 35.1486 135.816 34.2485 136.186 33.2255C136.382 32.6861 136.406 32.4839 136.409 31.3964V30.4172L135.945 30.2619Z" fill="#9FA0A3"></path>
</svg>
