<?xml version="1.0" encoding="UTF-8"?>
<svg xmlns="http://www.w3.org/2000/svg" width="50" height="50" viewBox="0 0 50 50" fill="none">
  <path fill-rule="evenodd" clip-rule="evenodd" d="M25 48.4375C37.9442 48.4375 48.4375 37.9442 48.4375 25C48.4375 12.0558 37.9442 1.5625 25 1.5625C12.0558 1.5625 1.5625 12.0558 1.5625 25C1.5625 37.9442 12.0558 48.4375 25 48.4375ZM25 50C38.8071 50 50 38.8071 50 25C50 11.1929 38.8071 0 25 0C11.1929 0 0 11.1929 0 25C0 38.8071 11.1929 50 25 50Z" fill="#494B50"></path>
  <circle cx="10.1562" cy="23.4375" r="3.125" fill="#494B50"></circle>
  <circle cx="39.8438" cy="25" r="3.125" fill="#494B50"></circle>
  <path fill-rule="evenodd" clip-rule="evenodd" d="M40.6065 25.767L39.0458 25.6916C39.0569 25.4626 39.0625 25.232 39.0625 25C39.0625 24.768 39.0569 24.5374 39.0458 24.3084L40.6065 24.233C40.6188 24.4871 40.625 24.7428 40.625 25C40.625 25.2572 40.6188 25.5129 40.6065 25.767ZM40.4579 22.7065L38.912 22.9339C38.8445 22.4751 38.7549 22.0236 38.6443 21.5806L40.1602 21.2021C40.2832 21.6947 40.3829 22.1966 40.4579 22.7065ZM39.7156 19.7345L38.2444 20.2609C38.0888 19.826 37.9123 19.401 37.7161 18.9869L39.1282 18.3179C39.3462 18.7782 39.5425 19.2508 39.7156 19.7345ZM38.4041 16.9661L37.0647 17.7707C36.8272 17.3753 36.5708 16.9925 36.2967 16.6235L37.551 15.6918C37.8555 16.1016 38.1403 16.5268 38.4041 16.9661ZM36.5775 14.5069L35.4201 15.5565C35.1106 15.2153 34.7847 14.8894 34.4435 14.5799L35.4931 13.4225C35.872 13.7661 36.2339 14.128 36.5775 14.5069ZM34.3082 12.449L33.3765 13.7033C33.0075 13.4292 32.6247 13.1728 32.2293 12.9353L33.0339 11.5959C33.4732 11.8597 33.8984 12.1445 34.3082 12.449ZM31.6821 10.8718L31.0131 12.2839C30.599 12.0877 30.174 11.9112 29.7391 11.7556L30.2655 10.2844C30.7492 10.4575 31.2218 10.6538 31.6821 10.8718ZM28.7979 9.83979L28.4194 11.3557C27.9764 11.2451 27.5249 11.1555 27.0661 11.088L27.2935 9.54214C27.8034 9.61714 28.3053 9.71677 28.7979 9.83979ZM25.767 9.3935L25.6916 10.9542C25.4626 10.9431 25.232 10.9375 25 10.9375C24.768 10.9375 24.5374 10.9431 24.3084 10.9542L24.233 9.3935C24.4871 9.38121 24.7428 9.375 25 9.375C25.2572 9.375 25.5129 9.38121 25.767 9.3935ZM22.7065 9.54214L22.9339 11.088C22.4751 11.1555 22.0236 11.2451 21.5806 11.3557L21.2021 9.83979C21.6947 9.71677 22.1966 9.61714 22.7065 9.54214ZM19.7345 10.2844L20.2609 11.7556C19.826 11.9112 19.401 12.0877 18.9869 12.2839L18.3179 10.8718C18.7782 10.6538 19.2508 10.4575 19.7345 10.2844ZM16.9661 11.5959C16.5268 11.8597 16.1016 12.1445 15.6918 12.449L16.6235 13.7033C16.9925 13.4292 17.3753 13.1728 17.7707 12.9353L16.9661 11.5959ZM14.5069 13.4225L15.5565 14.5799C15.2153 14.8894 14.8894 15.2153 14.5799 15.5565L13.4225 14.5069C13.7661 14.128 14.128 13.7661 14.5069 13.4225ZM12.449 15.6918L13.7033 16.6235C13.4292 16.9925 13.1728 17.3753 12.9353 17.7707L11.5959 16.9661C11.8597 16.5268 12.1445 16.1016 12.449 15.6918ZM10.8718 18.3179L12.2839 18.9869C12.0877 19.401 11.9112 19.826 11.7556 20.2609L10.2844 19.7345C10.4575 19.2508 10.6538 18.7782 10.8718 18.3179ZM9.83979 21.2021L11.3557 21.5806C11.2451 22.0236 11.1555 22.4751 11.088 22.9339L9.54214 22.7065C9.61714 22.1966 9.71677 21.6947 9.83979 21.2021ZM9.3935 24.233C9.38121 24.4871 9.375 24.7428 9.375 25C9.375 25.2572 9.38121 25.5129 9.3935 25.767L10.9542 25.6916C10.9431 25.4626 10.9375 25.232 10.9375 25C10.9375 24.768 10.9431 24.5374 10.9542 24.3084L9.3935 24.233ZM9.54214 27.2935L11.088 27.0661C11.1555 27.5249 11.2451 27.9764 11.3557 28.4194L9.83979 28.7979C9.71677 28.3053 9.61714 27.8034 9.54214 27.2935ZM10.2844 30.2655L11.7556 29.7391C11.9112 30.174 12.0877 30.599 12.2839 31.0131L10.8718 31.6821C10.6538 31.2218 10.4575 30.7492 10.2844 30.2655ZM11.5959 33.0339C11.8597 33.4732 12.1445 33.8984 12.449 34.3082L13.7033 33.3765C13.4292 33.0075 13.1728 32.6247 12.9353 32.2293L11.5959 33.0339ZM13.4225 35.4931L14.5799 34.4435C14.8894 34.7847 15.2153 35.1106 15.5565 35.4201L14.5069 36.5775C14.128 36.2339 13.7661 35.872 13.4225 35.4931ZM15.6918 37.551L16.6235 36.2967C16.9925 36.5708 17.3753 36.8272 17.7707 37.0647L16.9661 38.4041C16.5268 38.1403 16.1016 37.8555 15.6918 37.551ZM18.3179 39.1282L18.9869 37.7161C19.401 37.9123 19.826 38.0888 20.2609 38.2444L19.7345 39.7156C19.2508 39.5425 18.7782 39.3462 18.3179 39.1282ZM21.2021 40.1602L21.5806 38.6443C22.0236 38.7549 22.4751 38.8445 22.9339 38.912L22.7065 40.4579C22.1966 40.3829 21.6947 40.2832 21.2021 40.1602ZM24.233 40.6065L24.3084 39.0458C24.5374 39.0569 24.768 39.0625 25 39.0625C25.232 39.0625 25.4626 39.0569 25.6916 39.0458L25.767 40.6065C25.5129 40.6188 25.2572 40.625 25 40.625C24.7428 40.625 24.4871 40.6188 24.233 40.6065ZM27.2935 40.4579L27.0661 38.912C27.5249 38.8445 27.9764 38.7549 28.4194 38.6443L28.7979 40.1602C28.3053 40.2832 27.8034 40.3829 27.2935 40.4579ZM30.2655 39.7156L29.7391 38.2444C30.174 38.0888 30.599 37.9123 31.0131 37.7161L31.6821 39.1282C31.2218 39.3462 30.7492 39.5425 30.2655 39.7156ZM33.0339 38.4041L32.2293 37.0647C32.6247 36.8272 33.0075 36.5708 33.3765 36.2967L34.3082 37.551C33.8984 37.8555 33.4732 38.1403 33.0339 38.4041ZM35.4931 36.5775L34.4435 35.4201C34.7847 35.1106 35.1106 34.7847 35.4201 34.4435L36.5775 35.4931C36.2339 35.872 35.872 36.2339 35.4931 36.5775ZM37.551 34.3082L36.2967 33.3765C36.5708 33.0075 36.8272 32.6247 37.0647 32.2293L38.4041 33.0339C38.1403 33.4732 37.8555 33.8984 37.551 34.3082ZM39.1282 31.6821C39.3462 31.2218 39.5425 30.7492 39.7156 30.2655L38.2444 29.7391C38.0888 30.174 37.9123 30.599 37.7161 31.0131L39.1282 31.6821ZM40.1602 28.7979L38.6443 28.4194C38.7549 27.9764 38.8445 27.5249 38.912 27.0661L40.4579 27.2935C40.3829 27.8034 40.2832 28.3053 40.1602 28.7979Z" fill="#494B50"></path>
  <circle cx="25" cy="10.1562" r="3.125" fill="#FF6300"></circle>
</svg>
