<?xml version="1.0" encoding="UTF-8"?>
<svg xmlns="http://www.w3.org/2000/svg" width="278" height="120" viewBox="0 0 278 120" fill="none">
  <path d="M108.609 41.3291C111.951 44.6694 107.855 50.6995 99.4467 54.7782C91.0388 58.8744 81.499 59.4722 78.1574 56.1319C76.8818 54.8485 76.6842 53.1783 77.4208 51.3675C77.6364 50.8577 77.9418 50.1896 78.1754 49.6974C78.7503 48.625 78.8042 48.5371 79.2533 47.8163C80.0618 46.6208 80.3492 46.2164 81.4092 45.0034C82.1817 44.1771 82.3254 44.0365 83.1519 43.2981C84.0142 42.5773 84.104 42.507 84.7867 42.0147C85.721 41.3818 85.7569 41.3466 86.3318 41.0126C87.3019 40.4676 87.3199 40.45 87.8589 40.1863C88.2002 40.0281 88.6673 39.8171 89.0087 39.6765C89.4758 39.5007 90.428 39.1139 90.5178 39.1139C91.5239 38.7975 91.5239 38.7975 92.0628 38.6568C93.0869 38.4107 93.1228 38.4107 93.7157 38.3052C94.7757 38.147 94.8475 38.1294 95.5482 38.0767C96.6261 38.0063 96.7878 37.9888 97.6502 38.0063C98.7102 38.0415 98.9976 38.0415 100.165 38.1821C101.225 38.3404 101.926 38.4459 103.291 38.815C104.244 39.0963 104.998 39.3249 106.22 39.8523L107.064 40.2391C107.657 40.5379 108.178 40.9071 108.609 41.3291" fill="url(#paint0_linear_6246_116087)"></path>
  <path d="M117.5 66.434C117.033 67.5591 117.015 67.6294 116.656 68.3327C116.081 69.4051 116.027 69.493 115.578 70.2138C114.769 71.4093 114.482 71.8136 113.422 73.0267C112.649 73.8529 112.506 73.9936 111.679 74.732C110.817 75.4528 110.727 75.5231 110.044 76.0154C109.11 76.6483 109.074 76.6834 108.499 77.0174C107.529 77.5624 107.511 77.58 106.972 77.8437C106.631 78.002 106.164 78.2129 105.822 78.3536C105.355 78.5294 104.403 78.9161 104.331 78.9161C103.325 79.2326 103.325 79.2326 102.786 79.3732C101.762 79.6194 101.726 79.6194 101.133 79.7248C100.073 79.8831 100.001 79.9006 99.3008 79.9534C98.2228 80.0237 98.0611 80.0413 97.1988 80.0237C96.1388 79.9886 95.8514 79.9886 94.6836 79.8479C93.6236 79.6897 92.923 79.5842 91.5576 79.215C90.4078 78.8634 90.282 78.8282 89.4735 78.5294C88.3597 78.0723 88.2698 78.0371 87.5512 77.6855C87.2817 77.5449 86.9224 77.3515 86.6709 77.2108C90.8749 79.5842 99.6242 78.6876 107.439 74.8902C113.045 72.1652 116.799 68.614 117.841 65.5022C117.734 65.7835 117.608 66.1703 117.5 66.434" fill="url(#paint1_linear_6246_116087)"></path>
  <path d="M114.716 46.5679C115.417 47.5524 115.435 47.57 115.776 48.1325C116.387 49.1698 116.405 49.1874 116.692 49.7851C117.213 50.8751 117.213 50.8927 117.465 51.508C117.878 52.6507 117.896 52.6683 118.076 53.3012C118.381 54.4615 118.399 54.4791 118.525 55.1296C118.615 55.6394 118.722 56.3426 118.794 56.8525C119.243 60.9487 114.429 66.3811 106.326 70.3192C96.1575 75.2769 84.6235 75.9977 80.5812 71.9541C80.3836 71.7608 80.2219 71.5674 80.0782 71.374L79.683 70.8114C79.0182 69.8093 79.0003 69.7917 78.6769 69.2116C78.102 68.1392 78.102 68.1216 77.8145 67.5239C77.6888 67.225 77.5091 66.8382 77.4013 66.5218C76.9881 65.379 76.9701 65.3614 76.7905 64.7285C76.4851 63.5682 76.4671 63.5507 76.3413 62.9002C76.1437 61.7223 76.1258 61.7047 76.0719 61.0542C76.0539 60.7553 76.018 60.3334 76 60.0345C76.0539 61.1597 76.503 62.197 77.3834 63.076C81.3897 67.0668 92.762 66.346 102.823 61.4586C112.578 56.7118 117.483 49.8027 114.105 45.7416C114.267 46.0053 114.536 46.3217 114.716 46.5679" fill="url(#paint2_linear_6246_116087)"></path>
  <path fill-rule="evenodd" clip-rule="evenodd" d="M126.588 52.8116C125.973 54.2922 125.674 55.8599 125.674 57.5147C125.674 59.1869 125.973 60.7721 126.57 62.2178C127.185 63.7159 128.081 65.0397 129.258 66.2416C130.4 67.3913 131.7 68.2797 133.175 68.8893C134.651 69.499 136.706 69.8125 138.34 69.8125C139.956 69.8125 140.975 69.5164 142.45 68.8893C143.926 68.2797 145.243 67.3739 146.403 66.2068C147.562 65.0397 148.441 63.7159 149.055 62.2353C149.67 60.7547 149.969 59.1695 149.969 57.5147C149.969 55.8773 149.67 54.3096 149.055 52.829C148.441 51.3484 147.562 50.0246 146.403 48.8575C145.243 47.7078 143.926 46.8195 142.45 46.1924C140.975 45.5827 139.429 45.2692 137.83 45.2692C136.214 45.2692 134.668 45.5653 133.193 46.175C131.735 46.7846 130.417 47.6556 129.275 48.8226C128.099 50.0071 127.203 51.331 126.588 52.8116ZM129.484 61.5096C129.02 60.3719 128.788 59.1453 128.788 57.8298C128.788 56.5499 129.02 55.341 129.502 54.2033C129.948 53.0478 130.607 52.0168 131.499 51.0924C132.355 50.2036 133.318 49.5103 134.424 49.0481C135.512 48.5681 136.671 48.337 137.866 48.337C139.06 48.337 140.202 48.5681 141.29 49.0481C142.36 49.5103 143.323 50.2036 144.179 51.1102C145.052 52.0346 145.73 53.0656 146.176 54.2033C146.622 55.341 146.854 56.5499 146.854 57.8298C146.854 59.1275 146.622 60.3363 146.158 61.4918C145.694 62.6473 145.035 63.6783 144.161 64.6027C143.323 65.4916 142.36 66.1671 141.272 66.647C140.184 67.127 139.043 67.3581 137.848 67.3581C136.671 67.3581 135.529 67.127 134.424 66.647C133.318 66.1848 132.337 65.4916 131.481 64.6027C130.607 63.6783 129.948 62.6473 129.484 61.5096Z" fill="white"></path>
  <path d="M153.432 69.4402V53.0485H156.176V55.4678C156.69 54.5036 157.38 53.8198 158.265 53.3816C159.151 52.9608 160.355 52.7329 161.86 52.7329H162.639V55.573H162.179C160.142 55.573 158.673 56.0463 157.77 57.0105C156.867 57.9747 156.406 59.535 156.406 61.6914V69.4226H153.432V69.4402Z" fill="white"></path>
  <path d="M164.372 45.5099H167.364V61.2179C167.364 62.9359 167.86 64.3209 168.834 65.3903C169.808 66.4597 171.082 66.9856 172.641 66.9856C174.234 66.9856 175.509 66.4597 176.501 65.3903C177.492 64.3209 177.988 62.9184 177.988 61.1828C177.988 59.5173 177.474 58.1674 176.465 57.1156C175.456 56.0637 174.146 55.5378 172.534 55.5378C171.808 55.5378 171.1 55.6605 170.41 55.9059C169.719 56.1513 169.028 56.537 168.356 57.0454V53.8898C169.028 53.5041 169.737 53.2236 170.498 53.0483C171.242 52.873 172.039 52.7678 172.853 52.7678C173.632 52.7678 174.429 52.8905 175.19 53.1184C175.969 53.3639 176.66 53.697 177.297 54.1353C178.501 54.9592 179.422 55.976 180.06 57.1857C180.697 58.3953 181.016 59.7277 181.016 61.2003C181.016 63.6722 180.237 65.7059 178.661 67.3187C177.085 68.9141 175.102 69.7205 172.711 69.7205C171.118 69.7205 169.648 69.3173 168.32 68.5284C166.992 67.7395 165.983 66.635 165.275 65.25C164.956 64.6365 164.708 63.9703 164.566 63.234C164.425 62.4976 164.354 61.3932 164.354 59.9206V45.5099H164.372Z" fill="white"></path>
  <path fill-rule="evenodd" clip-rule="evenodd" d="M184.446 46.9026C184.078 47.2618 183.894 47.6928 183.894 48.1957C183.894 48.6985 184.078 49.1475 184.446 49.4887C184.815 49.8658 185.257 50.0454 185.772 50.0454C186.306 50.0454 186.748 49.8658 187.098 49.5066C187.448 49.1475 187.632 48.6985 187.632 48.1777C187.632 47.6569 187.448 47.2259 187.098 46.8847C186.748 46.5435 186.306 46.3639 185.772 46.3639C185.257 46.3639 184.815 46.5435 184.446 46.9026ZM183.894 53.1135V69.6802H187.009V53.1135H183.894Z" fill="white"></path>
  <path d="M190.331 66.6175H197.484C198.21 66.6175 198.759 66.4772 199.184 66.1967C199.591 65.9162 199.803 65.5305 199.803 65.0397C199.803 64.6364 199.644 64.2683 199.343 63.9878C199.042 63.6898 198.458 63.3742 197.608 63.0236L194.775 61.884C193.11 61.2178 191.96 60.5341 191.322 59.8329C190.685 59.1316 190.384 58.2551 190.384 57.1681C190.384 55.8358 190.862 54.8014 191.818 54.1002C192.774 53.3814 194.155 53.0308 195.943 53.0308H202.052V55.7656H195.147C194.58 55.7656 194.155 55.8884 193.836 56.1338C193.518 56.3792 193.358 56.7299 193.358 57.1681C193.358 57.5012 193.5 57.7993 193.783 58.0622C194.067 58.3252 194.527 58.6057 195.182 58.8687L198.157 60.0783C200.016 60.8322 201.255 61.5685 201.911 62.2697C202.566 62.971 202.884 63.8651 202.884 64.952C202.884 66.4597 202.318 67.5992 201.185 68.3355C200.051 69.0718 198.298 69.44 195.943 69.44H190.366V66.6175H190.331Z" fill="white"></path>
  <path d="M127.547 79.4831L127.851 78.6746C128.334 78.9843 128.727 79.1391 129.03 79.1391C129.567 79.1391 129.835 78.9155 129.835 78.4854C129.835 78.1758 129.567 77.9005 129.048 77.6769C128.637 77.5049 128.369 77.3673 128.226 77.2813C128.083 77.1953 127.958 77.092 127.869 76.9716C127.762 76.8512 127.69 76.7308 127.637 76.5932C127.583 76.4556 127.565 76.3179 127.565 76.1631C127.565 75.7675 127.708 75.475 128.012 75.2514C128.316 75.0278 128.691 74.9246 129.173 74.9246C129.531 74.9246 129.995 75.0278 130.531 75.2514L130.281 76.0255C129.942 75.7503 129.584 75.6299 129.227 75.6299C129.013 75.6299 128.834 75.6815 128.691 75.7675C128.548 75.8707 128.477 75.9739 128.477 76.1287C128.477 76.4384 128.655 76.662 129.013 76.8168L129.638 77.092C130.013 77.2641 130.299 77.4533 130.478 77.6769C130.657 77.9005 130.746 78.1586 130.746 78.4854C130.746 78.9155 130.585 79.2423 130.281 79.4831C129.978 79.724 129.549 79.8444 128.995 79.8444C128.494 79.8444 128.012 79.724 127.547 79.4831Z" fill="white"></path>
  <path d="M140.359 80.5669C140.252 80.8766 140.002 81.1174 139.644 81.3238C139.287 81.5303 138.876 81.6163 138.429 81.6163V80.8594C138.787 80.8594 139.108 80.7734 139.358 80.6185C139.626 80.4465 139.751 80.2573 139.751 80.0165C139.751 79.7584 139.698 79.5004 139.608 79.2424C139.519 78.9843 139.394 78.6747 139.233 78.3134L137.893 75.0106H138.787L140.234 78.6747L141.538 75.0106H142.432L140.359 80.5669Z" fill="white"></path>
  <path d="M149.599 79.4831L149.902 78.6746C150.385 78.9843 150.778 79.1391 151.082 79.1391C151.618 79.1391 151.886 78.9155 151.886 78.4854C151.886 78.1758 151.618 77.9005 151.1 77.6769C150.689 77.5049 150.421 77.3673 150.278 77.2813C150.135 77.1953 150.01 77.092 149.92 76.9716C149.813 76.8512 149.742 76.7308 149.688 76.5932C149.634 76.4556 149.617 76.3179 149.617 76.1631C149.617 75.7675 149.759 75.475 150.063 75.2514C150.367 75.0278 150.742 74.9246 151.225 74.9246C151.582 74.9246 152.047 75.0278 152.583 75.2514L152.333 76.0255C151.993 75.7503 151.636 75.6299 151.278 75.6299C151.064 75.6299 150.885 75.6815 150.742 75.7675C150.599 75.8707 150.528 75.9739 150.528 76.1287C150.528 76.4384 150.706 76.662 151.064 76.8168L151.689 77.092C152.065 77.2641 152.35 77.4533 152.529 77.6769C152.708 77.9005 152.797 78.1586 152.797 78.4854C152.797 78.9155 152.636 79.2423 152.333 79.4831C152.029 79.724 151.582 79.8444 151.046 79.8444C150.546 79.8444 150.063 79.724 149.599 79.4831Z" fill="white"></path>
  <path d="M160.836 75.6814H160.265V75.0105H160.836V74.0128L161.712 73.6859V75.0105H163.07V75.6814H161.712V78.0381C161.712 78.4337 161.783 78.7262 161.926 78.8982C162.069 79.0702 162.284 79.1562 162.605 79.1562C162.838 79.1562 163.052 79.1046 163.302 78.9842L163.427 79.7239C163.07 79.8099 162.677 79.8615 162.23 79.8615C161.837 79.8615 161.515 79.7239 161.247 79.4486C160.979 79.1734 160.836 78.8122 160.836 78.3993V75.6814Z" fill="white"></path>
  <path opacity="0.797216" fill-rule="evenodd" clip-rule="evenodd" d="M171.892 77.4782H175.303C175.354 77.3272 175.372 77.1594 175.372 76.9749C175.372 76.3877 175.183 75.9011 174.806 75.5488C174.412 75.1797 173.88 74.9951 173.212 74.9951C172.629 74.9951 172.132 75.1965 171.703 75.6159C171.223 76.0857 170.983 76.6897 170.983 77.4614C170.983 78.1997 171.223 78.7869 171.686 79.2231C172.115 79.609 172.612 79.8103 173.212 79.8103C173.623 79.8103 174 79.7432 174.343 79.6258C174.617 79.5419 174.806 79.4412 174.943 79.307L174.583 78.7198C174.257 78.9882 173.863 79.1224 173.383 79.1224C172.972 79.1224 172.629 78.9882 172.355 78.7366C172.046 78.4346 171.892 78.0151 171.892 77.4782ZM172.001 75.9527C172.245 75.7153 172.538 75.5966 172.896 75.5966C173.287 75.5966 173.58 75.7153 173.808 75.9696C174.02 76.19 174.117 76.4613 174.117 76.8004H171.61C171.642 76.4613 171.773 76.1731 172.001 75.9527Z" fill="white"></path>
  <path d="M188.712 79.7584V76.748C188.712 75.9911 188.372 75.6299 187.711 75.6299C187.497 75.6299 187.3 75.6987 187.122 75.8191C186.943 75.9395 186.818 76.0943 186.746 76.2491V79.7584H185.871V76.3867C185.871 76.1459 185.781 75.9739 185.603 75.8363C185.424 75.6987 185.174 75.6299 184.87 75.6299C184.691 75.6299 184.513 75.6987 184.316 75.8191C184.12 75.9567 183.977 76.0943 183.887 76.2491V79.7584H183.012V75.0106H183.584L183.869 75.561C184.209 75.131 184.638 74.9246 185.138 74.9246C185.853 74.9246 186.335 75.131 186.621 75.561C186.711 75.389 186.907 75.2342 187.175 75.1138C187.443 74.9934 187.711 74.9246 187.997 74.9246C188.515 74.9246 188.908 75.0622 189.176 75.3546C189.462 75.6471 189.587 76.0599 189.587 76.576V79.7584H188.712V79.7584Z" fill="white"></path>
  <path d="M197.308 79.4831L197.611 78.6746C198.094 78.9843 198.487 79.1391 198.791 79.1391C199.327 79.1391 199.595 78.9155 199.595 78.4854C199.595 78.1758 199.327 77.9005 198.809 77.6769C198.415 77.5049 198.13 77.3673 197.987 77.2813C197.844 77.1953 197.719 77.092 197.629 76.9716C197.522 76.8512 197.451 76.7308 197.397 76.5932C197.343 76.4556 197.325 76.3179 197.325 76.1631C197.325 75.7675 197.468 75.475 197.772 75.2514C198.076 75.0278 198.451 74.9246 198.934 74.9246C199.291 74.9246 199.756 75.0278 200.292 75.2514L200.042 76.0255C199.702 75.7503 199.345 75.6299 198.987 75.6299C198.773 75.6299 198.594 75.6815 198.451 75.7675C198.308 75.8707 198.237 75.9739 198.237 76.1287C198.237 76.4384 198.415 76.662 198.773 76.8168L199.398 77.092C199.774 77.2641 200.059 77.4533 200.238 77.6769C200.417 77.9005 200.506 78.1586 200.506 78.4854C200.506 78.9155 200.345 79.2423 200.042 79.4831C199.738 79.724 199.291 79.8444 198.755 79.8444C198.255 79.8444 197.754 79.724 197.308 79.4831Z" fill="white"></path>
  <defs>
    <linearGradient id="paint0_linear_6246_116087" x1="93.3835" y1="38" x2="93.3835" y2="58.2916" gradientUnits="userSpaceOnUse">
      <stop stop-color="#2363DF"></stop>
      <stop offset="1" stop-color="#2465D7"></stop>
    </linearGradient>
    <linearGradient id="paint1_linear_6246_116087" x1="102.256" y1="65.5022" x2="102.256" y2="80.0301" gradientUnits="userSpaceOnUse">
      <stop stop-color="#2363DF"></stop>
      <stop offset="1" stop-color="#2465D7"></stop>
    </linearGradient>
    <linearGradient id="paint2_linear_6246_116087" x1="97.4116" y1="45.7416" x2="97.4116" y2="74.5698" gradientUnits="userSpaceOnUse">
      <stop stop-color="#2363DF"></stop>
      <stop offset="1" stop-color="#2465D7"></stop>
    </linearGradient>
  </defs>
</svg>
