<svg width="514" height="1064" viewBox="0 0 514 1064" fill="none" xmlns="http://www.w3.org/2000/svg">
<g clip-path="url(#clip0_1545_442476)">
<rect width="1064" height="514" transform="matrix(0 1 1 0 0 0)" fill="#1C1E24"/>
<g opacity="0.7">
<path d="M491.37 -381.576C450.297 -243.586 392.678 -155.381 347.175 -100.059C301.161 -44.1164 255.883 -7.71864 218.722 73.4066C177.581 162.834 173.951 228.722 174.094 255.289C174.306 292.126 179.777 291.596 185.178 353.479C195.558 472.355 176.622 488.233 188.346 543.765C207.775 635.836 267.68 629.45 311.059 733.15C342.489 808.25 356.584 920.424 313.236 1003.9C272.41 1082.51 212.827 1073.72 185.826 1161.55C174.734 1197.62 175.752 1230.91 177.794 1297.46C180.309 1382.72 192.673 1443.4 196.473 1467.33C207.765 1538.24 201.936 1644.97 119.098 1795.67" stroke="#FF6300" stroke-miterlimit="10"/>
<path d="M510.847 -377.131C472.207 -243.203 417.395 -151.372 369.351 -90.445C329.951 -41.0691 290.805 -6.32215 256.694 47.909C249.248 59.7749 241.801 72.4026 234.742 86.309C190.292 173.949 181.259 237.888 178.278 264.83C174.261 300.954 178.03 302.16 183.195 362.79C186.813 405.513 187.732 435.411 187.649 458.315C187.496 497.246 184.186 515.7 192.543 549.133C195.618 561.593 200.025 573.773 205.679 585.433C231.805 639.351 276.606 651.743 308.907 737.657C337.025 812.441 347.088 922.647 304.105 1004.66C300.696 1011.16 296.957 1017.44 292.905 1023.48C251.972 1084.42 202.201 1085.12 178.295 1162.31C175.764 1170.44 173.772 1178.8 172.332 1187.31C167.405 1215.89 168.207 1247.32 169.726 1297.18C172.354 1379.81 184.481 1439.55 188.704 1465.96C191.735 1485.28 193.23 1504.68 193.175 1523.96C193.149 1590.74 176.033 1679.66 116.762 1793.51" stroke="#FF6300" stroke-miterlimit="10"/>
<path d="M531.952 -372.067C495.737 -242.25 444.026 -146.602 393.062 -80.2854C352.607 -27.6162 311.382 8.70625 276.338 61.4859C268.317 73.5252 260.128 86.0422 252.464 99.8358C204.685 185.673 188.268 246.94 184.119 275C178.817 311.169 177.92 313.401 182.843 372.678C186.318 414.191 188.239 444.304 189.239 467.123C190.869 505.552 189.121 523.22 198.441 554.979C202.054 567.1 206.795 578.922 212.594 590.267C238.856 642.68 280.29 658.078 308.408 742.754C333.162 817.209 339.166 925.436 296.572 1005.97C292.886 1012.77 289.318 1019 285.417 1024.66C243.435 1087.65 195.649 1089.31 172.549 1163.69C170.006 1171.75 167.994 1180.03 166.527 1188.47C161.339 1217.49 161.961 1248.83 163.613 1297.55C166.264 1377.54 178.221 1436.31 182.65 1465.14C185.658 1484.32 187.204 1503.57 187.274 1522.71C187.664 1589.04 172.054 1678.06 116.203 1791.76" stroke="#FF6300" stroke-miterlimit="10"/>
<path d="M554.327 -366.429C520.658 -240.713 471.833 -141.409 418.253 -69.5456C376.612 -13.7271 333.418 24.2668 297.448 75.5384C288.85 87.7716 279.938 100.205 271.66 113.834C220.612 197.872 201.065 257.706 191.406 285.614C179.475 320.145 179.234 325.083 183.905 383.022C187.184 423.349 190.131 453.68 192.196 476.521C195.599 514.415 195.454 531.352 205.713 561.426C209.89 573.13 214.975 584.536 220.915 595.524C247.276 646.419 285.251 664.945 309.165 748.196C330.505 822.4 332.469 928.555 290.27 1007.6C286.592 1014.33 283.026 1020.52 279.19 1026.16C236.086 1091.13 190.396 1093.83 167.917 1165.27C165.362 1173.27 163.331 1181.48 161.835 1189.86C156.367 1219.31 156.833 1250.66 158.525 1298.13C161.184 1375.41 172.931 1433.25 177.74 1464.54C180.675 1483.58 182.26 1502.69 182.48 1521.72C183.287 1587.6 169.223 1676.7 116.827 1790.23" stroke="#FF6300" stroke-miterlimit="10"/>
<path d="M576.715 -360.728C545.565 -239.114 499.706 -136.187 443.497 -58.7646C400.654 0.216287 355.486 39.8519 318.633 89.6686C309.464 102.073 299.814 114.394 290.935 127.908C236.689 210.161 212.013 267.783 198.804 296.305C183.191 330.001 180.661 336.754 185.06 393.437C188.186 432.682 192.124 463.08 195.202 485.877C200.363 523.227 201.872 539.424 213.045 567.825C217.774 579.089 223.196 590.08 229.272 600.724C255.674 650.105 290.186 671.767 309.996 753.648C327.883 827.59 325.817 931.652 284.048 1009.23C280.382 1015.88 276.821 1022.02 273.026 1027.66C228.827 1094.62 185.481 1098.39 163.501 1166.87C160.965 1174.82 158.915 1182.97 157.361 1191.27C151.645 1221.11 151.959 1252.32 153.654 1298.71C156.355 1373.35 167.914 1430.23 173.037 1463.96C175.939 1482.86 177.57 1501.83 177.918 1520.73C179.159 1586.18 166.608 1675.35 117.737 1788.74" stroke="#FF6300" stroke-miterlimit="10"/>
<path d="M590.321 -357.038C561.782 -239.575 519.04 -133.039 460.371 -50.1105C416.436 11.9802 369.357 53.2427 331.814 101.611C322.085 114.154 311.799 126.428 302.286 139.779C245.01 220.171 215.37 275.656 198.518 304.646C179.415 337.563 174.405 346.203 178.571 401.463C180.902 431.989 184.945 462.512 190.681 492.875C197.548 529.724 200.76 545.143 212.721 571.762C217.974 583.395 224.1 593.25 229.885 603.643C256.166 651.462 287.258 676.321 302.814 756.7C317.158 830.408 311.1 932.298 269.888 1008.36C266.24 1014.94 262.693 1021.04 258.955 1026.64C213.851 1095.61 172.614 1100.33 151.495 1165.93C148.974 1173.81 146.919 1181.88 145.341 1190.1C139.427 1220.38 139.516 1251.47 141.177 1296.59C143.852 1368.5 155.226 1424.44 160.655 1460.58C163.506 1479.35 165.168 1498.18 165.631 1516.95C167.307 1581.93 156.354 1671.12 111.108 1784.3" stroke="#FF6300" stroke-miterlimit="10"/>
<path d="M599.379 -354.512C573.443 -241.257 533.843 -131.143 472.845 -42.6939C427.885 22.4919 378.935 65.3148 340.899 112.317C330.599 125.01 319.683 137.183 309.59 150.405C249.419 229.048 214.894 282.415 194.401 311.831C171.968 343.931 164.395 354.4 168.285 408.306C170.466 438.51 175.099 468.705 182.133 498.561C190.666 534.801 195.593 549.541 208.481 574.469C214.157 585.522 220.706 594.889 226.573 605.241C252.862 651.565 280.097 679.506 291.637 758.399C302.383 831.887 292.404 931.577 251.783 1006.09C248.165 1012.58 244.641 1018.62 240.956 1024.23C195.077 1095.22 156.048 1100.98 135.877 1163.6C133.354 1171.41 131.289 1179.41 129.692 1187.56C123.556 1218.21 123.453 1249.22 125.223 1293.14C127.932 1362.33 139.048 1417.27 144.805 1455.86C147.592 1474.48 149.286 1493.16 149.879 1511.79C151.981 1576.3 142.63 1665.52 101.036 1778.46" stroke="#FF6300" stroke-miterlimit="10"/>
<path d="M608.559 -351.86C585.294 -242.785 548.742 -129.167 485.416 -35.1596C439.419 33.0897 388.569 77.4361 349.913 123.032C339.003 135.861 327.452 147.978 316.828 161.061C253.828 237.926 214.52 289.247 190.272 318.977C164.562 350.525 154.421 362.585 158.041 415.115C160.174 445.08 165.496 475.012 173.905 504.351C184.061 539.926 190.774 554.036 204.433 577.249C210.564 587.663 217.46 596.567 223.478 606.875C249.622 651.679 273.179 682.819 280.692 760.168C287.814 833.445 273.971 930.876 233.993 1003.8C230.398 1010.22 226.893 1016.21 223.249 1021.79C176.45 1094.74 139.709 1101.4 120.234 1161.15C117.731 1168.89 115.657 1176.81 114.021 1184.88C107.549 1215.92 107.372 1246.84 109.206 1289.54C111.881 1356.02 122.809 1409.96 128.829 1450.98C131.579 1469.46 133.319 1488 134.039 1506.49C136.485 1570.49 128.727 1659.73 90.852 1772.44" stroke="#FF6300" stroke-miterlimit="10"/>
<path d="M617.762 -349.214C597.106 -244.306 563.619 -127.154 497.983 -27.6359C450.946 43.6956 398.183 89.5573 359.029 133.81C347.584 146.753 335.459 158.854 324.142 171.723C258.319 246.834 214.242 296.152 186.261 326.174C157.32 357.134 144.579 370.792 147.926 421.969C150.007 451.684 155.95 481.337 165.59 510.097C177.346 545.187 185.876 558.472 200.303 579.972C206.903 589.776 214.095 598.246 220.266 608.489C246.29 651.782 266.137 686.053 269.71 761.881C273.155 834.968 255.557 930.149 216.146 1001.6C212.574 1007.95 209.087 1013.89 205.525 1019.44C157.952 1094.43 123.37 1102.01 104.681 1158.85C102.195 1166.53 100.111 1174.38 98.4375 1182.37C91.6987 1213.79 91.3816 1244.72 93.2477 1286.15C95.9405 1349.88 106.651 1402.87 112.96 1446.29C115.685 1464.63 117.485 1483.02 118.351 1501.38C121.283 1564.93 115.023 1654.17 80.7976 1766.66" stroke="#FF6300" stroke-miterlimit="10"/>
<path d="M626.893 -346.577C608.767 -245.855 578.299 -125.136 510.384 -20.1066C462.272 54.3834 407.61 101.622 367.993 144.589C355.948 157.646 343.256 169.711 331.371 182.428C262.806 255.783 214 303.129 182.206 333.387C150.138 363.88 134.739 379.042 137.819 428.845C139.907 458.349 146.521 487.745 157.404 515.884C170.707 550.382 181.111 562.956 196.28 582.738C203.347 591.932 210.827 599.897 217.145 610.211C243.02 652.029 259.042 689.432 258.831 763.737C258.578 836.62 237.291 929.543 198.472 999.479C194.927 1005.74 191.459 1011.64 188.058 1017.21C139.696 1094.21 107.256 1102.71 89.4005 1156.62C86.8868 1164.24 84.789 1172.03 83.1164 1179.98C76.2804 1211.83 75.6711 1242.54 77.4743 1282.82C80.1802 1343.83 90.6794 1395.84 97.2712 1441.69C99.6652 1458.27 101.664 1476.42 102.691 1496.33C106.026 1559.39 101.341 1648.66 70.7278 1760.89" stroke="#FF6300" stroke-miterlimit="10"/>
<path d="M635.707 -344.023C620.203 -247.566 592.763 -123.299 522.591 -12.7143C473.448 64.7359 416.818 113.509 376.757 155.219C364.119 168.369 350.879 180.426 338.387 192.977C267.074 264.664 213.576 310.089 178.04 340.437C142.735 370.422 124.822 387.105 127.632 435.557C129.727 464.883 136.985 494.047 149.031 521.544C163.885 555.501 176.21 567.199 192.05 585.379C199.582 593.964 207.358 601.474 213.843 611.658C239.529 651.989 251.876 692.539 247.822 765.272C243.767 838.004 218.908 928.632 180.681 997.034C177.16 1003.23 173.71 1009.08 170.327 1014.61C121.174 1093.62 90.8636 1103.06 73.7974 1154.12C71.2928 1161.65 69.196 1169.35 67.5163 1177.21C60.402 1209.5 59.6654 1240.07 61.5932 1279.06C64.2869 1337.36 74.6018 1388.37 81.4538 1436.65C83.8131 1453.14 85.8124 1471.14 86.9862 1490.87C90.7231 1553.43 87.5825 1642.71 60.5994 1754.72" stroke="#FF6300" stroke-miterlimit="10"/>
<path d="M644.351 -341.478C631.441 -249.103 606.954 -121.449 534.557 -5.30982C484.416 75.29 425.766 125.346 385.345 165.826C372.092 179.084 358.328 191.139 345.223 203.568C271.163 273.537 213.055 317.084 173.674 347.46C135.361 377.097 114.691 395.241 117.289 442.176C119.017 473.341 129.472 504.513 140.498 527.09C156.849 560.513 171.087 571.543 187.633 587.928C195.637 595.861 203.705 602.939 210.363 613.064C235.815 651.917 244.416 695.512 236.634 766.75C228.783 839.187 200.405 927.67 162.767 994.54C159.272 1000.65 155.84 1006.45 152.471 1011.96C102.514 1092.96 74.3263 1103.31 58.0882 1151.42C55.589 1158.88 53.4818 1166.51 51.7755 1174.29C44.3857 1206.91 43.5255 1237.43 45.4698 1275.32C48.1769 1330.91 58.2967 1380.87 65.4287 1431.58C67.7324 1447.97 69.7743 1465.85 71.057 1485.34C75.2096 1547.44 73.6058 1636.74 50.1537 1748.48" stroke="#FF6300" stroke-miterlimit="10"/>
<path d="M652.87 -338.992C642.533 -250.768 620.753 -119.806 546.353 2.02152C494.951 85.4287 434.553 137.105 393.7 176.38C379.822 189.694 365.543 201.819 351.854 213.997C275.164 282.375 212.293 324.013 169.252 354.471C127.855 383.756 104.615 403.162 106.891 448.912C108.448 478.926 119.738 510.225 131.906 532.732C149.747 565.622 165.917 575.741 183.145 590.555C191.604 597.901 199.93 604.49 206.756 614.578C232.081 651.988 236.797 698.643 225.498 768.426C213.784 840.655 181.989 926.908 144.914 992.239C141.454 998.291 138.041 1004.04 134.675 1009.5C83.9682 1092.55 57.8485 1103.79 42.4244 1149C39.9212 1156.38 37.8048 1163.94 36.0843 1171.64C28.4529 1204.64 27.4487 1235.1 29.4111 1271.78C32.1151 1324.63 42.1236 1373.69 49.4467 1426.81C51.737 1443.13 53.7632 1460.83 55.1662 1480.15C59.7372 1541.75 59.6624 1631.07 39.8213 1742.59" stroke="#FF6300" stroke-miterlimit="10"/>
<path d="M661.224 -336.543C653.408 -252.502 634.607 -118.006 557.964 9.30721C505.54 95.7785 443.098 148.813 401.943 186.902C387.484 200.287 372.664 212.403 358.371 224.437C279.024 291.192 211.475 331.057 164.696 361.404C120.2 390.373 94.3014 411.099 96.3542 455.398C97.7167 484.277 109.854 515.73 123.209 538.137C142.525 570.537 160.659 579.759 178.558 592.933C187.519 599.57 196.092 605.828 203.073 615.829C228.154 651.942 231.111 702.314 214.194 769.933C196.407 841.022 163.44 925.976 126.939 989.798C123.502 995.775 120.108 1001.47 116.757 1006.9C65.4232 1092.06 41.2234 1104.11 26.6085 1146.41C24.1159 1153.73 21.996 1161.22 20.2574 1168.85C12.4059 1202.24 11.2036 1232.68 13.1645 1268.04C16.0038 1318.12 25.9139 1366.33 33.3946 1421.81C35.6509 1438.04 37.6987 1455.6 39.2304 1474.7C44.2134 1535.84 45.6597 1625.17 29.3738 1736.44" stroke="#FF6300" stroke-miterlimit="10"/>
<path d="M669.486 -334.214C664.154 -254.337 648.362 -116.32 569.459 16.4672C516.016 105.999 451.582 160.269 409.999 197.247C394.905 210.753 379.608 222.881 364.644 234.679C282.576 299.834 210.521 337.817 159.969 368.198C112.409 396.951 83.9792 419.079 85.7427 462.045C86.9156 489.768 99.8764 521.367 114.409 543.697C135.152 575.594 155.256 583.854 173.776 595.512C183.228 601.484 192.035 607.361 199.208 617.311C224.101 651.868 221.195 704.409 202.829 771.373C183.291 842.858 144.867 924.959 108.939 987.25C105.533 993.047 102.126 998.845 98.8129 1004.19C46.6784 1091.34 24.5355 1104.33 10.7458 1143.73C8.24773 1150.98 6.11854 1158.39 4.36684 1165.94C-3.72482 1199.72 -5.04741 1229.99 -3.04467 1264.24C-0.318064 1311.69 9.30176 1358.79 17.1682 1416.7C19.3865 1432.86 21.3476 1450.28 23.098 1469.26C28.3712 1529.87 31.4307 1619.26 18.699 1730.2" stroke="#FF6300" stroke-miterlimit="10"/>
<path d="M677.604 -331.723C674.831 -256.002 661.953 -114.515 580.81 23.7889C526.33 116.465 459.821 171.868 417.97 207.698C402.255 221.167 386.472 233.464 370.963 245.068C286.446 308.847 209.497 344.772 155.296 374.97C104.582 403.358 73.6662 426.715 75.1775 468.498C76.1619 495.066 89.9343 526.855 105.624 549.079C127.908 580.535 149.858 587.751 169.039 597.907C179.015 603.157 188.026 608.691 195.374 618.559C220.051 651.715 213.188 707.172 191.5 772.731C168.076 843.844 126.351 923.904 90.9757 984.638C87.5771 990.432 84.2096 996.076 81.0697 1001.47C28.1301 1090.62 7.98425 1104.47 -5.01035 1141C-7.48776 1148.23 -9.59663 1155.64 -11.3284 1163.19C-18.9599 1194.45 -21.593 1227.31 -19.1227 1260.48C-16.3824 1305.22 -6.96499 1351.35 1.17794 1411.67C3.34207 1427.74 5.39174 1445.01 7.21617 1463.71C15.3422 1550.99 15.6889 1638.13 8.25152 1723.94" stroke="#FF6300" stroke-miterlimit="10"/>
<path d="M685.68 -329.36C685.407 -257.783 675.468 -112.795 592.075 30.9701C536.595 126.614 468.107 183.342 425.849 218.162C238.15 372.668 61.6476 383.378 64.5149 475.062C65.3116 500.476 79.893 532.455 96.7606 554.557C132.751 601.751 169.496 591.39 191.441 619.931C245.262 689.91 128.673 887.684 63.1591 998.839C-0.727389 1107.21 -14.2349 1107.59 -27.2079 1160.19C-49.9035 1252 -23.9725 1312.03 -8.81333 1458.19C0.0791765 1545.06 2.22204 1631.89 -2.40695 1717.79" stroke="#FF6300" stroke-miterlimit="10"/>
<path d="M690.953 -328.538C691.576 -254.734 680.888 -114.532 600.975 22.9441C545.723 117.807 477.247 171.24 432.534 208.861C254.088 359.203 91.7117 371.327 87.3196 462.381C85.5956 497.953 89.0045 535.749 100.379 563.674C122.753 618.551 154.335 611.152 174.234 645.235C217.832 719.861 113.58 905.92 52.4881 1012.24C-7.14762 1115.78 -18.2904 1117.11 -27.7668 1174.13C-43.5172 1268.86 -21.2127 1325.37 -6.15285 1463.36C3.22942 1549.45 5.04451 1635.53 -0.731585 1720.48" stroke="#FF6300" stroke-miterlimit="10"/>
<path d="M696.448 -327.629C698.307 -204.236 668.449 -85.777 610.088 14.9889C555.086 109.077 486.608 159.068 439.427 199.628C269.966 345.429 119.303 359.316 110.383 449.783C105.874 495.691 98.4656 537.825 104.217 572.875C114.008 632.983 139.166 630.078 157.175 670.634C191.529 748.099 98.6217 924.236 41.9635 1025.75C-13.367 1124.24 -22.3489 1126.49 -28.1449 1188.16C-37.3135 1285.44 -18.0489 1338.86 -3.2756 1468.6C6.58501 1553.88 8.07669 1639.19 1.17492 1723.14" stroke="#FF6300" stroke-miterlimit="10"/>
<path d="M706.305 -324.928C709.159 -204.772 680.547 -89.2444 623.66 8.76403C568.951 102.027 500.539 148.584 450.96 192.062C290.495 332.809 166.177 354.237 138.479 438.772C121.155 491.657 113.684 540.98 113.02 583.681C111.995 648.194 129.056 649.968 144.976 697.624C171.333 776.518 88.815 944.178 36.4665 1040.72C-14.3177 1134.38 -21.4698 1137.19 -23.4179 1203.61C-26.3445 1303.26 -9.80355 1353.72 4.67886 1475.24C15.0373 1559.71 16.2068 1644.26 8.16366 1727.2" stroke="#FF6300" stroke-miterlimit="10"/>
<path d="M721.374 -320.078C725.207 -203.205 697.859 -90.6478 642.495 4.55603C588.126 96.9828 519.876 140.073 467.981 186.483C316.524 321.936 203.141 346.246 172.473 429.703C149.703 491.71 123.518 544.484 127.766 596.345C133.609 667.708 134.436 670.577 138.681 726.442C170.892 802.472 84.9239 965.859 37.0077 1057.46C-9.29501 1146.16 -14.6332 1149.54 -12.5533 1220.8C-9.57391 1322.62 4.63214 1370.26 18.7215 1483.49C29.5547 1567.13 30.3927 1650.91 21.2153 1732.79" stroke="#FF6300" stroke-miterlimit="10"/>
<path d="M736.784 -315.09C741.613 -201.5 715.586 -91.8892 661.828 0.580378C607.845 92.1835 539.703 131.765 485.515 181.135C342.89 311.051 239.511 337.895 207.006 420.71C179.009 492.11 146.277 548.442 143.072 609.234C138.934 687.62 133.183 692.81 132.977 755.476C159.61 832.907 81.4504 987.631 38.1466 1074.27C-3.67803 1158.01 -7.41624 1161.9 -1.10298 1238.05C7.45676 1342.05 19.6885 1386.87 33.3385 1491.82C44.6468 1574.63 45.1531 1657.64 34.8428 1738.46" stroke="#FF6300" stroke-miterlimit="10"/>
<path d="M752.507 -309.976C758.282 -199.711 733.548 -93.0883 681.387 -3.39121C627.771 87.3803 559.75 123.41 503.29 175.788C369.339 300.05 275.456 329.265 241.711 411.997C208.811 492.658 182.023 557.831 158.622 622.106C129.72 701.471 132.18 715.014 127.551 784.485C148.717 863.463 78.3409 1009.5 39.5222 1091.33C2.17082 1170.11 -0.0940281 1174.48 10.5696 1255.55C24.5121 1361.48 35.0517 1403.72 48.2134 1500.3C59.9838 1582.28 60.1579 1664.54 48.7296 1744.27" stroke="#FF6300" stroke-miterlimit="10"/>
<path d="M768.424 -304.772C774.269 -217.253 759.584 -106.441 701.144 -7.20272C648.091 82.8684 579.964 115.181 521.278 170.578C395.859 288.981 311.137 320.528 276.646 403.267C239.056 493.482 205.886 564.165 174.404 635.122C136.674 720.094 119.309 735.589 122.394 813.631C125.586 894.49 75.5748 1031.45 41.1953 1108.36C8.29076 1182.17 7.42592 1187.04 22.5028 1273.01C41.5699 1381.1 50.7255 1420.56 63.2972 1508.96C71.1104 1563.91 79.3097 1645.65 62.8269 1750.26" stroke="#FF6300" stroke-miterlimit="10"/>
<path d="M784.638 -299.458C791.313 -209.684 775.971 -103.803 721.178 -10.9313C668.515 78.3134 600.4 106.993 539.548 165.471C422.547 277.868 346.81 311.464 311.834 394.662C269.83 494.534 230.115 570.828 190.487 648.209C143.96 739.041 118.958 757.347 117.579 842.838C116.331 924.348 72.9818 1053.42 43.1912 1125.5C14.7177 1194.38 14.9345 1199.79 34.7614 1290.59C58.7985 1400.78 66.7922 1437.46 78.7051 1517.59C86.7806 1571.86 95.1973 1652.48 77.2709 1756.23" stroke="#FF6300" stroke-miterlimit="10"/>
<path d="M801.039 -294.066C808.633 -201.94 792.545 -101.088 741.413 -14.5743C689.143 73.8435 621.029 98.8414 558.029 160.448C449.324 266.735 382.462 302.417 347.214 386.118C301.01 495.824 254.594 577.695 206.797 661.367C151.476 758.236 119.336 779.349 113.032 872.109C107.435 954.411 70.7579 1075.48 45.4497 1142.68C21.3849 1206.49 22.6712 1212.59 47.2636 1308.2C76.1515 1420.61 83.1561 1454.43 94.3448 1526.29C102.698 1579.91 111.423 1659.39 91.9279 1762.26" stroke="#FF6300" stroke-miterlimit="10"/>
<path d="M817.687 -288.579C826.084 -194.301 809.341 -98.2642 761.869 -18.1279C709.97 69.4558 641.807 90.7102 576.738 155.514C476.229 255.573 408.458 288.584 382.79 377.683C346.391 503.999 279.303 584.712 223.346 674.601C159.253 777.596 98.8168 799.376 108.768 901.446C117.153 986.734 68.7064 1097.48 47.9742 1159.95C28.3631 1218.77 30.5723 1225.51 59.9911 1325.9C93.6242 1440.55 99.8536 1471.45 110.228 1535.05C118.883 1588 127.845 1666.38 106.851 1768.36" stroke="#FF6300" stroke-miterlimit="10"/>
<path d="M834.873 -282.872C844.135 -186.333 826.638 -95.2594 782.98 -21.4026C731.461 65.3235 663.181 82.7656 596.127 150.833C503.696 244.674 446.22 280.262 419.034 369.477C377.612 505.271 304.713 592.059 240.611 688.088C167.752 797.29 103.324 820.954 105.272 931.023C106.834 1018.33 67.541 1119.9 51.2684 1177.42C36.0377 1231.23 39.1119 1238.79 73.487 1343.79C111.768 1460.78 117.344 1488.7 126.838 1544.05C135.82 1596.32 144.975 1673.57 122.483 1774.68" stroke="#FF6300" stroke-miterlimit="10"/>
<path d="M853.155 -276.711C863.283 -177.939 845.12 -91.8046 804.967 -24.3292C753.835 61.5562 685.385 75.0955 616.436 146.512C532.071 233.876 484.896 272.272 456.194 361.641C409.553 506.877 331.105 599.783 258.906 701.879C177.234 817.365 109.919 843.747 102.887 960.881C97.5402 1049.95 67.3827 1142.47 55.6394 1195.2C44.7702 1243.96 48.673 1252.38 88.0303 1361.98C130.89 1481.32 135.941 1506.29 144.506 1553.31C153.872 1604.91 163.131 1681.14 139.176 1781.25" stroke="#FF6300" stroke-miterlimit="10"/>
<path d="M871.763 -270.427C882.75 -169.404 863.882 -88.2194 827.395 -27.0901C776.63 57.9474 707.901 67.4812 637.194 142.356C560.759 223.277 523.948 264.37 493.766 353.947C441.715 508.457 357.908 607.695 277.642 715.809C187.178 837.71 117.753 867.45 101.001 990.865C88.7059 1081.44 67.6739 1165.17 60.5186 1213.09C53.9632 1256.77 58.6291 1266.15 103.055 1380.29C150.433 1502.1 155.21 1523.85 162.641 1562.7C172.461 1613.61 181.821 1688.61 156.338 1787.95" stroke="#FF6300" stroke-miterlimit="10"/>
<path d="M892.019 -263.473C903.838 -160.214 884.183 -84.0806 851.451 -29.1993C800.894 54.8589 731.938 60.353 659.639 138.839C591.081 213.251 564.65 257.071 533.014 346.9C475.394 510.511 386.472 616.25 298.193 730.234C199.022 858.363 136.588 895.697 101.04 1021.31C75.7281 1110.83 69.8972 1188.3 67.3098 1231.45C65.0031 1270.11 70.4698 1280.46 119.928 1399.05C171.815 1523.35 176.232 1541.88 182.583 1572.51C193.01 1622.71 202.285 1696.63 175.333 1795.06" stroke="#FF6300" stroke-miterlimit="10"/>
<path d="M912.074 -256.604C924.749 -151.125 904.414 -79.9122 875.308 -31.3568C825.151 51.8341 755.57 52.9569 681.878 135.256C621.11 203.123 605.07 249.66 571.996 339.77C508.64 512.394 414.763 624.749 318.493 744.784C210.554 879.318 142.917 920.335 100.876 1051.87C71.7205 1143.24 71.7555 1211.56 73.862 1249.9C75.7658 1283.54 81.9769 1294.92 136.557 1417.9C192.859 1544.77 197.131 1559.99 202.288 1582.47C213.616 1631.89 222.475 1704.75 194.052 1802.31" stroke="#FF6300" stroke-miterlimit="10"/>
<path d="M932.145 -249.73C945.663 -142.082 924.633 -75.6075 899.152 -33.5305C849.403 48.7295 778.882 45.3123 704.095 131.679C651.008 192.98 645.413 242.238 610.898 332.671C541.637 514.127 442.915 633.24 338.762 759.213C222.097 900.154 149.152 944.996 100.731 1082.3C67.7302 1175.91 73.5271 1234.74 80.4245 1268.27C86.313 1296.88 93.4684 1309.25 153.168 1436.67C213.891 1566.15 218.104 1577.97 221.957 1592.3C235.006 1640.79 242.67 1712.78 212.779 1809.45" stroke="#FF6300" stroke-miterlimit="10"/>
</g>
</g>
<defs>
<clipPath id="clip0_1545_442476">
<rect width="1064" height="514" fill="white" transform="matrix(0 1 1 0 0 0)"/>
</clipPath>
</defs>
</svg>
