<?xml version="1.0" encoding="UTF-8"?>
<svg xmlns="http://www.w3.org/2000/svg" width="175" height="52" viewBox="0 0 175 52" fill="none">
  <g clip-path="url(#clip0_4685_470)">
    <g clip-path="url(#clip1_4685_470)">
      <mask id="mask0_4685_470" style="mask-type:luminance" maskUnits="userSpaceOnUse" x="0" y="5" width="175" height="42">
        <path d="M174.41 5.6521H0V46.3478H174.41V5.6521Z" fill="white"></path>
      </mask>
      <g mask="url(#mask0_4685_470)">
        <path d="M61.6302 19.4885C54.815 19.4885 51.0044 22.6702 51.0044 28.2196C51.0044 33.6951 54.815 36.9507 61.6302 36.9507C68.5187 36.9507 72.256 33.769 72.256 28.2196C72.3292 22.6702 68.5187 19.4885 61.6302 19.4885ZM61.6302 33.6951C57.0867 33.6951 54.7417 31.6972 54.7417 28.1456C54.7417 24.5939 57.1601 22.5962 61.6302 22.5962C66.1736 22.5962 68.5187 24.5939 68.5187 28.1456C68.5187 31.6972 66.1736 33.6951 61.6302 33.6951Z" fill="#8D8E91"></path>
        <path d="M87.7185 22.0044L82.5888 28.2938L77.4591 22.0044H73.2087L79.2911 29.3296L73.282 36.6548H77.3858L82.5888 30.4396L87.7917 36.6548H91.8956L85.8864 29.3296L91.9688 22.0044H87.7185Z" fill="#8D8E91"></path>
        <path d="M102.961 34.0651L97.2446 22.0044H93.3608L99.3698 34.5092H102.814C101.788 36.5809 100.322 37.0988 97.6842 37.0988C96.1454 37.0988 94.8264 36.8768 93.8004 36.5809V39.6146C94.753 39.9105 95.9989 40.0584 97.5377 40.0584C101.641 40.0584 104.353 39.1705 106.112 35.3231L112.194 22.0044H108.31L102.961 34.0651Z" fill="#8D8E91"></path>
        <path d="M121.867 31.4754C118.276 31.4754 116.224 30.5136 116.224 28.1458C116.224 25.852 118.349 24.8162 121.867 24.8162C124.798 24.8162 127.583 25.852 128.096 28.2938C127.949 23.7803 125.824 21.7825 120.841 21.7825C115.858 21.7825 112.56 23.8543 112.56 28.2938C112.56 32.5113 115.785 34.3612 120.914 34.3612C125.604 34.3612 127.876 32.8074 128.023 28.5157C127.436 30.6615 124.945 31.4754 121.867 31.4754Z" fill="#8D8E91"></path>
        <path d="M128.097 28.2938V28.5897V32.8072C128.097 35.7669 126.484 37.0249 120.768 37.0249C117.691 37.0249 115.052 36.5069 113.44 35.9889V39.2445C115.126 39.6885 117.617 40.0584 120.768 40.0584C128.683 40.0584 131.907 37.9867 131.907 32.8072V22.0044H128.17V28.2938H128.097Z" fill="#8D8E91"></path>
        <path d="M144.072 21.7085C138.502 21.7085 134.838 24.4462 134.838 29.4036C134.838 34.5831 138.429 36.8769 145.171 36.8769C148.176 36.8769 150.667 36.4329 152.5 35.767V32.8813C150.375 33.6213 147.882 33.9172 145.318 33.9172C140.994 33.9172 138.869 32.9553 138.502 30.3656H152.719C153.085 25.0381 150.594 21.7085 144.072 21.7085ZM138.649 27.7758C139.235 25.5561 141.067 24.5943 143.999 24.5943C147.443 24.5943 148.982 25.7041 149.349 27.7758H138.649Z" fill="#8D8E91"></path>
        <path d="M166.861 21.7085C162.684 21.7085 160.046 23.7062 159.68 27.7018C160.78 25.926 162.684 24.8902 165.323 24.8902C168.327 24.8902 170.012 26.148 170.012 28.9597V36.5809H173.676V28.4417C173.75 24.1502 171.478 21.7085 166.861 21.7085Z" fill="#8D8E91"></path>
        <path d="M156.09 22.0044V36.6548H159.68V27.7018V22.0044H156.09Z" fill="#8D8E91"></path>
        <path d="M26.0885 11.1274C24.1099 10.5355 21.8382 10.2395 19.4932 10.2395C7.76815 10.2395 0.440002 17.1948 0.440002 28.2936C0.440002 39.3925 7.76815 46.3476 19.4932 46.3476C31.2182 46.3476 38.5463 39.3925 38.5463 28.2936C38.5463 25.6299 38.1067 23.2622 37.3739 21.1163C30.2655 22.0782 25.6489 17.5647 26.0885 11.1274ZM19.4932 34.583C15.4628 34.583 12.9711 32.2152 12.9711 28.3676C12.9711 24.5199 15.4628 22.1522 19.4932 22.1522C23.5237 22.1522 26.0153 24.5199 26.0153 28.3676C26.0153 32.2152 23.4504 34.583 19.4932 34.583Z" fill="#8D8E91"></path>
        <path d="M35.6145 18.2307C39.2165 18.2307 42.1366 15.448 42.1366 12.0154C42.1366 8.58275 39.2165 5.80005 35.6145 5.80005C32.0125 5.80005 29.0924 8.58275 29.0924 12.0154C29.0924 15.448 32.0125 18.2307 35.6145 18.2307Z" fill="#8D8E91"></path>
      </g>
    </g>
  </g>
  <defs>
    <clipPath id="clip0_4685_470">
      <rect width="174.087" height="52" fill="white"></rect>
    </clipPath>
    <clipPath id="clip1_4685_470">
      <rect width="174.41" height="40.6957" fill="white" transform="translate(0 5.6521)"></rect>
    </clipPath>
  </defs>
</svg>
