<?xml version="1.0" encoding="UTF-8"?>
<svg xmlns="http://www.w3.org/2000/svg" width="154" height="46" viewBox="0 0 154 46" fill="none">
  <g clip-path="url(#clip0_4685_485)">
    <g clip-path="url(#clip1_4685_485)">
      <mask id="mask0_4685_485" style="mask-type:luminance" maskUnits="userSpaceOnUse" x="0" y="5" width="155" height="36">
        <path d="M154.286 5H0V41H154.286V5Z" fill="white"></path>
      </mask>
      <g mask="url(#mask0_4685_485)">
        <path d="M54.5191 17.24C48.4902 17.24 45.1193 20.0545 45.1193 24.9636C45.1193 29.8073 48.4902 32.6873 54.5191 32.6873C60.6127 32.6873 63.9188 29.8728 63.9188 24.9636C63.9836 20.0545 60.6127 17.24 54.5191 17.24ZM54.5191 29.8073C50.4998 29.8073 48.4254 28.04 48.4254 24.8982C48.4254 21.7563 50.5647 19.9891 54.5191 19.9891C58.5382 19.9891 60.6127 21.7563 60.6127 24.8982C60.6127 28.04 58.5382 29.8073 54.5191 29.8073Z" fill="white"></path>
        <path d="M77.5971 19.4653L73.0593 25.029L68.5215 19.4653H64.7615L70.1421 25.9453L64.8263 32.4253H68.4567L73.0593 26.9272L77.6619 32.4253H81.2922L75.9764 25.9453L81.357 19.4653H77.5971Z" fill="white"></path>
        <path d="M91.0805 30.1344L86.0241 19.4653H82.5884L87.904 30.5272H90.9509C90.0433 32.3599 88.7468 32.8181 86.413 32.8181C85.0517 32.8181 83.8849 32.6217 82.9773 32.3599V35.0436C83.82 35.3053 84.9221 35.4362 86.2834 35.4362C89.9136 35.4362 92.3122 34.6508 93.8681 31.2472L99.2485 19.4653H95.8129L91.0805 30.1344Z" fill="white"></path>
        <path d="M107.805 27.8436C104.629 27.8436 102.814 26.9927 102.814 24.8982C102.814 22.869 104.694 21.9527 107.805 21.9527C110.398 21.9527 112.862 22.869 113.316 25.029C113.186 21.0364 111.306 19.269 106.898 19.269C102.49 19.269 99.5725 21.1018 99.5725 25.029C99.5725 28.7599 102.425 30.3964 106.963 30.3964C111.112 30.3964 113.121 29.0218 113.251 25.2254C112.732 27.1236 110.528 27.8436 107.805 27.8436Z" fill="white"></path>
        <path d="M113.316 25.029V25.2908V29.0217C113.316 31.6399 111.89 32.7527 106.834 32.7527C104.111 32.7527 101.777 32.2944 100.351 31.8362V34.7162C101.842 35.109 104.046 35.4362 106.834 35.4362C113.835 35.4362 116.687 33.6036 116.687 29.0217V19.4653H113.381V25.029H113.316Z" fill="white"></path>
        <path d="M127.448 19.2036C122.521 19.2036 119.28 21.6254 119.28 26.0108C119.28 30.5927 122.457 32.6218 128.421 32.6218C131.079 32.6218 133.282 32.2291 134.904 31.6399V29.0873C133.024 29.7418 130.819 30.0036 128.55 30.0036C124.725 30.0036 122.846 29.1527 122.521 26.8618H135.098C135.422 22.1491 133.218 19.2036 127.448 19.2036ZM122.651 24.5708C123.17 22.6073 124.79 21.7564 127.383 21.7564C130.431 21.7564 131.792 22.7382 132.116 24.5708H122.651Z" fill="white"></path>
        <path d="M147.608 19.2036C143.913 19.2036 141.579 20.9708 141.255 24.5054C142.228 22.9345 143.913 22.0182 146.247 22.0182C148.905 22.0182 150.395 23.1308 150.395 25.6182V32.3599H153.636V25.1599C153.702 21.3636 151.692 19.2036 147.608 19.2036Z" fill="white"></path>
        <path d="M138.079 19.4653V32.4253H141.255V24.5053V19.4653H138.079Z" fill="white"></path>
        <path d="M23.0783 9.84356C21.3279 9.31993 19.3184 9.05811 17.244 9.05811C6.87181 9.05811 0.389221 15.2108 0.389221 25.029C0.389221 34.8473 6.87181 40.9999 17.244 40.9999C27.6161 40.9999 34.0987 34.8473 34.0987 25.029C34.0987 22.6727 33.7098 20.5781 33.0615 18.6799C26.7733 19.5308 22.6894 15.5381 23.0783 9.84356ZM17.244 30.5927C13.6786 30.5927 11.4745 28.4981 11.4745 25.0945C11.4745 21.6908 13.6786 19.5962 17.244 19.5962C20.8094 19.5962 23.0135 21.6908 23.0135 25.0945C23.0135 28.4981 20.7446 30.5927 17.244 30.5927Z" fill="white"></path>
        <path d="M31.5051 16.1272C34.6915 16.1272 37.2746 13.6656 37.2746 10.629C37.2746 7.59248 34.6915 5.13086 31.5051 5.13086C28.3187 5.13086 25.7356 7.59248 25.7356 10.629C25.7356 13.6656 28.3187 16.1272 31.5051 16.1272Z" fill="white"></path>
      </g>
    </g>
  </g>
  <defs>
    <clipPath id="clip0_4685_485">
      <rect width="154" height="46" fill="white"></rect>
    </clipPath>
    <clipPath id="clip1_4685_485">
      <rect width="154.286" height="36" fill="white" transform="translate(0 5)"></rect>
    </clipPath>
  </defs>
</svg>
