<svg width="7" height="12" viewBox="0 0 7 12" fill="none" xmlns="http://www.w3.org/2000/svg">
<path fill-rule="evenodd" clip-rule="evenodd" d="M6.49492 4.99501C6.68239 5.18254 6.78771 5.43684 6.78771 5.70201C6.78771 5.96717 6.68239 6.22148 6.49492 6.40901L1.90192 11.002C1.71563 11.1846 1.46482 11.2862 1.20399 11.2849C0.943165 11.2836 0.693394 11.1794 0.508958 10.995C0.324522 10.8105 0.220324 10.5608 0.219007 10.2999C0.217689 10.0391 0.319359 9.7883 0.501923 9.60201L4.40192 5.70201L0.501923 1.80201C0.319359 1.61572 0.217689 1.36491 0.219007 1.10408C0.220324 0.843251 0.324522 0.59348 0.508958 0.409044C0.693394 0.224607 0.943165 0.12041 1.20399 0.119092C1.46482 0.117775 1.71563 0.219445 1.90192 0.402008L6.49492 4.99501Z" fill="#1C1E24"/>
</svg>
