<?xml version="1.0" encoding="UTF-8"?>
<svg xmlns="http://www.w3.org/2000/svg" width="71" height="45" viewBox="0 0 71 45" fill="none">
  <g clip-path="url(#clip0_782_7267)">
    <path d="M66.7389 41.0803H3.67641C1.64337 41.0803 0 42.7253 0 44.7549H70.4153C70.4153 42.7253 68.7719 41.0803 66.7389 41.0803Z" fill="white"></path>
    <path d="M36.5737 34.2901C39.237 30.3272 43.011 19.1714 54.8841 18.6018C45.5144 17.2701 39.6788 24.516 36.6874 28.9598C34.773 31.7977 33.0228 34.7671 28.8365 34.9879C21.1497 35.3973 21.0108 28.1941 16.0209 26.4851C19.9968 20.9128 28.138 22.1233 30.0187 24.6262C29.7915 25.5203 29.6737 27.5533 29.6737 28.643C27.9824 29.6826 24.8184 23.2841 19.513 25.766C25.6178 24.3452 25.9292 32.6166 31.8531 30.8468C30.654 17.9753 45.4428 9.20886 58.0859 18.3741C53.2811 21.2865 54.6948 38.2994 36.5737 34.2901ZM61.3213 21.7354C60.9385 22.0627 59.5585 25.1463 59.3775 25.7871C60.6566 28.3725 61.5107 31.1531 61.902 34.0443H52.4354C58.2289 30.0138 59.2387 18.0001 63.9804 18.0893C51.6823 7.51415 35.2527 10.1097 30.5615 22.5647C26.3794 18.6161 15.76 19.0755 12.0449 28.351C16.5973 26.9054 17.5145 32.1536 20.0137 34.0443H8.515C9.30177 28.2408 11.9482 22.8781 16.1597 18.6695C21.2464 13.5778 28.0118 10.7757 35.2106 10.7757C38.5638 10.7757 40.6086 11.1817 41.0924 11.2848C43.0741 10.6474 45.2156 10.3124 47.4623 10.3124C47.963 10.3124 48.4637 10.3305 48.9728 10.3625C45.2872 8.52896 41.0714 7.39634 37.045 7.1582V6.60956C38.2104 5.93681 38.972 4.64053 38.871 3.17722C38.7532 1.35796 37.2722 -0.12008 35.4504 -0.237465C33.313 -0.372941 31.5334 1.31841 31.5334 3.43008C31.5334 4.79031 32.2739 5.97594 33.372 6.60956V7.1582C17.321 8.10864 4.59375 21.4253 4.59375 37.719H65.8232C65.8232 31.8583 64.1739 26.3891 61.3213 21.7354Z" fill="white"></path>
  </g>
  <defs>
    <clipPath id="clip0_782_7267">
      <rect width="71" height="45" fill="white"></rect>
    </clipPath>
  </defs>
</svg>
