<?xml version="1.0" encoding="UTF-8"?>
<svg xmlns="http://www.w3.org/2000/svg" width="50" height="50" viewBox="0 0 50 50" fill="none">
  <path fill-rule="evenodd" clip-rule="evenodd" d="M49.9704 25.8237L48.4097 25.7494C48.4282 25.3738 48.4375 24.9957 48.4375 24.6154C48.4375 24.235 48.4282 23.857 48.4097 23.4813L49.9704 23.4071C49.9901 23.8074 50 24.2103 50 24.6154C50 25.0205 49.9901 25.4234 49.9704 25.8237ZM49.7326 21.0022L48.1867 21.2261C48.0742 20.4731 47.9248 19.7321 47.7404 19.0049L49.2563 18.6322C49.4532 19.4083 49.6126 20.1989 49.7326 21.0022ZM48.5449 16.3201L47.0738 16.8385C46.8143 16.1246 46.5201 15.4268 46.193 14.7473L47.6051 14.0886C47.954 14.8137 48.268 15.5582 48.5449 16.3201ZM46.4466 11.9589L45.1072 12.7511C44.7114 12.1023 44.2841 11.4742 43.8274 10.8688L45.0817 9.95138C45.5687 10.597 46.0245 11.2669 46.4466 11.9589ZM43.524 8.08469L42.3666 9.1182C41.851 8.5584 41.3079 8.02363 40.7393 7.51597L41.789 6.37635C42.3952 6.91764 42.9743 7.48782 43.524 8.08469ZM39.8931 4.84267L38.9614 6.07766C38.3465 5.62794 37.7086 5.20722 37.0497 4.81754L37.8542 3.4987C38.557 3.91436 39.2374 4.36308 39.8931 4.84267ZM35.6913 2.35808L35.0223 3.74838C34.3321 3.42641 33.6235 3.13671 32.8984 2.88122L33.4249 1.43272C34.1987 1.70538 34.9549 2.01453 35.6913 2.35808ZM31.0767 0.732223L30.6981 2.22485C29.9596 2.04326 29.207 1.89615 28.4422 1.78539L28.6696 0.263307C29.4855 0.381467 30.2885 0.538427 31.0767 0.732223ZM26.2272 0.0291389L26.1518 1.56581C25.7703 1.54765 25.3863 1.53846 25 1.53846C24.6137 1.53846 24.2297 1.54765 23.8482 1.56581L23.7728 0.0291387C24.1794 0.00978742 24.5885 0 25 0C25.4115 0 25.8206 0.00978747 26.2272 0.0291389ZM21.3304 0.263307L21.5578 1.78539C20.793 1.89615 20.0404 2.04326 19.3019 2.22485L18.9233 0.732223C19.7115 0.538426 20.5145 0.381466 21.3304 0.263307ZM16.5751 1.43271L17.1016 2.88122C16.3765 3.13671 15.6679 3.42641 14.9777 3.74839L14.3087 2.35808C15.0451 2.01453 15.8013 1.70538 16.5751 1.43271ZM12.1458 3.4987L12.9503 4.81754C12.2914 5.20722 11.6535 5.62794 11.0386 6.07767L10.1069 4.84267C10.7626 4.36308 11.4429 3.91436 12.1458 3.4987ZM8.21101 6.37635L9.26067 7.51597C8.69213 8.02364 8.149 8.55841 7.6334 9.1182L6.47598 8.0847C7.02573 7.48783 7.60482 6.91764 8.21101 6.37635ZM4.91833 9.95139L6.17263 10.8688C5.71587 11.4742 5.28858 12.1023 4.89281 12.7511L3.55336 11.9589C3.97552 11.2669 4.43125 10.597 4.91833 9.95139ZM2.39492 14.0886L3.80695 14.7473C3.47995 15.4268 3.18572 16.1246 2.92624 16.8385L1.4551 16.3201C1.73202 15.5582 2.04601 14.8137 2.39492 14.0886ZM0.743663 18.6322L2.25961 19.0049C2.07518 19.7321 1.92578 20.4731 1.81329 21.2261L0.267421 21.0022C0.387427 20.1989 0.546839 19.4083 0.743663 18.6322ZM0.0295942 23.4071C0.0099404 23.8074 0 24.2103 0 24.6154C0 25.0205 0.00994033 25.4234 0.0295939 25.8237L1.59027 25.7494C1.57183 25.3738 1.5625 24.9957 1.5625 24.6154C1.5625 24.235 1.57183 23.857 1.59027 23.4813L0.0295942 23.4071ZM0.267421 28.2286L1.81329 28.0047C1.92578 28.7577 2.07518 29.4986 2.25961 30.2258L0.743664 30.5986C0.546839 29.8225 0.387427 29.0318 0.267421 28.2286ZM1.4551 32.9106L2.92624 32.3923C3.18572 33.1062 3.47995 33.8039 3.80695 34.4835L2.39493 35.1422C2.04601 34.4171 1.73202 33.6726 1.4551 32.9106ZM3.55337 37.2718L4.89282 36.4797C5.28858 37.1284 5.71588 37.7566 6.17263 38.362L4.91834 39.2794C4.43125 38.6338 3.97552 37.9639 3.55337 37.2718ZM6.47598 41.1461L7.63341 40.1126C8.14901 40.6724 8.69213 41.2071 9.26067 41.7148L8.21102 42.8544C7.60482 42.3131 7.02573 41.743 6.47598 41.1461ZM10.1069 44.3881L11.0386 43.1531C11.6535 43.6028 12.2914 44.0236 12.9503 44.4132L12.1458 45.7321C11.443 45.3164 10.7626 44.8677 10.1069 44.3881ZM14.3087 46.8727L14.9777 45.4824C15.6679 45.8044 16.3765 46.0941 17.1016 46.3496L16.5751 47.7981C15.8013 47.5254 15.0451 47.2162 14.3087 46.8727ZM18.9233 48.4986L19.3019 47.0059C20.0404 47.1875 20.793 47.3346 21.5578 47.4454L21.3304 48.9675C20.5145 48.8493 19.7115 48.6923 18.9233 48.4986ZM23.7728 49.2016L23.8482 47.665C24.2297 47.6831 24.6137 47.6923 25 47.6923C25.3863 47.6923 25.7703 47.6831 26.1518 47.665L26.2272 49.2016C25.8206 49.221 25.4115 49.2308 25 49.2308C24.5885 49.2308 24.1794 49.221 23.7728 49.2016ZM28.6696 48.9675L28.4422 47.4454C29.207 47.3346 29.9596 47.1875 30.6981 47.0059L31.0767 48.4986C30.2885 48.6923 29.4855 48.8493 28.6696 48.9675ZM33.4249 47.7981L32.8984 46.3496C33.6235 46.0941 34.3321 45.8044 35.0223 45.4824L35.6913 46.8727C34.9549 47.2162 34.1987 47.5254 33.4249 47.7981ZM37.8542 45.7321L37.0497 44.4132C37.7086 44.0236 38.3465 43.6028 38.9614 43.1531L39.8931 44.3881C39.2374 44.8677 38.5571 45.3164 37.8542 45.7321ZM41.789 42.8544L40.7393 41.7148C41.3079 41.2071 41.851 40.6724 42.3666 40.1126L43.524 41.1461C42.9743 41.7429 42.3952 42.3131 41.789 42.8544ZM45.0817 39.2794L43.8274 38.362C44.2841 37.7566 44.7114 37.1284 45.1072 36.4797L46.4466 37.2718C46.0245 37.9639 45.5687 38.6338 45.0817 39.2794ZM47.6051 35.1422L46.193 34.4835C46.5201 33.8039 46.8143 33.1062 47.0738 32.3923L48.5449 32.9106C48.268 33.6726 47.954 34.4171 47.6051 35.1422ZM49.2563 30.5986L47.7404 30.2258C47.9248 29.4986 48.0742 28.7577 48.1867 28.0047L49.7326 28.2286C49.6126 29.0318 49.4532 29.8225 49.2563 30.5986Z" fill="#494B50"></path>
  <path fill-rule="evenodd" clip-rule="evenodd" d="M25 33.8462C30.1777 33.8462 34.375 29.7134 34.375 24.6154C34.375 19.5174 30.1777 15.3847 25 15.3847C19.8223 15.3847 15.625 19.5174 15.625 24.6154C15.625 29.7134 19.8223 33.8462 25 33.8462ZM25 35.3847C31.0406 35.3847 35.9375 30.5631 35.9375 24.6154C35.9375 18.6677 31.0406 13.8462 25 13.8462C18.9594 13.8462 14.0625 18.6677 14.0625 24.6154C14.0625 30.5631 18.9594 35.3847 25 35.3847Z" fill="#494B50"></path>
  <ellipse cx="25" cy="24.6153" rx="3.125" ry="3.07692" fill="#FF6300"></ellipse>
  <path d="M21.0938 40.0001C21.0938 45.0981 16.8964 49.2308 11.7188 49.2308C6.54108 49.2308 2.34375 45.0981 2.34375 40.0001C2.34375 34.902 6.54108 30.7693 11.7188 30.7693C16.8964 30.7693 21.0938 34.902 21.0938 40.0001Z" fill="#1C1E24"></path>
  <path fill-rule="evenodd" clip-rule="evenodd" d="M10.9375 48.4617C15.2522 48.4617 18.75 45.0177 18.75 40.7693C18.75 36.521 15.2522 33.077 10.9375 33.077C6.62278 33.077 3.125 36.521 3.125 40.7693C3.125 45.0177 6.62278 48.4617 10.9375 48.4617ZM10.9375 50.0001C16.1152 50.0001 20.3125 45.8674 20.3125 40.7693C20.3125 35.6713 16.1152 31.5386 10.9375 31.5386C5.75983 31.5386 1.5625 35.6713 1.5625 40.7693C1.5625 45.8674 5.75983 50.0001 10.9375 50.0001Z" fill="#FF6300"></path>
  <path d="M21.0938 31.5386C21.0938 33.2379 19.6946 34.6155 17.9688 34.6155C16.2429 34.6155 14.8438 33.2379 14.8438 31.5386C14.8438 29.8393 16.2429 28.4617 17.9688 28.4617C19.6946 28.4617 21.0938 29.8393 21.0938 31.5386Z" fill="#1C1E24"></path>
  <path fill-rule="evenodd" clip-rule="evenodd" d="M17.9688 33.0771C18.8317 33.0771 19.5312 32.3883 19.5312 31.5386C19.5312 30.6889 18.8317 30.0001 17.9688 30.0001C17.1058 30.0001 16.4062 30.6889 16.4062 31.5386C16.4062 32.3883 17.1058 33.0771 17.9688 33.0771ZM17.9688 34.6155C19.6946 34.6155 21.0938 33.2379 21.0938 31.5386C21.0938 29.8393 19.6946 28.4617 17.9688 28.4617C16.2429 28.4617 14.8438 29.8393 14.8438 31.5386C14.8438 33.2379 16.2429 34.6155 17.9688 34.6155Z" fill="#FF6300"></path>
</svg>
