<?xml version="1.0" encoding="UTF-8"?>
<svg xmlns="http://www.w3.org/2000/svg" width="200" height="90" viewBox="0 0 200 90" fill="none">
  <path fill-rule="evenodd" clip-rule="evenodd" d="M53.7981 27C53.978 27 54.1579 27 54.3378 27.0131C57.4403 27.1673 57.8601 27.5906 57.8862 29.1978C57.8468 29.5919 57.7236 29.9728 57.5248 30.315C57.326 30.6572 57.0562 30.9526 56.7338 31.1814C56.4183 31.1526 55.7613 31.0978 54.9661 31.0978C53.732 31.0718 52.5011 31.2349 51.316 31.5812C49.4316 32.1614 47.694 33.1419 46.2216 34.4559C45.4003 35.2034 44.5895 36.0919 44.2819 36.4342C43.9343 36.5621 43.6134 36.7535 43.3355 36.9987C43.2443 37.0814 43.1572 37.1687 43.0747 37.2601C42.7653 36.9469 42.4069 36.6864 42.0136 36.4891C41.5764 36.3062 41.1103 36.2027 40.637 36.1834C41.5414 34.0051 42.9245 32.0594 44.6834 30.4915C47.248 28.341 50.4563 27.112 53.7981 27ZM166.355 41.8101C167.009 40.7766 167.341 39.5708 167.308 38.3472C167.304 37.5503 167.143 36.762 166.832 36.0283C166.522 35.2947 166.069 34.6301 165.5 34.0735C164.931 33.5168 164.258 33.0791 163.518 32.7859C162.779 32.4926 161.989 32.3496 161.194 32.3652C159.973 32.3615 158.778 32.7232 157.763 33.404C156.749 34.0849 155.959 35.0539 155.497 36.1869C155.035 37.32 154.921 38.5655 155.169 39.7641C155.417 40.9627 156.016 42.0597 156.89 42.9148C157.764 43.7699 158.873 44.344 160.074 44.5638C161.276 44.7835 162.515 44.6388 163.634 44.1483C164.753 43.6577 165.7 42.8435 166.355 41.8101ZM156.885 40.1735C156.659 39.592 156.552 38.9709 156.572 38.3472C156.553 37.728 156.66 37.1116 156.884 36.5344C157.108 35.9573 157.446 35.4313 157.878 34.9878C158.309 34.5443 158.825 34.1923 159.395 33.9527C159.965 33.7132 160.577 33.591 161.195 33.5934C161.813 33.5959 162.424 33.7229 162.992 33.967C163.56 34.2111 164.073 34.5672 164.501 35.0141C164.929 35.4611 165.262 35.9897 165.482 36.5686C165.702 37.1475 165.803 37.7648 165.78 38.3838C165.802 38.9971 165.7 39.6086 165.482 40.1819C165.263 40.7551 164.932 41.2785 164.507 41.7209C164.083 42.1634 163.574 42.5158 163.011 42.7574C162.448 42.9989 161.843 43.1246 161.231 43.127C160.608 43.1319 159.991 43.0108 159.416 42.7709C158.842 42.531 158.321 42.1773 157.886 41.731C157.451 41.2847 157.111 40.7549 156.885 40.1735ZM158.866 41.4832H160.248L160.258 39.0685H160.913C161.679 39.0685 162.041 39.3612 162.151 40.0171C162.235 40.5252 162.395 41.0178 162.626 41.478H164.117C163.886 41.0086 163.738 40.5029 163.679 39.9831C163.647 39.6633 163.529 39.3582 163.337 39.1008C163.145 38.8434 162.886 38.6434 162.589 38.5223V38.4491C162.918 38.3859 163.217 38.2162 163.44 37.9659C163.664 37.7156 163.799 37.3988 163.825 37.064C163.831 36.8165 163.783 36.5707 163.682 36.3445C163.581 36.1184 163.432 35.9178 163.243 35.7573C162.606 35.411 161.88 35.2593 161.158 35.3209C160.39 35.3078 159.622 35.3682 158.866 35.5012V41.4832ZM160.939 38.0858H160.284V36.3715C160.535 36.3163 160.791 36.2908 161.048 36.2957C161.922 36.2957 162.323 36.6642 162.323 37.2077C162.323 37.8245 161.703 38.0858 160.939 38.0858ZM98.7107 32.9221C97.7218 32.5384 96.6684 32.3494 95.6081 32.3654H81.7979V58.0496H87.4294V48.0169H93.0609C94.161 47.9136 95.2573 48.2499 96.1113 48.9525C96.8181 49.7743 97.2455 50.8004 97.3315 51.882C97.474 52.9117 97.5809 53.9902 97.6522 55.1174C97.6981 56.1118 97.8914 57.0939 98.2258 58.0313H103.852C103.573 57.6372 103.372 57.1939 103.258 56.7246C103.123 56.1871 103.028 55.6403 102.973 55.0886C102.913 54.5137 102.869 53.9518 102.846 53.4004C102.822 52.849 102.799 52.3681 102.775 51.9605C102.728 51.3085 102.641 50.66 102.515 50.0187C102.391 49.3985 102.179 48.7991 101.886 48.239C101.605 47.7068 101.228 47.2318 100.773 46.8383C100.273 46.4176 99.6851 46.1165 99.0522 45.9576V45.8844C100.344 45.4271 101.439 44.5385 102.155 43.3677C102.813 42.1686 103.141 40.8158 103.106 39.4477C103.114 38.5059 102.936 37.5718 102.585 36.6984C102.244 35.8533 101.731 35.0881 101.081 34.4509C100.4 33.7889 99.594 33.2692 98.7107 32.9221ZM96.505 43.1247C95.6751 43.7593 94.6415 44.0662 93.6006 43.9871H87.4294V36.7585H93.6006C94.6385 36.6804 95.6697 36.9801 96.505 37.6026C96.8539 37.9573 97.1214 38.384 97.2889 38.853C97.4564 39.3219 97.5199 39.8219 97.4749 40.3179C97.5227 40.828 97.4609 41.3425 97.2936 41.8267C97.1263 42.3109 96.8574 42.7535 96.505 43.1247ZM129.608 58.388L120.031 32.7144H114.257L104.571 58.388H110.239L112.246 52.67H121.82L123.757 58.388H129.608ZM117.127 39.0413L120.368 48.4625H113.717L117.054 39.0413H117.127ZM136.259 32.3652V43.0069L146.268 32.3652H153.3L143.291 42.5051L154.267 58.0363H147.202L139.49 46.4957L136.259 49.7676V58.0363H130.628V32.3652H136.259ZM53.8847 37.8428C55.1086 37.8057 56.3275 38.0146 57.4696 38.4569L57.5009 38.4752H57.5296L57.5311 38.476C57.5796 38.4999 58.3099 38.8599 58.1657 40.3333C58.1555 40.6056 58.091 40.8731 57.976 41.1199C57.8609 41.3668 57.6978 41.5881 57.4961 41.7708C57.2944 41.9535 57.0583 42.0938 56.8017 42.1836C56.545 42.2733 56.273 42.3106 56.0018 42.2934H55.8375C53.3085 42.3508 51.6165 42.3848 51.069 42.3848C50.6101 42.3848 49.9557 42.411 49.3951 42.4423C49.3795 41.6583 49.3482 40.2471 49.3274 39.7401C49.3143 39.3403 49.245 38.9444 49.1214 38.5641C50.4872 38.1975 51.8835 37.9561 53.2929 37.8428C53.4962 37.8323 53.697 37.8271 53.8951 37.8271L53.8847 37.8428ZM55.4417 32.7234C55.2123 32.7051 54.9515 32.7051 54.6595 32.7051L54.6569 32.713C53.2927 32.7198 51.9407 32.9721 50.6653 33.4578C49.0835 34.1258 47.6503 35.1031 46.4495 36.3325C46.6593 36.3832 46.8649 36.4496 47.0648 36.5311C47.5088 36.7004 47.9225 36.9404 48.2902 37.2419C49.825 36.7831 51.4028 36.4836 52.9988 36.3481C53.3168 36.3142 53.6427 36.3142 53.9686 36.3142C55.0895 36.3074 56.206 36.4533 57.2876 36.748C57.4315 36.6319 57.5673 36.5061 57.6943 36.3717C57.9919 36.0568 58.1912 35.6617 58.2679 35.2349C58.4156 34.6291 58.327 33.9897 58.0202 33.4473C57.7126 32.8619 56.7479 32.7391 55.9892 32.7391L55.9347 32.7392H55.9347C55.7898 32.7394 55.6456 32.7397 55.4417 32.7234ZM57.465 43.5931L57.4648 43.5923H57.4674L57.465 43.5931ZM57.465 43.5931C57.8327 44.9615 58.0744 46.3609 58.187 47.7737C58.2965 49.1953 58.0964 50.6239 57.6003 51.9603L57.5795 51.9943V52.023L57.5787 52.0246C57.5574 52.0682 57.2593 52.679 56.109 52.679C55.9818 52.6795 55.8547 52.6725 55.7284 52.6581C55.4569 52.6474 55.1902 52.5825 54.9441 52.4671C54.698 52.3517 54.4773 52.1882 54.2952 51.9861C54.113 51.784 53.9729 51.5475 53.8833 51.2904C53.7936 51.0333 53.7561 50.7608 53.773 50.489V49.9663L53.771 49.8759C53.7443 48.6401 53.6922 46.2329 53.6922 45.5445C53.6922 45.0871 53.6635 44.4312 53.6322 43.8667C55.3451 43.8301 56.036 43.8092 56.2968 43.7987C56.6939 43.7855 57.0871 43.7163 57.465 43.5931ZM59.71 40.916C60.9339 42.1209 61.9084 43.556 62.5779 45.1392C63.1543 46.6676 63.4004 48.3013 63.3001 49.9321V50.034V50.4783C63.3001 51.2362 63.1775 52.2057 62.5935 52.5141C62.2312 52.7162 61.8245 52.8248 61.4099 52.8303C61.2091 52.8281 61.009 52.8053 60.8128 52.7624C60.3852 52.6846 59.9894 52.484 59.6735 52.1848C59.5399 52.0588 59.4153 51.9234 59.3007 51.7798C59.6683 50.3785 59.7987 48.9253 59.6865 47.4808C59.551 45.8865 59.2531 44.3102 58.7975 42.7767C59.0982 42.4072 59.3377 41.9916 59.5066 41.5458C59.5883 41.3456 59.6546 41.1394 59.7048 40.9291L59.71 40.916ZM59.86 35.0888L59.8529 35.0858L59.8607 35.0728L59.86 35.0888ZM59.5531 36.45C59.7342 36.0177 59.838 35.557 59.86 35.0888C62.0324 35.9941 63.9729 37.3796 65.5366 39.1418C67.8136 41.8429 69.0454 45.275 69.0067 48.8112C68.8529 51.9237 68.4227 52.3445 66.801 52.368C66.412 52.3281 66.0361 52.2045 65.699 52.0056C65.362 51.8067 65.0718 51.5372 64.8483 51.2155C65.0425 49.3925 64.9074 47.5494 64.4494 45.7745C63.8711 43.8853 62.8929 42.1434 61.5815 40.668C60.7993 39.8186 59.905 38.9902 59.6078 38.7236C59.4796 38.3755 59.2887 38.054 59.0447 37.775C58.9623 37.6834 58.8753 37.5962 58.7839 37.5136C59.0964 37.2035 59.3562 36.8442 59.5531 36.45ZM52.2199 48.1161C52.2381 48.9419 52.2694 50.3191 52.2903 50.8157C52.3033 51.2154 52.3726 51.6114 52.4962 51.9917C51.1307 52.3599 49.7344 52.6013 48.3247 52.713C48.1301 52.7234 47.9371 52.7287 47.7459 52.7287C46.5178 52.7658 45.2947 52.557 44.148 52.1145L44.1167 52.0884H44.0907C44.0568 52.0753 43.3085 51.7068 43.4493 50.2329C43.4592 49.9608 43.5233 49.6934 43.6378 49.4464C43.7523 49.1994 43.9149 48.9779 44.116 48.7948C44.3171 48.6117 44.5527 48.4708 44.8089 48.3803C45.0652 48.2897 45.3368 48.2514 45.608 48.2676H45.8688C46.8308 48.2389 49.7561 48.1683 50.5617 48.1683C51.0362 48.1683 51.7193 48.137 52.2329 48.1108L52.2199 48.1161ZM54.5493 54.043C54.1046 53.8725 53.69 53.6316 53.3213 53.3295L53.3187 53.3191C51.7888 53.7763 50.2163 54.0757 48.6258 54.2129C48.3051 54.2494 47.9766 54.2494 47.6559 54.2494C46.535 54.254 45.4187 54.1072 44.3369 53.813C44.1933 53.9294 44.0575 54.0552 43.9302 54.1893C43.6336 54.5059 43.4344 54.9015 43.3566 55.3288C43.2094 55.9345 43.298 56.5737 43.6043 57.1163C43.912 57.7017 44.8766 57.8245 45.6327 57.8245C45.711 57.8245 45.7922 57.8275 45.8773 57.8306C45.9707 57.834 46.0687 57.8376 46.1724 57.8376C46.4096 57.8585 46.6677 57.8585 46.9545 57.8585H46.9546C48.3205 57.8514 49.6741 57.5992 50.9514 57.1137C52.5314 56.4438 53.9634 55.4668 55.1646 54.239C54.9545 54.1908 54.7487 54.1252 54.5493 54.043ZM58.5459 53.3034C58.8566 53.6406 59.2331 53.9103 59.6519 54.096C60.0707 54.2816 60.5231 54.3792 60.981 54.3827C60.0779 56.5647 58.6936 58.5133 56.932 60.0825C54.3635 62.2328 51.1516 63.4608 47.8069 63.5713H47.2855C44.1829 63.4171 43.7631 62.9912 43.7371 61.3839C43.7762 60.9899 43.8994 60.6088 44.0982 60.2666C44.297 59.9244 44.5669 59.629 44.8894 59.4004C45.2023 59.4318 45.8619 59.4866 46.6571 59.4866C47.8912 59.5114 49.1219 59.3484 50.3072 59.0032C52.1918 58.4233 53.9294 57.4427 55.4016 56.1285C56.2229 55.381 57.0363 54.4899 57.344 54.1475C57.6907 54.0208 58.0108 53.8302 58.2878 53.5857C58.3806 53.5 58.4676 53.4083 58.5485 53.3113L58.5459 53.3034ZM45.8854 37.942C45.7655 37.9211 45.6273 37.9211 45.5047 37.9211L45.4891 37.9106C44.3211 37.9106 44.0186 38.5457 44.0186 38.5718V38.6006L44.0004 38.6293C43.4976 39.9677 43.2938 41.4004 43.4033 42.8264C43.5159 44.2392 43.7568 45.6388 44.1229 47.0078C44.5014 46.8839 44.8956 46.8152 45.2936 46.8039C45.5595 46.7909 46.2452 46.77 47.9894 46.7334C47.9659 46.263 47.932 45.5809 47.932 45.0556C47.932 44.5303 47.9007 42.8891 47.8434 40.2757V40.1085C47.8599 39.8366 47.8221 39.5642 47.7321 39.3073C47.6421 39.0503 47.5017 38.814 47.3193 38.6121C47.1369 38.4103 46.9161 38.247 46.6699 38.132C46.4236 38.0169 46.1569 37.9523 45.8854 37.942ZM40.1874 37.7698L40.1936 37.7698C39.7814 37.7763 39.3771 37.8849 39.0168 38.086C38.4328 38.397 38.3077 39.3639 38.3077 40.1218C38.3077 40.1997 38.3047 40.2817 38.3017 40.3681L38.3017 40.3681V40.3682C38.2982 40.4643 38.2946 40.5659 38.2946 40.6732C38.1936 42.3024 38.4398 43.9345 39.0168 45.4609C39.6851 47.0447 40.6598 48.4801 41.8847 49.6841C41.9332 49.4736 41.9986 49.2673 42.0803 49.0673C42.2506 48.6225 42.4909 48.2078 42.792 47.8391C42.3337 46.3016 42.0349 44.7209 41.9004 43.1219C41.7917 41.6766 41.9265 40.2233 42.2993 38.8229C42.1831 38.679 42.0577 38.5428 41.9238 38.4153C41.6091 38.1164 41.2139 37.9165 40.7871 37.8403C40.5923 37.7957 40.3934 37.7721 40.1936 37.7698L40.1979 37.7698H40.1874ZM35.8936 38.6036C35.5568 38.4044 35.1814 38.2796 34.7927 38.2376H34.7588C33.1632 38.2376 32.7382 38.6688 32.5844 41.7891C32.5467 45.3251 33.7783 48.7569 36.0545 51.4586C37.6116 53.2271 39.5475 54.62 41.7173 55.5328C41.7371 55.059 41.8413 54.5926 42.025 54.1556C42.2258 53.7604 42.49 53.4011 42.8071 53.0919C42.7148 53.0104 42.6277 52.9232 42.5464 52.8306C42.3034 52.5513 42.1135 52.2298 41.9859 51.8819C41.5922 51.5291 40.7396 50.7425 40.0096 49.9376C38.6991 48.4614 37.721 46.7198 37.1417 44.8311C36.6827 43.0572 36.5485 41.2146 36.7454 39.3927C36.5208 39.0718 36.2304 38.8028 35.8936 38.6036Z" fill="#296BC0"></path>
</svg>
