<?xml version="1.0" encoding="UTF-8"?>
<svg xmlns="http://www.w3.org/2000/svg" width="278" height="120" viewBox="0 0 278 120" fill="none">
  <path fill-rule="evenodd" clip-rule="evenodd" d="M185.761 65.0679V65.3932C185.1 65.3549 184.016 65.3358 182.508 65.3358C181.772 65.3358 181.177 65.339 180.722 65.3454C180.267 65.3517 179.965 65.3677 179.815 65.3932V65.0679L181.124 64.8C181.486 64.7235 181.722 64.6119 181.835 64.4652C181.947 64.3185 182.003 64.0857 182.003 63.7668V54.0081H179.759C179.535 53.9954 179.345 54.0081 179.189 54.0464C179.033 54.0847 178.88 54.1676 178.731 54.2952C178.581 54.4227 178.419 54.5981 178.245 54.8214C178.07 55.0446 177.858 55.3348 177.609 55.692C177.447 55.9344 177.322 56.0874 177.235 56.1512C177.148 56.215 177.089 56.2182 177.058 56.1608C177.026 56.1034 177.02 56.0013 177.039 55.8546C177.058 55.7079 177.086 55.5453 177.123 55.3667L177.703 52.9749C177.79 52.6432 177.88 52.4774 177.974 52.4774C178.067 52.4774 178.176 52.605 178.301 52.8601C178.438 53.1152 178.556 53.2651 178.656 53.3097C178.756 53.3544 178.949 53.3767 179.236 53.3767H186.471C186.696 53.3767 186.873 53.3735 187.004 53.3671C187.135 53.3608 187.241 53.3384 187.322 53.3002C187.403 53.2619 187.472 53.2077 187.528 53.1375C187.584 53.0674 187.643 52.9621 187.705 52.8218C187.792 52.5794 187.898 52.4583 188.023 52.4583C188.185 52.4583 188.266 52.5858 188.266 52.8409L188.229 55.9216C188.229 56.0237 188.213 56.1034 188.182 56.1608C188.151 56.2182 188.107 56.2373 188.051 56.2182C187.995 56.1991 187.936 56.1353 187.874 56.0268C187.811 55.9184 187.755 55.7366 187.705 55.4815C187.643 55.2136 187.577 54.9872 187.509 54.8022C187.44 54.6173 187.344 54.4674 187.219 54.3526C187.094 54.2378 186.929 54.1517 186.724 54.0943C186.518 54.0369 186.259 54.0081 185.948 54.0081H183.667V63.7859C183.667 64.1303 183.707 64.3599 183.788 64.4747C183.869 64.5896 184.041 64.6788 184.302 64.7426L185.761 65.0679ZM133.595 65.4123C134.38 65.3868 135.203 65.3677 136.063 65.3549C136.923 65.3421 137.82 65.3358 138.755 65.3358C140.625 65.3358 142.438 65.3549 144.196 65.3932L144.289 61.9298H143.953C143.878 62.5549 143.756 63.0588 143.588 63.4414C143.42 63.8241 143.161 64.1175 142.812 64.3216C142.463 64.5257 141.999 64.6597 141.419 64.7235C140.84 64.7872 140.095 64.8191 139.185 64.8191H135.745L143.766 53.7594V53.3767L137.11 53.4724C136.686 53.4851 136.34 53.4883 136.072 53.4819C135.804 53.4755 135.595 53.4532 135.446 53.4149C135.296 53.3767 135.193 53.3225 135.137 53.2523C135.081 53.1821 135.053 53.0897 135.053 52.9749C135.053 52.8473 135.078 52.7006 135.128 52.5348H134.791L133.67 56.0555H133.875C134.212 55.558 134.48 55.1753 134.679 54.9074C134.879 54.6396 135.069 54.4418 135.249 54.3143C135.43 54.1867 135.63 54.1038 135.848 54.0655C136.066 54.0273 136.368 53.989 136.755 53.9507L141.747 53.855L133.595 65.221V65.4123ZM78.1791 65.3836C77.6556 65.5558 77.0697 65.6419 76.4216 65.6419C75.2126 65.6419 74.1095 65.3421 73.1123 64.7426L73.318 61.8724H73.5984C73.6483 62.3316 73.7729 62.7558 73.9723 63.1448C74.1718 63.5339 74.4148 63.8719 74.7015 64.159C74.9882 64.446 75.3123 64.6692 75.6737 64.8287C76.0352 64.9881 76.4029 65.0679 76.7768 65.0679C77.1134 65.0679 77.4406 65.0168 77.7584 64.9148C78.0762 64.8127 78.3567 64.666 78.5997 64.4747C78.8428 64.2833 79.0391 64.0537 79.1887 63.7858C79.3383 63.518 79.4131 63.2182 79.4131 62.8865C79.4131 62.5804 79.3663 62.3093 79.2728 62.0733C79.1793 61.8373 79.0204 61.6141 78.7961 61.4036C78.5717 61.1931 78.2694 60.9763 77.8893 60.753C77.5091 60.5298 77.0386 60.2715 76.4777 59.9781C75.3684 59.3913 74.5675 58.8172 74.0752 58.256C73.5828 57.6947 73.3367 57.0505 73.3367 56.3234C73.3367 55.8514 73.4301 55.424 73.6171 55.0414C73.8041 54.6587 74.0658 54.3302 74.4024 54.0559C74.7389 53.7817 75.1347 53.568 75.5896 53.4149C76.0446 53.2618 76.54 53.1853 77.076 53.1853C78.1604 53.1853 79.064 53.4659 79.787 54.0272L79.7122 56.2277H79.4504C79.1014 54.5694 78.2102 53.7402 76.7768 53.7402C76.4528 53.7402 76.1474 53.7912 75.8607 53.8933C75.574 53.9953 75.3247 54.1357 75.1128 54.3142C74.9009 54.4928 74.7358 54.7001 74.6174 54.9361C74.499 55.1721 74.4398 55.424 74.4398 55.6919C74.4398 55.9215 74.4803 56.1288 74.5613 56.3138C74.6423 56.4988 74.7919 56.6869 75.01 56.8783C75.2281 57.0696 75.521 57.2769 75.8887 57.5001C76.2564 57.7234 76.7207 57.9817 77.2816 58.2751C77.8675 58.5812 78.3723 58.8587 78.7961 59.1074C79.2199 59.3562 79.5657 59.6177 79.8337 59.892C80.1017 60.1662 80.298 60.4724 80.4227 60.8104C80.5473 61.1485 80.6096 61.5599 80.6096 62.0446C80.6096 62.5804 80.513 63.0715 80.3198 63.518C80.1266 63.9644 79.8524 64.3439 79.4972 64.6565C79.142 64.969 78.7026 65.2114 78.1791 65.3836ZM92.0321 65.1635C91.2468 65.4824 90.0814 65.6419 88.5358 65.6419C87.576 65.6419 86.7004 65.4984 85.9089 65.2114C85.1174 64.9243 84.4412 64.5193 83.8803 63.9963C83.3195 63.4733 82.8863 62.8419 82.5809 62.102C82.2756 61.3621 82.1229 60.533 82.1229 59.6145C82.1229 58.7598 82.2787 57.9466 82.5903 57.1749C82.9019 56.4031 83.3319 55.7206 83.8803 55.1275C84.4288 54.5343 85.0738 54.0623 85.8154 53.7115C86.5571 53.3607 87.3517 53.1853 88.1993 53.1853C88.7602 53.1853 89.2432 53.1981 89.6482 53.2236C90.0533 53.2491 90.4055 53.2905 90.7046 53.348C91.0037 53.4054 91.2686 53.4851 91.4992 53.5871C91.7298 53.6892 91.9635 53.8167 92.2003 53.9698C92.2377 54.276 92.2658 54.6076 92.2845 54.9648C92.3032 55.322 92.3063 55.6664 92.2938 55.9981H91.9199C91.6831 55.2582 91.278 54.6778 90.7046 54.2568C90.1312 53.8359 89.4083 53.6254 88.5358 53.6254C87.8876 53.6254 87.2894 53.7657 86.7409 54.0464C86.1925 54.327 85.7188 54.7288 85.32 55.2518C84.9211 55.7748 84.6095 56.4031 84.3852 57.1366C84.1608 57.8701 84.0486 58.6833 84.0486 59.5762C84.0486 61.4259 84.435 62.8227 85.2078 63.7667C85.9806 64.7107 87.1086 65.1827 88.5919 65.1827C89.4644 65.1827 90.2091 64.9658 90.8261 64.5321C91.4431 64.0984 91.951 63.4606 92.3499 62.6186H92.6117C92.4745 63.4223 92.2813 64.2706 92.0321 65.1635ZM107.199 65.4125V65.0872L105.778 64.8193C105.553 64.781 105.413 64.7045 105.357 64.5897C105.301 64.4749 105.273 64.2835 105.273 64.0157V54.5058C105.273 54.2634 105.298 54.0976 105.348 54.0083C105.398 53.919 105.504 53.8616 105.666 53.8361L106.974 53.6447V53.3195C106.75 53.345 106.442 53.3641 106.049 53.3769C105.656 53.3896 105.192 53.396 104.656 53.396L104.343 53.3952C103.937 53.3932 103.577 53.3871 103.263 53.3769C102.87 53.3641 102.556 53.345 102.319 53.3195V53.6447L103.291 53.7596C103.441 53.7723 103.547 53.8329 103.609 53.9413C103.671 54.0498 103.702 54.2315 103.702 54.4867V59.0407H97.1026V54.5058C97.1026 54.2634 97.1275 54.0976 97.1774 54.0083C97.2272 53.919 97.3332 53.8616 97.4952 53.8361L98.8974 53.6447V53.3195C98.6731 53.345 98.3646 53.3641 97.972 53.3769C97.5793 53.3896 97.1026 53.396 96.5417 53.396L96.268 53.3955C95.8231 53.3937 95.4344 53.3875 95.102 53.3769C94.7032 53.3641 94.3853 53.345 94.1485 53.3195V53.6447L95.1207 53.7596C95.2703 53.7723 95.3762 53.8329 95.4386 53.9413C95.5009 54.0498 95.5321 54.2315 95.5321 54.4867V64.0157C95.5321 64.2835 95.5009 64.4749 95.4386 64.5897C95.3762 64.7045 95.2454 64.781 95.0459 64.8193L93.625 65.0872V65.4125C93.9366 65.387 94.3012 65.3678 94.7188 65.3551C95.1363 65.3423 95.5944 65.3359 96.0929 65.3359C96.604 65.3359 97.0745 65.3423 97.5045 65.3551C97.9346 65.3678 98.3116 65.387 98.6357 65.4125V65.0872L97.4952 64.8959C97.3332 64.8703 97.2272 64.797 97.1774 64.6758C97.1275 64.5546 97.1026 64.3346 97.1026 64.0157V59.6339H103.702V64.0157C103.702 64.3218 103.678 64.5387 103.628 64.6662C103.578 64.7938 103.478 64.8703 103.329 64.8959L102.188 65.0872V65.4125C102.512 65.387 102.889 65.3678 103.319 65.3551C103.749 65.3423 104.213 65.3359 104.712 65.3359C105.223 65.3359 105.687 65.3423 106.105 65.3551C106.523 65.3678 106.887 65.387 107.199 65.4125ZM117.442 65.1827C116.644 65.4888 115.765 65.6419 114.806 65.6419C113.871 65.6419 113.008 65.4888 112.216 65.1827C111.425 64.8765 110.745 64.4524 110.178 63.9102C109.611 63.3681 109.169 62.7207 108.851 61.9681C108.533 61.2154 108.374 60.399 108.374 59.5188C108.374 58.6387 108.536 57.8127 108.86 57.0409C109.184 56.2692 109.639 55.5963 110.225 55.0222C110.811 54.4482 111.512 53.9985 112.328 53.6732C113.145 53.348 114.052 53.1853 115.049 53.1853C115.909 53.1853 116.716 53.3416 117.47 53.6541C118.224 53.9666 118.885 54.4003 119.452 54.9553C120.019 55.5102 120.465 56.1735 120.789 56.9452C121.113 57.717 121.275 58.5557 121.275 59.4614C121.275 60.3671 121.119 61.1995 120.807 61.9585C120.496 62.7175 120.056 63.3681 119.489 63.9102C118.922 64.4524 118.24 64.8765 117.442 65.1827ZM114.767 65.2399C114.107 65.2399 113.496 65.0837 112.935 64.7711C112.374 64.4586 111.891 64.044 111.486 63.5274C111.081 63.0108 110.763 62.4112 110.532 61.7288C110.302 61.0463 110.187 60.3415 110.187 59.6144C110.187 58.7852 110.286 58.0039 110.486 57.2704C110.685 56.5369 110.981 55.8991 111.374 55.357C111.766 54.8148 112.249 54.3875 112.823 54.0749C113.396 53.7624 114.057 53.6061 114.805 53.6061C115.515 53.6061 116.16 53.7528 116.74 54.0462C117.319 54.3396 117.815 54.7478 118.226 55.2708C118.637 55.7939 118.952 56.4221 119.17 57.1556C119.388 57.8891 119.497 58.6959 119.497 59.5761C119.497 61.4003 119.095 62.8003 118.291 63.7761C117.488 64.752 116.313 65.2399 114.767 65.2399ZM132.979 62.2553L132.437 65.4125C131.913 65.387 131.225 65.3678 130.371 65.3551C129.517 65.3423 128.473 65.3359 127.239 65.3359C126.005 65.3359 124.983 65.3423 124.173 65.3551C123.363 65.3678 122.758 65.387 122.359 65.4125V65.1255L123.519 64.9341C123.78 64.9086 123.98 64.8703 124.117 64.8193C124.254 64.7683 124.351 64.7013 124.407 64.6184C124.463 64.5355 124.491 64.4239 124.491 64.2835V54.5058C124.491 54.2634 124.45 54.1072 124.369 54.037C124.288 53.9668 124.167 53.919 124.005 53.8935L122.621 53.6447V53.3195C123.242 53.3548 124.15 53.3738 125.345 53.3765L125.65 53.3769C126.996 53.3769 127.831 53.3577 128.155 53.3195V53.6447L126.603 53.8935C126.417 53.919 126.289 53.9605 126.22 54.0179C126.152 54.0753 126.117 54.2379 126.117 54.5058V64.4366C126.117 64.6025 126.145 64.7268 126.202 64.8097C126.258 64.8927 126.404 64.9341 126.641 64.9341H128.38C128.916 64.9341 129.392 64.915 129.81 64.8767C130.228 64.8385 130.605 64.7332 130.941 64.561C131.278 64.3888 131.586 64.1209 131.867 63.7573C132.147 63.3938 132.418 62.8931 132.68 62.2553H132.979ZM159.37 64.9339C158.579 65.2146 157.734 65.3549 156.837 65.3549L153.808 65.2784H150.05V64.9339L151.471 64.6086C151.67 64.5704 151.81 64.4875 151.891 64.3599C151.972 64.2323 152.013 63.99 152.013 63.6328V54.8309C152.013 54.5247 151.976 54.3079 151.901 54.1803C151.826 54.0528 151.683 53.9698 151.471 53.9316L150.237 53.702V53.3575C150.648 53.3703 151.134 53.3671 151.695 53.348C152.256 53.3288 152.836 53.3033 153.434 53.2714C154.032 53.2395 154.612 53.214 155.173 53.1949C155.734 53.1758 156.22 53.1726 156.631 53.1853C157.566 53.2108 158.441 53.3575 159.258 53.6254C160.074 53.8933 160.785 54.2824 161.389 54.7926C161.994 55.3029 162.471 55.9248 162.82 56.6582C163.169 57.3917 163.343 58.2305 163.343 59.1744C163.343 60.1312 163.175 60.9922 162.838 61.7576C162.502 62.523 162.037 63.1736 161.445 63.7093C160.853 64.2451 160.162 64.6533 159.37 64.9339ZM156.143 64.8384C155.732 64.8384 155.37 64.7906 155.059 64.6949C154.747 64.5992 154.485 64.4716 154.273 64.3122C154.061 64.1527 153.903 63.9741 153.797 63.7764C153.691 63.5787 153.638 63.3778 153.638 63.1737V54.831C153.638 54.359 153.725 54.0529 153.899 53.9126C154.074 53.7722 154.51 53.7021 155.208 53.7021C156.168 53.7021 157.031 53.8233 157.798 54.0656C158.564 54.308 159.212 54.662 159.742 55.1276C160.272 55.5932 160.68 56.1609 160.967 56.8306C161.253 57.5003 161.397 58.2561 161.397 59.098C161.397 60.042 161.257 60.8712 160.976 61.5855C160.696 62.2999 160.319 62.8994 159.845 63.3842C159.371 63.8689 158.817 64.2325 158.181 64.4748C157.545 64.7172 156.866 64.8384 156.143 64.8384ZM176.767 65.0682V65.3935C176.169 65.3552 175.365 65.3361 174.355 65.3361H173.345C173.021 65.3361 172.725 65.3424 172.457 65.3552C172.189 65.368 171.943 65.3807 171.719 65.3935V65.0682L172.953 64.8768C173.127 64.8513 173.264 64.8226 173.364 64.7907C173.464 64.7588 173.529 64.7142 173.56 64.6568C173.592 64.5994 173.601 64.5292 173.588 64.4463C173.576 64.3634 173.545 64.2582 173.495 64.1306L171.999 59.9593H168.391L166.895 64.3028C166.833 64.5069 166.82 64.6568 166.858 64.7525C166.895 64.8481 167.082 64.9087 167.419 64.9342L168.727 65.0299V65.3743C168.603 65.3616 168.35 65.352 167.97 65.3456C167.59 65.3393 167.076 65.3361 166.428 65.3361C165.779 65.3361 165.265 65.3393 164.885 65.3456C164.505 65.352 164.253 65.3616 164.128 65.3743V65.0299L165.306 64.9342C165.717 64.896 166.004 64.66 166.166 64.2263L170.373 52.7073H170.952L175.084 64.0923C175.171 64.3092 175.252 64.4559 175.327 64.5324C175.402 64.609 175.539 64.6791 175.739 64.7429L176.767 65.0682ZM171.829 59.4808H168.557L170.165 54.7163L171.829 59.4808ZM200.997 65.3934V65.0682L199.969 64.7429C199.769 64.6791 199.632 64.6089 199.558 64.5324C199.483 64.4559 199.402 64.3092 199.314 64.0923L195.183 52.7073H194.603L190.396 64.2262C190.234 64.66 189.947 64.896 189.536 64.9342L188.358 65.0299V65.3743C188.483 65.3616 188.735 65.352 189.115 65.3456C189.496 65.3392 190.01 65.336 190.658 65.336C191.306 65.336 191.82 65.3392 192.2 65.3456C192.581 65.352 192.833 65.3616 192.958 65.3743V65.0299L191.649 64.9342C191.312 64.9087 191.125 64.8481 191.088 64.7524C191.051 64.6568 191.063 64.5069 191.125 64.3028L192.621 59.9592H196.23L197.725 64.1306C197.775 64.2581 197.806 64.3634 197.819 64.4463C197.831 64.5292 197.822 64.5994 197.791 64.6568C197.76 64.7142 197.694 64.7588 197.594 64.7907C197.495 64.8226 197.358 64.8513 197.183 64.8768L195.949 65.0682V65.3934C196.173 65.3807 196.42 65.3679 196.688 65.3552C196.956 65.3424 197.252 65.336 197.576 65.336H198.585C199.595 65.336 200.399 65.3552 200.997 65.3934ZM192.791 59.4808H196.063L194.399 54.7163L192.791 59.4808ZM206.87 65.3549C207.555 65.3804 208.2 65.3038 208.805 65.1253C209.409 64.9467 209.939 64.6947 210.394 64.3694C210.849 64.0442 211.207 63.6551 211.469 63.2022C211.731 62.7494 211.855 62.2551 211.843 61.7193C211.843 60.8519 211.594 60.1471 211.095 59.6049C210.597 59.0628 209.861 58.6642 208.889 58.409C209.562 58.1156 210.076 57.7712 210.431 57.3758C210.787 56.9803 210.964 56.5402 210.964 56.0555C210.964 55.086 210.584 54.3653 209.824 53.8933C209.063 53.4213 208.004 53.1853 206.645 53.1853C206.446 53.1853 205.997 53.2012 205.299 53.2331C204.601 53.265 203.666 53.3129 202.495 53.3766L201.392 53.4341V53.7976L202.569 53.9124C202.781 53.9379 202.943 53.9634 203.056 53.989C203.168 54.0145 203.252 54.0527 203.308 54.1038C203.364 54.1548 203.395 54.2154 203.401 54.2855C203.408 54.3557 203.411 54.4418 203.411 54.5439V63.7284C203.411 64.0984 203.361 64.3503 203.261 64.4842C203.162 64.6182 202.993 64.7107 202.756 64.7617L201.597 64.9913V65.3357H202.943C203.604 65.3357 204.258 65.3389 204.907 65.3453C205.555 65.3517 206.209 65.3549 206.87 65.3549ZM205.036 58.5047C205.236 58.543 205.747 58.5621 206.569 58.5621C206.968 58.5621 207.336 58.4983 207.672 58.3708C208.009 58.2432 208.299 58.0646 208.542 57.835C208.785 57.6054 208.972 57.3311 209.103 57.0122C209.234 56.6933 209.299 56.3425 209.299 55.9598C209.299 55.1944 209.053 54.6236 208.56 54.2473C208.068 53.871 207.361 53.6828 206.438 53.6828C205.952 53.6828 205.485 53.7402 205.036 53.855V58.5047ZM207.186 64.8192C205.753 64.8192 205.036 64.3345 205.036 63.365V59.1171C205.285 59.0916 205.532 59.0725 205.775 59.0597C206.018 59.047 206.245 59.0406 206.457 59.0406C207.704 59.0406 208.626 59.283 209.224 59.7677C209.822 60.2524 210.122 61.0051 210.122 62.0256C210.122 62.3955 210.044 62.7495 209.888 63.0875C209.732 63.4256 209.517 63.7222 209.243 63.9773C208.969 64.2324 208.654 64.4365 208.299 64.5896C207.943 64.7427 207.573 64.8192 207.186 64.8192ZM225.246 65.0682V65.3934C224.648 65.3552 223.844 65.336 222.835 65.336H221.825C221.501 65.336 221.205 65.3424 220.937 65.3552C220.669 65.3679 220.423 65.3807 220.198 65.3934V65.0682L221.432 64.8768C221.607 64.8513 221.744 64.8226 221.844 64.7907C221.943 64.7588 222.009 64.7142 222.04 64.6568C222.071 64.5994 222.081 64.5292 222.068 64.4463C222.056 64.3634 222.024 64.2581 221.975 64.1306L220.479 59.9592H216.87L215.375 64.3028C215.312 64.5069 215.3 64.6568 215.337 64.7524C215.375 64.8481 215.562 64.9087 215.898 64.9342L217.207 65.0299V65.3743C217.082 65.3616 216.83 65.352 216.45 65.3456C216.07 65.3392 215.555 65.336 214.907 65.336C214.259 65.336 213.745 65.3392 213.365 65.3456C212.985 65.352 212.732 65.3616 212.608 65.3743V65.0299L213.785 64.9342C214.197 64.896 214.483 64.66 214.646 64.2262L218.852 52.7073H219.432L223.564 64.0923C223.651 64.3092 223.732 64.4559 223.807 64.5324C223.882 64.6089 224.019 64.6791 224.218 64.7429L225.246 65.0682ZM220.309 59.4808H217.037L218.645 54.7163L220.309 59.4808ZM237.698 54.7546L237.866 65.5847H237.418L228.2 55.4817V64.0157C228.2 64.3346 228.238 64.5483 228.312 64.6567C228.387 64.7651 228.543 64.8321 228.78 64.8576L230.481 65.049V65.3934C229.733 65.3551 228.985 65.336 228.238 65.336C227.49 65.336 226.623 65.3551 225.639 65.3934V65.049L226.667 64.8576C227.091 64.7811 227.362 64.6918 227.48 64.5897C227.599 64.4877 227.658 64.2963 227.658 64.0157V55.7496C227.658 55.1628 227.596 54.7227 227.471 54.4293C227.346 54.1359 227.109 53.9637 226.76 53.9127L225.657 53.7404V53.3769H227.938C228.088 53.3769 228.213 53.3833 228.312 53.396C228.412 53.4088 228.499 53.4343 228.574 53.4726C228.649 53.5108 228.72 53.5619 228.789 53.6256C228.858 53.6894 228.942 53.7723 229.041 53.8744L237.305 63.0781L237.137 54.7546C237.137 54.3974 237.084 54.1646 236.978 54.0562C236.872 53.9477 236.701 53.8808 236.464 53.8553L234.893 53.6639V53.3195C235.216 53.3548 235.814 53.3738 236.688 53.3766L236.913 53.3769C237.922 53.3769 238.608 53.3578 238.969 53.3195V53.6639L238.147 53.7404C237.935 53.766 237.804 53.8457 237.754 53.9796C237.704 54.1136 237.686 54.3719 237.698 54.7546ZM245.289 65.4125V65.0681L244.092 64.8576C243.918 64.8321 243.796 64.7779 243.728 64.6949C243.659 64.612 243.625 64.4685 243.625 64.2644V54.3719C243.625 54.155 243.656 54.0147 243.718 53.9509C243.781 53.8871 243.905 53.8425 244.092 53.817L245.289 53.6447V53.3195C244.965 53.345 244.578 53.3609 244.13 53.3673C243.681 53.3737 243.257 53.3769 242.858 53.3769L242.302 53.3761C241.864 53.3748 241.492 53.3719 241.185 53.3673C240.755 53.3609 240.509 53.345 240.446 53.3195V53.6447L241.587 53.817C241.786 53.8552 241.914 53.9031 241.97 53.9605C242.026 54.0179 242.054 54.155 242.054 54.3719V64.2644C242.054 64.4813 242.02 64.6343 241.951 64.7236C241.883 64.8129 241.761 64.8703 241.587 64.8959L240.446 65.0681V65.4125C240.683 65.387 241.004 65.3678 241.409 65.3551C241.814 65.3423 242.303 65.3359 242.877 65.3359C243.45 65.3359 243.936 65.3423 244.335 65.3551C244.734 65.3678 245.052 65.387 245.289 65.4125ZM254.001 65.0681V65.4125C253.665 65.387 253.266 65.3679 252.805 65.3551C252.343 65.3424 251.814 65.336 251.215 65.336C250.617 65.336 250.069 65.3424 249.57 65.3551C249.071 65.3679 248.654 65.387 248.317 65.4125V65.0681L249.645 64.8385C249.844 64.813 249.944 64.7524 249.944 64.6567C249.944 64.561 249.832 64.4175 249.607 64.2262L245.363 60.5715C245.077 60.3291 244.805 60.1091 244.55 59.9113C244.294 59.7136 244.061 59.5382 243.849 59.3851C244.136 59.2448 244.435 59.063 244.746 58.8398C245.058 58.6166 245.363 58.3774 245.662 58.1223L248.972 55.2329C249.632 54.6717 249.963 54.2826 249.963 54.0657C249.963 53.9509 249.875 53.8808 249.701 53.8553L248.373 53.6639V53.3195C248.699 53.3552 249.383 53.3743 250.426 53.3766L250.654 53.3769C251.814 53.3769 252.574 53.3578 252.935 53.3195V53.6639C252.649 53.6894 252.368 53.7373 252.094 53.8074C251.82 53.8776 251.546 53.9764 251.271 54.104C250.997 54.2316 250.698 54.407 250.374 54.6302C250.05 54.8534 249.695 55.1309 249.308 55.4626L245.625 58.7154L251.066 63.4991C251.714 64.0731 252.144 64.4367 252.356 64.5897C252.605 64.7556 252.842 64.8576 253.066 64.8959L254.001 65.0681Z" fill="white"></path>
  <path fill-rule="evenodd" clip-rule="evenodd" d="M36.962 43.0569L44.0514 47.2335C44.1322 47.2813 44.1942 47.4335 44.1942 47.5387C44.2008 49.5941 44.1998 51.6487 44.1989 53.7033V53.7049L44.1985 54.7333V57.0295L28.5273 47.8249C28.6685 47.7408 28.8039 47.6594 28.9364 47.5798L28.9371 47.5794L28.9372 47.5793C29.1251 47.4664 29.3069 47.3572 29.4902 47.2491L36.5992 43.0613C36.7309 42.983 36.8286 42.9778 36.962 43.0569ZM46.883 43.8765L45.4052 43.0119L45.4043 43.0111V61.6177C45.4419 61.5969 45.476 61.5784 45.5076 61.5612L45.5078 61.5611L45.5079 61.5611L45.508 61.561L45.5084 61.5608C45.5693 61.5277 45.6212 61.4995 45.672 61.4698C48.3091 59.9155 50.9495 58.3665 53.5926 56.8227C53.7685 56.721 53.8025 56.5983 53.8025 56.4157C53.7974 53.6612 53.7974 50.9058 53.8025 48.1504C53.8033 47.973 53.7498 47.8808 53.5994 47.7938C51.36 46.4901 49.1207 45.1846 46.883 43.8765ZM31.6631 51.0481C31.9878 51.2414 32.3123 51.4352 32.6367 51.629C33.4024 52.0864 34.1679 52.5437 34.9367 52.9946C36.0191 53.629 37.1039 54.259 38.1886 54.889L38.189 54.8893L38.19 54.8898L38.1931 54.8917C38.6536 55.1591 39.1141 55.4265 39.5743 55.6943C39.6031 55.7102 39.6295 55.7296 39.6651 55.7559C39.6822 55.7685 39.7013 55.7826 39.7239 55.7987L24.0137 65.0224C24.0116 64.9798 24.0093 64.9416 24.0071 64.9064L24.0071 64.9064C24.003 64.8386 23.9995 64.7816 24.0001 64.7249C24.0037 64.3526 24.0085 63.9804 24.0134 63.6082C24.0234 62.838 24.0335 62.068 24.0324 61.2981C24.0324 59.3942 24.0171 57.4903 24.0009 55.5856C24.0009 55.4029 24.0544 55.2994 24.2134 55.2064C26.5878 53.8156 28.9589 52.4214 31.3266 51.0229C31.4685 50.9385 31.5535 50.9828 31.6631 51.0481ZM57.9863 55.6316V58.0869C57.9863 60.4778 57.9888 62.8688 57.9939 65.2606C57.9939 65.4128 57.971 65.5276 57.8223 65.6163C56.5492 66.3556 55.2795 67.1001 54.0124 67.8481C52.9059 68.5004 51.802 69.1553 50.6989 69.8137C50.5739 69.8894 50.4796 69.9094 50.3411 69.8285C47.6615 68.2473 44.9803 66.6705 42.2973 65.0971C42.2557 65.0727 42.2148 65.046 42.1649 65.0135L42.1648 65.0134L42.1646 65.0133L42.1646 65.0133L42.1645 65.0133L42.164 65.0129C42.1377 64.9958 42.109 64.9771 42.0763 64.9562L57.9854 55.6316H57.9863ZM36.4146 77.7764V59.1393C36.3911 59.1513 36.3701 59.1619 36.3507 59.1717C36.3054 59.1944 36.2693 59.2126 36.2336 59.2333C33.6127 60.7762 30.9892 62.3148 28.364 63.8516C28.2331 63.9291 28.183 64.0125 28.183 64.1691C28.1881 66.9819 28.1881 69.7964 28.1796 72.6109C28.1796 72.8231 28.2416 72.9423 28.4261 73.0493C29.1793 73.4881 29.9294 73.9318 30.6797 74.3755C31.2322 74.7023 31.7848 75.0292 32.3387 75.3541C32.5517 75.4792 32.7683 75.5981 32.9849 75.717L32.985 75.7171L32.9851 75.7172L32.9852 75.7172L32.9853 75.7173L32.9854 75.7173L32.9855 75.7174L32.9856 75.7174L32.9857 75.7175L32.9858 75.7176L32.9861 75.7177C33.2359 75.8549 33.4857 75.992 33.7299 76.1386C34.3003 76.4803 34.8675 76.8284 35.4438 77.182L35.4444 77.1824C35.7643 77.3787 36.087 77.5768 36.4146 77.7764ZM53.4533 73.0355L37.6046 63.7291C37.6014 63.7672 37.5983 63.7966 37.5957 63.8213L37.5957 63.8213C37.5926 63.8502 37.5902 63.8727 37.5893 63.8953C37.5927 67.0064 37.5901 70.1166 37.5842 73.2277C37.5833 73.399 37.6683 73.459 37.789 73.5295L38.9291 74.1973C40.9 75.3514 42.8723 76.5064 44.835 77.673C45.1036 77.8339 45.2872 77.8252 45.5489 77.673C47.2721 76.6539 49 75.6434 50.7278 74.633C51.3313 74.2801 51.9348 73.9271 52.538 73.5739C52.7209 73.467 52.9028 73.3598 53.0942 73.247C53.2097 73.1789 53.3286 73.1088 53.4533 73.0355ZM37.1279 73.9426L40.3888 75.8561L37.1279 77.7721V73.9426ZM50.6982 70.61L53.7815 72.4217V68.7983L50.6982 70.61ZM27.4723 67.4596V63.8076L24.3652 65.634L27.4723 67.4596ZM57.4628 55.1229L54.5088 53.393V56.8607L57.4628 55.1229ZM28.2109 48.4477L31.2789 50.2498L28.2109 52.0537V48.4477ZM44.6773 46.7979V43.1937L41.6093 44.9967L44.6773 46.7979Z" fill="white"></path>
</svg>
