<svg width="1200" height="720" viewBox="0 0 1200 720" fill="none" xmlns="http://www.w3.org/2000/svg">
<g clip-path="url(#clip0_2205_464820)">
<g opacity="0.15">
<path d="M-1.34961 672.865C245.438 552.074 329.653 418.864 360.174 317.808C394.233 205.025 376.668 81.7586 413.435 74.1036C436.978 69.2002 465.946 115.229 519.954 216.131C683.732 522.102 687.44 603.356 757.217 624.445C854.966 654.009 915.224 514.925 1065.48 517.923C1175.83 520.13 1265.13 597.57 1325.32 666.406" stroke="#FF5C00" stroke-miterlimit="10"/>
<path d="M-7.27539 660.722C232.563 542.532 321.616 413.049 354.557 318.338C391.368 212.496 373.983 95.5971 410.368 90.0683C433.759 86.5112 462.183 131.753 514.352 229.197C672.895 525.284 677.813 607.55 747.054 627.598C845.369 655.665 903.001 506.519 1054.85 504.489C1058.16 504.445 1061.42 504.445 1064.68 504.533C1172.41 507.531 1262.99 585.008 1324.46 653.421" stroke="#FF5C00" stroke-miterlimit="10"/>
<path d="M-13.1836 648.579C219.688 533.001 313.508 407.464 348.954 318.875C388.462 220.129 371.323 109.45 407.314 106.04C430.562 103.833 458.445 148.292 508.76 242.274C662.036 528.462 668.135 612.004 736.915 630.75C835.709 657.676 890.832 498.04 1044.24 491.051C1047.61 490.897 1050.96 490.742 1054.32 490.76C1163.83 491.364 1259.11 570.441 1323.62 640.432" stroke="#FF5C00" stroke-miterlimit="10"/>
<path d="M-19.1035 636.437C206.834 523.437 305.275 402.149 343.343 319.413C385.437 227.924 368.67 123.315 404.248 122.016C427.364 121.17 454.673 164.827 503.16 255.348C651.187 531.67 658.492 616.312 726.769 633.903C826.089 659.49 878.673 489.499 1033.63 477.614C1037.07 477.349 1040.5 477.095 1043.93 476.985C1155.22 473.432 1255.21 555.871 1322.76 627.436" stroke="#FF5C00" stroke-miterlimit="10"/>
<path d="M-25.0215 624.294C193.967 513.906 296.877 397.117 337.731 319.949C382.241 235.877 366.033 137.194 401.189 137.992C424.176 138.511 450.919 181.365 497.566 268.425C640.34 534.863 648.855 620.609 716.624 637.051C816.5 661.285 866.531 480.895 1023.01 464.162C1026.53 463.794 1030.04 463.426 1033.57 463.198C1146.63 456.422 1251.34 541.293 1321.93 614.447" stroke="#FF5C00" stroke-miterlimit="10"/>
<path d="M-30.9414 612.151C181.102 504.371 288.265 392.39 332.127 320.49C378.8 243.977 363.395 151.084 398.134 153.964C421 155.862 447.165 197.9 491.973 281.501C629.501 538.055 639.231 624.89 706.485 640.204C806.908 663.065 854.398 472.232 1012.41 450.735C1016 450.245 1019.59 449.749 1023.21 449.432C1138.03 439.464 1247.48 526.733 1321.09 601.469" stroke="#FF5C00" stroke-miterlimit="10"/>
<path d="M-36.8555 600.009C168.236 494.826 279.375 387.965 326.511 321.027C375.005 252.158 360.78 164.992 395.068 169.94C417.819 173.221 443.403 214.45 486.368 294.575C618.647 541.245 629.602 629.161 696.334 643.353C797.327 664.831 842.256 463.518 1001.79 437.297C1005.47 436.694 1009.12 436.076 1012.82 435.66C1129.4 422.521 1243.58 512.173 1320.23 588.48" stroke="#FF5C00" stroke-miterlimit="10"/>
<path d="M-42.7734 587.866C155.369 485.284 259.232 373.041 320.902 321.564C358.254 252.015 358.162 178.919 392.008 185.912C414.645 190.591 439.648 230.974 480.774 307.67C607.8 544.456 619.979 633.435 686.189 646.524C787.749 666.597 830.118 454.77 991.174 423.878C994.919 423.161 998.667 422.425 1002.46 421.903C1120.79 405.625 1239.72 497.614 1319.4 575.51" stroke="#FF5C00" stroke-miterlimit="10"/>
<path d="M-48.6914 575.723C142.506 475.741 249.176 366.49 315.293 322.101C353.116 258.728 355.543 192.864 388.948 201.887C411.475 207.972 435.889 247.501 475.176 320.729C596.934 547.63 610.365 637.662 676.048 649.657C778.178 668.307 817.976 445.938 980.562 410.422C984.38 409.587 988.206 408.734 992.091 408.108C1112.19 388.719 1235.83 483.028 1318.55 562.502" stroke="#FF5C00" stroke-miterlimit="10"/>
<path d="M-54.6113 563.581C129.638 466.199 239.114 359.946 309.679 322.638C347.972 265.438 352.923 206.824 385.886 217.86C408.299 225.36 432.132 264.04 469.576 333.803C586.104 550.835 600.751 641.889 665.901 652.803C768.613 670.015 805.821 437.08 969.948 396.977C973.84 396.028 977.747 395.061 981.72 394.329C1103.58 371.846 1231.95 468.454 1317.7 549.51" stroke="#FF5C00" stroke-miterlimit="10"/>
<path d="M-60.5273 551.438C116.777 456.658 229.056 353.398 304.068 323.179C342.832 272.155 350.299 220.806 382.821 233.836C405.12 242.767 428.376 280.582 463.98 346.869C575.255 554.006 591.142 646.097 655.755 655.948C759.048 671.696 793.659 428.179 959.335 383.532C963.304 382.462 967.288 381.388 971.345 380.546C1094.98 354.991 1228.06 453.88 1316.86 536.514" stroke="#FF5C00" stroke-miterlimit="10"/>
<path d="M-66.4453 539.291C103.903 447.119 219.007 346.85 298.463 323.731C337.698 278.882 347.674 234.81 379.758 249.826C401.935 260.199 424.617 297.132 458.378 359.971C564.404 557.224 581.531 650.323 645.614 659.122C749.495 673.391 781.487 419.284 948.723 370.12C952.77 368.932 956.816 367.744 960.976 366.81C1086.38 338.198 1224.18 439.346 1316.01 523.562" stroke="#FF5C00" stroke-miterlimit="10"/>
<path d="M-72.3652 527.149C91.0377 437.577 208.934 340.302 292.848 324.253C332.554 285.581 345.028 248.803 376.7 265.783C398.749 277.606 420.86 313.655 452.782 373.034C553.573 560.402 571.929 654.498 635.464 662.26C739.934 675.021 769.292 410.301 938.11 356.668C942.226 355.359 946.368 354.064 950.617 353.008C1077.8 321.373 1220.31 424.739 1315.18 510.551" stroke="#FF5C00" stroke-miterlimit="10"/>
<path d="M-78.2715 515.006C78.1717 428.035 198.875 333.758 287.24 324.797C327.413 292.302 342.377 262.818 373.64 281.759C395.557 295.038 417.106 330.19 447.188 386.107C542.716 563.595 562.326 658.684 625.32 665.412C730.386 676.647 757.088 401.296 927.495 343.23C931.688 341.8 935.911 340.394 940.237 339.232C1069.21 304.566 1216.42 410.183 1314.34 497.562" stroke="#FF5C00" stroke-miterlimit="10"/>
<path d="M-84.1973 502.863C65.3046 418.493 188.818 327.211 281.63 325.331C322.274 299.011 339.718 276.837 370.58 297.742C392.353 312.482 413.35 346.733 441.575 399.192C531.853 566.796 552.707 662.845 615.161 668.569C720.818 678.254 744.854 392.313 916.868 329.797C921.135 328.248 925.439 326.736 929.85 325.464C1060.62 287.788 1212.53 395.624 1313.46 484.581" stroke="#FF5C00" stroke-miterlimit="10"/>
<path d="M-90.1152 490.721C52.4379 408.951 178.758 320.663 276.018 325.868C317.136 305.725 337.044 290.864 367.52 313.707C389.143 329.915 409.592 363.264 435.996 412.262C521.021 569.978 543.118 666.987 605.034 671.714C711.284 679.825 732.634 383.26 906.271 316.37C910.612 314.7 914.996 313.082 919.513 311.702C1052.06 271.011 1208.66 381.046 1312.63 471.57" stroke="#FF5C00" stroke-miterlimit="10"/>
<path d="M-96.0352 478.578C39.573 399.412 168.696 314.13 270.407 326.405C311.974 312.427 334.358 304.897 364.459 329.683C385.919 347.358 405.835 379.799 430.396 425.324C510.172 573.156 533.512 671.111 594.888 674.848C701.73 681.359 720.38 374.189 895.657 302.899C900.071 301.104 904.537 299.383 909.124 297.893C1043.5 254.251 1204.79 366.479 1311.78 458.596" stroke="#FF5C00" stroke-miterlimit="10"/>
<path d="M-101.953 466.42C26.7063 389.856 158.636 307.557 264.794 326.931C306.85 319.137 331.662 318.912 361.392 345.64C382.69 364.768 402.076 396.319 424.794 438.397C499.321 576.341 523.904 675.234 584.739 678.001C692.178 682.901 708.113 365.129 885.045 289.484C889.529 287.564 894.08 285.739 898.751 284.139C1034.94 237.507 1200.9 351.916 1310.94 445.626" stroke="#FF5C00" stroke-miterlimit="10"/>
<path d="M-107.869 454.281C13.8379 380.343 147.18 347.21 259.187 327.483C301.1 320.1 328.961 332.96 358.334 361.63C379.459 382.23 398.323 412.872 419.202 451.489C488.476 579.556 514.299 679.361 574.597 681.167C682.62 684.401 695.829 356.035 874.432 276.035C878.986 273.997 883.628 272.066 888.381 270.355C1026.39 220.758 1197.01 337.341 1310.1 432.618" stroke="#FF5C00" stroke-miterlimit="10"/>
<path d="M-113.789 442.142C0.980353 370.779 135.982 304.831 253.576 328.013C295.997 336.378 326.245 346.983 355.272 377.599C376.217 399.67 394.562 429.4 413.602 464.559C477.63 582.742 504.686 683.452 564.45 684.309C673.055 685.869 683.527 346.924 863.815 262.59C868.446 260.427 873.169 258.404 878.01 256.576C1017.96 204.301 1193.14 322.771 1309.26 419.629" stroke="#FF5C00" stroke-miterlimit="10"/>
<path d="M-119.707 430.003C-11.8937 361.241 126.83 293.074 247.967 328.554C290.936 341.141 323.524 361.016 352.212 393.575C372.97 417.117 390.807 445.942 408.004 477.636C466.783 585.939 495.074 687.8 554.306 687.465C663.488 686.847 671.084 337.551 853.203 249.157C857.899 246.861 862.711 244.744 867.637 242.804C1009.38 187.439 1189.26 308.2 1308.4 406.637" stroke="#FF5C00" stroke-miterlimit="10"/>
<path d="M-125.625 417.864C-24.7603 351.706 118.396 281.391 242.354 329.098C429.223 401.027 445.39 692.31 544.165 690.618C656.764 688.69 659.067 309.749 857.268 229.031C1000.8 170.58 1185.39 293.633 1307.56 393.655" stroke="#FF5C00" stroke-miterlimit="10"/>
</g>
</g>
<defs>
<clipPath id="clip0_2205_464820">
<rect width="1200" height="720" fill="white"/>
</clipPath>
</defs>
</svg>
