<svg width="330" height="720" viewBox="0 0 330 720" fill="none" xmlns="http://www.w3.org/2000/svg">
<g opacity="0.2">
<path opacity="0.19" d="M466.691 -97.9263C632.848 -2.14817 571 169.702 397.168 242.441C233.409 310.984 42.0397 352.872 143.534 527.318C217.357 654.245 154.432 850.187 100.576 899.328" stroke="url(#paint0_linear_2775_574710)" stroke-miterlimit="10"/>
<path opacity="0.2212" d="M459.313 -100.782C574.516 -39.4677 584.778 63.3457 524.594 137.588C493.775 175.629 446.674 209.326 389.119 233.881C362.207 245.467 335.137 257.076 308.797 268.61C176.472 326.632 69.8986 380.136 153.914 525.125C171.953 556.321 181.738 591.576 184.246 627.989C192.088 742.922 150.364 865.496 111.198 901.226" stroke="url(#paint1_linear_2775_574710)" stroke-width="1.0192" stroke-miterlimit="10"/>
<path opacity="0.2523" d="M451.935 -103.637C571.817 -44.7147 582.529 63.6097 519.331 132.651C486.304 168.709 437.818 200.418 381.071 225.322C354.114 237.156 327.611 249.891 301.955 262.47C174.645 324.82 81.0981 378.807 164.286 522.982C182.421 554.503 192.052 590.037 193.196 626.924C196.839 745 159.404 868.802 121.772 903.115" stroke="url(#paint2_linear_2775_574710)" stroke-width="1.0385" stroke-miterlimit="10"/>
<path opacity="0.2835" d="M444.607 -106.483C569.168 -49.9526 580.064 63.9378 514.116 127.723C478.815 161.889 429.101 191.585 373.072 216.771C346.062 228.903 320.184 242.723 295.163 256.338C172.786 322.9 92.3559 377.437 174.716 520.798C192.897 552.634 202.426 588.458 202.263 625.778C201.59 747.079 168.484 872.166 132.444 905.022" stroke="url(#paint3_linear_2775_574710)" stroke-width="1.0577" stroke-miterlimit="10"/>
<path opacity="0.3146" d="M437.229 -109.338C566.468 -55.1993 577.308 64.1629 508.901 122.795C471.168 155.093 420.324 182.793 365.013 208.261C337.95 220.691 312.707 235.547 288.262 250.238C170.903 320.822 103.505 376.099 185.028 518.696C203.304 550.857 212.681 586.961 211.153 624.753C206.215 749.289 177.464 875.513 142.998 907.011" stroke="url(#paint4_linear_2775_574710)" stroke-width="1.0769" stroke-miterlimit="10"/>
<path opacity="0.3458" d="M429.851 -112.193C563.769 -60.4458 574.346 64.4026 503.636 117.859C463.372 148.27 411.549 174.002 356.965 199.702C329.848 212.43 305.24 228.321 281.42 244.098C169.097 318.604 114.712 374.721 195.408 516.504C213.73 548.98 222.946 585.414 220.17 623.598C210.857 751.4 186.553 878.828 153.63 908.859" stroke="url(#paint5_linear_2775_574710)" stroke-width="1.0962" stroke-miterlimit="10"/>
<path opacity="0.3769" d="M422.472 -115.048C561.069 -65.6928 571.152 64.4981 498.38 112.872C455.476 141.428 402.781 165.16 348.874 191.084C321.745 204.168 297.739 220.987 274.536 237.898C167.226 316.169 125.87 373.333 205.787 514.311C224.205 547.112 233.218 583.817 229.127 622.484C215.341 753.533 195.591 882.133 164.251 910.757" stroke="url(#paint6_linear_2775_574710)" stroke-width="1.1154" stroke-miterlimit="10"/>
<path opacity="0.4081" d="M415.145 -117.895C558.42 -70.9315 567.829 64.4671 493.215 107.953C447.591 134.537 394.055 156.377 340.925 182.542C313.743 195.924 290.389 213.679 267.794 231.774C165.424 313.644 137.511 371.826 216.267 512.135C234.839 545.22 243.533 582.277 238.243 621.345C219.985 755.643 204.73 885.456 174.982 912.623" stroke="url(#paint7_linear_2775_574710)" stroke-width="1.1346" stroke-miterlimit="10"/>
<path opacity="0.4392" d="M407.767 -120.75C555.721 -76.1783 564.234 64.2347 487.951 103.016C439.506 127.61 385.27 147.635 332.876 173.982C305.64 187.662 282.939 206.354 260.902 225.625C163.499 310.943 148.669 370.438 226.597 509.934C245.216 543.334 253.748 580.721 247.152 620.221C224.312 757.799 213.719 888.753 185.505 914.503" stroke="url(#paint8_linear_2775_574710)" stroke-width="1.1538" stroke-miterlimit="10"/>
<path opacity="0.4704" d="M400.389 -123.605C553.021 -81.4252 560.557 63.8852 482.686 98.0793C431.331 120.617 376.494 138.843 324.777 165.414C297.529 179.45 275.398 198.961 254.011 219.475C161.443 308.116 159.876 369.06 236.919 507.782C255.642 541.457 263.855 579.197 256.11 619.107C228.738 759.973 222.799 892.117 196.177 916.409" stroke="url(#paint9_linear_2775_574710)" stroke-width="1.1731" stroke-miterlimit="10"/>
<path opacity="0.5015" d="M393.011 -126.461C550.323 -86.6722 556.75 63.4097 477.481 93.1017C423.133 113.465 367.769 130.06 316.778 156.863C289.477 171.198 268.008 191.595 247.219 213.343C159.455 305.199 171.134 367.69 247.349 505.598C266.167 539.597 274.12 577.65 265.167 618.01C233.115 762.139 231.888 895.432 206.8 918.307" stroke="url(#paint10_linear_2775_574710)" stroke-width="1.1923" stroke-miterlimit="10"/>
<path opacity="0.5327" d="M385.683 -129.307C547.723 -91.9015 552.977 62.7356 472.266 88.1737C414.894 106.255 359.034 121.327 308.778 148.313C281.474 162.954 260.517 184.211 240.426 207.211C157.385 302.165 182.391 366.32 257.819 503.472C276.684 537.787 284.385 576.102 274.225 616.912C237.492 764.304 240.967 898.796 217.471 920.214" stroke="url(#paint11_linear_2775_574710)" stroke-width="1.2115" stroke-miterlimit="10"/>
<path opacity="0.5638" d="M378.304 -132.162C545.023 -97.1484 549.073 61.9356 467.001 83.2369C406.573 98.9274 350.298 112.593 300.679 139.744C273.312 154.733 252.935 176.76 233.484 201.052C155.025 299.029 193.549 364.932 268.099 501.262C287.059 535.901 294.5 574.528 283.132 615.789C241.669 766.434 249.956 902.093 228.044 922.103" stroke="url(#paint12_linear_2775_574710)" stroke-width="1.2308" stroke-miterlimit="10"/>
<path opacity="0.595" d="M370.927 -135.017C542.324 -102.394 545.196 60.9878 461.786 78.31C398.32 91.5108 341.563 103.861 292.68 131.195C265.301 146.54 245.453 169.327 226.692 194.921C152.733 295.802 204.748 363.604 278.52 499.129C297.526 534.084 304.657 573.014 292.14 614.684C245.906 768.524 259.036 905.458 238.657 924.052" stroke="url(#paint13_linear_2775_574710)" stroke-width="1.25" stroke-miterlimit="10"/>
<path opacity="0.6262" d="M363.548 -137.872C539.624 -107.641 541.296 59.8812 456.521 73.3733C389.995 83.9266 332.778 95.1188 284.631 122.635C257.198 138.278 237.872 161.876 219.85 188.781C150.342 292.557 216.005 362.234 288.9 496.936C308.002 532.216 314.822 571.449 301.148 613.578C250.084 770.654 268.075 908.764 249.279 925.95" stroke="url(#paint14_linear_2775_574710)" stroke-width="1.2692" stroke-miterlimit="10"/>
<path opacity="0.6573" d="M356.171 -140.727C536.925 -112.889 537.464 58.6836 451.266 68.3864C381.687 76.2426 324.052 86.3354 276.541 114.017C249.096 130.016 230.209 154.307 212.917 182.572C147.721 289.168 227.114 360.837 299.239 494.684C318.387 530.28 324.955 569.775 310.074 612.355C254.14 772.607 277.073 912.011 259.87 927.739" stroke="url(#paint15_linear_2775_574710)" stroke-width="1.2885" stroke-miterlimit="10"/>
<path opacity="0.6885" d="M348.842 -143.573C534.275 -118.126 533.698 57.3963 446.1 63.4676C373.545 68.4866 315.357 77.6609 268.582 105.525C241.125 121.881 222.668 146.915 206.165 176.499C145.189 285.847 238.412 359.526 309.7 492.609C328.944 528.529 335.152 568.319 319.163 611.366C258.368 774.746 286.243 915.442 270.573 929.754" stroke="url(#paint16_linear_2775_574710)" stroke-width="1.3077" stroke-miterlimit="10"/>
<path opacity="0.7196" d="M341.465 -146.43C531.577 -123.374 529.942 56.0583 440.837 58.53C365.323 60.6124 306.623 68.9267 260.534 96.9646C233.064 113.677 214.997 139.395 199.324 170.357C142.402 282.53 249.562 358.187 320.031 490.406C339.321 526.642 345.228 566.685 328.081 610.192C262.415 776.749 295.233 918.738 281.106 931.584" stroke="url(#paint17_linear_2775_574710)" stroke-width="1.3269" stroke-miterlimit="10"/>
<path opacity="0.7508" d="M334.087 -149.284C528.878 -128.62 526.254 54.6316 435.572 53.5941C357.109 52.6903 297.879 60.244 252.435 88.3971C224.953 105.466 207.267 131.918 192.432 164.208C139.573 279.157 260.711 356.85 330.402 488.264C349.788 524.824 355.384 565.171 337.08 609.137C266.503 778.813 304.263 922.095 291.769 933.541" stroke="url(#paint18_linear_2775_574710)" stroke-width="1.3462" stroke-miterlimit="10"/>
<path opacity="0.7819" d="M326.709 -152.14C526.179 -133.868 522.623 53.1623 430.358 48.6653C349.012 44.685 289.194 51.5186 244.436 79.8456C216.941 97.2705 199.596 124.399 185.59 158.066C136.686 275.822 271.919 355.47 340.783 486.07C360.214 522.946 365.509 563.546 346.097 607.98C270.559 780.766 313.361 925.359 302.4 935.389" stroke="url(#paint19_linear_2775_574710)" stroke-width="1.3654" stroke-miterlimit="10"/>
<path opacity="0.8131" d="M319.381 -154.986C523.529 -139.106 519.11 51.6123 425.152 43.6877C340.983 36.59 280.509 42.7941 236.396 71.2364C208.889 89.0177 191.825 116.862 178.757 151.876C133.708 272.421 282.852 354.196 351.212 483.886C370.681 521.127 375.684 561.931 355.104 606.874C274.606 782.77 322.391 928.714 313.023 937.287" stroke="url(#paint20_linear_2775_574710)" stroke-width="1.3846" stroke-miterlimit="10"/>
<path opacity="0.8442" d="M312.003 -157.842C520.879 -144.344 515.646 50.0713 419.887 38.751C332.903 28.4862 271.764 34.1105 228.338 62.7266C200.818 80.8643 184.036 109.425 171.906 145.785C130.645 269.21 294.041 352.916 361.583 481.743C381.098 519.3 385.799 560.358 364.112 605.768C278.662 784.724 331.529 932.037 323.644 939.185" stroke="url(#paint21_linear_2775_574710)" stroke-width="1.4038" stroke-miterlimit="10"/>
<path opacity="0.8754" d="M304.624 -160.697C518.18 -149.591 512.19 48.4805 414.672 33.823C324.94 20.3008 263.07 25.4357 220.338 54.1759C192.806 72.67 176.306 101.947 165.054 139.693C127.523 266.039 305.24 351.587 371.954 479.6C391.564 517.481 395.865 558.775 373.069 604.654C282.618 786.661 340.509 935.384 334.266 941.082" stroke="url(#paint22_linear_2775_574710)" stroke-width="1.4231" stroke-miterlimit="10"/>
<path opacity="0.9065" d="M297.246 -163.552C515.48 -154.838 508.835 46.9077 409.407 28.8865C317.028 12.1246 254.375 16.7611 212.239 45.6078C184.694 64.4583 168.418 94.4928 158.162 133.544C124.261 262.793 316.389 350.249 382.275 477.448C401.931 515.645 405.931 557.192 382.018 603.589C286.516 788.638 349.539 938.739 344.821 943.071" stroke="url(#paint23_linear_2775_574710)" stroke-width="1.4423" stroke-miterlimit="10"/>
<path opacity="0.9377" d="M289.918 -166.398C512.831 -160.076 505.587 45.3028 404.201 23.9088C309.133 3.84871 245.69 8.03663 204.249 37.0074C176.733 56.2729 160.647 86.9563 151.379 127.362C121.091 259.613 327.656 348.829 392.714 475.215C412.466 513.736 416.114 555.528 391.044 602.383C290.549 790.434 358.637 942.004 355.462 944.869" stroke="url(#paint24_linear_2775_574710)" stroke-width="1.4615" stroke-miterlimit="10"/>
<path opacity="0.9688" d="M282.54 -169.253C510.132 -165.322 502.34 43.6987 398.986 18.9817C301.329 -4.35888 237.086 -0.570022 196.249 28.4576C168.761 48.1379 152.809 79.5111 144.587 121.231C117.852 256.525 338.913 347.46 403.184 473.09C422.982 511.927 426.23 553.954 400.142 601.346C294.275 792.228 367.766 945.378 366.224 946.844" stroke="url(#paint25_linear_2775_574710)" stroke-width="1.4808" stroke-miterlimit="10"/>
<path d="M275.162 -172.108C507.432 -170.569 499.142 42.1026 393.722 14.0449C224.831 -30.8864 155.404 9.37595 137.695 115.081C107.217 296.84 523.345 399.728 409.05 600.222C298.471 794.259 376.747 948.725 376.747 948.725" stroke="url(#paint26_linear_2775_574710)" stroke-width="1.5" stroke-miterlimit="10"/>
</g>
<defs>
<linearGradient id="paint0_linear_2775_574710" x1="218.726" y1="920.619" x2="402.796" y2="-109.584" gradientUnits="userSpaceOnUse">
<stop stop-color="#FFA978"/>
<stop offset="1" stop-color="#FF7A00"/>
</linearGradient>
<linearGradient id="paint1_linear_2775_574710" x1="220.559" y1="920.937" x2="404.896" y2="-110.761" gradientUnits="userSpaceOnUse">
<stop stop-color="#FFA978"/>
<stop offset="1" stop-color="#FF7A00"/>
</linearGradient>
<linearGradient id="paint2_linear_2775_574710" x1="222.205" y1="921.222" x2="406.81" y2="-111.973" gradientUnits="userSpaceOnUse">
<stop stop-color="#FFA978"/>
<stop offset="1" stop-color="#FF7A00"/>
</linearGradient>
<linearGradient id="paint3_linear_2775_574710" x1="223.58" y1="921.456" x2="408.429" y2="-113.108" gradientUnits="userSpaceOnUse">
<stop stop-color="#FFA978"/>
<stop offset="1" stop-color="#FF7A00"/>
</linearGradient>
<linearGradient id="paint4_linear_2775_574710" x1="224.732" y1="921.652" x2="409.848" y2="-114.406" gradientUnits="userSpaceOnUse">
<stop stop-color="#FFA978"/>
<stop offset="1" stop-color="#FF7A00"/>
</linearGradient>
<linearGradient id="paint5_linear_2775_574710" x1="225.569" y1="921.795" x2="410.954" y2="-115.763" gradientUnits="userSpaceOnUse">
<stop stop-color="#FFA978"/>
<stop offset="1" stop-color="#FF7A00"/>
</linearGradient>
<linearGradient id="paint6_linear_2775_574710" x1="226.038" y1="921.876" x2="411.692" y2="-117.191" gradientUnits="userSpaceOnUse">
<stop stop-color="#FF7A00"/>
<stop offset="1" stop-color="#FFA978"/>
</linearGradient>
<linearGradient id="paint7_linear_2775_574710" x1="226.091" y1="921.844" x2="411.976" y2="-118.521" gradientUnits="userSpaceOnUse">
<stop stop-color="#FF7A00"/>
<stop offset="1" stop-color="#FFA978"/>
</linearGradient>
<linearGradient id="paint8_linear_2775_574710" x1="225.647" y1="921.76" x2="411.802" y2="-120.109" gradientUnits="userSpaceOnUse">
<stop stop-color="#FF7A00"/>
<stop offset="1" stop-color="#FFA978"/>
</linearGradient>
<linearGradient id="paint9_linear_2775_574710" x1="224.658" y1="921.587" x2="411.085" y2="-121.806" gradientUnits="userSpaceOnUse">
<stop stop-color="#FF7A00"/>
<stop offset="1" stop-color="#FFA978"/>
</linearGradient>
<linearGradient id="paint10_linear_2775_574710" x1="223.081" y1="921.327" x2="409.788" y2="-123.634" gradientUnits="userSpaceOnUse">
<stop stop-color="#FF7A00"/>
<stop offset="1" stop-color="#FFA978"/>
</linearGradient>
<linearGradient id="paint11_linear_2775_574710" x1="220.859" y1="920.765" x2="407.745" y2="-125.197" gradientUnits="userSpaceOnUse">
<stop stop-color="#FF7A00"/>
<stop offset="1" stop-color="#FFA978"/>
</linearGradient>
<linearGradient id="paint12_linear_2775_574710" x1="218.084" y1="920.364" x2="405.286" y2="-127.366" gradientUnits="userSpaceOnUse">
<stop stop-color="#FF7A00"/>
<stop offset="1" stop-color="#FFA978"/>
</linearGradient>
<linearGradient id="paint13_linear_2775_574710" x1="239.266" y1="486.235" x2="239.266" y2="486.235" gradientUnits="userSpaceOnUse">
<stop stop-color="#FF7A00"/>
<stop offset="1" stop-color="#FFA978"/>
</linearGradient>
<linearGradient id="paint14_linear_2775_574710" x1="398.623" y1="-131.637" x2="210.888" y2="919.079" gradientUnits="userSpaceOnUse">
<stop stop-color="#FF7A00"/>
<stop offset="1" stop-color="#FFA978"/>
</linearGradient>
<linearGradient id="paint15_linear_2775_574710" x1="394.607" y1="-133.825" x2="206.642" y2="918.181" gradientUnits="userSpaceOnUse">
<stop stop-color="#FF7A00"/>
<stop offset="1" stop-color="#FFA978"/>
</linearGradient>
<linearGradient id="paint16_linear_2775_574710" x1="390.302" y1="-136.559" x2="201.953" y2="917.589" gradientUnits="userSpaceOnUse">
<stop stop-color="#FF7A00"/>
<stop offset="1" stop-color="#FFA978"/>
</linearGradient>
<linearGradient id="paint17_linear_2775_574710" x1="385.678" y1="-139.124" x2="197.036" y2="916.666" gradientUnits="userSpaceOnUse">
<stop stop-color="#FF7A00"/>
<stop offset="1" stop-color="#FFA978"/>
</linearGradient>
<linearGradient id="paint18_linear_2775_574710" x1="380.833" y1="-141.822" x2="191.878" y2="915.723" gradientUnits="userSpaceOnUse">
<stop stop-color="#FF7A00"/>
<stop offset="1" stop-color="#FFA978"/>
</linearGradient>
<linearGradient id="paint19_linear_2775_574710" x1="375.81" y1="-144.628" x2="186.527" y2="914.753" gradientUnits="userSpaceOnUse">
<stop stop-color="#FF7A00"/>
<stop offset="1" stop-color="#FFA978"/>
</linearGradient>
<linearGradient id="paint20_linear_2775_574710" x1="370.621" y1="-147.598" x2="180.962" y2="913.883" gradientUnits="userSpaceOnUse">
<stop stop-color="#FF7A00"/>
<stop offset="1" stop-color="#FFA978"/>
</linearGradient>
<linearGradient id="paint21_linear_2775_574710" x1="370.888" y1="-149.564" x2="180.883" y2="913.855" gradientUnits="userSpaceOnUse">
<stop stop-color="#FF7A00"/>
<stop offset="1" stop-color="#FFA978"/>
</linearGradient>
<linearGradient id="paint22_linear_2775_574710" x1="372.938" y1="-151.265" x2="182.577" y2="914.149" gradientUnits="userSpaceOnUse">
<stop stop-color="#FF7A00"/>
<stop offset="1" stop-color="#FFA978"/>
</linearGradient>
<linearGradient id="paint23_linear_2775_574710" x1="374.925" y1="-153.026" x2="184.198" y2="914.434" gradientUnits="userSpaceOnUse">
<stop stop-color="#FF7A00"/>
<stop offset="1" stop-color="#FFA978"/>
</linearGradient>
<linearGradient id="paint24_linear_2775_574710" x1="376.83" y1="-154.875" x2="185.706" y2="914.804" gradientUnits="userSpaceOnUse">
<stop stop-color="#FF7A00"/>
<stop offset="1" stop-color="#FFA978"/>
</linearGradient>
<linearGradient id="paint25_linear_2775_574710" x1="378.722" y1="-156.731" x2="187.219" y2="915.071" gradientUnits="userSpaceOnUse">
<stop stop-color="#FF7A00"/>
<stop offset="1" stop-color="#FFA978"/>
</linearGradient>
<linearGradient id="paint26_linear_2775_574710" x1="380.538" y1="-158.64" x2="188.649" y2="915.322" gradientUnits="userSpaceOnUse">
<stop stop-color="#FF7A00"/>
<stop offset="1" stop-color="#FFA978"/>
</linearGradient>
</defs>
</svg>
