<svg width="1200" height="246" viewBox="0 0 1200 246" fill="none" xmlns="http://www.w3.org/2000/svg">
<path opacity="0.19" d="M-126.004 164.91C-79.557 88.3418 114.32 41.3835 245.897 127.539C370.299 208.933 458.431 272.458 599.402 191.389C712.454 126.365 1162.11 147.17 1219.13 178.671" stroke="url(#paint0_linear_596_150331)" stroke-width="0.25" stroke-miterlimit="10"/>
<path opacity="0.2212" d="M-129.199 165.04C-100.757 110.517 -0.296088 73.1455 98.7297 83.8416C147.329 89.1244 197.429 103.995 240.875 131.778C263.642 146.192 285.17 159.692 305.718 171.562C400.113 225.825 478.133 249.5 594.902 184.672C615.451 173.323 646.503 164.845 684.143 158.91C858.058 131.648 1174.05 146.974 1219.13 171.823" stroke="url(#paint1_linear_596_150331)" stroke-width="0.2981" stroke-miterlimit="10"/>
<path opacity="0.2523" d="M-132.397 165.171C-106.76 107.582 -3.49358 70.8628 93.9014 85.6677C141.914 92.9724 192.014 108.951 235.786 136.017C258.944 150.301 280.928 163.214 301.542 174.236C396.393 224.782 472.326 240.695 590.335 177.954C611.275 166.801 642.522 158.779 680.358 153.496C855.708 129.104 1175.88 141.105 1219.13 164.975" stroke="url(#paint2_linear_596_150331)" stroke-width="0.3462" stroke-miterlimit="10"/>
<path opacity="0.2835" d="M-135.594 165.301C-112.696 104.582 -6.6254 68.6455 89.0734 87.4288C136.564 96.7553 186.664 113.778 230.697 140.192C254.312 154.344 276.687 166.736 297.432 176.845C392.87 223.543 466.65 232.021 585.833 171.106C607.165 160.214 638.608 152.649 676.639 147.953C853.359 126.626 1177.64 135.3 1219.06 158.192" stroke="url(#paint3_linear_596_150331)" stroke-width="0.3942" stroke-miterlimit="10"/>
<path opacity="0.3146" d="M-138.855 165.432C-118.698 101.647 -9.82187 66.428 84.2461 89.255C131.15 100.603 181.315 118.604 225.609 144.431C249.615 158.453 272.513 170.258 293.257 179.519C389.282 222.369 460.975 223.412 581.267 164.388C602.925 153.757 634.628 146.583 672.856 142.474C850.946 124.082 1179.4 129.43 1219 151.344" stroke="url(#paint4_linear_596_150331)" stroke-width="0.4423" stroke-miterlimit="10"/>
<path opacity="0.3458" d="M-142.051 165.562C-124.633 98.6467 -12.8867 64.2758 79.4852 91.016C125.802 104.451 176.032 123.365 220.587 148.67C245.05 162.562 268.339 173.78 289.148 182.193C385.761 221.195 455.366 214.803 576.832 157.606C598.881 147.236 630.781 140.453 669.204 136.996C848.729 121.604 1181.29 123.626 1219.13 144.496" stroke="url(#paint5_linear_596_150331)" stroke-width="0.4904" stroke-miterlimit="10"/>
<path opacity="0.3769" d="M-145.248 165.693C-130.57 95.7118 -16.0188 62.1236 74.657 92.8422C120.452 108.364 170.747 128.191 215.563 152.91C240.483 166.606 264.163 177.367 285.103 184.867C382.302 220.021 449.755 206.26 572.33 150.888C594.771 140.714 626.801 134.257 665.55 131.518C846.445 118.669 1183.12 117.756 1219.19 137.648" stroke="url(#paint6_linear_596_150331)" stroke-width="0.5385" stroke-miterlimit="10"/>
<path opacity="0.4081" d="M-148.443 165.823C-136.571 92.7768 -19.1488 60.0364 69.8308 94.6682C115.038 112.278 165.399 133.018 210.476 157.149C235.787 170.715 259.989 180.889 280.929 187.607C378.781 218.912 444.146 197.781 567.83 144.17C590.662 134.257 622.888 128.191 661.833 126.104C844.098 116.191 1184.95 112.017 1219.2 130.93" stroke="url(#paint7_linear_596_150331)" stroke-width="0.5865" stroke-miterlimit="10"/>
<path opacity="0.4392" d="M-151.641 165.888C-142.508 89.7767 -22.2811 57.9494 65.0025 96.4291C109.688 116.126 160.114 137.779 205.387 161.323C231.154 174.758 255.748 184.346 276.753 190.215C375.257 217.608 438.469 189.172 563.263 137.322C586.486 127.669 618.908 121.995 658.048 120.561C841.748 113.582 1186.71 106.082 1219.13 124.017" stroke="url(#paint8_linear_596_150331)" stroke-width="0.6346" stroke-miterlimit="10"/>
<path opacity="0.4704" d="M-154.838 166.019C-148.51 86.8417 -25.4129 55.9275 60.2399 98.2552C104.338 120.104 154.83 142.605 200.363 165.627C226.588 178.867 251.638 187.933 272.708 192.954C371.799 216.499 432.989 180.758 558.826 130.669C582.441 121.278 615.058 115.995 654.395 115.147C839.465 111.104 1188.53 100.342 1219.19 117.234" stroke="url(#paint9_linear_596_150331)" stroke-width="0.6827" stroke-miterlimit="10"/>
<path opacity="0.5015" d="M-158.1 166.149C-154.446 83.8417 -28.4789 53.9058 55.4125 100.016C98.989 123.952 149.546 147.366 195.275 169.802C221.956 182.911 247.397 191.389 268.533 195.563C368.277 215.195 427.314 172.149 554.26 123.822C578.266 114.691 611.079 109.799 650.611 109.604C837.116 108.495 1190.29 94.4074 1219.13 110.321" stroke="url(#paint10_linear_596_150331)" stroke-width="0.7308" stroke-miterlimit="10"/>
<path opacity="0.5327" d="M-161.295 166.28C-160.447 80.9069 -31.6742 51.884 50.5863 101.842C93.5758 127.93 144.198 152.192 190.253 174.041C217.391 186.954 243.289 194.911 264.49 198.237C364.886 213.955 421.835 163.671 549.825 117.104C574.223 108.234 607.231 103.734 646.959 104.125C834.899 105.951 1192.19 88.6028 1219.19 103.538" stroke="url(#paint11_linear_596_150331)" stroke-width="0.7788" stroke-miterlimit="10"/>
<path opacity="0.5638" d="M-164.492 166.41C-166.383 77.9068 -34.8056 49.9274 45.7588 103.603C88.2264 131.909 138.913 156.888 185.165 178.28C212.759 190.998 239.048 198.433 260.315 200.912C361.363 212.716 416.225 155.192 545.258 110.321C570.047 101.712 603.252 97.6032 643.175 98.6467C832.485 103.473 1193.95 82.733 1219.13 96.6901" stroke="url(#paint12_linear_596_150331)" stroke-width="0.8269" stroke-miterlimit="10"/>
<path opacity="0.595" d="M-167.689 166.541C-172.386 74.9718 -38.0027 47.9707 40.9309 105.429C82.8113 135.887 133.629 161.714 180.076 182.519C208.127 195.107 234.873 201.955 256.139 203.651C357.905 211.477 410.614 146.779 540.691 103.669C565.872 95.3204 599.272 91.668 639.391 93.2985C830.136 101.06 1195.64 77.0588 1219.13 89.9723" stroke="url(#paint13_linear_596_150331)" stroke-width="0.875" stroke-miterlimit="10"/>
<path opacity="0.6262" d="M-170.885 166.671C-178.322 72.037 -41.1342 46.0795 36.1685 107.191C77.4619 139.8 128.41 166.41 175.052 186.694C203.56 199.085 230.697 205.412 252.094 206.26C354.512 210.173 405.069 138.3 536.255 96.8206C561.892 88.7333 595.358 85.4723 635.738 87.6898C827.853 98.4511 1197.47 71.1239 1219.13 83.0592" stroke="url(#paint14_linear_596_150331)" stroke-width="0.9231" stroke-miterlimit="10"/>
<path opacity="0.6573" d="M-174.081 166.802C-184.322 69.0369 -44.3946 44.1881 31.3425 109.017C71.9835 143.844 123.127 171.236 169.966 190.933C198.93 203.129 226.524 209.39 247.921 208.934C350.926 206.781 399.46 129.887 531.69 90.1029C557.719 82.2765 591.38 79.4068 631.955 82.2765C825.506 95.9727 1199.3 65.3193 1219.13 76.2111" stroke="url(#paint15_linear_596_150331)" stroke-width="0.9712" stroke-miterlimit="10"/>
<path opacity="0.6885" d="M-177.343 166.932C-190.259 66.1018 -47.5919 42.2965 26.5144 110.777C66.5683 147.822 117.777 175.932 164.876 195.172C194.297 207.172 222.283 212.455 243.745 211.607C347.467 207.564 393.849 121.408 527.123 83.3198C553.543 75.7543 587.399 73.276 628.171 76.7326C823.222 93.4289 1201.12 59.4494 1219.13 69.3628" stroke="url(#paint16_linear_596_150331)" stroke-width="1.0192" stroke-miterlimit="10"/>
<path opacity="0.7196" d="M-180.539 167.062C-196.195 63.1018 -50.8528 40.4053 21.6878 112.604C61.0894 151.866 112.494 180.693 159.854 199.411C189.732 211.216 218.174 215.977 239.701 214.282C344.011 206.194 388.37 113.06 522.688 76.6024C549.499 69.2977 583.552 67.2107 624.519 71.3195C820.874 91.016 1202.89 53.6449 1219.13 62.5801" stroke="url(#paint17_linear_596_150331)" stroke-width="1.0673" stroke-miterlimit="10"/>
<path opacity="0.7508" d="M-183.735 167.193C-202.197 60.1669 -54.1147 38.5139 16.8603 114.43C55.6748 155.91 107.21 185.454 154.766 203.651C185.1 215.26 213.933 219.434 235.526 216.956C340.553 204.89 382.825 104.647 518.187 69.8195C545.389 62.8409 579.637 61.08 620.8 65.8411C818.591 88.5376 1204.71 47.7751 1219.13 55.732" stroke="url(#paint18_linear_596_150331)" stroke-width="1.1154" stroke-miterlimit="10"/>
<path opacity="0.7819" d="M-186.933 167.258C-208.134 57.1667 -57.3771 36.6224 12.0975 116.191C50.2596 159.888 101.991 190.15 149.742 207.825C180.533 219.238 209.823 222.891 231.415 219.63C337.095 203.52 377.28 96.2335 513.685 63.1017C541.279 56.3841 575.723 55.0145 617.081 60.3625C816.242 86.0591 1206.54 41.9705 1219.13 48.8838" stroke="url(#paint19_linear_596_150331)" stroke-width="1.1635" stroke-miterlimit="10"/>
<path opacity="0.8131" d="M-190.128 167.388C-214.134 54.2318 -60.7032 34.7963 7.27101 118.017C44.7808 163.932 96.7073 194.911 144.655 212.129C175.902 223.347 205.584 226.478 227.307 222.369C333.573 202.151 371.67 87.8853 509.119 56.3188C537.105 49.8621 571.744 49.0142 613.298 54.884C813.829 83.9068 1208.3 36.1007 1219.13 42.1009" stroke="url(#paint20_linear_596_150331)" stroke-width="1.2115" stroke-miterlimit="10"/>
<path opacity="0.8442" d="M-193.326 167.519C-220.072 51.297 -64.031 32.905 2.44284 119.778C39.235 167.91 91.4225 199.607 139.566 216.303C171.335 227.326 201.408 229.869 223.131 224.978C330.05 200.716 366.124 79.5372 504.617 49.5361C532.994 43.4054 567.764 42.8836 609.579 49.3404C811.48 81.3634 1210.13 30.1657 1219.13 35.1877" stroke="url(#paint21_linear_596_150331)" stroke-width="1.2596" stroke-miterlimit="10"/>
<path opacity="0.8754" d="M-196.588 167.649C-226.074 48.2968 -67.424 31.0135 -2.3853 121.604C33.7545 171.954 86.1378 204.303 134.542 220.543C166.767 231.369 197.232 233.391 219.085 227.652C326.592 199.346 360.644 71.189 500.18 42.8183C528.949 36.9485 563.914 36.8181 605.925 43.927C809.261 78.8849 1211.95 24.4263 1219.19 28.4047" stroke="url(#paint22_linear_596_150331)" stroke-width="1.3077" stroke-miterlimit="10"/>
<path opacity="0.9065" d="M-199.784 167.78C-232.01 45.362 -70.7507 29.1875 -7.21237 123.365C28.2099 175.932 80.854 208.999 129.454 224.782C162.136 235.348 192.992 236.913 214.911 230.326C323.004 197.977 355.034 62.841 495.614 36.0356C524.839 30.4919 559.935 30.6875 602.142 38.4487C806.847 76.4067 1213.71 18.5566 1219.13 21.5568" stroke="url(#paint23_linear_596_150331)" stroke-width="1.3558" stroke-miterlimit="10"/>
<path opacity="0.9377" d="M-202.98 167.91C-238.01 42.3618 -74.1417 27.296 -11.9734 125.191C22.7966 179.976 75.6364 213.76 124.432 229.021C157.571 239.391 188.883 240.369 210.802 233C319.482 196.542 349.49 54.5579 491.114 29.3178C520.731 24.035 556.022 24.6219 598.425 32.9701C804.565 73.863 1215.54 12.7519 1219.13 14.7085" stroke="url(#paint24_linear_596_150331)" stroke-width="1.4038" stroke-miterlimit="10"/>
<path opacity="0.9688" d="M-206.176 168.041C-243.947 39.4269 -77.7299 25.535 -16.801 126.952C17.1209 184.019 70.3521 218.325 119.343 233.195C152.939 243.304 184.643 243.761 206.692 235.608C315.894 194.976 343.945 46.3402 486.548 22.5349C516.555 17.5782 552.043 18.4913 594.641 27.4916C802.151 71.3194 1217.3 6.88213 1219.06 7.92565" stroke="url(#paint25_linear_596_150331)" stroke-width="1.4519" stroke-miterlimit="10"/>
<path d="M-209.373 168.171C-249.949 36.4268 -80.9267 23.5133 -21.6287 128.778C34.7991 228.956 148.503 260.262 202.517 238.348C335.595 184.28 345.576 -32.9672 590.922 22.0132C799.868 68.8411 1219.06 1.07764 1219.06 1.07764" stroke="url(#paint26_linear_596_150331)" stroke-width="1.5" stroke-miterlimit="10"/>
<defs>
<linearGradient id="paint0_linear_596_150331" x1="1219.17" y1="155.125" x2="-126.074" y2="155.125" gradientUnits="userSpaceOnUse">
<stop stop-color="#FFA978"/>
<stop offset="1" stop-color="#FF7A00"/>
</linearGradient>
<linearGradient id="paint1_linear_596_150331" x1="1219.17" y1="152.813" x2="-129.324" y2="152.813" gradientUnits="userSpaceOnUse">
<stop stop-color="#FFA978"/>
<stop offset="1" stop-color="#FF7A00"/>
</linearGradient>
<linearGradient id="paint2_linear_596_150331" x1="1219.18" y1="150.441" x2="-132.579" y2="150.441" gradientUnits="userSpaceOnUse">
<stop stop-color="#FFA978"/>
<stop offset="1" stop-color="#FF7A00"/>
</linearGradient>
<linearGradient id="paint3_linear_596_150331" x1="1219.17" y1="148.513" x2="-135.667" y2="148.513" gradientUnits="userSpaceOnUse">
<stop stop-color="#FFA978"/>
<stop offset="1" stop-color="#FF7A00"/>
</linearGradient>
<linearGradient id="paint4_linear_596_150331" x1="1219.18" y1="146.35" x2="-138.915" y2="146.35" gradientUnits="userSpaceOnUse">
<stop stop-color="#FFA978"/>
<stop offset="1" stop-color="#FF7A00"/>
</linearGradient>
<linearGradient id="paint5_linear_596_150331" x1="1219.18" y1="144.363" x2="-142.165" y2="144.363" gradientUnits="userSpaceOnUse">
<stop stop-color="#FF7A00"/>
<stop offset="1" stop-color="#FFA978"/>
</linearGradient>
<linearGradient id="paint6_linear_596_150331" x1="1219.19" y1="142.603" x2="-145.423" y2="142.603" gradientUnits="userSpaceOnUse">
<stop stop-color="#FF7A00"/>
<stop offset="1" stop-color="#FFA978"/>
</linearGradient>
<linearGradient id="paint7_linear_596_150331" x1="1219.15" y1="141.703" x2="-148.448" y2="141.703" gradientUnits="userSpaceOnUse">
<stop stop-color="#FF7A00"/>
<stop offset="1" stop-color="#FFA978"/>
</linearGradient>
<linearGradient id="paint8_linear_596_150331" x1="1219.16" y1="140.568" x2="-151.698" y2="140.568" gradientUnits="userSpaceOnUse">
<stop stop-color="#FF7A00"/>
<stop offset="1" stop-color="#FFA978"/>
</linearGradient>
<linearGradient id="paint9_linear_596_150331" x1="1219.17" y1="139.7" x2="-154.963" y2="139.7" gradientUnits="userSpaceOnUse">
<stop stop-color="#FF7A00"/>
<stop offset="1" stop-color="#FFA978"/>
</linearGradient>
<linearGradient id="paint10_linear_596_150331" x1="1219.21" y1="139.027" x2="-158.261" y2="139.027" gradientUnits="userSpaceOnUse">
<stop stop-color="#FF7A00"/>
<stop offset="1" stop-color="#FFA978"/>
</linearGradient>
<linearGradient id="paint11_linear_596_150331" x1="1219.01" y1="140.067" x2="-161.044" y2="140.067" gradientUnits="userSpaceOnUse">
<stop stop-color="#FF7A00"/>
<stop offset="1" stop-color="#FFA978"/>
</linearGradient>
<linearGradient id="paint12_linear_596_150331" x1="1219.14" y1="139.415" x2="-164.531" y2="139.415" gradientUnits="userSpaceOnUse">
<stop stop-color="#FF7A00"/>
<stop offset="1" stop-color="#FFA978"/>
</linearGradient>
<linearGradient id="paint13_linear_596_150331" x1="666.276" y1="2695.19" x2="666.276" y2="2695.19" gradientUnits="userSpaceOnUse">
<stop stop-color="#FF7A00"/>
<stop offset="1" stop-color="#FFA978"/>
</linearGradient>
<linearGradient id="paint14_linear_596_150331" x1="-171.218" y1="140.294" x2="1219.14" y2="140.294" gradientUnits="userSpaceOnUse">
<stop stop-color="#FF7A00"/>
<stop offset="1" stop-color="#FFA978"/>
</linearGradient>
<linearGradient id="paint15_linear_596_150331" x1="-174.464" y1="141.734" x2="1218.96" y2="141.734" gradientUnits="userSpaceOnUse">
<stop stop-color="#FF7A00"/>
<stop offset="1" stop-color="#FFA978"/>
</linearGradient>
<linearGradient id="paint16_linear_596_150331" x1="-178.313" y1="139.283" x2="1219.26" y2="139.283" gradientUnits="userSpaceOnUse">
<stop stop-color="#FF7A00"/>
<stop offset="1" stop-color="#FFA978"/>
</linearGradient>
<linearGradient id="paint17_linear_596_150331" x1="-181.825" y1="137.813" x2="1219.2" y2="137.813" gradientUnits="userSpaceOnUse">
<stop stop-color="#FF7A00"/>
<stop offset="1" stop-color="#FFA978"/>
</linearGradient>
<linearGradient id="paint18_linear_596_150331" x1="-185.428" y1="136.254" x2="1219.17" y2="136.254" gradientUnits="userSpaceOnUse">
<stop stop-color="#FF7A00"/>
<stop offset="1" stop-color="#FFA978"/>
</linearGradient>
<linearGradient id="paint19_linear_596_150331" x1="-189.097" y1="134.659" x2="1219.14" y2="134.659" gradientUnits="userSpaceOnUse">
<stop stop-color="#FF7A00"/>
<stop offset="1" stop-color="#FFA978"/>
</linearGradient>
<linearGradient id="paint20_linear_596_150331" x1="-192.916" y1="132.627" x2="1219.3" y2="132.627" gradientUnits="userSpaceOnUse">
<stop stop-color="#FF7A00"/>
<stop offset="1" stop-color="#FFA978"/>
</linearGradient>
<linearGradient id="paint21_linear_596_150331" x1="-196.67" y1="131.074" x2="1219.28" y2="131.074" gradientUnits="userSpaceOnUse">
<stop stop-color="#FF7A00"/>
<stop offset="1" stop-color="#FFA978"/>
</linearGradient>
<linearGradient id="paint22_linear_596_150331" x1="-200.471" y1="129.51" x2="1219.26" y2="129.51" gradientUnits="userSpaceOnUse">
<stop stop-color="#FF7A00"/>
<stop offset="1" stop-color="#FFA978"/>
</linearGradient>
<linearGradient id="paint23_linear_596_150331" x1="-204.315" y1="127.942" x2="1219.25" y2="127.942" gradientUnits="userSpaceOnUse">
<stop stop-color="#FF7A00"/>
<stop offset="1" stop-color="#FFA978"/>
</linearGradient>
<linearGradient id="paint24_linear_596_150331" x1="-208.234" y1="126.119" x2="1219.38" y2="126.119" gradientUnits="userSpaceOnUse">
<stop stop-color="#FF7A00"/>
<stop offset="1" stop-color="#FFA978"/>
</linearGradient>
<linearGradient id="paint25_linear_596_150331" x1="-212.149" y1="124.564" x2="1219.37" y2="124.564" gradientUnits="userSpaceOnUse">
<stop stop-color="#FF7A00"/>
<stop offset="1" stop-color="#FFA978"/>
</linearGradient>
<linearGradient id="paint26_linear_596_150331" x1="-216.088" y1="123.039" x2="1219.21" y2="123.039" gradientUnits="userSpaceOnUse">
<stop stop-color="#FF7A00"/>
<stop offset="1" stop-color="#FFA978"/>
</linearGradient>
</defs>
</svg>
