<svg width="1200" height="301" viewBox="0 0 1200 301" fill="none" xmlns="http://www.w3.org/2000/svg">
<path opacity="0.19" d="M1326.98 371.259C1242.83 604.616 1009.94 564.962 877.778 360.172C753.246 167.251 656.373 -66.8883 457.343 102.031C312.522 224.906 48.7145 189.361 -26.1094 131.967" stroke="url(#paint0_linear_596_150303)" stroke-miterlimit="10"/>
<path opacity="0.2212" d="M1328.94 361.215C1277.08 521.852 1148.5 558.31 1040.28 498.568C984.828 467.98 931.205 415.674 886.846 347.975C865.971 316.344 845.03 284.517 824.351 253.602C720.367 98.3137 627.996 -25.2128 462.496 114.749C426.878 144.816 384.215 165.295 338.42 176.773C193.861 212.905 28.2961 187.665 -26.1094 145.924" stroke="url(#paint1_linear_596_150303)" stroke-width="1.0192" stroke-miterlimit="10"/>
<path opacity="0.2523" d="M1330.9 351.171C1283.14 517.221 1147.65 555.505 1045.37 490.742C991.938 456.893 940.534 402.369 895.913 335.779C874.712 304.148 852.467 273.299 830.614 243.493C722.259 95.5745 632.236 -11.2557 467.584 127.467C431.575 157.729 388.52 178.078 341.812 187.926C192.295 219.427 26.1434 199.926 -26.1094 159.816" stroke="url(#paint2_linear_596_150303)" stroke-width="1.0385" stroke-miterlimit="10"/>
<path opacity="0.2835" d="M1332.85 341.193C1289.21 512.656 1146.67 552.44 1050.45 482.981C998.918 445.805 949.797 389.26 904.981 323.649C883.388 292.017 859.904 262.211 836.876 233.449C724.282 92.7701 636.541 2.76659 472.738 140.25C436.337 170.643 392.891 190.926 345.335 199.209C190.73 225.949 23.9254 212.253 -26.1094 173.838" stroke="url(#paint3_linear_596_150303)" stroke-width="1.0577" stroke-miterlimit="10"/>
<path opacity="0.3146" d="M1334.81 331.149C1295.28 508.025 1145.76 548.983 1055.54 475.219C1005.83 434.522 958.995 376.085 913.983 311.452C891.999 279.821 867.34 251.059 843.073 223.275C726.499 89.9003 640.781 16.6583 477.761 152.903C440.968 183.491 397.131 203.644 348.662 210.296C188.968 232.341 21.707 224.449 -26.2402 187.73" stroke="url(#paint4_linear_596_150303)" stroke-width="1.0769" stroke-miterlimit="10"/>
<path opacity="0.3458" d="M1336.77 321.105C1301.34 503.395 1144.78 545.266 1060.63 467.393C1012.75 423.044 968.192 362.911 923.05 299.256C900.674 267.625 874.842 239.906 849.335 213.166C728.912 87.0959 645.086 30.6155 482.913 165.621C445.73 196.339 401.436 216.362 352.184 221.514C187.336 238.732 19.5535 236.776 -26.1758 201.687" stroke="url(#paint5_linear_596_150303)" stroke-width="1.0962" stroke-miterlimit="10"/>
<path opacity="0.3769" d="M1338.72 311.061C1307.41 498.764 1143.93 541.222 1065.78 459.567C1019.66 411.434 977.455 349.736 932.182 286.995C909.35 255.428 882.474 228.688 855.663 202.991C731.587 84.1608 649.391 44.5071 488.067 178.338C450.492 209.253 405.806 229.079 355.641 232.667C185.64 244.928 17.4008 249.037 -26.1758 215.644" stroke="url(#paint6_linear_596_150303)" stroke-width="1.1154" stroke-miterlimit="10"/>
<path opacity="0.4081" d="M1340.68 301.083C1313.48 494.199 1143.22 536.983 1070.87 451.871C1026.64 399.825 986.654 336.627 941.251 274.929C918.028 243.363 890.107 217.666 861.926 193.013C734.393 81.2914 653.959 58.9862 493.222 191.187C455.32 222.362 410.113 241.863 359.165 244.015C184.011 251.32 15.2492 261.429 -26.1094 229.732" stroke="url(#paint7_linear_596_150303)" stroke-width="1.1346" stroke-miterlimit="10"/>
<path opacity="0.4392" d="M1342.64 291.039C1319.55 489.568 1142.69 532.352 1075.96 444.045C1033.62 387.955 995.787 323.453 950.319 262.733C926.704 231.167 897.74 206.514 868.189 182.839C737.394 78.226 658.264 72.878 498.375 203.84C460.082 235.145 414.418 254.515 362.622 255.102C182.249 257.32 13.0965 273.625 -26.1094 243.559" stroke="url(#paint8_linear_596_150303)" stroke-width="1.1538" stroke-miterlimit="10"/>
<path opacity="0.4704" d="M1344.6 280.995C1325.61 484.937 1142.3 527.591 1081.05 436.218C1040.67 375.955 1004.98 310.278 959.386 250.472C935.315 218.97 905.437 195.23 874.451 172.664C740.525 74.9648 662.57 86.8349 503.463 216.492C464.844 247.993 418.659 267.037 366.08 266.255C180.488 263.45 10.8785 285.951 -26.1094 257.581" stroke="url(#paint9_linear_596_150303)" stroke-width="1.1731" stroke-miterlimit="10"/>
<path opacity="0.5015" d="M1346.55 270.951C1331.68 480.307 1142.04 522.634 1086.2 428.457C1047.91 363.889 1014.18 297.169 968.454 238.341C943.991 206.84 913.135 184.143 880.714 162.621C743.787 71.7693 666.875 100.857 508.617 229.275C469.607 260.972 422.964 279.756 369.537 277.538C178.727 269.516 8.72578 298.278 -26.1094 271.538" stroke="url(#paint10_linear_596_150303)" stroke-width="1.1923" stroke-miterlimit="10"/>
<path opacity="0.5327" d="M1348.51 260.972C1337.75 475.806 1142.04 517.678 1091.29 420.696C1055.22 351.758 1023.32 284.06 977.521 226.21C952.667 194.774 920.833 172.925 886.976 152.577C747.179 68.4429 671.181 114.879 513.705 242.123C474.303 273.951 427.269 292.473 372.994 288.821C176.965 275.581 6.50781 310.604 -26.1094 285.56" stroke="url(#paint11_linear_596_150303)" stroke-width="1.2115" stroke-miterlimit="10"/>
<path opacity="0.5638" d="M1350.47 250.928C1343.81 471.176 1142.17 512.525 1096.38 412.869C1062.65 339.497 1032.45 270.951 986.589 213.949C961.278 182.513 928.596 161.577 893.239 142.337C750.636 64.7255 675.486 128.771 518.859 254.711C479.066 286.734 431.575 304.996 376.452 299.909C175.204 281.386 4.35508 322.801 -26.1094 299.452" stroke="url(#paint12_linear_596_150303)" stroke-width="1.2308" stroke-miterlimit="10"/>
<path opacity="0.595" d="M1352.42 240.884C1349.88 466.545 1142.5 507.373 1101.47 405.108C1070.22 327.301 1041.58 257.842 995.655 201.818C969.888 170.447 936.357 150.359 899.5 132.293C754.223 61.0731 679.725 142.728 523.946 267.494C483.761 299.648 435.814 317.583 379.908 311.126C173.507 287.256 2.13594 335.127 -26.1758 313.409" stroke="url(#paint13_linear_596_150303)" stroke-width="1.25" stroke-miterlimit="10"/>
<path opacity="0.6262" d="M1354.38 230.84C1355.94 461.915 1143.02 502.155 1106.55 397.282C1077.98 314.974 1050.71 244.667 1004.72 189.621C978.564 158.251 944.12 139.011 905.763 122.184C757.811 57.2903 684.031 156.751 529.099 280.212C488.523 312.561 440.12 330.17 383.366 322.344C171.745 293.06 -0.0167979 347.388 -26.1758 327.366" stroke="url(#paint14_linear_596_150303)" stroke-width="1.2692" stroke-miterlimit="10"/>
<path opacity="0.6573" d="M1356.34 220.797C1362.01 457.284 1143.67 497.003 1111.71 389.455C1085.87 302.648 1059.91 231.558 1013.86 177.36C987.241 146.055 952.014 127.532 912.091 111.945C761.53 53.1815 688.337 170.577 534.318 292.865C493.351 325.344 444.556 342.693 386.954 333.432C170.18 298.669 -2.10391 359.585 -26.0449 341.258" stroke="url(#paint15_linear_596_150303)" stroke-width="1.2885" stroke-miterlimit="10"/>
<path opacity="0.6885" d="M1358.29 210.818C1368.08 452.719 1144.46 491.916 1116.8 381.759C1093.9 290.517 1068.98 218.514 1022.86 165.295C995.786 134.054 959.711 116.249 918.287 101.966C765.182 49.2031 692.576 184.665 539.341 305.713C497.982 338.388 448.73 355.345 390.28 344.78C168.418 304.539 -4.3875 372.042 -26.1758 355.345" stroke="url(#paint16_linear_596_150303)" stroke-width="1.3077" stroke-miterlimit="10"/>
<path opacity="0.7196" d="M1360.25 200.774C1374.15 448.088 1145.3 486.829 1121.89 373.933C1102.05 278.256 1078.11 205.405 1031.93 153.098C1004.4 121.923 967.541 104.771 924.551 91.857C768.771 44.8987 696.818 198.557 544.496 318.366C502.746 351.171 453.102 367.802 393.804 355.867C166.789 310.148 -6.53906 384.238 -26.1094 369.172" stroke="url(#paint17_linear_596_150303)" stroke-width="1.3269" stroke-miterlimit="10"/>
<path opacity="0.7508" d="M1362.21 190.73C1380.21 443.458 1146.28 481.807 1126.97 366.107C1110.27 265.994 1087.18 192.296 1040.99 140.837C1013.01 109.727 975.302 93.2266 930.812 81.6827C772.423 40.5289 701.057 212.449 549.583 331.084C507.441 364.085 457.341 380.39 397.195 367.085C165.091 315.822 -8.7582 396.499 -26.1758 383.194" stroke="url(#paint18_linear_596_150303)" stroke-width="1.3462" stroke-miterlimit="10"/>
<path opacity="0.7819" d="M1364.17 180.686C1386.28 438.827 1147.33 476.85 1132.06 358.345C1118.62 253.863 1096.31 179.252 1050.06 128.706C1021.62 97.6614 983.132 81.7477 937.076 71.5734C776.013 36.0938 705.364 226.406 554.738 343.801C512.205 376.933 461.713 392.912 400.719 378.303C163.527 321.431 -10.8445 408.826 -26.1094 397.151" stroke="url(#paint19_linear_596_150303)" stroke-width="1.3654" stroke-miterlimit="10"/>
<path opacity="0.8131" d="M1366.12 170.708C1392.35 434.261 1148.5 472.024 1137.22 350.584C1127.1 241.797 1105.45 166.208 1059.19 116.51C1030.3 85.5306 990.96 70.1387 943.404 61.4645C779.666 31.5285 709.473 240.037 559.891 356.585C516.902 389.847 466.084 405.499 404.177 389.521C161.896 327.04 -13.0625 421.087 -26.1094 411.108" stroke="url(#paint20_linear_596_150303)" stroke-width="1.3846" stroke-miterlimit="10"/>
<path opacity="0.8442" d="M1368.08 160.664C1398.41 429.696 1149.67 467.263 1142.3 342.758C1135.58 229.667 1114.51 153.098 1068.2 104.314C1038.84 73.3997 998.657 58.5296 949.601 51.3554C783.058 26.8979 713.648 253.994 564.979 369.302C521.598 402.695 470.389 418.022 407.634 400.738C160.33 332.649 -15.2152 433.479 -26.1094 425.065" stroke="url(#paint21_linear_596_150303)" stroke-width="1.4038" stroke-miterlimit="10"/>
<path opacity="0.8754" d="M1370.04 150.62C1404.48 425.065 1150.91 462.502 1147.39 334.997C1144.2 217.666 1123.58 140.054 1077.26 92.183C1047.45 61.3339 1006.42 46.9855 955.798 41.2462C786.385 22.202 717.889 267.951 570.068 382.02C526.295 415.608 474.695 430.479 411.091 411.891C158.765 338.127 -17.4332 445.675 -26.1094 439.022" stroke="url(#paint22_linear_596_150303)" stroke-width="1.4231" stroke-miterlimit="10"/>
<path opacity="0.9065" d="M1371.99 140.576C1410.55 420.435 1152.15 457.871 1152.48 327.17C1152.81 205.731 1132.65 127.01 1086.33 79.9217C1056.06 49.1379 1014.12 35.2461 962.061 31.072C789.777 17.3106 722.129 281.842 575.156 394.673C530.992 428.392 479 442.936 414.483 423.044C157.134 343.541 -19.6516 457.936 -26.2402 452.914" stroke="url(#paint23_linear_596_150303)" stroke-width="1.4423" stroke-miterlimit="10"/>
<path opacity="0.9377" d="M1373.95 130.597C1416.61 415.869 1153.46 453.371 1157.63 319.409C1161.55 193.796 1141.78 113.966 1095.46 67.7907C1064.67 37.1373 1021.95 23.6368 968.388 21.028C793.104 12.5494 726.499 295.865 580.374 407.456C535.819 441.37 483.436 455.523 418.071 434.261C155.764 349.084 -21.7387 470.263 -26.1094 466.871" stroke="url(#paint24_linear_596_150303)" stroke-width="1.4615" stroke-miterlimit="10"/>
<path opacity="0.9688" d="M1375.91 120.554C1422.68 411.239 1154.76 448.871 1162.72 311.648C1170.22 181.991 1150.78 101.053 1104.53 55.6599C1073.22 25.1369 1029.64 11.9625 974.65 10.9842C796.299 7.7232 730.804 309.887 585.462 420.304C540.515 454.349 487.741 468.045 421.462 445.61C154.328 354.237 -23.9578 482.655 -26.1758 481.024" stroke="url(#paint25_linear_596_150303)" stroke-width="1.4808" stroke-miterlimit="10"/>
<path d="M1377.86 110.51C1428.75 406.608 1156.07 444.436 1167.81 303.822C1186.6 78.5521 1119.54 -0.690146 980.912 0.809912C742.546 3.35349 706.21 556.614 424.92 456.697C152.697 360.041 -26.1758 494.851 -26.1758 494.851" stroke="url(#paint26_linear_596_150303)" stroke-width="1.5" stroke-miterlimit="10"/>
<defs>
<linearGradient id="paint0_linear_596_150303" x1="-26.3398" y1="287.25" x2="1327.29" y2="287.25" gradientUnits="userSpaceOnUse">
<stop stop-color="#FFA978"/>
<stop offset="1" stop-color="#FF7A00"/>
</linearGradient>
<linearGradient id="paint1_linear_596_150303" x1="-26.3271" y1="289.656" x2="1329.27" y2="289.656" gradientUnits="userSpaceOnUse">
<stop stop-color="#FFA978"/>
<stop offset="1" stop-color="#FF7A00"/>
</linearGradient>
<linearGradient id="paint2_linear_596_150303" x1="-26.3163" y1="291.816" x2="1331.24" y2="291.816" gradientUnits="userSpaceOnUse">
<stop stop-color="#FFA978"/>
<stop offset="1" stop-color="#FF7A00"/>
</linearGradient>
<linearGradient id="paint3_linear_596_150303" x1="-26.3004" y1="293.62" x2="1333.06" y2="293.62" gradientUnits="userSpaceOnUse">
<stop stop-color="#FFA978"/>
<stop offset="1" stop-color="#FF7A00"/>
</linearGradient>
<linearGradient id="paint4_linear_596_150303" x1="-26.2884" y1="295.132" x2="1335.03" y2="295.132" gradientUnits="userSpaceOnUse">
<stop stop-color="#FFA978"/>
<stop offset="1" stop-color="#FF7A00"/>
</linearGradient>
<linearGradient id="paint5_linear_596_150303" x1="-26.2803" y1="296.231" x2="1337.01" y2="296.231" gradientUnits="userSpaceOnUse">
<stop stop-color="#FFA978"/>
<stop offset="1" stop-color="#FF7A00"/>
</linearGradient>
<linearGradient id="paint6_linear_596_150303" x1="-26.2767" y1="296.847" x2="1339" y2="296.847" gradientUnits="userSpaceOnUse">
<stop stop-color="#FF7A00"/>
<stop offset="1" stop-color="#FFA978"/>
</linearGradient>
<linearGradient id="paint7_linear_596_150303" x1="-26.2236" y1="296.906" x2="1340.76" y2="296.906" gradientUnits="userSpaceOnUse">
<stop stop-color="#FF7A00"/>
<stop offset="1" stop-color="#FFA978"/>
</linearGradient>
<linearGradient id="paint8_linear_596_150303" x1="-26.217" y1="296.322" x2="1342.74" y2="296.322" gradientUnits="userSpaceOnUse">
<stop stop-color="#FF7A00"/>
<stop offset="1" stop-color="#FFA978"/>
</linearGradient>
<linearGradient id="paint9_linear_596_150303" x1="-26.2219" y1="295.024" x2="1344.74" y2="295.024" gradientUnits="userSpaceOnUse">
<stop stop-color="#FF7A00"/>
<stop offset="1" stop-color="#FFA978"/>
</linearGradient>
<linearGradient id="paint10_linear_596_150303" x1="-26.2504" y1="292.956" x2="1346.77" y2="292.956" gradientUnits="userSpaceOnUse">
<stop stop-color="#FF7A00"/>
<stop offset="1" stop-color="#FFA978"/>
</linearGradient>
<linearGradient id="paint11_linear_596_150303" x1="-26.0408" y1="289.998" x2="1348.3" y2="289.998" gradientUnits="userSpaceOnUse">
<stop stop-color="#FF7A00"/>
<stop offset="1" stop-color="#FFA978"/>
</linearGradient>
<linearGradient id="paint12_linear_596_150303" x1="-26.1601" y1="286.375" x2="1350.5" y2="286.375" gradientUnits="userSpaceOnUse">
<stop stop-color="#FF7A00"/>
<stop offset="1" stop-color="#FFA978"/>
</linearGradient>
<linearGradient id="paint13_linear_596_150303" x1="531.433" y1="214.578" x2="531.433" y2="214.578" gradientUnits="userSpaceOnUse">
<stop stop-color="#FF7A00"/>
<stop offset="1" stop-color="#FFA978"/>
</linearGradient>
<linearGradient id="paint14_linear_596_150303" x1="1354.42" y1="276.92" x2="-26.162" y2="276.92" gradientUnits="userSpaceOnUse">
<stop stop-color="#FF7A00"/>
<stop offset="1" stop-color="#FFA978"/>
</linearGradient>
<linearGradient id="paint15_linear_596_150303" x1="1356.29" y1="271.308" x2="-25.9843" y2="271.308" gradientUnits="userSpaceOnUse">
<stop stop-color="#FF7A00"/>
<stop offset="1" stop-color="#FFA978"/>
</linearGradient>
<linearGradient id="paint16_linear_596_150303" x1="1358.79" y1="265.204" x2="-26.2966" y2="265.204" gradientUnits="userSpaceOnUse">
<stop stop-color="#FF7A00"/>
<stop offset="1" stop-color="#FFA978"/>
</linearGradient>
<linearGradient id="paint17_linear_596_150303" x1="1361.01" y1="258.733" x2="-26.2412" y2="258.733" gradientUnits="userSpaceOnUse">
<stop stop-color="#FF7A00"/>
<stop offset="1" stop-color="#FFA978"/>
</linearGradient>
<linearGradient id="paint18_linear_596_150303" x1="1363.34" y1="251.95" x2="-26.213" y2="251.95" gradientUnits="userSpaceOnUse">
<stop stop-color="#FF7A00"/>
<stop offset="1" stop-color="#FFA978"/>
</linearGradient>
<linearGradient id="paint19_linear_596_150303" x1="1365.77" y1="244.916" x2="-26.1952" y2="244.916" gradientUnits="userSpaceOnUse">
<stop stop-color="#FF7A00"/>
<stop offset="1" stop-color="#FFA978"/>
</linearGradient>
<linearGradient id="paint20_linear_596_150303" x1="1368.37" y1="237.632" x2="-26.3539" y2="237.632" gradientUnits="userSpaceOnUse">
<stop stop-color="#FF7A00"/>
<stop offset="1" stop-color="#FFA978"/>
</linearGradient>
<linearGradient id="paint21_linear_596_150303" x1="1370.94" y1="237.526" x2="-26.3367" y2="237.526" gradientUnits="userSpaceOnUse">
<stop stop-color="#FF7A00"/>
<stop offset="1" stop-color="#FFA978"/>
</linearGradient>
<linearGradient id="paint22_linear_596_150303" x1="1373.57" y1="239.75" x2="-26.3257" y2="239.75" gradientUnits="userSpaceOnUse">
<stop stop-color="#FF7A00"/>
<stop offset="1" stop-color="#FFA978"/>
</linearGradient>
<linearGradient id="paint23_linear_596_150303" x1="1376.26" y1="241.879" x2="-26.3197" y2="241.879" gradientUnits="userSpaceOnUse">
<stop stop-color="#FF7A00"/>
<stop offset="1" stop-color="#FFA978"/>
</linearGradient>
<linearGradient id="paint24_linear_596_150303" x1="1379.05" y1="243.883" x2="-26.4471" y2="243.883" gradientUnits="userSpaceOnUse">
<stop stop-color="#FF7A00"/>
<stop offset="1" stop-color="#FFA978"/>
</linearGradient>
<linearGradient id="paint25_linear_596_150303" x1="1381.84" y1="245.87" x2="-26.4426" y2="245.87" gradientUnits="userSpaceOnUse">
<stop stop-color="#FF7A00"/>
<stop offset="1" stop-color="#FFA978"/>
</linearGradient>
<linearGradient id="paint26_linear_596_150303" x1="1384.69" y1="247.748" x2="-26.4369" y2="247.748" gradientUnits="userSpaceOnUse">
<stop stop-color="#FF7A00"/>
<stop offset="1" stop-color="#FFA978"/>
</linearGradient>
</defs>
</svg>
