<svg xmlns="http://www.w3.org/2000/svg" width="1000" height="1000" id="empty" style=""><rect width="1000" height="1000" x="0" y="0" fill="#030504" transform="matrix(1,0,0,1,0,0)"></rect><g id="logo" transform="matrix(1,0,0,1,0,0)"><g id="brand" fill="#f60102" transform="matrix(11.340078844142932,0,0,11.340072458730196,6.134801985028597e-14,1.3172550548864935e-12)"><g transform="matrix(1,0,0,1,7.867813305750811e-8,-9.198189308605712e-7)"><path id="text" transform="matrix(1 0 0 1 -5.28 61.728)" d="M54.60340687754177 13.227429168667122L44.139406877541774 13.227429168667122C39.083406877541776 13.227429168667122 35.17940687754177 11.883429168667123 32.42740687754177 9.195429168667122C29.67540687754177 6.507429168667122 28.299406877541774 2.6354291686671214 28.299406877541774 -2.4205708313328778L28.299406877541774 -32.852570831332876C28.299406877541774 -37.90857083133288 29.67540687754177 -41.78057083133288 32.42740687754177 -44.468570831332876C35.17940687754177 -47.15657083133288 39.083406877541776 -48.50057083133288 44.139406877541774 -48.50057083133288L54.60340687754177 -48.50057083133288C59.59540687754178 -48.50057083133288 63.48340687754177 -47.14057083133288 66.26740687754177 -44.42057083133288C69.05140687754177 -41.700570831332875 70.44340687754178 -37.84457083133288 70.44340687754178 -32.852570831332876L70.44340687754178 -28.340570831332876C70.44340687754178 -26.932570831332875 69.73940687754177 -26.22857083133288 68.33140687754177 -26.22857083133288L60.267406877541774 -26.22857083133288C58.92340687754178 -26.22857083133288 58.25140687754177 -26.932570831332875 58.25140687754177 -28.340570831332876L58.25140687754177 -32.276570831332876C58.25140687754177 -34.32457083133288 57.819406877541766 -35.78057083133288 56.955406877541776 -36.64457083133288C56.09140687754177 -37.508570831332875 54.63540687754177 -37.94057083133288 52.587406877541774 -37.94057083133288L46.059406877541775 -37.94057083133288C44.075406877541774 -37.94057083133288 42.651406877541774 -37.508570831332875 41.78740687754177 -36.64457083133288C40.92340687754177 -35.78057083133288 40.49140687754178 -34.32457083133288 40.49140687754178 -32.276570831332876L40.49140687754178 -2.9965708313328783C40.49140687754178 -0.9485708313328782 40.92340687754177 0.5074291686671213 41.78740687754177 1.371429168667122C42.651406877541774 2.235429168667121 44.075406877541774 2.6674291686671214 46.059406877541775 2.6674291686671214L52.587406877541774 2.6674291686671214C54.63540687754177 2.6674291686671214 56.09140687754177 2.235429168667121 56.955406877541776 1.371429168667122C57.819406877541766 0.5074291686671213 58.25140687754177 -0.9485708313328782 58.25140687754177 -2.9965708313328783L58.25140687754177 -6.932570831332878C58.25140687754177 -8.34057083133288 58.92340687754178 -9.044570831332877 60.267406877541774 -9.044570831332877L68.33140687754177 -9.044570831332877C69.73940687754177 -9.044570831332877 70.44340687754178 -8.34057083133288 70.44340687754178 -6.932570831332878L70.44340687754178 -2.4205708313328778C70.44340687754178 2.5714291686671213 69.05140687754177 6.427429168667122 66.26740687754177 9.147429168667122C63.48340687754177 11.867429168667122 59.59540687754178 13.227429168667122 54.60340687754177 13.227429168667122Z "></path></g></g></g></svg>