<?xml version="1.0" encoding="UTF-8"?>
<svg xmlns="http://www.w3.org/2000/svg" width="50" height="50" viewBox="0 0 50 50" fill="none">
  <path fill-rule="evenodd" clip-rule="evenodd" d="M41.053 26.5483L39.4924 26.4728C39.5034 26.2438 39.509 26.0132 39.509 25.7812C39.509 25.5493 39.5034 25.3187 39.4924 25.0897L41.053 25.0142C41.0653 25.2684 41.0715 25.5241 41.0715 25.7812C41.0715 26.0384 41.0653 26.2941 41.053 26.5483ZM40.9044 23.4877L39.3585 23.7151C39.291 23.2563 39.2014 22.8049 39.0908 22.3619L40.6067 21.9833C40.7298 22.476 40.8294 22.9778 40.9044 23.4877ZM40.1621 20.5157L38.691 21.0422C38.5353 20.6073 38.3588 20.1822 38.1627 19.7682L39.5747 19.0992C39.7928 19.5594 39.989 20.0321 40.1621 20.5157ZM38.8507 17.7474L37.5112 18.5519C37.2738 18.1566 37.0174 17.7738 36.7433 17.4048L37.9976 16.473C38.302 16.8829 38.5868 17.3081 38.8507 17.7474ZM37.024 15.2881L35.8666 16.3378C35.5572 15.9966 35.2312 15.6706 34.89 15.3612L35.9396 14.2037C36.3185 14.5473 36.6805 14.9093 37.024 15.2881ZM34.7547 13.2302L33.823 14.4845C33.454 14.2104 33.0712 13.954 32.6759 13.7166L33.4804 12.3771C33.9197 12.641 34.3449 12.9258 34.7547 13.2302ZM32.1286 11.6531L31.4596 13.0651C31.0456 12.8689 30.6205 12.6925 30.1856 12.5368L30.7121 11.0657C31.1957 11.2388 31.6683 11.435 32.1286 11.6531ZM29.2445 10.621L28.8659 12.137C28.4229 12.0264 27.9715 11.9367 27.5127 11.8693L27.7401 10.3234C28.2499 10.3984 28.7518 10.498 29.2445 10.621ZM26.2135 10.1747L26.1381 11.7354C25.9091 11.7244 25.6785 11.7188 25.4465 11.7188C25.2145 11.7188 24.984 11.7244 24.755 11.7354L24.6795 10.1747C24.9337 10.1625 25.1894 10.1562 25.4465 10.1562C25.7037 10.1562 25.9594 10.1625 26.2135 10.1747ZM23.153 10.3234L23.3804 11.8693C22.9216 11.9367 22.4702 12.0264 22.0272 12.137L21.6486 10.621C22.1412 10.498 22.6431 10.3984 23.153 10.3234ZM20.181 11.0657L20.7075 12.5368C20.2726 12.6925 19.8475 12.8689 19.4335 13.0651L18.7645 11.6531C19.2247 11.435 19.6973 11.2388 20.181 11.0657ZM17.4127 12.3771C16.9734 12.641 16.5481 12.9258 16.1383 13.2302L17.0701 14.4845C17.4391 14.2104 17.8219 13.954 18.2172 13.7166L17.4127 12.3771ZM14.9534 14.2037L16.0031 15.3612C15.6619 15.6706 15.3359 15.9966 15.0264 16.3378L13.869 15.2881C14.2126 14.9093 14.5745 14.5473 14.9534 14.2037ZM12.8955 16.473L14.1498 17.4048C13.8757 17.7738 13.6193 18.1566 13.3818 18.5519L12.0424 17.7474C12.3062 17.3081 12.5911 16.8829 12.8955 16.473ZM11.3184 19.0992L12.7304 19.7682C12.5342 20.1822 12.3577 20.6073 12.2021 21.0422L10.731 20.5157C10.904 20.0321 11.1003 19.5594 11.3184 19.0992ZM10.2863 21.9833L11.8023 22.3619C11.6917 22.8049 11.602 23.2563 11.5345 23.7151L9.98867 23.4877C10.0637 22.9778 10.1633 22.476 10.2863 21.9833ZM9.84003 25.0142C9.82775 25.2684 9.82153 25.5241 9.82153 25.7812C9.82153 26.0384 9.82775 26.2941 9.84003 26.5483L11.4007 26.4728C11.3896 26.2438 11.384 26.0132 11.384 25.7812C11.384 25.5493 11.3896 25.3187 11.4007 25.0897L9.84003 25.0142ZM9.98867 28.0748L11.5345 27.8474C11.602 28.3062 11.6917 28.7576 11.8023 29.2006L10.2863 29.5792C10.1633 29.0865 10.0637 28.5847 9.98867 28.0748ZM10.731 31.0468L12.2021 30.5203C12.3577 30.9552 12.5342 31.3803 12.7304 31.7943L11.3184 32.4633C11.1003 32.0031 10.904 31.5304 10.731 31.0468ZM12.0424 33.8151C12.3062 34.2544 12.5911 34.6796 12.8955 35.0895L14.1498 34.1577C13.8757 33.7887 13.6193 33.4059 13.3818 33.0106L12.0424 33.8151ZM13.869 36.2744L15.0264 35.2247C15.3359 35.5659 15.6619 35.8919 16.0031 36.2013L14.9534 37.3588C14.5745 37.0152 14.2126 36.6532 13.869 36.2744ZM35.9397 37.3588L34.89 36.2013C35.2312 35.8919 35.5572 35.5659 35.8666 35.2247L37.024 36.2744C36.6805 36.6532 36.3185 37.0152 35.9397 37.3588ZM37.9976 35.0895L36.7433 34.1577C37.0174 33.7887 37.2738 33.4059 37.5112 33.0106L38.8507 33.8151C38.5868 34.2544 38.302 34.6796 37.9976 35.0895ZM39.5747 32.4633C39.7928 32.0031 39.989 31.5304 40.1621 31.0468L38.691 30.5203C38.5353 30.9552 38.3588 31.3803 38.1627 31.7943L39.5747 32.4633ZM40.6067 29.5792L39.0908 29.2006C39.2014 28.7576 39.291 28.3062 39.3585 27.8474L40.9044 28.0748C40.8294 28.5847 40.7298 29.0865 40.6067 29.5792Z" fill="#494B50"></path>
  <path d="M38.3929 45.5358C38.0215 42.8147 36.532 40.22 34.3422 38.2649C31.9638 36.1415 28.8226 34.8215 25.4484 34.8215C18.9151 34.8215 13.2617 39.4477 12.5 45.1498" stroke="#494B50" stroke-width="2"></path>
  <path d="M25.4465 44.4659C26.1861 44.4659 26.7857 43.8663 26.7857 43.1266C26.7857 42.387 26.1861 41.7874 25.4465 41.7874C24.7068 41.7874 24.1072 42.387 24.1072 43.1266C24.1072 43.8663 24.7068 44.4659 25.4465 44.4659Z" fill="#FF6300"></path>
  <path d="M25.4465 49.7754C26.1861 49.7754 26.7857 50.3698 26.7857 49.262C26.7857 48.1542 26.1861 47.2561 25.4465 47.2561C24.7068 47.2561 24.1072 48.1542 24.1072 49.262C24.1072 50.3698 24.7068 49.7754 25.4465 49.7754Z" fill="#FF6300"></path>
  <path d="M25.4465 38.9972C26.1861 38.9972 26.7857 38.3976 26.7857 37.6579C26.7857 36.9182 26.1861 36.3186 25.4465 36.3186C24.7068 36.3186 24.1072 36.9182 24.1072 37.6579C24.1072 38.3976 24.7068 38.9972 25.4465 38.9972Z" fill="#FF6300"></path>
  <path d="M25.4465 26.7857C26.1861 26.7857 26.7857 26.1861 26.7857 25.4465C26.7857 24.7068 26.1861 24.1072 25.4465 24.1072C24.7068 24.1072 24.1072 24.7068 24.1072 25.4465C24.1072 26.1861 24.7068 26.7857 25.4465 26.7857Z" fill="#FF6300"></path>
  <path fill-rule="evenodd" clip-rule="evenodd" d="M25.4464 30.2296C28.0881 30.2296 30.2296 28.0881 30.2296 25.4464C30.2296 22.8048 28.0881 20.6633 25.4464 20.6633C22.8048 20.6633 20.6633 22.8048 20.6633 25.4464C20.6633 28.0881 22.8048 30.2296 25.4464 30.2296ZM25.4464 32.1429C29.1448 32.1429 32.1429 29.1448 32.1429 25.4464C32.1429 21.7481 29.1448 18.75 25.4464 18.75C21.7481 18.75 18.75 21.7481 18.75 25.4464C18.75 29.1448 21.7481 32.1429 25.4464 32.1429Z" fill="#494B50"></path>
  <path fill-rule="evenodd" clip-rule="evenodd" d="M25 48.2143C37.8209 48.2143 48.2143 37.8209 48.2143 25C48.2143 12.1791 37.8209 1.78571 25 1.78571C12.1791 1.78571 1.78571 12.1791 1.78571 25C1.78571 37.8209 12.1791 48.2143 25 48.2143ZM25 50C38.8071 50 50 38.8071 50 25C50 11.1929 38.8071 0 25 0C11.1929 0 0 11.1929 0 25C0 38.8071 11.1929 50 25 50Z" fill="#494B50"></path>
</svg>
