<svg width="110" height="110" viewBox="0 0 110 110" fill="none" xmlns="http://www.w3.org/2000/svg">
<path d="M9.02295 16.7529H83.8801V71.9987H9.02295V16.7529Z" fill="#D0CECE"/>
<path d="M46.4515 36.5112L46.5338 36.5893L83.8801 71.9987H9.02295L46.4515 36.5112Z" fill="#DADADA"/>
<path d="M46.4515 52.2403L46.369 52.1622L9.02295 16.7534H83.8801L46.4515 52.2403Z" fill="#E8E8E9"/>
<path d="M79.8667 95.3614C75.2458 95.3614 70.7286 93.9911 66.8864 91.4238C63.0442 88.8565 60.0496 85.2076 58.2813 80.9383C56.513 76.6691 56.0504 71.9714 56.9519 67.4392C57.8535 62.9071 60.0788 58.744 63.3463 55.4766C66.6139 52.2091 70.777 49.984 75.3092 49.0826C79.8414 48.1812 84.5391 48.644 88.8082 50.4125C93.0774 52.181 96.7263 55.1757 99.2934 59.018C101.861 62.8602 103.231 67.3775 103.231 71.9984C103.223 78.1926 100.759 84.131 96.3794 88.5109C91.9994 92.8907 86.0609 95.3544 79.8667 95.3614Z" fill="#D0F5BC"/>
<path d="M92.4792 63.4469C91.7485 62.7175 90.6524 62.7175 89.9217 63.4469L76.2208 77.1234L70.5577 71.4705C69.827 70.7411 68.731 70.7411 68.0002 71.4705C67.2695 72.1999 67.2695 73.294 68.0002 74.0234L74.942 80.9528C75.3074 81.3175 75.6727 81.4999 76.2208 81.4999C76.7688 81.4999 77.1342 81.3175 77.4995 80.9528L92.4792 65.9999C93.2099 65.2705 93.2099 64.1763 92.4792 63.4469Z" fill="#31A267"/>
</svg>
