<?xml version="1.0" encoding="UTF-8"?>
<svg xmlns="http://www.w3.org/2000/svg" width="50" height="50" viewBox="0 0 50 50" fill="none">
  <path fill-rule="evenodd" clip-rule="evenodd" d="M0 26.9116H26.9116V3.24249e-05H0V26.9116ZM1.72414 25.1875V1.72417H25.1874V25.1875H1.72414Z" fill="#494B50"></path>
  <path fill-rule="evenodd" clip-rule="evenodd" d="M25.3485 48.2759C12.6867 48.2759 2.42238 38.0115 2.42238 25.3498C2.42238 12.6881 12.6867 2.42371 25.3485 2.42371C38.0102 2.42371 48.2745 12.6881 48.2745 25.3498C48.2745 38.0115 38.0102 48.2759 25.3485 48.2759ZM0.698242 25.3498C0.698242 38.9637 11.7345 50 25.3485 50C38.9624 50 49.9987 38.9637 49.9987 25.3498C49.9987 11.7358 38.9624 0.69957 25.3485 0.69957C11.7345 0.69957 0.698242 11.7358 0.698242 25.3498Z" fill="#494B50"></path>
  <path fill-rule="evenodd" clip-rule="evenodd" d="M27.986 48.5826C28.2718 48.5949 28.5592 48.6011 28.8479 48.6011C29.1366 48.6011 29.4239 48.5949 29.7097 48.5826L29.6357 46.86C29.3745 46.8713 29.1119 46.8769 28.8479 46.8769C28.5839 46.8769 28.3212 46.8713 28.0601 46.86L27.986 48.5826ZM24.5716 48.1368C25.129 48.2598 25.6952 48.3593 26.2691 48.4342L26.4921 46.7245C25.9683 46.6562 25.4517 46.5654 24.9433 46.4532L24.5716 48.1368ZM31.4267 48.4342C32.0005 48.3593 32.5667 48.2598 33.1241 48.1368L32.7525 46.4532C32.244 46.5654 31.7274 46.6562 31.2037 46.7245L31.4267 48.4342ZM21.2866 47.1019C21.8154 47.3212 22.3558 47.5182 22.9066 47.6917L23.4246 46.0472C22.9223 45.889 22.4294 45.7093 21.947 45.5093L21.2866 47.1019ZM34.7891 47.6917C35.34 47.5182 35.8804 47.3212 36.4092 47.1019L35.7487 45.5093C35.2664 45.7093 34.7735 45.889 34.2711 46.0472L34.7891 47.6917ZM18.2329 45.5093C18.7162 45.8178 19.2139 46.1059 19.7247 46.3723L20.5221 44.8437C20.056 44.6006 19.6018 44.3376 19.1607 44.056L18.2329 45.5093ZM37.9711 46.3723C38.4819 46.1059 38.9795 45.8178 39.4628 45.5093L38.5351 44.056C38.0939 44.3376 37.6398 44.6006 37.1737 44.8437L37.9711 46.3723ZM15.503 43.4116C15.9262 43.7996 16.3664 44.1694 16.8223 44.5198L17.8729 43.1526C17.4566 42.8327 17.0546 42.4951 16.6681 42.1407L15.503 43.4116ZM40.8734 44.5197C41.3294 44.1694 41.7696 43.7996 42.1927 43.4116L41.0276 42.1407C40.6411 42.4951 40.2392 42.8327 39.8229 43.1526L40.8734 44.5197ZM13.1765 40.874C13.5269 41.3299 13.8967 41.7701 14.2847 42.1933L15.5556 41.0281C15.2012 40.6417 14.8635 40.2397 14.5436 39.8234L13.1765 40.874ZM43.4111 42.1933C43.799 41.7701 44.1688 41.3299 44.5192 40.874L43.1521 39.8234C42.8322 40.2397 42.4945 40.6417 42.1402 41.0281L43.4111 42.1933ZM11.3239 37.9716C11.5904 38.4824 11.8785 38.9801 12.187 39.4633L13.6403 38.5356C13.3587 38.0945 13.0957 37.6403 12.8526 37.1742L11.3239 37.9716ZM45.5087 39.4633C45.8173 38.9801 46.1054 38.4824 46.3718 37.9716L44.8431 37.1742C44.6 37.6403 44.3371 38.0945 44.0555 38.5356L45.5087 39.4633ZM10.0046 34.7897C10.1781 35.3405 10.3751 35.8809 10.5944 36.4097L12.187 35.7493C11.987 35.2669 11.8073 34.774 11.6491 34.2716L10.0046 34.7897ZM47.1014 36.4097C47.3206 35.8809 47.5176 35.3405 47.6911 34.7897L46.0467 34.2716C45.8884 34.774 45.7087 35.2669 45.5087 35.7493L47.1014 36.4097ZM9.26213 31.4272C9.33698 32.0011 9.43648 32.5673 9.55953 33.1247L11.2431 32.753C11.1309 32.2446 11.0401 31.728 10.9718 31.2042L9.26213 31.4272ZM48.1362 33.1247C48.2593 32.5673 48.3588 32.0011 48.4336 31.4272L46.724 31.2042C46.6556 31.728 46.5649 32.2446 46.4526 32.753L48.1362 33.1247ZM9.09521 28.8484C9.09521 29.1371 9.10141 29.4244 9.11369 29.7102L10.8362 29.6362C10.825 29.3751 10.8194 29.1124 10.8194 28.8484C10.8194 28.5844 10.825 28.3217 10.8362 28.0606L9.11369 27.9866C9.10141 28.2724 9.09521 28.5597 9.09521 28.8484ZM48.5821 29.7102C48.5943 29.4244 48.6005 29.1371 48.6005 28.8484C48.6005 28.5597 48.5943 28.2724 48.5821 27.9866L46.8595 28.0606C46.8707 28.3217 46.8764 28.5844 46.8764 28.8484C46.8764 29.1124 46.8707 29.3751 46.8595 29.6362L48.5821 29.7102ZM9.55953 24.5721C9.43648 25.1296 9.33698 25.6958 9.26213 26.2696L10.9718 26.4926C11.0401 25.9689 11.1309 25.4523 11.2431 24.9438L9.55953 24.5721ZM48.4336 26.2696C48.3588 25.6958 48.2593 25.1296 48.1362 24.5721L46.4526 24.9438C46.5649 25.4523 46.6556 25.9689 46.724 26.4926L48.4336 26.2696ZM10.5944 21.2871C10.3751 21.8159 10.1781 22.3563 10.0046 22.9072L11.6491 23.4252C11.8073 22.9228 11.987 22.4299 12.187 21.9475L10.5944 21.2871ZM47.6911 22.9072C47.5176 22.3563 47.3206 21.8159 47.1014 21.2871L45.5087 21.9475C45.7087 22.4299 45.8884 22.9228 46.0467 23.4252L47.6911 22.9072ZM12.187 18.2335C11.8785 18.7168 11.5904 19.2144 11.3239 19.7252L12.8526 20.5226C13.0957 20.0565 13.3587 19.6024 13.6403 19.1612L12.187 18.2335ZM46.3718 19.7252C46.1054 19.2144 45.8173 18.7168 45.5087 18.2335L44.0555 19.1612C44.3371 19.6024 44.6 20.0565 44.8431 20.5226L46.3718 19.7252ZM14.2847 15.5035C13.8967 15.9267 13.5269 16.3669 13.1765 16.8228L14.5436 17.8734C14.8635 17.4571 15.2012 17.0552 15.5556 16.6687L14.2847 15.5035ZM44.5192 16.8228C44.1688 16.3669 43.799 15.9267 43.4111 15.5035L42.1402 16.6687C42.4945 17.0552 42.8322 17.4571 43.1521 17.8734L44.5192 16.8228ZM16.8223 13.1771C16.3664 13.5274 15.9262 13.8972 15.503 14.2852L16.6681 15.5561C17.0546 15.2018 17.4566 14.8641 17.8729 14.5442L16.8223 13.1771ZM42.1927 14.2852C41.7696 13.8972 41.3294 13.5274 40.8734 13.1771L39.8229 14.5442C40.2392 14.8641 40.6411 15.2018 41.0276 15.5561L42.1927 14.2852ZM19.7247 11.3245C19.2139 11.5909 18.7162 11.879 18.2329 12.1876L19.1607 13.6408C19.6018 13.3592 20.056 13.0963 20.5221 12.8531L19.7247 11.3245ZM39.4628 12.1876C38.9795 11.879 38.4819 11.5909 37.9711 11.3245L37.1737 12.8531C37.6398 13.0963 38.0939 13.3592 38.5351 13.6408L39.4628 12.1876ZM22.9066 10.0051C22.3558 10.1787 21.8154 10.3757 21.2866 10.5949L21.947 12.1876C22.4294 11.9875 22.9223 11.8079 23.4246 11.6496L22.9066 10.0051ZM36.4092 10.5949C35.8804 10.3757 35.34 10.1787 34.7891 10.0051L34.2711 11.6496C34.7735 11.8079 35.2664 11.9875 35.7487 12.1876L36.4092 10.5949ZM26.2691 9.26267C25.6952 9.33752 25.129 9.43702 24.5716 9.56007L24.9433 11.2437C25.4517 11.1314 25.9683 11.0406 26.4921 10.9723L26.2691 9.26267ZM33.1241 9.56007C32.5667 9.43702 32.0005 9.33752 31.4267 9.26267L31.2037 10.9723C31.7274 11.0406 32.244 11.1314 32.7525 11.2437L33.1241 9.56007ZM28.8479 9.09576C28.5592 9.09576 28.2718 9.10196 27.986 9.11423L28.0601 10.8368C28.3212 10.8256 28.5838 10.8199 28.8479 10.8199C29.1119 10.8199 29.3745 10.8256 29.6357 10.8368L29.7097 9.11423C29.4239 9.10196 29.1366 9.09576 28.8479 9.09576Z" fill="#494B50"></path>
  <path fill-rule="evenodd" clip-rule="evenodd" d="M8.62158 26.7241C8.62158 16.1736 16.645 8.62064 26.7251 8.62064V26.7241H8.62158Z" fill="#494B50"></path>
  <path fill-rule="evenodd" clip-rule="evenodd" d="M26.7251 8.62064C26.1431 8.62064 25.568 8.64581 25.0009 8.69529C16.2891 9.45529 9.46612 15.9495 8.69436 25C8.64618 25.565 8.62158 26.14 8.62158 26.7241H26.7251V8.62064ZM25.0009 25H10.4256C11.1815 16.9342 17.221 11.1711 25.0009 10.4265V25Z" fill="#494B50"></path>
</svg>
