<?xml version="1.0" encoding="UTF-8"?>
<svg xmlns="http://www.w3.org/2000/svg" width="50" height="50" viewBox="0 0 50 50" fill="none">
  <path fill-rule="evenodd" clip-rule="evenodd" d="M0 26.9116H26.9116V3.24249e-05H0V26.9116ZM1.72414 25.1875V1.72417H25.1874V25.1875H1.72414Z" fill="#494B50"></path>
  <path fill-rule="evenodd" clip-rule="evenodd" d="M25.3485 48.2759C12.6867 48.2759 2.42238 38.0115 2.42238 25.3498C2.42238 12.6881 12.6867 2.42371 25.3485 2.42371C38.0102 2.42371 48.2745 12.6881 48.2745 25.3498C48.2745 38.0115 38.0102 48.2759 25.3485 48.2759ZM0.698242 25.3498C0.698242 38.9637 11.7345 50 25.3485 50C38.9624 50 49.9987 38.9637 49.9987 25.3498C49.9987 11.7358 38.9624 0.69957 25.3485 0.69957C11.7345 0.69957 0.698242 11.7358 0.698242 25.3498Z" fill="#494B50"></path>
  <path fill-rule="evenodd" clip-rule="evenodd" d="M27.9858 48.5826C28.2716 48.5949 28.5589 48.6011 28.8476 48.6011C29.1363 48.6011 29.4237 48.5949 29.7095 48.5826L29.6355 46.86C29.3743 46.8713 29.1117 46.8769 28.8476 46.8769C28.5836 46.8769 28.321 46.8713 28.0598 46.86L27.9858 48.5826ZM24.5714 48.1368C25.1288 48.2598 25.695 48.3593 26.2688 48.4342L26.4918 46.7245C25.9681 46.6562 25.4515 46.5654 24.943 46.4532L24.5714 48.1368ZM31.4264 48.4342C32.0003 48.3593 32.5665 48.2598 33.1239 48.1368L32.7522 46.4532C32.2438 46.5654 31.7272 46.6562 31.2034 46.7245L31.4264 48.4342ZM21.2863 47.1019C21.8151 47.3212 22.3555 47.5182 22.9064 47.6917L23.4244 46.0472C22.922 45.889 22.4291 45.7093 21.9468 45.5093L21.2863 47.1019ZM34.7889 47.6917C35.3397 47.5182 35.8801 47.3212 36.4089 47.1019L35.7485 45.5093C35.2661 45.7093 34.7732 45.889 34.2709 46.0472L34.7889 47.6917ZM18.2327 45.5093C18.716 45.8178 19.2136 46.1059 19.7244 46.3723L20.5218 44.8437C20.0558 44.6006 19.6016 44.3376 19.1604 44.056L18.2327 45.5093ZM37.9708 46.3723C38.4816 46.1059 38.9793 45.8178 39.4626 45.5093L38.5348 44.056C38.0937 44.3376 37.6395 44.6006 37.1734 44.8437L37.9708 46.3723ZM15.5028 43.4116C15.926 43.7996 16.3661 44.1694 16.8221 44.5198L17.8726 43.1526C17.4563 42.8327 17.0544 42.4951 16.6679 42.1407L15.5028 43.4116ZM40.8732 44.5197C41.3291 44.1694 41.7693 43.7996 42.1925 43.4116L41.0274 42.1407C40.6409 42.4951 40.2389 42.8327 39.8226 43.1526L40.8732 44.5197ZM13.1763 40.874C13.5267 41.3299 13.8965 41.7701 14.2844 42.1933L15.5553 41.0281C15.201 40.6417 14.8633 40.2397 14.5434 39.8234L13.1763 40.874ZM43.4108 42.1933C43.7988 41.7701 44.1686 41.3299 44.519 40.874L43.1519 39.8234C42.832 40.2397 42.4943 40.6417 42.1399 41.0281L43.4108 42.1933ZM11.3237 37.9716C11.5901 38.4824 11.8782 38.9801 12.1868 39.4633L13.64 38.5356C13.3584 38.0945 13.0955 37.6403 12.8524 37.1742L11.3237 37.9716ZM45.5085 39.4633C45.817 38.9801 46.1051 38.4824 46.3716 37.9716L44.8429 37.1742C44.5998 37.6403 44.3368 38.0945 44.0552 38.5356L45.5085 39.4633ZM10.0044 34.7897C10.1779 35.3405 10.3749 35.8809 10.5942 36.4097L12.1868 35.7493C11.9868 35.2669 11.8071 34.774 11.6488 34.2716L10.0044 34.7897ZM47.1011 36.4097C47.3204 35.8809 47.5174 35.3405 47.6909 34.7897L46.0464 34.2716C45.8882 34.774 45.7085 35.2669 45.5085 35.7493L47.1011 36.4097ZM9.26188 31.4272C9.33674 32.0011 9.43623 32.5673 9.55929 33.1247L11.2429 32.753C11.1306 32.2446 11.0399 31.728 10.9715 31.2042L9.26188 31.4272ZM48.136 33.1247C48.259 32.5673 48.3585 32.0011 48.4334 31.4272L46.7237 31.2042C46.6554 31.728 46.5646 32.2446 46.4524 32.753L48.136 33.1247ZM9.09497 28.8484C9.09497 29.1371 9.10117 29.4244 9.11345 29.7102L10.836 29.6362C10.8248 29.3751 10.8191 29.1124 10.8191 28.8484C10.8191 28.5844 10.8248 28.3217 10.836 28.0606L9.11345 27.9866C9.10117 28.2724 9.09497 28.5597 9.09497 28.8484ZM48.5818 29.7102C48.5941 29.4244 48.6003 29.1371 48.6003 28.8484C48.6003 28.5597 48.5941 28.2724 48.5818 27.9866L46.8593 28.0606C46.8705 28.3217 46.8761 28.5844 46.8761 28.8484C46.8761 29.1124 46.8705 29.3751 46.8593 29.6362L48.5818 29.7102ZM9.55929 24.5721C9.43623 25.1296 9.33674 25.6958 9.26188 26.2696L10.9715 26.4926C11.0399 25.9689 11.1306 25.4523 11.2429 24.9438L9.55929 24.5721ZM48.4334 26.2696C48.3585 25.6958 48.259 25.1296 48.136 24.5721L46.4524 24.9438C46.5646 25.4523 46.6554 25.9689 46.7237 26.4926L48.4334 26.2696ZM10.5942 21.2871C10.3749 21.8159 10.1779 22.3563 10.0044 22.9072L11.6488 23.4252C11.8071 22.9228 11.9868 22.4299 12.1868 21.9475L10.5942 21.2871ZM47.6909 22.9072C47.5174 22.3563 47.3204 21.8159 47.1011 21.2871L45.5085 21.9475C45.7085 22.4299 45.8882 22.9228 46.0464 23.4252L47.6909 22.9072ZM12.1868 18.2335C11.8782 18.7168 11.5901 19.2144 11.3237 19.7252L12.8524 20.5226C13.0955 20.0565 13.3584 19.6024 13.64 19.1612L12.1868 18.2335ZM46.3716 19.7252C46.1051 19.2144 45.817 18.7168 45.5085 18.2335L44.0552 19.1612C44.3368 19.6024 44.5998 20.0565 44.8429 20.5226L46.3716 19.7252ZM14.2844 15.5035C13.8965 15.9267 13.5267 16.3669 13.1763 16.8228L14.5434 17.8734C14.8633 17.4571 15.201 17.0552 15.5553 16.6687L14.2844 15.5035ZM44.519 16.8228C44.1686 16.3669 43.7988 15.9267 43.4108 15.5035L42.1399 16.6687C42.4943 17.0552 42.832 17.4571 43.1519 17.8734L44.519 16.8228ZM16.8221 13.1771C16.3661 13.5274 15.926 13.8972 15.5028 14.2852L16.6679 15.5561C17.0544 15.2018 17.4563 14.8641 17.8726 14.5442L16.8221 13.1771ZM42.1925 14.2852C41.7693 13.8972 41.3291 13.5274 40.8732 13.1771L39.8226 14.5442C40.2389 14.8641 40.6409 15.2018 41.0274 15.5561L42.1925 14.2852ZM19.7244 11.3245C19.2136 11.5909 18.716 11.879 18.2327 12.1876L19.1604 13.6408C19.6016 13.3592 20.0558 13.0963 20.5218 12.8531L19.7244 11.3245ZM39.4626 12.1876C38.9793 11.879 38.4816 11.5909 37.9708 11.3245L37.1734 12.8531C37.6395 13.0963 38.0937 13.3592 38.5348 13.6408L39.4626 12.1876ZM22.9064 10.0051C22.3555 10.1787 21.8151 10.3757 21.2863 10.5949L21.9468 12.1876C22.4291 11.9875 22.922 11.8079 23.4244 11.6496L22.9064 10.0051ZM36.4089 10.5949C35.8801 10.3757 35.3397 10.1787 34.7889 10.0051L34.2709 11.6496C34.7732 11.8079 35.2661 11.9875 35.7485 12.1876L36.4089 10.5949ZM26.2688 9.26267C25.695 9.33752 25.1288 9.43702 24.5714 9.56007L24.943 11.2437C25.4515 11.1314 25.9681 11.0406 26.4918 10.9723L26.2688 9.26267ZM33.1239 9.56007C32.5665 9.43702 32.0003 9.33752 31.4264 9.26267L31.2034 10.9723C31.7272 11.0406 32.2438 11.1314 32.7522 11.2437L33.1239 9.56007ZM28.8476 9.09576C28.5589 9.09576 28.2716 9.10196 27.9858 9.11423L28.0598 10.8368C28.321 10.8256 28.5836 10.8199 28.8476 10.8199C29.1117 10.8199 29.3743 10.8256 29.6354 10.8368L29.7095 9.11423C29.4237 9.10196 29.1363 9.09576 28.8476 9.09576Z" fill="#494B50"></path>
  <path fill-rule="evenodd" clip-rule="evenodd" d="M8.62134 26.7241C8.62134 16.1736 16.6447 8.62064 26.7248 8.62064V26.7241H8.62134Z" fill="#FF6300"></path>
  <path fill-rule="evenodd" clip-rule="evenodd" d="M26.7248 8.62064C26.1429 8.62064 25.5678 8.64581 25.0007 8.69529C16.2889 9.45529 9.46588 15.9495 8.69411 25C8.64593 25.565 8.62134 26.14 8.62134 26.7241H26.7248V8.62064ZM25.0007 25H10.4253C11.1813 16.9342 17.2208 11.1711 25.0007 10.4265V25Z" fill="#494B50"></path>
</svg>
