<svg aria-hidden="true" style="position: absolute; width: 0; height: 0; overflow: hidden;" version="1.1" xmlns="http://www.w3.org/2000/svg" xmlns:xlink="http://www.w3.org/1999/xlink">
<defs>
<symbol id="star" viewBox="0 0 33 32">
<path fill="" style="" d="M32.651 12.089c-0.212-0.655-0.793-1.121-1.481-1.183l-9.342-0.848-3.694-8.647c-0.272-0.634-0.893-1.044-1.582-1.044s-1.31 0.41-1.582 1.045l-3.694 8.645-9.344 0.848c-0.687 0.063-1.266 0.527-1.48 1.183s-0.016 1.374 0.503 1.827l7.062 6.193-2.082 9.173c-0.152 0.674 0.109 1.372 0.669 1.776 0.301 0.217 0.653 0.328 1.008 0.328 0.306 0 0.609-0.082 0.882-0.246l8.059-4.816 8.056 4.816c0.589 0.355 1.333 0.322 1.891-0.082 0.56-0.406 0.821-1.103 0.669-1.776l-2.082-9.173 7.062-6.192c0.519-0.454 0.718-1.172 0.505-1.829z"></path>
</symbol>
<symbol id="icon-icon-close-form" viewBox="0 0 29 32">
<path d="M28.417 6.572l-9.821 9.428 9.821 9.428c1.081 1.037 1.081 2.734 0 3.771s-2.848 1.037-3.928 0l-9.821-9.428-9.821 9.428c-1.080 1.037-2.848 1.037-3.928 0s-1.080-2.734 0-3.771l9.821-9.428-9.821-9.428c-1.080-1.037-1.080-2.734 0-3.771s2.848-1.037 3.928 0l9.821 9.428 9.821-9.428c1.080-1.037 2.848-1.037 3.928 0s1.081 2.734 0 3.771z"></path>
</symbol>
<symbol id="search" viewBox="0 0 30 32">
<path d="M10.5599 18.2399C14.8014 18.2399 18.2399 14.8014 18.2399 10.5599C18.2399 6.31834 14.8014 2.87988 10.5599 2.87988C6.31834 2.87988 2.87988 6.31834 2.87988 10.5599C2.87988 14.8014 6.31834 18.2399 10.5599 18.2399Z" stroke-width="1.6"/>
<path d="M16.2178 16.4639L21.1906 21.4367" stroke-width="1.6" stroke-linecap="round"/>
</symbol>
<symbol id="thanks" viewBox="0 0 32 32">
<path fill="none" stroke="#61bd18" style="#61bd18" stroke-linejoin="miter" stroke-linecap="butt" stroke-miterlimit="4" stroke-width="1.6" d="M31.2 16c0 8.395-6.805 15.2-15.2 15.2s-15.2-6.805-15.2-15.2c0-8.395 6.805-15.2 15.2-15.2s15.2 6.805 15.2 15.2z"></path>
<path fill="none" stroke="#61bd18" style="#61bd18" stroke-linejoin="miter" stroke-linecap="butt" stroke-miterlimit="4" stroke-width="1.561" d="M8.516 16.557l6.353 4.732 7.273-11.070"></path>
</symbol>
<symbol id="thanks-white" viewBox="0 0 32 32">
<path fill="none" stroke="#fff" style="stroke: var(--color1, #fff)" stroke-linejoin="miter" stroke-linecap="butt" stroke-miterlimit="4" stroke-width="1.7231" d="M30.769 16c0 8.157-6.612 14.769-14.769 14.769s-14.769-6.612-14.769-14.769c0-8.157 6.612-14.769 14.769-14.769s14.769 6.612 14.769 14.769z"></path>
<path fill="none" stroke="#fff" style="stroke: var(--color1, #fff)" stroke-linejoin="round" stroke-linecap="round" stroke-miterlimit="4" stroke-width="1.7231" d="M10.404 16.471l4.519 3.455 7.538-9.003"></path>
</symbol>
<symbol id="icon-twitter-blog" viewBox="0 0 32 32">
<path fill="#4aabe8" style="fill:#4aabe8" d="M16 0c-8.823 0-16 7.177-16 16s7.177 16 16 16c8.823 0 16-7.177 16-16s-7.177-16-16-16zM23.817 12.886c0.007 0.164 0.011 0.331 0.011 0.499 0 5.091-3.877 10.963-10.965 10.963-2.176 0-4.202-0.638-5.907-1.731 0.301 0.036 0.607 0.053 0.919 0.053 1.806 0 3.468-0.615 4.785-1.649-1.686-0.031-3.108-1.147-3.6-2.676 0.236 0.045 0.477 0.070 0.726 0.070 0.351 0 0.692-0.047 1.014-0.136-1.761-0.355-3.089-1.911-3.089-3.779 0-0.017 0-0.033 0-0.049 0.52 0.289 1.113 0.463 1.745 0.483-1.035-0.692-1.714-1.871-1.714-3.208 0-0.706 0.189-1.368 0.521-1.938 1.901 2.331 4.741 3.865 7.943 4.026-0.066-0.283-0.101-0.576-0.101-0.878 0-2.128 1.725-3.853 3.854-3.853 1.108 0 2.109 0.467 2.812 1.217 0.877-0.172 1.703-0.493 2.447-0.934-0.287 0.899-0.899 1.654-1.695 2.131 0.78-0.095 1.522-0.3 2.214-0.607-0.516 0.773-1.169 1.453-1.921 1.996z"></path>
</symbol>
<symbol id="icon-linkedin-blog" viewBox="0 0 32 32">
<path fill="#3375a4" style="fill: #3375a4" d="M16 0c-8.835 0-16 7.165-16 16s7.165 16 16 16c8.835 0 16-7.165 16-16s-7.165-16-16-16zM11.826 22.956c0 0.348-0.348 0.696-0.696 0.696h-2.783c-0.348 0-0.696-0.348-0.696-0.696v-10.435c0-0.348 0.348-0.696 0.696-0.696h2.783c0.348 0 0.696 0.348 0.696 0.696v10.435zM9.739 11.13c-1.113 0-2.087-0.974-2.087-2.087s0.974-2.087 2.087-2.087c1.113 0 2.087 0.974 2.087 2.087s-0.974 2.087-2.087 2.087zM25.044 22.956c0 0.348-0.348 0.696-0.696 0.696h-2.783c-0.348 0-0.696-0.348-0.696-0.696v-5.217c0-0.974-0.765-1.739-1.739-1.739s-1.739 0.765-1.739 1.739v5.217c0 0.348-0.348 0.696-0.696 0.696h-2.783c-0.348 0-0.696-0.348-0.696-0.696v-10.435c0-0.348 0.348-0.696 0.696-0.696h2.783c0.348 0 0.696 0.278 0.696 0.696 0.765-0.417 1.53-0.696 2.435-0.696 2.852 0 5.217 2.365 5.217 5.217v5.913z"></path>
</symbol>
<symbol id="icon-facebook-blog" viewBox="0 0 32 32">
<path fill="#405a93" style="fill:#405a93" d="M16 0c-8.836 0-16 7.2-16 16.082 0 8.063 5.909 14.72 13.609 15.883v-11.621h-3.959v-4.227h3.959v-2.813c0-4.657 2.258-6.702 6.108-6.702 1.844 0 2.82 0.137 3.281 0.2v3.69h-2.627c-1.635 0-2.206 1.558-2.206 3.314v2.311h4.791l-0.65 4.227h-4.141v11.655c7.809-1.065 13.834-7.776 13.834-15.918 0-8.882-7.164-16.082-16-16.082z"></path>
</symbol>

<symbol id="icon-sroll-top" viewBox="0 0 32 32">
<path  stroke-linejoin="miter" stroke-linecap="butt" stroke-miterlimit="4" stroke-width="0.9014" d="M31.099 15.82c0 8.463-6.861 15.324-15.324 15.324s-15.324-6.861-15.324-15.324c0-8.463 6.861-15.324 15.324-15.324s15.324 6.861 15.324 15.324z"></path>
<path fill="none" stroke="#fff" style="stroke:#fff" stroke-linejoin="miter" stroke-linecap="butt" stroke-miterlimit="4" stroke-width="0.9014" d="M11.268 13.566l4.507-4.507M15.775 9.059l4.507 4.507M15.775 9.059v13.897"></path>
</symbol>
<symbol id="" viewBox="0 0 32 32">
<path fill="#ffa166" style="fill:#ffa166; stroke:#ffa166" stroke="#ffa166" stroke-linejoin="miter" stroke-linecap="butt" stroke-miterlimit="4" stroke-width="0.9014" d="M31.099 15.82c0 8.463-6.861 15.324-15.324 15.324s-15.324-6.861-15.324-15.324c0-8.463 6.861-15.324 15.324-15.324s15.324 6.861 15.324 15.324z"></path>
<path fill="none" stroke="#fff" style="stroke:#fff" stroke-linejoin="miter" stroke-linecap="butt" stroke-miterlimit="4" stroke-width="0.9014" d="M11.268 13.566l4.507-4.507M15.775 9.059l4.507 4.507M15.775 9.059v13.897"></path>
</symbol>
<symbol id="banner-close" viewBox="0 0 32 32">
<path fill="" style="" d="M22.6 11.286l-4.714 4.714 4.714 4.714c0.519 0.519 0.519 1.367 0 1.886s-1.367 0.519-1.886 0l-4.714-4.714-4.714 4.714c-0.519 0.519-1.367 0.519-1.886 0s-0.519-1.367 0-1.886l4.714-4.714-4.714-4.714c-0.519-0.519-0.519-1.367 0-1.886s1.367-0.519 1.886 0l4.714 4.714 4.714-4.714c0.519-0.519 1.367-0.519 1.886 0s0.519 1.367 0 1.886z"></path>
</symbol>
</defs>
</svg>
