<svg width="20" height="20" viewBox="0 0 20 20" fill="none" xmlns="http://www.w3.org/2000/svg">
<rect width="20" height="20" fill="white" fill-opacity="0.01"/>
<path fill-rule="evenodd" clip-rule="evenodd" d="M9.99967 3.33325C6.32301 3.33325 3.33301 6.32325 3.33301 9.99992C3.33301 13.6766 6.32301 16.6666 9.99967 16.6666C13.6763 16.6666 16.6663 13.6766 16.6663 9.99992C16.6663 6.32325 13.6763 3.33325 9.99967 3.33325ZM9.99967 15.1849C8.62507 15.1832 7.30727 14.6363 6.33527 13.6643C5.36328 12.6923 4.81644 11.3745 4.81467 9.99992C4.81644 8.62531 5.36328 7.30751 6.33527 6.33552C7.30727 5.36352 8.62507 4.81668 9.99967 4.81492C11.3743 4.81668 12.6921 5.36352 13.6641 6.33552C14.6361 7.30751 15.1829 8.62531 15.1847 9.99992C15.1829 11.3745 14.6361 12.6923 13.6641 13.6643C12.6921 14.6363 11.3743 15.1832 9.99967 15.1849ZM10.7405 9.69325V7.03992C10.7405 6.63242 10.4072 6.29909 9.99967 6.29909C9.59217 6.29909 9.25884 6.63242 9.25884 7.04075V10.0033C9.25884 10.2099 9.34467 10.3958 9.48217 10.5308L11.3113 12.3591C11.4505 12.4976 11.6388 12.5753 11.8351 12.5753C12.0314 12.5753 12.2197 12.4976 12.3588 12.3591C12.4971 12.22 12.5746 12.0318 12.5746 11.8358C12.5746 11.6397 12.4971 11.4515 12.3588 11.3124L10.7405 9.69325Z" fill="#77787C"/>
</svg>
