<?xml version="1.0" encoding="UTF-8"?>
<svg xmlns="http://www.w3.org/2000/svg" width="140" height="140" viewBox="0 0 140 140" fill="none">
  <path d="M101.66 120.751H108.136L105.714 114.626L108.136 108.501H99.0352L101.66 111.418V120.751Z" fill="#5B5B5B"></path>
  <path d="M35.804 120.751H29.3281L31.75 114.626L29.3281 108.501H38.429L35.804 111.418V120.751Z" fill="#5B5B5B"></path>
  <path d="M100.492 112H36.9092V124.25H100.492V112Z" fill="#5B5B5B"></path>
  <path d="M45.434 116.401C45.7522 116.561 46.0174 116.826 46.1765 117.091C46.3355 117.409 46.4416 117.78 46.4416 118.099C46.4416 118.47 46.3355 118.788 46.1765 119.106C46.0174 119.424 45.7522 119.637 45.434 119.796C45.1158 119.954 44.7446 120.061 44.3734 120.061H42.7295V116.083H44.3734C44.7446 116.137 45.1158 116.19 45.434 116.401ZM45.0628 119.266C45.2749 119.159 45.434 119 45.5401 118.788C45.7522 118.364 45.7522 117.833 45.5401 117.409C45.434 117.197 45.2749 117.038 45.0628 116.932C44.8507 116.826 44.6386 116.773 44.3734 116.773H43.4719V119.424H44.3734C44.5855 119.424 44.8507 119.371 45.0628 119.266Z" fill="white"></path>
  <path d="M47.0952 116.136H50.0119V116.772H47.8907V117.78H49.7998V118.416H47.8907V119.424H50.118V120.06H47.0952V116.136Z" fill="white"></path>
  <path d="M52.7625 116.879C52.6034 116.825 52.3913 116.772 52.1792 116.772C52.0201 116.772 51.861 116.825 51.7549 116.879C51.6489 116.931 51.5959 117.037 51.5959 117.143C51.5959 117.25 51.6489 117.356 51.7019 117.409C51.7549 117.462 51.861 117.567 51.9671 117.567C52.1262 117.621 52.2852 117.674 52.4443 117.727C52.6565 117.78 52.8686 117.886 53.0807 117.939C53.2398 118.045 53.3989 118.151 53.5049 118.31C53.611 118.469 53.7171 118.681 53.664 118.946C53.664 119.159 53.611 119.424 53.4519 119.583C53.2928 119.742 53.1338 119.901 52.9216 120.007C52.6565 120.113 52.3913 120.166 52.1262 120.166C51.808 120.166 51.4898 120.113 51.2246 120.007C50.9595 119.901 50.6943 119.742 50.4292 119.53L50.7473 118.893C50.9595 119.053 51.1716 119.212 51.4368 119.317C51.6489 119.424 51.914 119.477 52.1262 119.477C52.2852 119.477 52.4973 119.424 52.6034 119.371C52.8155 119.264 52.8155 119 52.7095 118.787L52.6565 118.734C52.5504 118.681 52.4973 118.575 52.3913 118.575C52.2852 118.522 52.1262 118.469 51.914 118.416C51.7019 118.363 51.4898 118.257 51.2777 118.204C51.1186 118.151 50.9595 117.992 50.8535 117.886C50.7473 117.727 50.6413 117.514 50.6943 117.303C50.6943 117.09 50.7473 116.879 50.8535 116.719C51.0125 116.56 51.1716 116.401 51.3837 116.295C51.6489 116.189 51.914 116.136 52.1792 116.136C52.4443 116.136 52.7095 116.189 52.9216 116.242C53.1338 116.295 53.3989 116.401 53.611 116.56L53.2928 117.196C53.1868 117.037 52.9746 116.931 52.7625 116.879Z" fill="white"></path>
  <path d="M54.459 116.136H55.2014V120.113H54.459V116.136Z" fill="white"></path>
  <path d="M58.8621 118.099H59.4985V119.637C59.2863 119.796 59.0212 119.901 58.756 120.008C58.4909 120.114 58.2257 120.167 57.9076 120.167C57.5363 120.167 57.1651 120.061 56.8469 119.901C56.5288 119.743 56.2636 119.477 56.1045 119.159C55.8924 118.841 55.8394 118.47 55.8394 118.099C55.8394 117.727 55.9455 117.356 56.1045 117.091C56.3166 116.773 56.5818 116.508 56.9 116.349C57.2182 116.19 57.5893 116.083 57.9606 116.083C58.2257 116.083 58.5439 116.137 58.809 116.243C59.0742 116.349 59.3393 116.454 59.4985 116.667L59.0742 117.25C58.9151 117.091 58.756 116.985 58.5439 116.932C58.3318 116.879 58.1727 116.826 57.9606 116.826C57.6955 116.826 57.4833 116.879 57.2712 116.985C56.6348 117.356 56.4227 118.204 56.7939 118.841C57.059 119.266 57.4833 119.53 57.9606 119.53C58.1197 119.53 58.2257 119.53 58.3848 119.477C58.5439 119.424 58.703 119.371 58.809 119.266L58.8621 118.099Z" fill="white"></path>
  <path d="M63.2131 116.136H63.9556V120.113H63.2662L61.198 117.356V120.113H60.4556V116.136H61.198L63.2662 118.893L63.2131 116.136Z" fill="white"></path>
  <path d="M67.4085 120.112L66.7191 118.946H65.6585V120.112H64.916V116.135H66.56C66.9842 116.082 67.4085 116.241 67.7796 116.453C68.0448 116.719 68.2039 117.09 68.2039 117.461C68.2039 117.726 68.1509 117.991 67.9918 118.256C67.8327 118.469 67.6206 118.628 67.4085 118.733L68.31 120.059L67.4085 120.112ZM65.6585 118.256H66.56C66.8251 118.256 67.0372 118.203 67.2493 118.045C67.4085 117.885 67.4615 117.726 67.4615 117.514C67.4615 117.302 67.4085 117.09 67.2493 116.983C67.0372 116.878 66.8251 116.772 66.613 116.825H65.6585V118.256Z" fill="white"></path>
  <path d="M69.9522 119.212C70.1639 119.371 70.4294 119.477 70.6411 119.477C70.9065 119.477 71.1714 119.371 71.3306 119.212C71.4899 119 71.596 118.734 71.596 118.469V116.136H72.338V118.469C72.338 118.787 72.2855 119.106 72.1263 119.371C71.967 119.636 71.7547 119.848 71.5429 119.954C71.2775 120.113 70.9596 120.166 70.6411 120.166C70.3232 120.166 70.0047 120.113 69.6868 119.954C69.4214 119.848 69.2096 119.636 69.1034 119.371C68.9442 119.106 68.8911 118.787 68.8911 118.469V116.136H69.6337V118.469C69.6868 118.734 69.7929 119 69.9522 119.212Z" fill="white"></path>
  <path d="M75.2 116.879C75.0408 116.825 74.8284 116.772 74.6167 116.772C74.4574 116.772 74.2982 116.825 74.192 116.879C74.0864 116.931 74.0334 117.037 74.0334 117.143C74.0334 117.25 74.0864 117.356 74.1389 117.409C74.192 117.462 74.2982 117.567 74.4044 117.567C74.5636 117.621 74.7223 117.674 74.8815 117.727C75.0939 117.78 75.3056 117.886 75.5179 117.939C75.6772 118.045 75.8364 118.151 75.942 118.31C76.0482 118.469 76.1544 118.681 76.1013 118.946C76.1013 119.159 76.0482 119.424 75.8889 119.583C75.7303 119.742 75.571 119.901 75.3587 120.007C75.0939 120.113 74.8284 120.166 74.5636 120.166C74.2451 120.166 73.9272 120.113 73.6618 120.007C73.3969 119.901 73.1315 119.742 72.8667 119.53L73.1846 118.893C73.3969 119.053 73.6087 119.212 73.8741 119.317C74.0864 119.424 74.3513 119.477 74.5636 119.477C74.7223 119.477 74.9346 119.424 75.0408 119.371C75.2531 119.264 75.2531 119 75.1469 118.787L75.0939 118.734C74.9877 118.681 74.9346 118.575 74.8284 118.575C74.7223 118.522 74.5636 118.469 74.3513 118.416C74.1389 118.363 73.9272 118.257 73.7149 118.204C73.5556 118.151 73.3969 117.992 73.2908 117.886C73.1846 117.727 73.0784 117.514 73.1315 117.303C73.1315 117.09 73.1846 116.879 73.2908 116.719C73.45 116.56 73.6087 116.401 73.821 116.295C74.0864 116.189 74.3513 116.136 74.6167 116.136C74.8815 116.136 75.1469 116.189 75.3587 116.242C75.571 116.295 75.8364 116.401 76.0482 116.56L75.7303 117.196C75.6241 117.037 75.4118 116.931 75.2 116.879Z" fill="white"></path>
  <path d="M76.8994 116.136H77.642V117.833H79.6037V116.136H80.3463V120.113H79.6037V118.522H77.642V120.113H76.8994V116.136Z" fill="white"></path>
  <path d="M81.7726 119.424C81.8251 119.477 81.8782 119.582 81.8782 119.742C81.8782 119.848 81.8251 119.954 81.7726 120.06C81.7196 120.113 81.6134 120.166 81.5072 120.166C81.4011 120.166 81.2949 120.113 81.2418 120.06C81.1893 119.954 81.1362 119.848 81.1362 119.742C81.1362 119.636 81.1893 119.53 81.2418 119.424C81.2949 119.371 81.4011 119.318 81.5072 119.318C81.6134 119.318 81.7196 119.371 81.7726 119.424Z" fill="white"></path>
  <path d="M83.887 117.674C83.6753 117.674 83.463 117.779 83.3037 117.939C83.145 118.098 83.092 118.363 83.092 118.575C83.092 118.84 83.145 119.052 83.3037 119.211C83.463 119.371 83.6753 119.477 83.887 119.477C84.2055 119.477 84.5235 119.371 84.6827 119.105L85.1599 119.477C85.0006 119.689 84.842 119.848 84.6296 119.954C84.3648 120.06 84.0994 120.113 83.834 120.113C83.5691 120.113 83.3037 120.06 83.0389 119.901C82.8265 119.795 82.6148 119.582 82.5086 119.371C82.2432 118.894 82.2432 118.257 82.5086 117.779C82.6148 117.568 82.8265 117.355 83.0389 117.249C83.3037 117.144 83.5691 117.037 83.834 117.037C84.0994 117.037 84.3648 117.09 84.5765 117.196C84.7889 117.302 84.9481 117.408 85.1068 117.621L84.6827 118.045C84.5235 117.832 84.2055 117.674 83.887 117.674Z" fill="white"></path>
  <path d="M87.8651 117.249C88.0775 117.355 88.2892 117.568 88.4485 117.779C88.6077 118.045 88.6608 118.31 88.6608 118.575C88.6608 118.84 88.6077 119.158 88.4485 119.371C88.2892 119.582 88.1305 119.795 87.8651 119.901C87.5997 120.007 87.3349 120.113 87.0164 120.113C86.6985 120.113 86.4331 120.06 86.1682 119.901C85.9559 119.795 85.7441 119.582 85.5849 119.371C85.4256 119.105 85.3726 118.84 85.3726 118.575C85.3726 118.31 85.4256 117.992 85.5849 117.779C85.7441 117.568 85.9028 117.355 86.1682 117.249C86.4331 117.09 86.6985 117.037 87.0164 117.037C87.3349 117.037 87.5997 117.09 87.8651 117.249ZM86.433 117.939C86.1151 118.31 86.1151 118.894 86.433 119.265C86.5923 119.424 86.8046 119.529 87.0695 119.529C87.2818 119.529 87.5472 119.424 87.7059 119.265C88.0244 118.894 88.0244 118.31 87.7059 117.939C87.5472 117.779 87.3349 117.674 87.0695 117.674C86.8046 117.674 86.5923 117.727 86.433 117.939Z" fill="white"></path>
  <path d="M94.0742 117.356C94.2866 117.568 94.3927 117.886 94.3927 118.205V120.114H93.6501V118.416C93.6501 118.205 93.5971 118.045 93.4909 117.886C93.3853 117.781 93.173 117.674 93.0137 117.674C92.802 117.674 92.5897 117.781 92.4304 117.939C92.2712 118.098 92.2186 118.311 92.2186 118.576V120.061H91.4761V118.416C91.4761 118.205 91.423 118.045 91.3168 117.886C91.2106 117.781 90.9989 117.674 90.8397 117.674C90.6273 117.674 90.4156 117.781 90.2563 117.939C90.0971 118.098 90.044 118.364 90.0971 118.576V120.061H89.3545V117.038H90.0971V117.621C90.4687 117.038 91.2637 116.879 91.8471 117.197C92.0063 117.303 92.1656 117.515 92.2186 117.727C92.3773 117.25 92.8545 116.985 93.3322 116.985C93.5971 116.985 93.8625 117.144 94.0742 117.356Z" fill="white"></path>
  <path d="M37.8724 86.3319V81.0679H39.7577V80.1066H34.8951V81.0679H36.7804V86.3319H37.8724ZM43.3581 86.4439C45.2154 86.4439 46.5408 85.0812 46.5408 83.2239C46.5408 81.3666 45.2154 80.0039 43.3581 80.0039C41.4915 80.0039 40.1755 81.3666 40.1755 83.2239C40.1755 85.0812 41.4915 86.4439 43.3581 86.4439ZM43.3581 85.4732C42.0981 85.4732 41.2955 84.5026 41.2955 83.2239C41.2955 81.9359 42.0981 80.9746 43.3581 80.9746C44.6088 80.9746 45.4208 81.9359 45.4208 83.2239C45.4208 84.5026 44.6088 85.4732 43.3581 85.4732ZM48.6748 86.3319V83.9986H50.3268C51.6241 83.9986 52.3521 83.1119 52.3521 82.0572C52.3521 80.9932 51.6335 80.1066 50.3268 80.1066H47.5828V86.3319H48.6748ZM50.1775 83.0372H48.6748V81.0679H50.1775C50.7935 81.0679 51.2321 81.4599 51.2321 82.0572C51.2321 82.6452 50.7935 83.0372 50.1775 83.0372ZM58.5885 86.4439C60.4459 86.4439 61.7712 85.0812 61.7712 83.2239C61.7712 81.3666 60.4459 80.0039 58.5885 80.0039C56.7219 80.0039 55.4059 81.3666 55.4059 83.2239C55.4059 85.0812 56.7219 86.4439 58.5885 86.4439ZM58.5885 85.4732C57.3285 85.4732 56.5259 84.5026 56.5259 83.2239C56.5259 81.9359 57.3285 80.9746 58.5885 80.9746C59.8392 80.9746 60.6512 81.9359 60.6512 83.2239C60.6512 84.5026 59.8392 85.4732 58.5885 85.4732ZM63.9052 86.3319V83.6346H67.0132V82.6732H63.9052V81.0679H67.0785V80.1066H62.8132V86.3319H63.9052ZM69.1643 86.3319V83.6346H72.2722V82.6732H69.1643V81.0679H72.3376V80.1066H68.0723V86.3319H69.1643ZM75.4689 86.4439C77.1396 86.4439 77.8769 85.5479 77.8769 84.5119C77.8769 82.1972 74.2556 82.9159 74.2556 81.7492C74.2556 81.2919 74.6662 80.9746 75.3009 80.9746C75.9542 80.9746 76.6169 81.1986 77.1116 81.6932L77.7275 80.8812C77.1582 80.3212 76.3649 80.0039 75.4036 80.0039C74.0316 80.0039 73.1356 80.7972 73.1356 81.8332C73.1356 84.1199 76.7569 83.3079 76.7569 84.6146C76.7569 85.0345 76.4116 85.4732 75.5156 85.4732C74.6476 85.4732 73.9662 85.0626 73.5462 84.6052L72.9302 85.4545C73.4902 86.0332 74.3209 86.4439 75.4689 86.4439ZM84.2959 86.3319V80.1066H83.2039V82.6452H79.9652V80.1066H78.8732V86.3319H79.9652V83.6066H83.2039V86.3319H84.2959ZM88.5297 86.4439C90.387 86.4439 91.7123 85.0812 91.7123 83.2239C91.7123 81.3666 90.387 80.0039 88.5297 80.0039C86.663 80.0039 85.347 81.3666 85.347 83.2239C85.347 85.0812 86.663 86.4439 88.5297 86.4439ZM88.5297 85.4732C87.2697 85.4732 86.467 84.5026 86.467 83.2239C86.467 81.9359 87.2697 80.9746 88.5297 80.9746C89.7803 80.9746 90.5923 81.9359 90.5923 83.2239C90.5923 84.5026 89.7803 85.4732 88.5297 85.4732ZM97.58 86.3319L96.0494 83.8866C96.8054 83.7652 97.5334 83.1586 97.5334 82.0572C97.5334 80.8999 96.7214 80.1066 95.4894 80.1066H92.7547V86.3319H93.8467V84.0079H94.9387L96.3107 86.3319H97.58ZM95.3494 83.0466H93.8467V81.0679H95.3494C95.9654 81.0679 96.4134 81.4506 96.4134 82.0479C96.4134 82.6546 95.9654 83.0466 95.3494 83.0466ZM102.89 86.3319V85.3706H99.7162V83.6346H102.824V82.6732H99.7162V81.0679H102.89V80.1066H98.6242V86.3319H102.89ZM13.0387 96.9438C14.7093 96.9438 15.4466 96.0478 15.4466 95.0118C15.4466 92.6972 11.8253 93.4158 11.8253 92.2492C11.8253 91.7919 12.236 91.4745 12.8707 91.4745C13.524 91.4745 14.1867 91.6985 14.6813 92.1932L15.2973 91.3812C14.728 90.8212 13.9347 90.5039 12.9733 90.5039C11.6013 90.5039 10.7053 91.2972 10.7053 92.3332C10.7053 94.6198 14.3266 93.8078 14.3266 95.1145C14.3266 95.5345 13.9813 95.9732 13.0853 95.9732C12.2173 95.9732 11.536 95.5625 11.116 95.1052L10.5 95.9545C11.06 96.5332 11.8907 96.9438 13.0387 96.9438ZM19.355 96.9438C21.2123 96.9438 22.5376 95.5812 22.5376 93.7238C22.5376 91.8665 21.2123 90.5039 19.355 90.5039C17.4883 90.5039 16.1723 91.8665 16.1723 93.7238C16.1723 95.5812 17.4883 96.9438 19.355 96.9438ZM19.355 95.9732C18.095 95.9732 17.2923 95.0025 17.2923 93.7238C17.2923 92.4358 18.095 91.4745 19.355 91.4745C20.6057 91.4745 21.4176 92.4358 21.4176 93.7238C21.4176 95.0025 20.6057 95.9732 19.355 95.9732ZM24.6716 96.8318V94.1345H27.7796V93.1732H24.6716V91.5679H27.845V90.6065H23.5796V96.8318H24.6716ZM31.4148 96.8318V91.5679H33.3001V90.6065H28.4374V91.5679H30.3228V96.8318H31.4148ZM40.1521 96.8318L41.9347 90.6065H40.7121L39.4987 95.3945L38.2107 90.6065H37.3427L36.0548 95.3945L34.8414 90.6065H33.6281L35.4014 96.8318H36.5681L37.7814 92.2305L38.9854 96.8318H40.1521ZM47.8464 96.8318L45.4011 90.6065H44.0385L41.5931 96.8318H42.8345L43.2918 95.6278H46.1478L46.6051 96.8318H47.8464ZM45.8398 94.6665H43.5998L44.7198 91.6985L45.8398 94.6665ZM53.3423 96.8318L51.8117 94.3865C52.5677 94.2652 53.2957 93.6585 53.2957 92.5572C53.2957 91.3999 52.4837 90.6065 51.2517 90.6065H48.517V96.8318H49.609V94.5078H50.701L52.073 96.8318H53.3423ZM51.1117 93.5465H49.609V91.5679H51.1117C51.7277 91.5679 52.1757 91.9505 52.1757 92.5479C52.1757 93.1545 51.7277 93.5465 51.1117 93.5465ZM58.6521 96.8318V95.8705H55.4788V94.1345H58.5868V93.1732H55.4788V91.5679H58.6521V90.6065H54.3868V96.8318H58.6521ZM64.5037 96.8318C66.4451 96.8318 67.7517 95.5532 67.7517 93.7145C67.7517 91.8945 66.4451 90.6065 64.4944 90.6065H62.1797V96.8318H64.5037ZM64.4944 95.8705H63.2717V91.5679H64.5037C65.8851 91.5679 66.6317 92.5199 66.6317 93.7145C66.6317 94.8998 65.8477 95.8705 64.4944 95.8705ZM73.0714 96.8318V95.8705H69.8981V94.1345H73.0061V93.1732H69.8981V91.5679H73.0714V90.6065H68.8061V96.8318H73.0714ZM77.3566 96.8318L79.8019 90.6065H78.5605L76.6752 95.6372L74.7899 90.6065H73.5486L75.9939 96.8318H77.3566ZM84.738 96.8318V95.8705H81.5647V94.1345H84.6727V93.1732H81.5647V91.5679H84.738V90.6065H80.4727V96.8318H84.738ZM89.6205 96.8318V95.8705H86.8765V90.6065H85.7845V96.8318H89.6205ZM93.2103 96.9438C95.0676 96.9438 96.393 95.5812 96.393 93.7238C96.393 91.8665 95.0676 90.5039 93.2103 90.5039C91.3437 90.5039 90.0277 91.8665 90.0277 93.7238C90.0277 95.5812 91.3437 96.9438 93.2103 96.9438ZM93.2103 95.9732C91.9503 95.9732 91.1477 95.0025 91.1477 93.7238C91.1477 92.4358 91.9503 91.4745 93.2103 91.4745C94.461 91.4745 95.273 92.4358 95.273 93.7238C95.273 95.0025 94.461 95.9732 93.2103 95.9732ZM98.5268 96.8318V94.4985H100.179C101.476 94.4985 102.204 93.6118 102.204 92.5572C102.204 91.4932 101.485 90.6065 100.179 90.6065H97.4348V96.8318H98.5268ZM100.029 93.5372H98.5268V91.5679H100.029C100.645 91.5679 101.084 91.9599 101.084 92.5572C101.084 93.1452 100.645 93.5372 100.029 93.5372ZM109.59 96.8318V90.6065H108.05L106.361 94.8812L104.662 90.6065H103.122V96.8318H104.214V92.0252L106.128 96.8318H106.594L108.498 92.0252V96.8318H109.59ZM115.18 96.8318V95.8705H112.007V94.1345H115.115V93.1732H112.007V91.5679H115.18V90.6065H110.915V96.8318H115.18ZM121.697 96.8318V90.6065H120.605V94.9185L117.422 90.6065H116.302V96.8318H117.394V92.3798L120.642 96.8318H121.697ZM125.595 96.8318V91.5679H127.48V90.6065H122.618V91.5679H124.503V96.8318H125.595ZM46.3405 107.444C47.5912 107.444 48.3658 106.781 48.8418 106.034L47.9085 105.568C47.6098 106.081 47.0032 106.473 46.3405 106.473C45.1085 106.473 44.1938 105.521 44.1938 104.224C44.1938 102.908 45.1085 101.974 46.3405 101.974C47.0032 101.974 47.6098 102.357 47.9085 102.88L48.8325 102.394C48.3752 101.648 47.5912 101.004 46.3405 101.004C44.5018 101.004 43.0739 102.301 43.0739 104.224C43.0739 106.137 44.5018 107.444 46.3405 107.444ZM52.6185 107.444C54.4758 107.444 55.8011 106.081 55.8011 104.224C55.8011 102.366 54.4758 101.004 52.6185 101.004C50.7518 101.004 49.4358 102.366 49.4358 104.224C49.4358 106.081 50.7518 107.444 52.6185 107.444ZM52.6185 106.473C51.3585 106.473 50.5558 105.502 50.5558 104.224C50.5558 102.936 51.3585 101.974 52.6185 101.974C53.8692 101.974 54.6811 102.936 54.6811 104.224C54.6811 105.502 53.8692 106.473 52.6185 106.473ZM63.3112 107.332V101.106H61.7712L60.0819 105.381L58.3832 101.106H56.8432V107.332H57.9352V102.525L59.8485 107.332H60.3152L62.2192 102.525V107.332H63.3112ZM65.7281 107.332V104.998H67.3801C68.6772 104.998 69.4052 104.112 69.4052 103.057C69.4052 101.993 68.6865 101.106 67.3801 101.106H64.6361V107.332H65.7281ZM67.2307 104.037H65.7281V102.068H67.2307C67.8467 102.068 68.2854 102.46 68.2854 103.057C68.2854 103.645 67.8467 104.037 67.2307 104.037ZM75.2309 107.332L72.7856 101.106H71.4229L68.9776 107.332H70.2189L70.6762 106.128H73.5322L73.9896 107.332H75.2309ZM73.2242 105.166H70.9842L72.1042 102.198L73.2242 105.166ZM81.2964 107.332V101.106H80.2044V105.418L77.0217 101.106H75.9017V107.332H76.9937V102.88L80.2417 107.332H81.2964ZM83.7114 107.332V101.106H82.6194V107.332H83.7114ZM89.2997 107.332V106.37H86.1263V104.634H89.2343V103.673H86.1263V102.068H89.2997V101.106H85.0344V107.332H89.2997ZM92.5587 107.444C94.2294 107.444 94.9667 106.548 94.9667 105.512C94.9667 103.197 91.3454 103.916 91.3454 102.749C91.3454 102.292 91.7561 101.974 92.3907 101.974C93.0441 101.974 93.7067 102.198 94.2014 102.693L94.8174 101.881C94.2481 101.321 93.4547 101.004 92.4934 101.004C91.1214 101.004 90.2254 101.797 90.2254 102.833C90.2254 105.12 93.8467 104.308 93.8467 105.614C93.8467 106.034 93.5014 106.473 92.6054 106.473C91.7374 106.473 91.0561 106.062 90.6361 105.605L90.0201 106.454C90.5801 107.033 91.4107 107.444 92.5587 107.444Z" fill="#E7E7E7"></path>
  <path d="M68.8539 50.5545C68.7442 50.5545 68.7442 50.4374 68.8539 50.5545L68.3067 50.2031L68.1973 50.086L55.2848 40.248C55.2848 40.248 55.1754 40.248 55.1754 40.1309L54.9566 39.8966L54.8471 39.7795H54.6283L50.9077 36.9686L58.2394 38.1398C58.5677 38.1398 58.6771 38.257 59.0053 38.374C59.1148 38.374 59.3336 38.4912 59.3336 38.4912C59.6619 38.6083 59.7714 38.7254 59.9902 38.8425C60.2091 38.9597 60.3185 39.0768 60.5373 39.1939C60.6468 39.311 60.8656 39.4281 60.8656 39.5453C60.9751 39.6624 61.0845 39.6624 61.1939 39.7795C61.4128 39.8966 61.5222 40.0137 61.5222 40.1309C61.8505 40.4822 62.0693 40.8335 62.3976 41.0678L68.1973 49.8518L68.3067 49.9689L68.8539 50.5545Z" fill="#5B5B5B"></path>
  <path d="M68.8563 64.1404L68.3091 63.2035L68.1997 63.0863L51.0195 36.9686L54.7401 39.7795L55.3967 40.248L68.3091 50.086H68.4188L68.8563 50.4374C68.8563 50.4374 68.9654 50.4374 68.9654 50.5545L69.5126 50.086L86.9116 36.9686L69.4035 63.2035L69.2938 63.3206L68.8563 64.1404Z" fill="#E7E7E7"></path>
  <path d="M68.8599 46.1059L68.3127 45.169L68.2033 45.0518L63.9355 38.7274L68.2033 39.6643H68.3127L68.8599 39.7814L69.4071 39.6643L73.5651 38.6102L69.4071 45.169V45.2861L68.8599 46.1059Z" fill="#5B5B5B"></path>
  <path d="M87.0223 36.8533L81.5507 37.6731L79.4717 38.0245C77.8302 38.2587 76.2984 39.1956 75.3137 40.7182L69.5137 49.6193L69.4046 49.7364L68.8574 50.5562L69.5137 49.8536L69.6233 49.7364L68.8574 50.5562L83.6303 39.3128L87.0223 36.8533Z" fill="#5B5B5B"></path>
  <path d="M71.5937 18.347C71.5937 23.5002 63.277 26.194 63.277 31.6986C63.1676 32.9869 63.4959 34.2752 64.043 35.4464C64.043 35.4464 60.8696 32.1671 60.8696 28.6535C60.8696 25.1399 63.9336 19.8696 63.9336 19.8696C63.9336 22.2119 64.809 22.9147 65.6844 23.0318H65.7939C66.7787 23.0318 67.3259 22.2119 67.3259 21.0407C67.3259 19.8696 66.1222 18.6984 66.1222 16.356C66.1222 14.1307 68.7482 10.5 68.7482 10.5C70.6085 12.8424 71.5937 15.5361 71.5937 18.347Z" fill="#E7E7E7"></path>
  <path d="M69.2911 37.0879C66.665 37.0879 64.6953 34.8627 64.6953 32.1689V32.0518C64.6953 26.0787 72.4644 25.4931 72.4644 17.4119C72.6837 17.7632 74.7627 20.8083 74.7627 24.0877C74.7627 28.1869 71.1513 29.2409 71.1513 31.232C71.1513 32.0518 71.4797 32.6374 72.5741 32.6374C72.6837 32.6374 72.7928 32.6374 72.9025 32.5202C74.9815 31.5833 76.4042 29.4751 76.5133 27.0156C76.5133 27.1328 77.6076 37.0879 69.2911 37.0879Z" fill="#E7E7E7"></path>
  <path d="M72.6851 32.6374C72.7942 32.6374 72.9039 32.6374 73.0129 32.5203C71.9192 32.8716 67.8701 33.9257 67.8701 30.8806C67.8701 27.1328 73.8885 26.3129 73.8885 23.1507C73.8885 21.1596 73.451 19.1686 72.4658 17.4119C72.6851 17.7632 74.7641 20.8083 74.7641 24.0877C74.7641 28.1869 71.1527 29.2409 71.1527 31.232C71.2624 32.0518 71.6999 32.6374 72.6851 32.6374Z" fill="#5B5B5B"></path>
  <path d="M69.2029 20.4552C69.2029 23.3831 65.7013 23.1489 65.4824 23.0318H65.8107C66.7956 23.0318 67.3427 22.212 67.3427 21.0408C67.3427 19.8696 66.139 18.6984 66.139 16.356C66.139 14.1307 68.7654 10.5 68.7654 10.5C67.8898 12.0226 67.4521 13.6622 67.3427 15.3019C67.3427 17.9957 69.2029 18.2299 69.2029 20.4552Z" fill="#5B5B5B"></path>
  <path d="M67.3381 71.7595L64.8076 69.9581H67.9132L68.9487 66.7155L69.8686 69.9581H72.9742L70.4438 71.7595L71.3637 74.882L68.8332 72.9605L66.1879 74.882L67.3381 71.7595Z" fill="#E7E7E7"></path>
  <path d="M80.8513 71.7628L78.3208 69.9615H81.4265L82.4619 66.7188L83.3818 69.9615H86.4874L83.9569 71.7628L84.8769 74.8854L82.3464 72.9639L79.701 74.8854L80.8513 71.7628Z" fill="#E7E7E7"></path>
  <path d="M94.2697 71.7628L91.7393 69.9615H94.8449L95.8803 66.7188L96.8002 69.9615H99.9059L97.3754 71.7628L98.2953 74.8854L95.7648 72.9639L93.1194 74.8854L94.2697 71.7628Z" fill="#E7E7E7"></path>
  <path d="M53.4382 71.7628L50.9077 69.9615H54.0133L55.0485 66.7188L55.9688 69.9615H59.0743L56.5439 71.7628L57.464 74.8854L54.9335 72.9639L52.403 74.8854L53.4382 71.7628Z" fill="#E7E7E7"></path>
  <path d="M40.0197 71.7628L37.4893 69.9615H40.5949L41.6301 66.7188L42.5503 69.9615H45.6559L43.1254 71.7628L44.0455 74.8854L41.5151 72.9639L38.9846 74.8854L40.0197 71.7628Z" fill="#E7E7E7"></path>
</svg>
