<?xml version="1.0" encoding="UTF-8"?>
<svg xmlns="http://www.w3.org/2000/svg" width="278" height="120" viewBox="0 0 278 120" fill="none">
  <path d="M56.6303 57.1625H51.6064V54.0751H65.3293V57.1625H60.3022V69.2259H56.6303V57.1625Z" fill="white"></path>
  <path d="M123.009 57.1625H117.985V54.0751H131.707V57.1625H126.681V69.2259H123.009V57.1625Z" fill="white"></path>
  <path d="M74.9428 66.9639C77.7907 66.9639 79.6509 64.7264 79.6509 61.6502C79.6509 58.5725 77.7907 56.3366 74.9428 56.3366C72.0949 56.3366 70.2347 58.5725 70.2347 61.6502C70.2347 64.7264 72.0949 66.9639 74.9428 66.9639ZM74.9428 53.5114C79.7675 53.5114 83.284 56.6831 83.284 61.6502C83.284 66.6174 79.7675 69.7891 74.9428 69.7891C70.1181 69.7891 66.6016 66.6174 66.6016 61.6502C66.6016 56.6831 70.1181 53.5114 74.9428 53.5114Z" fill="white"></path>
  <path d="M108.341 66.9639C111.188 66.9639 113.049 64.7264 113.049 61.6502C113.049 58.5725 111.188 56.3366 108.341 56.3366C105.494 56.3366 103.632 58.5725 103.632 61.6502C103.632 64.7264 105.494 66.9639 108.341 66.9639ZM108.341 53.5114C113.167 53.5114 116.682 56.6831 116.682 61.6502C116.682 66.6174 113.167 69.7891 108.341 69.7891C103.516 69.7891 100.001 66.6174 100.001 61.6502C100.001 56.6831 103.516 53.5114 108.341 53.5114" fill="white"></path>
  <path d="M100.059 54.0751H96.0537L91.6079 60.4006L87.162 54.0751H83.2148L89.903 63.5448V69.2259H93.2382V63.6273L100.059 54.0751Z" fill="white"></path>
  <path d="M141.562 63.3241L139.208 57.1751L136.747 63.3241H141.562ZM141.494 54.0746L147.744 69.2255H143.924L142.696 66.1299H135.632L134.374 69.2255H130.644L136.846 54.0746H141.494Z" fill="white"></path>
  <path d="M196.064 69.8048C190.985 69.8048 188.597 66.9779 188.597 63.4047V54.0953H192.071V62.6033C192.071 64.8214 192.999 66.8565 196.064 66.8565C199.106 66.8565 200.246 64.8214 200.246 62.6033V54.0953H203.718V63.4047C203.718 66.9779 201.121 69.8048 196.064 69.8048" fill="white"></path>
  <path d="M160.893 57.1625H155.869V54.0751H169.592V57.1625H164.565V69.2259H160.893V57.1625Z" fill="white"></path>
  <path d="M250.118 66.9639C252.962 66.9639 254.824 64.7264 254.824 61.6502C254.824 58.5725 252.962 56.3366 250.118 56.3366C247.268 56.3366 245.406 58.5725 245.406 61.6502C245.406 64.7264 247.268 66.9639 250.118 66.9639ZM250.118 53.5114C254.941 53.5114 258.456 56.6831 258.456 61.6502C258.456 66.6174 254.941 69.7891 250.118 69.7891C245.291 69.7891 241.776 66.6174 241.776 61.6502C241.776 56.6831 245.291 53.5114 250.118 53.5114Z" fill="white"></path>
  <path d="M223.89 54.0751H227.429V59.9943H235.637V54.0751H239.173V69.2259H235.637V63.0817H227.429V69.2259H223.89V54.0751Z" fill="white"></path>
  <path d="M172.018 58.253C172.018 55.0215 175.336 53.5109 178.611 53.5109C181.619 53.5109 184.448 54.7737 185.418 57.9324H181.987C181.558 57.0306 180.619 56.2584 178.611 56.2584C176.498 56.2584 175.295 57.11 175.295 58.2433C175.295 61.0118 185.728 58.8051 185.728 64.6806C185.728 68.4221 182.238 69.8048 178.801 69.8048C174.68 69.8048 171.855 67.76 171.45 64.4588H174.747C175.002 65.2472 175.951 66.9246 178.801 66.9246C180.219 66.9246 182.324 66.5345 182.324 64.747C182.324 61.6579 172.018 64.2159 172.018 58.253" fill="white"></path>
  <path d="M207.139 58.253C207.139 55.0215 210.456 53.5109 213.73 53.5109C216.739 53.5109 219.566 54.7737 220.536 57.9324H217.107C216.68 57.0306 215.737 56.2584 213.73 56.2584C211.618 56.2584 210.417 57.11 210.417 58.2433C210.417 61.0118 220.85 58.8051 220.85 64.6806C220.85 68.4221 217.361 69.8048 213.919 69.8048C209.8 69.8048 206.975 67.76 206.57 64.4588H209.868C210.122 65.2472 211.071 66.9246 213.919 66.9246C215.337 66.9246 217.442 66.5345 217.442 64.747C217.442 61.6579 207.139 64.2159 207.139 58.253" fill="white"></path>
  <path d="M45.9711 49C45.1035 49 44.4004 49.7054 44.4004 50.5696C44.4004 51.4395 45.1035 52.1415 45.9711 52.1415C46.8388 52.1415 47.5407 51.4395 47.5407 50.5696C47.5407 49.7054 46.8388 49 45.9711 49Z" fill="#235C9D"></path>
  <path d="M21.5696 64.0579C20.702 64.0579 20 64.7587 20 65.6286C20 66.494 20.702 67.1993 21.5696 67.1993C22.4372 67.1993 23.1392 66.494 23.1392 65.6286C23.1392 64.7587 22.4372 64.0579 21.5696 64.0579Z" fill="#235C9D"></path>
  <path d="M42.4338 60.378L45.3837 54.5852H43.7893L36.8799 60.378H42.4338Z" fill="#235C9D"></path>
  <path d="M29.0665 65.2636C28.6113 64.7216 28.6856 63.9103 29.222 63.4562L39.8013 54.5862H25.9363L22.9863 60.3733H25.7571L31.1431 55.8561C31.6829 55.4009 32.4953 55.4707 32.9516 56.0148C33.4012 56.5523 33.3325 57.367 32.7928 57.8188L29.3966 60.6684L24.1312 70.9999H31.4654L36.8785 60.3834L30.8727 65.4224C30.333 65.8719 29.5194 65.8055 29.0665 65.2636" fill="#235C9D"></path>
</svg>
