<?xml version="1.0" encoding="UTF-8"?>
<svg xmlns="http://www.w3.org/2000/svg" width="140" height="60" viewBox="0 0 140 60" fill="none">
  <path fill-rule="evenodd" clip-rule="evenodd" d="M14.9095 18.1153C12.1981 18.1153 10 15.8251 10 13H18.6931H19.8484H30.3253V19.3497H24.938V45.458H18.6931V25.8461V19.3497V16.2858C17.7866 17.408 16.4273 18.1195 14.9095 18.1153ZM123.809 45.4579L127.089 39.5379L130.368 45.4579H123.809ZM42.7926 22.1289C40.2573 22.1379 38.0402 23.9105 37.3758 26.4598V22.6541H31.6022V45.4579H37.3758V28.0489H42.7926V22.1289ZM55.6097 22.6542V40.3598H51.0765V22.6542H45.2833V39.9404C45.2822 42.5052 46.8317 44.7927 49.1516 45.6507C51.4714 46.5088 54.0584 45.7513 55.6097 43.7598V45.4649H61.3865V22.6542H55.6097ZM78.1828 22.4766C80.5028 23.3349 82.0517 25.6238 82.0483 28.1889V45.458H76.2584V27.7524H71.7252V45.458H65.932V13H71.7252V24.3695C73.2754 22.3766 75.8628 21.6182 78.1828 22.4766ZM94.057 22.1289C89.573 22.1289 85.7959 25.5391 85.7959 30.5452V37.7748C85.7959 42.74 89.4224 45.9831 93.8573 45.9831C98.2922 45.9831 102.122 42.5729 102.122 37.5667V30.3372C102.122 25.3174 98.4919 22.1289 94.057 22.1289ZM96.407 40.3904H91.4975V27.6636H96.407V40.3904ZM105.385 30.5452C105.385 25.5391 109.162 22.1289 113.649 22.1289C118.081 22.1289 121.711 25.3174 121.711 30.3372V37.5667C121.711 42.5729 117.881 45.9831 113.446 45.9831C109.011 45.9831 105.385 42.74 105.385 37.7748V30.5452ZM111.096 40.3904H116.006V27.6636H111.096V40.3904Z" fill="#9FA0A3"></path>
</svg>
