<?xml version="1.0" encoding="UTF-8"?>
<svg xmlns="http://www.w3.org/2000/svg" width="278" height="120" viewBox="0 0 278 120" fill="none">
  <path d="M112.707 74.1612L115.685 74.168C116.175 74.1771 116.626 74.2857 117.038 74.4938C117.451 74.702 117.775 75.021 118.011 75.4509C118.246 75.8763 118.346 76.4215 118.309 77.0867C118.276 77.6343 118.176 78.0959 118.011 78.4714C117.845 78.8425 117.62 79.1593 117.337 79.4217C117.053 79.6842 116.72 79.9172 116.337 80.1209L115.652 80.5553H112.978L113.232 78.7158L115.049 78.7294C115.292 78.7248 115.508 78.666 115.696 78.5529C115.887 78.4398 116.044 78.2791 116.165 78.071C116.287 77.8628 116.364 77.6094 116.397 77.3107C116.427 77.0664 116.42 76.8492 116.375 76.6591C116.331 76.4645 116.246 76.3107 116.121 76.1975C115.996 76.0844 115.83 76.0211 115.624 76.0075L114.342 76.0007L113.204 84.0442H111.315L112.707 74.1612ZM115.629 84.0442L114.519 79.6729L116.436 79.6593L117.646 83.9288V84.0442H115.629Z" fill="#D80018"></path>
  <path d="M123.645 76.3537L120.683 84.0442H118.589L122.855 74.1612H124.192L123.645 76.3537ZM124.153 84.0442L123.335 76.1161L123.38 74.1612H124.639L126.125 84.0442H124.153ZM124.584 80.3584L124.319 82.1979H120.302L120.567 80.3584H124.584Z" fill="#D80018"></path>
  <path d="M135.053 74.1612L133.655 84.0442H131.821L129.904 77.8062L129.02 84.0442H127.131L128.523 74.1612H130.368L132.285 80.3992L133.164 74.1612H135.053Z" fill="#D80018"></path>
  <path d="M139.292 81.3698C139.325 81.1571 139.312 80.9761 139.253 80.8268C139.198 80.6775 139.113 80.5508 138.999 80.4467C138.888 80.3426 138.761 80.2544 138.618 80.182C138.478 80.105 138.341 80.0349 138.209 79.9715C137.921 79.8313 137.638 79.6729 137.358 79.4964C137.078 79.3154 136.824 79.1027 136.596 78.8583C136.367 78.614 136.189 78.3289 136.06 78.0031C135.934 77.6773 135.881 77.2949 135.899 76.856C135.925 76.3537 136.041 75.9215 136.247 75.5595C136.454 75.1975 136.717 74.9033 137.038 74.6771C137.362 74.4463 137.71 74.2789 138.082 74.1748C138.457 74.0662 138.824 74.0164 139.181 74.0255C139.689 74.0345 140.142 74.1612 140.54 74.4056C140.942 74.6499 141.257 75.0006 141.485 75.4577C141.713 75.9102 141.824 76.4577 141.817 77.1003H139.944C139.951 76.8469 139.923 76.6274 139.861 76.4419C139.802 76.2518 139.704 76.1048 139.568 76.0007C139.432 75.8921 139.255 75.8355 139.038 75.831C138.857 75.8265 138.677 75.8627 138.496 75.9396C138.316 76.012 138.159 76.1251 138.026 76.279C137.894 76.4328 137.809 76.632 137.772 76.8763C137.747 77.0618 137.77 77.2248 137.844 77.365C137.918 77.5008 138.019 77.6184 138.148 77.718C138.277 77.813 138.411 77.8945 138.551 77.9624C138.695 78.0302 138.82 78.0891 138.927 78.1388C139.229 78.2791 139.518 78.4443 139.794 78.6343C140.074 78.8199 140.321 79.0393 140.535 79.2928C140.752 79.5462 140.918 79.8426 141.032 80.182C141.15 80.5168 141.198 80.906 141.176 81.3494C141.146 81.8608 141.036 82.2975 140.844 82.6595C140.653 83.0215 140.406 83.3156 140.104 83.5419C139.802 83.7682 139.47 83.9333 139.109 84.0374C138.748 84.1415 138.382 84.1913 138.01 84.1867C137.594 84.1777 137.205 84.1008 136.844 83.9559C136.483 83.8066 136.168 83.5917 135.899 83.3111C135.631 83.026 135.422 82.6776 135.275 82.2658C135.128 81.8495 135.058 81.3721 135.065 80.8336L136.96 80.8404C136.949 81.0938 136.962 81.3178 136.999 81.5124C137.039 81.7024 137.106 81.8631 137.198 81.9943C137.293 82.121 137.417 82.2183 137.568 82.2862C137.719 82.3495 137.901 82.3812 138.115 82.3812C138.295 82.3812 138.468 82.3472 138.634 82.2794C138.804 82.207 138.947 82.0961 139.065 81.9468C139.183 81.7974 139.259 81.6051 139.292 81.3698Z" fill="#D80018"></path>
  <path d="M145.508 80.6978L143.464 80.691L143.723 78.8516L145.574 78.8583C145.814 78.8583 146.033 78.8063 146.232 78.7022C146.431 78.5936 146.594 78.4375 146.723 78.2339C146.852 78.0302 146.935 77.7768 146.972 77.4736C147.005 77.2248 147 76.9917 146.955 76.7745C146.911 76.5573 146.825 76.3785 146.696 76.2383C146.567 76.098 146.39 76.0211 146.165 76.0075L144.845 76.0007L143.707 84.0442H141.817L143.21 74.1612L146.226 74.168C146.753 74.1816 147.224 74.3219 147.641 74.5888C148.057 74.8558 148.379 75.2314 148.607 75.7156C148.836 76.1998 148.928 76.7813 148.884 77.4601C148.836 78.1931 148.646 78.7995 148.315 79.2792C147.987 79.7589 147.574 80.1163 147.077 80.3516C146.583 80.5824 146.06 80.6978 145.508 80.6978Z" fill="#D80018"></path>
  <path d="M156.343 78.8651L156.304 79.2656C156.231 79.9127 156.089 80.5349 155.879 81.1322C155.673 81.725 155.4 82.2522 155.061 82.7138C154.726 83.1754 154.328 83.5396 153.868 83.8066C153.407 84.0691 152.89 84.1935 152.315 84.1799C151.763 84.1664 151.291 84.0216 150.901 83.7455C150.514 83.4695 150.205 83.1007 149.973 82.6391C149.744 82.1776 149.59 81.6594 149.509 81.0847C149.428 80.51 149.417 79.9172 149.476 79.3063L149.514 78.9059C149.588 78.2633 149.73 77.6479 149.94 77.0596C150.15 76.4668 150.424 75.9396 150.763 75.478C151.102 75.0165 151.501 74.6567 151.962 74.3988C152.422 74.1363 152.938 74.0119 153.509 74.0255C154.058 74.0345 154.525 74.1771 154.912 74.4531C155.299 74.7291 155.606 75.0979 155.835 75.5595C156.067 76.0165 156.223 76.5324 156.304 77.1071C156.389 77.6773 156.402 78.2633 156.343 78.8651ZM154.382 79.3063L154.426 78.8855C154.452 78.6185 154.468 78.3176 154.476 77.9827C154.483 77.6479 154.459 77.3243 154.404 77.0121C154.349 76.6953 154.242 76.4328 154.083 76.2247C153.929 76.0165 153.7 75.9034 153.398 75.8853C153.063 75.8672 152.779 75.9509 152.547 76.1365C152.315 76.3175 152.124 76.5618 151.973 76.8695C151.825 77.1727 151.709 77.5031 151.625 77.8605C151.54 78.218 151.479 78.5619 151.442 78.8923L151.398 79.3131C151.372 79.5801 151.354 79.8833 151.343 80.2227C151.336 80.5575 151.358 80.8834 151.409 81.2001C151.465 81.5169 151.571 81.7816 151.73 81.9943C151.888 82.2024 152.12 82.3133 152.426 82.3269C152.754 82.345 153.034 82.2613 153.266 82.0757C153.498 81.8857 153.689 81.6368 153.84 81.3291C153.995 81.0214 154.115 80.6888 154.199 80.3313C154.288 79.9738 154.348 79.6321 154.382 79.3063Z" fill="#D80018"></path>
  <path d="M158.04 74.1612L161.018 74.168C161.508 74.1771 161.959 74.2857 162.371 74.4938C162.784 74.702 163.108 75.021 163.344 75.4509C163.58 75.8763 163.679 76.4215 163.642 77.0867C163.609 77.6343 163.51 78.0959 163.344 78.4714C163.178 78.8425 162.953 79.1593 162.67 79.4217C162.386 79.6842 162.053 79.9172 161.67 80.1209L160.985 80.5553H158.311L158.565 78.7158L160.382 78.7294C160.626 78.7248 160.841 78.666 161.029 78.5529C161.22 78.4398 161.377 78.2791 161.498 78.071C161.62 77.8628 161.697 77.6094 161.731 77.3107C161.76 77.0664 161.753 76.8492 161.708 76.6591C161.664 76.4645 161.58 76.3107 161.454 76.1975C161.329 76.0844 161.163 76.0211 160.957 76.0075L159.675 76.0007L158.537 84.0442H156.648L158.04 74.1612ZM160.963 84.0442L159.852 79.6729L161.769 79.6593L162.979 83.9288V84.0442H160.963Z" fill="#D80018"></path>
  <path d="M168.764 74.1612L167.372 84.0442H165.477L166.875 74.1612H168.764ZM171.113 74.1612L170.853 76.0007H164.317L164.582 74.1612H171.113Z" fill="#D80018"></path>
  <path d="M174.87 81.3698C174.903 81.1571 174.89 80.9761 174.832 80.8268C174.776 80.6775 174.692 80.5508 174.577 80.4467C174.467 80.3426 174.34 80.2544 174.196 80.182C174.056 80.105 173.92 80.0349 173.787 79.9715C173.5 79.8313 173.216 79.6729 172.937 79.4964C172.657 79.3154 172.402 79.1027 172.174 78.8583C171.946 78.614 171.767 78.3289 171.638 78.0031C171.513 77.6773 171.46 77.2949 171.478 76.856C171.504 76.3537 171.62 75.9215 171.826 75.5595C172.032 75.1975 172.296 74.9033 172.616 74.6771C172.94 74.4463 173.288 74.2789 173.66 74.1748C174.036 74.0662 174.402 74.0164 174.76 74.0255C175.268 74.0345 175.721 74.1612 176.119 74.4056C176.52 74.6499 176.835 75.0006 177.064 75.4577C177.292 75.9102 177.402 76.4577 177.395 77.1003H175.522C175.53 76.8469 175.502 76.6274 175.439 76.4419C175.38 76.2518 175.283 76.1048 175.146 76.0007C175.01 75.8921 174.833 75.8355 174.616 75.831C174.436 75.8265 174.255 75.8627 174.075 75.9396C173.894 76.012 173.738 76.1251 173.605 76.279C173.472 76.4328 173.388 76.632 173.351 76.8763C173.325 77.0618 173.349 77.2248 173.423 77.365C173.496 77.5008 173.598 77.6184 173.727 77.718C173.855 77.813 173.99 77.8945 174.13 77.9624C174.274 78.0302 174.399 78.0891 174.506 78.1388C174.808 78.2791 175.097 78.4443 175.373 78.6343C175.653 78.8199 175.9 79.0393 176.113 79.2928C176.331 79.5462 176.496 79.8426 176.611 80.182C176.728 80.5168 176.776 80.906 176.754 81.3494C176.725 81.8608 176.614 82.2975 176.423 82.6595C176.231 83.0215 175.984 83.3156 175.682 83.5419C175.38 83.7682 175.049 83.9333 174.688 84.0374C174.327 84.1415 173.96 84.1913 173.588 84.1867C173.172 84.1777 172.784 84.1008 172.423 83.9559C172.062 83.8066 171.747 83.5917 171.478 83.3111C171.209 83.026 171.001 82.6776 170.854 82.2658C170.706 81.8495 170.636 81.3721 170.644 80.8336L172.539 80.8404C172.528 81.0938 172.541 81.3178 172.577 81.5124C172.618 81.7024 172.684 81.8631 172.776 81.9943C172.872 82.121 172.995 82.2183 173.146 82.2862C173.297 82.3495 173.48 82.3812 173.693 82.3812C173.874 82.3812 174.047 82.3472 174.213 82.2794C174.382 82.207 174.526 82.0961 174.644 81.9468C174.762 81.7974 174.837 81.6051 174.87 81.3698Z" fill="#D80018"></path>
  <path d="M109.876 74.1612H107.987L107.727 76.0007H109.617L109.876 74.1612Z" fill="#D80018"></path>
  <path d="M105.694 74.1612L105.429 76.0007H107.727L107.987 74.1612H105.694Z" fill="#D80018"></path>
  <path fill-rule="evenodd" clip-rule="evenodd" d="M109.617 76.0007L109.876 74.1612H112.224L111.965 76.0007H109.617Z" fill="#D80018"></path>
  <path d="M106.589 84.0442H108.484L109.617 76.0007H107.727L106.589 84.0442Z" fill="#D80018"></path>
  <path fill-rule="evenodd" clip-rule="evenodd" d="M110.291 35.2967C109.741 35.5117 109.153 35.9073 108.983 36.1756C108.398 37.1012 108.665 38.7756 109.521 39.5475C110.319 40.2678 110.363 40.6052 110.154 44.387C109.916 48.6939 109.154 52.1695 107.847 54.9126L107.051 56.5821L107.243 53.9398C107.348 52.4865 107.475 49.4683 107.524 47.2325L107.613 43.1674L105.261 42.837C103.967 42.6552 102.702 42.5865 102.448 42.6845C102.194 42.7825 99.8156 46.0825 97.1625 50.0187C94.509 53.9544 92.2688 57.1052 92.1847 57.0203C91.8944 56.7288 94.4864 49.4979 95.8695 46.7402C96.6309 45.2223 98.105 42.8195 99.1452 41.4004C100.186 39.9813 100.943 38.726 100.828 38.6105C100.228 38.0065 95.5481 37.3874 94.2689 37.7426C90.2262 38.865 86.5389 46.0687 85.2334 55.3939C84.7956 58.5223 84.4931 67.1951 84.8125 67.4589C85.1797 67.7617 91.237 71.013 91.4347 71.013C91.5422 71.013 92.912 68.6748 94.4783 65.8166C97.2903 60.6861 98.7256 58.4146 98.3868 59.6309C98.2934 59.9662 98.1082 62.4382 97.9756 65.1239L97.7338 70.0077L100.743 71.1626C102.397 71.7975 103.935 72.2032 104.159 72.0638C104.808 71.6605 108.042 66.5825 109.453 63.75C111.872 58.8971 114.361 50.4451 115.705 42.5183C115.879 41.4947 116.254 40.9183 116.957 40.5959C118.161 40.0447 118.277 39.3057 117.161 39.3057C116.635 39.3057 116.08 38.752 115.542 37.693C114.416 35.4731 112.303 34.5093 110.291 35.2967ZM184.47 38.1744C181.672 39.167 178.672 42.141 176.768 45.8097C175.296 48.6459 171.734 51.215 171.734 49.4398C171.734 49.2272 172.758 47.3882 174.01 45.3536C176.566 41.1991 176.522 40.9483 173.239 40.9378C171.885 40.9337 170.585 41.2979 168.892 42.1569C166.397 43.4235 166.205 43.4244 166.874 42.1666C167.314 41.3398 167.036 41.2174 163.569 40.7146L161.67 40.4394L160.334 42.3191C159.6 43.3532 158.434 45.2069 157.745 46.439C156.896 47.9569 155.886 49.0654 154.612 49.8776C153.578 50.537 152.732 50.9117 152.732 50.7109C152.732 50.4134 153.672 48.0996 155.821 43.1048C155.946 42.8146 155.28 42.4739 154.074 42.2109C151.717 41.6967 151.664 41.7479 148.707 47.4357C146.991 50.7361 146.403 51.4902 144.662 52.6219C143.541 53.35 142.624 53.7658 142.624 53.5459C142.624 52.7678 144.696 47.6239 145.71 45.8837C146.276 44.9138 146.677 44.0642 146.602 43.9959C146.526 43.928 145.556 43.6804 144.445 43.4459C142.729 43.0841 142.312 43.1223 141.678 43.6987C140.928 44.3813 136.964 52.1463 136.964 52.9333C136.964 53.1654 135.89 54.4235 134.578 55.7292C132.235 58.0597 131.303 58.3512 131.303 56.7524C131.303 55.6394 134.18 50.0012 135.913 47.7187C137.32 45.8654 137.333 45.817 136.451 45.63C133.792 45.0666 131.886 45.141 131.101 45.8394C130.433 46.4337 129.977 46.4967 128.473 46.202C126.081 45.7329 122.7 45.7183 121.513 46.1723C118.461 47.339 114.75 53.7203 114.419 58.3715C114.224 61.117 114.259 61.2552 115.452 62.4544C117.254 64.2666 118.48 64.1056 121.482 61.6634C123.812 59.7683 124.726 59.2077 124.299 59.9357C123.92 60.5837 124.866 62.1012 126.134 62.8788C128.566 64.3695 129.906 64.0061 133.519 60.8784L136.746 58.0849L138.082 59.2646C139.803 60.7841 140.508 60.75 142.655 59.0418C143.624 58.2707 144.455 57.6776 144.501 57.7239C144.628 57.8512 143.247 62.7979 143.022 63.0239C142.914 63.1325 139.129 63.9678 134.61 64.8813C122.916 67.2443 116.748 69.437 116.748 71.2313C116.748 72.4414 118.224 72.6857 122.511 72.1853C125.132 71.8796 135.404 71.6601 150.476 71.5882L174.298 71.4748L175.64 67.687C176.378 65.6036 177.511 62.8211 178.159 61.5032L179.336 59.1077L173.21 59.3865C166.131 59.7089 156.845 60.6243 152.743 61.404C151.18 61.7012 149.902 61.8902 149.902 61.8239C149.902 61.7577 150.103 60.7341 150.35 59.5491C150.807 57.3557 151.641 56.1264 153.659 54.6727L154.789 53.8589L154.535 54.8748C154.298 55.8231 154.42 55.9203 156.357 56.3378L156.591 56.3884C158.092 56.7131 158.883 56.8843 159.423 56.5895C160.026 56.2605 160.314 55.3507 160.925 53.4254L161.011 53.1565L162.164 49.5276L164.817 47.6935C166.277 46.6845 167.516 45.9048 167.572 45.9609C167.628 46.017 167.043 47.515 166.272 49.2898C165.501 51.065 164.869 52.743 164.866 53.0195C164.858 53.8012 168.003 55.7012 169.305 55.7012C170.094 55.7012 171.438 54.9707 173.447 53.45L176.422 51.1987L177.663 52.6711C178.854 54.0849 179.005 54.1422 181.484 54.1211C184.189 54.0983 186.285 53.2833 189.018 51.1906C190.539 50.0264 190.552 49.9687 189.555 48.7678L188.805 47.8638L186.637 49.065C184.301 50.3601 183.094 50.5642 182.327 49.7935C181.374 48.8353 181.88 48.3162 184.571 47.4906C189.658 45.93 193.567 42.802 193.567 40.2914C193.567 38.5874 191.797 37.6756 188.559 37.7117C186.977 37.7292 185.137 37.9374 184.47 38.1744ZM185.865 41.5166C182.863 44.6309 182.957 45.3219 186.195 43.9609C188.206 43.1166 189.524 41.8081 189.524 40.6577C189.524 39.0597 187.855 39.4516 185.865 41.5166ZM125.845 49.7012C124.052 50.639 122.866 51.8687 121.561 54.1431C120.409 56.1516 120.029 58.0048 120.768 58.0048C120.978 58.0048 122.298 57.1276 123.7 56.0552C125.576 54.6199 126.537 53.5199 127.338 51.8886C127.936 50.6691 128.437 49.5345 128.45 49.3666C128.489 48.8557 127.128 49.0304 125.845 49.7012ZM163.807 66.5358C163.569 65.913 164.298 64.2528 165.023 63.7662C165.736 63.2878 166.745 63.4085 167.261 64.0341C168.461 65.4878 166.107 70.1378 164.302 69.8789C163.432 69.7541 162.781 67.9268 163.607 67.9268C163.838 67.9268 163.93 68.1825 163.81 68.4955C163.399 69.5707 164.533 69.661 165.554 68.6345C166.777 67.4045 167.399 63.8618 166.391 63.8618C165.455 63.8618 164.329 65.3606 164.57 66.2874C164.812 67.2167 164.149 67.4325 163.807 66.5358ZM167.212 69.5528C167.019 69.5528 167.144 69.0041 167.489 68.3333C167.865 67.6032 168.436 67.1138 168.915 67.1138C169.893 67.1138 169.974 68.2626 169.073 69.3736C168.415 70.1858 168.431 69.9138 169.15 68.1301C169.572 67.0817 168.508 67.4654 168.022 68.5366C167.769 69.0955 167.404 69.5528 167.212 69.5528ZM170.387 67.7915C170.238 67.9402 170.117 68.489 170.117 69.011C170.117 69.6882 170.348 69.9593 170.926 69.9593C171.37 69.9593 171.734 69.7821 171.734 69.5654C171.734 69.3492 171.443 69.2841 171.087 69.4215C170.608 69.6061 170.481 69.4703 170.597 68.9008C170.684 68.474 171.064 68.1553 171.446 68.1866C171.827 68.2175 172.139 68.0805 172.139 67.8817C172.139 67.4618 170.784 67.3919 170.387 67.7915Z" fill="#D80018"></path>
</svg>
