<?xml version="1.0" encoding="UTF-8"?>
<svg xmlns="http://www.w3.org/2000/svg" width="140" height="60" viewBox="0 0 140 60" fill="none">
  <path fill-rule="evenodd" clip-rule="evenodd" d="M35.4535 3.31023C35.6448 3.00461 36.3098 2.55409 36.9304 2.30923C39.204 1.41225 41.5902 2.51013 42.8627 5.03881C43.4696 6.24505 44.097 6.87575 44.6908 6.87575C45.9519 6.87575 45.8202 7.71757 44.4611 8.34547C43.6669 8.71255 43.2426 9.36915 43.0466 10.5352C41.5276 19.5645 38.7161 29.1922 35.9845 34.7201C34.3897 37.9465 30.7374 43.7309 30.0044 44.1902C29.751 44.349 28.0141 43.8868 26.1448 43.1636L22.746 41.8482L23.0191 36.2851C23.1689 33.2257 23.3781 30.41 23.4836 30.028C23.8663 28.6425 22.245 31.23 19.0686 37.0742C17.2993 40.3299 15.752 42.9932 15.6305 42.9932C15.4072 42.9932 8.56478 39.2898 8.15009 38.9448C7.78926 38.6443 8.13093 28.7653 8.62545 25.2016C10.1002 14.5794 14.2655 6.37371 18.832 5.09537C20.277 4.69063 25.5629 5.39581 26.2411 6.08391C26.3708 6.21537 25.5155 7.64533 24.3404 9.26177C23.1653 10.8782 21.5001 13.6153 20.6402 15.3443C19.0777 18.4857 16.1497 26.7223 16.4776 27.0544C16.5727 27.1511 19.1033 23.5621 22.1007 19.0788C25.0976 14.5952 27.7844 10.8362 28.0713 10.7245C28.3575 10.6129 29.7875 10.6912 31.249 10.8982L33.9056 11.2747L33.8047 15.905C33.7494 18.4518 33.6066 21.8899 33.4873 23.5454L33.2709 26.5551L34.1697 24.6534C35.6466 21.5288 36.5071 17.5698 36.776 12.6638C37.0122 8.35611 36.9623 7.97181 36.0605 7.15127C35.0935 6.27193 34.7921 4.36457 35.4535 3.31023ZM112.023 14.2844C114.173 10.1054 117.562 6.71783 120.723 5.58705C121.477 5.31713 123.556 5.07997 125.343 5.06009C129.001 5.01893 131 6.05745 131 7.99855C131 10.8583 126.585 14.4215 120.837 16.1992C117.798 17.1396 117.226 17.7309 118.304 18.8222C119.169 19.7002 120.533 19.4678 123.173 17.9924L125.62 16.6242L126.468 17.6541C127.594 19.0219 127.579 19.0877 125.862 20.4137C122.774 22.7975 120.407 23.7259 117.351 23.7519C114.551 23.776 114.38 23.7106 113.033 22.1002L111.633 20.423L108.272 22.9874C106.002 24.7196 104.484 25.5517 103.593 25.5517C102.122 25.5517 98.57 23.3875 98.5788 22.4969C98.5819 22.1821 99.2967 20.2707 100.167 18.2485C101.038 16.2269 101.698 14.5206 101.635 14.4567C101.573 14.3928 100.173 15.2809 98.5239 16.4302L95.5265 18.5194L94.224 22.653L94.1276 22.9594C93.4373 25.1525 93.1112 26.1887 92.4306 26.5637C91.821 26.8994 90.9269 26.7044 89.2317 26.3346L88.9668 26.2768C86.7787 25.8012 86.6418 25.6906 86.9093 24.6104L87.1957 23.4531L85.9197 24.3802C83.6398 26.036 82.6977 27.4363 82.1815 29.9349C81.903 31.2847 81.675 32.4507 81.675 32.5261C81.675 32.6016 83.1196 32.3863 84.8853 32.0477C89.5186 31.1597 100.008 30.1169 108.005 29.7496L114.924 29.432L113.594 32.1607C112.863 33.6619 111.583 36.8315 110.75 39.2045L109.234 43.5192L82.3241 43.6484C65.2984 43.7305 53.6953 43.9805 50.7344 44.3287C45.8915 44.8986 44.225 44.6204 44.225 43.2419C44.225 41.198 51.1926 38.7004 64.4014 36.0086C69.506 34.9681 73.7821 34.0167 73.9042 33.8929C74.1585 33.6356 75.7178 28.0008 75.5748 27.8559C75.5227 27.8031 74.5842 28.4786 73.4895 29.3571C71.0643 31.3028 70.2678 31.3416 68.3232 29.6108L66.8142 28.267L63.1692 31.4491C59.0881 35.0117 57.5741 35.4257 54.8274 33.7277C53.3948 32.842 52.326 31.1134 52.7545 30.3753C53.2363 29.5459 52.2037 30.1845 49.5721 32.3431C46.1811 35.1252 44.7959 35.3085 42.7603 33.2443C41.4125 31.8783 41.3732 31.7208 41.5938 28.5935C41.9679 23.2954 46.1591 16.0264 49.6068 14.6974C50.9482 14.1802 54.7677 14.1969 57.4695 14.7313C59.168 15.067 59.6831 14.9952 60.4381 14.3183C61.3245 13.5227 63.478 13.438 66.4813 14.0797C67.4774 14.2928 67.4632 14.3478 65.8739 16.4589C63.9164 19.0588 60.6665 25.4813 60.6665 26.7492C60.6665 28.5703 61.7191 28.2383 64.3653 25.5837C65.8478 24.0963 67.0603 22.6633 67.0603 22.3988C67.0603 21.5024 71.5384 12.6573 72.386 11.8799C73.1017 11.2233 73.5731 11.1798 75.5109 11.5918C76.7658 11.859 77.8625 12.141 77.9474 12.2183C78.0323 12.2961 77.5793 13.2639 76.9403 14.3687C75.795 16.3509 73.4544 22.2104 73.4544 23.0967C73.4544 23.3472 74.4901 22.8734 75.7561 22.0442C77.7227 20.7551 78.3871 19.896 80.3254 16.1366C83.6663 9.65769 83.7252 9.59931 86.3883 10.1851C87.7511 10.4847 88.5029 10.8727 88.3617 11.2033C85.9339 16.8927 84.8719 19.5284 84.8719 19.8673C84.8719 20.0961 85.8274 19.6692 86.9957 18.9181C88.4347 17.993 89.5756 16.7302 90.5351 15.0012C91.3138 13.5977 92.6301 11.4862 93.4599 10.3083L94.9684 8.16711L97.1136 8.48057C101.03 9.05345 101.344 9.19275 100.848 10.1347C100.091 11.5673 100.309 11.5663 103.127 10.1235C105.039 9.14515 106.507 8.73019 108.037 8.73481C111.746 8.74685 111.795 9.03259 108.908 13.7649C107.494 16.0824 106.337 18.1772 106.337 18.4194C106.337 20.4416 110.361 17.515 112.023 14.2844ZM122.673 12.1785C119.014 13.7287 118.909 12.9417 122.299 9.39421C124.547 7.04193 126.432 6.59561 126.432 8.41575C126.432 9.72629 124.944 11.2167 122.673 12.1785ZM49.6612 23.7768C51.135 21.1861 52.475 19.7854 54.5008 18.7172C55.9496 17.9531 57.4873 17.754 57.443 18.3361C57.4284 18.5274 56.863 19.8197 56.1871 21.2088C55.2823 23.067 54.1972 24.32 52.0772 25.9551C50.4933 27.1766 49.003 28.1758 48.766 28.1758C47.9302 28.1758 48.3595 26.0647 49.6612 23.7768ZM98.7566 34.739C97.9378 35.2932 97.1143 37.1843 97.3828 37.8937C97.7692 38.9152 98.5188 38.6693 98.2456 37.6108C97.9734 36.555 99.2445 34.8479 100.303 34.8479C101.441 34.8479 100.739 38.8832 99.3568 40.2845C98.2031 41.4536 96.923 41.3509 97.3866 40.126C97.5217 39.7696 97.4185 39.4782 97.1578 39.4782C96.2247 39.4782 96.9595 41.5596 97.9423 41.7019C99.9811 41.9968 102.641 36.6999 101.285 35.0442C100.702 34.3316 99.5618 34.1939 98.7566 34.739ZM101.543 39.9414C101.153 40.7053 101.012 41.3304 101.229 41.3304C101.447 41.3304 101.859 40.8095 102.145 40.1728C102.693 38.9527 103.895 38.5156 103.418 39.7098C102.607 41.7416 102.588 42.0514 103.332 41.1262C104.349 39.8607 104.258 38.5521 103.153 38.5521C102.613 38.5521 101.967 39.1096 101.543 39.9414ZM104.511 40.7132C104.511 40.1186 104.648 39.4935 104.816 39.3241C105.264 38.869 106.795 38.9485 106.795 39.4269C106.795 39.6532 106.443 39.8093 106.013 39.7742C105.58 39.7385 105.152 40.1015 105.053 40.5877C104.922 41.2365 105.066 41.3911 105.607 41.1809C106.009 41.0244 106.338 41.0985 106.338 41.3449C106.338 41.5915 105.927 41.7936 105.425 41.7936C104.772 41.7936 104.511 41.4846 104.511 40.7132ZM69.6904 54.791C69.7279 54.5487 69.7133 54.3426 69.6468 54.1725C69.5844 54.0024 69.4887 53.8581 69.3597 53.7395C69.2349 53.6209 69.0913 53.5204 68.9291 53.4379C68.7709 53.3503 68.6171 53.2703 68.4673 53.1982C68.1427 53.0385 67.8224 52.858 67.5061 52.657C67.1899 52.4508 66.9029 52.2086 66.645 51.9303C66.387 51.6519 66.1851 51.3271 66.0395 50.956C65.898 50.5849 65.8378 50.1493 65.8586 49.6494C65.8876 49.0772 66.0187 48.585 66.2518 48.1725C66.4847 47.7602 66.7821 47.4251 67.1442 47.1673C67.5103 46.9045 67.9035 46.7137 68.3237 46.5953C68.7482 46.4715 69.162 46.4148 69.5656 46.4252C70.1398 46.4354 70.6516 46.5797 71.101 46.8581C71.5544 47.1365 71.9101 47.5359 72.1681 48.0566C72.426 48.5719 72.551 49.1958 72.5426 49.9277H70.4269C70.4353 49.639 70.404 49.389 70.3332 49.1777C70.2667 48.9611 70.1565 48.7937 70.0025 48.6751C69.8486 48.5514 69.6489 48.487 69.4035 48.4818C69.1995 48.4766 68.9957 48.5179 68.7917 48.6055C68.5879 48.688 68.4111 48.8168 68.2613 48.9921C68.1115 49.1674 68.0158 49.3942 67.9742 49.6725C67.9451 49.8839 67.9721 50.0694 68.0554 50.2293C68.1385 50.3838 68.2529 50.5178 68.3986 50.6312C68.5442 50.7396 68.6961 50.8322 68.8542 50.9097C69.0164 50.9869 69.1579 51.054 69.2785 51.1107C69.6198 51.2704 69.9463 51.4586 70.2584 51.675C70.5747 51.8864 70.8533 52.1363 71.0947 52.425C71.3402 52.7137 71.5273 53.0514 71.6563 53.4379C71.7895 53.8194 71.8436 54.2627 71.8186 54.7678C71.7853 55.3503 71.6605 55.8477 71.4442 56.26C71.2279 56.6725 70.9491 57.0075 70.6078 57.2652C70.2667 57.523 69.8923 57.7111 69.4845 57.8296C69.0768 57.9482 68.6628 58.0049 68.2425 57.9997C67.7724 57.9895 67.3334 57.9018 66.9257 57.7369C66.5181 57.5668 66.1622 57.3219 65.8586 57.0023C65.5548 56.6777 65.3198 56.2806 65.1533 55.8116C64.9869 55.3374 64.9079 54.7935 64.9162 54.1802L67.0567 54.1879C67.0442 54.4766 67.0588 54.7318 67.1005 54.9534C67.1463 55.1699 67.2211 55.3528 67.3251 55.5024C67.4334 55.6467 67.5726 55.7574 67.7433 55.8349C67.9139 55.907 68.1198 55.9431 68.3611 55.9431C68.565 55.9431 68.7605 55.9044 68.9478 55.827C69.1393 55.7446 69.3014 55.6183 69.4346 55.4482C69.5677 55.2781 69.6531 55.0591 69.6904 54.791ZM39.66 46.5797L43.024 46.5874C43.5774 46.5978 44.087 46.7216 44.553 46.9586C45.019 47.1957 45.3851 47.5592 45.6514 48.0488C45.9177 48.5333 46.03 49.1545 45.9884 49.9122C45.951 50.5359 45.8386 51.0617 45.6514 51.4895C45.4641 51.9122 45.2103 52.273 44.8901 52.572C44.6264 52.818 44.3247 53.0413 43.985 53.2419L45.2395 57.706V57.8374H42.9615L41.9604 53.8632H40.7795L40.2218 57.8374H38.0873L39.66 46.5797ZM42.3062 51.7833L41.0725 51.774L41.5074 48.6751L42.9553 48.6828C43.1884 48.6984 43.3755 48.7705 43.517 48.8993C43.6585 49.0282 43.7541 49.2035 43.8041 49.4251C43.8539 49.6415 43.8623 49.8891 43.8291 50.1674C43.7916 50.5076 43.7043 50.7963 43.567 51.0333C43.4297 51.2704 43.2528 51.4534 43.0365 51.5822C42.8242 51.7112 42.5808 51.7782 42.3062 51.7833ZM53.139 46.5797H52.6334H51.716H51.1232L46.3052 57.8374H48.6705L49.4735 55.7343H52.3746L52.5898 57.8374H54.8178L53.139 46.5797ZM52.1604 53.639H50.2736L51.7618 49.7419L52.1604 53.639ZM63.3239 57.8374L64.9029 46.5797H62.7684L61.776 53.6853L59.6105 46.5797H57.526L55.9533 57.8374H58.0876L59.0863 50.7317L61.2518 57.8374H63.3239ZM75.2134 54.0206L76.7124 54.0255C77.3364 54.0255 77.9273 53.8942 78.4849 53.6313C79.0465 53.3632 79.5125 52.956 79.8828 52.4096C80.2572 51.8632 80.4716 51.1724 80.5256 50.3375C80.5756 49.5643 80.4716 48.9019 80.2135 48.3503C79.9555 47.7989 79.5915 47.371 79.1214 47.0668C78.6512 46.7627 78.1186 46.603 77.5237 46.5874L74.1162 46.5797L72.5435 57.8374H74.6779L75.2134 54.0206ZM75.5074 51.9255L75.9635 48.6751L77.455 48.6828C77.7089 48.6984 77.9086 48.7859 78.0542 48.9457C78.1998 49.1055 78.2976 49.3092 78.3476 49.5566C78.3974 49.8039 78.4037 50.0694 78.3663 50.3529C78.3247 50.6983 78.2311 50.9869 78.0854 51.2189C77.9398 51.4509 77.7546 51.6287 77.53 51.7523C77.3053 51.8709 77.0578 51.9303 76.7873 51.9303L75.5074 51.9255ZM88.9517 51.938L88.9081 52.3941C88.8248 53.1312 88.6646 53.84 88.4275 54.5204C88.1945 55.1956 87.8866 55.7962 87.5038 56.3219C87.1252 56.8478 86.676 57.2626 86.1559 57.5668C85.6357 57.8657 85.0512 58.0075 84.4021 57.992C83.7781 57.9766 83.2455 57.8117 82.8044 57.4972C82.3675 57.1828 82.0181 56.7626 81.7559 56.2369C81.498 55.7111 81.3232 55.1209 81.2317 54.4662C81.1402 53.8116 81.1277 53.1364 81.1942 52.4406L81.238 51.9843C81.3211 51.2524 81.4813 50.5514 81.7185 49.8812C81.9557 49.206 82.2656 48.6055 82.6484 48.0797C83.0311 47.554 83.4826 47.1442 84.0027 46.8504C84.5228 46.5515 85.1053 46.4096 85.7502 46.4252C86.3701 46.4354 86.8985 46.5978 87.3354 46.9122C87.7722 47.2267 88.1197 47.6468 88.3776 48.1725C88.6398 48.6932 88.8165 49.2808 88.9081 49.9354C89.0038 50.5849 89.0184 51.2524 88.9517 51.938ZM86.7362 52.4406L86.7862 51.9612C86.8152 51.657 86.8339 51.3143 86.8423 50.9328C86.8506 50.5514 86.8235 50.1828 86.7612 49.8272C86.6987 49.4663 86.5781 49.1674 86.3993 48.9302C86.2245 48.6932 85.9665 48.5642 85.6254 48.5437C85.2466 48.5231 84.9264 48.6184 84.6642 48.8297C84.4021 49.0359 84.1858 49.3142 84.0152 49.6648C83.8487 50.0102 83.7177 50.3865 83.622 50.7936C83.5264 51.2009 83.4576 51.5926 83.416 51.9689L83.3661 52.4483C83.337 52.7523 83.3162 53.0977 83.3037 53.4843C83.2953 53.8658 83.3203 54.2369 83.3786 54.5977C83.441 54.9586 83.5616 55.26 83.7406 55.5024C83.9195 55.7395 84.1817 55.8658 84.5269 55.8812C84.8972 55.9018 85.2135 55.8064 85.4756 55.5952C85.7377 55.3786 85.954 55.0951 86.1246 54.7447C86.2993 54.3941 86.4345 54.0153 86.5303 53.608C86.6301 53.2008 86.6987 52.8117 86.7362 52.4406ZM94.2324 46.5874L90.8686 46.5797L89.2959 57.8374H91.4303L91.9879 53.8632H93.1688L94.1701 57.8374H96.4479V57.706L95.1934 53.2419C95.5332 53.0413 95.8348 52.818 96.0985 52.572C96.4189 52.273 96.6727 51.9122 96.8598 51.4895C97.0471 51.0617 97.1594 50.5359 97.1969 49.9122C97.2384 49.1545 97.1261 48.5333 96.8598 48.0488C96.5936 47.5592 96.2275 47.1957 95.7615 46.9586C95.2955 46.7216 94.7858 46.5978 94.2324 46.5874ZM92.2811 51.774L93.5148 51.7833C93.7894 51.7782 94.0328 51.7112 94.2449 51.5822C94.4614 51.4534 94.6381 51.2704 94.7754 51.0333C94.9127 50.7963 95 50.5076 95.0375 50.1674C95.0708 49.8891 95.0625 49.6415 95.0125 49.4251C94.9627 49.2035 94.8669 49.0282 94.7256 48.8993C94.5841 48.7705 94.3968 48.6984 94.1638 48.6828L92.7159 48.6751L92.2811 51.774ZM102.69 48.6751L101.41 57.8374H99.2697L100.555 48.6751H97.9591L98.2587 46.5797H100.849H102.983H105.636L105.342 48.6751H102.69ZM109.837 54.1725C109.903 54.3426 109.918 54.5487 109.88 54.791C109.843 55.0591 109.758 55.2781 109.624 55.4482C109.491 55.6183 109.329 55.7446 109.138 55.827C108.95 55.9044 108.755 55.9431 108.551 55.9431C108.31 55.9431 108.104 55.907 107.933 55.8349C107.762 55.7574 107.623 55.6467 107.515 55.5024C107.411 55.3528 107.336 55.1699 107.29 54.9534C107.249 54.7318 107.234 54.4766 107.247 54.1879L105.106 54.1802C105.098 54.7935 105.177 55.3374 105.343 55.8116C105.509 56.2806 105.745 56.6777 106.048 57.0023C106.352 57.3219 106.708 57.5668 107.116 57.7369C107.523 57.9018 107.962 57.9895 108.432 57.9997C108.853 58.0049 109.266 57.9482 109.674 57.8296C110.082 57.7111 110.456 57.523 110.798 57.2652C111.139 57.0075 111.418 56.6725 111.634 56.26C111.851 55.8477 111.976 55.3503 112.009 54.7678C112.034 54.2627 111.98 53.8194 111.846 53.4379C111.717 53.0514 111.53 52.7137 111.284 52.425C111.043 52.1363 110.764 51.8864 110.448 51.675C110.136 51.4586 109.809 51.2704 109.468 51.1107C109.348 51.054 109.206 50.9869 109.044 50.9097C108.886 50.8322 108.734 50.7396 108.588 50.6312C108.443 50.5178 108.328 50.3838 108.245 50.2293C108.162 50.0694 108.135 49.8839 108.164 49.6725C108.206 49.3942 108.301 49.1674 108.451 48.9921C108.601 48.8168 108.778 48.688 108.982 48.6055C109.185 48.5179 109.389 48.4766 109.593 48.4818C109.839 48.487 110.038 48.5514 110.192 48.6751C110.346 48.7937 110.456 48.9611 110.523 49.1777C110.594 49.389 110.625 49.639 110.617 49.9277H112.732C112.741 49.1958 112.616 48.5719 112.357 48.0566C112.101 47.5359 111.744 47.1365 111.291 46.8581C110.841 46.5797 110.33 46.4354 109.755 46.4252C109.352 46.4148 108.938 46.4715 108.513 46.5953C108.093 46.7137 107.7 46.9045 107.334 47.1673C106.972 47.4251 106.674 47.7602 106.441 48.1725C106.209 48.585 106.077 49.0772 106.048 49.6494C106.027 50.1493 106.088 50.5849 106.229 50.956C106.375 51.3271 106.577 51.6519 106.835 51.9303C107.093 52.2086 107.38 52.4508 107.696 52.657C108.012 52.858 108.333 53.0385 108.657 53.1982C108.807 53.2703 108.961 53.3503 109.119 53.4379C109.281 53.5204 109.425 53.6209 109.549 53.7395C109.678 53.8581 109.774 54.0024 109.837 54.1725ZM36.4627 46.5797H34.3282H31.7383L31.4387 48.6751H34.0343L32.7493 57.8374H34.89L36.1699 48.6751H38.8217L39.1151 46.5797H36.4627Z" fill="#9FA0A3"></path>
</svg>
